<svg width="95" height="95" xmlns="http://www.w3.org/2000/svg" xmlns:xlink="http://www.w3.org/1999/xlink" xml:space="preserve" overflow="hidden"><g transform="translate(-349 -274)"><path d="M386.944 317.938C386.944 328.421 378.428 336.956 367.963 336.956 357.517 336.938 349 328.421 349 317.938 349 307.454 357.517 298.938 367.981 298.938 378.428 298.919 386.944 307.454 386.944 317.938Z" fill="#E60000"/><path d="M386.944 317.938C386.944 328.421 378.428 336.956 367.963 336.956 357.517 336.938 349 328.421 349 317.938L386.944 317.938Z" fill="#BD0000"/><path d="M444 317.9 444 317.975C443.981 319.125 443.499 320.22 442.627 320.98L433.257 329.349C432.719 329.831 432.069 330.054 431.401 330.054 430.641 330.054 429.88 329.738 429.323 329.126 428.303 327.976 428.396 326.213 429.546 325.192L434.574 320.702 372.156 320.702C370.616 320.702 369.373 319.459 369.373 317.919 369.373 316.379 370.616 315.136 372.156 315.136L434.574 315.136 429.546 310.664C428.396 309.644 428.303 307.881 429.323 306.73 430.344 305.58 432.106 305.487 433.257 306.508L442.627 314.876C443.499 315.655 443.981 316.75 444 317.9Z" fill="#E60000"/><path d="M437.896 292.74 407.559 292.74C406.019 292.74 404.775 293.983 404.775 295.523 404.775 297.063 406.019 298.307 407.559 298.307L437.896 298.307C439.436 298.307 440.679 297.063 440.679 295.523 440.679 293.983 439.436 292.74 437.896 292.74Z" fill="#BD0000"/><path d="M387.482 289.029 410.954 289.029C412.494 289.029 413.737 287.786 413.737 286.246 413.737 284.706 412.494 283.463 410.954 283.463L387.482 283.463C385.942 283.463 384.699 284.706 384.699 286.246 384.699 287.786 385.942 289.029 387.482 289.029Z" fill="#E60000"/><path d="M420.176 289.029 424.518 289.029C426.058 289.029 427.301 287.786 427.301 286.246 427.301 284.706 426.058 283.463 424.518 283.463L420.176 283.463C418.636 283.463 417.393 284.706 417.393 286.246 417.393 287.786 418.636 289.029 420.176 289.029Z" fill="#BD0000"/><path d="M395.888 300.904C395.888 299.364 394.645 298.121 393.104 298.121L388.763 298.121C387.223 298.121 385.979 299.364 385.979 300.904 385.979 302.444 387.223 303.688 388.763 303.688L393.104 303.688C394.645 303.688 395.888 302.444 395.888 300.904Z" fill="#BD0000"/><path d="M392.492 331.52 396.834 331.52C398.374 331.52 399.617 330.276 399.617 328.736 399.617 327.196 398.374 325.953 396.834 325.953L392.492 325.953C390.952 325.953 389.709 327.196 389.709 328.736 389.709 330.276 390.952 331.52 392.492 331.52Z" fill="#E60000"/><path d="M382.102 348.59 366.608 348.59C365.068 348.59 363.825 349.833 363.825 351.373 363.825 352.913 365.068 354.156 366.608 354.156L382.102 354.156C383.642 354.156 384.885 352.913 384.885 351.373 384.885 349.833 383.642 348.59 382.102 348.59Z" fill="#E60000"/><path d="M395.665 348.59 391.323 348.59C389.783 348.59 388.54 349.833 388.54 351.373 388.54 352.913 389.783 354.156 391.323 354.156L395.665 354.156C397.205 354.156 398.448 352.913 398.448 351.373 398.448 349.833 397.205 348.59 395.665 348.59Z" fill="#BD0000"/><path d="M417.04 339.312 380.562 339.312C379.021 339.312 377.778 340.556 377.778 342.096 377.778 343.636 379.021 344.879 380.562 344.879L417.021 344.879C418.562 344.879 419.805 343.636 419.805 342.096 419.823 340.556 418.562 339.312 417.04 339.312Z" fill="#E60000"/><path d="M415.741 353.971 411.399 353.971C409.859 353.971 408.616 355.214 408.616 356.754 408.616 358.294 409.859 359.537 411.399 359.537L415.741 359.537C417.281 359.537 418.524 358.294 418.524 356.754 418.524 355.214 417.281 353.971 415.741 353.971Z" fill="#BD0000"/><path d="M444 317.938 444 317.975C443.981 319.125 443.499 320.22 442.627 320.98L433.257 329.349C432.719 329.831 432.069 330.054 431.401 330.054 430.641 330.054 429.88 329.738 429.323 329.126 428.303 327.976 428.396 326.213 429.546 325.192L434.574 320.702 372.156 320.702C370.616 320.702 369.373 319.459 369.373 317.919L444 317.919 444 317.938Z" fill="#BD0000"/></g></svg>