<svg width="261" height="325" xmlns="http://www.w3.org/2000/svg" xmlns:xlink="http://www.w3.org/1999/xlink" xml:space="preserve" overflow="hidden"><defs><clipPath id="clip0"><rect x="324" y="950" width="261" height="325"/></clipPath></defs><g clip-path="url(#clip0)" transform="translate(-324 -950)"><path d="M583.539 1030.68 554.489 996.682C553.711 995.772 552.289 995.772 551.512 996.682L522.462 1030.68C521.396 1031.93 522.295 1033.84 523.95 1033.84L534.437 1033.84C535.512 1033.84 536.383 1034.69 536.383 1035.75L536.383 1087.01C550.492 1096.63 561.994 1109.71 569.618 1125L569.618 1035.75C569.618 1034.69 570.489 1033.84 571.564 1033.84L582.05 1033.84C583.705 1033.84 584.605 1031.93 583.539 1030.68Z" fill="#00B050" fill-rule="evenodd"/><path d="M523.944 1033.85 534.394 1033.85C535.465 1033.85 536.333 1034.71 536.333 1035.77L536.333 1086.22C540.681 1089.16 544.784 1092.44 548.607 1096L548.607 1030.76C548.607 1029.25 549.145 1027.79 550.127 1026.64L565 1009.16 554.376 996.683C553.601 995.772 552.185 995.772 551.41 996.683L522.46 1030.7C521.398 1031.94 522.294 1033.85 523.944 1033.85Z" fill="#377934" fill-rule="evenodd"/><path d="M458.95 988.138 469.436 988.138C470.511 988.138 471.383 989.003 471.383 990.072L471.383 1070.36C474.247 1070.11 477.143 1069.98 480.07 1069.98 488.536 1069.98 496.758 1071.03 504.618 1073L504.618 990.072C504.618 989.004 505.489 988.138 506.564 988.138L517.05 988.138C518.705 988.138 519.605 986.215 518.539 984.958L489.489 950.688C488.711 949.771 487.289 949.771 486.512 950.688L457.462 984.957C456.395 986.215 457.295 988.138 458.95 988.138Z" fill="#00F2A6" fill-rule="evenodd"/><path d="M458.95 988.138 469.436 988.138C470.511 988.138 471.383 989.003 471.383 990.072L471.383 1070.36C474.247 1070.11 477.143 1069.98 480.07 1069.98 488.536 1069.98 496.758 1071.03 504.618 1073L504.618 990.072C504.618 989.004 505.489 988.138 506.564 988.138L517.05 988.138C518.705 988.138 519.605 986.215 518.539 984.958L489.489 950.688C488.711 949.771 487.289 949.771 486.512 950.688L457.462 984.957C456.395 986.215 457.295 988.138 458.95 988.138Z" fill="#00B050" fill-rule="evenodd"/><path d="M485.127 980.777 500 963.224 489.376 950.686C488.601 949.771 487.185 949.771 486.409 950.686L457.46 984.853C456.397 986.107 457.293 988.024 458.943 988.024L469.393 988.024C470.465 988.024 471.333 988.887 471.333 989.952L471.333 1070C474.187 1069.76 477.073 1069.62 479.99 1069.62 481.201 1069.62 482.406 1069.65 483.606 1069.69L483.606 984.919C483.606 983.403 484.145 981.936 485.127 980.777Z" fill="#377934" fill-rule="evenodd"/><path d="M480 1069C472.397 1069 464.993 1069.86 457.875 1071.47 459.04 1076.45 459.66 1081.63 459.66 1086.95 459.66 1124.15 429.542 1154.42 392.523 1154.42 388.69 1154.42 384.931 1154.09 381.271 1153.47 380.439 1158.69 380 1164.04 380 1169.5 380 1225 424.771 1270 480 1270 535.229 1270 580 1225 580 1169.5 580 1113.99 535.229 1069 480 1069Z" fill="#F3F0F3" fill-rule="evenodd"/><path d="M418.205 1169.26C418.205 1161.97 418.98 1154.86 420.441 1148 411.933 1151.95 402.473 1154.15 392.511 1154.15 388.681 1154.15 384.926 1153.82 381.27 1153.2 380.438 1158.43 380 1163.79 380 1169.26 380 1224.9 424.726 1270 479.898 1270 486.431 1270 492.817 1269.36 499 1268.15 452.968 1259.16 418.205 1218.31 418.205 1169.26Z" fill="#E2DEE2" fill-rule="evenodd"/><path d="M480.001 1064C471.949 1064 464.107 1064.92 456.57 1066.65 457.506 1069.66 458.233 1072.77 458.744 1075.94 465.583 1074.37 472.697 1073.54 480.001 1073.54 532.66 1073.54 575.502 1116.59 575.502 1169.5 575.501 1222.41 532.66 1265.46 480.001 1265.46 427.341 1265.46 384.499 1222.41 384.499 1169.5 384.499 1164.25 384.927 1159.09 385.74 1154.07 382.548 1153.75 379.421 1153.22 376.375 1152.47 375.475 1158.02 375 1163.7 375 1169.5 375 1227.67 422.103 1275 480.001 1275 537.898 1275 585 1227.67 585 1169.5 585 1111.33 537.898 1064 480.001 1064Z" fill="#377934" fill-rule="evenodd"/><path d="M480.171 1093C472.947 1093 465.956 1094.02 459.332 1095.93 458.844 1099.62 458.059 1103.21 457 1106.68 464.217 1103.97 472.024 1102.49 480.17 1102.49 516.782 1102.49 546.567 1132.44 546.567 1169.26 546.567 1171.88 548.678 1174 551.283 1174 553.889 1174 556 1171.88 556 1169.26 556 1127.21 521.983 1093 480.171 1093Z" fill="#00B050" fill-rule="evenodd"/><path d="M404.854 1153.01C403.643 1158.25 403 1163.69 403 1169.27 403 1171.88 405.236 1174 407.996 1174 410.756 1174 412.992 1171.88 412.992 1169.27 412.992 1162.57 414.047 1156.1 416 1150 412.413 1151.28 408.689 1152.29 404.854 1153.01Z" fill="#00B050" fill-rule="evenodd"/><path d="M468.193 1245C467.927 1245 467.658 1244.98 467.387 1244.93 455.306 1242.9 443.735 1237.96 433.924 1230.63 431.799 1229.04 431.368 1226.03 432.964 1223.92 434.559 1221.8 437.576 1221.37 439.702 1222.96 448.288 1229.38 458.414 1233.71 468.987 1235.48 471.608 1235.92 473.374 1238.39 472.932 1241 472.536 1243.34 470.499 1245 468.193 1245Z" fill="#00B050" fill-rule="evenodd"/><path d="M539.674 1214C538.785 1214 537.885 1213.74 537.089 1213.21 534.937 1211.76 534.352 1208.81 535.782 1206.63 539.274 1201.3 541.988 1195.49 543.851 1189.35 544.612 1186.84 547.23 1185.44 549.698 1186.21 552.167 1186.98 553.552 1189.64 552.792 1192.14 550.664 1199.15 547.562 1205.79 543.574 1211.88 542.673 1213.26 541.188 1214 539.674 1214Z" fill="#00B050" fill-rule="evenodd"/><path d="M491.756 1245C489.474 1245 487.459 1243.37 487.067 1241.06 486.63 1238.49 488.377 1236.06 490.97 1235.62 501.591 1233.85 511.752 1229.47 520.351 1222.97 522.442 1221.39 525.429 1221.79 527.024 1223.86 528.619 1225.93 528.217 1228.89 526.126 1230.47 516.302 1237.91 504.692 1242.9 492.553 1244.93 492.286 1244.98 492.019 1245 491.756 1245Z" fill="#00B050" fill-rule="evenodd"/><path d="M420.405 1214C418.93 1214 417.481 1213.28 416.592 1211.95 412.509 1205.82 409.351 1199.12 407.204 1192.04 406.458 1189.57 407.822 1186.96 410.249 1186.21 412.675 1185.45 415.249 1186.83 415.995 1189.3 417.874 1195.5 420.638 1201.36 424.21 1206.72 425.633 1208.86 425.081 1211.76 422.977 1213.2 422.188 1213.74 421.292 1214 420.405 1214Z" fill="#00B050" fill-rule="evenodd"/><path d="M465.586 1176 457.374 1184.61C455.542 1186.53 455.542 1189.64 457.374 1191.56 458.29 1192.52 459.49 1193 460.69 1193 461.89 1193 463.091 1192.52 464.007 1191.56L472 1183.18C469.234 1181.52 466.988 1179.02 465.586 1176Z" fill="#E60000" fill-rule="evenodd"/><path d="M538.598 1110.38C536.727 1108.54 533.697 1108.54 531.827 1110.38L487 1154.55C489.937 1155.96 492.377 1158.22 493.996 1161L538.598 1117.05C540.467 1115.21 540.467 1112.22 538.598 1110.38Z" fill="#E60000" fill-rule="evenodd"/><path d="M497 1169.5C497 1178.61 489.389 1186 480 1186 470.611 1186 463 1178.61 463 1169.5 463 1160.39 470.611 1153 480 1153 489.389 1153 497 1160.39 497 1169.5Z" fill="#BD0000" fill-rule="evenodd"/><path d="M479.496 1169.5C479.496 1163.34 482.924 1157.98 488 1155.14 485.565 1153.78 482.752 1153 479.752 1153 470.5 1153 463 1160.39 463 1169.5 463 1178.61 470.5 1186 479.752 1186 482.751 1186 485.565 1185.22 488 1183.86 482.923 1181.03 479.496 1175.66 479.496 1169.5Z" fill="#990000" fill-rule="evenodd"/><path d="M460 1087C460 1124.56 429.555 1155 392 1155 354.445 1155 324 1124.56 324 1087 324 1049.44 354.445 1019 392 1019 429.555 1019 460 1049.44 460 1087Z" fill="#666666" fill-rule="evenodd"/><path d="M351.367 1087C351.367 1054.11 374.827 1026.67 406 1020.37 401.579 1019.47 397.003 1019 392.316 1019 354.586 1019 324 1049.44 324 1087 324 1124.56 354.586 1155 392.316 1155 397.003 1155 401.579 1154.53 406 1153.63 374.827 1147.33 351.367 1119.89 351.367 1087Z" fill="#4A4D4E" fill-rule="evenodd"/><path d="M427.884 1079.68 402.017 1079.68C399.997 1079.68 398.513 1077.79 398.997 1075.83L414.065 1014.87C414.887 1011.54 410.5 1009.53 408.51 1012.32L353.582 1089.44C352.116 1091.5 353.589 1094.35 356.116 1094.35L382.219 1094.35C384.234 1094.35 385.717 1096.23 385.242 1098.19L370.449 1159.15C369.64 1162.48 374.036 1164.47 376.014 1161.67L430.426 1084.58C431.879 1082.52 430.406 1079.68 427.884 1079.68Z" fill="#EBEBEB" fill-rule="evenodd"/><path d="M401.912 1097.86C402.381 1095.89 400.916 1094 398.926 1094L382.724 1094C384.714 1094 386.179 1095.89 385.71 1097.86L371.097 1159.13C370.298 1162.48 374.64 1164.48 376.594 1161.66L391.985 1139.48Z" fill="#CCCCCC" fill-rule="evenodd"/><path d="M369.937 1089.11 409.112 1034.19 413.899 1014.85C414.719 1011.54 410.344 1009.53 408.36 1012.32L353.58 1089.11C352.119 1091.16 353.587 1094 356.108 1094L372.465 1094C369.944 1094 368.476 1091.16 369.937 1089.11Z" fill="#CCCCCC" fill-rule="evenodd"/></g></svg>