<svg width="73" height="95" xmlns="http://www.w3.org/2000/svg" xmlns:xlink="http://www.w3.org/1999/xlink" xml:space="preserve" overflow="hidden"><g transform="translate(-1088 -22)"><path d="M8.64788 42.8815 2.91046 36.7982C1.96814 35.7962 1.63415 34.3768 2.01585 33.0647L2.70768 30.7029C2.93431 29.9395 2.98203 29.1404 2.85082 28.365L2.85082 28.365C2.57647 26.6951 3.11324 25.0013 4.31797 23.8085L10.5683 17.582C11.0931 17.0691 11.3794 16.3654 11.3794 15.6258L11.3794 15.6258C11.3794 14.7193 11.8208 13.8724 12.5722 13.3595L14.8386 11.8088C15.5662 11.3078 16.4846 11.1886 17.3077 11.4748L18.7987 11.9997C19.2877 12.1667 19.8126 12.2025 20.3136 12.0832L26.0629 10.7949C26.8025 10.6279 27.5778 10.7949 28.198 11.2482L28.7706 11.6776C29.6413 12.3217 30.023 13.431 29.7368 14.4807L29.7368 14.4807 36.4165 17.1765C37.5377 17.6297 38.8379 17.3435 39.6609 16.4489L39.6609 16.4489C40.3051 15.757 41.2593 15.435 42.1897 15.59L49.1438 16.759C49.943 16.8902 50.6348 17.3673 51.0642 18.0472L60.6663 33.518C62.0739 35.7843 64.6742 37.0368 67.3222 36.7266L68.9564 36.5358C70.1134 36.4046 71.1392 37.3111 71.1392 38.4801L71.1392 38.4801C71.1392 38.9214 70.9841 39.3508 70.7098 39.6967L60.1415 53.0085C59.1395 54.2609 58.8413 55.9309 59.3304 57.4577L59.9745 59.4377C60.2369 60.2608 60.3562 61.1196 60.3204 61.9904L60.3204 61.9904C60.2369 64.3163 59.056 66.4634 57.1356 67.7755L53.6407 70.185 53.7838 71.1989C54.0343 72.9284 53.1039 74.5984 51.5056 75.2902L51.3386 75.3618 50.4082 78.0098C50.1338 78.7851 49.6328 79.465 48.9649 79.9422L45.4699 82.4709C44.3487 83.282 43.0008 83.7114 41.6291 83.7114L41.6291 83.7114C38.9095 83.7114 36.4761 82.0415 35.51 79.5127L32.3013 71.2108C31.1324 68.181 30.9892 64.8531 31.8958 61.7399L32.027 61.2866C32.4564 59.7956 32.2894 58.1972 31.5379 56.8374L27.8879 50.1577C27.709 49.8237 27.6613 49.442 27.7567 49.0842L28.031 47.9987C28.4247 46.4719 27.9118 44.8616 26.719 43.8358L26.5758 43.7165C25.7051 42.965 24.548 42.6072 23.4029 42.7384L11.8804 44.0743C10.6876 44.2056 9.48284 43.7642 8.64788 42.8815Z" fill="#BD0000" transform="matrix(1 0 0 1.0056 1088 22)"/><path d="M29.5578 22.0193C30.0708 19.6456 30.6075 17.2123 32.6114 15.6377L29.7368 14.4688C29.7606 14.3734 29.7845 14.2779 29.7964 14.1706 27.6016 15.1248 24.6554 17.0095 24.0828 20.4567 23.6176 23.2479 22.1147 25.5023 20.5402 27.8879 18.2739 31.2993 15.7212 35.1641 15.4708 41.7007 15.4469 42.3806 15.4111 43.0247 15.3634 43.6449L19.6217 43.1559C20.1227 39.0049 21.566 33.3748 25.55 30.0111 28.3292 27.6732 28.9495 24.7985 29.5578 22.0193Z" fill="#E60000" transform="matrix(1 0 0 1.0056 1088 22)"/><path d="M48.4997 30.4167C48.5474 30.7626 48.6309 30.8938 48.6547 30.9176 48.6547 30.9176 49.0007 31.0608 50.2531 30.4525 51.2551 29.9634 52.4359 29.2 53.6765 28.3889 54.583 27.7925 55.5134 27.1961 56.4199 26.6712L52.269 19.9796C50.4082 23.1763 48.1538 27.8044 48.4997 30.4167Z" fill="#E60000" transform="matrix(1 0 0 1.0056 1088 22)"/><path d="M16.4489 21.1247C15.7451 27.3392 7.52663 32.3729 1.98007 35.0925 2.11127 35.6412 2.37369 36.1541 2.74346 36.5954 6.26225 34.7824 9.68562 33.5895 10.9739 35.7366 12.0712 37.5497 11.4987 40.7703 10.7234 44.0147 11.1051 44.0863 11.4987 44.1101 11.9042 44.0624L13.2044 43.9074C13.2641 43.1917 13.3118 42.4283 13.3356 41.6291 13.598 34.4841 16.4608 30.1781 18.7629 26.719 20.2778 24.4288 21.5899 22.4606 21.9835 20.1108 22.7469 15.5185 26.552 13.1806 29.2239 12.0951 29.0926 11.94 28.9495 11.7969 28.7825 11.6776L28.21 11.2482C27.6016 10.7949 26.8263 10.6279 26.0748 10.7949L23.1405 11.4629C20.5521 13.0732 17.0214 16.1626 16.4489 21.1247Z" fill="#E60000" transform="matrix(1 0 0 1.0056 1088 22)"/><path d="M6.47696 37.2395C5.72549 37.5139 4.96209 37.8717 4.24641 38.2176L8.64788 42.8815C8.68366 42.9173 8.71944 42.9531 8.75523 42.9889 9.24428 40.8895 9.8049 37.9552 9.13693 36.834 9.07729 36.7505 8.42124 36.5119 6.47696 37.2395Z" fill="#E60000" transform="matrix(1 0 0 1.0056 1088 22)"/><path d="M43.7284 15.8525C41.1281 19.3235 35.0209 28.4485 36.4046 36.0944 37.3469 41.307 37.1322 47.7005 35.7962 53.6168 34.7943 58.0422 33.2675 61.8591 31.3471 64.7338 31.2159 66.4157 31.3828 68.0975 31.8123 69.7317 35.331 66.6542 38.1819 61.394 39.9114 54.7142 41.4979 48.5712 42.0108 41.7364 41.2474 36.8578 40.1023 29.5936 44.0982 20.4209 46.1975 16.258L43.7284 15.8525Z" fill="#E60000" transform="matrix(1 0 0 1.0056 1088 22)"/><path d="M31.6453 22.4845C31.025 25.3114 30.2616 28.8422 26.9217 31.6572 23.6415 34.4364 22.3294 39.1958 21.8165 42.9173L23.4149 42.7265C23.9397 42.6668 24.4645 42.7026 24.9655 42.8458 26.0987 37.2515 27.4108 36.0706 28.4724 35.7366 29.3431 35.4623 30.202 35.7366 30.8342 36.5 32.5518 38.5874 32.4683 44.2891 32.3967 45.9828 32.2536 49.6328 31.6572 52.9966 30.7507 55.3583L31.5498 56.8136C31.8361 57.3265 32.027 57.8871 32.1462 58.4477 34.7108 51.6726 35.4742 42.9173 34.3052 36.4642 32.8858 28.6036 38.2057 19.8245 41.2593 15.5781 40.651 15.6735 40.0904 15.9717 39.6609 16.4369L39.6609 16.4369C38.8379 17.3315 37.5497 17.6178 36.4165 17.1645L35.1283 16.6397C32.8261 17.5582 32.3132 19.419 31.6453 22.4845Z" fill="#E60000" transform="matrix(1 0 0 1.0056 1088 22)"/><path d="M53.6526 70.185 56.2052 68.4196C52.5552 61.883 52.2809 50.8972 54.75 44.0863 56.074 40.4243 59.8791 37.8598 63.6603 36.1422 62.8611 35.7724 62.1216 35.2476 61.5013 34.6034 58.0064 35.8678 54.4757 37.8598 52.5194 40.985 48.1895 47.951 47.3665 66.2964 50.5752 77.5923L51.3505 75.3856 51.5175 75.3141C53.1158 74.6222 54.0462 72.9404 53.7958 71.2227L53.6526 70.185Z" fill="#E60000" transform="matrix(1 0 0 1.0056 1088 22)"/><path d="M68.9564 36.5358 68.5031 36.5835C64.209 37.9672 58.2807 40.5913 56.7539 44.8258 54.5234 50.9807 54.7261 61.1793 57.9348 67.1433 59.3781 65.8193 60.2489 63.9704 60.3324 61.9784L60.3324 61.9784C60.3681 61.1196 60.2489 60.2489 59.9864 59.4258L59.3423 57.4458C58.8533 55.919 59.1515 54.249 60.1534 52.9966L70.7217 39.6848C70.9961 39.3389 71.1511 38.9095 71.1511 38.4681L71.1511 38.4681C71.1392 37.3111 70.1134 36.4046 68.9564 36.5358Z" fill="#E60000" transform="matrix(1 0 0 1.0056 1088 22)"/><path d="M2.15899 32.5995C3.10131 32.1105 4.09134 31.5737 5.0933 30.9773 10.7711 27.5778 13.9678 24.0948 14.3257 20.8861 14.7074 17.5582 16.2699 14.5284 18.8941 12.0355 18.8703 12.0235 18.8345 12.0235 18.8106 12.0116L17.3196 11.4868C16.4846 11.2005 15.5662 11.3198 14.8505 11.8208L12.5842 13.3714C11.8327 13.8843 11.3913 14.7312 11.3913 15.6377 11.3913 16.3654 11.1051 17.0691 10.5802 17.594L4.3299 23.8204C3.13709 25.0132 2.5884 26.707 2.86275 28.377 2.99395 29.1523 2.94624 29.9515 2.71961 30.7149L2.15899 32.5995Z" fill="#E60000" transform="matrix(1 0 0 1.0056 1088 22)"/><path d="M50.7064 39.8637C52.8534 36.4165 56.5392 34.1979 60.2131 32.7904L57.5412 28.4843C56.6824 28.9734 55.752 29.5817 54.8454 30.1781 52.4956 31.7049 50.4082 33.0647 48.774 33.0647 48.4162 33.0647 48.0822 32.9931 47.7601 32.85 47.2234 32.5995 46.5554 32.027 46.3765 30.6791 46.0902 28.532 46.9848 25.4069 49.0364 21.4109 49.7283 20.0631 50.432 18.8464 50.9807 17.9279 50.5513 17.2958 49.8833 16.8663 49.1319 16.7471L48.4281 16.6278C46.5793 20.242 42.2851 29.5698 43.3825 36.5239 44.1936 41.6649 43.6569 48.8456 42.0108 55.251 40.6152 60.6067 37.8598 67.7516 32.5637 71.9026L34.6989 77.4492C35.0806 76.6739 35.5338 75.815 36.0229 74.9681 38.3846 70.8768 40.3409 69.2188 42.2016 69.7317 43.2871 70.0299 44.9093 71.1869 46.5196 77.6639 46.8297 78.9044 47.0922 80.1211 47.283 81.1708L48.9649 79.9541C48.9887 79.9302 49.0126 79.9183 49.0484 79.8944 45.3745 68.9802 45.4222 48.3327 50.7064 39.8637Z" fill="#E60000" transform="matrix(1 0 0 1.0056 1088 22)"/><path d="M28.043 47.9868 27.7686 49.0722C27.6732 49.4301 27.7209 49.8237 27.8998 50.1458L29.3312 52.7699C30.4525 48.3804 30.5956 42.0346 29.701 39.0168 29.4505 38.158 29.2 37.8717 29.1046 37.7882 28.9137 37.8956 27.9118 38.7306 26.9217 44.0147 27.9714 45.0405 28.4127 46.5554 28.043 47.9868Z" fill="#E60000" transform="matrix(1 0 0 1.0056 1088 22)"/><path d="M44.4441 78.1649C42.9531 72.2247 41.6768 71.7953 41.6291 71.7833 41.319 71.6998 40.0426 72.2843 37.8837 76.0297 37.001 77.5565 36.2495 79.1191 35.7843 80.1449 36.8936 82.3278 39.148 83.7353 41.6291 83.7353 42.965 83.7353 44.2771 83.3297 45.3745 82.5663 45.1598 81.3616 44.8497 79.7752 44.4441 78.1649Z" fill="#E60000" transform="matrix(1 0 0 1.0056 1088 22)"/><path d="M68.9564 36.5358 67.3222 36.7266C64.6742 37.0368 62.0739 35.7843 60.6663 33.518L51.0523 18.0472C50.6229 17.3673 49.931 16.8902 49.1319 16.759L42.1778 15.59C41.4144 15.4588 40.651 15.6497 40.0426 16.1029L43.9431 16.759C44.7423 16.8902 45.4342 17.3673 45.8636 18.0472L55.4776 33.518C60.3681 40.651 63.6961 37.5258 64.2448 39.8279 64.3879 40.4482 64.2328 41.1162 63.8392 41.6172L54.9766 52.9966C53.9747 54.249 53.6765 55.919 54.1655 57.4458L54.7023 59.1276C54.9528 59.891 55.1556 61.1793 55.1556 61.9784L55.1556 61.9784C55.1556 64.2328 54.0462 66.3322 52.1974 67.6085L49.3227 69.5886C48.8098 69.9464 48.5355 70.5667 48.6309 71.1869L48.6309 71.1869C48.8814 72.9165 47.951 74.5864 46.3526 75.2783L46.1856 75.3498 45.2552 77.9979C44.9809 78.7732 44.4799 79.4531 43.8119 79.9302L40.317 82.459C39.9234 82.7453 39.5059 82.9838 39.0645 83.1628 39.8637 83.5087 40.7464 83.6995 41.6649 83.6995 43.0485 83.6995 44.3964 83.2582 45.5057 82.459L49.0007 79.9302C49.6686 79.4531 50.1696 78.7732 50.444 77.9979L51.3743 75.3498 51.5413 75.2783C53.1397 74.5864 54.0701 72.9046 53.8196 71.1869L53.6765 70.173 57.398 67.6085C59.2469 66.3322 60.3562 64.2209 60.3562 61.9784L60.3562 61.9784C60.3562 61.1793 60.1534 59.891 59.9029 59.1276L59.3662 57.4458C58.8771 55.919 59.1753 54.249 60.1773 52.9966L70.7456 39.6848C71.0199 39.3389 71.175 38.9095 71.175 38.4681L71.175 38.4681C71.1392 37.3111 70.1134 36.4046 68.9564 36.5358Z" fill="#BD0000" transform="matrix(1 0 0 1.0056 1088 22)"/><path d="M41.9869 83.7234C42.0346 83.7234 42.0943 83.7234 42.142 83.7114 42.1897 83.7114 42.2255 83.6995 42.2732 83.6995 42.309 83.6995 42.3567 83.6876 42.3925 83.6876 42.4402 83.6876 42.4879 83.6757 42.5356 83.6637 42.5714 83.6637 42.6072 83.6518 42.631 83.6518 42.6907 83.6399 42.7384 83.6279 42.798 83.6279 42.8219 83.6279 42.8577 83.616 42.8815 83.616 42.9412 83.6041 43.0008 83.5922 43.0605 83.5802 43.0843 83.5802 43.1082 83.5683 43.132 83.5683 43.1917 83.5564 43.2513 83.5325 43.3229 83.5206 43.3467 83.5206 43.3587 83.5087 43.3825 83.5087 43.4422 83.4967 43.5137 83.4729 43.5734 83.449 43.5853 83.449 43.5972 83.4371 43.6211 83.4371 43.6926 83.4132 43.7523 83.3894 43.8239 83.3655 43.8358 83.3655 43.8477 83.3536 43.8596 83.3536 43.9312 83.3297 44.0028 83.3059 44.0624 83.2701 44.0743 83.2701 44.0743 83.2582 44.0863 83.2582 44.1578 83.2343 44.2294 83.1985 44.301 83.1747 44.301 83.1747 44.3129 83.1747 44.3129 83.1628 44.3845 83.127 44.456 83.1031 44.5276 83.0673L44.5395 83.0673C44.6111 83.0315 44.6827 82.9958 44.7542 82.96L44.7542 82.96C44.8258 82.9242 44.8974 82.8765 44.969 82.8407L44.969 82.8407C45.1121 82.7572 45.2552 82.6618 45.3864 82.5663L45.3864 82.5663C45.2194 81.6002 44.9809 80.3716 44.6827 79.0953 44.4322 79.4293 44.1459 79.7275 43.8 79.966L40.3051 82.4948C39.9114 82.781 39.494 83.0196 39.0526 83.1985 39.0526 83.1985 39.0526 83.1985 39.0645 83.1985 39.16 83.2343 39.2554 83.282 39.3508 83.3178L39.3627 83.3178C39.4582 83.3536 39.5655 83.3894 39.6729 83.4252L39.6729 83.4252C39.7683 83.461 39.8637 83.4848 39.9711 83.5087 39.983 83.5087 39.9949 83.5087 40.0069 83.5206 40.1142 83.5444 40.2096 83.5683 40.317 83.5922L40.3289 83.5922C40.4243 83.616 40.5198 83.6279 40.6152 83.6399 40.6391 83.6399 40.651 83.6518 40.6748 83.6518 40.7703 83.6637 40.8776 83.6757 40.973 83.6876L40.985 83.6876C41.0804 83.6995 41.1758 83.6995 41.2712 83.7114 41.2951 83.7114 41.319 83.7114 41.3428 83.7114 41.4382 83.7114 41.5456 83.7234 41.641 83.7234 41.7245 83.7234 41.808 83.7234 41.8915 83.7234 41.9154 83.7234 41.9511 83.7234 41.9869 83.7234Z" fill="#BD0000" transform="matrix(1 0 0 1.0056 1088 22)"/><path d="M43.9431 16.759C44.5634 16.8663 45.124 17.1765 45.5415 17.6297 45.7801 17.1288 45.9948 16.6755 46.2095 16.2699L43.7284 15.8525C43.5495 16.091 43.3587 16.3415 43.1559 16.6278L43.9431 16.759Z" fill="#BD0000" transform="matrix(1 0 0 1.0056 1088 22)"/><path d="M52.6864 29.033C53.0085 28.8302 53.3425 28.6155 53.6765 28.3889 54.583 27.7925 55.5134 27.1961 56.4199 26.6712L53.3783 21.7688 52.269 19.9796C51.4817 21.3394 50.6229 22.9497 49.931 24.56L52.6864 29.033Z" fill="#BD0000" transform="matrix(1 0 0 1.0056 1088 22)"/><path d="M47.6528 74.3598C47.2949 74.7534 46.8536 75.0755 46.3407 75.3021L46.1737 75.3737 46.0306 75.7792C46.1975 76.3518 46.3765 76.9721 46.5435 77.6639 46.8536 78.9044 47.116 80.1211 47.3069 81.1708L48.9887 79.9541C49.0126 79.9302 49.0364 79.9183 49.0722 79.8944 48.4997 78.2484 48.0345 76.3757 47.6528 74.3598Z" fill="#BD0000" transform="matrix(1 0 0 1.0056 1088 22)"/><path d="M49.0364 21.4229C49.7283 20.075 50.432 18.8583 50.9807 17.9399 50.8734 17.7848 50.7541 17.6417 50.6229 17.5105L50.6229 17.5105C50.5632 17.4508 50.4917 17.3912 50.4201 17.3315 50.4201 17.3315 50.4082 17.3196 50.3962 17.3196 50.3247 17.2719 50.265 17.2123 50.1935 17.1765 50.1815 17.1645 50.1696 17.1645 50.1458 17.1526 50.0861 17.1168 50.0145 17.0691 49.9549 17.0453 49.931 17.0333 49.8953 17.0214 49.8714 17.0095 49.8118 16.9856 49.7521 16.9498 49.6925 16.926 49.6448 16.9141 49.5971 16.8902 49.5493 16.8783 49.5016 16.8663 49.4659 16.8425 49.4181 16.8306 49.3227 16.8067 49.2273 16.7828 49.1319 16.7709L49.1319 16.7709 48.4281 16.6516C48.0225 17.4508 47.4977 18.5124 46.9371 19.7768L48.5593 22.3891C48.7144 22.067 48.8694 21.7569 49.0364 21.4229Z" fill="#BD0000" transform="matrix(1 0 0 1.0056 1088 22)"/><path d="M55.4776 33.518C55.7639 33.9235 56.0382 34.3052 56.3007 34.6511 57.5531 33.9116 58.8771 33.3033 60.2131 32.7904L57.5412 28.4843C56.6824 28.9734 55.752 29.5817 54.8454 30.1781 54.4995 30.4047 54.1536 30.6314 53.8196 30.8461L55.4776 33.518Z" fill="#BD0000" transform="matrix(1 0 0 1.0056 1088 22)"/><path d="M60.1892 38.0149C61.2985 37.3111 62.4794 36.6908 63.6603 36.1541 63.3621 36.0109 63.0639 35.8559 62.7895 35.677L62.7895 35.677C62.3243 35.3788 61.8949 35.0209 61.5132 34.6154L61.5132 34.6154C60.2489 35.0686 58.9725 35.6292 57.7797 36.2972 58.6505 37.1441 59.4616 37.669 60.1892 38.0149Z" fill="#BD0000" transform="matrix(1 0 0 1.0056 1088 22)"/><path d="M52.9489 74.2286C53.0204 74.1451 53.0801 74.0616 53.1397 73.9781 53.1516 73.9542 53.1755 73.9423 53.1874 73.9185 53.1993 73.8946 53.2113 73.8708 53.2351 73.8469 53.3306 73.6918 53.4141 73.5368 53.4976 73.3817 53.5333 73.2982 53.5691 73.2147 53.6049 73.1193 53.6049 73.1074 53.6168 73.0954 53.6168 73.0835 53.6765 72.9284 53.7123 72.7614 53.76 72.5944 53.7719 72.5587 53.7838 72.5229 53.7838 72.4752 53.7838 72.4632 53.7838 72.4513 53.7838 72.4394 53.8196 72.2485 53.8435 72.0458 53.8435 71.843 53.8435 71.6402 53.8315 71.4255 53.8077 71.2227 53.8077 71.2108 53.8077 71.2108 53.8077 71.1989L53.6645 70.185 56.2172 68.4196C55.585 67.2745 55.0482 65.9982 54.6188 64.6384 54.1178 65.8193 53.2948 66.8689 52.1974 67.6204L49.108 69.7556C49.4301 72.5587 49.9191 75.2306 50.5871 77.5804L51.3624 75.3737 51.5294 75.3021C52.09 75.0516 52.5791 74.6819 52.9489 74.2286Z" fill="#BD0000" transform="matrix(1 0 0 1.0056 1088 22)"/><path d="M71.0915 38.0507C70.9126 37.2276 70.2208 36.6193 69.3858 36.5239 69.2426 36.5119 69.0995 36.5119 68.9564 36.5239L68.5031 36.5716C66.8212 37.1083 64.8889 37.8479 63.0639 38.7902 63.6722 38.9214 64.0658 39.1361 64.2328 39.816 64.376 40.4363 64.2209 41.1042 63.8273 41.6052L55.3345 52.5194C55.0601 57.6724 55.8712 63.2786 57.9348 67.1314 59.3781 65.8074 60.2489 63.9585 60.3324 61.9665L60.3324 61.9665C60.3324 61.1673 60.1296 59.8791 59.8791 59.1157L59.3423 57.4338C58.8533 55.907 59.1515 54.2371 60.1534 52.9846L70.7217 39.6729C70.7337 39.649 70.7575 39.6252 70.7694 39.6013 70.8172 39.5417 70.8649 39.4701 70.9007 39.3985L70.9007 39.3985C70.9961 39.2315 71.0557 39.0407 71.1034 38.8498 71.1273 38.7186 71.1511 38.5874 71.1511 38.4562L71.1511 38.4562C71.1392 38.3369 71.1154 38.1938 71.0915 38.0507Z" fill="#BD0000" transform="matrix(1 0 0 1.0056 1088 22)"/></g></svg>