<svg width="58" height="95" xmlns="http://www.w3.org/2000/svg" xmlns:xlink="http://www.w3.org/1999/xlink" xml:space="preserve" overflow="hidden"><g transform="translate(-793 -527)"><path d="M70.7773 95.7456 31.7915 95.7456C27.3231 95.7456 23.7007 92.1232 23.7007 87.6547L23.7007 12.4426C23.6995 7.97521 27.3202 4.35279 31.7877 4.35172 31.789 4.35172 31.7902 4.35172 31.7915 4.35172L70.7773 4.35172C75.2458 4.35172 78.8682 7.97413 78.8682 12.4426L78.8682 87.6547C78.867 92.1228 75.2454 95.7445 70.7773 95.7456Z" fill="#CCCCCC" transform="matrix(1 0 0 1.00899 770.717 524.001)"/><path d="M69.3048 88.0142 33.2621 88.0142 33.2621 21.6832C33.263 21.2771 33.5921 20.948 33.9983 20.947L68.5705 20.947C68.9763 20.9482 69.3048 21.2774 69.3048 21.6832Z" fill="#990000" transform="matrix(1 0 0 1.00899 770.717 524.001)"/><path d="M68.5705 20.947 63.0536 20.947C63.4594 20.9482 63.7879 21.2774 63.7879 21.6832L63.7879 88.0142 69.3048 88.0142 69.3048 21.6832C69.3048 21.2774 68.9763 20.9482 68.5705 20.947Z" fill="#820000" transform="matrix(1 0 0 1.00899 770.717 524.001)"/><path d="M69.3048 37.7665 33.2621 37.7665 33.2621 21.6832C33.263 21.2771 33.5921 20.948 33.9983 20.947L68.5705 20.947C68.9763 20.9482 69.3048 21.2774 69.3048 21.6832Z" fill="#4A4D4E" transform="matrix(1 0 0 1.00899 770.717 524.001)"/><path d="M68.5705 20.947 63.0536 20.947C63.4594 20.9482 63.7879 21.2774 63.7879 21.6832L63.7879 37.7665 69.3048 37.7665 69.3048 21.6832C69.3048 21.2774 68.9763 20.9482 68.5705 20.947Z" fill="#333333" transform="matrix(1 0 0 1.00899 770.717 524.001)"/><path d="M44.1337 27.8688 58.4333 27.8688C59.1948 27.8974 59.8352 27.3032 59.8636 26.5416 59.8922 25.7803 59.298 25.1399 58.5365 25.1113 58.5021 25.1099 58.4677 25.1099 58.4333 25.1113L44.1337 25.1113C43.3721 25.0827 42.7317 25.6769 42.7033 26.4384 42.6747 27.1998 43.2689 27.8402 44.0305 27.8688 44.0649 27.8702 44.0993 27.8702 44.1337 27.8688Z" fill="#EBEBEB" transform="matrix(1 0 0 1.00899 770.717 524.001)"/><path d="M63.0536 29.9519 39.5153 29.9519C38.7533 29.9519 38.1355 30.5697 38.1355 31.3316 38.1355 32.0936 38.7533 32.7113 39.5153 32.7113L63.0536 32.7113C63.8155 32.7113 64.4333 32.0936 64.4333 31.3316 64.4333 30.5697 63.8155 29.9519 63.0536 29.9519Z" fill="#EBEBEB" transform="matrix(1 0 0 1.00899 770.717 524.001)"/><path d="M41.8515 65.9155C41.8801 66.677 42.5205 67.271 43.2819 67.2426 44.0034 67.2156 44.582 66.637 44.609 65.9155L44.609 64.8237C46.8268 64.2563 48.5059 62.4412 48.8989 60.1859 49.3376 57.5734 47.9733 55.3009 45.4206 54.4004L44.609 54.1067 44.609 49.3511C44.9393 49.4614 45.2488 49.6261 45.525 49.838 46.1304 50.3008 46.9963 50.1851 47.4591 49.5799 47.906 48.9949 47.8152 48.1621 47.2525 47.6873 46.4794 47.0852 45.5727 46.6774 44.609 46.4989L44.609 45.6467C44.5804 44.8852 43.94 44.2911 43.1787 44.3195 42.4571 44.3466 41.8786 44.9252 41.8515 45.6467L41.8515 46.6013C41.7452 46.6284 41.6389 46.6573 41.5327 46.6902 39.814 47.2297 38.5415 48.685 38.236 50.4603 37.921 52.124 38.4602 53.7337 39.6428 54.6593 40.3245 55.1757 41.0662 55.6077 41.8515 55.9463L41.8515 62.1821C41.1501 62.0932 40.6341 61.869 39.8186 61.3357 39.191 60.9034 38.3319 61.0619 37.8998 61.6893 37.4675 62.317 37.626 63.1761 38.2534 63.6084 38.2718 63.6209 38.2905 63.6331 38.3095 63.6449 39.693 64.5512 40.665 64.8584 41.8515 64.9531ZM46.1839 59.7106C46.027 60.6416 45.4475 61.4474 44.6148 61.8922L44.6148 57.0323C46.3713 57.7144 46.2612 59.2545 46.1839 59.7183ZM41.353 52.4815C40.9897 52.1975 40.8331 51.6023 40.9549 50.9627 41.0558 50.389 41.3812 49.8792 41.8592 49.5462L41.8592 52.8313C41.6834 52.7281 41.5143 52.6139 41.353 52.4893Z" fill="#EBEBEB" transform="matrix(1 0 0 1.00899 770.717 524.001)"/><path d="M53.5096 51.2641 61.6565 51.2641C62.4184 51.2641 63.0362 50.6464 63.0362 49.8844 63.0362 49.1225 62.4184 48.5047 61.6565 48.5047L53.5096 48.5047C52.7476 48.5047 52.1298 49.1225 52.1298 49.8844 52.1298 50.6464 52.7476 51.2641 53.5096 51.2641Z" fill="#EBEBEB" transform="matrix(1 0 0 1.00899 770.717 524.001)"/><path d="M53.5096 56.6555 61.6565 56.6555C62.418 56.6841 63.0584 56.0899 63.0868 55.3283 63.1154 54.567 62.5212 53.9266 61.7597 53.898 61.7253 53.8966 61.6909 53.8966 61.6565 53.898L53.5096 53.898C52.748 53.8694 52.1076 54.4636 52.0792 55.2251 52.0506 55.9865 52.6448 56.6269 53.4064 56.6555 53.4408 56.6568 53.4752 56.6568 53.5096 56.6555Z" fill="#EBEBEB" transform="matrix(1 0 0 1.00899 770.717 524.001)"/><path d="M53.5096 62.0488 61.6565 62.0488C62.4184 62.0488 63.0362 61.431 63.0362 60.669 63.0362 59.9071 62.4184 59.2893 61.6565 59.2893L53.5096 59.2893C52.7476 59.2893 52.1298 59.9071 52.1298 60.669 52.1298 61.431 52.7476 62.0488 53.5096 62.0488Z" fill="#EBEBEB" transform="matrix(1 0 0 1.00899 770.717 524.001)"/><path d="M62.269 71.5368 40.2979 71.5368C39.5363 71.5653 38.9423 72.2057 38.9707 72.9671 38.9978 73.6886 39.5763 74.2672 40.2979 74.2943L62.269 74.2943C63.0306 74.3229 63.671 73.7286 63.6994 72.9671 63.728 72.2057 63.1338 71.5653 62.3722 71.5368 62.3378 71.5354 62.3034 71.5354 62.269 71.5368Z" fill="#EBEBEB" transform="matrix(1 0 0 1.00899 770.717 524.001)"/><path d="M62.269 76.93 40.2979 76.93C39.5363 76.9586 38.9423 77.599 38.9707 78.3604 38.9978 79.0819 39.5763 79.6605 40.2979 79.6875L62.269 79.6875C63.0306 79.7161 63.671 79.1219 63.6994 78.3604 63.728 77.599 63.1338 76.9586 62.3722 76.93 62.3378 76.9287 62.3034 76.9287 62.269 76.93Z" fill="#EBEBEB" transform="matrix(1 0 0 1.00899 770.717 524.001)"/><path d="M70.7773 4.35172 65.2604 4.35172C69.7288 4.35172 73.3512 7.97413 73.3512 12.4426L73.3512 87.6547C73.3501 92.1228 69.7284 95.7445 65.2604 95.7456L70.7773 95.7456C75.2454 95.7445 78.867 92.1228 78.8682 87.6547L78.8682 12.4426C78.8682 7.97413 75.2458 4.35172 70.7773 4.35172Z" fill="#AFAFAF" transform="matrix(1 0 0 1.00899 770.717 524.001)"/><path d="M38.4119 4.35172 39.6969 7.95561C40.025 8.88387 40.9037 9.50368 41.8882 9.50152L60.6768 9.50152C61.6605 9.50285 62.5382 8.88319 62.8661 7.95561L64.1551 4.35172Z" fill="#E60000" transform="matrix(1 0 0 1.00899 770.717 524.001)"/><path d="M58.64 4.35172 57.3531 7.95561C57.0251 8.88319 56.1475 9.50285 55.1637 9.50152L60.6768 9.50152C61.6605 9.50285 62.5382 8.88319 62.8661 7.95561L64.1551 4.35172Z" fill="#BD0000" transform="matrix(1 0 0 1.00899 770.717 524.001)"/><path d="M70.7773 95.7456 31.7915 95.7456C27.3231 95.7456 23.7007 92.1232 23.7007 87.6547L23.7007 85.3088 78.8682 85.3088 78.8682 87.6547C78.867 92.1228 75.2454 95.7445 70.7773 95.7456Z" fill="#E60000" transform="matrix(1 0 0 1.00899 770.717 524.001)"/><path d="M73.3512 85.3088 73.3512 87.6547C73.3501 92.1228 69.7284 95.7445 65.2604 95.7456L70.7773 95.7456C75.2454 95.7445 78.867 92.1228 78.8682 87.6547L78.8682 85.3088Z" fill="#BD0000" transform="matrix(1 0 0 1.00899 770.717 524.001)"/><path d="M70.7773 2.972 31.7915 2.972C26.5652 2.97946 22.3304 7.21435 22.3229 12.4407L22.3229 87.6547C22.3304 92.8811 26.5652 97.1159 31.7915 97.1234L70.7773 97.1234C76.004 97.117 80.2396 92.8814 80.246 87.6547L80.246 12.4426C80.2406 7.21509 76.0048 2.9784 70.7773 2.972ZM77.4885 87.6547C77.4842 91.3595 74.4821 94.3616 70.7773 94.3659L31.7915 94.3659C28.0866 94.3616 25.0839 91.3597 25.0784 87.6547L25.0784 12.4426C25.0839 8.73759 28.0866 5.73569 31.7915 5.73144L70.7773 5.73144C74.4821 5.73569 77.4842 8.7379 77.4885 12.4426Z" fill="#BD0000" transform="matrix(1 0 0 1.00899 770.717 524.001)"/></g></svg>