<svg width="94" height="95" xmlns="http://www.w3.org/2000/svg" xmlns:xlink="http://www.w3.org/1999/xlink" xml:space="preserve" overflow="hidden"><defs><clipPath id="clip0"><rect x="783" y="269" width="94" height="95"/></clipPath></defs><g clip-path="url(#clip0)" transform="translate(-783 -269)"><path d="M89.5938 79.3125 89.5938 89.5938 57.2812 89.5938 57.2812 82.25 63.1562 76.375 70.5 83.7188 74.9062 79.3125 79.3125 83.7188 86.6562 76.375 89.5938 79.3125Z" fill="#AFAFAF" transform="matrix(1 0 0 1.01064 783 269)"/><path d="M89.5938 57.2812 89.5938 79.3125 86.6562 76.375 79.3125 83.7188 74.9062 79.3125 70.5 83.7188 63.1562 76.375 57.2812 82.25 57.2812 74.9062 66.0938 66.0938 73.4375 73.4375 89.5938 57.2812Z" fill="#E60000" transform="matrix(1 0 0 1.01064 783 269)"/><path d="M64.625 77.8438 64.625 89.5938 57.2812 89.5938 57.2812 82.25 63.1562 76.375 64.625 77.8438Z" fill="#999999" transform="matrix(1 0 0 1.01064 783 269)"/><path d="M69.7656 69.7656 64.625 74.9062 64.625 77.8438 63.1562 76.375 57.2812 82.25 57.2812 74.9062 66.0938 66.0938 69.7656 69.7656Z" fill="#BD0000" transform="matrix(1 0 0 1.01064 783 269)"/><path d="M89.5938 57.2812 89.5938 64.625 80.7812 73.4375 77.1094 69.7656 89.5938 57.2812Z" fill="#BD0000" transform="matrix(1 0 0 1.01064 783 269)"/><path d="M22.0312 60.2188 27.9062 60.2188 27.9062 83.7188 22.0312 83.7188 22.0312 60.2188Z" fill="#AFAFAF" transform="matrix(1 0 0 1.01064 783 269)"/><path d="M10.2812 69.0312 16.1562 69.0312 16.1562 83.7188 10.2812 83.7188 10.2812 69.0312Z" fill="#BD0000" transform="matrix(1 0 0 1.01064 783 269)"/><path d="M33.7812 54.3438 39.6562 54.3438 39.6562 83.7188 33.7812 83.7188 33.7812 54.3438Z" fill="#E60000" transform="matrix(1 0 0 1.01064 783 269)"/><path d="M22.0312 60.2188 24.9688 60.2188 24.9688 83.7188 22.0312 83.7188 22.0312 60.2188Z" fill="#999999" transform="matrix(1 0 0 1.01064 783 269)"/><path d="M10.2812 69.0312 13.2188 69.0312 13.2188 83.7188 10.2812 83.7188 10.2812 69.0312Z" fill="#990000" transform="matrix(1 0 0 1.01064 783 269)"/><path d="M33.7812 54.3438 36.7188 54.3438 36.7188 83.7188 33.7812 83.7188 33.7812 54.3438Z" fill="#BD0000" transform="matrix(1 0 0 1.01064 783 269)"/><path d="M46.9449 13.2738C48.891 16.3215 49.9375 19.8832 49.9375 23.5L30.8438 23.5 30.8438 4.40625C37.3613 4.42461 43.4383 7.76602 46.9449 13.2738Z" fill="#AFAFAF" transform="matrix(1 0 0 1.01064 783 269)"/><path d="M37.6918 43.5668C34.075 47.6059 28.916 49.9375 23.5 49.9375 13.0168 49.9375 4.40625 41.327 4.40625 30.8438 4.40625 20.3605 13.0168 11.75 23.5 11.75L23.5 30.8438 42.5938 30.8438C42.5938 35.5438 40.8312 40.0785 37.6918 43.5668Z" fill="#E60000" transform="matrix(1 0 0 1.01064 783 269)"/><path d="M38.1875 5.89336 38.1875 23.5 30.8438 23.5 30.8438 4.40625C33.359 4.40625 35.8559 4.90195 38.1875 5.89336Z" fill="#999999" transform="matrix(1 0 0 1.01064 783 269)"/><path d="M27.1719 49.5703C25.9602 49.809 24.7301 49.9375 23.5 49.9375 13.0168 49.9375 4.40625 41.327 4.40625 30.8438 4.40625 20.3605 13.0168 11.75 23.5 11.75L23.5 13.2371C16.6336 16.1379 11.75 22.9676 11.75 30.8438 11.75 40.0602 18.4328 47.8445 27.1719 49.5703L27.1719 49.5703Z" fill="#BD0000" transform="matrix(1 0 0 1.01064 783 269)"/><path d="M43.6402 18.6715 41.5656 16.5969 48.9094 9.25313C49.1848 8.97773 49.552 8.83086 49.9559 8.83086L61.7059 8.83086 61.7059 11.7684 50.5617 11.7684 43.6402 18.6715Z" fill="#666666" transform="matrix(1 0 0 1.01064 783 269)"/><path d="M61.6875 47 39.6562 47C39.2707 47 38.8852 46.8531 38.6098 46.5777L31.266 39.234 33.3406 37.1594 40.2621 44.0809 61.6875 44.0809 61.6875 47Z" fill="#666666" transform="matrix(1 0 0 1.01064 783 269)"/><path d="M47 91.0625 4.40625 91.0625C3.59844 91.0625 2.9375 90.4016 2.9375 89.5938L2.9375 52.875 5.875 52.875 5.875 88.125 47 88.125 47 91.0625Z" fill="#666666" transform="matrix(1 0 0 1.01064 783 269)"/><path d="M64.625 8.8125 76.375 8.8125 76.375 11.75 64.625 11.75 64.625 8.8125Z" fill="#E60000" transform="matrix(1 0 0 1.01064 783 269)"/><path d="M64.625 14.6875 76.375 14.6875 76.375 17.625 64.625 17.625 64.625 14.6875Z" fill="#E60000" transform="matrix(1 0 0 1.01064 783 269)"/><path d="M64.625 20.5625 76.375 20.5625 76.375 23.5 64.625 23.5 64.625 20.5625Z" fill="#E60000" transform="matrix(1 0 0 1.01064 783 269)"/><path d="M79.3125 14.6875 91.0625 14.6875 91.0625 17.625 79.3125 17.625 79.3125 14.6875Z" fill="#E60000" transform="matrix(1 0 0 1.01064 783 269)"/><path d="M79.3125 20.5625 91.0625 20.5625 91.0625 23.5 79.3125 23.5 79.3125 20.5625Z" fill="#E60000" transform="matrix(1 0 0 1.01064 783 269)"/><path d="M64.625 44.0625 76.375 44.0625 76.375 47 64.625 47 64.625 44.0625Z" fill="#AFAFAF" transform="matrix(1 0 0 1.01064 783 269)"/><path d="M79.3125 44.0625 91.0625 44.0625 91.0625 47 79.3125 47 79.3125 44.0625Z" fill="#AFAFAF" transform="matrix(1 0 0 1.01064 783 269)"/><path d="M64.625 38.1875 76.375 38.1875 76.375 41.125 64.625 41.125 64.625 38.1875Z" fill="#AFAFAF" transform="matrix(1 0 0 1.01064 783 269)"/><path d="M79.3125 38.1875 91.0625 38.1875 91.0625 41.125 79.3125 41.125 79.3125 38.1875Z" fill="#AFAFAF" transform="matrix(1 0 0 1.01064 783 269)"/><path d="M64.625 32.3125 76.375 32.3125 76.375 35.25 64.625 35.25 64.625 32.3125Z" fill="#AFAFAF" transform="matrix(1 0 0 1.01064 783 269)"/><path d="M79.3125 32.3125 91.0625 32.3125 91.0625 35.25 79.3125 35.25 79.3125 32.3125Z" fill="#AFAFAF" transform="matrix(1 0 0 1.01064 783 269)"/><path d="M91.0625 91.0625 51.4062 91.0625C50.5984 91.0625 49.9375 90.4016 49.9375 89.5938L49.9375 52.875 52.875 52.875 52.875 88.125 91.0625 88.125 91.0625 91.0625Z" fill="#666666" transform="matrix(1 0 0 1.01064 783 269)"/><path d="M-23.9406 0.917969-13.0168 0.917969-13.0168 9.96914-23.9406 9.96914Z" fill="#E60000" transform="matrix(1 0 0 1.01064 783 269)"/><path d="M-13.0168 20.3055-23.9406 20.3055-23.9406 11.2543-13.0168 11.2543" fill="#BD0000" transform="matrix(1 0 0 1.01064 783 269)"/><path d="M-23.9406 21.609-13.0168 21.609-13.0168 30.6602-23.9406 30.6602Z" fill="#990000" transform="matrix(1 0 0 1.01064 783 269)"/><path d="M-13.0168 41.5473-23.9406 41.5473-23.9406 32.4961-13.0168 32.4961" fill="#F4F4F4" transform="matrix(1 0 0 1.01064 783 269)"/><path d="M-13.0168 52.159-23.9406 52.159-23.9406 43.1078-13.0168 43.1078" fill="#EBEBEB" transform="matrix(1 0 0 1.01064 783 269)"/><path d="M-13.0168 62.7523-23.9406 62.7523-23.9406 53.7012-13.0168 53.7012" fill="#CCCCCC" transform="matrix(1 0 0 1.01064 783 269)"/><path d="M-13.0168 73.3641-23.9406 73.3641-23.9406 64.3129-13.0168 64.3129" fill="#AFAFAF" transform="matrix(1 0 0 1.01064 783 269)"/><path d="M-13.0168 84.6367-23.9406 84.6367-23.9406 75.5855-13.0168 75.5855" fill="#999999" transform="matrix(1 0 0 1.01064 783 269)"/><path d="M-13.0168 94.918-23.9406 94.918-23.9406 85.8668-13.0168 85.8668" fill="#666666" transform="matrix(1 0 0 1.01064 783 269)"/><path d="M-26.3641 84.7102-37.2879 84.7102-37.2879 75.659-26.3641 75.659" fill="#4A4D4E" transform="matrix(1 0 0 1.01064 783 269)"/><path d="M-26.3641 94.973-37.2879 94.973-37.2879 85.9219-26.3641 85.9219" fill="#333333" transform="matrix(1 0 0 1.01064 783 269)"/><text font-family="Arial,Arial_MSFontService,sans-serif" font-weight="400" font-size="12" transform="matrix(0.183594 0 0 0.185547 762.119 329)">204</text><text font-family="Arial,Arial_MSFontService,sans-serif" font-weight="400" font-size="12" transform="matrix(0.183594 0 0 0.185547 762.348 339)">175</text><text font-family="Arial,Arial_MSFontService,sans-serif" font-weight="400" font-size="12" transform="matrix(0.183594 0 0 0.185547 762.462 351)">153</text><text font-family="Arial,Arial_MSFontService,sans-serif" font-weight="400" font-size="12" transform="matrix(0.183594 0 0 0.185547 762.692 361)">102</text><text font-family="Arial,Arial_MSFontService,sans-serif" font-weight="400" font-size="12" transform="matrix(0.183594 0 0 0.185547 762.462 308)">244</text><text font-family="Arial,Arial_MSFontService,sans-serif" font-weight="400" font-size="12" transform="matrix(0.183594 0 0 0.185547 762.692 318)">235</text><text fill="#FFFFFF" font-family="Arial,Arial_MSFontService,sans-serif" font-weight="400" font-size="12" transform="matrix(0.183594 0 0 0.185547 748.949 351)">74</text><text fill="#FFFFFF" font-family="Arial,Arial_MSFontService,sans-serif" font-weight="400" font-size="12" transform="matrix(0.183594 0 0 0.185547 749.178 361)">51</text></g></svg>