<svg width="94" height="95" xmlns="http://www.w3.org/2000/svg" xmlns:xlink="http://www.w3.org/1999/xlink" xml:space="preserve" overflow="hidden"><defs><clipPath id="clip0"><rect x="408" y="54" width="94" height="95"/></clipPath></defs><g clip-path="url(#clip0)" transform="translate(-408 -54)"><path d="M31.5598 85.9953C28.5672 85.9953 26.1254 83.5535 26.1254 80.5609L26.1254 13.4391C26.1254 10.4465 28.5672 8.00469 31.5598 8.00469L63.1195 8.00469C66.1305 8.00469 68.5539 10.4465 68.5539 13.4391L68.5539 80.5609C68.5539 83.5535 66.1121 85.9953 63.1195 85.9953L31.5598 85.9953Z" fill="#E60000" transform="matrix(1 0 0 1.01064 408 54)"/><path d="M52.0488 80.3773C52.0488 81.0934 51.4613 81.6809 50.7637 81.6809L43.934 81.6809C43.218 81.6809 42.6305 81.0934 42.6305 80.3773L42.6305 79.8266C42.6305 79.1105 43.218 78.523 43.934 78.523L50.7637 78.523C51.4797 78.523 52.0488 79.1105 52.0488 79.8266L52.0488 80.3773 52.0488 80.3773Z" fill="#990000" transform="matrix(1 0 0 1.01064 408 54)"/><path d="M53.0402 14.0082C53.0402 14.302 52.8016 14.5406 52.5078 14.5406L42.1898 14.5406C41.8961 14.5406 41.6574 14.302 41.6574 14.0082L41.6574 13.7879C41.6574 13.4941 41.8961 13.2555 42.1898 13.2555L52.5078 13.2555C52.8016 13.2555 53.0402 13.4941 53.0402 13.7879L53.0402 14.0082 53.0402 14.0082Z" fill="#990000" transform="matrix(1 0 0 1.01064 408 54)"/><path d="M29.2098 19.7914 65.4879 19.7914 65.4879 74.2086 29.2098 74.2086Z" fill="#EBEBEB" transform="matrix(1 0 0 1.01064 408 54)"/><path d="M51.3879 36.0578 73.3457 36.0578 73.3457 48.4137 51.3879 48.4137Z" fill="#666666" transform="matrix(1 0 0 1.01064 408 54)"/><path d="M8.59219 28.402 22.6371 28.402 22.6371 42.4469 8.59219 42.4469Z" fill="#666666" transform="matrix(1 0 0 1.01064 408 54)"/><path d="M24.3813 34.6258 30.9539 34.6258 30.9539 36.2047 24.3813 36.2047Z" fill="#990000" transform="matrix(1 0 0 1.01064 408 54)"/><path d="M45.2926 28.402 46.7246 28.402 46.7246 29.834 45.2926 29.834Z" fill="#999999" transform="matrix(1 0 0 1.01064 408 54)"/><path d="M35.7457 28.402 37.3246 28.402 37.3246 29.8156 35.7457 29.8156 35.7457 28.402ZM38.9035 28.402 40.5008 28.402 40.5008 29.8156 38.9035 29.8156 38.9035 28.402ZM42.0797 28.402 43.6586 28.402 43.6586 29.8156 42.0797 29.8156 42.0797 28.402Z" fill="#999999" transform="matrix(1 0 0 1.01064 408 54)"/><path d="M32.698 28.402 34.1117 28.402 34.1117 29.834 32.698 29.834Z" fill="#999999" transform="matrix(1 0 0 1.01064 408 54)"/><path d="M32.698 37.7836 34.1117 37.7836 34.1117 39.3625 32.698 39.3625 32.698 37.7836ZM32.698 34.6258 34.1117 34.6258 34.1117 36.2047 32.698 36.2047 32.698 34.6258ZM32.698 31.4496 34.1117 31.4496 34.1117 33.0285 32.698 33.0285 32.698 31.4496Z" fill="#999999" transform="matrix(1 0 0 1.01064 408 54)"/><path d="M32.698 41.0148 34.1117 41.0148 34.1117 42.4469 32.698 42.4469Z" fill="#999999" transform="matrix(1 0 0 1.01064 408 54)"/><path d="M35.7457 41.0148 37.3246 41.0148 37.3246 42.4469 35.7457 42.4469 35.7457 41.0148ZM38.9035 41.0148 40.5008 41.0148 40.5008 42.4469 38.9035 42.4469 38.9035 41.0148ZM42.0797 41.0148 43.6586 41.0148 43.6586 42.4469 42.0797 42.4469 42.0797 41.0148Z" fill="#999999" transform="matrix(1 0 0 1.01064 408 54)"/><path d="M45.2926 41.0148 46.7246 41.0148 46.7246 42.4469 45.2926 42.4469Z" fill="#999999" transform="matrix(1 0 0 1.01064 408 54)"/><path d="M45.2926 37.7836 46.7246 37.7836 46.7246 39.3625 45.2926 39.3625 45.2926 37.7836ZM45.2926 34.6258 46.7246 34.6258 46.7246 36.2047 45.2926 36.2047 45.2926 34.6258ZM45.2926 31.4496 46.7246 31.4496 46.7246 33.0285 45.2926 33.0285 45.2926 31.4496Z" fill="#999999" transform="matrix(1 0 0 1.01064 408 54)"/><path d="M88.4555 56.4367 95.3586 56.4367 95.3586 63.3398 88.4555 63.3398Z" fill="#E60000" transform="matrix(1 0 0 1.01064 408 54)"/><path d="M57.1527 56.4367 87.0969 56.4367 87.0969 63.3398 57.1527 63.3398Z" fill="#CCCCCC" transform="matrix(1 0 0 1.01064 408 54)"/><path d="M0 51.8469 6.22383 51.8469 6.22383 58.0891 2.80142e-07 58.0891Z" fill="#BD0000" transform="matrix(1 0 0 1.01064 408 54)"/><path d="M2.33164 54.1969 3.89219 54.1969 3.89219 55.7574 2.33164 55.7574Z" fill="#990000" transform="matrix(1 0 0 1.01064 408 54)"/><path d="M6.22383 51.8469 21.1684 51.8469 21.1684 58.0891 6.22383 58.0891Z" fill="#E60000" transform="matrix(1 0 0 1.01064 408 54)"/><path d="M8.57383 54.1969 18.8367 54.1969 18.8367 55.7574 8.57383 55.7574Z" fill="#FFFFFF" transform="matrix(1 0 0 1.01064 408 54)"/><path d="M38.1141 52.4527 48.0465 52.4527 48.0465 62.3668 38.1141 62.3668Z" fill="#AFAFAF" transform="matrix(1 0 0 1.01064 408 54)"/><path d="M75.1449 74.8145 84.5082 74.8145 84.5082 84.1777 75.1449 84.1777Z" fill="#BD0000" transform="matrix(1 0 0 1.01064 408 54)"/><path d="M15.1832 63.2848 33.1203 63.2848 33.1203 81.2219 15.1832 81.2219Z" fill="#666666" transform="matrix(1 0 0 1.01064 408 54)"/><path d="M29.6137 72.6664 29.6137 71.8402 28.4387 71.6016C28.3836 71.2711 28.3102 70.9773 28.2 70.6652L29.0996 69.8758 28.6773 69.1598 27.5391 69.5453C27.3371 69.2883 27.1168 69.068 26.8598 68.866L27.2453 67.7277 26.5293 67.3238 25.7215 68.2234C25.4277 68.1133 25.1156 68.0215 24.8035 67.9848L24.5648 66.8098 23.7387 66.8098 23.5 67.9848C23.1879 68.0398 22.8758 68.1133 22.582 68.2234L21.7926 67.3238 21.0766 67.7277 21.4621 68.866C21.2051 69.068 20.9848 69.2883 20.7828 69.5453L19.6445 69.1598 19.2406 69.8758 20.1402 70.6652C20.0117 70.959 19.9383 71.2711 19.8832 71.5832L18.7082 71.8219 18.7082 72.648 19.8832 72.8867C19.9383 73.2172 20.0301 73.5109 20.1402 73.8047L19.2406 74.5941 19.6445 75.3102 20.7828 74.9246C20.9848 75.1816 21.2234 75.402 21.4621 75.6039L21.0766 76.7422 21.7926 77.1461 22.582 76.2465C22.8758 76.3566 23.1879 76.4484 23.5 76.5035L23.7387 77.6785 24.5648 77.6785 24.8035 76.5035C25.1156 76.4484 25.4461 76.375 25.7215 76.2465L26.5293 77.1461 27.2453 76.7422 26.8598 75.6039C27.1168 75.402 27.3371 75.1816 27.5391 74.9246L28.6773 75.3102 29.0996 74.5941 28.2 73.8047C28.3102 73.5109 28.402 73.1988 28.4387 72.8684L29.6137 72.6664ZM24.1609 74.1168C23.1328 74.1168 22.2883 73.2906 22.2883 72.2441 22.2883 71.216 23.1328 70.3715 24.1609 70.3715 25.1891 70.3715 26.0336 71.1977 26.0336 72.2441 26.0336 73.2906 25.1891 74.1168 24.1609 74.1168Z" fill="#333333" transform="matrix(1 0 0 1.01064 408 54)"/><path d="M72.8684 23.7754 83.7555 23.7754 83.7555 24.8953 72.8684 24.8953Z" fill="#E60000" transform="matrix(1 0 0 1.01064 408 54)"/><path d="M50.2313 23.7754 72.8684 23.7754 72.8684 24.8953 50.2313 24.8953Z" fill="#CCCCCC" transform="matrix(1 0 0 1.01064 408 54)"/><path d="M74.3004 24.3445C74.3004 25.134 73.6578 25.7949 72.85 25.7949 72.0605 25.7949 71.3996 25.1523 71.3996 24.3445 71.3996 23.5551 72.0605 22.8941 72.85 22.8941 73.6578 22.8941 74.3004 23.5367 74.3004 24.3445Z" fill="#4A4D4E" transform="matrix(1 0 0 1.01064 408 54)"/><path d="M-41.4004 43.0711C-41.4004 43.0711-36.3516 33.6344-37.0492 32.3309-37.0492 32.3309-37.0492 32.3309-37.0492 32.3309-39.6195 32.8816-41.8594 34.5156-43.1812 36.8473L-46.4492 42.6305-53.7746 50.2496C-48.891 48.0098-41.4004 43.0711-41.4004 43.0711L-41.4004 43.0711Z" fill="#BF997F" transform="matrix(1 0 0 1.01064 408 54)"/><path d="M-35.0848 32.1289C-35.7457 32.1289-36.4066 32.2023-37.0492 32.3492-37.0859 32.4961-37.1594 32.643-37.2512 32.7898L-37.7285 33.4875C-37.8203 33.616-37.9305 33.7629-38.0223 33.9098L-42.8875 41.6023C-42.8875 41.6023-48.8727 48.0281-53.7746 50.2863L-55.4453 52.0121C-55.1699 52.2141-54.8762 52.3793-54.5457 52.5262-49.9559 54.5457-38.5363 46.3207-38.5363 46.3207L-34.6074 35.6172C-34.5156 35.4703-34.4238 35.3234-34.3137 35.1949L-33.8363 34.4973C-33.1754 33.4875-33.8914 32.1289-35.0848 32.1289L-35.0848 32.1289Z" fill="#B7896A" transform="matrix(1 0 0 1.01064 408 54)"/><path d="M-65.084 72.2441-61.302 72.2441C-57.116 69.4168-45.5863 60.4391-42.4285 56.4918L-35.8008 47.6426C-33.9832 45.366-32.2023 42.7406-30.8438 40.152L-28.1449 34.2402C-27.8512 33.6711-28.6406 32.6063-29.375 32.2023-31.523 32.5145-33.4324 33.7445-34.6074 35.5988L-39.4727 43.2914C-39.4727 43.2914-49.9559 54.5457-54.5457 52.5078-55.2984 52.1773-55.941 51.6633-56.4734 51.0391-57.318 50.5066-57.5566 50.3598-57.9605 50.0844-61.6691 47.4773-60.9348 41.4738-61.4488 35.5621-61.559 34.2402-62.8074 32.9918-64.625 32.1656-64.8453 32.1473-65.0656 32.1289-65.2859 32.1289-66.2406 32.1289-67.0301 32.8633-67.1035 33.7996L-67.7277 41.6023C-68.0215 45.3109-69.2148 48.8727-71.1059 52.1039-74.0984 57.2262-73.9516 63.3766-73.9516 63.3766L-72.5379 70.9223-65.084 72.2441Z" fill="#C6946A" transform="matrix(1 0 0 1.01064 408 54)"/><path d="M-63.1012 35.5621C-62.6055 41.4738-62.3484 48.891-57.9605 50.8187-57.5199 51.0207-57.0242 51.0758-56.4734 51.0574-59.007 48.0648-59.2641 42.1715-59.668 37.2695-59.8883 34.5891-61.9813 32.4777-64.6066 32.1656-63.7805 33.0652-63.2113 34.2402-63.1012 35.5621L-63.1012 35.5621Z" fill="#AD7953" transform="matrix(1 0 0 1.01064 408 54)"/><path d="M-28.2918 32.1289C-28.659 32.1289-29.0262 32.1656-29.375 32.2023-29.2281 32.7531-29.2648 33.3773-29.577 33.9465L-32.5512 39.6195C-33.9098 42.1898-35.507 44.6316-37.3246 46.9082L-44.0992 55.3719C-47.257 59.3191-51.0023 62.7707-55.2066 65.598L-65.084 72.2441-65.4879 74.9613-62.6973 74.6492-51.8102 67.3238C-47.6242 64.4965-43.8789 61.0449-40.7027 57.0977L-33.9281 48.634C-32.1105 46.3574-30.5133 43.9156-29.1547 41.3453L-26.1805 35.6723C-25.3176 34.0566-26.4926 32.1289-28.2918 32.1289L-28.2918 32.1289Z" fill="#AD7953" transform="matrix(1 0 0 1.01064 408 54)"/><path d="M-43.8422-7.52734-43.8422-7.87617C-43.8422-9.93242-45.4945-11.5848-47.5508-11.5848-49.607-11.5848-51.2594-9.93242-51.2594-7.87617L-51.2594-7.52734-47.5508-6.11367-43.8422-7.52734Z" fill="#BD0000" transform="matrix(1 0 0 1.01064 408 54)"/><path d="M-51.2594-7.52734-51.2594-4.1125-47.5508-2.64375-43.8422-4.1125-43.8422-7.52734C-45.0539-7.65586-46.3023-7.71094-47.5508-7.71094-48.7992-7.71094-50.0477-7.65586-51.2594-7.52734Z" fill="#990000" transform="matrix(1 0 0 1.01064 408 54)"/><path d="M-12.5211 22.123C-16.8723 6.86641-30.8988-4.31445-47.5508-4.31445-64.2027-4.31445-78.2293 6.84805-82.5805 22.1047L-47.5508 23.757-12.5211 22.123Z" fill="#E60000" transform="matrix(1 0 0 1.01064 408 54)"/><path d="M-82.5805 22.123C-82.8926 23.243-83.168 24.3813-83.3883 25.5379L-11.7133 25.5379C-11.9336 24.3813-12.1906 23.243-12.5211 22.123L-82.5805 22.123Z" fill="#990000" transform="matrix(1 0 0 1.01064 408 54)"/><path d="M-88.1801 27.1168C-88.1801 28.8977-86.5645 30.3664-85.3527 30.3664L-9.71211 30.3664C-8.51875 30.3664-6.88477 29.0078-6.88477 27.1168-7.45391 26.1621-8.50039 25.5195-9.71211 25.5195L-85.3527 25.5195C-86.5645 25.5195-87.6109 26.1621-88.1801 27.1168Z" fill="#666666" transform="matrix(1 0 0 1.01064 408 54)"/><path d="M-69.6555 80.4691-64.9738 79.0922-63.248 74.0617-74.9246 62.3852C-75.4938 61.816-76.4301 61.816-77.0176 62.3852L-81.332 66.6996C-81.9012 67.2687-81.9012 68.2051-81.332 68.7926L-69.6555 80.4691Z" fill="#E60000" transform="matrix(1 0 0 1.01064 408 54)"/><path d="M-63.248 74.0801-69.6371 80.4691-68.1133 81.993C-67.5441 82.5621-66.6078 82.5621-66.0203 81.993L-61.7059 77.6785C-61.1367 77.1094-61.1367 76.173-61.7059 75.5855L-63.248 74.0801Z" fill="#BD0000" transform="matrix(1 0 0 1.01064 408 54)"/><path d="M-9.73047 28.7141-85.3711 28.7141C-86.5645 28.7141-87.6109 28.0715-88.1984 27.1168-88.4922 27.6125-88.6758 28.2-88.6758 28.8242-88.6758 30.6418-87.207 32.1289-85.3711 32.1289L-9.73047 32.1289C-7.91289 32.1289-6.42578 30.6602-6.42578 28.8242-6.42578 28.2-6.60938 27.6125-6.90312 27.1168-7.49062 28.0715-8.53711 28.7141-9.73047 28.7141L-9.73047 28.7141Z" fill="#4A4D4E" transform="matrix(1 0 0 1.01064 408 54)"/><path d="M-75.2734 66.5711C-75.8242 66.0203-76.7238 66.0203-77.293 66.5711-77.8621 67.1219-77.8438 68.0215-77.293 68.5906L-75.916 69.9676C-75.6406 70.243-75.2734 70.3898-74.9062 70.3898-74.5391 70.3898-74.1719 70.243-73.8965 69.9676-73.3457 69.4168-73.3457 68.5172-73.8965 67.9481L-75.2734 66.5711Z" fill="#990000" transform="matrix(1 0 0 1.01064 408 54)"/></g></svg>