<svg width="100" height="94" xmlns="http://www.w3.org/2000/svg" xmlns:xlink="http://www.w3.org/1999/xlink" xml:space="preserve" overflow="hidden"><defs><clipPath id="clip0"><rect x="437" y="508" width="100" height="94"/></clipPath></defs><g clip-path="url(#clip0)" transform="translate(-437 -508)"><path d="M109.077 40.5611 99.136 42.5493C98.9321 42.5898 98.7996 42.788 98.8401 42.9919 98.8544 43.0636 98.8892 43.1296 98.9402 43.1819L101.215 45.4562C101.364 45.6005 101.369 45.8389 101.224 45.9886 101.221 45.9919 101.218 45.9952 101.215 45.9984L96.3948 50.8332C96.2582 50.9787 96.0294 50.9861 95.8839 50.8495 95.8783 50.8442 95.8729 50.8388 95.8677 50.8332L91.8763 46.9021C90.9679 45.9871 89.4898 45.9817 88.5748 46.89 88.5707 46.8941 88.5668 46.898 88.5627 46.9021L79.6462 55.8036 76.6339 52.7912C75.7089 51.8862 74.2302 51.8862 73.3052 52.7912L59.2226 66.889C58.3076 67.7973 58.3021 69.2755 59.2105 70.1905 59.2146 70.1945 59.2185 70.1985 59.2226 70.2025 59.6631 70.641 60.2578 70.8896 60.8793 70.8954 61.5055 70.8904 62.1051 70.6419 62.5512 70.2025L74.706 58.0477C74.8426 57.9023 75.0714 57.8949 75.2169 58.0315 75.2224 58.0368 75.2279 58.0422 75.2331 58.0477L78.0045 60.8191C78.9294 61.7242 80.4082 61.7242 81.3331 60.8191L89.9635 52.1737C90.1078 52.024 90.3462 52.0196 90.4959 52.1639 90.4992 52.1671 90.5025 52.1704 90.5057 52.1737L94.4368 56.1199C95.3528 57.0391 96.8405 57.0416 97.7597 56.1256 97.7617 56.1238 97.7635 56.1218 97.7654 56.1199L104.543 49.3421C104.68 49.1964 104.909 49.1892 105.054 49.3258 105.06 49.3311 105.065 49.3365 105.07 49.3421L107.345 51.6164C107.493 51.7618 107.732 51.7592 107.877 51.6105 107.928 51.5583 107.963 51.4923 107.977 51.4206L109.95 41.4498C110.034 41.0423 109.771 40.6444 109.363 40.5611 109.264 40.5408 109.161 40.5408 109.062 40.5611Z" fill="#666666" transform="matrix(1.01473 0 0 1 424.865 494.761)"/><path d="M109.077 40.5611 107.736 40.8322 105.869 50.1102 107.375 51.6164C107.523 51.7618 107.762 51.7592 107.907 51.6105 107.958 51.5583 107.993 51.4923 108.007 51.4206L109.95 41.4498C110.034 41.0423 109.771 40.6444 109.363 40.5611 109.264 40.5408 109.161 40.5408 109.062 40.5611Z" fill="#4A4D4E" transform="matrix(1.01473 0 0 1 424.865 494.761)"/><path d="M72.3865 105.899 12.4861 102.329 12.4861 88.3669C12.4861 81.8952 17.7324 76.6489 24.2041 76.6489L61.9789 76.6489C63.8784 76.6443 65.7503 77.1046 67.4312 77.9894 68.5608 78.5919 69.0578 81.0018 69.9314 81.8753 70.805 82.7489 72.0099 82.1766 72.5371 83.2761 73.3007 84.8645 73.697 86.6044 73.6968 88.3669Z" fill="#BD0000" transform="matrix(1.01473 0 0 1 424.865 494.761)"/><path d="M67.4312 77.9894C68.316 79.6703 68.7763 81.5422 68.7717 83.4418L68.7717 101.094C68.7717 101.776 68.2188 102.329 67.5366 102.329L12.4861 102.329 12.4861 106.019C12.4861 106.701 13.0391 107.254 13.7212 107.254L22.1106 107.254 23.9631 104.784 25.8157 107.254 60.3672 107.254 62.0542 104.784 64.0724 107.254 72.4618 107.254C73.1439 107.254 73.6968 106.701 73.6968 106.019L73.6968 88.3669C73.6955 84.0132 71.2834 80.0182 67.4312 77.9894Z" fill="#990000" transform="matrix(1.01473 0 0 1 424.865 494.761)"/><path d="M43.0915 71.7087C35.6965 71.7087 29.7016 65.7138 29.7016 58.3189L29.7016 50.6675C29.7016 43.2725 35.6965 37.2777 43.0915 37.2777 50.4865 37.2777 56.4813 43.2725 56.4813 50.6675L56.4813 58.3189C56.4813 65.7138 50.4865 71.7087 43.0915 71.7087Z" fill="#BD0000" transform="matrix(1.01473 0 0 1 424.865 494.761)"/><path d="M43.0915 37.2777C42.278 37.2789 41.4663 37.3545 40.6666 37.5036 47.0026 38.6915 51.5958 44.2211 51.6013 50.6675L51.6013 58.3189C51.5958 64.7653 47.0026 70.2949 40.6666 71.4828 47.9492 72.8138 54.9319 67.9889 56.2629 60.7061 56.4069 59.9186 56.48 59.1195 56.4813 58.3189L56.4813 50.6675C56.4813 43.2725 50.4865 37.2777 43.0915 37.2777Z" fill="#990000" transform="matrix(1.01473 0 0 1 424.865 494.761)"/><path d="M58.8159 15.5738 58.8159 38.5579C58.8076 39.8389 59.8393 40.884 61.1203 40.8925 61.1253 40.8925 61.1304 40.8925 61.1354 40.8925L70.6845 40.8925C70.9781 40.9006 71.2118 41.141 71.2117 41.4347L71.2117 45.5616C71.2088 46.1522 71.6854 46.6332 72.2759 46.6361 72.4927 46.6372 72.7044 46.5724 72.8835 46.4502L80.6553 41.2841C81.0335 41.0289 81.4794 40.8925 81.9356 40.8925L89.8731 40.8925C91.1541 40.9008 92.1994 39.8692 92.2077 38.5882 92.2077 38.5781 92.2077 38.568 92.2077 38.5579L92.2077 15.5738C92.2159 14.2928 91.1844 13.2476 89.9034 13.2392 89.8933 13.2392 89.8832 13.2392 89.8731 13.2392L61.1354 13.2392C59.8544 13.2392 58.8159 14.2777 58.8159 15.5587 58.8159 15.5637 58.8159 15.5688 58.8159 15.5738Z" fill="#AFAFAF" transform="matrix(1.01473 0 0 1 424.865 494.761)"/><path d="M89.8731 13.2392 89.1953 13.2392 89.1953 35.9824C89.1953 37.2659 88.1592 38.3087 86.8758 38.3169L78.9232 38.3169C78.467 38.3169 78.0212 38.4534 77.643 38.7085L71.2117 42.9861 71.2117 45.5616C71.2088 46.1522 71.6854 46.6332 72.2759 46.6361 72.4927 46.6372 72.7044 46.5724 72.8835 46.4502L80.6553 41.2841C81.0335 41.0289 81.4794 40.8925 81.9356 40.8925L89.8731 40.8925C91.1541 40.9008 92.1994 39.8692 92.2077 38.5882 92.2077 38.5781 92.2077 38.568 92.2077 38.5579L92.2077 15.5738C92.2159 14.2928 91.1844 13.2476 89.9034 13.2392 89.8933 13.2392 89.8832 13.2392 89.8731 13.2392Z" fill="#999999" transform="matrix(1.01473 0 0 1 424.865 494.761)"/><path d="M60.3672 107.254 60.3672 91.9516C60.3672 90.9285 61.1967 90.099 62.2198 90.099 63.243 90.099 64.0724 90.9285 64.0724 91.9516L64.0724 107.254Z" fill="#820000" transform="matrix(1.01473 0 0 1 424.865 494.761)"/><path d="M22.1106 107.254 22.1106 91.9516C22.1106 90.9285 22.94 90.099 23.9631 90.099 24.9863 90.099 25.8157 90.9285 25.8157 91.9516L25.8157 107.254Z" fill="#820000" transform="matrix(1.01473 0 0 1 424.865 494.761)"/><path d="M42.5041 62.0692 41.3745 62.0692C40.3555 61.977 39.6041 61.0764 39.6963 60.0573 39.7769 59.1659 40.4831 58.4597 41.3745 58.3791L42.5041 58.3791C42.7561 58.371 42.9561 58.1643 42.9559 57.9122L42.9559 54.4932C42.8638 53.4743 43.6152 52.5734 44.6341 52.4812 45.6532 52.3891 46.5539 53.1405 46.646 54.1594 46.6561 54.2704 46.6561 54.3822 46.646 54.4932L46.646 57.9122C46.6628 60.1913 44.8286 62.0525 42.5494 62.0691 42.5344 62.0692 42.5191 62.0692 42.5041 62.0692Z" fill="#820000" transform="matrix(1.01473 0 0 1 424.865 494.761)"/><path d="M77.387 24.0987C76.2493 23.7448 75.1651 23.2381 74.1638 22.5925 73.9927 22.3699 73.9368 22.0795 74.0131 21.8093 74.0803 21.3534 74.3928 20.9713 74.8265 20.8153 75.5708 20.5734 76.3855 20.6961 77.0255 21.1466L77.0255 21.1466C77.7057 21.7206 78.7225 21.6345 79.2965 20.9541 79.8705 20.2739 79.7843 19.2571 79.104 18.6831 79.0892 18.6706 79.0742 18.6584 79.0588 18.6464L79.0588 18.6464C78.4593 18.1834 77.773 17.8454 77.0405 17.6523L77.0405 17.336C77.0405 16.446 76.3189 15.7244 75.4289 15.7244 74.5389 15.7244 73.8173 16.446 73.8173 17.336L73.8173 17.7577C72.2618 18.2759 71.1089 19.5959 70.805 21.2069 70.4741 22.6621 70.9859 24.1802 72.1304 25.138 73.42 26.0007 74.8313 26.6658 76.3176 27.111 77.0625 27.3233 77.5251 28.066 77.387 28.8281 77.2311 29.7955 76.3936 30.505 75.4139 30.4999 74.5157 30.6248 73.605 30.3864 72.8835 29.8372 72.1327 29.3584 71.137 29.5655 70.6393 30.3041 70.1534 31.0488 70.3623 32.0463 71.1062 32.5332 71.9116 33.1095 72.8395 33.491 73.8173 33.6478L73.8173 34.0093C73.8173 34.8993 74.5389 35.6209 75.4289 35.6209 76.3189 35.6209 77.0405 34.8993 77.0405 34.0093L77.0405 33.4821C78.8776 32.8574 80.2285 31.2813 80.565 29.3703 80.9709 27.066 79.6143 24.8155 77.387 24.0987Z" fill="#BD0000" transform="matrix(1.01473 0 0 1 424.865 494.761)"/></g></svg>