<svg width="325" height="353" xmlns="http://www.w3.org/2000/svg" xmlns:xlink="http://www.w3.org/1999/xlink" xml:space="preserve" overflow="hidden"><defs><clipPath id="clip0"><rect x="1448" y="1849" width="325" height="353"/></clipPath></defs><g clip-path="url(#clip0)" transform="translate(-1448 -1849)"><path d="M1609 2036 1558.33 2036 1458 2202 1463.23 2202 1609 2036 1609 2036 1609 2036Z" fill="#F1F2F2" fill-rule="evenodd" fill-opacity="0.701961"/><path d="M1452 1849 1504.58 1849C1540.89 1849 1576.43 1861.65 1606.99 1885.49L1773 2015 1597.8 2015 1452 1849 1452 1849Z" fill="#E60000" fill-rule="evenodd"/><path d="M1773 2015.04 1597.8 2015.04 1452 2181 1491.06 2181C1536.19 2181 1580.36 2165.27 1618.32 2135.65L1773 2015 1773 2015Z" fill="#BD0000" fill-rule="evenodd"/><path d="M1599 2015 1548.32 2015 1448 2181 1453.23 2181 1599 2015 1599 2015 1599 2015Z" fill="#990000" fill-rule="evenodd"/><path d="M1453.23 1849 1448 1849 1548.32 2015 1599 2015 1453.23 1849 1453.23 1849 1453.23 1849Z" fill="#990000" fill-rule="evenodd"/></g></svg>