<svg width="339" height="339" xmlns="http://www.w3.org/2000/svg" xmlns:xlink="http://www.w3.org/1999/xlink" xml:space="preserve" overflow="hidden"><g transform="translate(-301 -1813)"><path d="M308 1982.5C308 1892.75 380.754 1820 470.5 1820 560.246 1820 633 1892.75 633 1982.5 633 2072.25 560.246 2145 470.5 2145 380.754 2145 308 2072.25 308 1982.5Z" stroke="#990000" stroke-width="13.75" stroke-miterlimit="8" fill="#E60000" fill-rule="evenodd"/><g><g><g><path d="M445.804 1911.19 441.285 1915.68C439.874 1917.09 439.096 1918.97 439.096 1920.98 439.096 1922.98 439.874 1924.87 441.285 1926.28L492.479 1977.47 441.228 2028.72C439.817 2030.13 439.04 2032.01 439.04 2034.02 439.04 2036.03 439.817 2037.91 441.228 2039.32L445.719 2043.81C448.639 2046.73 453.397 2046.73 456.317 2043.81L517.556 1982.79C518.966 1981.38 519.96 1979.5 519.96 1977.47L519.96 1977.45C519.96 1975.44 518.965 1973.56 517.556 1972.15L456.483 1911.19C455.073 1909.78 453.137 1909 451.13 1909 449.122 1909 447.213 1909.78 445.804 1911.19Z" fill="#FFFFFF"/></g></g></g></g></svg>