<svg width="95" height="94" xmlns="http://www.w3.org/2000/svg" xmlns:xlink="http://www.w3.org/1999/xlink" xml:space="preserve" overflow="hidden"><defs><clipPath id="clip0"><rect x="753" y="519" width="95" height="94"/></clipPath></defs><g clip-path="url(#clip0)" transform="translate(-753 -519)"><path d="M0.826172 93.1738C-0.275391 92.0723-0.275391 90.2914 0.826172 89.1898L21.8477 68.1684C22.9492 67.0668 24.7301 67.0668 25.8316 68.1684 26.9332 69.2699 26.9332 71.0508 25.8316 72.1523L4.81016 93.1738C3.70859 94.2754 1.92773 94.2754 0.826172 93.1738Z" fill="#E60000" transform="matrix(1.01064 0 0 1 753 519)"/><path d="M93.3574 37.9488 94 2.86406C94.0184 2.09297 93.7246 1.35859 93.1738 0.826172 92.623 0.29375 91.907-0.0183594 91.1359 0L56.0512 0.624219C54.9313 0.642578 53.9215 1.34023 53.4992 2.38672 53.077 3.4332 53.3156 4.62656 54.1234 5.43438L61.6875 13.0168 21.1684 53.5176C20.6359 54.05 20.3422 54.766 20.3422 55.5004 20.3422 56.2531 20.6359 56.9691 21.1684 57.4832L36.4984 72.8133C37.6 73.9148 39.3809 73.9148 40.4824 72.8133L80.9832 32.3125 88.5473 39.8766C89.3367 40.666 90.5484 40.923 91.5949 40.5008 92.6414 40.0785 93.3391 39.0688 93.3574 37.9488Z" fill="#E60000" transform="matrix(1.01064 0 0 1 753 519)"/><path d="M1.8543 76.834C0.752734 75.7324 0.752734 73.9516 1.8543 72.85L14.1918 60.5125C15.2934 59.4109 17.0742 59.4109 18.1758 60.5125 19.2773 61.6141 19.2773 63.3949 18.1758 64.4965L5.83828 76.834C4.73672 77.9355 2.9375 77.9355 1.8543 76.834Z" fill="#E60000" transform="matrix(1.01064 0 0 1 753 519)"/><path d="M17.166 92.1457C16.0645 91.0441 16.0645 89.2633 17.166 88.1617L29.5035 75.8242C30.6051 74.7227 32.3859 74.7227 33.4875 75.8242 34.5891 76.9258 34.5891 78.7066 33.4875 79.8082L21.15 92.1457C20.0484 93.2473 18.2676 93.2473 17.166 92.1457Z" fill="#E60000" transform="matrix(1.01064 0 0 1 753 519)"/><path d="M94 2.86406C94.0184 2.09297 93.7246 1.35859 93.1738 0.826172L28.8426 65.1574 36.4984 72.8133C37.6 73.9148 39.3809 73.9148 40.4824 72.8133L80.9832 32.3125 88.5473 39.8766C89.3367 40.666 90.5484 40.923 91.5949 40.5008 92.6414 40.0785 93.3391 39.0688 93.3574 37.9488L94 2.86406Z" fill="#BD0000" transform="matrix(1.01064 0 0 1 753 519)"/><path d="M25.8316 68.1684 0.826172 93.1738C1.92773 94.2754 3.70859 94.2754 4.81016 93.1738L25.8316 72.1523C26.9332 71.0508 26.9332 69.2699 25.8316 68.1684Z" fill="#BD0000" transform="matrix(1.01064 0 0 1 753 519)"/><path d="M21.15 92.1457 33.4875 79.8082C34.5891 78.7066 34.5891 76.9258 33.4875 75.8242L17.166 92.1457C18.2676 93.2473 20.0484 93.2473 21.15 92.1457Z" fill="#BD0000" transform="matrix(1.01064 0 0 1 753 519)"/><path d="M5.81992 76.834 18.1574 64.4965C19.259 63.3949 19.259 61.6141 18.1574 60.5125L1.83594 76.834C2.9375 77.9355 4.73672 77.9355 5.81992 76.834Z" fill="#BD0000" transform="matrix(1.01064 0 0 1 753 519)"/></g></svg>