<svg width="316" height="324" xmlns="http://www.w3.org/2000/svg" xmlns:xlink="http://www.w3.org/1999/xlink" xml:space="preserve" overflow="hidden"><defs><clipPath id="clip0"><rect x="1425" y="1831" width="316" height="324"/></clipPath></defs><g clip-path="url(#clip0)" transform="translate(-1425 -1831)"><path d="M1579 1872 1590 1872 1590 1920 1579 1920Z" fill="#4A4D4E" fill-rule="evenodd"/><path d="M1579 2066 1590 2066 1590 2113 1579 2113Z" fill="#4A4D4E" fill-rule="evenodd"/><path d="M1650.22 1929 1643 1921.57 1663.42 1900.54C1664.38 1899.55 1665.67 1899 1667.03 1899L1690 1899 1690 1909.51 1669.14 1909.51Z" fill="#4A4D4E" fill-rule="evenodd"/><path d="M1651 1988 1713 1988 1713 1998 1651 1998Z" fill="#4A4D4E" fill-rule="evenodd"/><path d="M1690 2087 1667.03 2087C1665.67 2087 1664.38 2086.45 1663.42 2085.46L1643 2064.43 1650.22 2057 1669.14 2076.49 1690 2076.49Z" fill="#4A4D4E" fill-rule="evenodd"/><path d="M1569 1862C1569 1853.16 1575.94 1846 1584.5 1846 1593.06 1846 1600 1853.16 1600 1862 1600 1870.84 1593.06 1878 1584.5 1878 1575.94 1878 1569 1870.84 1569 1862Z" fill="#E60000" fill-rule="evenodd"/><path d="M1690 1904C1690 1895.16 1696.94 1888 1705.5 1888 1714.06 1888 1721 1895.16 1721 1904 1721 1912.84 1714.06 1920 1705.5 1920 1696.94 1920 1690 1912.84 1690 1904Z" fill="#E60000" fill-rule="evenodd"/><path d="M1569 2124C1569 2115.16 1575.94 2108 1584.5 2108 1593.06 2108 1600 2115.16 1600 2124 1600 2132.84 1593.06 2140 1584.5 2140 1575.94 2140 1569 2132.84 1569 2124Z" fill="#E60000" fill-rule="evenodd"/><path d="M1690 2082C1690 2073.16 1696.94 2066 1705.5 2066 1714.06 2066 1721 2073.16 1721 2082 1721 2090.84 1714.06 2098 1705.5 2098 1696.94 2098 1690 2090.84 1690 2082Z" fill="#E60000" fill-rule="evenodd"/><path d="M1710 1993C1710 1984.16 1716.94 1977 1725.5 1977 1734.06 1977 1741 1984.16 1741 1993 1741 2001.84 1734.06 2009 1725.5 2009 1716.94 2009 1710 2001.84 1710 1993Z" fill="#E60000" fill-rule="evenodd"/><path d="M1464.9 2067C1467.3 2065.08 1469.7 2063.18 1472.06 2061.32L1473.21 2060.41C1452.51 2043.36 1435.27 2024.9 1435.27 1992.8 1435.27 1954.91 1459.25 1936.02 1484.65 1916.03 1510.87 1895.37 1538 1874.01 1538 1831L1527.73 1831C1527.73 1868.89 1503.75 1887.78 1478.35 1907.77 1452.12 1928.43 1425 1949.79 1425 1992.8 1425 2028.42 1443.61 2049.17 1464.9 2067Z" fill="#4A4D4E" fill-rule="evenodd"/><path d="M1509 1862 1438 1862 1438 1872 1501.61 1872C1504.37 1868.89 1506.85 1865.54 1509 1862Z" fill="#3E9944" fill-rule="evenodd"/><path d="M1454 1962 1525 1962 1525 1951 1461.39 1951C1458.63 1954.42 1456.15 1958.1 1454 1962Z" fill="#BD0000" fill-rule="evenodd"/><path d="M1498.27 2081C1495.88 2082.92 1493.5 2084.8 1491.15 2086.66L1490 2087.57C1510.61 2104.57 1527.77 2122.98 1527.77 2155L1538 2155C1538 2119.48 1519.47 2098.79 1498.27 2081Z" fill="#596C80" fill-rule="evenodd"/><path d="M1502.49 2113 1438 2113 1438 2124 1510 2124C1507.81 2120.1 1505.3 2116.42 1502.49 2113Z" fill="#990000" fill-rule="evenodd"/><path d="M1464.73 1905C1467.12 1903.08 1469.5 1901.2 1471.85 1899.34L1473 1898.43C1452.39 1881.43 1435.23 1863.02 1435.23 1831L1425 1831C1425 1866.52 1443.53 1887.21 1464.73 1905Z" fill="#596C80" fill-rule="evenodd"/><path d="M1446 1993C1446 1994.71 1446.07 1996.37 1446.18 1998L1533 1998 1533 1988 1446.21 1988C1446.09 1989.63 1446 1991.28 1446 1993Z" fill="#E60000" fill-rule="evenodd"/><path d="M1461.41 2035 1525 2035 1525 2024 1454 2024C1456.16 2027.9 1458.64 2031.58 1461.41 2035Z" fill="#BD0000" fill-rule="evenodd"/><path d="M1498.1 1919C1495.7 1920.92 1493.3 1922.82 1490.94 1924.68L1489.79 1925.59C1510.49 1942.64 1527.73 1961.1 1527.73 1993.2 1527.73 2031.09 1503.75 2049.98 1478.35 2069.97 1452.12 2090.63 1425 2111.99 1425 2155L1435.27 2155C1435.27 2117.11 1459.25 2098.22 1484.65 2078.23 1510.87 2057.57 1538 2036.21 1538 1993.2 1538 1957.58 1519.39 1936.83 1498.1 1919Z" fill="#4A4D4E" fill-rule="evenodd"/><rect x="1497" y="1935" width="139" height="116" fill="#E60000"/><path d="M1548.67 1962 1538.33 1962C1535.98 1962 1533.92 1963.58 1533.32 1965.85L1518 2024 1528.7 2024 1534.15 2003.33 1552.85 2003.33 1558.3 2024 1569 2024 1553.68 1965.85C1553.08 1963.58 1551.02 1962 1548.67 1962ZM1536.87 1993 1542.32 1972.33 1544.68 1972.33 1550.13 1993Z" fill="#F2F2F2" fill-rule="evenodd"/><path d="M1579 1972.33 1591.86 1972.33 1591.86 2013.67 1579 2013.67 1579 2024 1615 2024 1615 2013.67 1602.14 2013.67 1602.14 1972.33 1615 1972.33 1615 1962 1579 1962Z" fill="#F2F2F2" fill-rule="evenodd"/></g></svg>