<svg width="311" height="325" xmlns="http://www.w3.org/2000/svg" xmlns:xlink="http://www.w3.org/1999/xlink" xml:space="preserve" overflow="hidden"><defs><clipPath id="clip0"><rect x="316" y="1812" width="311" height="325"/></clipPath></defs><g clip-path="url(#clip0)" transform="translate(-316 -1812)"><path d="M549.582 2126 505.029 2092.38C503.715 2091.38 503.021 2089.87 503.019 2088.33L503 2088.33 503 2021.09 513.087 2021.09 513.087 2085.82 555.61 2117.91ZM555.61 1831.09 513.087 1863.18 513.087 1927.91 503 1927.91 503 1860.67 503.019 1860.67C503.021 1859.13 503.715 1857.62 505.029 1856.62L549.582 1823ZM583.243 1883.66 573.156 1883.66 573.156 1937.78 522.895 1937.78 522.895 1947.93 578.2 1947.93C580.986 1947.93 583.244 1945.66 583.244 1942.86L583.244 1883.66ZM612 1979.57 522.894 1979.57 522.894 1969.43 612 1969.43ZM573.156 2065.34 583.243 2065.34 583.243 2006.14C583.243 2003.34 580.984 2001.07 578.199 2001.07L522.894 2001.07 522.894 2011.22 573.155 2011.22 573.155 2065.34Z" fill="#666666" fill-rule="evenodd"/><path d="M475.999 2039.66 475.999 2132.38C442.739 2147.61 404.014 2123.42 404.014 2086.02 404.014 2083.25 404.238 2080.53 404.662 2077.88 379.089 2092.79 346.277 2074.45 346.277 2044.21 346.277 2036.47 348.534 2029.25 352.424 2023.19 331.408 2017.27 316 1997.93 316 1974.98 316 1952.04 331.408 1932.7 352.425 1926.78 348.534 1920.71 346.278 1913.5 346.278 1905.76 346.278 1875.51 379.094 1857.18 404.663 1872.09 399.699 1841.12 423.515 1813 454.878 1813 462.414 1813 469.566 1814.64 476 1817.59L476 2039.66Z" fill="#BD0000" fill-rule="evenodd"/><path d="M476 2039.63 476 2123.95C447.733 2130.07 418.791 2108.86 418.791 2077.8 418.791 2075.23 418.999 2072.72 419.394 2070.26 395.629 2084.07 365.137 2067.09 365.137 2039.09 365.137 2031.92 367.235 2025.24 370.85 2019.62 351.319 2014.14 337 1996.23 337 1974.99 337 1953.74 351.319 1935.83 370.85 1930.35 367.235 1924.74 365.137 1918.06 365.137 1910.89 365.137 1882.88 395.633 1865.91 419.394 1879.71 414.78 1851.04 436.912 1825 466.058 1825 469.469 1825 472.795 1825.36 476 1826.05Z" fill="#E60000" fill-rule="evenodd"/><path d="M404.526 2077.76C401.344 2079.67 397.867 2081.11 394.184 2082 393.996 2081.32 393.946 2080.58 394.062 2079.83 395.639 2069.67 399.899 2060.28 406.294 2052.51 408.055 2050.37 411.171 2050.1 413.252 2051.92 415.333 2053.73 415.593 2056.93 413.832 2059.07 409.385 2064.47 406.182 2070.86 404.526 2077.76ZM394.302 1867.32C397.942 1868.21 401.377 1869.64 404.526 1871.52 404.192 1869.39 403.986 1867.21 403.918 1865 405.297 1873.02 408.749 1880.48 413.831 1886.65 415.592 1888.79 415.332 1891.99 413.251 1893.81 411.17 1895.62 408.055 1895.35 406.293 1893.21 400.192 1885.8 396.054 1876.95 394.302 1867.32Z" fill="#990000" fill-rule="evenodd"/><path d="M376.528 1959.1C373.747 1958.81 371.733 1956.31 372.029 1953.53 372.324 1950.75 374.818 1948.73 377.599 1949.03 388.718 1950.22 397.766 1958.59 399.957 1969.42L443.926 1969.42C446.728 1969.42 449 1971.7 449 1974.5 449 1977.3 446.728 1979.58 443.926 1979.58L399.957 1979.58C397.766 1990.41 388.718 1998.78 377.599 1999.97 374.818 2000.27 372.324 1998.25 372.029 1995.47 371.733 1992.69 373.747 1990.19 376.528 1989.9 389.062 1988.56 394.735 1973.47 386.375 1964.15 383.896 1961.39 380.431 1959.52 376.528 1959.1Z" fill="#990000" fill-rule="evenodd"/><path d="M612.166 1959.55C620.358 1959.55 627 1966.24 627 1974.5 627 1982.76 620.358 1989.45 612.166 1989.45 603.974 1989.45 597.333 1982.76 597.333 1974.5 597.333 1966.24 603.974 1959.55 612.166 1959.55ZM578.406 2080.35C586.598 2080.35 593.239 2073.65 593.239 2065.4 593.239 2057.14 586.598 2050.44 578.406 2050.44 570.214 2050.44 563.573 2057.14 563.573 2065.4 563.573 2073.65 570.214 2080.35 578.406 2080.35ZM552.833 2137C561.025 2137 567.666 2130.31 567.666 2122.05 567.666 2113.79 561.025 2107.1 552.833 2107.1 544.641 2107.1 538 2113.79 538 2122.05 538 2130.31 544.641 2137 552.833 2137ZM578.406 1868.65C586.598 1868.65 593.239 1875.35 593.239 1883.6 593.239 1891.86 586.598 1898.56 578.406 1898.56 570.214 1898.56 563.573 1891.86 563.573 1883.6 563.572 1875.35 570.214 1868.65 578.406 1868.65ZM552.833 1812C561.025 1812 567.666 1818.69 567.666 1826.95 567.666 1835.21 561.025 1841.9 552.833 1841.9 544.641 1841.9 538 1835.21 538 1826.95 538 1818.7 544.641 1812 552.833 1812Z" fill="#BD0000" fill-rule="evenodd"/><path d="M607.88 1988.64C601.995 1986.63 597.76 1981.06 597.76 1974.5 597.76 1967.94 601.994 1962.37 607.88 1960.36 613.766 1962.37 618 1967.94 618 1974.5 618.001 1981.06 613.766 1986.63 607.88 1988.64ZM573.877 2079.42C579.763 2077.42 583.997 2071.84 583.997 2065.28 583.997 2058.72 579.763 2053.15 573.877 2051.14 567.991 2053.15 563.757 2058.72 563.757 2065.28 563.757 2071.84 567.991 2077.42 573.877 2079.42ZM548.12 2136C554.006 2134 558.24 2128.42 558.24 2121.86 558.24 2115.3 554.006 2109.73 548.12 2107.72 542.234 2109.73 538 2115.3 538 2121.86 538.001 2128.42 542.234 2134 548.12 2136ZM573.877 1869.58C579.763 1871.58 583.997 1877.16 583.997 1883.72 583.997 1890.28 579.763 1895.85 573.877 1897.86 567.991 1895.85 563.757 1890.28 563.757 1883.72 563.757 1877.16 567.991 1871.58 573.877 1869.58ZM548.12 1813C554.006 1815 558.24 1820.58 558.24 1827.14 558.24 1833.7 554.006 1839.27 548.12 1841.28 542.234 1839.27 538 1833.7 538 1827.14 538.001 1820.58 542.234 1815 548.12 1813Z" fill="#E60000" fill-rule="evenodd"/><path d="M452.889 1911 533.554 1911C537.65 1911 541 1914.37 541 1918.5L541 2030.5C541 2034.63 537.65 2038 533.554 2038L433.446 2038C429.35 2038 426 2034.63 426 2030.5L426 1938.07Z" fill="#4A4D4E" fill-rule="evenodd"/><path d="M529.705 2038 433.453 2038C429.353 2038 426 2034.64 426 2030.54L426 1938.56 447.531 1917 522.547 1917C526.647 1917 530 1920.36 530 1924.46L530 2035.92C530 2036.64 529.896 2037.34 529.705 2038Z" fill="#666666" fill-rule="evenodd"/><path d="M471.742 1944.49C474.187 1950.39 471.387 1957.15 465.488 1959.6 459.588 1962.05 452.823 1959.24 450.378 1953.35 447.932 1947.45 450.733 1940.68 456.632 1938.24 462.532 1935.79 469.297 1938.59 471.742 1944.49Z" fill="#E60000" fill-rule="evenodd"/></g></svg>