<svg width="94" height="94" xmlns="http://www.w3.org/2000/svg" xmlns:xlink="http://www.w3.org/1999/xlink" xml:space="preserve" overflow="hidden"><defs><clipPath id="clip0"><rect x="760" y="488" width="94" height="94"/></clipPath></defs><g clip-path="url(#clip0)" transform="translate(-760 -488)"><path d="M851.98 537.02C851.98 561.862 831.842 582 807 582 782.158 582 762.02 561.862 762.02 537.02 762.02 512.177 782.158 492.039 807 492.039 831.842 492.039 851.98 512.177 851.98 537.02Z" fill="#EBEBEB"/><path d="M791.211 576.125C791.211 576.639 790.807 577.043 790.293 577.043L766.205 577.043C765.691 577.043 765.287 576.639 765.287 576.125L765.287 557.472C765.287 556.958 765.691 556.554 766.205 556.554L790.293 556.554C790.807 556.554 791.211 556.958 791.211 557.472L791.211 576.125Z" fill="#999999"/><path d="M767.16 576.125 767.16 557.472C767.16 556.958 767.564 556.554 768.078 556.554L766.205 556.554C765.691 556.554 765.287 556.958 765.287 557.472L765.287 576.125C765.287 576.639 765.691 577.043 766.205 577.043L768.078 577.043C767.564 577.043 767.16 576.639 767.16 576.125Z" fill="#AFAFAF"/><path d="M788.09 493.875 763.268 493.875C762.754 493.875 762.35 494.279 762.35 494.793L762.35 524.168C762.35 524.682 762.754 525.086 763.268 525.086L778.084 525.086 778.084 522.534C778.084 522.13 778.414 521.8 778.818 521.8L784.069 521.8 784.069 517.779C784.069 517.375 784.4 517.045 784.804 517.045L786.07 517.045C786.474 517.045 786.805 517.375 786.805 517.779L786.805 525.086 788.09 525.086C788.604 525.086 789.008 524.682 789.008 524.168L789.008 494.793C789.008 494.279 788.604 493.875 788.09 493.875Z" fill="#4A4D4E"/><path d="M765.618 524.168 765.618 494.793C765.618 494.279 766.04 493.875 766.536 493.875L763.268 493.875C762.754 493.875 762.35 494.279 762.35 494.793L762.35 524.168C762.35 524.682 762.754 525.086 763.268 525.086L766.536 525.086C766.04 525.086 765.618 524.682 765.618 524.168Z" fill="#4A4D4E"/><path d="M784.418 502.137C784.418 502.651 784.014 503.055 783.5 503.055L767.858 503.055C767.344 503.055 766.94 502.651 766.94 502.137L766.94 499.199C766.94 498.685 767.344 498.281 767.858 498.281L783.5 498.281C784.014 498.281 784.418 498.685 784.418 499.199L784.418 502.137Z" fill="#FFFFFF"/><path d="M850.659 496.996 825.837 496.996C825.323 496.996 824.919 497.4 824.919 497.914L824.919 520.496C824.919 521.01 825.323 521.414 825.837 521.414L827.195 521.414 827.195 519.395C827.195 518.991 827.526 518.66 827.93 518.66L828.26 518.66C828.664 518.66 828.995 518.991 828.995 519.395L828.995 521.414 829.949 521.414 829.949 518.054C829.949 517.65 830.28 517.32 830.684 517.32L831.014 517.32C831.418 517.32 831.748 517.65 831.748 518.054L831.748 521.414 832.703 521.414 832.703 518.844C832.703 518.44 833.034 518.109 833.438 518.109L833.768 518.109C834.172 518.109 834.502 518.44 834.502 518.844L834.502 521.414 835.457 521.414 835.457 520.496C835.457 520.092 835.787 519.762 836.191 519.762L836.522 519.762C836.926 519.762 837.256 520.092 837.256 520.496L837.256 521.414 850.622 521.414C851.136 521.414 851.54 521.01 851.54 520.496L851.54 497.914C851.577 497.4 851.173 496.996 850.659 496.996Z" fill="#666666"/><path d="M826.791 520.496 826.791 497.914C826.791 497.4 827.195 496.996 827.709 496.996L825.837 496.996C825.323 496.996 824.919 497.4 824.919 497.914L824.919 520.496C824.919 521.01 825.323 521.414 825.837 521.414L827.195 521.414 827.195 521.249C826.957 521.084 826.791 520.808 826.791 520.496Z" fill="#4A4D4E"/><path d="M847.06 512.602 843.388 512.602 843.388 515.906 847.06 515.906C847.978 515.906 848.713 515.172 848.713 514.254 848.713 513.336 847.978 512.602 847.06 512.602Z" fill="#FFFFFF"/><path d="M837.073 512.602 842.856 512.602 842.856 515.906 837.073 515.906Z" fill="#999999"/><path d="M836.522 512.602 829.453 512.602C828.536 512.602 827.801 513.336 827.801 514.254 827.801 515.172 828.536 515.906 829.453 515.906L836.522 515.906 836.522 512.602 836.522 512.602Z" fill="#333333"/><path d="M844.306 509.848C844.306 510.16 844.563 510.398 844.857 510.398L846.877 510.398C847.17 510.398 847.427 510.16 847.427 509.848L847.427 506.947C847.427 506.635 847.17 506.396 846.877 506.396L844.857 506.396C844.563 506.396 844.306 506.635 844.306 506.947L844.306 509.848Z" fill="#4A4D4E"/><path d="M840.267 509.848C840.267 510.16 840.524 510.398 840.818 510.398L842.838 510.398C843.131 510.398 843.388 510.16 843.388 509.848L843.388 505.607C843.388 505.295 843.131 505.056 842.838 505.056L840.818 505.056C840.524 505.056 840.267 505.295 840.267 505.607L840.267 509.848Z" fill="#4A4D4E"/><path d="M836.687 509.848C836.687 510.16 836.944 510.398 837.238 510.398L839.257 510.398C839.551 510.398 839.808 510.16 839.808 509.848L839.808 504.523C839.808 504.211 839.551 503.973 839.257 503.973L837.238 503.973C836.944 503.973 836.687 504.211 836.687 504.523L836.687 509.848Z" fill="#4A4D4E"/><path d="M832.648 509.848C832.648 510.16 832.905 510.398 833.199 510.398L835.218 510.398C835.512 510.398 835.769 510.16 835.769 509.848L835.769 505.368C835.769 505.056 835.512 504.817 835.218 504.817L833.199 504.817C832.905 504.817 832.648 505.056 832.648 505.368L832.648 509.848Z" fill="#4A4D4E"/><path d="M828.609 509.848C828.609 510.16 828.866 510.398 829.16 510.398L831.179 510.398C831.473 510.398 831.73 510.16 831.73 509.848L831.73 508.893C831.73 508.581 831.473 508.342 831.179 508.342L829.16 508.342C828.866 508.342 828.609 508.581 828.609 508.893L828.609 509.848Z" fill="#4A4D4E"/><path d="M850.916 575.758C850.916 576.272 850.512 576.676 849.998 576.676L823.707 576.676C823.193 576.676 822.789 576.272 822.789 575.758L822.789 557.766C822.789 557.252 823.193 556.848 823.707 556.848L849.998 556.848C850.512 556.848 850.916 557.252 850.916 557.766L850.916 575.758Z" fill="#BD0000"/><path d="M826.645 575.758 826.645 557.766C826.645 557.252 827.048 556.848 827.562 556.848L823.707 556.848C823.193 556.848 822.789 557.252 822.789 557.766L822.789 575.758C822.789 576.272 823.193 576.676 823.707 576.676L827.562 576.676C827.048 576.676 826.645 576.272 826.645 575.758Z" fill="#990000"/><path d="M794.295 508.195C793.432 508.085 793.341 510.16 795.342 511.886 793.157 511.537 791.156 511.225 790.458 511.133 789.338 510.986 789.504 514.548 793.91 516.182 792.514 516.035 790.844 515.539 790.844 516.641 790.844 519.211 793.873 520.312 793.873 524.645L793.873 524.443C793.873 517.522 799.454 516.824 806.321 516.824 813.187 516.824 818.768 519.798 818.768 526.72L818.768 520.992C818.787 507.828 796.095 508.416 794.295 508.195Z" fill="#4A4D4E"/><path d="M819.374 526.004 818.585 526.004C818.585 526.151 818.603 526.298 818.603 526.445L818.603 532.044C818.603 532.76 818.53 533.458 818.42 534.155L819.393 534.155C820.568 534.155 821.522 533.201 821.522 532.026L821.522 528.134C821.504 526.959 820.549 526.004 819.374 526.004Z" fill="#B79480"/><path d="M816.914 545.795 811.902 545.795 811.902 543.023C810.231 543.886 808.34 544.363 806.339 544.363 804.742 544.363 803.218 544.051 801.823 543.5L801.823 545.777 796.811 545.777C794.993 545.777 793.506 547.264 793.506 549.082L793.506 579.925C797.765 581.266 802.3 581.982 807.018 581.982 811.608 581.982 816.051 581.284 820.237 580.017L820.237 549.1C820.219 547.282 818.732 545.795 816.914 545.795Z" fill="#999999"/><path d="M818.787 532.044C818.787 538.966 813.205 544.565 806.339 544.565L806.339 544.565C799.454 544.565 793.891 538.947 793.891 532.044L793.891 524.168C793.891 517.246 799.473 516.549 806.339 516.549L806.339 516.549C813.224 516.549 818.787 519.523 818.787 526.445L818.787 532.044Z" fill="#B79480"/><path d="M795.801 532.044 795.801 524.168C795.801 517.687 800.703 516.659 806.982 516.567 806.761 516.567 806.541 516.549 806.321 516.549 799.436 516.549 793.873 517.246 793.873 524.168L793.873 532.044C793.873 538.966 799.454 544.565 806.321 544.565 806.651 544.565 806.963 544.547 807.275 544.529 800.868 544.033 795.801 538.635 795.801 532.044Z" fill="#B28772"/><path d="M828.646 531.567 828.646 546.842 819.319 546.842C818.713 546.199 817.869 545.795 816.914 545.795L811.902 545.795 820.219 554.645 820.219 554.186 829.215 554.186C829.362 551.064 831.932 548.586 835.09 548.586 835.402 548.586 835.696 548.604 835.989 548.659L835.989 531.567 828.646 531.567Z" fill="#666666"/><path d="M800.758 530.061C800.005 530.061 799.381 529.437 799.381 528.684L799.381 526.371C799.381 525.618 800.005 524.994 800.758 524.994 801.511 524.994 802.135 525.618 802.135 526.371L802.135 528.684C802.135 529.437 801.511 530.061 800.758 530.061Z" fill="#494949"/><path d="M811.131 530.061C810.378 530.061 809.754 529.437 809.754 528.684L809.754 526.371C809.754 525.618 810.378 524.994 811.131 524.994 811.884 524.994 812.508 525.618 812.508 526.371L812.508 528.684C812.508 529.437 811.884 530.061 811.131 530.061Z" fill="#494949"/><path d="M782.674 509.554 768.812 509.554C768.06 509.554 767.436 508.93 767.436 508.177 767.436 507.424 768.06 506.8 768.812 506.8L782.674 506.8C783.427 506.8 784.051 507.424 784.051 508.177 784.051 508.93 783.427 509.554 782.674 509.554Z" fill="#FFFFFF"/><path d="M782.674 514.603 768.812 514.603C768.06 514.603 767.436 513.979 767.436 513.226 767.436 512.473 768.06 511.849 768.812 511.849L782.674 511.849C783.427 511.849 784.051 512.473 784.051 513.226 784.051 513.979 783.427 514.603 782.674 514.603Z" fill="#FFFFFF"/><path d="M777.129 519.67 768.812 519.67C768.06 519.67 767.436 519.046 767.436 518.293 767.436 517.54 768.06 516.916 768.812 516.916L777.129 516.916C777.882 516.916 778.506 517.54 778.506 518.293 778.506 519.046 777.882 519.67 777.129 519.67Z" fill="#999999"/><path d="M787.355 563.09 780.324 563.09C779.571 563.09 778.947 562.466 778.947 561.713 778.947 560.96 779.571 560.336 780.324 560.336L787.355 560.336C788.108 560.336 788.732 560.96 788.732 561.713 788.732 562.466 788.108 563.09 787.355 563.09Z" fill="#FFFFFF"/><path d="M787.355 567.368 780.324 567.368C779.571 567.368 778.947 566.743 778.947 565.991 778.947 565.238 779.571 564.614 780.324 564.614L787.355 564.614C788.108 564.614 788.732 565.238 788.732 565.991 788.732 566.743 788.108 567.368 787.355 567.368Z" fill="#666666"/><path d="M784.547 571.627 780.324 571.627C779.571 571.627 778.947 571.003 778.947 570.25 778.947 569.497 779.571 568.873 780.324 568.873L784.547 568.873C785.299 568.873 785.923 569.497 785.923 570.25 785.923 571.003 785.299 571.627 784.547 571.627Z" fill="#FFFFFF"/><path d="M805.55 539.498C804.705 539.498 803.861 539.351 803.034 539.021 802.318 538.745 801.988 537.938 802.263 537.24 802.539 536.524 803.346 536.193 804.044 536.469 806.155 537.313 808.561 536.267 809.405 534.155 809.68 533.439 810.488 533.109 811.186 533.384 811.902 533.66 812.232 534.468 811.957 535.165 810.892 537.846 808.304 539.498 805.55 539.498Z" fill="#6D1326"/><path d="M845.389 572.27C845.389 572.563 845.646 572.82 845.94 572.82L847.96 572.82C848.254 572.82 848.511 572.563 848.511 572.27L848.511 561.254C848.511 560.96 848.254 560.703 847.96 560.703L845.94 560.703C845.646 560.703 845.389 560.96 845.389 561.254L845.389 572.27Z" fill="#FFFFFF"/><path d="M841.35 572.27C841.35 572.563 841.607 572.82 841.901 572.82L843.921 572.82C844.214 572.82 844.471 572.563 844.471 572.27L844.471 567.312C844.471 567.019 844.214 566.762 843.921 566.762L841.901 566.762C841.607 566.762 841.35 567.019 841.35 567.312L841.35 572.27Z" fill="#FFFFFF"/><path d="M837.311 572.27C837.311 572.563 837.568 572.82 837.862 572.82L839.882 572.82C840.175 572.82 840.432 572.563 840.432 572.27L840.432 565.293C840.432 564.999 840.175 564.742 839.882 564.742L837.862 564.742C837.568 564.742 837.311 564.999 837.311 565.293L837.311 572.27Z" fill="#FFFFFF"/><path d="M833.272 572.27C833.272 572.563 833.529 572.82 833.823 572.82L835.843 572.82C836.136 572.82 836.393 572.563 836.393 572.27L836.393 563.641C836.393 563.347 836.136 563.09 835.843 563.09L833.823 563.09C833.529 563.09 833.272 563.347 833.272 563.641L833.272 572.27Z" fill="#FFFFFF"/><path d="M829.233 572.27C829.233 572.563 829.49 572.82 829.784 572.82L831.804 572.82C832.097 572.82 832.354 572.563 832.354 572.27L832.354 564.926C832.354 564.632 832.097 564.375 831.804 564.375L829.784 564.375C829.49 564.375 829.233 564.632 829.233 564.926L829.233 572.27Z" fill="#FFFFFF"/><path d="M825.194 572.27C825.194 572.563 825.451 572.82 825.745 572.82L827.764 572.82C828.058 572.82 828.315 572.563 828.315 572.27L828.315 570.25C828.315 569.956 828.058 569.699 827.764 569.699L825.745 569.699C825.451 569.699 825.194 569.956 825.194 570.25L825.194 572.27Z" fill="#FFFFFF"/><path d="M831.363 500.76C831.363 501.52 830.746 502.137 829.986 502.137 829.225 502.137 828.609 501.52 828.609 500.76 828.609 499.999 829.225 499.383 829.986 499.383 830.746 499.383 831.363 499.999 831.363 500.76Z" fill="#EBEBEB"/><path d="M835.42 500.76C835.42 501.52 834.804 502.137 834.043 502.137 833.283 502.137 832.666 501.52 832.666 500.76 832.666 499.999 833.283 499.383 834.043 499.383 834.804 499.383 835.42 499.999 835.42 500.76Z" fill="#E60000"/><path d="M839.459 500.76C839.459 501.52 838.843 502.137 838.082 502.137 837.322 502.137 836.705 501.52 836.705 500.76 836.705 499.999 837.322 499.383 838.082 499.383 838.843 499.383 839.459 499.999 839.459 500.76Z" fill="#999999"/><path d="M847.886 500.76C847.886 501.52 847.27 502.137 846.509 502.137 845.749 502.137 845.132 501.52 845.132 500.76 845.132 499.999 845.749 499.383 846.509 499.383 847.27 499.383 847.886 499.999 847.886 500.76Z" fill="#FFFFFF"/><path d="M798.757 560.923 802.41 560.923C802.41 558.904 804.044 557.27 806.064 557.27L806.064 553.616C802.025 553.598 798.757 556.866 798.757 560.923Z" fill="#F4F4F4"/><path d="M807.936 551.744 807.936 555.397C809.956 555.397 811.59 557.031 811.59 559.051L815.243 559.051C815.243 555.012 811.975 551.744 807.936 551.744Z" fill="#666666"/><path d="M809.736 560.923C809.736 562.943 808.102 564.577 806.082 564.577 804.062 564.577 802.429 562.943 802.429 560.923L798.775 560.923C798.775 564.963 802.043 568.23 806.082 568.23 810.121 568.23 813.389 564.963 813.389 560.923L809.736 560.923Z" fill="#E60000"/><path d="M820.329 503.605C820.329 504.12 819.925 504.523 819.411 504.523L794.589 504.523C794.075 504.523 793.671 504.12 793.671 503.605L793.671 488.918C793.671 488.404 794.075 488 794.589 488L819.411 488C819.925 488 820.329 488.404 820.329 488.918L820.329 503.605 820.329 503.605Z" fill="#E60000"/><path d="M797.453 503.605 797.453 488.918C797.453 488.404 797.857 488 798.371 488L794.589 488C794.075 488 793.671 488.404 793.671 488.918L793.671 503.605C793.671 504.12 794.075 504.523 794.589 504.523L798.371 504.523C797.857 504.523 797.453 504.12 797.453 503.605Z" fill="#BD0000"/><path d="M802.594 492.37C802.594 491.433 803.255 491.048 804.081 491.507L810.819 495.399C811.627 495.876 811.627 496.647 810.819 497.106L804.062 500.998C803.255 501.476 802.575 501.09 802.575 500.136L802.594 492.37 802.594 492.37Z" fill="#FFFFFF"/><path d="M836.559 519.578 836.228 519.578C835.714 519.578 835.31 519.982 835.31 520.496L835.31 525.453 834.723 525.453 834.723 518.844C834.723 518.33 834.319 517.926 833.805 517.926L833.474 517.926C832.96 517.926 832.556 518.33 832.556 518.844L832.556 525.453 831.969 525.453 831.969 518.054C831.969 517.54 831.565 517.136 831.051 517.136L830.72 517.136C830.206 517.136 829.802 517.54 829.802 518.054L829.802 525.453 829.215 525.453 829.215 519.395C829.215 518.88 828.811 518.477 828.297 518.477L827.93 518.477C827.416 518.477 827.012 518.88 827.012 519.395L827.012 526.371 827.012 526.977 826.112 526.077C825.396 525.361 824.313 525.27 823.707 525.875 823.101 526.481 823.193 527.564 823.909 528.28L826.773 531.145C826.902 531.273 827.618 531.897 827.948 531.897L836.577 531.897C837.091 531.897 837.495 531.493 837.495 530.979L837.495 520.514C837.477 519.982 837.073 519.578 836.559 519.578Z" fill="#B79480"/><path d="M775.936 571.902 769.584 571.902C768.831 571.902 768.207 571.278 768.207 570.525L768.207 561.988C768.207 561.236 768.831 560.611 769.584 560.611L775.954 560.611C776.707 560.611 777.331 561.236 777.331 561.988L777.331 570.525C777.313 571.297 776.707 571.902 775.936 571.902ZM770.961 569.148 774.577 569.148 774.577 563.365 770.961 563.365 770.961 569.148Z" fill="#FFFFFF"/><path d="M835.989 548.659C835.696 548.623 835.384 548.586 835.09 548.586 831.932 548.586 829.362 551.064 829.215 554.186L832.318 554.186C834.337 554.186 835.989 552.533 835.989 550.514L835.989 548.659 835.989 548.659Z" fill="#FFFFFF"/><path d="M853.082 529.492 844.82 529.492C844.306 529.492 843.902 529.896 843.902 530.41L843.902 535.422 847.501 535.422C847.905 535.422 848.235 535.753 848.235 536.157L848.235 539.406 853.082 539.406C853.596 539.406 854 539.002 854 538.488L854 530.41C854 529.896 853.596 529.492 853.082 529.492Z" fill="#BD0000"/><path d="M848.419 544.235C848.419 544.749 848.015 545.153 847.501 545.153L839.239 545.153C838.725 545.153 838.321 544.749 838.321 544.235L838.321 536.157C838.321 535.643 838.725 535.239 839.239 535.239L847.501 535.239C848.015 535.239 848.419 535.643 848.419 536.157L848.419 544.235 848.419 544.235Z" fill="#E60000"/><path d="M765.765 538.341C765.765 537.938 766.095 537.607 766.499 537.607L770.098 537.607 770.098 532.595C770.098 532.081 769.694 531.677 769.18 531.677L760.918 531.677C760.404 531.677 760 532.081 760 532.595L760 540.673C760 541.187 760.404 541.591 760.918 541.591L765.765 541.591 765.765 538.341Z" fill="#E60000"/><path d="M765.581 546.438C765.581 546.952 765.985 547.356 766.499 547.356L774.761 547.356C775.275 547.356 775.679 546.952 775.679 546.438L775.679 538.36C775.679 537.846 775.275 537.442 774.761 537.442L766.499 537.442C765.985 537.442 765.581 537.846 765.581 538.36 765.581 538.341 765.581 546.438 765.581 546.438Z" fill="#990000"/><path d="M801.804 545.795 796.792 545.795C795.838 545.795 794.993 546.199 794.387 546.842L786.162 546.842 786.162 529.437C786.125 529.437 786.107 529.437 786.07 529.437L778.818 529.437C778.818 529.437 778.818 529.437 778.818 529.437L778.818 548.255C779.149 548.2 779.479 548.164 779.828 548.164 783.078 548.164 785.703 550.789 785.703 554.039 785.703 554.094 785.703 554.13 785.703 554.186L793.506 554.186 793.506 554.645 801.804 545.795Z" fill="#666666"/><path d="M785.703 554.057C785.703 550.807 783.078 548.182 779.828 548.182 779.479 548.182 779.149 548.219 778.818 548.274L778.818 550.532C778.818 552.552 780.471 554.204 782.49 554.204L785.703 554.204C785.703 554.149 785.703 554.094 785.703 554.057Z" fill="#FFFFFF"/><path d="M786.07 516.879 784.804 516.879C784.289 516.879 783.886 517.283 783.886 517.797L783.886 521.634 778.818 521.634C778.304 521.634 777.9 522.038 777.9 522.552L777.9 528.758C777.9 529.272 778.304 529.676 778.818 529.676L786.07 529.676C786.584 529.676 786.988 529.272 786.988 528.758L786.988 517.797C786.988 517.283 786.584 516.879 786.07 516.879Z" fill="#B79480"/><path d="M779.828 528.758 779.828 522.534C779.828 522.02 780.232 521.616 780.746 521.616L778.818 521.616C778.304 521.616 777.9 522.02 777.9 522.534L777.9 528.758C777.9 529.272 778.304 529.676 778.818 529.676L780.746 529.676C780.232 529.676 779.828 529.272 779.828 528.758Z" fill="#B28772"/><path d="M661.318 524.278C661.318 499.438 681.459 479.298 706.299 479.298 731.139 479.298 751.279 499.438 751.279 524.278 751.279 549.118 731.139 569.259 706.299 569.259 681.459 569.259 661.318 549.118 661.318 524.278" fill="#CCCCCC"/><path d="M688.288 547.595 689.555 547.595 673.068 531.108C672.536 530.575 671.655 530.575 671.122 531.108 670.59 531.64 670.59 532.521 671.122 533.054L686.746 548.678C686.966 548.054 687.572 547.595 688.288 547.595Z" fill="#666666"/><path d="M740.723 531.108C740.19 530.575 739.309 530.575 738.777 531.108L722.29 547.595 723.557 547.595C724.273 547.595 724.879 548.054 725.099 548.678L740.723 533.054C741.255 532.521 741.255 531.659 740.723 531.108Z" fill="#666666"/><path d="M718.361 547.595 747.332 506.69C740.484 490.589 724.53 479.298 705.913 479.298 687.315 479.298 671.343 490.589 664.495 506.69L693.466 547.595 718.361 547.595Z" fill="#F4F4F4"/><path d="M699.157 498.3 699.157 495.197 698.019 495.197C697.358 495.197 696.825 495.729 696.825 496.39L696.825 498.557C696.825 499.218 697.358 499.75 698.019 499.75L699.304 499.75C699.212 499.291 699.157 498.795 699.157 498.3Z" fill="#B79480"/><path d="M713.826 495.197 712.688 495.197 712.688 498.281C712.688 498.777 712.633 499.273 712.523 499.732L713.808 499.732C714.469 499.732 715.001 499.199 715.001 498.538L715.001 496.39C715.001 495.729 714.469 495.197 713.826 495.197Z" fill="#B79480"/><path d="M714.542 516.567 713.386 516.567 713.386 507.828C713.386 506.818 712.559 505.992 711.55 505.992L708.741 505.992 708.741 504.505C707.878 504.909 706.923 505.129 705.932 505.129 704.94 505.129 703.967 504.909 703.123 504.505L703.123 505.992 700.314 505.992C699.304 505.992 698.478 506.818 698.478 507.828L698.478 516.016C698.478 516.328 698.716 516.567 699.029 516.567L700.185 516.567 700.185 519.248 698.074 519.248C697.78 519.248 697.523 519.505 697.523 519.798L697.523 521.377C697.523 521.671 697.78 521.928 698.074 521.928L699.249 521.928 699.249 524.609 699.029 524.609C698.716 524.609 698.478 524.847 698.478 525.159L698.478 525.692C698.478 526.206 698.882 526.61 699.396 526.61L712.468 526.61C712.982 526.61 713.386 526.206 713.386 525.692L713.386 524.609 713.606 524.609C713.9 524.609 714.157 524.352 714.157 524.058L714.157 522.479C714.157 522.185 713.9 521.928 713.606 521.928L712.431 521.928 712.431 519.248 714.542 519.248C714.836 519.248 715.093 518.991 715.093 518.697L715.093 517.118C715.093 516.824 714.836 516.567 714.542 516.567Z" fill="#445EA0"/><path d="M728.789 523.452 727.173 521.836 728.348 520.661C728.495 520.514 728.495 520.276 728.348 520.111L727.724 519.486C727.577 519.339 727.339 519.339 727.173 519.486L725.998 520.661 725.613 520.276 723.281 522.607 726.457 525.784C726.604 525.93 726.843 525.93 727.008 525.784L728.789 524.003C728.936 523.856 728.936 523.599 728.789 523.452Z" fill="#B79480"/><path d="M725.778 519.615 713.147 506.984C713.073 506.91 712.982 506.855 712.871 506.837 713.073 507.112 713.184 507.443 713.184 507.81L713.184 513.428 722.565 522.809C722.786 523.03 723.134 523.03 723.336 522.809L725.76 520.386C725.98 520.184 725.98 519.835 725.778 519.615Z" fill="#999999"/><path d="M686.214 520.294 685.828 520.68 684.653 519.505C684.506 519.358 684.268 519.358 684.102 519.505L683.478 520.129C683.331 520.276 683.331 520.514 683.478 520.68L684.653 521.855 683.037 523.47C682.891 523.617 682.891 523.856 683.037 524.021L684.818 525.802C684.965 525.949 685.204 525.949 685.369 525.802L688.545 522.626 686.214 520.294Z" fill="#B79480"/><path d="M698.698 507.002 690.4 515.3 688.105 515.3C687.811 515.3 687.554 515.557 687.554 515.851L687.554 518.146 686.067 519.633C685.846 519.854 685.846 520.202 686.067 520.404L688.49 522.828C688.711 523.048 689.059 523.048 689.261 522.828L698.643 513.446 698.643 507.828C698.643 507.461 698.771 507.13 698.955 506.855 698.863 506.873 698.771 506.929 698.698 507.002Z" fill="#AFAFAF"/><path d="M711.531 505.974 708.722 505.974 708.722 504.487C707.859 504.891 706.905 505.111 705.913 505.111 704.922 505.111 703.949 504.891 703.104 504.487L703.104 505.974 700.295 505.974C699.286 505.974 698.459 506.8 698.459 507.81L698.459 515.998C698.459 516.31 698.698 516.549 699.01 516.549L713.386 516.549 713.386 507.828C713.386 506.8 712.559 505.974 711.531 505.974Z" fill="#AFAFAF"/><path d="M700.332 516.016 700.332 507.828C700.332 506.818 701.158 505.992 702.168 505.992L700.295 505.992C699.286 505.992 698.459 506.818 698.459 507.828L698.459 516.016C698.459 516.328 698.698 516.567 699.01 516.567L700.883 516.567C700.571 516.567 700.332 516.328 700.332 516.016Z" fill="#999999"/><path d="M713.808 485.907 711.237 485.907C710.944 485.907 710.687 486.146 710.687 486.458L710.687 487.247C709.438 486.256 707.768 485.723 705.913 485.723 702.076 485.723 698.955 488.018 698.955 491.874L698.955 495.417C698.955 491.562 702.076 489.891 705.913 489.891 709.75 489.891 712.871 491.543 712.871 495.417L712.871 491.892C712.871 491.048 712.725 490.277 712.449 489.597L713.808 489.597C714.102 489.597 714.359 489.359 714.359 489.046L714.359 486.476C714.359 486.164 714.12 485.907 713.808 485.907Z" fill="#4A4D4E"/><path d="M706.905 485.779C706.593 485.742 706.262 485.723 705.913 485.723 702.076 485.723 698.955 488.018 698.955 491.874L698.955 495.417C698.955 493.508 699.708 492.131 700.938 491.25 701.25 488.092 703.729 486.109 706.905 485.779Z" fill="#333333"/><path d="M699.781 545.575 704.389 545.575C704.463 545.575 704.536 545.593 704.61 545.593L704.61 526.298 699.579 526.298 699.579 545.593C699.634 545.593 699.708 545.575 699.781 545.575Z" fill="#E60000"/><path d="M707.455 545.575 712.064 545.575C712.137 545.575 712.211 545.593 712.284 545.593L712.284 526.298 707.254 526.298 707.254 545.593C707.309 545.593 707.382 545.575 707.455 545.575Z" fill="#E60000"/><path d="M712.871 498.3C712.871 502.155 709.75 505.295 705.913 505.295L705.913 505.295C702.076 505.295 698.955 502.155 698.955 498.3L698.955 495.179C698.955 491.323 702.076 489.652 705.913 489.652L705.913 489.652C709.75 489.652 712.871 491.305 712.871 495.179L712.871 498.3Z" fill="#B79480"/><path d="M700.92 498.3 700.92 495.179C700.92 491.654 703.508 489.964 706.886 489.689 706.574 489.671 706.244 489.652 705.913 489.652 702.076 489.652 698.955 491.305 698.955 495.179L698.955 498.3C698.955 502.155 702.076 505.295 705.913 505.295 706.244 505.295 706.574 505.276 706.886 505.221 703.527 504.744 700.92 501.825 700.92 498.3Z" fill="#B28772"/><path d="M704.389 545.391 699.781 545.391C699.267 545.391 698.863 545.814 698.863 546.309L698.863 547.595 705.307 547.595 705.307 546.309C705.307 545.795 704.885 545.391 704.389 545.391Z" fill="#994334"/><path d="M701.636 545.391 699.781 545.391C699.267 545.391 698.863 545.814 698.863 546.309L698.863 547.595 700.736 547.595 700.736 546.309C700.718 545.795 701.14 545.391 701.636 545.391Z" fill="#772C22"/><path d="M712.064 545.391 707.455 545.391C706.941 545.391 706.537 545.814 706.537 546.309L706.537 547.595 712.982 547.595 712.982 546.309C712.982 545.795 712.559 545.391 712.064 545.391Z" fill="#994334"/><path d="M709.346 545.391 707.455 545.391C706.941 545.391 706.537 545.814 706.537 546.309L706.537 547.595 708.429 547.595 708.429 546.309C708.429 545.795 708.851 545.391 709.346 545.391Z" fill="#772C22"/><path d="M703.104 505.974 700.295 505.974C699.286 505.974 698.459 506.8 698.459 507.81L698.459 510.619 703.104 505.974Z" fill="#666666"/><path d="M708.741 505.974 711.55 505.974C712.559 505.974 713.386 506.8 713.386 507.81L713.386 510.619 708.741 505.974Z" fill="#666666"/><path d="M725.393 554.204 725.393 549.247C725.393 548.237 724.566 547.411 723.557 547.411L688.288 547.411C687.279 547.411 686.452 548.237 686.452 549.247L686.452 554.204 725.393 554.204Z" fill="#666666"/><path d="M692.107 547.411 688.288 547.411C687.279 547.411 686.452 548.237 686.452 549.247L686.452 554.204 690.271 554.204 690.271 549.247C690.271 548.237 691.097 547.411 692.107 547.411Z" fill="#4A4D4E"/><path d="M728.22 553.653 683.607 553.653C682.597 553.653 681.771 554.479 681.771 555.489L681.771 562.264C688.729 566.688 697.009 569.259 705.877 569.259 714.781 569.259 723.079 566.67 730.056 562.209L730.056 555.489C730.056 554.479 729.23 553.653 728.22 553.653Z" fill="#4A4D4E"/><path d="M701.397 562.098C701.397 562.91 700.739 563.567 699.928 563.567 699.117 563.567 698.459 562.91 698.459 562.098 698.459 561.287 699.117 560.63 699.928 560.63 700.739 560.63 701.397 561.287 701.397 562.098Z" fill="#FFFFFF"/><path d="M707.382 562.098C707.382 562.91 706.724 563.567 705.913 563.567 705.102 563.567 704.445 562.91 704.445 562.098 704.445 561.287 705.102 560.63 705.913 560.63 706.724 560.63 707.382 561.287 707.382 562.098Z" fill="#FFFFFF"/><path d="M713.386 562.098C713.386 562.91 712.728 563.567 711.917 563.567 711.106 563.567 710.448 562.91 710.448 562.098 710.448 561.287 711.106 560.63 711.917 560.63 712.728 560.63 713.386 561.287 713.386 562.098Z" fill="#FFFFFF"/><path d="M720.05 536.763C720.05 537.056 719.793 537.313 719.499 537.313L716.929 537.313C716.635 537.313 716.378 537.056 716.378 536.763L716.378 534.192C716.378 533.898 716.635 533.641 716.929 533.641L719.499 533.641C719.793 533.641 720.05 533.898 720.05 534.192L720.05 536.763Z" fill="#BD0000"/><path d="M721.794 538.507C721.794 538.8 721.537 539.057 721.243 539.057L718.673 539.057C718.379 539.057 718.122 538.8 718.122 538.507L718.122 535.936C718.122 535.643 718.379 535.386 718.673 535.386L721.243 535.386C721.537 535.386 721.794 535.643 721.794 535.936L721.794 538.507Z" fill="#BD0000"/><path d="M714.726 542.087C714.726 542.38 714.469 542.638 714.175 542.638L711.605 542.638C711.311 542.638 711.054 542.38 711.054 542.087L711.054 539.516C711.054 539.223 711.311 538.966 711.605 538.966L714.175 538.966C714.469 538.966 714.726 539.223 714.726 539.516L714.726 542.087Z" fill="#BD0000"/><path d="M718.214 531.255C718.214 531.548 717.957 531.805 717.663 531.805L715.093 531.805C714.799 531.805 714.542 531.548 714.542 531.255L714.542 528.684C714.542 528.391 714.799 528.134 715.093 528.134L717.663 528.134C717.957 528.134 718.214 528.391 718.214 528.684L718.214 531.255Z" fill="#E60000"/><path d="M721.335 491.782C721.335 492.094 721.078 492.333 720.784 492.333L718.214 492.333C717.92 492.333 717.663 492.094 717.663 491.782L717.663 489.212C717.663 488.9 717.92 488.661 718.214 488.661L720.784 488.661C721.078 488.661 721.335 488.9 721.335 489.212L721.335 491.782Z" fill="#4A4D4E"/><path d="M721.702 482.97C721.702 483.282 721.445 483.52 721.152 483.52L718.581 483.52C718.287 483.52 718.03 483.282 718.03 482.97L718.03 480.399C718.03 480.087 718.287 479.848 718.581 479.848L721.152 479.848C721.445 479.848 721.702 480.087 721.702 480.399L721.702 482.97Z" fill="#333333"/><path d="M727.394 478.38C727.394 478.692 727.137 478.93 726.843 478.93L724.273 478.93C723.979 478.93 723.722 478.692 723.722 478.38" fill="#4A4D4E"/><path d="M693.98 530.888C693.98 531.181 693.723 531.438 693.429 531.438L690.859 531.438C690.565 531.438 690.308 531.181 690.308 530.888L690.308 528.317C690.308 528.023 690.565 527.766 690.859 527.766L693.429 527.766C693.723 527.766 693.98 528.023 693.98 528.317L693.98 530.888Z" fill="#E60000"/><path d="M696.734 525.013C696.734 525.306 696.477 525.563 696.183 525.563L693.612 525.563C693.319 525.563 693.062 525.306 693.062 525.013L693.062 522.442C693.062 522.148 693.319 521.891 693.612 521.891L696.183 521.891C696.477 521.891 696.734 522.148 696.734 522.442L696.734 525.013Z" fill="#E60000"/><path d="M689.757 511.61C689.757 511.904 689.5 512.161 689.206 512.161L686.636 512.161C686.342 512.161 686.085 511.904 686.085 511.61L686.085 509.04C686.085 508.746 686.342 508.489 686.636 508.489L689.206 508.489C689.5 508.489 689.757 508.746 689.757 509.04L689.757 511.61Z" fill="#BD0000"/><path d="M695.999 507.571C695.999 507.865 695.742 508.122 695.448 508.122L692.878 508.122C692.584 508.122 692.327 507.865 692.327 507.571L692.327 505.001C692.327 504.707 692.584 504.45 692.878 504.45L695.448 504.45C695.742 504.45 695.999 504.707 695.999 505.001L695.999 507.571Z" fill="#E60000"/><path d="M697.101 543.188C697.101 543.482 696.844 543.739 696.55 543.739L693.98 543.739C693.686 543.739 693.429 543.482 693.429 543.188L693.429 540.618C693.429 540.324 693.686 540.067 693.98 540.067L696.55 540.067C696.844 540.067 697.101 540.324 697.101 540.618L697.101 543.188Z" fill="#E60000"/><path d="M701.323 538.598C701.323 538.892 701.066 539.149 700.773 539.149L698.202 539.149C697.909 539.149 697.652 538.892 697.652 538.598L697.652 536.028C697.652 535.734 697.909 535.477 698.202 535.477L700.773 535.477C701.066 535.477 701.323 535.734 701.323 536.028L701.323 538.598Z" fill="#BD0000"/><path d="M699.029 553.653 700.846 556.793C700.993 557.05 701.379 557.27 701.672 557.27L710.173 557.27C710.466 557.27 710.852 557.05 710.999 556.793L712.816 553.653 699.029 553.653Z" fill="#FFFFFF"/><path d="M704.573 556.793 702.755 553.653 699.029 553.653 700.846 556.793C700.993 557.05 701.379 557.27 701.672 557.27L705.399 557.27C705.087 557.27 704.72 557.05 704.573 556.793Z" fill="#CCCCCC"/><path d="M744.615 529.786C744.468 529.786 744.339 529.694 744.284 529.566 743.532 527.73 742.963 527.179 741.145 526.426 741.016 526.371 740.925 526.243 740.925 526.096 740.925 525.949 741.016 525.82 741.145 525.765 742.981 525.013 743.532 524.443 744.284 522.626 744.339 522.497 744.468 522.405 744.615 522.405 744.762 522.405 744.89 522.497 744.945 522.626 745.698 524.462 746.267 525.013 748.085 525.765 748.213 525.82 748.305 525.949 748.305 526.096 748.305 526.243 748.213 526.371 748.085 526.426 746.249 527.179 745.698 527.748 744.945 529.566 744.909 529.694 744.762 529.786 744.615 529.786Z" fill="#999999"/><path d="M667.505 530.777C667.359 530.777 667.23 530.686 667.175 530.557 666.422 528.721 665.853 528.17 664.036 527.418 663.907 527.362 663.815 527.234 663.815 527.087 663.815 526.94 663.907 526.812 664.036 526.757 665.871 526.004 666.422 525.435 667.175 523.617 667.23 523.489 667.359 523.397 667.505 523.397 667.652 523.397 667.781 523.489 667.836 523.617 668.589 525.453 669.158 526.004 670.975 526.757 671.104 526.812 671.196 526.94 671.196 527.087 671.196 527.234 671.104 527.362 670.975 527.418 669.139 528.17 668.589 528.739 667.836 530.557 667.799 530.686 667.652 530.777 667.505 530.777Z" fill="#999999"/><path d="M679.88 503.238C679.733 503.238 679.604 503.146 679.549 503.018 678.797 501.182 678.227 500.631 676.41 499.879 676.281 499.823 676.189 499.695 676.189 499.548 676.189 499.401 676.281 499.273 676.41 499.218 678.246 498.465 678.797 497.896 679.549 496.078 679.604 495.95 679.733 495.858 679.88 495.858 680.027 495.858 680.155 495.95 680.21 496.078 680.963 497.914 681.532 498.465 683.35 499.218 683.478 499.273 683.57 499.401 683.57 499.548 683.57 499.695 683.478 499.823 683.35 499.879 681.514 500.631 680.963 501.2 680.21 503.018 680.173 503.146 680.027 503.238 679.88 503.238Z" fill="#E60000"/><path d="M684.029 490.387C683.845 490.387 683.68 490.277 683.607 490.111 682.67 487.835 681.973 487.137 679.678 486.182 679.513 486.109 679.402 485.944 679.402 485.76 679.402 485.577 679.513 485.411 679.678 485.338 681.954 484.402 682.652 483.704 683.607 481.409 683.68 481.244 683.845 481.134 684.029 481.134 684.213 481.134 684.378 481.244 684.451 481.409 685.388 483.686 686.085 484.383 688.38 485.338 688.545 485.411 688.655 485.577 688.655 485.76 688.655 485.944 688.545 486.109 688.38 486.182 686.104 487.119 685.406 487.816 684.451 490.111 684.396 490.277 684.213 490.387 684.029 490.387Z" fill="#999999"/><path d="M731.653 516.384C731.506 516.384 731.378 516.292 731.323 516.163 730.57 514.327 730.001 513.777 728.183 513.024 728.055 512.969 727.963 512.84 727.963 512.693 727.963 512.547 728.055 512.418 728.183 512.363 730.019 511.61 730.57 511.041 731.323 509.223 731.378 509.095 731.506 509.003 731.653 509.003 731.8 509.003 731.929 509.095 731.984 509.223 732.736 511.059 733.305 511.61 735.123 512.363 735.252 512.418 735.343 512.547 735.343 512.693 735.343 512.84 735.252 512.969 735.123 513.024 733.287 513.777 732.736 514.346 731.984 516.163 731.947 516.292 731.8 516.384 731.653 516.384Z" fill="#999999"/><path d="M730.478 503.716C730.295 503.716 730.111 503.605 730.037 503.422 729.064 501.054 728.33 500.319 725.962 499.346 725.778 499.273 725.668 499.107 725.668 498.905 725.668 498.704 725.778 498.538 725.962 498.465 728.33 497.492 729.064 496.757 730.037 494.389 730.111 494.205 730.276 494.095 730.478 494.095 730.68 494.095 730.845 494.205 730.919 494.389 731.892 496.757 732.626 497.492 734.995 498.465 735.178 498.538 735.288 498.704 735.288 498.905 735.288 499.107 735.178 499.273 734.995 499.346 732.626 500.319 731.892 501.054 730.919 503.422 730.845 503.605 730.68 503.716 730.478 503.716Z" fill="#E60000"/><path d="M713.441 477.278 713.441 479.848C713.441 480.161 713.184 480.399 712.89 480.399L710.32 480.399C710.026 480.399 709.769 480.161 709.769 479.848L709.769 477.278" fill="#4A4D4E"/><path d="M703.159 484.438C703.159 484.75 702.902 484.989 702.609 484.989L700.038 484.989C699.745 484.989 699.487 484.75 699.487 484.438L699.487 481.868C699.487 481.556 699.745 481.317 700.038 481.317L702.609 481.317C702.902 481.317 703.159 481.556 703.159 481.868L703.159 484.438Z" fill="#333333"/><path d="M714.542 516.567 700.167 516.567 700.167 519.248 714.542 519.248C714.836 519.248 715.093 518.991 715.093 518.697L715.093 517.118C715.093 516.824 714.836 516.567 714.542 516.567Z" fill="#999999"/><path d="M700.167 516.567 702.021 516.567 702.021 519.248 700.167 519.248Z" fill="#666666"/><path d="M713.606 521.928 699.23 521.928 699.23 524.609 713.606 524.609C713.9 524.609 714.157 524.352 714.157 524.058L714.157 522.479C714.157 522.185 713.9 521.928 713.606 521.928Z" fill="#999999"/><path d="M699.23 521.928 701.103 521.928 701.103 524.609 699.23 524.609Z" fill="#666666"/><path d="M698.055 521.928 712.431 521.928 712.431 519.248 698.055 519.248C697.762 519.248 697.505 519.505 697.505 519.798L697.505 521.377C697.505 521.689 697.762 521.928 698.055 521.928Z" fill="#AFAFAF"/><path d="M699.414 521.377 699.414 519.798C699.414 519.505 699.671 519.248 699.965 519.248L698.074 519.248C697.78 519.248 697.523 519.505 697.523 519.798L697.523 521.377C697.523 521.671 697.78 521.928 698.074 521.928L699.965 521.928C699.653 521.928 699.414 521.689 699.414 521.377Z" fill="#999999"/><path d="M699.01 524.609C698.698 524.609 698.459 524.847 698.459 525.159L698.459 525.692C698.459 526.206 698.863 526.61 699.377 526.61L712.449 526.61C712.963 526.61 713.367 526.206 713.367 525.692L713.367 524.609 699.01 524.609Z" fill="#AFAFAF"/><path d="M700.332 525.692 700.332 525.159C700.332 524.847 700.571 524.609 700.883 524.609L699.01 524.609C698.698 524.609 698.459 524.847 698.459 525.159L698.459 525.692C698.459 526.206 698.863 526.61 699.377 526.61L701.25 526.61C700.736 526.61 700.332 526.206 700.332 525.692Z" fill="#999999"/><path d="M687.334 553.653 683.607 553.653C682.597 553.653 681.771 554.479 681.771 555.489L681.771 562.264C682.982 563.035 684.213 563.732 685.498 564.393L685.498 555.489C685.498 554.479 686.324 553.653 687.334 553.653Z" fill="#333333"/><path d="M705.987 502.118C704.83 502.1 703.894 501.219 703.747 500.08L703.729 499.952C703.692 499.658 703.93 499.383 704.224 499.383L707.804 499.383C708.116 499.383 708.337 499.658 708.3 499.952L708.282 500.136C708.135 501.274 707.143 502.137 705.987 502.118Z" fill="#6D1326"/><path d="M704.977 500.007 704.959 499.879C704.94 499.658 705.032 499.475 705.216 499.383L704.224 499.383C703.912 499.383 703.692 499.658 703.729 499.952L703.747 500.08C703.894 501.219 704.848 502.118 705.987 502.118 706.262 502.118 706.519 502.082 706.758 501.99 705.821 501.788 705.105 500.98 704.977 500.007Z" fill="#630F23"/><path d="M704.298 496.096C704.298 496.553 703.928 496.923 703.471 496.923 703.015 496.923 702.645 496.553 702.645 496.096 702.645 495.64 703.015 495.27 703.471 495.27 703.928 495.27 704.298 495.64 704.298 496.096Z" fill="#494949"/><path d="M709.677 496.152C709.677 496.608 709.307 496.978 708.851 496.978 708.394 496.978 708.025 496.608 708.025 496.152 708.025 495.695 708.394 495.325 708.851 495.325 709.307 495.325 709.677 495.695 709.677 496.152Z" fill="#494949"/><path d="M913.136 547.723 927.052 547.723 927.052 559.216 913.136 559.216Z" fill="#B79480"/><path d="M913.136 547.723 920.094 547.723 920.094 559.216 913.136 559.216Z" fill="#B28772"/><path d="M933.551 500.282 932.927 499.823C929.127 497.07 924.629 495.619 919.91 495.674 907.885 495.784 898.283 505.735 898.283 517.761L898.283 525.306 898.283 532.228 898.283 542.858C898.283 545.024 900.027 546.768 902.193 546.768L908.16 546.768 932.027 546.768 938.013 546.768C940.179 546.768 941.923 545.024 941.923 542.858L941.923 532.228 941.923 525.306 941.923 517.944 941.923 517.504 941.923 510.968C941.923 508.416 940.748 505.992 938.747 504.395L933.551 500.282Z" fill="#4A4D4E"/><path d="M915.614 543.023 915.614 532.393 915.614 525.471 915.614 517.926C915.614 508.838 921.104 500.943 928.98 497.565 926.244 496.409 923.288 495.803 920.259 495.839 908.234 495.95 898.632 505.9 898.632 517.926L898.632 525.471 898.632 532.393 898.632 543.023C898.632 545.189 900.376 546.934 902.542 546.934L908.527 546.934 919.525 546.934C917.377 546.934 915.614 545.171 915.614 543.023Z" fill="#333333"/><path d="M942.511 506.341 941.813 506.341C941.244 506.341 940.785 506.8 940.785 507.369L940.785 508.25 940.785 511.996C940.785 512.565 941.244 513.024 941.813 513.024L946.439 513.024C947.009 513.024 947.468 512.565 947.468 511.996L947.468 507.369C947.468 506.8 947.009 506.341 946.439 506.341L942.511 506.341Z" fill="#E60000"/><path d="M942.511 506.341 941.813 506.341C941.244 506.341 940.785 506.8 940.785 507.369L940.785 508.25 940.785 510.343 941.372 510.343C943.153 510.343 944.604 508.893 944.604 507.112L944.604 506.341C944.604 506.341 942.511 506.341 942.511 506.341Z" fill="#BD0000"/><path d="M933.349 507.13 933.349 500.429C933.349 499.695 933.937 499.107 934.671 499.107L941.372 499.107C942.107 499.107 942.694 499.695 942.694 500.429L942.694 507.13C942.694 507.865 942.107 508.452 941.372 508.452L934.671 508.452C933.937 508.452 933.349 507.865 933.349 507.13Z" fill="#E60000"/><path d="M952.204 505.331 952.204 500.503C952.204 499.989 952.627 499.548 953.159 499.548L957.969 499.548C958.483 499.548 958.924 499.97 958.924 500.503L958.924 505.313C958.924 505.827 958.502 506.268 957.969 506.268L953.159 506.268C952.627 506.268 952.204 505.845 952.204 505.331Z" fill="#E60000"/><path d="M953.177 521.689 953.177 518.275C953.177 517.907 953.471 517.595 953.857 517.595L957.271 517.595C957.639 517.595 957.951 517.889 957.951 518.275L957.951 521.689C957.951 522.057 957.657 522.369 957.271 522.369L953.857 522.369C953.489 522.369 953.177 522.057 953.177 521.689Z" fill="#BD0000"/><path d="M932.505 562.025 928.594 562.025 928.594 557.619C928.594 556.903 928.007 556.315 927.291 556.315L912.934 556.315C912.218 556.315 911.63 556.903 911.63 557.619L911.63 562.19 910.602 562.209 906.306 562.209 906.141 562.245C902.891 562.98 900.321 565.477 899.495 568.708L899.017 570.599 899.219 581.468 899.219 586.351C899.219 587.343 900.027 588.15 901.018 588.15L939.573 588.15C940.564 588.15 941.372 587.343 941.372 586.351L941.372 583.377 941.372 575.556 941.372 570.874C941.354 565.991 937.388 562.025 932.505 562.025Z" fill="#AFAFAF"/><path d="M910.198 586.351 910.198 581.468 909.996 570.599 910.473 568.708C911.281 565.477 913.852 562.961 917.12 562.245L917.285 562.209 921.562 562.209 922.591 562.19 922.591 557.619C922.591 556.903 923.178 556.315 923.894 556.315L912.934 556.315C912.218 556.315 911.63 556.903 911.63 557.619L911.63 562.19 910.602 562.209 906.306 562.209 906.141 562.245C902.891 562.98 900.321 565.477 899.495 568.708L899.017 570.599 899.219 581.468 899.219 586.351C899.219 587.343 900.027 588.15 901.018 588.15L911.997 588.15C911.006 588.15 910.198 587.343 910.198 586.351Z" fill="#999999"/><path d="M909.409 588.15 909.409 579.466C909.409 578.677 908.766 578.034 907.977 578.034 907.187 578.034 906.545 578.677 906.545 579.466L906.545 588.15 909.409 588.15Z" fill="#666666"/><path d="M934.029 579.466C934.029 578.677 933.386 578.034 932.596 578.034 931.807 578.034 931.164 578.677 931.164 579.466L931.164 588.15 934.029 588.15 934.029 579.466Z" fill="#666666"/><path d="M878.051 544.29 878.051 539.535C878.051 539.002 878.473 538.58 879.005 538.58L883.761 538.58C884.293 538.58 884.715 539.002 884.715 539.535L884.715 544.29C884.715 544.822 884.293 545.245 883.761 545.245L879.005 545.245C878.491 545.245 878.051 544.822 878.051 544.29Z" fill="#E60000"/><path d="M883.485 540.104C881.539 540.104 879.96 541.683 879.96 543.629L879.96 545.245 883.761 545.245C884.293 545.245 884.715 544.822 884.715 544.29L884.715 540.104 883.485 540.104 883.485 540.104Z" fill="#BD0000"/><path d="M884.532 541.995 883.485 541.995C882.586 541.995 881.87 542.711 881.87 543.611L881.87 545.043 881.87 549.724C881.87 550.624 882.586 551.34 883.485 551.34L889.599 551.34C890.498 551.34 891.214 550.624 891.214 549.724L891.214 543.629C891.214 542.729 890.498 542.013 889.599 542.013L884.532 541.995C884.532 541.995 884.532 541.995 884.532 541.995Z" fill="#E60000"/><path d="M875.168 504.67 875.168 498.116C875.168 497.382 875.756 496.794 876.49 496.794L883.045 496.794C883.779 496.794 884.366 497.382 884.366 498.116L884.366 504.67C884.366 505.405 883.779 505.992 883.045 505.992L876.49 505.992C875.756 505.992 875.168 505.405 875.168 504.67Z" fill="#E60000"/><path d="M881.87 499.585C879.923 499.585 878.345 501.164 878.345 503.11L878.345 505.992 883.045 505.992C883.779 505.992 884.366 505.405 884.366 504.67L884.366 499.585 881.87 499.585Z" fill="#BD0000"/><path d="M882.916 501.494 881.87 501.494C880.97 501.494 880.254 502.21 880.254 503.11L880.254 504.542 880.254 509.223C880.254 510.123 880.97 510.839 881.87 510.839L887.983 510.839C888.883 510.839 889.599 510.123 889.599 509.223L889.599 503.11C889.599 502.21 888.883 501.494 887.983 501.494 887.983 501.494 882.916 501.494 882.916 501.494Z" fill="#E60000"/><path d="M885.413 515.117 884.623 515.117C883.944 515.117 883.393 515.668 883.393 516.347L883.393 517.43 883.393 520.955C883.393 521.634 883.944 522.185 884.623 522.185L889.232 522.185C889.911 522.185 890.462 521.634 890.462 520.955L890.462 516.347C890.462 515.668 889.911 515.117 889.232 515.117L885.413 515.117Z" fill="#E60000"/><path d="M935.846 533.513 935.846 524.021 938.233 524.021C940.84 524.021 942.97 526.151 942.97 528.758 942.97 531.365 940.84 533.495 938.233 533.495L935.846 533.495Z" fill="#B79480"/><path d="M901.955 533.513C899.348 533.513 897.218 531.383 897.218 528.776 897.218 526.169 899.348 524.039 901.955 524.039L904.341 524.039 904.341 533.531 901.955 533.531Z" fill="#B79480"/><path d="M936.966 582.441 936.966 576.492C936.966 575.868 937.48 575.372 938.086 575.372L944.034 575.372C944.659 575.372 945.154 575.886 945.154 576.492L945.154 582.441C945.154 583.065 944.64 583.561 944.034 583.561L938.086 583.561C937.48 583.561 936.966 583.065 936.966 582.441Z" fill="#BD0000"/><path d="M954.205 554.663 954.205 549.375C954.205 548.825 954.646 548.366 955.215 548.366L960.503 548.366C961.054 548.366 961.513 548.806 961.513 549.375L961.513 554.663C961.513 555.214 961.072 555.673 960.503 555.673L955.215 555.673C954.646 555.654 954.205 555.214 954.205 554.663Z" fill="#E60000"/><path d="M956.739 550.495 954.205 550.495 954.205 554.663C954.205 555.214 954.646 555.673 955.215 555.673L959.952 555.673 959.952 553.727C959.952 551.927 958.502 550.495 956.739 550.495Z" fill="#BD0000"/><path d="M955.417 582.349 955.417 576.584C955.417 575.978 955.913 575.501 956.5 575.501L962.247 575.501C962.853 575.501 963.33 575.996 963.33 576.584L963.33 582.349C963.33 582.955 962.834 583.432 962.247 583.432L956.5 583.432C955.895 583.432 955.417 582.955 955.417 582.349Z" fill="#E60000"/><path d="M956.5 575.501C955.895 575.501 955.417 575.996 955.417 576.584L955.417 580.788 957.694 580.788C959.475 580.788 960.907 579.338 960.907 577.575L960.907 575.482 956.5 575.482Z" fill="#BD0000"/><path d="M886.588 573.004 886.588 565.899C886.588 565.513 886.9 565.201 887.286 565.201L894.391 565.201C894.776 565.201 895.088 565.513 895.088 565.899L895.088 573.004C895.088 573.389 894.776 573.702 894.391 573.702L887.286 573.702C886.9 573.702 886.588 573.389 886.588 573.004Z" fill="#E60000"/><path d="M877.298 584.956 877.298 579.687C877.298 579.411 877.537 579.173 877.812 579.173L883.081 579.173C883.357 579.173 883.595 579.411 883.595 579.687L883.595 584.956C883.595 585.231 883.357 585.47 883.081 585.47L877.812 585.47C877.518 585.47 877.298 585.25 877.298 584.956Z" fill="#BD0000"/><path d="M892.702 568.506C891.141 568.506 889.874 569.773 889.874 571.333L889.874 573.702 894.391 573.702C894.776 573.702 895.088 573.389 895.088 573.004L895.088 568.506 892.702 568.506Z" fill="#BD0000"/><path d="M891.784 580.752 891.784 571.333C891.784 570.819 892.188 570.415 892.702 570.415L902.12 570.415C902.634 570.415 903.038 570.819 903.038 571.333L903.038 580.752C903.038 581.266 902.634 581.67 902.12 581.67L892.702 581.67C892.206 581.67 891.784 581.247 891.784 580.752Z" fill="#E60000"/><path d="M938.325 524.021C938.288 524.021 938.27 524.021 938.233 524.021L935.846 524.021 935.846 533.513 938.233 533.513C938.27 533.513 938.288 533.513 938.325 533.513L938.325 524.021Z" fill="#B79480"/><path d="M901.955 524.021C901.918 524.021 901.9 524.021 901.863 524.021L901.863 533.495C901.9 533.495 901.918 533.495 901.955 533.495L904.341 533.495 904.341 524.003 901.955 524.021 901.955 524.021Z" fill="#B28772"/><path d="M919.947 552.093C911.171 552.001 904.176 544.73 904.176 535.955L904.176 517.008C904.176 516.567 904.543 516.2 904.984 516.2L909.005 516.2C910.437 516.2 911.74 515.484 912.511 514.254L913.815 512.179C914.182 511.61 915.027 511.702 915.247 512.345L915.743 513.777C916.312 515.447 917.891 516.586 919.672 516.586L935.24 516.365C935.681 516.365 936.048 516.714 936.048 517.173L936.048 536.157C936.03 545.006 928.796 552.184 919.947 552.093Z" fill="#B79480"/><path d="M936.03 518.899 936.03 517.191C936.03 516.751 935.662 516.384 935.222 516.384L919.653 516.604C919.029 516.604 918.423 516.457 917.891 516.2L917.891 516.2C917.523 516.035 917.193 515.796 916.881 515.539 916.862 515.521 916.862 515.521 916.844 515.502 916.752 515.411 916.661 515.337 916.587 515.245 916.587 515.245 916.569 515.227 916.569 515.227 916.477 515.135 916.404 515.025 916.312 514.915 916.312 514.915 916.293 514.896 916.293 514.896 916.22 514.805 916.165 514.713 916.11 514.603 916.091 514.566 916.073 514.548 916.055 514.511 916 514.419 915.963 514.346 915.926 514.254 915.908 514.217 915.889 514.18 915.871 514.162 915.816 514.052 915.761 513.923 915.724 513.795L915.229 512.363C915.008 511.72 914.145 511.629 913.797 512.198L912.493 514.272C911.74 515.484 910.418 516.218 908.986 516.218L904.966 516.218C904.525 516.218 904.158 516.586 904.158 517.026L904.158 523.066 904.158 535.955C904.158 544.51 910.822 551.689 919.359 552.074 921.177 552.148 922.939 551.927 924.573 551.45 917.927 549.486 913.099 543.243 913.099 535.955L913.099 522.222C913.099 520.331 914.751 518.844 916.624 519.064 920.736 519.523 927.07 519.762 936.03 518.899Z" fill="#B28772"/><path d="M920.296 545.043C917.56 545.153 915.229 543.06 914.88 540.343L914.843 540.049C914.751 539.37 915.284 538.745 915.981 538.745L924.206 538.745C924.904 538.745 925.436 539.351 925.345 540.049L925.289 540.471C924.977 543.023 922.848 544.951 920.296 545.043Z" fill="#E2425D"/><path d="M917.432 539.645 917.395 539.351C917.377 539.149 917.395 538.947 917.468 538.764L915.981 538.764C915.284 538.764 914.751 539.37 914.843 540.067L914.88 540.361C915.229 543.078 917.56 545.171 920.296 545.061 921.159 545.024 921.985 544.767 922.701 544.363 920.039 544.382 917.762 542.307 917.432 539.645Z" fill="#D82B50"/><path d="M913.797 530.465C913.797 531.408 913.032 532.173 912.089 532.173 911.146 532.173 910.382 531.408 910.382 530.465 910.382 529.522 911.146 528.758 912.089 528.758 913.032 528.758 913.797 529.522 913.797 530.465Z" fill="#494949"/><path d="M930.283 530.557C930.283 531.5 929.519 532.264 928.576 532.264 927.633 532.264 926.868 531.5 926.868 530.557 926.868 529.614 927.633 528.85 928.576 528.85 929.519 528.85 930.283 529.614 930.283 530.557Z" fill="#494949"/><path d="M915.137 524.058C915.082 523.268 914.384 522.681 913.595 522.736L908.436 523.14C907.646 523.195 907.059 523.893 907.114 524.682 907.169 525.435 907.793 526.004 908.546 526.004 908.582 526.004 908.619 526.004 908.656 526.004L913.815 525.6C914.623 525.527 915.21 524.829 915.137 524.058Z" fill="#754727"/><path d="M926.373 525.582 931.532 525.986C931.568 525.986 931.605 525.986 931.642 525.986 932.376 525.986 933 525.416 933.074 524.664 933.129 523.874 932.541 523.195 931.752 523.121L926.593 522.718C925.804 522.662 925.124 523.25 925.051 524.039 924.996 524.829 925.583 525.527 926.373 525.582Z" fill="#754727"/><path d="M882.439 528.941C882.439 528.152 881.796 527.509 881.007 527.509L874.342 527.509C873.553 527.509 872.91 528.152 872.91 528.941 872.91 529.731 873.553 530.373 874.342 530.373L881.007 530.373C881.796 530.373 882.439 529.731 882.439 528.941Z" fill="#CCCCCC"/><path d="M888.259 530.373C889.048 530.373 889.691 529.731 889.691 528.941 889.691 528.152 889.048 527.509 888.259 527.509L885.009 527.509C884.22 527.509 883.577 528.152 883.577 528.941 883.577 529.731 884.22 530.373 885.009 530.373L888.259 530.373Z" fill="#999999"/><path d="M965.478 539.149 948.698 539.149C947.908 539.149 947.266 539.792 947.266 540.581 947.266 541.371 947.908 542.013 948.698 542.013L965.478 542.013C966.268 542.013 966.91 541.371 966.91 540.581 966.91 539.792 966.268 539.149 965.478 539.149Z" fill="#999999"/><path d="M890.443 558.684C890.443 557.894 889.801 557.252 889.011 557.252L885.009 557.252C884.22 557.252 883.577 557.894 883.577 558.684 883.577 559.473 884.22 560.116 885.009 560.116L889.011 560.116C889.819 560.116 890.443 559.473 890.443 558.684Z" fill="#CCCCCC"/><path d="M879.868 560.116C880.658 560.116 881.3 559.473 881.3 558.684 881.3 557.894 880.658 557.252 879.868 557.252L877.004 557.252C876.215 557.252 875.572 557.894 875.572 558.684 875.572 559.473 876.215 560.116 877.004 560.116L879.868 560.116Z" fill="#999999"/><path d="M957.951 530.465C957.951 531.255 958.593 531.897 959.383 531.897L961.476 531.897C962.265 531.897 962.908 531.255 962.908 530.465 962.908 529.676 962.265 529.033 961.476 529.033L959.383 529.033C958.593 529.033 957.951 529.676 957.951 530.465Z" fill="#CCCCCC"/><path d="M948.514 560.611 948.514 553.708C948.514 552.992 949.102 552.405 949.818 552.405L956.721 552.405C957.437 552.405 958.024 552.992 958.024 553.708L958.024 560.611C958.024 561.327 957.437 561.915 956.721 561.915L949.818 561.915C949.102 561.933 948.514 561.346 948.514 560.611Z" fill="#E60000"/><path d="M949.469 577.594 949.469 570.691C949.469 569.975 950.056 569.387 950.772 569.387L957.675 569.387C958.391 569.387 958.979 569.975 958.979 570.691L958.979 577.594C958.979 578.31 958.391 578.897 957.675 578.897L950.772 578.897C950.056 578.897 949.469 578.31 949.469 577.594Z" fill="#E60000"/></g></svg>