<svg width="127" height="94" xmlns="http://www.w3.org/2000/svg" xmlns:xlink="http://www.w3.org/1999/xlink" xml:space="preserve" overflow="hidden"><defs><clipPath id="clip0"><rect x="1051" y="215" width="127" height="94"/></clipPath></defs><g clip-path="url(#clip0)" transform="translate(-1051 -215)"><path d="M88.0471 111.474 72.4776 114.303 55.8629 111.474 60.3139 107.635 58.5119 101.833 85.3981 101.833Z" fill="#999999" transform="matrix(1.00365 0 0 1 1042.26 189.649)"/><path d="M64.4946 101.833 61.8456 111.474 57.8992 114.303 55.8629 111.474 58.5119 101.833Z" fill="#666666" transform="matrix(1.00365 0 0 1 1042.26 189.649)"/><path d="M132.161 27.6792 11.8033 27.6792C11.1166 27.6792 10.5599 28.2358 10.5599 28.9226L10.5599 100.589C10.5599 101.276 11.1166 101.833 11.8033 101.833L132.161 101.833C132.848 101.833 133.404 101.276 133.404 100.589L133.404 28.9226C133.404 28.2358 132.848 27.6792 132.161 27.6792Z" fill="#EBEBEB" transform="matrix(1.00365 0 0 1 1042.26 189.649)"/><path d="M17.1553 27.6792 17.1553 101.833 12.2178 101.833C11.2987 101.833 10.5599 101.274 10.5599 100.589L10.5599 28.9226C10.5599 28.2378 11.2987 27.6792 12.2178 27.6792Z" fill="#CCCCCC" transform="matrix(1.00365 0 0 1 1042.26 189.649)"/><path d="M132.161 103.689 11.8033 103.689C10.0915 103.689 8.7038 102.301 8.7038 100.589L8.7038 28.9226C8.7038 27.2108 10.0915 25.8231 11.8033 25.8231L132.161 25.8231C133.873 25.8231 135.26 27.2108 135.26 28.9226L135.26 100.589C135.26 102.301 133.873 103.689 132.161 103.689ZM12.416 99.9766 131.548 99.9766 131.548 29.5352 12.416 29.5352Z" fill="#E60000" transform="matrix(1.00365 0 0 1 1042.26 189.649)"/><path d="M100.914 118.934 49.736 118.934 43.555 118.682C43.1471 118.682 42.8162 118.351 42.8162 117.943L42.8162 117.781C42.8162 114.177 46.1319 111.87 49.736 111.87L55.8629 111.474 95.1471 111.474C98.7299 111.474 101.634 114.378 101.634 117.961 101.634 117.967 101.634 117.973 101.634 117.979L101.634 118.141C101.664 118.548 101.359 118.902 100.952 118.932 100.939 118.933 100.926 118.934 100.914 118.934Z" fill="#BD0000" transform="matrix(1.00365 0 0 1 1042.26 189.649)"/><path d="M56.2413 111.474C52.6486 111.474 49.736 114.386 49.736 117.979L49.736 118.934 43.0685 118.934C42.6605 118.934 42.3297 118.603 42.3297 118.195L42.3297 118.033C42.3197 114.45 45.2161 111.537 48.7989 111.528 48.8108 111.528 48.8229 111.528 48.835 111.528Z" fill="#990000" transform="matrix(1.00365 0 0 1 1042.26 189.649)"/><path d="M38.8698 59.7192C38.864 60.1634 38.8034 60.6053 38.6896 61.0347 38.2906 61.6723 37.8385 62.2752 37.338 62.8367 36.4585 63.7486 35.2345 64.2459 33.9682 64.2063 31.5915 64.3036 29.5861 62.4558 29.4889 60.0791 29.4817 59.905 29.4852 59.7308 29.4992 59.557 29.4397 58.1257 30.1204 56.7643 31.3012 55.953 31.6586 55.6499 31.9846 55.3118 32.2743 54.9439 32.7829 54.7608 33.3197 54.6694 33.8601 54.6736 36.597 54.6736 38.8157 56.8922 38.8157 59.6291Z" fill="#E60000" transform="matrix(1.00365 0 0 1 1042.26 189.649)"/><path d="M38.6896 61.0347C37.954 63.6606 35.2289 65.1929 32.6032 64.4573 29.9773 63.7217 28.4448 60.9967 29.1804 58.371 29.618 56.8091 30.7947 55.5618 32.3284 55.034 32.2042 55.4612 32.1435 55.9045 32.1482 56.3494 32.1581 59.0694 34.3658 61.269 37.0858 61.269 37.6292 61.2746 38.1704 61.1955 38.6896 61.0347Z" fill="#BD0000" transform="matrix(1.00365 0 0 1 1042.26 189.649)"/><path d="M61.269 45.0507C60.5835 44.3292 59.443 44.3 58.7215 44.9853 58.6991 45.0066 58.6773 45.0284 58.656 45.0507L56.2593 47.4474 53.7725 45.0507C53.046 44.3241 51.8682 44.3241 51.1416 45.0507 50.415 45.7773 50.415 46.9551 51.1416 47.6817L53.5383 50.0784 51.1416 52.4751C50.42 53.1606 50.3909 54.3011 51.0762 55.0228 51.0974 55.045 51.1192 55.0668 51.1416 55.088 51.8218 55.8146 52.9622 55.8521 53.6886 55.172 53.7176 55.145 53.7455 55.1169 53.7725 55.088L56.1692 52.6913 58.5659 55.088C59.2875 55.8344 60.4775 55.8546 61.2239 55.1331 61.9703 54.4115 61.9905 53.2215 61.269 52.4751L58.8723 50.0784 61.269 47.6817C61.9956 47.0014 62.033 45.8611 61.353 45.1347 61.3259 45.1057 61.2978 45.0777 61.269 45.0507Z" fill="#E60000" transform="matrix(1.00365 0 0 1 1042.26 189.649)"/><path d="M95.8679 84.425 98.2646 82.0284C98.9862 81.3018 98.9822 80.1279 98.2556 79.4064 97.529 78.6849 96.3552 78.6888 95.6337 79.4154L93.237 81.8121 90.8403 79.4154C90.1187 78.7137 88.9651 78.7299 88.2634 79.4514 87.5617 80.173 87.5779 81.3266 88.2994 82.0284L90.6961 84.425 88.2994 86.8217C87.5728 87.5433 87.5689 88.7171 88.2904 89.4437 89.0119 90.1703 90.1858 90.1742 90.9124 89.4527L93.3091 87.056 95.7057 89.4527C96.4323 90.1793 97.6101 90.1793 98.3367 89.4527 99.0633 88.7261 99.0633 87.5483 98.3367 86.8217Z" fill="#E60000" transform="matrix(1.00365 0 0 1 1042.26 189.649)"/><path d="M89.1644 42.7802C89.1669 43.3341 89.0943 43.8857 88.9481 44.42 88.4468 45.2334 87.8803 46.0047 87.2542 46.7266 86.1509 47.8613 84.6191 48.4766 83.0375 48.4205 80.0531 48.5083 77.5626 46.16 77.4748 43.1757 77.4694 42.9897 77.4735 42.8036 77.4872 42.618 77.4674 40.8484 78.3416 39.1882 79.8119 38.203 80.2542 37.8226 80.6586 37.4002 81.0192 36.9416 84.2353 35.8269 87.746 37.5303 88.8606 40.7464 89.0873 41.4003 89.2022 42.088 89.2004 42.7802Z" fill="#BD0000" transform="matrix(1.00365 0 0 1 1042.26 189.649)"/><path d="M88.9481 44.42C88.0473 47.7127 84.648 49.6517 81.3553 48.7508 78.0626 47.85 76.1236 44.4506 77.0245 41.158 77.5645 39.1837 79.0469 37.6049 80.9832 36.9416 80.837 37.4759 80.7644 38.0275 80.7669 38.5814 80.7669 41.988 83.5233 44.7525 86.9299 44.7624 87.617 44.7602 88.2989 44.6445 88.9481 44.42Z" fill="#990000" transform="matrix(1.00365 0 0 1 1042.26 189.649)"/><path d="M71.1261 85.1639C71.1228 85.7185 71.0439 86.2703 70.8918 86.8037 70.3991 87.6184 69.8385 88.3901 69.2159 89.1103 68.11 90.2413 66.5801 90.8558 64.9992 90.8042 62.0145 90.8821 59.5318 88.5256 59.4542 85.5409 59.4495 85.361 59.4536 85.181 59.4669 85.0017 59.4471 83.2321 60.3213 81.5719 61.7916 80.5867 62.234 80.2063 62.6383 79.7839 62.9989 79.3253 63.6017 79.113 64.2342 78.9973 64.873 78.9829 68.2827 78.9928 71.0441 81.7543 71.054 85.1639Z" fill="#990000" transform="matrix(1.00365 0 0 1 1042.26 189.649)"/><path d="M70.8918 86.8037C69.9728 90.0913 66.5626 92.0114 63.275 91.0924 59.9874 90.1733 58.0673 86.7632 58.9863 83.4757 59.5351 81.513 61.0158 79.9468 62.9449 79.2893 62.7852 79.821 62.7063 80.3739 62.7106 80.9291 62.7205 84.3387 65.4819 87.1002 68.8916 87.1101 69.5713 87.1283 70.2487 87.0245 70.8918 86.8037Z" fill="#820000" transform="matrix(1.00365 0 0 1 1042.26 189.649)"/><path d="M27.1746 57.4847C27.1746 61.5751 23.8587 64.8911 19.7683 64.8911 15.6778 64.8911 12.3619 61.5751 12.3619 57.4847 12.3619 53.3943 15.6778 50.0784 19.7683 50.0784 23.8587 50.0784 27.1746 53.3943 27.1746 57.4847Z" fill="#666666" transform="matrix(1.00365 0 0 1 1051 215.472)"/><path d="M28.4901 85.1639C27.4649 85.1639 26.634 84.333 26.634 83.3078 26.634 82.2826 27.4649 81.4517 28.4901 81.4517L28.4901 81.4517C29.5152 81.4517 30.3462 82.2826 30.3462 83.3078 30.3462 84.333 29.5152 85.1639 28.4901 85.1639Z" fill="#4A4D4E" transform="matrix(1.00365 0 0 1 1042.26 189.649)"/><path d="M115.925 43.7713C115.925 49.2351 111.495 53.6644 106.031 53.6644 100.568 53.6644 96.1382 49.2351 96.1382 43.7713 96.1382 38.3074 100.568 33.8781 106.031 33.8781 111.495 33.8781 115.925 38.3074 115.925 43.7713Z" fill="#BD0000" transform="matrix(1.00365 0 0 1 1051 215.472)"/><path d="M113.996 74.0454C113.52 74.0529 113.06 73.8715 112.717 73.5408L109.924 70.9459C109.197 70.2656 109.16 69.1253 109.84 68.3989 109.867 68.3699 109.895 68.3419 109.924 68.3149 110.609 67.5934 111.75 67.5642 112.471 68.2495 112.494 68.2708 112.515 68.2926 112.537 68.3149L113.798 69.5042 116.231 66.4048C116.863 65.5985 118.029 65.4574 118.835 66.0894 119.641 66.7214 119.782 67.8871 119.15 68.6933L115.456 73.3426C115.136 73.7605 114.648 74.0173 114.122 74.0454Z" fill="#EBEBEB" transform="matrix(1.00365 0 0 1 1042.26 189.649)"/><path d="M98.1205 64.7649 93.9037 57.5568C93.4242 56.6848 92.3284 56.3666 91.4564 56.8461 91.4308 56.8601 91.4057 56.8747 91.3809 56.89 90.5047 57.3622 90.1773 58.4551 90.6493 59.3313 90.6642 59.3588 90.6797 59.386 90.6961 59.4129L92.6243 62.7466C73.8607 57.6253 53.7787 62.1412 39.0139 74.8022 38.2407 75.4288 38.1217 76.5635 38.7483 77.3368 38.7701 77.3636 38.7925 77.3897 38.8157 77.4152 39.1628 77.832 39.6791 78.0702 40.2213 78.0639 40.6893 78.0383 41.1288 77.8314 41.4467 77.4872 55.3046 65.5787 74.1811 61.3495 91.7953 66.2065L88.2994 68.2969C87.371 68.6555 86.9091 69.6989 87.2678 70.6271 87.5746 71.4216 88.3956 71.8928 89.2365 71.7568 89.5592 71.7517 89.8755 71.6649 90.1555 71.5045L97.3636 67.3058C97.7959 67.0625 98.1088 66.6518 98.2286 66.1705 98.3509 65.6962 98.2864 65.1931 98.0484 64.7649Z" fill="#E60000" transform="matrix(1.00365 0 0 1 1042.26 189.649)"/><path d="M122.16 44.2578 107.329 44.2578C106.334 44.2578 105.527 43.4511 105.527 42.4558 105.527 41.4605 106.334 40.6538 107.329 40.6538L122.16 40.6538C123.155 40.6538 123.962 41.4605 123.962 42.4558 123.962 43.4511 123.155 44.2578 122.16 44.2578Z" fill="#666666" transform="matrix(1.00365 0 0 1 1042.26 189.649)"/><path d="M122.16 51.6822 107.329 51.6822C106.304 51.6822 105.473 50.8513 105.473 49.8261 105.473 48.8009 106.304 47.97 107.329 47.97L122.16 47.97C123.185 47.97 124.016 48.8009 124.016 49.8261 124.016 50.8513 123.185 51.6822 122.16 51.6822Z" fill="#666666" transform="matrix(1.00365 0 0 1 1042.26 189.649)"/><path d="M30.3462 39.4464 21.4441 39.4464C20.419 39.4464 19.5881 38.6155 19.5881 37.5903 19.5881 36.5651 20.419 35.7342 21.4441 35.7342L30.3462 35.7342C31.3713 35.7342 32.2023 36.5651 32.2023 37.5903 32.2023 38.6155 31.3713 39.4464 30.3462 39.4464Z" fill="#666666" transform="matrix(1.00365 0 0 1 1042.26 189.649)"/><path d="M30.3462 46.8527 21.4441 46.8527C20.424 46.8527 19.5971 46.0258 19.5971 45.0057 19.5971 43.9855 20.424 43.1586 21.4441 43.1586L30.3462 43.1586C31.3663 43.1586 32.1932 43.9855 32.1932 45.0057 32.1932 46.0258 31.3663 46.8527 30.3462 46.8527Z" fill="#666666" transform="matrix(1.00365 0 0 1 1042.26 189.649)"/></g></svg>