<svg width="94" height="95" xmlns="http://www.w3.org/2000/svg" xmlns:xlink="http://www.w3.org/1999/xlink" xml:space="preserve" overflow="hidden"><defs><clipPath id="clip0"><rect x="808" y="44" width="94" height="95"/></clipPath></defs><g clip-path="url(#clip0)" transform="translate(-808 -44)"><path d="M37.2695 0 56.7121 0 56.7121 8.09648 37.2695 8.09648Z" fill="#4A4D4E" transform="matrix(1 0 0 1.01064 808 44)"/><path d="M65.1023 6.48086 28.8977 6.48086C26.3641 6.48086 24.3078 8.53711 24.3078 11.0707L24.3078 21.0766 24.3078 35.6539 24.3078 50.2313 24.3078 64.8086 24.3078 79.3859 24.3078 89.4102C24.3078 91.9437 26.3641 94 28.8977 94L65.1023 94C67.6359 94 69.6922 91.9437 69.6922 89.4102L69.6922 79.4043 69.6922 64.827 69.6922 50.2496 69.6922 35.6723 69.6922 21.0949 69.6922 11.0707C69.6922 8.53711 67.6359 6.48086 65.1023 6.48086Z" fill="#E60000" transform="matrix(1 0 0 1.01064 808 44)"/><path d="M59.9617 50.2496 50.2496 50.2496 56.7305 25.9234 34.0383 53.4809 43.7504 53.4809 37.2695 77.7887Z" fill="#990000" transform="matrix(1 0 0 1.01064 808 44)"/><path d="M-62.2566-46.8531-62.2566-30.2195-101.344-30.2195" fill="#F4F4F4" transform="matrix(1 0 0 1.01064 808 44)"/><path d="M-101.344-25.2625-62.2566-25.2625-62.2566-8.64727-101.344-8.64727" fill="#EBEBEB" transform="matrix(1 0 0 1.01064 808 44)"/><path d="M-101.344-3.67188-62.2566-3.67188-62.2566 12.9617-101.344 12.9617" fill="#CCCCCC" transform="matrix(1 0 0 1.01064 808 44)"/><path d="M-101.344 17.9371-62.2566 17.9371-62.2566 34.5523-101.344 34.5523" fill="#AFAFAF" transform="matrix(1 0 0 1.01064 808 44)"/><path d="M-101.344 39.491-62.2566 39.491-62.2566 56.143-101.344 56.143" fill="#999999" transform="matrix(1 0 0 1.01064 808 44)"/><path d="M-101.344 61.1-62.2566 61.1-62.2566 77.7336-101.344 77.7336" fill="#666666" transform="matrix(1 0 0 1.01064 808 44)"/><path d="M-101.344 81.0016-62.2566 81.0016-62.2566 97.6352-101.344 97.6352" fill="#4A4D4E" transform="matrix(1 0 0 1.01064 808 44)"/><path d="M-11.9336-30.1461-51.0207-30.1461-51.0207-46.798" fill="#E60000" transform="matrix(1 0 0 1.01064 808 44)"/><path d="M-11.9336-8.55547-51.0207-8.55547-51.0207-25.1707-11.9336-25.1707" fill="#BD0000" transform="matrix(1 0 0 1.01064 808 44)"/><path d="M-11.9336 13.0352-51.0207 13.0352-51.0207-3.59844-11.9336-3.59844" fill="#990000" transform="matrix(1 0 0 1.01064 808 44)"/><path d="M-11.9336 34.6625-51.0207 34.6625-51.0207 18.0289-11.9336 18.0289" fill="#D47600" transform="matrix(1 0 0 1.01064 808 44)"/><path d="M-11.9336 56.2164-51.0207 56.2164-51.0207 39.5828-11.9336 39.5828" fill="#FFA10B" transform="matrix(1 0 0 1.01064 808 44)"/><path d="M-101.344 100.921-62.2566 100.921-62.2566 117.537-101.344 117.537" fill="#333333" transform="matrix(1 0 0 1.01064 808 44)"/><path d="M-12.8699 78.523-51.957 78.523-51.957 61.8895-12.8699 61.8895" fill="#39B54A" transform="matrix(1 0 0 1.01064 808 44)"/><path d="M-12.8699 100.095-51.957 100.095-51.957 83.4617-12.8699 83.4617" fill="#108846" transform="matrix(1 0 0 1.01064 808 44)"/></g></svg>