<svg width="103" height="95" xmlns="http://www.w3.org/2000/svg" xmlns:xlink="http://www.w3.org/1999/xlink" xml:space="preserve" overflow="hidden"><defs><clipPath id="clip0"><rect x="458" y="504" width="103" height="95"/></clipPath></defs><g clip-path="url(#clip0)" transform="translate(-458 -504)"><path d="M53.0441 77.9804 58.9511 77.9804C59.7832 77.9804 60.4576 78.6547 60.4576 79.4869L60.4576 93.9174C60.4576 94.7495 59.7832 95.4239 58.9511 95.4239L53.0441 95.4239C52.212 95.4239 51.5376 94.7495 51.5376 93.9174L51.5376 79.4869C51.5376 78.6547 52.212 77.9804 53.0441 77.9804Z" fill="#E60000" fill-rule="evenodd" transform="matrix(1.00081 0 0 1 450.7 493.857)"/><path d="M57.4446 77.9804 58.9511 77.9804C59.7832 77.9804 60.4576 78.6547 60.4576 79.4869L60.4576 93.9174C60.4576 94.7495 59.7832 95.4239 58.9511 95.4239L57.4446 95.4239C58.2768 95.4239 58.9511 94.7495 58.9511 93.9174L58.9511 79.4869C58.9511 78.6547 58.2768 77.9804 57.4446 77.9804Z" fill="#BD0000" fill-rule="evenodd" transform="matrix(1.00081 0 0 1 450.7 493.857)"/><path d="M69.6154 66.9196 75.5224 66.9196C76.3546 66.9196 77.0289 67.594 77.0289 68.4261L77.0289 93.9174C77.0289 94.7495 76.3546 95.4239 75.5224 95.4239L69.6154 95.4239C68.7833 95.4239 68.1089 94.7495 68.1089 93.9174L68.1089 68.4261C68.1089 67.594 68.7833 66.9196 69.6154 66.9196Z" fill="#BD0000" fill-rule="evenodd" transform="matrix(1.00081 0 0 1 450.7 493.857)"/><path d="M74.016 66.9196 75.5224 66.9196C76.3546 66.9196 77.0289 67.594 77.0289 68.4261L77.0289 93.9174C77.0289 94.7495 76.3546 95.4239 75.5224 95.4239L74.016 95.4239C74.8481 95.4239 75.5224 94.7495 75.5224 93.9174L75.5224 68.4261C75.5224 67.594 74.8481 66.9196 74.016 66.9196Z" fill="#990000" fill-rule="evenodd" transform="matrix(1.00081 0 0 1 450.7 493.857)"/><path d="M86.2264 70.6462 92.1334 70.6462C92.9655 70.6462 93.6399 71.3205 93.6399 72.1527L93.6399 93.9174C93.6399 94.7495 92.9655 95.4239 92.1334 95.4239L86.2264 95.4239C85.3879 95.4243 84.7017 94.7559 84.6803 93.9174L84.6803 72.1527C84.7017 71.3142 85.3879 70.6458 86.2264 70.6462Z" fill="#990000" fill-rule="evenodd" transform="matrix(1.00081 0 0 1 450.7 493.857)"/><path d="M90.6269 70.6462 92.1334 70.6462C92.9655 70.6462 93.6399 71.3205 93.6399 72.1527L93.6399 93.9174C93.6399 94.7495 92.9655 95.4239 92.1334 95.4239L90.6269 95.4239C91.4591 95.4239 92.1334 94.7495 92.1334 93.9174L92.1334 72.1527C92.1334 71.3205 91.4591 70.6462 90.6269 70.6462Z" fill="#820000" fill-rule="evenodd" transform="matrix(1.00081 0 0 1 450.7 493.857)"/><path d="M102.798 55.1849 108.705 55.1849C109.537 55.1849 110.211 55.8593 110.211 56.6914L110.211 93.9174C110.211 94.7495 109.537 95.4239 108.705 95.4239L102.798 95.4239C101.966 95.4239 101.291 94.7495 101.291 93.9174L101.291 56.6914C101.291 55.8593 101.966 55.1849 102.798 55.1849Z" fill="#E60000" fill-rule="evenodd" transform="matrix(1.00081 0 0 1 450.7 493.857)"/><path d="M107.04 55.1849 108.546 55.1849C109.378 55.1849 110.053 55.8593 110.053 56.6914L110.053 93.9174C110.053 94.7495 109.378 95.4239 108.546 95.4239L107.04 95.4239C107.872 95.4239 108.546 94.7495 108.546 93.9174L108.546 56.6914C108.546 55.8593 107.872 55.1849 107.04 55.1849Z" fill="#BD0000" fill-rule="evenodd" transform="matrix(1.00081 0 0 1 450.7 493.857)"/><path d="M57.0482 66.9989C56.2898 67.5678 55.2158 67.4271 54.6299 66.6818 54.0649 65.9361 54.2065 64.8748 54.947 64.3031L71.3598 51.5376C71.8141 51.1983 72.4028 51.0952 72.9456 51.2601L72.9456 51.2601 88.4861 56.2949 101.172 43.6088 100.498 43.6088C99.5485 43.6773 98.7191 42.9717 98.6351 42.023 98.5875 41.0802 99.2825 40.2636 100.221 40.1597L105.612 39.6443C106.525 39.533 107.356 40.1827 107.467 41.0953 107.471 41.127 107.474 41.1587 107.476 41.1905 107.495 41.3352 107.495 41.4818 107.476 41.6265L107.04 46.9389C106.959 47.8551 106.151 48.5322 105.235 48.4517 105.216 48.4497 105.196 48.4477 105.176 48.4454 104.238 48.3621 103.546 47.5347 103.629 46.5968 103.629 46.592 103.63 46.5868 103.63 46.5821L103.63 45.9874 90.3891 59.2286C89.9577 59.7527 89.2402 59.9442 88.6051 59.7044L72.7473 54.6299Z" fill="#4A4D4E" fill-rule="evenodd" transform="matrix(1.00081 0 0 1 450.7 493.857)"/><path d="M28.6232 80.0419C29.5712 81.3724 30.6759 82.5835 31.9137 83.6495L22.9937 92.4109 19.5843 88.9222Z" fill="#666666" fill-rule="evenodd" transform="matrix(1.00081 0 0 1 450.7 493.857)"/><path d="M30.3676 82.8566C30.4932 83.4041 30.8369 83.8767 31.319 84.1649L22.4387 93.0056 21.3683 91.8163Z" fill="#4A4D4E" fill-rule="evenodd" transform="matrix(1.00081 0 0 1 450.7 493.857)"/><path d="M11.6554 103.789 7.691 99.8244C7.01225 99.1719 6.99096 98.0928 7.64339 97.414 7.65897 97.3978 7.67482 97.3819 7.691 97.3665L18.4743 87.2175C19.1469 86.5277 20.2513 86.5138 20.941 87.1866 20.9514 87.1969 20.9617 87.2072 20.9718 87.2175L24.9363 91.1819C25.626 91.8547 25.6398 92.9588 24.9672 93.6486 24.957 93.6589 24.9467 93.6692 24.9363 93.6795L14.3116 103.987C13.6364 104.674 12.532 104.684 11.8448 104.009 11.7757 103.941 11.7123 103.867 11.6554 103.789Z" fill="#990000" fill-rule="evenodd" transform="matrix(1.00081 0 0 1 450.7 493.857)"/><path d="M24.8173 91.9352 14.1927 102.282C13.499 102.962 12.3888 102.962 11.6951 102.282L7.73064 98.3179C7.58828 98.1716 7.48001 97.9956 7.41349 97.8026 7.04135 98.4757 7.1541 99.3134 7.691 99.8641L11.6554 103.828C12.328 104.518 13.4324 104.532 14.1221 103.859 14.1326 103.849 14.1428 103.839 14.153 103.828L24.7777 93.521C25.3144 92.9933 25.4718 92.1901 25.1741 91.4991 25.0775 91.6612 24.9573 91.8083 24.8173 91.9352Z" fill="#820000" fill-rule="evenodd" transform="matrix(1.00081 0 0 1 450.7 493.857)"/><path d="M55.2245 59.3476C55.2245 70.0542 46.5451 78.7336 35.8385 78.7336 25.1318 78.7336 16.4524 70.0542 16.4524 59.3476 16.4524 48.6409 25.1318 39.9615 35.8385 39.9615 46.5451 39.9615 55.2245 48.6409 55.2245 59.3476Z" fill="#990000" transform="matrix(1.00081 0 0 1 458 504.799)"/><path d="M43.1727 50.9033C53.8794 50.9033 62.5587 59.5826 62.5587 70.2894 62.5587 80.9961 53.8794 89.6755 43.1727 89.6755L42.2212 89.6755C52.9169 89.1914 61.195 80.1283 60.7109 69.4327 60.2578 59.415 52.2389 51.3965 42.2212 50.943Z" fill="#820000" fill-rule="evenodd" transform="matrix(1.00081 0 0 1 450.7 493.857)"/><path d="M50.5465 59.3476C50.5465 67.4706 43.9615 74.0556 35.8385 74.0556 27.7154 74.0556 21.1304 67.4706 21.1304 59.3476 21.1304 51.2245 27.7154 44.6395 35.8385 44.6395 43.9615 44.6395 50.5465 51.2245 50.5465 59.3476Z" fill="#EBEBEB" transform="matrix(1.00081 0 0 1 458 504.799)"/><path d="M43.1727 55.5021 44.1638 55.5021C36.0517 55.9235 29.8173 62.8414 30.2389 70.9534 30.6298 78.4763 36.6411 84.4876 44.1638 84.8785L43.1727 84.8785C35.0387 85.3007 28.1026 79.0488 27.6804 70.915 27.2583 62.7811 33.51 55.845 41.644 55.4228 42.153 55.3962 42.6632 55.3962 43.1727 55.4228Z" fill="#CCCCCC" fill-rule="evenodd" transform="matrix(1.00081 0 0 1 450.7 493.857)"/><path d="M60.1801 10.9418C78.2416 10.9312 93.0595 25.2408 93.6795 43.2916 93.7239 43.8811 93.2819 44.3949 92.6924 44.4393 92.6516 44.4421 92.6103 44.4429 92.5695 44.4413L80.6762 44.4413C80.0926 44.4429 79.6078 43.9925 79.5662 43.4105 78.8795 32.6601 69.6083 24.5017 58.8579 25.1881 49.0646 25.8135 41.2606 33.6173 40.6354 43.4105 40.5938 43.9925 40.109 44.4429 39.5254 44.4413L27.751 44.4413C27.455 44.4456 27.1696 44.3315 26.9581 44.1241 26.7266 43.9124 26.609 43.6036 26.641 43.2916 27.2613 25.2254 42.1035 10.9098 60.1801 10.9418Z" fill="#CCCCCC" fill-rule="evenodd" transform="matrix(1.00081 0 0 1 450.7 493.857)"/><path d="M31.1208 27.751 43.2916 34.8077C46.7549 28.7434 53.1963 24.9934 60.1801 24.9759L60.1801 10.9418C54.3599 10.9631 48.6468 12.5076 43.6088 15.4216 38.4393 18.3684 34.1334 22.6197 31.1208 27.751Z" fill="#AFAFAF" fill-rule="evenodd" transform="matrix(1.00081 0 0 1 450.7 493.857)"/><path d="M43.6088 15.4216 50.4276 27.751C53.3878 26.0274 56.7544 25.1242 60.1801 25.1345 63.6042 25.1355 66.9676 26.0379 69.9326 27.751L76.9496 15.5802C66.5684 9.60534 53.7918 9.60534 43.4105 15.5802Z" fill="#999999" fill-rule="evenodd" transform="matrix(1.00081 0 0 1 450.7 493.857)"/><path d="M60.1801 10.9418 60.1801 24.9759C67.1472 24.9771 73.585 28.6946 77.0686 34.7284L89.1997 27.751C83.215 17.3853 72.1495 11.0059 60.1801 11.0211Z" fill="#666666" fill-rule="evenodd" transform="matrix(1.00081 0 0 1 450.7 493.857)"/><path d="M76.9496 15.4216 69.9326 27.751C75.6489 31.0487 79.3053 37.0181 79.6454 43.6088 79.6871 44.1907 80.1719 44.6411 80.7555 44.6395L92.6488 44.6395C93.2395 44.6629 93.7374 44.2034 93.7608 43.6127 93.7628 43.5715 93.762 43.5307 93.7588 43.4898 93.3172 31.9805 87.0007 21.5028 77.0289 15.7388Z" fill="#BD0000" fill-rule="evenodd" transform="matrix(1.00081 0 0 1 450.7 493.857)"/><path d="M89.1997 27.751 77.0686 34.7284C78.6282 37.4386 79.5122 40.4848 79.6454 43.6088 79.6871 44.1907 80.1719 44.6411 80.7555 44.6395L92.6488 44.6395C93.2395 44.6629 93.7374 44.2034 93.7608 43.6127 93.7628 43.5715 93.762 43.5307 93.7588 43.4898 93.5753 37.9454 92.0081 32.535 89.1997 27.751Z" fill="#990000" fill-rule="evenodd" transform="matrix(1.00081 0 0 1 450.7 493.857)"/><path d="M61.3694 45.6703C60.7018 46.3379 59.6187 46.3379 58.9511 45.6703 58.2835 45.0027 58.2835 43.9196 58.9511 43.252L66.4042 35.6799C67.0719 35.0121 68.1549 35.0121 68.8225 35.6799 69.4902 36.3477 69.4902 37.4304 68.8225 38.0982Z" fill="#990000" fill-rule="evenodd" transform="matrix(1.00081 0 0 1 450.7 493.857)"/><path d="M60.1801 48.4057C62.3696 48.4057 64.1445 46.6308 64.1445 44.4413 64.1445 42.2517 62.3696 40.4769 60.1801 40.4769 57.9905 40.4769 56.2157 42.2517 56.2157 44.4413 56.2157 46.6308 57.9905 48.4057 60.1801 48.4057Z" fill="#E60000" fill-rule="evenodd" transform="matrix(1.00081 0 0 1 450.7 493.857)"/><path d="M60.1801 40.4769C62.3696 40.4769 64.1445 42.2517 64.1445 44.4413 64.1445 46.6308 62.3696 48.4057 60.1801 48.4057L59.4665 48.4057C61.656 48.4057 63.4309 46.6308 63.4309 44.4413 63.4309 42.2517 61.656 40.4769 59.4665 40.4769Z" fill="#BD0000" fill-rule="evenodd" transform="matrix(1.00081 0 0 1 450.7 493.857)"/></g></svg>