<svg width="374" height="325" xmlns="http://www.w3.org/2000/svg" xmlns:xlink="http://www.w3.org/1999/xlink" xml:space="preserve" overflow="hidden"><defs><clipPath id="clip0"><rect x="2453" y="961" width="374" height="325"/></clipPath></defs><g clip-path="url(#clip0)" transform="translate(-2453 -961)"><path d="M2763.33 1060.17C2770.35 1061.84 2777.05 1064.63 2783.2 1068.41L2796.11 1062.68 2811.32 1077.89 2805.59 1090.8C2809.38 1096.94 2812.16 1103.65 2813.83 1110.67L2827 1115.74 2827 1137.26 2813.83 1142.33C2812.15 1149.35 2809.37 1156.05 2805.59 1162.2L2811.32 1175.11 2796.11 1190.32 2783.2 1184.59C2777.06 1188.38 2770.35 1191.16 2763.33 1192.83L2758.26 1206 2736.74 1206 2731.67 1192.83C2724.65 1191.16 2717.95 1188.37 2711.8 1184.59L2698.89 1190.32 2683.68 1175.11 2689.41 1162.2C2685.62 1156.06 2682.84 1149.35 2681.17 1142.33L2668 1137.26 2668 1115.74 2681.17 1110.67C2682.84 1103.65 2685.63 1096.95 2689.41 1090.8L2683.68 1077.89 2698.89 1062.68 2711.8 1068.41C2717.95 1064.63 2724.65 1061.84 2731.67 1060.17L2736.74 1047 2758.26 1047Z" fill="#4A4D4E" fill-rule="evenodd"/><path d="M2711.89 1184.59 2698.99 1190.32 2697 1188.34 2709.1 1182.96C2710.01 1183.53 2710.94 1184.07 2711.89 1184.59ZM2763.38 1060.18C2770.39 1061.85 2777.09 1064.63 2783.23 1068.41L2779.56 1070.04C2773.42 1066.26 2763.93 1061.85 2756.92 1060.17L2751.85 1047 2758.31 1047ZM2783.23 1184.59C2777.09 1188.38 2770.39 1191.16 2763.38 1192.83L2758.31 1206 2751.85 1206 2756.92 1192.83C2763.93 1191.16 2773.43 1186.75 2779.57 1182.96ZM2697 1064.67 2698.99 1062.68 2711.89 1068.41C2710.94 1068.93 2710.01 1069.48 2709.09 1070.04ZM2791.66 1064.67 2796.13 1062.68 2811.33 1077.89 2805.61 1090.8C2809.39 1096.94 2812.17 1103.65 2813.84 1110.67L2827 1115.74 2827 1137.26 2813.84 1142.33C2812.17 1149.35 2809.39 1156.05 2805.61 1162.2L2811.33 1175.11 2796.13 1190.32 2791.66 1188.34 2804.88 1175.11 2799.15 1162.2C2802.93 1156.05 2805.71 1149.35 2807.38 1142.33L2820.54 1137.26 2820.54 1115.74 2807.38 1110.67C2805.71 1103.65 2802.93 1096.94 2799.15 1090.8L2804.88 1077.89Z" fill="#333333" fill-rule="evenodd"/><path d="M2774.23 1100.04C2788.88 1114.68 2788.88 1138.42 2774.23 1153.07 2759.59 1167.71 2735.85 1167.71 2721.21 1153.07 2706.56 1138.42 2706.56 1114.68 2721.21 1100.04 2735.85 1085.4 2759.59 1085.4 2774.23 1100.04Z" fill="#E60000" fill-rule="evenodd"/><path d="M2747.98 1089C2727 1089 2710 1105.79 2710 1126.5 2710 1147.21 2727 1164 2747.98 1164 2749 1164 2750 1163.96 2751 1163.88 2731.44 1162.36 2716.04 1146.21 2716.04 1126.5 2716.04 1106.79 2731.44 1090.64 2751 1089.12 2750 1089.04 2749 1089 2747.98 1089Z" fill="#BD0000" fill-rule="evenodd"/><path d="M2764.57 1112.93C2765.91 1116.14 2764.4 1119.84 2761.2 1121.19 2757.99 1122.54 2754.3 1121.03 2752.96 1117.81 2752.3 1116.25 2751.06 1115.34 2749.7 1115 2748.72 1114.75 2747.7 1114.73 2746.77 1114.92 2745.91 1115.09 2745.14 1115.43 2744.56 1115.9 2744.06 1116.31 2743.74 1116.88 2743.77 1117.59 2743.8 1118.07 2744.09 1118.42 2744.5 1118.69 2745.63 1119.43 2747.36 1119.87 2749.05 1120.15 2752.22 1120.67 2755.71 1121.56 2758.72 1123.38 2762.45 1125.64 2765.27 1129.06 2765.91 1134.34 2765.95 1134.7 2765.98 1135.18 2766 1135.77 2766.11 1140.7 2763.89 1144.37 2760.54 1146.91 2758.69 1148.32 2756.52 1149.32 2754.3 1149.95 2754.16 1153.32 2751.39 1156 2748.01 1156 2744.57 1156 2741.78 1153.24 2741.71 1149.82 2740.06 1149.29 2738.48 1148.55 2737.06 1147.6 2733.77 1145.4 2731.25 1142.16 2730.18 1137.86 2729.35 1134.48 2731.41 1131.07 2734.78 1130.24 2738.15 1129.41 2741.56 1131.47 2742.38 1134.85 2742.63 1135.82 2743.22 1136.57 2744 1137.09 2745.17 1137.88 2746.73 1138.25 2748.34 1138.21 2748.55 1138.21 2748.9 1138.18 2749.38 1138.12 2750.78 1137.95 2752.11 1137.55 2752.96 1136.9 2753.26 1136.67 2753.46 1136.39 2753.45 1136.07 2753.45 1136.02 2753.44 1136.03 2753.41 1135.82 2753.33 1135.09 2752.86 1134.57 2752.22 1134.18 2750.85 1133.36 2748.9 1132.89 2747.03 1132.59 2743.92 1132.07 2740.52 1131.12 2737.66 1129.25 2734.07 1126.9 2731.48 1123.4 2731.23 1118.18 2730.98 1113.06 2733.18 1108.95 2736.64 1106.13 2738.13 1104.92 2739.86 1103.97 2741.71 1103.3 2741.71 1099.82 2744.53 1097 2748.01 1097 2751.46 1097 2754.26 1099.78 2754.3 1103.23 2758.63 1104.74 2762.45 1107.88 2764.57 1112.93Z" fill="#FFFFFF" fill-rule="evenodd"/><path d="M2515.52 1054 2474.48 1054C2471.47 1054 2469 1056.5 2469 1059.55L2469 1080.45C2469 1083.5 2471.47 1086 2474.48 1086L2515.52 1086C2518.53 1086 2521 1083.5 2521 1080.45L2521 1059.55C2521 1056.5 2518.53 1054 2515.52 1054Z" fill="#4A4D4E" fill-rule="evenodd"/><path d="M2515.27 1054 2507 1054C2510.15 1054 2512.73 1056.5 2512.73 1059.55L2512.73 1080.45C2512.73 1083.5 2510.15 1086 2507 1086L2515.27 1086C2518.42 1086 2521 1083.5 2521 1080.45L2521 1059.55C2521 1056.5 2518.42 1054 2515.27 1054Z" fill="#333333" fill-rule="evenodd"/><path d="M2460.78 1075 2544 1075 2544 1286 2460.78 1286C2456.49 1286 2453 1282.49 2453 1278.18L2453 1082.82C2453 1078.51 2456.5 1075 2460.78 1075Z" fill="#E60000" fill-rule="evenodd"/><path d="M2528 1075 2544 1075 2544 1286 2528 1286Z" fill="#BD0000" fill-rule="evenodd"/><path d="M2515 1286 2502.61 1286 2502.61 1149.24C2502.61 1145.8 2505.39 1143 2508.81 1143 2512.23 1143 2515 1145.8 2515 1149.24ZM2487.39 1286 2475 1286 2475 1149.24C2475 1145.8 2477.77 1143 2481.19 1143 2484.61 1143 2487.39 1145.8 2487.39 1149.24Z" fill="#EBEBEB" fill-rule="evenodd"/><path d="M2516.97 1101 2473.03 1101C2470.81 1101 2469 1102.71 2469 1104.8L2469 1117.2C2469 1119.29 2470.81 1121 2473.03 1121L2516.97 1121C2519.19 1121 2521 1119.29 2521 1117.2L2521 1104.8C2521 1102.71 2519.19 1101 2516.97 1101Z" fill="#EBEBEB" fill-rule="evenodd"/><path d="M2516.97 1101 2515.33 1101 2515.33 1112.46C2515.33 1114.55 2513.51 1116.26 2511.3 1116.26L2469 1116.26 2469 1117.2C2469 1119.29 2470.81 1121 2473.03 1121L2516.97 1121C2519.19 1121 2521 1119.29 2521 1117.2L2521 1104.8C2521 1102.71 2519.19 1101 2516.97 1101Z" fill="#CCCCCC" fill-rule="evenodd"/><path d="M2587 967.281C2587 963.812 2589.91 961 2593.5 961 2597.09 961 2600 963.812 2600 967.281L2600 998.72C2600 1002.19 2597.09 1005 2593.5 1005 2589.91 1005 2587 1002.19 2587 998.72Z" fill="#4A4D4E" fill-rule="evenodd"/><path d="M2620.44 985 2566.56 985C2562.95 985 2560 987.99 2560 991.644L2560 1019.36C2560 1023.01 2562.95 1026 2566.56 1026L2620.44 1026C2624.05 1026 2627 1023.01 2627 1019.36L2627 991.644C2627 987.99 2624.05 985 2620.44 985Z" fill="#4A4D4E" fill-rule="evenodd"/><path d="M2620.43 985 2612 985C2615.61 985 2618.57 987.99 2618.57 991.644L2618.57 1019.36C2618.57 1023.01 2615.61 1026 2612 1026L2620.43 1026C2624.04 1026 2627 1023.01 2627 1019.36L2627 991.644C2627 987.99 2624.04 985 2620.43 985Z" fill="#333333" fill-rule="evenodd"/><path d="M2643.32 1010 2543.68 1010C2540 1010 2537 1012.98 2537 1016.64L2537 1286 2642.15 1286C2646.47 1286 2650 1282.5 2650 1278.2L2650 1016.64C2650 1012.98 2647 1010 2643.32 1010Z" fill="#E60000" fill-rule="evenodd"/><path d="M2623.98 1036 2563.02 1036C2560.81 1036 2559 1037.78 2559 1039.97L2559 1057.03C2559 1059.22 2560.81 1061 2563.02 1061L2623.98 1061C2626.19 1061 2628 1059.22 2628 1057.03L2628 1039.97C2628 1037.78 2626.19 1036 2623.98 1036Z" fill="#EBEBEB" fill-rule="evenodd"/><path d="M2623.98 1036 2620.44 1036 2620.44 1049.94C2620.44 1052.12 2618.63 1053.9 2616.42 1053.9L2559 1053.9 2559 1057.03C2559 1059.22 2560.81 1061 2563.02 1061L2623.98 1061C2626.19 1061 2628 1059.22 2628 1057.03L2628 1039.97C2628 1037.78 2626.19 1036 2623.98 1036Z" fill="#CCCCCC" fill-rule="evenodd"/><path d="M2581.29 1135.69 2563.02 1135.69C2560.81 1135.69 2559 1137.49 2559 1139.71L2559 1157.98C2559 1160.19 2560.81 1162 2563.02 1162L2581.29 1162C2583.51 1162 2585.31 1160.19 2585.31 1157.98L2585.31 1139.71C2585.31 1137.49 2583.51 1135.69 2581.29 1135.69ZM2623.98 1093 2605.71 1093C2603.49 1093 2601.69 1094.81 2601.69 1097.02L2601.69 1115.29C2601.69 1117.51 2603.49 1119.31 2605.71 1119.31L2623.98 1119.31C2626.19 1119.31 2628 1117.51 2628 1115.29L2628 1097.02C2628 1094.81 2626.19 1093 2623.98 1093ZM2581.29 1093 2563.02 1093C2560.81 1093 2559 1094.81 2559 1097.02L2559 1115.29C2559 1117.51 2560.81 1119.31 2563.02 1119.31L2581.29 1119.31C2583.51 1119.31 2585.31 1117.51 2585.31 1115.29L2585.31 1097.02C2585.31 1094.81 2583.51 1093 2581.29 1093ZM2623.98 1135.69 2605.71 1135.69C2603.49 1135.69 2601.69 1137.49 2601.69 1139.71L2601.69 1157.98C2601.69 1160.19 2603.49 1162 2605.71 1162L2623.98 1162C2626.19 1162 2628 1160.19 2628 1157.98L2628 1139.71C2628 1137.49 2626.19 1135.69 2623.98 1135.69Z" fill="#EBEBEB" fill-rule="evenodd"/><path d="M2581.52 1135.69 2574 1135.69C2576.2 1135.69 2578 1137.49 2578 1139.71L2578 1157.98C2578 1160.19 2576.2 1162 2574 1162L2581.52 1162C2583.72 1162 2585.52 1160.19 2585.52 1157.98L2585.52 1139.71C2585.52 1137.49 2583.72 1135.69 2581.52 1135.69ZM2624 1093 2616.48 1093C2618.68 1093 2620.48 1094.81 2620.48 1097.02L2620.48 1115.29C2620.48 1117.51 2618.68 1119.31 2616.48 1119.31L2624 1119.31C2626.2 1119.31 2628 1117.51 2628 1115.29L2628 1097.02C2628 1094.81 2626.2 1093 2624 1093ZM2581.52 1093 2574 1093C2576.2 1093 2578 1094.81 2578 1097.02L2578 1115.29C2578 1117.51 2576.2 1119.31 2574 1119.31L2581.52 1119.31C2583.72 1119.31 2585.52 1117.51 2585.52 1115.29L2585.52 1097.02C2585.52 1094.81 2583.72 1093 2581.52 1093ZM2624 1135.69 2616.48 1135.69C2618.68 1135.69 2620.48 1137.49 2620.48 1139.71L2620.48 1157.98C2620.48 1160.19 2618.68 1162 2616.48 1162L2624 1162C2626.2 1162 2628 1160.19 2628 1157.98L2628 1139.71C2628 1137.49 2626.2 1135.69 2624 1135.69Z" fill="#CCCCCC" fill-rule="evenodd"/><path d="M2622 1208.12C2622 1200.9 2615.58 1195 2607.71 1195L2596.11 1195 2579.29 1195C2571.42 1195 2565 1200.9 2565 1208.12L2565 1228.19 2565 1286 2590.23 1286 2622 1286Z" fill="#ECEFF1" fill-rule="evenodd"/><path d="M2588 1195 2579.12 1195C2571.34 1195 2565 1200.9 2565 1208.12L2565 1228.19 2565 1286 2573.88 1286 2573.88 1228.19 2573.88 1208.12C2573.88 1200.9 2580.22 1195 2588 1195Z" fill="#D1D1D6" fill-rule="evenodd"/></g></svg>