<svg width="96" height="95" xmlns="http://www.w3.org/2000/svg" xmlns:xlink="http://www.w3.org/1999/xlink" xml:space="preserve" overflow="hidden"><defs><clipPath id="clip0"><rect x="1101" y="45" width="96" height="95"/></clipPath></defs><g clip-path="url(#clip0)" transform="translate(-1101 -45)"><path d="M46.9213 78.7391 58.9754 65.8105C59.722 65.0263 60.2749 64.0788 60.5915 63.0433L61.4217 60.4642 64.0229 52.3507 56.972 49.5226 53.4908 62.1965 42.1949 74.3281C40.9839 75.6342 41.0531 77.6731 42.3499 78.8941L42.3499 78.8941C43.6538 80.1111 45.6973 80.0419 46.9158 78.7391Z" fill="#990000" fill-rule="evenodd" transform="matrix(1 0 0 1.00705 1062.02 29.2438)"/><path d="M62.0748 51.5869 56.972 49.5392 53.4908 62.2131 42.1949 74.3281C41.0123 75.6016 41.044 77.5813 42.2668 78.8166 43.2964 78.9444 44.325 78.5719 45.0341 77.8148L57.0827 64.8863C57.8309 64.102 58.386 63.1551 58.7043 62.119L59.5289 59.54 62.0914 51.5703Z" fill="#BD0000" fill-rule="evenodd" transform="matrix(1 0 0 1.00705 1062.02 29.2438)"/><path d="M56.7727 49.993C56.0222 52.2984 56.8369 54.8253 58.7928 56.258L70.4152 64.9804 64.8807 75.363C64.0489 76.9409 64.6472 78.8941 66.2201 79.7353L66.2201 79.7353C67.798 80.5671 69.7511 79.9688 70.5923 78.3959L75.6453 68.8988 77.5326 65.3456C78.2731 63.9714 77.9261 62.2646 76.7079 61.2889L68.135 54.2933 75.4571 39.4277C76.7705 36.8274 76.5579 33.7173 74.9037 31.3196 74.1078 30.1091 73.0037 29.1329 71.7048 28.4915 68.3409 26.8334 64.2697 28.2162 62.6116 31.5802 62.4522 31.9029 62.3194 32.2377 62.2131 32.5815L56.745 49.993Z" fill="#BD0000" fill-rule="evenodd" transform="matrix(1 0 0 1.00705 1062.02 29.2438)"/><path d="M65.9378 53.3579 72.8006 39.4277C74.1222 36.8324 73.9202 33.7225 72.2748 31.3196 71.4789 30.1091 70.3748 29.1329 69.0759 28.4915 68.5479 28.2373 67.99 28.0514 67.4155 27.9381 64.9721 28.4292 62.9935 30.2171 62.2574 32.5981L56.9388 49.5281 65.9544 53.4022Z" fill="#E60000" fill-rule="evenodd" transform="matrix(1 0 0 1.00705 1062.02 29.2438)"/><path d="M43.2907 5.94403C43.2907 9.22683 40.6295 11.8881 37.3467 11.8881 34.0639 11.8881 31.4027 9.22683 31.4027 5.94403 31.4027 2.66123 34.0639-1.26674e-07 37.3467-1.26674e-07 40.6295-1.26674e-07 43.2907 2.66123 43.2907 5.94403Z" fill="#BD0000" transform="matrix(1 0 0 1.00705 1101.17 45)"/><path d="M75.0476 27.3569C71.8625 26.5367 69.9453 23.2898 70.7661 20.1048 71.3068 18.0043 72.9472 16.364 75.0476 15.8231 78.2327 16.6434 80.1498 19.8902 79.3296 23.0752 78.7883 25.1757 77.1479 26.816 75.0476 27.3569Z" fill="#E60000" fill-rule="evenodd" transform="matrix(1 0 0 1.00705 1062.02 29.2438)"/><path d="M52.4392 42.2668C53.1835 42.3146 53.7482 42.9566 53.7005 43.7009 53.657 44.3786 53.117 44.9187 52.4392 44.9621L40.5013 44.9621C39.7571 45.0098 39.115 44.4452 39.0673 43.7009 39.0195 42.9566 39.5842 42.3146 40.3286 42.2668 40.3861 42.2631 40.4438 42.2631 40.5013 42.2668ZM55.3448 34.1644C56.0892 34.1167 56.7312 34.6813 56.7788 35.4256 56.8264 36.1699 56.2619 36.8119 55.5175 36.8597 55.4599 36.8634 55.4024 36.8634 55.3448 36.8597L48.2607 36.8597C47.5164 36.8119 46.9517 36.1699 46.9994 35.4256 47.0429 34.7479 47.5829 34.2078 48.2607 34.1644ZM49.6111 50.3638C50.3554 50.3161 50.9974 50.8808 51.0451 51.625 51.0929 52.3693 50.5282 53.0114 49.7839 53.0591 49.7264 53.0628 49.6687 53.0628 49.6111 53.0591L43.169 53.0591C42.4247 53.1068 41.7826 52.5421 41.7349 51.7978 41.6872 51.0536 42.2518 50.4115 42.9962 50.3638 43.0537 50.3601 43.1114 50.3601 43.169 50.3638Z" fill="#E60000" fill-rule="evenodd" transform="matrix(1 0 0 1.00705 1062.02 29.2438)"/><path d="M40.5013 91.1308 53.4797 91.1308 53.4797 109.987 40.5013 109.987Z" fill="#CCCCCC" transform="matrix(1 0 0 1.00705 1062.02 29.2438)"/><path d="M59.219 84.8547 72.1973 84.8547 72.1973 109.987 59.219 109.987Z" fill="#AFAFAF" transform="matrix(1 0 0 1.00705 1062.02 29.2438)"/><path d="M77.931 76.5696 90.9094 76.5696 90.9094 109.981 77.931 109.981Z" fill="#999999" transform="matrix(1 0 0 1.00705 1062.02 29.2438)"/><path d="M96.6431 68.2789 109.621 68.2789 109.621 109.987 96.6431 109.987Z" fill="#666666" transform="matrix(1 0 0 1.00705 1062.02 29.2438)"/><path d="M115.361 60.7022 128.334 60.7022 128.334 109.959 115.361 109.959Z" fill="#4A4D4E" transform="matrix(1 0 0 1.00705 1062.02 29.2438)"/><path d="M124.41 23.0733 127.177 21.2192 131.555 25.5914 129.701 28.3587 131.538 32.7863 134.809 33.4338 134.809 39.638 131.538 40.28 129.701 44.7076 131.555 47.4748 127.177 51.8526 124.41 49.9985 119.982 51.836 119.323 55.1234 113.136 55.1234 112.488 51.8526 108.061 50.0151 105.294 51.8692 100.921 47.4914 102.775 44.7242 100.932 40.2966 97.667 39.6546 97.667 33.4504 100.932 32.8029 102.775 28.3753 100.921 25.6081 105.294 21.2358 108.061 23.0899 112.488 21.2469 113.136 17.9815 119.323 17.9815 119.965 21.2469Z" fill="#990000" fill-rule="evenodd" transform="matrix(1 0 0 1.00705 1062.02 29.2438)"/><path d="M124.41 23.0733 125.981 22.0217 129.557 25.5914 127.703 28.3587 129.546 32.7863 132.811 33.4338 132.811 39.638 129.546 40.28 127.703 44.7076 129.557 47.4748 125.981 51.0501 124.41 49.9985 124.41 49.9985 122.794 48.8916 118.167 50.8066 117.331 55.1234 113.141 55.1234 112.494 51.8526 108.066 50.0151 106.406 49.3288 104.22 50.7955 100.899 47.4748 102.753 44.7076 100.91 40.28 97.6449 39.638 97.6449 33.4504 100.91 32.8029 102.753 28.3753 100.899 25.6081 104.22 22.2874 106.406 23.754 108.066 23.0677 112.494 21.2247 113.141 17.9594 117.331 17.9594 118.172 22.2376 122.799 24.1525Z" fill="#BD0000" fill-rule="evenodd" transform="matrix(1 0 0 1.00705 1062.02 29.2438)"/><path d="M84.8713 20.8982C84.8713 26.1586 80.6069 30.423 75.3464 30.423 70.086 30.423 65.8216 26.1586 65.8216 20.8982 65.8216 15.6378 70.086 11.3734 75.3464 11.3734 80.6069 11.3734 84.8713 15.6378 84.8713 20.8982Z" fill="#990000" transform="matrix(1 0 0 1.00705 1101.17 45)"/><path d="M86.6202 20.8705C86.6202 26.134 82.3533 30.4009 77.0898 30.4009 71.8263 30.4009 67.5594 26.134 67.5594 20.8705 67.5594 15.607 71.8263 11.3402 77.0898 11.3402 82.3533 11.3402 86.6202 15.607 86.6202 20.8705Z" fill="#EBEBEB" transform="matrix(1 0 0 1.00705 1101.17 45)"/><path d="M49.3067 91.1308 53.4797 91.1308 53.4797 109.987 49.3067 109.987Z" fill="#AFAFAF" transform="matrix(1 0 0 1.00705 1062.02 29.2438)"/><path d="M68.0188 84.8547 72.1918 84.8547 72.1918 109.987 68.0188 109.987Z" fill="#999999" transform="matrix(1 0 0 1.00705 1062.02 29.2438)"/><path d="M86.7309 76.5696 90.9094 76.5696 90.9094 109.981 86.7309 109.981Z" fill="#666666" transform="matrix(1 0 0 1.00705 1062.02 29.2438)"/><path d="M105.448 68.2789 109.621 68.2789 109.621 109.987 105.448 109.987Z" fill="#4A4D4E" transform="matrix(1 0 0 1.00705 1062.02 29.2438)"/><path d="M124.161 60.7022 128.334 60.7022 128.334 109.959 124.161 109.959Z" fill="#333333" transform="matrix(1 0 0 1.00705 1062.02 29.2438)"/><path d="M56.7727 49.993C56.0222 52.2984 56.8369 54.8253 58.7928 56.258L70.4152 64.9804 64.8807 75.363C64.0489 76.9409 64.6472 78.8941 66.2201 79.7353L66.2201 79.7353C67.798 80.5671 69.7511 79.9688 70.5923 78.3959L75.6453 68.8988 77.5326 65.3456C78.2731 63.9714 77.9261 62.2646 76.7079 61.2889L68.135 54.2933 56.9222 49.5115Z" fill="#990000" fill-rule="evenodd" transform="matrix(1 0 0 1.00705 1062.02 29.2438)"/><path d="M56.7727 49.993C56.0222 52.2984 56.8369 54.8253 58.7928 56.258L70.4152 64.9804 64.8807 75.363C64.0489 76.9409 64.6472 78.8941 66.2201 79.7353L66.2201 79.7353 66.4027 79.8238C67.0602 79.5344 67.6004 79.0313 67.9358 78.3959L72.9832 68.8988 74.876 65.3456C75.6165 63.9714 75.2695 62.2646 74.0514 61.2889L66.447 55.0847C65.8935 54.6995 65.6821 53.9817 65.9378 53.3579L56.9222 49.4838 56.7727 49.9653Z" fill="#BD0000" fill-rule="evenodd" transform="matrix(1 0 0 1.00705 1062.02 29.2438)"/><path d="M91.9112 33.467 81.9491 34.4798 71.6328 33.4283C70.2785 33.2907 69.0698 34.2769 68.932 35.631 68.7942 36.9851 69.7804 38.1943 71.1347 38.3318L75.2911 38.7524 81.9325 39.4332 92.4259 38.365C93.7829 38.2698 94.8057 37.0927 94.7105 35.7358 94.6153 34.379 93.4381 33.3562 92.0811 33.4514 92.0296 33.455 91.9787 33.4602 91.9278 33.467Z" fill="#BD0000" fill-rule="evenodd" transform="matrix(1 0 0 1.00705 1062.02 29.2438)"/><path d="M91.9112 33.467 81.9491 34.4798 71.6328 33.4283C70.5115 33.3191 69.4583 33.9812 69.0703 35.0388 69.3919 35.9286 70.1938 36.5563 71.1347 36.6549L75.2911 37.0755 81.9325 37.7562 92.4259 36.6881C93.3673 36.5912 94.1703 35.9661 94.4958 35.0776 94.1072 34.0178 93.0507 33.3552 91.9278 33.467Z" fill="#E60000" fill-rule="evenodd" transform="matrix(1 0 0 1.00705 1062.02 29.2438)"/></g></svg>