<svg width="95" height="94" xmlns="http://www.w3.org/2000/svg" xmlns:xlink="http://www.w3.org/1999/xlink" xml:space="preserve" overflow="hidden"><defs><clipPath id="clip0"><rect x="733" y="241" width="95" height="94"/></clipPath></defs><g clip-path="url(#clip0)" transform="translate(-733 -241)"><path d="M72.7534 25.1096C72.7534 24.3002 73.0661 23.546 73.6364 22.9757 74.2066 22.4055 74.9609 22.0928 75.7703 22.0928 76.5061 22.0928 77.2235 22.3687 77.7753 22.847 79.2838 20.5292 80.1483 17.7699 80.1483 14.8266 80.1483 6.6591 73.4892 0.0183953 65.3217 0.0183953 57.1542 0.0183953 50.4951 6.6591 50.4951 14.8266 50.4951 18.4505 51.8196 21.9272 54.211 24.6497L53.1808 29.8188C53.144 29.9659 53.2176 30.1315 53.328 30.2235 53.4016 30.2787 53.4935 30.2971 53.5671 30.2971 53.6223 30.2971 53.6959 30.2787 53.7511 30.2603L58.4235 27.9609C60.5389 29.0646 62.9119 29.6532 65.3033 29.6532 68.3386 29.6532 71.1714 28.7335 73.526 27.1699 73.0478 26.5812 72.7534 25.8638 72.7534 25.1096Z" fill="#666666" transform="matrix(1.01064 0 0 1 733 241)"/><path d="M65.3401 24.9256C65.0826 24.9256 64.8251 24.8337 64.6411 24.6313L56.3264 16.3166C54.4133 14.4035 54.4133 11.2763 56.3264 9.36321 57.2462 8.44344 58.4971 7.92838 59.8031 7.92838 61.1092 7.92838 62.3601 8.44344 63.2798 9.36321L65.3585 11.4419 67.4188 9.3816C68.3386 8.46184 69.5894 7.94677 70.8955 7.94677 72.2016 7.94677 73.4524 8.46184 74.3722 9.3816 76.2853 11.2947 76.2853 14.4219 74.3722 16.335L66.0391 24.6497C65.8552 24.8337 65.5976 24.9256 65.3401 24.9256Z" fill="#E60000" transform="matrix(1.01064 0 0 1 733 241)"/><path d="M61.7346 16.0039C60.962 16.0039 60.355 15.3785 60.355 14.6243L60.355 13.7781C60.355 13.0239 60.9804 12.3984 61.7346 12.3984 62.4888 12.3984 63.1143 13.0239 63.1143 13.7781L63.1143 14.6243C63.1327 15.3969 62.5072 16.0039 61.7346 16.0039Z" fill="#990000" transform="matrix(1.01064 0 0 1 733 241)"/><path d="M68.9456 16.0039C68.1914 16.0039 67.5659 15.3785 67.5659 14.6243L67.5659 13.7781C67.5659 13.0239 68.1914 12.3984 68.9456 12.3984 69.6998 12.3984 70.3252 13.0239 70.3252 13.7781L70.3252 14.6243C70.3252 15.3969 69.6998 16.0039 68.9456 16.0039Z" fill="#990000" transform="matrix(1.01064 0 0 1 733 241)"/><path d="M65.3401 20.7315C63.6478 20.7315 62.2681 19.3519 62.2681 17.6595 62.2681 16.9053 62.8935 16.2798 63.6478 16.2798 64.4204 16.2798 65.0274 16.9053 65.0274 17.6595 65.0274 17.825 65.1746 17.9722 65.3401 17.9722 65.5057 17.9722 65.6528 17.825 65.6528 17.6595 65.6528 16.9053 66.2783 16.2798 67.0325 16.2798 67.7867 16.2798 68.4121 16.9053 68.4121 17.6595 68.4121 19.3519 67.0325 20.7315 65.3401 20.7315Z" fill="#990000" transform="matrix(1.01064 0 0 1 733 241)"/><path d="M10.8532 62.0658 4.34129 65.8184C3.88141 66.0759 3.73425 66.6646 3.99178 67.1245L9.73112 77.0395C9.98865 77.4994 10.5773 77.6466 11.0372 77.389L17.5491 73.6364 10.8532 62.0658Z" fill="#BD0000" transform="matrix(1.01064 0 0 1 733 241)"/><path d="M60.1158 50.6239 64.917 47.8462C65.8184 47.3311 66.1311 46.1538 65.6161 45.2524L59.4904 34.6567C58.9753 33.7554 57.798 33.4427 56.8783 33.9577L52.0771 36.7354 60.1158 50.6239Z" fill="#999999" transform="matrix(1.01064 0 0 1 733 241)"/><path d="M29.083 72.9926 20.8235 77.757C20.7131 77.8305 20.5843 77.8673 20.4372 77.8673 20.3268 77.8673 20.2164 77.8489 20.1245 77.7937L29.2117 93.5217C29.4693 93.9816 30.0579 94.1288 30.5178 93.8712L33.3691 92.2157C33.829 91.9581 34.0865 91.3327 33.9393 90.8176L29.083 72.9926Z" fill="#999999" transform="matrix(1.01064 0 0 1 733 241)"/><path d="M35.4294 65.2481 61.845 65.2481 40.2673 27.9241 27.0595 50.771 35.4294 65.2481Z" fill="#E60000" transform="matrix(1.01064 0 0 1 733 241)"/><path d="M36.9746 67.5476C37.2321 68.0074 37.0849 68.5777 36.625 68.8536L20.8971 77.9225C20.4372 78.18 19.8485 78.0329 19.591 77.573L8.46184 58.2947C8.2043 57.8348 8.35147 57.2646 8.81135 56.9886L24.5393 47.9198C24.9992 47.6622 25.5879 47.8094 25.8454 48.2693L36.9746 67.5476Z" fill="#4A4D4E" transform="matrix(1.01064 0 0 1 733 241)"/><path d="M28.6231 66.2415C28.8806 66.7014 28.7335 67.2716 28.2736 67.5476L23.9691 70.0309C23.5092 70.2885 22.9205 70.1413 22.663 69.6814L21.0626 66.9037C20.8051 66.4438 20.9523 65.8736 21.4121 65.5976L25.735 63.1143C26.1949 62.8568 26.7836 63.0039 27.0411 63.4638L28.6231 66.2415Z" fill="#BD0000" transform="matrix(1.01064 0 0 1 733 241)"/><path d="M24.2818 58.7362C24.5393 59.1961 24.3922 59.7847 23.9323 60.0423L19.6094 62.5256C19.1495 62.7832 18.5609 62.636 18.3033 62.1761L16.7029 59.3984C16.4454 58.9385 16.5926 58.3683 17.0524 58.0924L21.3569 55.609C21.8168 55.3515 22.4055 55.4986 22.663 55.9585L24.2818 58.7362Z" fill="#E60000" transform="matrix(1.01064 0 0 1 733 241)"/><path d="M69.0376 65.708C69.2951 66.1679 69.1479 66.7566 68.6881 67.0141L64.9722 69.1479C64.5123 69.4055 63.9237 69.2583 63.6661 68.7984L38.1151 24.5393C37.8575 24.0795 38.0047 23.5092 38.4646 23.2333L42.1804 21.0994C42.6403 20.8419 43.229 20.989 43.4865 21.4489L69.0376 65.708Z" fill="#FFFFFF" transform="matrix(1.01064 0 0 1 733 241)"/><path d="M69.0376 65.708C69.2951 66.1679 69.1479 66.7566 68.6881 67.0141L64.9722 69.1479C64.5123 69.4055 63.9237 69.2583 63.6661 68.7984L38.1151 24.5393C37.8575 24.0795 38.0047 23.5092 38.4646 23.2333L42.1804 21.0994C42.6403 20.8419 43.229 20.989 43.4865 21.4489L69.0376 65.708Z" fill="#666666" transform="matrix(1.01064 0 0 1 733 241)"/><path d="M79.4125 32.9828C79.247 32.9828 79.0814 32.9276 78.9526 32.7988L73.526 27.3722C72.2751 26.1213 72.2751 24.0795 73.526 22.8286 74.1331 22.2215 74.9425 21.8904 75.7887 21.8904 76.6532 21.8904 77.4442 22.2215 78.0513 22.8286L79.4125 24.1714 80.7738 22.8286C81.3808 22.2215 82.1902 21.8904 83.0364 21.8904 83.901 21.8904 84.692 22.2215 85.299 22.8286 86.5499 24.0795 86.5499 26.1213 85.299 27.3722L79.8724 32.7988C79.7436 32.9276 79.5781 32.9828 79.4125 32.9828Z" fill="#E60000" transform="matrix(1.01064 0 0 1 733 241)"/><path d="M90.2658 50.0536C90.2658 44.3879 85.6669 39.7706 79.9828 39.7706 74.2986 39.7706 69.6998 44.3695 69.6998 50.0536 69.6998 55.7378 74.2986 60.3366 79.9828 60.3366 85.6669 60.3182 90.2658 55.7194 90.2658 50.0536Z" fill="#990000" transform="matrix(1.01064 0 0 1 733 241)"/><path d="M75.8622 49.2074C75.0896 49.2074 74.4826 48.582 74.4826 47.8278L74.4826 46.8528C74.4826 46.0986 75.108 45.4732 75.8622 45.4732 76.6164 45.4732 77.2419 46.0986 77.2419 46.8528L77.2419 47.8278C77.2603 48.6004 76.6348 49.2074 75.8622 49.2074Z" fill="#E60000" transform="matrix(1.01064 0 0 1 733 241)"/><path d="M84.0849 49.2074C83.3123 49.2074 82.7053 48.582 82.7053 47.8278L82.7053 46.8528C82.7053 46.0986 83.3307 45.4732 84.0849 45.4732 84.8391 45.4732 85.4646 46.0986 85.4646 46.8528L85.4646 47.8278C85.4646 48.6004 84.8575 49.2074 84.0849 49.2074Z" fill="#E60000" transform="matrix(1.01064 0 0 1 733 241)"/><path d="M79.9828 56.7127C77.4626 56.7127 75.4207 54.6708 75.4207 52.1507 75.4207 51.3965 76.0462 50.771 76.8004 50.771 77.5546 50.771 78.18 51.3965 78.18 52.1507 78.18 53.144 78.9894 53.935 79.9828 53.935 80.9761 53.935 81.7671 53.1256 81.7671 52.1507 81.7671 51.3965 82.3926 50.771 83.1468 50.771 83.9194 50.771 84.5264 51.3965 84.5264 52.1507 84.5448 54.6708 82.5029 56.7127 79.9828 56.7127Z" fill="#E60000" transform="matrix(1.01064 0 0 1 733 241)"/><path d="M126.1-40.1937 165.263-40.1937 165.263-23.5276 126.1-23.5276Z" fill="#F4F4F4" transform="matrix(1.01064 0 0 1 733 241)"/><path d="M126.1-18.5609 165.263-18.5609 165.263-1.89472 126.1-1.89472Z" fill="#EBEBEB" transform="matrix(1.01064 0 0 1 733 241)"/><path d="M126.1 3.07202 165.263 3.07202 165.263 19.7382 126.1 19.7382Z" fill="#CCCCCC" transform="matrix(1.01064 0 0 1 733 241)"/><path d="M126.1 24.7233 165.263 24.7233 165.263 41.3894 126.1 41.3894Z" fill="#AFAFAF" transform="matrix(1.01064 0 0 1 733 241)"/><path d="M126.1 46.3194 165.263 46.3194 165.263 62.9855 126.1 62.9855Z" fill="#999999" transform="matrix(1.01064 0 0 1 733 241)"/><path d="M126.1 67.9706 165.263 67.9706 165.263 84.6368 126.1 84.6368Z" fill="#666666" transform="matrix(1.01064 0 0 1 733 241)"/><path d="M126.1 87.9112 165.263 87.9112 165.263 104.577 126.1 104.577Z" fill="#4A4D4E" transform="matrix(1.01064 0 0 1 733 241)"/><path d="M176.521-40.1385 215.685-40.1385 215.685-23.4724 176.521-23.4724Z" fill="#E60000" transform="matrix(1.01064 0 0 1 733 241)"/><path d="M176.521-18.4689 215.685-18.4689 215.685-1.80274 176.521-1.80274Z" fill="#BD0000" transform="matrix(1.01064 0 0 1 733 241)"/><path d="M176.521 3.1456 215.685 3.1456 215.685 19.8117 176.521 19.8117Z" fill="#990000" transform="matrix(1.01064 0 0 1 733 241)"/><path d="M176.521 24.8153 215.685 24.8153 215.685 41.4814 176.521 41.4814Z" fill="#D47600" transform="matrix(1.01064 0 0 1 733 241)"/><path d="M176.521 46.4114 215.685 46.4114 215.685 63.0775 176.521 63.0775Z" fill="#FFA10B" transform="matrix(1.01064 0 0 1 733 241)"/><path d="M126.1 107.87 165.263 107.87 165.263 124.536 126.1 124.536Z" fill="#333333" transform="matrix(1.01064 0 0 1 733 241)"/><path d="M175.583 68.7616 214.747 68.7616 214.747 85.4278 175.583 85.4278Z" fill="#39B54A" transform="matrix(1.01064 0 0 1 733 241)"/><path d="M175.583 90.3761 214.747 90.3761 214.747 107.042 175.583 107.042Z" fill="#108846" transform="matrix(1.01064 0 0 1 733 241)"/></g></svg>