<svg width="95" height="95" xmlns="http://www.w3.org/2000/svg" xmlns:xlink="http://www.w3.org/1999/xlink" xml:space="preserve" overflow="hidden"><defs><clipPath id="clip0"><rect x="1052" y="262" width="95" height="95"/></clipPath></defs><g clip-path="url(#clip0)" transform="translate(-1052 -262)"><path d="M1087.98 329.168 1088.14 355.237C1088.14 355.757 1088.57 356.184 1089.09 356.184L1110.04 356.072C1110.56 356.072 1110.99 355.646 1110.99 355.126L1111.82 353.233 1111.82 351.359 1111.82 345.682 1111.82 329.799 1099.98 327.554 1087.98 329.168Z" fill="#E60000"/><path d="M1111.82 353.233 1111.82 356.054C1111.82 356.573 1111.39 357 1110.87 357L1088.09 357C1087.57 357 1087.14 356.573 1087.14 356.054L1087.14 329.799 1089.02 328.389 1090.89 329.799 1090.89 352.306C1090.89 352.825 1091.32 353.252 1091.84 353.252L1111.82 353.252Z" fill="#BD0000"/><path d="M1102.32 347.797 1102.32 336.33 1096.68 336.33 1096.68 347.815 1102.32 347.797Z" fill="#666666"/><path d="M1126.81 347.797 1129.17 342.861 1129.17 336.312 1123.53 336.312 1124.77 342.063 1123.53 347.815 1126.81 347.797Z" fill="#666666"/><path d="M1074.43 347.797 1075.47 342.861 1075.47 336.312 1069.83 336.312 1070.85 342.212 1069.83 347.815 1074.43 347.797Z" fill="#666666"/><path d="M1099.5 336.33 1096.68 336.33 1096.68 347.815 1096.68 347.815 1102.32 347.797 1102.32 342.861 1100.24 342.861C1099.83 342.861 1099.48 342.527 1099.48 342.101L1099.48 336.33Z" fill="#4A4D4E"/><path d="M1072.65 336.33 1069.83 336.33 1069.83 342.861 1069.83 347.815 1072.65 347.797 1075.47 347.778 1075.47 342.843 1073.39 342.843C1072.99 342.843 1072.63 342.509 1072.63 342.082L1072.63 336.33Z" fill="#4A4D4E"/><path d="M1129.17 342.88 1127.09 342.88C1126.68 342.88 1126.33 342.546 1126.33 342.119L1126.33 336.33 1123.51 336.33 1123.51 342.861 1123.51 342.861 1123.51 347.815 1123.51 347.815 1126.33 347.797 1129.15 347.778 1129.15 342.88Z" fill="#4A4D4E"/><path d="M1111.82 325.179 1111.82 317.367 1088.14 317.367 1088.14 325.179 1111.82 325.179Z" fill="#CCCCCC"/><path d="M1087.16 317.349 1090.93 317.349 1090.93 325.16 1087.16 325.16 1087.16 317.349Z" fill="#CCCCCC"/><path d="M1111.82 312.747C1112.97 312.747 1113.9 313.675 1113.9 314.825L1113.9 316.328C1113.9 317.479 1112.4 318.035 1111.25 318.035L1087.68 317.831C1086.53 317.831 1085.57 317.534 1085.57 316.384L1085.9 315.4C1085.9 314.25 1086.01 312.766 1087.14 312.766L1111.82 312.747 1111.82 312.747Z" fill="#E60000"/><path d="M1113.9 315.753 1113.9 316.31C1113.9 317.46 1112.97 318.388 1111.82 318.388L1087.16 318.388C1086.01 318.388 1085.08 317.46 1085.08 316.31L1085.08 314.807C1085.08 313.656 1086.01 312.729 1087.16 312.729L1087.72 312.729 1087.72 313.675C1087.72 314.825 1088.65 315.753 1089.8 315.753L1113.9 315.753Z" fill="#BD0000"/><path d="M1077.77 324.14 1094.38 324.14 1094.38 329.78 1077.77 329.78 1077.77 324.14Z" fill="#666666"/><path d="M1077.77 326.774 1094.38 326.774 1094.38 329.78 1077.77 329.78 1077.77 326.774Z" fill="#4A4D4E"/><path d="M1105.21 324.14 1120.62 324.14 1120.62 329.78 1105.21 329.78 1105.21 324.14Z" fill="#666666"/><path d="M1105.21 326.96 1120.62 326.96 1120.62 329.78 1105.21 329.78 1105.21 326.96Z" fill="#4A4D4E"/><path d="M1111.82 291.335C1111.21 291.335 1110.65 290.927 1110.47 290.314 1109.06 285.527 1104.55 282.169 1099.48 282.169 1094.45 282.169 1089.94 285.49 1088.52 290.24 1088.29 290.982 1087.5 291.409 1086.75 291.187 1086.01 290.964 1085.58 290.166 1085.81 289.424 1086.66 286.566 1088.46 284.006 1090.87 282.188 1093.36 280.313 1096.33 279.33 1099.46 279.33 1105.77 279.33 1111.39 283.523 1113.16 289.498 1113.38 290.24 1112.95 291.038 1112.19 291.242 1112.08 291.316 1111.95 291.335 1111.82 291.335Z" fill="#BD0000"/><path d="M1078.98 287.828C1078.83 287.828 1078.66 287.81 1078.51 287.754 1077.77 287.494 1077.38 286.696 1077.64 285.954 1080.87 276.751 1089.65 270.572 1099.48 270.572 1109.33 270.572 1118.11 276.751 1121.32 285.936 1121.58 286.678 1121.19 287.476 1120.45 287.735 1119.71 287.995 1118.91 287.605 1118.65 286.863 1115.83 278.792 1108.11 273.374 1099.46 273.374 1090.82 273.374 1083.1 278.792 1080.28 286.863 1080.11 287.476 1079.55 287.828 1078.98 287.828Z" fill="#E60000"/><path d="M1070.96 284.507C1070.8 284.507 1070.63 284.47 1070.48 284.414 1069.76 284.136 1069.39 283.338 1069.65 282.596 1071.87 276.621 1075.82 271.481 1081.11 267.789 1086.49 264.004 1092.86 262 1099.48 262 1106.12 262 1112.47 264.004 1117.87 267.789 1123.14 271.5 1127.11 276.621 1129.34 282.596 1129.61 283.319 1129.24 284.136 1128.5 284.414 1127.78 284.692 1126.96 284.321 1126.68 283.579 1122.53 272.354 1111.6 264.82 1099.48 264.82 1087.38 264.82 1076.44 272.354 1072.28 283.579 1072.08 284.154 1071.52 284.507 1070.96 284.507L1070.96 284.507Z" fill="#E60000"/><path d="M1096.68 297.959 1098.31 295.139C1098.31 293.58 1097.96 291.094 1099.52 291.094 1101.08 291.094 1102.34 292.355 1102.34 293.914L1102.34 295.324 1101.34 297.959 1096.68 297.959Z" fill="#E60000"/><path d="M1102.32 295.324 1102.32 297.959 1099.07 299.017 1096.68 297.959 1096.68 293.914C1096.68 292.411 1097.85 291.187 1099.31 291.094 1099.31 291.149 1099.31 291.205 1099.31 291.279L1099.31 294.563C1099.31 294.972 1099.65 295.324 1100.08 295.324L1102.32 295.324Z" fill="#BD0000"/><path d="M1103.47 337.276 1095.64 337.74C1094.6 337.74 1093.77 336.905 1093.77 335.866L1093.77 300.798C1093.77 299.759 1094.6 298.924 1095.64 298.924L1102.88 299.48C1103.92 299.48 1104.75 300.315 1104.75 301.354L1106.16 303.618 1106.16 332.805 1105.33 335.402C1105.34 336.441 1104.51 337.276 1103.47 337.276Z" fill="#EBEBEB"/><path d="M1105.27 335.272 1105.27 336.219C1105.27 337.258 1104.44 338.093 1103.4 338.093L1095.47 337.499C1094.43 337.499 1093.6 336.664 1093.6 335.625L1092.84 332.805 1092.84 299.852C1092.84 298.812 1093.67 297.978 1094.71 297.978L1095.66 297.978 1095.66 335.644 1105.27 335.272Z" fill="#CCCCCC"/><path d="M1106.18 332.805 1106.18 335.625 1105.51 336.33C1105.51 337.369 1104.92 337.74 1103.88 337.74L1095.81 337.518C1094.77 337.518 1093.93 336.683 1093.93 335.644L1092.82 332.823 1106.18 332.823Z" fill="#E9EDF1"/><path d="M1106.18 299.852 1106.18 303.618 1092.82 303.618 1093.28 301.466C1093.28 300.427 1094.12 299.592 1095.16 299.592L1095.62 297.978 1104.29 297.978C1105.34 297.959 1106.18 298.812 1106.18 299.852Z" fill="#CCCCCC"/><path d="M1106.18 335.625 1106.18 336.571C1106.18 337.61 1105.34 338.445 1104.31 338.445L1094.69 338.445C1093.66 338.445 1092.82 337.61 1092.82 336.571L1092.82 332.805 1094.23 332.805 1095.64 332.805 1095.64 334.679C1095.64 335.198 1096.07 335.625 1096.59 335.625L1106.18 335.625Z" fill="#AFAFAF"/><path d="M1095.64 297.959 1095.64 303.6 1092.82 303.6 1092.82 299.852C1092.82 298.812 1093.66 297.978 1094.69 297.978L1095.64 297.978Z" fill="#AFAFAF"/><path d="M1123.53 297.959 1125.16 295.139C1125.16 293.58 1124.81 291.094 1126.37 291.094 1127.93 291.094 1129.19 292.355 1129.19 293.914L1129.19 295.324 1128.19 297.959 1123.53 297.959Z" fill="#E60000"/><path d="M1129.17 295.324 1129.17 297.959 1125.92 299.017 1123.53 297.959 1123.53 293.914C1123.53 292.411 1124.7 291.187 1126.16 291.094 1126.16 291.149 1126.16 291.205 1126.16 291.279L1126.16 294.563C1126.16 294.972 1126.5 295.324 1126.92 295.324L1129.17 295.324Z" fill="#BD0000"/><path d="M1130.32 337.276 1122.49 337.74C1121.45 337.74 1120.62 336.905 1120.62 335.866L1120.62 300.798C1120.62 299.759 1121.45 298.924 1122.49 298.924L1129.73 299.48C1130.76 299.48 1131.6 300.315 1131.6 301.354L1133.01 303.618 1133.01 332.805 1132.17 335.402C1132.19 336.441 1131.36 337.276 1130.32 337.276Z" fill="#EBEBEB"/><path d="M1132.12 335.272 1132.12 336.219C1132.12 337.258 1131.28 338.093 1130.25 338.093L1122.32 337.518C1121.28 337.518 1120.45 336.683 1120.45 335.644L1119.69 332.823 1119.69 299.852C1119.69 298.812 1120.52 297.978 1121.56 297.978L1122.51 297.978 1122.51 335.644 1132.12 335.272Z" fill="#CCCCCC"/><path d="M1133.03 332.805 1133.03 335.625 1132.36 336.33C1132.36 337.369 1131.77 337.74 1130.73 337.74L1122.66 337.518C1121.62 337.518 1120.78 336.683 1120.78 335.644L1119.67 332.823 1133.03 332.823Z" fill="#E9EDF1"/><path d="M1133.03 299.852 1133.03 303.618 1119.65 303.618 1120.11 301.466C1120.11 300.427 1120.95 299.592 1121.99 299.592L1122.45 297.978 1131.12 297.978C1132.19 297.959 1133.03 298.812 1133.03 299.852Z" fill="#CCCCCC"/><path d="M1133.03 335.625 1133.03 336.571C1133.03 337.61 1132.19 338.445 1131.15 338.445L1121.54 338.445C1120.5 338.445 1119.67 337.61 1119.67 336.571L1119.67 332.805 1121.08 332.805 1122.49 332.805 1122.49 334.679C1122.49 335.198 1122.92 335.625 1123.44 335.625L1133.03 335.625Z" fill="#AFAFAF"/><path d="M1122.49 297.959 1122.49 303.6 1119.67 303.6 1119.67 299.852C1119.67 298.812 1120.5 297.978 1121.54 297.978L1122.49 297.978Z" fill="#AFAFAF"/><path d="M1069.83 297.959 1071.46 295.139C1071.46 293.58 1071.11 291.094 1072.67 291.094 1074.23 291.094 1075.49 292.355 1075.49 293.914L1075.49 295.324 1074.49 297.959 1069.83 297.959Z" fill="#E60000"/><path d="M1075.47 295.324 1075.47 297.959 1072.22 299.017 1069.83 297.959 1069.83 293.914C1069.83 292.411 1071 291.187 1072.47 291.094 1072.47 291.149 1072.47 291.205 1072.47 291.279L1072.47 294.563C1072.47 294.972 1072.8 295.324 1073.23 295.324L1075.47 295.324Z" fill="#BD0000"/><path d="M1076.62 337.276 1068.79 337.74C1067.75 337.74 1066.92 336.905 1066.92 335.866L1066.92 300.798C1066.92 299.759 1067.75 298.924 1068.79 298.924L1076.03 299.48C1077.07 299.48 1077.9 300.315 1077.9 301.354L1079.31 303.618 1079.31 332.805 1078.48 335.402C1078.5 336.441 1077.66 337.276 1076.62 337.276L1076.62 337.276Z" fill="#EBEBEB"/><path d="M1078.44 335.272 1078.44 336.219C1078.44 337.258 1077.61 338.093 1076.57 338.093L1068.62 337.518C1067.59 337.518 1066.75 336.683 1066.75 335.644L1065.99 332.823 1065.99 299.852C1065.99 298.812 1066.83 297.978 1067.86 297.978L1068.81 297.978 1068.81 335.644 1078.44 335.272Z" fill="#CCCCCC"/><path d="M1079.33 332.805 1079.33 335.625 1078.66 336.33C1078.66 337.369 1078.07 337.74 1077.03 337.74L1068.96 337.518C1067.92 337.518 1067.08 336.683 1067.08 335.644L1065.97 332.823 1079.33 332.823Z" fill="#E9EDF1"/><path d="M1079.33 299.852 1079.33 303.618 1065.97 303.618 1066.44 301.466C1066.44 300.427 1067.27 299.592 1068.31 299.592L1068.77 297.978 1077.44 297.978C1078.5 297.959 1079.33 298.812 1079.33 299.852Z" fill="#CCCCCC"/><path d="M1079.33 335.625 1079.33 336.571C1079.33 337.61 1078.5 338.445 1077.46 338.445L1067.85 338.445C1066.81 338.445 1065.97 337.61 1065.97 336.571L1065.97 332.805 1067.38 332.805 1068.79 332.805 1068.79 334.679C1068.79 335.198 1069.22 335.625 1069.74 335.625L1079.33 335.625Z" fill="#AFAFAF"/><path d="M1068.79 297.959 1068.79 303.6 1065.97 303.6 1065.97 299.852C1065.97 298.812 1066.81 297.978 1067.85 297.978L1068.79 297.978Z" fill="#AFAFAF"/><path d="M1130.19 345.7 1068.79 345.7C1067.23 345.7 1067.08 347.11 1067.08 348.669 1067.08 350.228 1067.42 350.395 1068.98 350.395L1127.5 350.228C1129.06 350.228 1132.99 350.079 1132.99 348.521 1133.01 346.962 1131.75 345.7 1130.19 345.7Z" fill="#666666"/><path d="M1133.01 348.521C1133.01 350.079 1131.75 351.341 1130.19 351.341L1068.79 351.341C1068.01 351.341 1067.31 351.025 1066.79 350.506 1066.27 349.986 1065.95 349.281 1065.95 348.502 1065.95 346.943 1067.21 345.682 1068.77 345.682L1068.98 345.682C1069.01 346.387 1069.33 347.018 1069.79 347.481 1070.31 348.001 1071.02 348.316 1071.8 348.316L1132.99 348.316C1133.01 348.409 1133.01 348.465 1133.01 348.521Z" fill="#4A4D4E"/><path d="M951.526 227.822 991.029 227.822 991.029 244.633 951.526 244.633Z" fill="#F4F4F4"/><path d="M951.526 249.643 991.029 249.643 991.029 266.453 951.526 266.453Z" fill="#EBEBEB"/><path d="M951.526 271.463 991.029 271.463 991.029 288.273 951.526 288.273Z" fill="#CCCCCC"/><path d="M951.526 293.302 991.029 293.302 991.029 310.112 951.526 310.112Z" fill="#AFAFAF"/><path d="M951.526 315.104 991.029 315.104 991.029 331.914 951.526 331.914Z" fill="#999999"/><path d="M951.526 336.905 991.029 336.905 991.029 353.716 951.526 353.716Z" fill="#666666"/><path d="M951.526 357.037 991.029 357.037 991.029 373.848 951.526 373.848Z" fill="#4A4D4E"/><path d="M1002.38 227.896 1041.89 227.896 1041.89 244.707 1002.38 244.707Z" fill="#E60000"/><path d="M1002.38 249.735 1041.89 249.735 1041.89 266.546 1002.38 266.546Z" fill="#BD0000"/><path d="M1002.38 271.537 1041.89 271.537 1041.89 288.348 1002.38 288.348Z" fill="#990000"/><path d="M1002.38 293.395 1041.89 293.395 1041.89 310.205 1002.38 310.205Z" fill="#D47600"/><path d="M1002.38 315.196 1041.89 315.196 1041.89 332.007 1002.38 332.007Z" fill="#FFA10B"/><path d="M951.526 377.169 991.029 377.169 991.029 393.979 951.526 393.979Z" fill="#333333"/></g></svg>