<svg width="93" height="94" xmlns="http://www.w3.org/2000/svg" xmlns:xlink="http://www.w3.org/1999/xlink" xml:space="preserve" overflow="hidden"><defs><clipPath id="clip0"><rect x="717" y="59" width="93" height="94"/></clipPath></defs><g clip-path="url(#clip0)" transform="translate(-717 -59)"><path d="M163.279 45.7586 163.279 42.1673C163.287 41.4664 162.777 40.8668 162.084 40.7617L160.173 40.4595C159.775 40.4005 159.439 40.1321 159.294 39.7567 159.196 39.4967 159.09 39.2437 158.971 38.9907 158.807 38.6215 158.853 38.1928 159.09 37.8662L160.236 36.3131C160.645 35.7513 160.582 34.9746 160.088 34.4858L157.558 31.9558C157.068 31.4676 156.297 31.408 155.738 31.8152L154.164 32.9608C153.835 33.1961 153.407 33.239 153.039 33.0732 152.786 32.9608 152.533 32.8483 152.266 32.7499 151.893 32.6062 151.624 32.2738 151.563 31.8785L151.261 29.9599C151.153 29.2697 150.554 28.7637 149.856 28.7722L146.278 28.7722C145.58 28.7637 144.981 29.2697 144.873 29.9599L144.571 31.8785C144.509 32.2739 144.241 32.6062 143.868 32.7499 143.608 32.8483 143.348 32.9608 143.095 33.0732 142.729 33.2392 142.303 33.1963 141.977 32.9608L140.403 31.8152C139.843 31.404 139.066 31.4637 138.576 31.9558L136.046 34.4858C135.554 34.9764 135.494 35.753 135.905 36.3131L137.044 37.8873C137.284 38.2129 137.33 38.643 137.163 39.0118 137.051 39.2648 136.938 39.5178 136.84 39.7778 136.696 40.1512 136.364 40.4193 135.968 40.4806L134.05 40.7828C133.36 40.891 132.854 41.4898 132.862 42.1884L132.862 45.7656C132.854 46.4642 133.36 47.0629 134.05 47.1712L135.968 47.4734C136.364 47.5347 136.696 47.8028 136.84 48.1762 136.938 48.4362 137.051 48.6892 137.163 48.9422 137.33 49.311 137.284 49.7411 137.044 50.0667L135.905 51.6409C135.494 52.201 135.554 52.9775 136.046 53.4681L138.576 55.9912C139.064 56.4854 139.842 56.5482 140.403 56.1387L141.977 54.9932C142.301 54.7548 142.729 54.7117 143.095 54.8807 143.348 54.9932 143.608 55.0986 143.868 55.197 144.243 55.3419 144.512 55.6775 144.571 56.0755L144.873 57.9941C144.981 58.6843 145.58 59.1903 146.278 59.1818L149.856 59.1818C150.554 59.1903 151.153 58.6843 151.261 57.9941L151.563 56.0755C151.622 55.6775 151.891 55.3419 152.266 55.197 152.533 55.0986 152.786 54.9932 153.039 54.8807 153.407 54.7119 153.837 54.755 154.164 54.9932L155.731 56.1387C156.292 56.5482 157.069 56.4854 157.558 55.9912L160.088 53.4681C160.582 52.9794 160.645 52.2027 160.236 51.6409L159.09 50.0667C158.853 49.74 158.807 49.3114 158.971 48.9422 159.09 48.6892 159.196 48.4362 159.294 48.1762 159.439 47.8008 159.775 47.5324 160.173 47.4734L162.084 47.1712C162.78 47.0657 163.29 46.4621 163.279 45.7586ZM148.078 49.0336C145.279 49.0336 143.01 46.7649 143.01 43.9664 143.01 41.1679 145.279 38.8993 148.078 38.8993 150.876 38.8993 153.145 41.1679 153.145 43.9664 153.145 46.7649 150.876 49.0336 148.078 49.0336Z" fill="#BD0000" transform="matrix(1 0 0 1.00315 646.721 30.1486)"/><path d="M162.084 40.7617 160.173 40.4595C159.775 40.4005 159.439 40.1321 159.294 39.7567 159.196 39.4967 159.09 39.2437 158.971 38.9907 158.807 38.6215 158.853 38.1928 159.09 37.8662L160.236 36.3131C160.645 35.7513 160.582 34.9746 160.088 34.4858L157.558 31.9558C157.22 31.6174 156.732 31.4745 156.265 31.5763 160.234 38.974 157.456 48.189 150.057 52.1585 145.57 54.5663 140.175 54.5672 135.687 52.161 135.585 52.6285 135.729 53.1158 136.067 53.4541L138.597 55.9841C139.087 56.4762 139.864 56.536 140.424 56.1247L141.998 54.9791C142.324 54.7436 142.75 54.7007 143.116 54.8667 143.369 54.9791 143.629 55.0846 143.889 55.1829 144.263 55.3291 144.531 55.664 144.592 56.0614L144.894 57.98C145.002 58.6703 145.601 59.1762 146.299 59.1678L149.877 59.1678C150.575 59.1762 151.174 58.6703 151.282 57.98L151.584 56.0614C151.646 55.6646 151.913 55.3303 152.287 55.1829 152.554 55.0846 152.807 54.9791 153.06 54.8667 153.429 54.7009 153.857 54.7438 154.185 54.9791L155.752 56.1247C156.312 56.536 157.089 56.4762 157.579 55.9841L160.109 53.4541C160.603 52.9653 160.667 52.1886 160.257 51.6268L159.111 50.0526C158.874 49.7259 158.828 49.2974 158.992 48.9281 159.111 48.6751 159.217 48.4221 159.315 48.1621 159.46 47.7867 159.796 47.5183 160.194 47.4593L162.105 47.1571C162.798 47.052 163.308 46.4524 163.3 45.7515L163.3 42.1673C163.306 41.4595 162.785 40.8572 162.084 40.7617Z" fill="#990000" transform="matrix(1 0 0 1.00315 646.721 30.1486)"/><path d="M22.3979 6.51485C22.3979 10.1129 19.4811 13.0297 15.883 13.0297 12.285 13.0297 9.36817 10.1129 9.36817 6.51485 9.36817 2.9168 12.285 3.21711e-07 15.883 3.21711e-07 19.4811 3.21711e-07 22.3979 2.9168 22.3979 6.51485Z" fill="#FED2A4" transform="matrix(1 0 0 1.00315 717 59.0115)"/><path d="M86.1619 41.8019C80.262 41.798 75.4767 46.5775 75.4725 52.4772 75.4725 52.4795 75.4725 52.4819 75.4725 52.4842L75.4725 56.0474C75.4725 57.7707 76.8696 59.1678 78.5928 59.1678L93.7379 59.1678C95.4576 59.1678 96.8513 57.7738 96.8513 56.0544 96.8513 56.0521 96.8513 56.0497 96.8513 56.0474L96.8513 52.4842C96.8513 46.5845 92.0688 41.8019 86.1689 41.8019 86.1668 41.8019 86.164 41.8019 86.1619 41.8019Z" fill="#E60000" transform="matrix(1 0 0 1.00315 646.721 30.1486)"/><path d="M86.1619 41.8019C85.341 41.8019 84.523 41.8962 83.7232 42.083 88.5542 43.215 91.9711 47.5224 91.9739 52.4842L91.9739 56.0474C91.9739 57.7707 90.5768 59.1678 88.8535 59.1678L93.7379 59.1678C95.4576 59.1678 96.8513 57.7738 96.8513 56.0544 96.8513 56.0521 96.8513 56.0497 96.8513 56.0474L96.8513 52.4842C96.8513 46.5845 92.0688 41.8019 86.1689 41.8019 86.1668 41.8019 86.164 41.8019 86.1619 41.8019Z" fill="#BD0000" transform="matrix(1 0 0 1.00315 646.721 30.1486)"/><path d="M98.1725 121.083 74.1582 121.083 74.1582 93.6747C74.1582 92.0175 75.502 90.6738 77.1591 90.6738L95.1716 90.6738C96.8288 90.6738 98.1725 92.0175 98.1725 93.6747L98.1725 121.083Z" fill="#BD0000" transform="matrix(1 0 0 1.00315 646.721 30.1486)"/><path d="M98.1725 93.6887C98.1725 92.0316 96.8288 90.6878 95.1716 90.6878L90.2872 90.6878C91.9458 90.6878 93.291 92.0302 93.2952 93.6887L93.2952 121.097 98.1725 121.097Z" fill="#990000" transform="matrix(1 0 0 1.00315 646.721 30.1486)"/><path d="M142.076 98.9456 142.076 118.835C142.076 120.076 143.083 121.083 144.325 121.083L158.212 121.083C159.454 121.083 160.461 120.076 160.461 118.835L160.461 98.9456C160.461 97.7024 159.455 96.6939 158.212 96.6896L144.325 96.6896C143.081 96.6939 142.076 97.7024 142.076 98.9456Z" fill="#BD0000" transform="matrix(1 0 0 1.00315 646.721 30.1486)"/><path d="M136.074 92.9368 136.074 112.826C136.074 114.069 137.08 115.077 138.323 115.082L152.21 115.082C153.453 115.077 154.459 114.069 154.459 112.826L154.459 95.3754C154.458 94.7773 154.221 94.2039 153.798 93.7801L151.367 91.3625C150.943 90.9401 150.369 90.7026 149.771 90.7019L138.323 90.7019C137.081 90.7019 136.074 91.709 136.074 92.9508Z" fill="#E60000" transform="matrix(1 0 0 1.00315 646.721 30.1486)"/><path d="M85.691 113.704C84.9144 113.704 84.2854 114.333 84.2854 115.11L84.2854 121.112 87.0333 121.112 87.0333 115.11C87.034 114.358 86.4423 113.738 85.691 113.704Z" fill="#666666" transform="matrix(1 0 0 1.00315 646.721 30.1486)"/><path d="M92.1637 98.0671 80.16 98.0671C79.401 97.9034 78.9189 97.1556 79.0827 96.3966 79.1993 95.8568 79.6203 95.4359 80.16 95.3192L92.1637 95.3192C92.9227 95.1555 93.6705 95.6376 93.8342 96.3966 93.998 97.1556 93.5151 97.9034 92.7568 98.0671 92.5615 98.1093 92.3591 98.1093 92.1637 98.0671Z" fill="#666666" transform="matrix(1 0 0 1.00315 646.721 30.1486)"/><path d="M92.1637 104.195 80.16 104.195C79.401 104.032 78.9189 103.284 79.0827 102.525 79.1993 101.985 79.6203 101.564 80.16 101.448L92.1637 101.448C92.9227 101.284 93.6705 101.766 93.8342 102.525 93.998 103.284 93.5151 104.032 92.7568 104.195 92.5615 104.238 92.3591 104.238 92.1637 104.195Z" fill="#666666" transform="matrix(1 0 0 1.00315 646.721 30.1486)"/><path d="M92.1637 110.338 80.16 110.338C79.401 110.174 78.9189 109.426 79.0827 108.667 79.1993 108.128 79.6203 107.707 80.16 107.59L92.1637 107.59C92.9227 107.426 93.6705 107.908 93.8342 108.667 93.998 109.426 93.5151 110.174 92.7568 110.338 92.5615 110.38 92.3591 110.38 92.1637 110.338Z" fill="#666666" transform="matrix(1 0 0 1.00315 646.721 30.1486)"/><path d="M122.032 38.4988C121.617 37.8431 120.748 37.6485 120.092 38.0641 119.437 38.4798 119.242 39.3482 119.658 40.0038 119.769 40.179 119.917 40.3274 120.092 40.4384L122.285 42.596 108.679 42.596C107.92 42.7598 107.438 43.5077 107.602 44.2665 107.718 44.806 108.139 45.2275 108.679 45.3439L122.285 45.3439 120.128 47.5015C119.712 48.1571 119.906 49.0255 120.562 49.4412 121.022 49.7324 121.608 49.7324 122.067 49.4412L126.572 44.9433C127.094 44.3994 127.094 43.5405 126.572 42.9966Z" fill="#333333" transform="matrix(1 0 0 1.00315 646.721 30.1486)"/><path d="M153.552 77.8971C153.009 77.3791 152.156 77.3791 151.613 77.8971L149.455 80.0546 149.455 66.4838C149.291 65.725 148.543 65.2426 147.784 65.4063 147.245 65.5227 146.824 65.9443 146.707 66.4838L146.707 80.0546 144.55 77.8971C143.898 77.4747 143.028 77.6609 142.606 78.3124 142.305 78.7756 142.304 79.3722 142.603 79.8368L147.108 84.3416C147.651 84.8596 148.504 84.8596 149.047 84.3416L153.552 79.8368C154.07 79.2935 154.07 78.4403 153.552 77.8971Z" fill="#333333" transform="matrix(1 0 0 1.00315 646.721 30.1486)"/><path d="M125.567 104.512 111.989 104.512 114.154 102.354C114.805 101.932 114.991 101.062 114.569 100.41 114.147 99.7587 113.276 99.5732 112.625 99.9949 112.457 100.104 112.315 100.246 112.207 100.414L107.709 104.912C107.187 105.456 107.187 106.315 107.709 106.859L112.207 111.357C112.469 111.612 112.819 111.756 113.184 111.757 113.959 111.715 114.552 111.051 114.51 110.276 114.492 109.958 114.366 109.655 114.154 109.417L111.989 107.26 125.567 107.26C126.326 107.096 126.808 106.348 126.645 105.589 126.528 105.049 126.107 104.628 125.567 104.512Z" fill="#333333" transform="matrix(1 0 0 1.00315 646.721 30.1486)"/><path d="M70.2788 121.083C70.2788 121.86 70.9078 122.489 71.6844 122.489L100.71 122.489C101.466 122.317 101.94 121.563 101.768 120.807 101.648 120.279 101.236 119.868 100.71 119.748L71.6844 119.748C70.9345 119.747 70.3161 120.335 70.2788 121.083Z" fill="#666666" transform="matrix(1 0 0 1.00315 646.721 30.1486)"/><path d="M148.457 98.0671 142.076 98.0671C141.317 97.9034 140.835 97.1556 140.998 96.3966 141.115 95.8568 141.536 95.4359 142.076 95.3192L148.457 95.3192C149.216 95.483 149.698 96.2307 149.534 96.9897 149.418 97.5295 148.997 97.9504 148.457 98.0671Z" fill="#EBEBEB" transform="matrix(1 0 0 1.00315 646.721 30.1486)"/><path d="M148.457 104.195 142.076 104.195C141.317 104.032 140.835 103.284 140.998 102.525 141.115 101.985 141.536 101.564 142.076 101.448L148.457 101.448C149.216 101.611 149.698 102.359 149.534 103.118 149.418 103.658 148.997 104.079 148.457 104.195Z" fill="#EBEBEB" transform="matrix(1 0 0 1.00315 646.721 30.1486)"/><path d="M145.266 110.338 142.076 110.338C141.317 110.174 140.835 109.426 140.998 108.667 141.115 108.128 141.536 107.707 142.076 107.59L145.266 107.59C146.025 107.754 146.508 108.501 146.344 109.26 146.227 109.8 145.806 110.221 145.266 110.338Z" fill="#EBEBEB" transform="matrix(1 0 0 1.00315 646.721 30.1486)"/><path d="M104.505 78.2555C104.329 77.1043 104.301 75.9349 104.42 74.7767L95.5089 74.6432 95.4738 78.1571Z" fill="#990000" fill-rule="evenodd" transform="matrix(1 0 0 1.00315 646.721 30.1486)"/><path d="M104.498 78.3187C104.309 77.9652 104.261 77.5534 104.364 77.1662L95.4527 76.9694 95.4527 78.122Z" fill="#820000" fill-rule="evenodd" transform="matrix(1 0 0 1.00315 646.721 30.1486)"/><path d="M84.0886 74.3269 84.0535 78.2485C84.0458 78.9407 84.5982 79.5093 85.2904 79.5205L95.8322 79.6259C96.5245 79.6301 97.0895 79.0742 97.0973 78.382L97.1394 74.4604C97.1436 73.7682 96.5877 73.2032 95.8955 73.1954L85.3537 73.083C84.6586 73.0752 84.0893 73.6319 84.0816 74.3269 84.0816 74.3269 84.0816 74.3269 84.0816 74.3269Z" fill="#999999" fill-rule="evenodd" transform="matrix(1 0 0 1.00315 646.721 30.1486)"/><path d="M96.6545 78.8529 86.1127 78.7475C85.4176 78.7397 84.861 78.1705 84.8687 77.4754 84.8687 77.4754 84.8687 77.4754 84.8687 77.4754L84.9109 73.5538C84.9109 73.4119 84.9369 73.2713 84.9882 73.1392 84.4639 73.2987 84.1027 73.7787 84.0957 74.3269L84.0605 78.2485C84.0528 78.9407 84.6052 79.5093 85.2974 79.5205L95.8393 79.6259C96.3706 79.628 96.8457 79.2963 97.027 78.7966 96.9047 78.8367 96.7761 78.8557 96.6475 78.8529Z" fill="#666666" fill-rule="evenodd" transform="matrix(1 0 0 1.00315 646.721 30.1486)"/><path d="M60.2922 47.3961C60.2922 55.0113 54.1188 61.1848 46.5035 61.1848 38.8882 61.1848 32.7148 55.0114 32.7148 47.3961 32.7148 39.7808 38.8882 33.6073 46.5035 33.6073 54.1188 33.6073 60.2922 39.7808 60.2922 47.3961Z" fill="#E60000" transform="matrix(1 0 0 1.00315 717 59.0115)"/><path d="M126.277 86.1619C120.944 91.5979 112.214 91.6816 106.777 86.3488 101.341 81.0154 101.258 72.2853 106.591 66.8492 106.82 66.616 107.057 66.391 107.302 66.1746 107.463 66.02 107.632 65.8653 107.801 65.7248 102.542 71.2332 102.746 79.9619 108.254 85.2194 113.387 90.1193 121.4 90.3231 126.776 85.691 126.621 85.8526 126.46 86.0072 126.298 86.1619Z" fill="#BD0000" fill-rule="evenodd" transform="matrix(1 0 0 1.00315 646.721 30.1486)"/><path d="M56.2582 47.3961C56.2582 52.7834 51.8909 57.1508 46.5035 57.1508 41.1161 57.1508 36.7488 52.7834 36.7488 47.3961 36.7488 42.0087 41.1161 37.6413 46.5035 37.6413 51.8909 37.6413 56.2582 42.0087 56.2582 47.3961Z" fill="#EBEBEB" transform="matrix(1 0 0 1.00315 717 59.0115)"/><path d="M123.494 83.2383 123.283 83.428C127.11 79.6414 127.143 73.4695 123.356 69.6429 119.676 65.9235 113.716 65.7729 109.853 69.302L110.057 69.0982C113.897 65.3203 120.074 65.3712 123.852 69.2119 127.629 73.0527 127.579 79.2289 123.738 83.0063 123.658 83.0851 123.576 83.1624 123.494 83.2383Z" fill="#CCCCCC" fill-rule="evenodd" transform="matrix(1 0 0 1.00315 646.721 30.1486)"/><path d="M114.8 77.1802 118.961 77.1802 118.961 79.2886C118.961 79.9837 118.398 80.5466 117.703 80.5466L116.066 80.5466C115.37 80.5466 114.804 79.9844 114.8 79.2886Z" fill="#AFAFAF" fill-rule="evenodd" transform="matrix(1 0 0 1.00315 646.721 30.1486)"/><path d="M113.507 74.1372 120.254 74.1372 120.254 76.7726C120.254 77.4677 119.691 78.0306 118.996 78.0306L114.779 78.0306C114.084 78.0306 113.519 77.4684 113.514 76.7726Z" fill="#999999" fill-rule="evenodd" transform="matrix(1 0 0 1.00315 646.721 30.1486)"/><path d="M118.771 73.7506 118.771 76.7726C118.771 77.4677 118.208 78.0306 117.513 78.0306L118.982 78.0306C119.677 78.0306 120.24 77.4677 120.24 76.7726L120.24 73.7506C119.776 73.7928 119.27 73.7506 118.771 73.7506Z" fill="#666666" fill-rule="evenodd" transform="matrix(1 0 0 1.00315 646.721 30.1486)"/><path d="M112.249 71.7266 121.519 71.7266 121.519 74.2496C121.515 74.9454 120.95 75.5076 120.254 75.5076L113.507 75.5076C112.812 75.5076 112.249 74.9447 112.249 74.2496L112.249 71.7266Z" fill="#AFAFAF" fill-rule="evenodd" transform="matrix(1 0 0 1.00315 646.721 30.1486)"/><path d="M120.05 72.9916 120.05 74.2496C120.046 74.9454 119.481 75.5076 118.785 75.5076L120.296 75.5076C120.976 75.4851 121.516 74.9292 121.519 74.2496L121.519 72.9916Z" fill="#999999" fill-rule="evenodd" transform="matrix(1 0 0 1.00315 646.721 30.1486)"/><path d="M116.881 54.8175C121.156 54.8174 124.627 58.273 124.647 62.5482 124.647 66.8563 121.892 66.5962 121.519 72.9565L112.249 72.9565C111.877 66.6314 109.122 66.8563 109.122 62.5482 109.122 58.2787 112.583 54.8175 116.853 54.8174 116.862 54.8174 116.872 54.8174 116.881 54.8175Z" fill="#E60000" fill-rule="evenodd" transform="matrix(1 0 0 1.00315 646.721 30.1486)"/><path d="M116.15 54.8526C120.135 55.2331 123.178 58.5802 123.178 62.5833 123.178 66.5892 120.802 66.6454 120.163 71.7196 120.114 72.1131 120.078 72.5278 120.05 72.9846L121.519 72.9846C121.892 66.6595 124.647 66.8844 124.647 62.5763 124.627 58.3011 121.156 54.8455 116.881 54.8456 116.635 54.8456 116.389 54.8456 116.178 54.8456Z" fill="#BD0000" fill-rule="evenodd" transform="matrix(1 0 0 1.00315 646.721 30.1486)"/><path d="M114.456 72.9916 114.456 65.528 113.753 65.528C112.155 65.5202 110.864 64.2176 110.872 62.6185 110.88 61.0194 112.183 59.7293 113.781 59.7371 115.377 59.7448 116.666 61.0432 116.663 62.6395L116.663 63.3423 117.169 63.3423 117.169 62.6395C117.161 61.0497 118.44 59.7525 120.029 59.737 121.625 59.737 122.918 61.0302 122.918 62.6255 122.918 64.2207 121.625 65.5139 120.029 65.5139L119.326 65.5139 119.326 72.9776 117.148 72.9776 117.148 65.528 116.663 65.528 116.663 72.9916ZM114.456 63.3564 114.456 62.6536C114.456 62.2654 114.141 61.9508 113.753 61.9508 113.365 61.9508 113.051 62.2654 113.051 62.6536 113.051 63.0417 113.365 63.3564 113.753 63.3564ZM119.312 63.3564 120.015 63.3564C120.403 63.3564 120.718 63.0417 120.718 62.6536 120.718 62.2654 120.403 61.9508 120.015 61.9508 119.825 61.9497 119.643 62.0258 119.509 62.1616 119.374 62.2948 119.297 62.4774 119.298 62.6676Z" fill="#990000" fill-rule="evenodd" transform="matrix(1 0 0 1.00315 646.721 30.1486)"/></g></svg>