<svg width="94" height="94" xmlns="http://www.w3.org/2000/svg" xmlns:xlink="http://www.w3.org/1999/xlink" xml:space="preserve" overflow="hidden"><defs><clipPath id="clip0"><rect x="77" y="486" width="94" height="94"/></clipPath></defs><g clip-path="url(#clip0)" transform="translate(-77 -486)"><path d="M95.3043 531.715C94.5516 531.715 93.9273 531.091 93.9273 530.338L93.9273 506.324C93.9273 505.571 94.5516 504.947 95.3043 504.947 96.057 504.947 96.6813 505.571 96.6813 506.324L96.6813 530.32C96.6813 531.091 96.0754 531.715 95.3043 531.715Z" fill="#4A4D4E"/><path d="M149.244 556.096C148.895 556.096 148.546 555.968 148.271 555.692 147.739 555.16 147.739 554.279 148.271 553.746L152.622 549.395 152.622 536.617C152.622 535.864 153.246 535.24 153.999 535.24 154.752 535.24 155.376 535.864 155.376 536.617L155.376 549.652C155.376 550.221 155.156 550.754 154.752 551.157L150.236 555.674C149.96 555.949 149.593 556.096 149.244 556.096Z" fill="#4A4D4E"/><path d="M149.244 550.203C146.747 550.203 144.728 552.222 144.728 554.719 144.728 557.216 146.747 559.236 149.244 559.236 151.741 559.236 153.761 557.216 153.761 554.719 153.761 552.222 151.741 550.203 149.244 550.203Z" fill="#333333"/><path d="M109.643 555.857C106.302 560.704 111.295 575.318 116.161 578.329 119.759 580.551 129.159 580.551 132.757 578.329 137.623 575.318 142.616 560.704 139.275 555.857 134.869 549.45 114.049 549.45 109.643 555.857Z" fill="#E60000"/><path d="M139.275 555.857C136.796 552.259 129.159 550.698 122.146 551.139 127.617 551.488 132.721 553.067 134.648 555.857 137.99 560.704 132.996 575.318 128.131 578.329 126.754 579.174 124.551 579.706 122.146 579.908 126.075 580.239 130.518 579.706 132.739 578.329 137.623 575.318 142.616 560.704 139.275 555.857Z" fill="#BD0000"/><path d="M136.025 553.269C130.022 550.313 118.896 550.313 112.911 553.269L116.179 563.844C117.299 567.479 120.659 569.976 124.477 569.976L124.477 569.976C128.296 569.976 131.656 567.497 132.776 563.844L136.025 553.269Z" fill="#666666"/><path d="M135.034 556.482 136.025 553.269C132.115 551.341 126.552 550.864 122.164 551.121 126.423 551.396 133.216 552.7 135.034 556.482Z" fill="#4A4D4E"/><path d="M154.201 528.796 145.297 528.796 145.297 538.655 154.22 538.655C155.872 538.655 157.194 537.314 157.194 535.68L157.194 531.77C157.175 530.136 155.854 528.796 154.201 528.796Z" fill="#E60000"/><path d="M145.297 538.655 153.283 538.655C153.761 535.57 153.871 532.137 153.669 528.796L145.297 528.796 145.297 538.655Z" fill="#BD0000"/><path d="M94.7168 528.796 103.621 528.796 103.621 538.655 94.7168 538.655C93.0645 538.655 91.7426 537.314 91.7426 535.68L91.7426 531.77C91.7426 530.136 93.0645 528.796 94.7168 528.796Z" fill="#E60000"/><path d="M102.593 514.292C96.9934 520.277 96.4242 542.822 102.593 548.146 111.093 555.49 137.806 555.49 146.307 548.146 152.475 542.822 151.906 520.277 146.307 514.292 138.596 506.03 110.322 506.03 102.593 514.292Z" fill="#EBEEF2"/><path d="M146.325 514.292C142.102 509.775 131.748 507.737 121.962 508.16 130.077 508.509 137.806 510.546 141.313 514.292 146.913 520.277 147.482 542.822 141.313 548.146 137.457 551.47 129.893 553.287 121.962 553.599 131.564 553.985 141.68 552.167 146.325 548.146 152.475 542.822 151.925 520.277 146.325 514.292Z" fill="#C9CDD3"/><path d="M104.613 531.88 104.613 533.532C104.613 539.169 109.184 543.74 114.82 543.74L134.116 543.74C139.752 543.74 144.324 539.169 144.324 533.532L144.324 531.88C144.324 526.244 139.752 521.672 134.116 521.672L114.802 521.672C109.184 521.672 104.613 526.244 104.613 531.88Z" fill="#AFAFAF"/><path d="M108.56 536.305 108.56 534.652C108.56 529.016 113.131 524.445 118.768 524.445L138.063 524.445C139.367 524.445 140.634 524.702 141.79 525.142 139.918 523.013 137.182 521.672 134.116 521.672L114.802 521.672C109.166 521.672 104.594 526.244 104.594 531.88L104.594 533.532C104.594 537.847 107.275 541.537 111.075 543.024 109.514 541.243 108.56 538.875 108.56 536.305Z" fill="#999999"/><path d="M137.751 532.706C137.751 534.866 136 536.617 133.841 536.617 131.681 536.617 129.93 534.866 129.93 532.706 129.93 530.547 131.681 528.796 133.841 528.796 136 528.796 137.751 530.547 137.751 532.706Z" fill="#F4F4F4"/><path d="M118.988 532.706C118.988 534.866 117.237 536.617 115.077 536.617 112.918 536.617 111.167 534.866 111.167 532.706 111.167 530.547 112.918 528.796 115.077 528.796 117.237 528.796 118.988 530.547 118.988 532.706Z" fill="#F4F4F4"/><path d="M128.002 561.549C128.002 563.506 126.416 565.092 124.459 565.092 122.502 565.092 120.916 563.506 120.916 561.549 120.916 559.592 122.502 558.005 124.459 558.005 126.416 558.005 128.002 559.592 128.002 561.549Z" fill="#EBEEF2"/><path d="M153.54 486 117.299 486C115.279 486 113.645 487.634 113.645 489.654L113.645 500.192C113.645 502.211 115.279 503.845 117.299 503.845L143.369 503.845C143.479 503.845 143.571 503.882 143.645 503.974L150.291 511.005C150.768 511.501 151.612 511.171 151.612 510.473L151.612 504.231C151.612 504.011 151.778 503.845 151.998 503.845L153.522 503.845C155.541 503.845 157.175 502.211 157.175 500.192L157.175 489.654C157.175 487.634 155.541 486 153.54 486Z" fill="#BD0000"/><path d="M153.54 486 149.868 486C151.888 486 153.522 487.634 153.522 489.654L153.522 500.192C153.522 502.211 151.888 503.845 149.868 503.845L148.345 503.845C148.124 503.845 147.959 504.011 147.959 504.231L147.959 508.509 150.309 510.987C150.786 511.483 151.631 511.152 151.631 510.455L151.631 504.212C151.631 503.992 151.796 503.827 152.016 503.827L153.54 503.827C155.56 503.827 157.194 502.193 157.194 500.173L157.194 489.654C157.175 487.634 155.541 486 153.54 486Z" fill="#990000"/><path d="M124.092 495.969 123.211 495.969C122.458 495.969 121.834 495.345 121.834 494.592 121.834 493.839 122.458 493.215 123.211 493.215L124.092 493.215C124.845 493.215 125.469 493.839 125.469 494.592 125.469 495.345 124.845 495.969 124.092 495.969Z" fill="#FFFFFF"/><path d="M131.931 495.969 131.05 495.969C130.297 495.969 129.673 495.345 129.673 494.592 129.673 493.839 130.297 493.215 131.05 493.215L131.931 493.215C132.684 493.215 133.308 493.839 133.308 494.592 133.308 495.345 132.702 495.969 131.931 495.969Z" fill="#FFFFFF"/><path d="M139.789 495.969 138.908 495.969C138.155 495.969 137.531 495.345 137.531 494.592 137.531 493.839 138.155 493.215 138.908 493.215L139.789 493.215C140.542 493.215 141.166 493.839 141.166 494.592 141.166 495.345 140.542 495.969 139.789 495.969Z" fill="#FFFFFF"/><path d="M147.629 495.969 146.747 495.969C145.995 495.969 145.37 495.345 145.37 494.592 145.37 493.839 145.995 493.215 146.747 493.215L147.629 493.215C148.381 493.215 149.005 493.839 149.005 494.592 149.005 495.345 148.381 495.969 147.629 495.969Z" fill="#FFFFFF"/><path d="M95.3043 499.127C92.8258 499.127 90.8063 501.146 90.8063 503.625 90.8063 506.104 92.8258 508.123 95.3043 508.123 97.7828 508.123 99.8023 506.104 99.8023 503.625 99.8023 501.146 97.7828 499.127 95.3043 499.127Z" fill="#BD0000"/><path d="M186.973 448.657 226.06 448.657 226.06 465.291 186.973 465.291Z" fill="#F4F4F4"/><path d="M186.973 470.248 226.06 470.248 226.06 486.881 186.973 486.881Z" fill="#EBEBEB"/><path d="M186.973 491.838 226.06 491.838 226.06 508.472 186.973 508.472Z" fill="#CCCCCC"/><path d="M186.973 513.429 226.06 513.429 226.06 530.062 186.973 530.062Z" fill="#AFAFAF"/><path d="M186.973 535.02 226.06 535.02 226.06 551.653 186.973 551.653Z" fill="#999999"/><path d="M186.973 556.61 226.06 556.61 226.06 573.244 186.973 573.244Z" fill="#666666"/><path d="M186.973 576.53 226.06 576.53 226.06 593.164 186.973 593.164Z" fill="#4A4D4E"/><path d="M250.147 448.749 289.234 448.749 289.234 465.382 250.147 465.382Z" fill="#E60000"/><path d="M250.147 470.339 289.234 470.339 289.234 486.973 250.147 486.973Z" fill="#BD0000"/><path d="M250.147 491.93 289.234 491.93 289.234 508.564 250.147 508.564Z" fill="#990000"/><path d="M250.147 513.521 289.234 513.521 289.234 530.154 250.147 530.154Z" fill="#D47600"/><path d="M250.147 535.111 289.234 535.111 289.234 551.745 250.147 551.745Z" fill="#FFA10B"/><path d="M186.973 596.432 226.06 596.432 226.06 613.065 186.973 613.065Z" fill="#333333"/></g></svg>