<svg width="93" height="94" xmlns="http://www.w3.org/2000/svg" xmlns:xlink="http://www.w3.org/1999/xlink" xml:space="preserve" overflow="hidden"><defs><clipPath id="clip0"><rect x="369" y="529" width="93" height="94"/></clipPath></defs><g clip-path="url(#clip0)" transform="translate(-369 -529)"><path d="M101.786 46.1063 97.5318 41.8522C94.0558 38.3784 92.6572 33.3356 93.8467 28.5675 94.278 26.8599 96.0114 25.8251 97.719 26.2562 98.2734 26.3962 98.7802 26.6826 99.1857 27.0855 100.431 28.328 102.446 28.328 103.691 27.0855 103.797 26.981 103.894 26.8681 103.982 26.7481L104.512 26.0468C105.558 24.6347 107.551 24.3381 108.963 25.3844 108.963 25.3847 108.963 25.385 108.964 25.3852 109.084 25.4773 109.2 25.5768 109.308 25.683L111.028 27.4031C112.273 28.6456 114.289 28.6456 115.534 27.4031L115.878 27.0591C117.12 25.816 119.135 25.8155 120.378 27.0579 120.787 27.4669 121.077 27.9796 121.217 28.541 122.408 33.3092 121.009 38.3526 117.532 41.8258L113.284 46.0798Z" fill="#E60000" transform="matrix(1.01071 0 0 1 312.637 504.333)"/><path d="M119.576 39.2787C119.001 40.214 118.317 41.0779 117.538 41.8522L113.284 46.1129 101.786 46.1129 97.5318 41.8522C94.0498 38.3818 92.6499 33.3357 93.8467 28.5675 94.2013 27.141 95.4861 26.1429 96.9562 26.1527 97.4484 26.151 97.9333 26.2739 98.3654 26.51 98.2178 30.4063 99.7024 34.1875 102.461 36.9432 105.176 39.6732 108.871 41.2047 112.722 41.1973 115.139 41.1981 117.51 40.5344 119.576 39.2787Z" fill="#BD0000" transform="matrix(1.01071 0 0 1 312.637 504.333)"/><path d="M106.715 105.259C94.0141 105.259 83.7177 94.9628 83.7177 82.2622 83.7164 74.8332 86.3198 67.6391 91.0746 61.9315L100.138 51.055 113.284 51.055 122.348 61.9315C127.106 67.6384 129.711 74.8326 129.712 82.2622 129.712 94.9628 119.415 105.259 106.715 105.259Z" fill="#BD0000" transform="matrix(1.01071 0 0 1 312.637 504.333)"/><path d="M100.138 44.4854 113.284 44.4854C115.111 44.4854 116.592 45.9664 116.592 47.7933L116.592 47.7933C116.592 49.6203 115.111 51.1013 113.284 51.1013L100.138 51.1013C98.3118 51.1013 96.8305 49.6203 96.8305 47.7933L96.8305 47.7933C96.8305 45.9664 98.3118 44.4854 100.138 44.4854Z" fill="#999999" transform="matrix(1.01071 0 0 1 312.637 504.333)"/><path d="M127.899 91.2003C126.74 93.9327 125.069 96.419 122.977 98.5241 113.996 107.505 99.4352 107.506 90.4541 98.5255 86.1405 94.2125 83.7171 88.3621 83.7177 82.2622 83.731 74.8339 86.3323 67.6424 91.0746 61.9249L100.138 51.055 113.284 51.055 116.023 54.3629 114.826 54.3629C105.881 54.3812 98.6373 61.6337 98.63 70.5785 98.6254 71.4657 98.7028 72.3516 98.8615 73.2249 100.926 84.638 111.164 92.7293 122.745 92.1001 124.492 92.0141 126.223 91.7164 127.899 91.2136Z" fill="#E60000" transform="matrix(1.01071 0 0 1 312.637 504.333)"/><path d="M116.566 47.7669C116.566 49.5938 115.084 51.0748 113.258 51.0748L100.138 51.0748C98.3243 50.859 97.0283 49.2134 97.2446 47.3993 97.4246 45.882 98.6214 44.6857 100.138 44.5052 100.138 46.3321 101.62 47.8132 103.446 47.8132Z" fill="#666666" transform="matrix(1.01071 0 0 1 312.637 504.333)"/><path d="M106.715 69.123C108.067 69.1336 109.159 70.2319 109.163 71.5842 109.163 72.4978 109.903 73.2381 110.816 73.2381 111.73 73.2381 112.47 72.4978 112.47 71.5842 112.459 69.0522 110.789 66.8267 108.362 66.1062L108.362 64.1743C108.362 63.2609 107.622 62.5204 106.708 62.5204 105.794 62.5204 105.054 63.2609 105.054 64.1743L105.054 66.0863C102.006 66.9365 100.224 70.0969 101.075 73.1442 101.777 75.6602 104.09 77.3823 106.701 77.3334 108.064 77.3334 109.169 78.4382 109.169 79.8011 109.169 81.164 108.064 82.2688 106.701 82.2688 105.339 82.2688 104.234 81.164 104.234 79.8011 104.234 78.8875 103.493 78.1471 102.58 78.1471 101.666 78.1471 100.926 78.8875 100.926 79.8011 100.932 82.333 102.6 84.5599 105.028 85.2791L105.028 87.1911C105.028 88.1047 105.768 88.8451 106.682 88.8451 107.595 88.8451 108.336 88.1047 108.336 87.1911L108.336 85.2791C111.383 84.4289 113.164 81.2685 112.314 78.2206 111.613 75.7078 109.303 73.9864 106.695 74.032 105.334 74.1028 104.173 73.0562 104.103 71.6953 104.032 70.3344 105.079 69.174 106.439 69.1032 106.525 69.0986 106.609 69.0986 106.695 69.1032Z" fill="#EBEBEB" transform="matrix(1.01071 0 0 1 312.637 504.333)"/><path d="M108.19 87.8791C107.931 88.4607 107.352 88.8345 106.715 88.8318 105.808 88.8358 105.071 88.1041 105.067 87.1977 105.067 87.1957 105.067 87.1931 105.067 87.1911L105.067 85.2857C102.639 84.5639 100.971 82.3343 100.965 79.8011 100.955 79.7085 100.955 79.6159 100.965 79.5232 102.654 82.8477 105.121 85.7144 108.157 87.8791Z" fill="#CCCCCC" transform="matrix(1.01071 0 0 1 312.637 504.333)"/><path d="M81.7991 103.003 81.7991 115.269 112.735 115.269C115.202 115.271 117.579 114.348 119.397 112.682L133.853 99.4504C135.864 97.668 136.153 94.6333 134.515 92.5037 132.779 90.4077 129.674 90.1113 127.575 91.8421 127.508 91.9016 127.442 91.9545 127.376 92.0207L117.657 100.893C116.979 101.512 116.072 101.822 115.157 101.746L110.122 101.309C110.176 101.156 110.22 100.999 110.254 100.84 110.732 98.1675 108.955 95.6131 106.285 95.1302L90.1087 92.2721 81.7991 92.2721Z" fill="#D88A55" transform="matrix(1.01071 0 0 1 312.637 504.333)"/><path d="M110.254 100.84C110.324 100.424 110.337 100.001 110.294 99.5827 109.62 98.978 108.79 98.5724 107.899 98.4117L91.723 95.5602 93.2976 98.8682C94.2933 103.286 97.8427 106.676 102.302 107.469L105.934 108.13C108.311 108.598 110.69 107.337 111.637 105.107 112.093 103.944 112.081 102.649 111.604 101.495L110.128 101.362C110.175 101.151 110.221 100.992 110.254 100.84Z" fill="#C57A44" transform="matrix(1.01071 0 0 1 312.637 504.333)"/><path d="M71.5378 88.9906 81.7991 88.9906 81.7991 118.557 71.5378 118.557Z" fill="#CCCCCC" transform="matrix(1.01071 0 0 1 312.637 504.333)"/><path d="M93.2843 102.851 104.531 104.836C107.202 105.364 109.795 103.627 110.323 100.957 110.851 98.286 109.114 95.6932 106.443 95.1652 106.378 95.152 106.311 95.1408 106.245 95.1302L90.069 92.2721 81.7991 92.2721Z" fill="#D88A55" transform="matrix(1.01071 0 0 1 312.637 504.333)"/><path d="M133.86 99.4239 119.391 112.656C117.579 114.33 115.202 115.256 112.735 115.249L81.8057 115.249 81.8057 92.2721 86.3244 92.2721 86.3244 97.201C86.3244 104.459 92.2059 110.343 99.4636 110.347L112.325 110.347C114.795 110.347 117.176 109.419 118.994 107.747L133.45 94.5149C133.986 94.02 134.415 93.4213 134.713 92.7551 136.15 94.8821 135.785 97.7454 133.86 99.4437Z" fill="#C57A44" transform="matrix(1.01071 0 0 1 312.637 504.333)"/><path d="M81.8057 115.176 81.8057 118.557 71.5378 118.557 71.5378 88.9906 74.8458 88.9906 74.8458 107.059C74.8445 111.112 77.8005 114.559 81.8057 115.176Z" fill="#AFAFAF" transform="matrix(1.01071 0 0 1 312.637 504.333)"/><path d="M136.288 34.6277 124.789 44.4854 131.359 44.4854 131.359 60.9127 141.217 60.9127 141.217 44.4854 147.786 44.4854Z" fill="#BD0000" transform="matrix(1.01071 0 0 1 312.637 504.333)"/><path d="M141.21 57.6246 141.21 60.9325 131.352 60.9325 131.352 44.4854 124.783 44.4854 134.634 36.0435 134.634 51.055C134.638 54.6843 137.581 57.6246 141.21 57.6246Z" fill="#990000" transform="matrix(1.01071 0 0 1 312.637 504.333)"/><path d="M139.596 64.1743C138.689 64.1743 137.955 64.9089 137.955 65.8151L137.955 82.2424C137.955 83.156 138.695 83.8964 139.609 83.8964 140.523 83.8964 141.263 83.156 141.263 82.2424L141.263 65.8349C141.27 64.9252 140.538 64.1816 139.629 64.1743 139.618 64.1742 139.607 64.1742 139.596 64.1743Z" fill="#E60000" transform="matrix(1.01071 0 0 1 312.637 504.333)"/><path d="M146.132 75.6926C145.226 75.6926 144.491 76.427 144.491 77.3334L144.491 97.0488C144.491 97.9624 145.232 98.7028 146.145 98.7028 147.059 98.7028 147.799 97.9624 147.799 97.0488L147.799 77.3334C147.796 76.4237 147.055 75.6887 146.145 75.6926 146.141 75.6926 146.137 75.6926 146.132 75.6926Z" fill="#E60000" transform="matrix(1.01071 0 0 1 312.637 504.333)"/><path d="M132.98 64.1743C132.073 64.1743 131.339 64.9089 131.339 65.8151L131.339 70.7902C131.339 71.7039 132.079 72.4442 132.993 72.4442 133.907 72.4442 134.647 71.7039 134.647 70.7902L134.647 65.8349C134.658 64.9288 133.932 64.1853 133.027 64.1743 133.011 64.1741 132.995 64.1741 132.98 64.1743Z" fill="#E60000" transform="matrix(1.01071 0 0 1 312.637 504.333)"/><path d="M39.4441 34.4887C39.4441 45.3736 30.6201 54.1975 19.7353 54.1975 8.85039 54.1975 0.0264623 45.3736 0.0264623 34.4887 0.0264623 23.6039 8.85039 14.7799 19.7353 14.7799 30.6201 14.7799 39.4441 23.6039 39.4441 34.4887Z" fill="#BD0000" transform="matrix(1.01071 0 0 1 369 529.11)"/><path d="M93.4696 67.383C88.9933 77.3129 77.3148 81.7343 67.385 77.258 57.4552 72.7823 53.0339 61.1036 57.5101 51.1736 59.4878 46.7861 63.0017 43.2731 67.3897 41.2965 62.8989 51.2118 67.2964 62.8902 77.2116 67.3811 82.378 69.7211 88.3026 69.7218 93.4696 67.383Z" fill="#990000" transform="matrix(1.01071 0 0 1 312.637 504.333)"/><path d="M78.9874 62.7519C77.0615 64.6757 77.0595 67.7965 78.9834 69.7224 80.9073 71.6483 84.028 71.6503 85.9539 69.7264 87.8798 67.8025 87.8818 64.6817 85.9579 62.7558 85.9566 62.7545 85.9552 62.7532 85.9539 62.7519 84.0333 60.8281 80.9166 60.8257 78.9927 62.7464 78.9913 62.7483 78.9893 62.7501 78.9874 62.7519ZM83.6185 67.383C82.9774 68.0235 81.938 68.0228 81.2983 67.3811 80.6579 66.74 80.6585 65.7011 81.3003 65.0609 81.9407 64.4213 82.9781 64.4213 83.6185 65.0609L83.6185 65.0609C84.2669 65.6937 84.2794 66.7327 83.6469 67.3811 83.6416 67.3864 83.637 67.391 83.6317 67.3963Z" fill="#EBEBEB" transform="matrix(1.01071 0 0 1 312.637 504.333)"/><path d="M85.9539 48.8122C85.3135 48.1709 84.2748 48.1701 83.6337 48.8103 83.633 48.811 83.6324 48.8116 83.6317 48.8122L65.0476 67.3963C64.3954 68.0268 64.3776 69.0661 65.0079 69.7185 65.6382 70.3708 66.6778 70.3887 67.3301 69.7582L67.3698 69.7185 85.9539 51.1344C86.595 50.4942 86.5956 49.4553 85.9559 48.814 85.9552 48.8134 85.9546 48.8128 85.9539 48.8122Z" fill="#FFFFFF" transform="matrix(1.01071 0 0 1 312.637 504.333)"/><path d="M68.5342 57.221C71.2487 57.2128 73.4432 55.0054 73.4353 52.2906 73.4267 49.5758 71.2196 47.3816 68.5044 47.3898 65.7898 47.398 63.5956 49.6054 63.6038 52.3202 63.6077 53.6208 64.1269 54.8668 65.0476 55.7854 65.9732 56.7077 67.2276 57.2242 68.5342 57.221ZM67.3698 51.1344C68.0109 50.4942 69.0503 50.4949 69.69 51.1362 70.3304 51.7774 70.3298 52.8163 69.688 53.4566 69.0476 54.0961 68.0102 54.0961 67.3698 53.4566L67.3698 53.4566C66.7287 52.8163 66.7281 51.7774 67.3678 51.1362 67.3685 51.1356 67.3692 51.135 67.3698 51.1344Z" fill="#EBEBEB" transform="matrix(1.01071 0 0 1 312.637 504.333)"/><path d="M77.7369 67.5948C78.4799 70.2061 81.1991 71.7204 83.8104 70.9775 84.8881 70.6705 85.8289 70.0043 86.4766 69.09 83.4875 69.26 80.4991 68.7486 77.7369 67.5948Z" fill="#EBEBEB" transform="matrix(1.01071 0 0 1 312.637 504.333)"/><path d="M72.6295 64.4588 67.3367 69.7119C67.0324 70.0287 66.6116 70.208 66.1723 70.208 65.7365 70.2094 65.3197 70.0294 65.0212 69.7119 64.3872 69.0701 64.3872 68.038 65.0212 67.3963L70.3139 62.1432C71.0059 62.9909 71.782 63.7667 72.6295 64.4588Z" fill="#EBEBEB" transform="matrix(1.01071 0 0 1 312.637 504.333)"/><path d="M65.6761 48.2961C65.4539 48.4518 65.2458 48.6267 65.0543 48.8188 63.1309 50.7451 63.1333 53.8659 65.0595 55.7893 65.6472 56.376 66.3735 56.8048 67.1713 57.0358 66.0216 54.2722 65.5105 51.2848 65.6761 48.2961Z" fill="#EBEBEB" transform="matrix(1.01071 0 0 1 312.637 504.333)"/></g></svg>