<svg width="94" height="95" xmlns="http://www.w3.org/2000/svg" xmlns:xlink="http://www.w3.org/1999/xlink" xml:space="preserve" overflow="hidden"><defs><clipPath id="clip0"><rect x="1089" y="37" width="94" height="95"/></clipPath></defs><g clip-path="url(#clip0)" transform="translate(-1089 -37)"><path d="M39.7664 60.5492 34.3504 60.5492 34.3504 56.9324C34.3504 52.2324 37.343 48.2301 41.5289 46.7246 42.557 47.459 43.8238 47.8996 45.2008 47.8996 46.5594 47.8996 47.8262 47.459 48.8727 46.7246 53.0586 48.2301 56.0512 52.2324 56.0512 56.9324L56.0512 60.5492 50.6352 60.5492 39.7664 60.5492Z" fill="#666666" transform="matrix(1 0 0 1.01064 1089 37)"/><path d="M10.8504 76.834C12.8516 76.834 14.4672 78.4496 14.4672 80.4508 14.4672 82.452 12.8516 84.0676 10.8504 84.0676 8.84922 84.0676 7.23359 82.452 7.23359 80.4508 7.23359 78.4496 8.84922 76.834 10.8504 76.834Z" fill="#E60000" transform="matrix(1 0 0 1.01064 1089 37)"/><path d="M81.3504 75.0164C83.3516 75.0164 84.9672 76.632 84.9672 78.6332 84.9672 80.6344 83.3516 82.25 81.3504 82.25 79.3492 82.25 77.7336 80.6344 77.7336 78.6332 77.7336 76.632 79.3492 75.0164 81.3504 75.0164Z" fill="#BD0000" transform="matrix(1 0 0 1.01064 1089 37)"/><path d="M78.6332 6.33398C81.1301 6.33398 83.1496 8.35352 83.1496 10.8504 83.1496 13.3473 81.1301 15.3668 78.6332 15.3668 76.1363 15.3668 74.1168 13.3473 74.1168 10.8504 74.1168 8.35352 76.1363 6.33398 78.6332 6.33398Z" fill="#4A4D4E" transform="matrix(1 0 0 1.01064 1089 37)"/><path d="M86.234 24.932C86.5645 25.2625 86.7664 25.7031 86.7664 26.2172 86.7664 27.2086 85.9586 28.0164 84.9672 28.0164 84.4715 28.0164 84.0125 27.8145 83.682 27.484 83.3516 27.1535 83.1496 26.7129 83.1496 26.1988 83.1496 25.7031 83.3516 25.2441 83.682 24.9137 84.0125 24.5832 84.4531 24.3813 84.9672 24.3813 85.4813 24.3813 85.9035 24.6016 86.234 24.932Z" fill="#BD0000" transform="matrix(1 0 0 1.01064 1089 37)"/><path d="M73.5844 84.5816C73.9148 84.9121 74.1168 85.3527 74.1168 85.8668 74.1168 86.8582 73.309 87.666 72.3176 87.666 71.8219 87.666 71.3629 87.4641 71.0324 87.1336 70.702 86.8031 70.5 86.3625 70.5 85.8484 70.5 85.3527 70.702 84.8937 71.0324 84.5633 71.3629 84.2328 71.8035 84.0309 72.3176 84.0309 72.8316 84.0309 73.2539 84.2512 73.5844 84.5816Z" fill="#666666" transform="matrix(1 0 0 1.01064 1089 37)"/><path d="M24.7852 84.5816C25.1156 84.9121 25.3176 85.3527 25.3176 85.8668 25.3176 86.8582 24.5098 87.666 23.5184 87.666 23.0227 87.666 22.5637 87.4641 22.2332 87.1336 21.9027 86.8031 21.7008 86.3625 21.7008 85.8484 21.7008 85.3527 21.9027 84.8937 22.2332 84.5633 22.5637 84.2328 23.0043 84.0309 23.5184 84.0309 23.9957 84.0492 24.4547 84.2512 24.7852 84.5816Z" fill="#E60000" transform="matrix(1 0 0 1.01064 1089 37)"/><path d="M12.1172 10.4648C12.4477 10.7953 12.6496 11.2359 12.6496 11.75 12.6496 12.7414 11.8418 13.5492 10.8504 13.5492 10.3547 13.5492 9.8957 13.3473 9.56523 13.0168 9.23477 12.6863 9.03281 12.2457 9.03281 11.7316 9.03281 11.2359 9.23477 10.777 9.56523 10.4465 9.8957 10.116 10.3363 9.91406 10.8504 9.91406 11.3645 9.91406 11.8051 10.1527 12.1172 10.4648Z" fill="#E60000" transform="matrix(1 0 0 1.01064 1089 37)"/><path d="M10.318 19.516C10.6484 19.8465 10.8504 20.2871 10.8504 20.8012 10.8504 21.7926 10.0426 22.6004 9.05117 22.6004 8.55547 22.6004 8.09648 22.3984 7.76602 22.068 7.43555 21.7375 7.23359 21.2969 7.23359 20.7828 7.23359 20.2871 7.43555 19.8281 7.76602 19.4977 8.09648 19.1672 8.53711 18.9652 9.05117 18.9652 9.56523 18.9652 9.9875 19.1855 10.318 19.516Z" fill="#BD0000" transform="matrix(1 0 0 1.01064 1089 37)"/><path d="M45.2008 31.6332C44.2094 31.6332 43.4016 30.8254 43.4016 29.834L43.4016 18.9836C43.4016 17.9922 44.2094 17.1844 45.2008 17.1844 46.1922 17.1844 47 17.9922 47 18.9836L47 29.834C47 30.8254 46.1922 31.6332 45.2008 31.6332Z" fill="#666666" transform="matrix(1 0 0 1.01064 1089 37)"/><path d="M45.2008 31.6332C44.7418 31.6332 44.2828 31.4496 43.9156 31.1008L40.2988 27.484C39.6012 26.7863 39.6012 25.6297 40.2988 24.932 40.9965 24.2344 42.1531 24.2344 42.8508 24.932L45.1824 27.2637 47.5141 24.932C48.2117 24.2344 49.3684 24.2344 50.066 24.932 50.7637 25.6297 50.7637 26.7863 50.066 27.484L46.4492 31.1008C46.1187 31.4496 45.6598 31.6332 45.2008 31.6332L45.2008 31.6332Z" fill="#E60000" transform="matrix(1 0 0 1.01064 1089 37)"/><path d="M45.2008 78.6332C44.2094 78.6332 43.4016 77.8254 43.4016 76.834L43.4016 65.9836C43.4016 64.9922 44.2094 64.1844 45.2008 64.1844 46.1922 64.1844 47 64.9922 47 65.9836L47 76.834C47 77.8254 46.1922 78.6332 45.2008 78.6332Z" fill="#666666" transform="matrix(1 0 0 1.01064 1089 37)"/><path d="M48.7992 71.3996C48.3402 71.3996 47.8812 71.216 47.5141 70.8672L45.1824 68.5355 42.8508 70.8672C42.1531 71.5648 40.9965 71.5648 40.2988 70.8672 39.6012 70.1695 39.6012 69.0129 40.2988 68.3152L43.9156 64.6984C44.6133 64.0008 45.7699 64.0008 46.4676 64.6984L50.0844 68.3152C50.782 69.0129 50.782 70.1695 50.0844 70.8672 49.7355 71.2344 49.2766 71.3996 48.7992 71.3996L48.7992 71.3996Z" fill="#E60000" transform="matrix(1 0 0 1.01064 1089 37)"/><path d="M74.1168 49.7172 63.2664 49.7172C62.275 49.7172 61.4672 48.9094 61.4672 47.918 61.4672 46.9266 62.275 46.1187 63.2664 46.1187L74.1168 46.1187C75.1082 46.1187 75.916 46.9266 75.916 47.918 75.916 48.9094 75.1082 49.7172 74.1168 49.7172Z" fill="#666666" transform="matrix(1 0 0 1.01064 1089 37)"/><path d="M66.8832 53.334C66.4242 53.334 65.9652 53.1504 65.598 52.8016L61.9813 49.1848C61.2836 48.4871 61.2836 47.3305 61.9813 46.6328L65.598 43.016C66.2957 42.3184 67.4523 42.3184 68.15 43.016 68.8477 43.7137 68.8477 44.8703 68.15 45.568L65.8184 47.8996 68.15 50.2313C68.8477 50.9289 68.8477 52.0855 68.15 52.7832 67.8012 53.1504 67.3422 53.334 66.8832 53.334Z" fill="#E60000" transform="matrix(1 0 0 1.01064 1089 37)"/><path d="M27.1168 49.7172 16.2664 49.7172C15.275 49.7172 14.4672 48.9094 14.4672 47.918 14.4672 46.9266 15.275 46.1187 16.2664 46.1187L27.1168 46.1187C28.1082 46.1187 28.916 46.9266 28.916 47.918 28.916 48.9094 28.1082 49.7172 27.1168 49.7172Z" fill="#666666" transform="matrix(1 0 0 1.01064 1089 37)"/><path d="M23.5 53.334C23.041 53.334 22.582 53.1504 22.2148 52.8016 21.5172 52.1039 21.5172 50.9473 22.2148 50.2496L24.5465 47.918 22.2148 45.568C21.5172 44.8703 21.5172 43.7137 22.2148 43.016 22.9125 42.3184 24.0691 42.3184 24.7668 43.016L28.3836 46.6328C29.0812 47.3305 29.0812 48.4871 28.3836 49.1848L24.7852 52.8016C24.418 53.1504 23.959 53.334 23.5 53.334L23.5 53.334Z" fill="#E60000" transform="matrix(1 0 0 1.01064 1089 37)"/><path d="M39.7664 55.1332C38.775 55.1332 37.9672 55.941 37.9672 56.9324L37.9672 60.5492 39.7664 60.5492 41.5656 60.5492 41.5656 56.9324C41.584 55.941 40.7762 55.1332 39.7664 55.1332Z" fill="#4A4D4E" transform="matrix(1 0 0 1.01064 1089 37)"/><path d="M50.6168 55.1332C49.6254 55.1332 48.8176 55.941 48.8176 56.9324L48.8176 60.5492 50.6168 60.5492 52.416 60.5492 52.416 56.9324C52.416 55.941 51.6082 55.1332 50.6168 55.1332Z" fill="#4A4D4E" transform="matrix(1 0 0 1.01064 1089 37)"/><path d="M45.2008 9.95078C66.1672 9.95078 83.168 26.9516 83.168 47.918 83.168 68.8844 66.1672 85.8852 45.2008 85.8852 24.2344 85.8852 7.23359 68.866 7.23359 47.8996 7.23359 26.9332 24.2344 9.95078 45.2008 9.95078ZM45.2008 76.834C61.1734 76.834 74.1168 63.8906 74.1168 47.918 74.1168 31.9453 61.1734 19.002 45.2008 19.002 29.2281 19.002 16.2664 31.927 16.2664 47.8996 16.2664 63.8723 29.2098 76.834 45.2008 76.834Z" fill="#E60000" transform="matrix(1 0 0 1.01064 1089 37)"/><path d="M41.5289 47.0918C39.9133 45.9535 38.8668 44.0625 38.8668 41.9328 38.8668 38.4445 41.6941 35.5988 45.2008 35.5988 48.6891 35.5988 51.5348 38.4262 51.5348 41.9328 51.5348 44.0625 50.4883 45.9352 48.8727 47.0918 47.8445 47.8262 46.5777 48.2668 45.2008 48.2668 43.8238 48.2668 42.557 47.8262 41.5289 47.0918Z" fill="#E09041" transform="matrix(1 0 0 1.01064 1089 37)"/><path d="M-74.7594-6.62773C-85.7383-4.03906-93.5043 5.76484-93.5227 17.0559L-93.5227 31.6332-100.004 31.6332-100.004 17.0559C-100.004 2.49688-89.7957-10.0793-75.5488-13.0719L-74.7594-6.62773Z" fill="#BD0000" fill-rule="evenodd" transform="matrix(1 0 0 1.01064 1089 37)"/><path d="M-44.2094-6.62773C-33.2305-4.03906-25.4645 5.76484-25.4461 17.0559L-25.4461 30.0176-18.9652 30.0176-18.9652 17.0559C-18.9652 2.49688-29.173-10.0793-43.4199-13.0719L-44.2094-6.62773Z" fill="#BD0000" fill-rule="evenodd" transform="matrix(1 0 0 1.01064 1089 37)"/><path d="M-69.1598 75.402C-74.4656 75.402-79.2023 75.2367-83.2781 74.9246-93.798 73.8414-101.748 64.9188-101.619 54.3438L-101.619 49.8824-98.3695 49.8824-98.3695 54.3438C-98.498 63.2297-91.8336 70.757-83.0027 71.6934-78.2293 72.0789-72.5012 72.2258-65.9652 72.1523L-65.9285 75.402C-67.0301 75.3836-68.1133 75.402-69.1598 75.402Z" fill="#666666" fill-rule="evenodd" transform="matrix(1 0 0 1.01064 1089 37)"/><path d="M-98.3879 28.402-93.5227 28.402-93.5227 54.3254-98.3879 54.3254C-100.536 54.3254-102.592 53.4625-104.116 51.957-105.64 50.4332-106.484 48.377-106.484 46.2289L-106.484 36.4984C-106.484 32.0187-102.849 28.402-98.3879 28.402Z" fill="#E60000" fill-rule="evenodd" transform="matrix(1 0 0 1.01064 1089 37)"/><path d="M-90.273 25.1523-90.273 25.1523C-88.4738 25.1523-87.0234 26.6027-87.0234 28.402L-87.0234 54.3254C-87.0234 56.1246-88.4738 57.575-90.273 57.575L-90.273 57.575C-92.0723 57.575-93.5227 56.1246-93.5227 54.3254L-93.5227 28.402C-93.5227 26.6027-92.0723 25.1523-90.273 25.1523Z" fill="#4A4D4E" fill-rule="evenodd" transform="matrix(1 0 0 1.01064 1089 37)"/><path d="M-20.5809 54.3254-25.4461 54.3254-25.4461 28.402-20.5809 28.402C-16.1012 28.402-12.4844 32.0371-12.4844 36.4984L-12.4844 46.2289C-12.4844 50.6902-16.1195 54.3254-20.5809 54.3254Z" fill="#E60000" fill-rule="evenodd" transform="matrix(1 0 0 1.01064 1089 37)"/><path d="M-28.6957 57.5566-28.6957 57.5566C-30.4949 57.5566-31.9453 56.1063-31.9453 54.307L-31.9453 28.402C-31.9453 26.6027-30.4949 25.1523-28.6957 25.1523L-28.6957 25.1523C-26.8965 25.1523-25.4461 26.6027-25.4461 28.402L-25.4461 54.3254C-25.4461 56.1063-26.8965 57.5566-28.6957 57.5566Z" fill="#4A4D4E" fill-rule="evenodd" transform="matrix(1 0 0 1.01064 1089 37)"/><path d="M-72.4461-15.3668-46.5227-15.3668C-44.7234-15.3668-43.273-13.9164-43.273-12.1172L-43.273-8.86758C-43.273-7.06836-44.7234-5.61797-46.5227-5.61797L-72.4461-5.61797C-74.2453-5.61797-75.6957-7.06836-75.6957-8.86758L-75.6957-12.1172C-75.6957-13.9164-74.2453-15.3668-72.4461-15.3668Z" fill="#E60000" fill-rule="evenodd" transform="matrix(1 0 0 1.01064 1089 37)"/><path d="M-48.1383 73.768C-48.1383 76.4484-50.323 78.6332-53.0035 78.6332L-64.3496 78.6332C-67.0301 78.6332-69.2148 76.4484-69.2148 73.768-69.2148 71.0875-67.0301 68.9027-64.3496 68.9027L-53.0035 68.9027C-50.323 68.9027-48.1383 71.0875-48.1383 73.768Z" fill="#4A4D4E" fill-rule="evenodd" transform="matrix(1 0 0 1.01064 1089 37)"/><path d="M-61.1 68.9027-61.1 72.1523C-61.1 73.0519-61.8344 73.768-62.7156 73.768-63.5969 73.768-64.3312 73.0336-64.3312 72.1523L-64.3312 68.9027-61.1 68.9027Z" fill="#CCCCCC" fill-rule="evenodd" transform="matrix(1 0 0 1.01064 1089 37)"/><path d="M-53.0035 68.9027-53.0035 72.1523C-53.0035 73.0519-53.7379 73.768-54.6191 73.768-55.5004 73.768-56.2348 73.0336-56.2348 72.1523L-56.2348 68.9027-53.0035 68.9027Z" fill="#CCCCCC" fill-rule="evenodd" transform="matrix(1 0 0 1.01064 1089 37)"/><path d="M-38.4078 41.3637C-38.4078 52.9852-47.8445 62.4219-59.466 62.4219-71.0875 62.4219-80.5242 52.9852-80.5242 41.3637-80.5242 29.7422-71.1059 20.3055-59.466 20.3055-47.8445 20.3055-38.4262 29.7238-38.4078 41.3637Z" fill="#CCCCCC" fill-rule="evenodd" transform="matrix(1 0 0 1.01064 1089 37)"/><path d="M-38.4078 41.3637C-38.4078 44.0992-38.9402 46.8164-39.9867 49.35-47.716 54.3254-57.7953 53.7012-64.8453 47.8262-71.8953 41.9512-74.3555 32.1656-70.8672 23.6469-64.3863 19.4793-56.143 19.1672-49.3684 22.8574-42.5938 26.5477-38.4078 33.6527-38.4078 41.3637Z" fill="#EBEBEB" fill-rule="evenodd" transform="matrix(1 0 0 1.01064 1089 37)"/><path d="M-51.3879 51.0758C-51.8102 51.0758-52.2324 50.9105-52.5262 50.5984L-60.6227 42.502C-60.9348 42.1898-61.1 41.7859-61.1 41.3637L-61.1 26.7863C-61.1 25.8867-60.3656 25.1707-59.4844 25.1707-58.6031 25.1707-57.8688 25.9051-57.8688 26.7863L-57.8688 40.7027-50.2313 48.3402C-49.7723 48.7992-49.6254 49.4969-49.8824 50.1027-50.1395 50.6902-50.727 51.0758-51.3879 51.0758L-51.3879 51.0758Z" fill="#4A4D4E" fill-rule="evenodd" transform="matrix(1 0 0 1.01064 1089 37)"/><path d="M-59.4844 64.0559C-72.0238 64.0559-82.1766 53.9031-82.1766 41.3637-82.1766 28.8242-72.0238 18.6715-59.4844 18.6715-46.9449 18.6715-36.7922 28.8242-36.7922 41.3637-36.8105 53.8848-46.9633 64.0375-59.4844 64.0559ZM-59.4844 21.9027C-70.2246 21.9027-78.9269 30.6051-78.9269 41.3453-78.9269 52.0855-70.2246 60.7879-59.4844 60.7879-48.7441 60.7879-40.0418 52.0855-40.0418 41.3453-40.0418 30.6234-48.7441 21.9211-59.4844 21.9027Z" fill="#666666" transform="matrix(1 0 0 1.01064 1089 37)"/></g></svg>