<svg width="307" height="325" xmlns="http://www.w3.org/2000/svg" xmlns:xlink="http://www.w3.org/1999/xlink" xml:space="preserve" overflow="hidden"><defs><clipPath id="clip0"><rect x="343" y="1603" width="307" height="325"/></clipPath></defs><g clip-path="url(#clip0)" transform="translate(-343 -1603)"><path d="M347 1865.5C347 1858.6 352.596 1853 359.5 1853L633.5 1853C640.403 1853 646 1858.6 646 1865.5L646 1915.5C646 1922.4 640.403 1928 633.5 1928L359.5 1928C352.596 1928 347 1922.4 347 1915.5Z" fill="#494D4E" fill-rule="evenodd"/><path d="M497 1870 504.111 1882.39 518 1885.29 508.434 1895.89 509.968 1910 496.949 1904.19 484.006 1910 485.515 1895.81 476 1885.29 489.966 1882.34Z" fill="#FFFFFF" fill-rule="evenodd"/><path d="M442 1870 449.111 1882.39 463 1885.29 453.434 1895.89 454.994 1910 441.949 1904.19 429.032 1910 430.515 1895.81 421 1885.29 434.966 1882.34Z" fill="#FFFFFF" fill-rule="evenodd"/><path d="M551.5 1870 558.442 1882.39 572 1885.29 562.661 1895.89 564.16 1910 551.45 1904.19 538.816 1910 540.289 1895.81 531 1885.29 544.609 1882.34Z" fill="#FFFFFF" fill-rule="evenodd"/><path d="M391 1870 398.137 1882.39 412 1885.29 402.459 1895.89 403.994 1910 390.949 1904.19 378.032 1910 379.541 1895.81 370 1885.29 383.966 1882.34Z" fill="#FFFFFF" fill-rule="evenodd"/><path d="M603 1870 610.136 1882.39 624 1885.29 614.459 1895.89 615.994 1910 602.974 1904.19 590.032 1910 591.541 1895.81 582 1885.29 595.966 1882.34Z" fill="#FFFFFF" fill-rule="evenodd"/><path d="M550 1703.6 605.241 1648 605.468 1648.23C632.937 1676.03 650 1714.28 650 1756.35 650 1784.13 642.557 1810.24 629.595 1832.8L629.468 1833 561.797 1793.66 562.025 1793.25C568.228 1782.37 571.797 1769.75 571.797 1756.35 571.797 1736.04 563.62 1717.57 550.456 1704.06Z" fill="#990000" fill-rule="evenodd"/><path d="M363.711 1833C350.543 1810.4 343 1784.2 343 1756.35 343 1714.15 360.311 1675.8 388.207 1648L444 1703.6C430.423 1717.13 421.985 1735.81 421.985 1756.35 421.985 1769.91 425.667 1782.67 432.085 1793.66Z" fill="#E60000" fill-rule="evenodd"/><path d="M496.5 1603C538.731 1603 577.135 1620.31 605 1648.21L549.321 1704C535.771 1690.42 517.067 1681.98 496.5 1681.98 476.163 1681.98 457.663 1690.22 444.138 1703.54L443.679 1704 388 1648.21 388.23 1647.98C416.069 1620.21 454.371 1603 496.5 1603Z" fill="#BD0000" fill-rule="evenodd"/><path d="M596 1784 516.66 1745 512.317 1761.06 508 1777.15Z" fill="#494D4E" fill-rule="evenodd"/><path d="M504.875 1726.45C521.555 1730.96 531.422 1748.13 526.914 1764.81 522.406 1781.49 505.23 1791.36 488.55 1786.85 471.871 1782.34 462.004 1765.17 466.512 1748.49 471.02 1731.81 488.195 1721.94 504.875 1726.45Z" fill="#666666" fill-rule="evenodd"/><path d="M357 1740.5C357 1724.21 370.208 1711 386.5 1711 402.792 1711 416 1724.21 416 1740.5 416 1756.79 402.792 1770 386.5 1770 370.208 1770 357 1756.79 357 1740.5Z" fill="#FFFFFF" fill-rule="evenodd"/><path d="M396.797 1752.75C394.955 1748.64 390.939 1746 386.513 1746 382.062 1746 378.045 1748.64 376.203 1752.75 375.692 1753.91 376.178 1755.27 377.303 1755.79 378.403 1756.32 379.734 1755.82 380.245 1754.67 381.371 1752.15 383.801 1750.56 386.513 1750.56 389.199 1750.56 391.629 1752.15 392.755 1754.67 393.266 1755.82 394.597 1756.32 395.697 1755.79 396.822 1755.27 397.308 1753.91 396.797 1752.75Z" fill="#666666" fill-rule="evenodd"/><path d="M404.805 1732.92C405.292 1731.89 404.831 1730.65 403.806 1730.18 402.78 1729.72 401.576 1730.18 401.089 1731.19 400.627 1732.22 399.628 1732.87 398.5 1732.87 397.372 1732.87 396.372 1732.22 395.911 1731.21 395.45 1730.18 394.219 1729.72 393.194 1730.18 392.169 1730.65 391.708 1731.89 392.194 1732.92 393.322 1735.4 395.783 1737 398.5 1737 401.217 1737 403.678 1735.4 404.805 1732.92Z" fill="#666666" fill-rule="evenodd"/><path d="M379.821 1732.92C380.282 1731.89 379.821 1730.65 378.797 1730.18 377.772 1729.72 376.568 1730.18 376.082 1731.19 375.621 1732.22 374.622 1732.87 373.495 1732.87 372.394 1732.87 371.369 1732.22 370.908 1731.21 370.447 1730.18 369.218 1729.72 368.193 1730.18 367.169 1730.65 366.708 1731.89 367.195 1732.92 368.321 1735.4 370.78 1737 373.495 1737 376.21 1737 378.694 1735.4 379.821 1732.92Z" fill="#666666" fill-rule="evenodd"/><path d="M467 1642.5C467 1626.21 480.208 1613 496.5 1613 512.792 1613 526 1626.21 526 1642.5 526 1658.79 512.792 1672 496.5 1672 480.208 1672 467 1658.79 467 1642.5Z" fill="#FFFFFF" fill-rule="evenodd"/><path d="M506.801 1651.9C504.961 1655.62 500.923 1658 496.502 1658 492.081 1658 488.043 1655.62 486.203 1651.9 485.692 1650.88 486.178 1649.66 487.302 1649.19 488.426 1648.72 489.755 1649.16 490.266 1650.2 491.365 1652.44 493.819 1653.9 496.502 1653.9 499.185 1653.9 501.639 1652.44 502.738 1650.2 503.249 1649.16 504.578 1648.72 505.702 1649.19 506.801 1649.66 507.312 1650.88 506.801 1651.9Z" fill="#666666" fill-rule="evenodd"/><path d="M578 1740.5C578 1724.21 591.207 1711 607.5 1711 623.792 1711 637 1724.21 637 1740.5 637 1756.79 623.792 1770 607.5 1770 591.207 1770 578 1756.79 578 1740.5Z" fill="#FFFFFF" fill-rule="evenodd"/><path d="M617.801 1749.34C615.935 1753.4 611.923 1756 607.502 1756 603.055 1756 599.043 1753.4 597.203 1749.34 596.692 1748.24 597.178 1746.9 598.302 1746.39 599.427 1745.87 615.578 1745.87 616.702 1746.39 617.801 1746.9 618.312 1748.24 617.801 1749.34Z" fill="#666666" fill-rule="evenodd"/><path d="M625.821 1734.08C626.282 1735.11 625.821 1736.35 624.797 1736.82 623.772 1737.28 622.568 1736.84 622.082 1735.81 621.621 1734.78 620.622 1734.13 619.495 1734.13 618.394 1734.13 617.369 1734.78 616.908 1735.81 616.447 1736.84 615.218 1737.28 614.193 1736.82 613.169 1736.35 612.708 1735.11 613.194 1734.08 614.321 1731.6 616.78 1730 619.495 1730 622.21 1730 624.669 1731.6 625.821 1734.08Z" fill="#666666" fill-rule="evenodd"/><path d="M601.821 1734.08C602.282 1735.11 601.821 1736.35 600.795 1736.82 599.77 1737.28 598.565 1736.84 598.104 1735.81 597.617 1734.78 596.617 1734.13 595.489 1734.13 594.387 1734.13 593.362 1734.78 592.9 1735.81 592.439 1736.84 591.208 1737.28 590.183 1736.82 589.158 1736.35 588.722 1735.11 589.183 1734.08 590.311 1731.6 592.772 1730 595.489 1730 598.207 1730 600.693 1731.6 601.821 1734.08Z" fill="#666666" fill-rule="evenodd"/><path d="M491.383 1634C492.276 1634 493 1634.9 493 1636L493 1636C493 1637.1 492.276 1638 491.383 1638L482.617 1638C481.724 1638 481 1637.1 481 1636L481 1636C481 1634.9 481.724 1634 482.617 1634Z" fill="#666666" fill-rule="evenodd"/><path d="M510.383 1634C511.276 1634 512 1634.9 512 1636L512 1636C512 1637.1 511.276 1638 510.383 1638L501.617 1638C500.724 1638 500 1637.1 500 1636L500 1636C500 1634.9 500.724 1634 501.617 1634Z" fill="#666666" fill-rule="evenodd"/></g></svg>