<svg width="94" height="94" xmlns="http://www.w3.org/2000/svg" xmlns:xlink="http://www.w3.org/1999/xlink" xml:space="preserve" overflow="hidden"><defs><clipPath id="clip0"><rect x="107" y="48" width="94" height="94"/></clipPath></defs><g clip-path="url(#clip0)" transform="translate(-107 -48)"><path d="M121.688 127.312 139.312 127.312 139.312 136.125 121.688 136.125 121.688 127.312Z" fill="#666666"/><path d="M121.688 127.312 127.562 127.312 127.562 136.125 121.688 136.125 121.688 127.312Z" fill="#4A4D4E"/><path d="M168.688 127.312 186.312 127.312 186.312 136.125 168.688 136.125 168.688 127.312Z" fill="#666666"/><path d="M168.688 127.312 174.562 127.312 174.562 136.125 168.688 136.125 168.688 127.312Z" fill="#4A4D4E"/><path d="M195.107 89.125 194.666 89.125C193.234 89.125 192.004 90.1715 191.765 91.5852L189.856 103.041C189.452 105.465 188.314 107.686 186.57 109.412L183.375 112.625 185.688 107.998C186.092 107.191 186.312 106.291 186.312 105.373L186.312 104.437C186.312 103.133 184.734 102.472 183.797 103.39L175.058 112.129C172.855 114.332 171.625 117.325 171.625 120.446L171.625 127.312 183.375 127.312 183.375 124.485C183.375 122.539 184.146 120.666 185.523 119.289L191.673 113.139C193.877 110.936 195.125 107.962 195.107 104.841 195.125 98.7453 195.107 89.125 195.107 89.125L195.107 89.125Z" fill="#E7A78F"/><path d="M112.875 89.125 113.316 89.125C114.748 89.125 115.978 90.1715 116.216 91.5852L118.126 103.041C118.53 105.465 119.668 107.686 121.412 109.412L124.625 112.625 122.312 107.998C121.908 107.191 121.688 106.291 121.688 105.373L121.688 104.437C121.688 103.133 123.266 102.472 124.203 103.39L132.942 112.129C135.145 114.332 136.375 117.325 136.375 120.446L136.375 127.312 124.625 127.312 124.625 124.485C124.625 122.539 123.854 120.666 122.477 119.289L116.327 113.139C114.123 110.936 112.875 107.962 112.875 104.841 112.875 98.7453 112.875 89.125 112.875 89.125L112.875 89.125Z" fill="#E7A78F"/><path d="M154 53.875C137.77 53.875 124.625 67.0203 124.625 83.25L118.548 83.25 127.361 95 136.173 83.25 130.5 83.25C130.5 70.2883 141.038 59.75 154 59.75 163.382 59.75 171.478 65.2945 175.242 73.2625L179.116 68.0852C173.975 59.5848 164.667 53.875 154 53.875L154 53.875Z" fill="#E60000"/><path d="M127.764 83.25C127.764 67.4426 140.249 54.591 155.891 53.9301 155.267 53.8934 154.643 53.875 154 53.875 137.77 53.875 124.625 67.0203 124.625 83.25L127.764 83.25Z" fill="#BD0000"/><path d="M121.688 83.25 118.548 83.25 127.361 95 128.939 92.907 121.688 83.25Z" fill="#BD0000"/><path d="M171.129 112.313C170.854 111.891 170.468 111.542 170.009 111.303L159.875 106.75 154 112.625 148.125 106.75 137.991 111.303C137.513 111.542 137.146 111.891 136.871 112.313 138.45 114.7 139.312 117.49 139.312 120.428L139.312 124.375 168.688 124.375 168.688 120.428C168.688 117.509 169.532 114.7 171.129 112.313Z" fill="#E60000"/><path d="M148.125 106.75 137.991 111.303C137.513 111.542 137.146 111.891 136.871 112.313 138.45 114.7 139.312 117.49 139.312 120.428L139.312 124.375 142.25 124.375 142.25 113.929C142.25 112.809 142.874 111.799 143.866 111.303L149.943 108.568 148.125 106.75Z" fill="#BD0000"/><path d="M180.236 71.5 171.423 83.25 177.5 83.25C177.5 93.0172 171.515 101.389 163.014 104.951L169.789 107.998C177.941 102.784 183.375 93.6598 183.375 83.25L189.048 83.25 180.236 71.5Z" fill="#666666"/><path d="M132.593 92.907 128.682 98.1211C131.032 102.123 134.319 105.502 138.211 107.998L144.986 104.951C139.496 102.637 135.053 98.323 132.593 92.907L132.593 92.907Z" fill="#666666"/><path d="M179.299 83.25 177.5 83.25C177.5 93.0172 171.478 101.389 162.978 104.914L163.841 105.3C172.837 102.013 179.299 93.3844 179.299 83.25L179.299 83.25Z" fill="#4A4D4E"/><path d="M181.135 72.7117 180.236 71.5 171.423 83.25 173.222 83.25 181.135 72.7117Z" fill="#4A4D4E"/><path d="M130.5 98.1211 133.327 94.3574C133.07 93.8801 132.832 93.4027 132.611 92.907L128.701 98.1211C131.051 102.123 134.337 105.502 138.229 107.998L139.312 107.521C135.714 105.061 132.703 101.866 130.5 98.1211Z" fill="#4A4D4E"/><path d="M148.125 106.75 148.125 100.379 159.875 100.379 159.875 106.75 154 112.625 148.125 106.75Z" fill="#B76444"/><path d="M168.688 86.1875 165.75 86.1875 165.75 77.375C165.75 75.7594 164.428 74.4375 162.812 74.4375L145.188 74.4375C143.572 74.4375 142.25 75.7594 142.25 77.375L142.25 86.1875 139.312 86.1875C137.697 86.1875 136.375 87.5094 136.375 89.125L136.375 90.2449C136.375 91.3648 136.999 92.3746 137.991 92.8703L142.25 95 142.25 95.4957C142.25 97.0563 142.874 98.5434 143.976 99.6449L146.418 102.087C147.519 103.188 149.006 103.812 150.567 103.812L157.452 103.812C159.012 103.812 160.499 103.188 161.601 102.087L164.043 99.6449C165.144 98.5434 165.768 97.0563 165.768 95.4957L165.768 95 170.028 92.8703C171.019 92.3746 171.643 91.3465 171.643 90.2449L171.643 89.125C171.625 87.5094 170.303 86.1875 168.688 86.1875L168.688 86.1875Z" fill="#CC7851"/><path d="M168.688 89.125C165.438 89.125 162.812 86.4996 162.812 83.25L162.812 74.4375 165.75 74.4375C167.366 74.4375 168.688 75.7594 168.688 77.375L168.688 89.125Z" fill="#333333"/><path d="M159.875 68.5625 148.125 68.5625C143.26 68.5625 139.312 72.5098 139.312 77.375L139.312 83.25C139.312 84.8656 140.634 86.1875 142.25 86.1875L149.63 86.1875C154.312 86.1875 158.792 84.3332 162.096 81.0285L164.024 79.1008C165.126 77.9992 165.75 76.5121 165.75 74.9516L165.75 74.4375C165.75 71.1879 163.125 68.5625 159.875 68.5625L159.875 68.5625Z" fill="#4A4D4E"/><path d="M151.062 90.5938C151.062 91.4049 150.405 92.0625 149.594 92.0625 148.783 92.0625 148.125 91.4049 148.125 90.5938 148.125 89.7826 148.783 89.125 149.594 89.125 150.405 89.125 151.062 89.7826 151.062 90.5938Z" fill="#AA4425"/><path d="M159.875 90.5938C159.875 91.4049 159.217 92.0625 158.406 92.0625 157.595 92.0625 156.938 91.4049 156.938 90.5938 156.938 89.7826 157.595 89.125 158.406 89.125 159.217 89.125 159.875 89.7826 159.875 90.5938Z" fill="#AA4425"/><path d="M154 98.6719C153.064 98.6719 152.127 98.3047 151.411 97.607L150.548 96.7441C150.255 96.4504 150.255 95.9914 150.548 95.6977 150.842 95.4039 151.301 95.4039 151.595 95.6977L152.458 96.5605C153.321 97.4234 154.716 97.4234 155.579 96.5605L156.442 95.6977C156.736 95.4039 157.195 95.4039 157.488 95.6977 157.782 95.9914 157.782 96.4504 157.488 96.7441L156.625 97.607C155.873 98.3047 154.936 98.6719 154 98.6719L154 98.6719Z" fill="#AA4425"/><path d="M87.5758 56.0598C84.7484 57.3449 82.7473 60.209 82.7473 63.5137 87.5207 67.3141 94.332 67.3141 99.1055 63.5137 99.1055 60.209 97.1227 57.3449 94.277 56.0598 93.3773 56.7941 88.4938 56.7941 87.5758 56.0598Z" fill="#FFA10B" fill-rule="evenodd"/><path d="M90.5133 57.2164C93.3406 58.5016 95.4336 62.2469 95.4336 65.5516 96.7371 65.0742 97.9672 64.3949 99.1055 63.4953 99.1055 60.1906 97.1227 57.3266 94.277 56.0414 93.359 56.7758 92.184 57.2348 90.9172 57.2348 90.807 57.2348 90.6602 57.2348 90.5133 57.2164Z" fill="#D47600" fill-rule="evenodd"/><path d="M55.3367 155.2C52.6379 155.696 49.8473 155.953 47.0016 155.953 21.7023 155.953 1.19492 135.538 1.02969 110.275 0.864456 84.9574 21.4086 64.1746 46.7078 64.0094 46.818 64.0094 46.9465 64.0094 47.0566 64.0094 48.4703 64.0094 49.6086 65.166 49.6086 66.5797L49.6086 66.6348C49.6086 89.2168 67.9129 107.503 90.4766 107.503 91.8352 107.503 92.9367 108.604 92.9367 109.963L92.9367 109.981C92.9367 122.319 88.0898 133.5 80.177 141.761 80.0668 141.89 79.9199 141.963 79.7547 142 71.9887 143.689 59.1371 152.722 56.4566 154.686 56.1445 154.943 55.7773 155.127 55.3367 155.2L55.3367 155.2Z" fill="#4A4D4E"/><path d="M92.9918 109.981 47.0199 109.981C45.4961 109.981 44.266 108.751 44.266 107.227L44.266 66.7816C44.266 65.2578 45.4961 64.0277 47.0016 64.0277L47.0383 64.0277C72.4109 64.0094 92.9918 84.5902 92.9918 109.981Z" fill="#EBEBEB"/><path d="M44.1375 107.136C45.7164 107.136 47.0016 108.421 47.0016 110L47.0016 155.953C21.6105 155.953 1.02969 135.372 1.02969 109.981 1.02969 109.963 1.02969 109.963 1.02969 109.945 1.02969 108.384 2.31484 107.136 3.87539 107.136L44.1375 107.136 44.1375 107.136Z" fill="#E60000"/><path d="M47.0016 64.0094 47.0016 109.981 1.02969 109.981C1.04805 84.5902 21.6289 64.0094 47.0016 64.0094Z" fill="#BD0000"/><path d="M55.2633 109.981 55.2633 107.117C55.2633 99.9387 61.0832 94.1004 68.2801 94.1004L72.2824 94.1004C79.4609 94.1004 85.2992 99.9203 85.2992 107.117L85.2992 109.981 55.2633 109.981Z" fill="#E60000"/><path d="M61.891 107.044 61.891 109.981 55.2816 109.981 55.2816 107.117C55.2816 99.9387 61.1016 94.1004 68.2984 94.1004L71.8602 94.1004C66.132 95.4957 61.891 100.765 61.891 107.044L61.891 107.044Z" fill="#BD0000"/><path d="M84.9137 80.7164 84.9137 81.7996C84.9137 83.3051 83.702 84.5168 82.1965 84.5168 80.691 84.5168 79.4793 83.3051 79.4793 81.7996L79.4793 80.7164C79.4793 79.2109 80.691 77.9992 82.1965 77.9992 83.702 78.0176 84.9137 79.2293 84.9137 80.7164Z" fill="#B76444"/><path d="M82.2148 75.8512 82.2148 80.184C82.2148 85.4715 78.7633 89.9695 73.9898 91.5117L73.9898 94.3941C73.9898 96.432 72.3375 98.1027 70.2812 98.1027 68.2434 98.1027 66.5727 96.4504 66.5727 94.3941L66.5727 91.5117C63.1395 90.3918 60.4039 87.7664 59.1188 84.4066 58.8801 84.4801 58.623 84.5168 58.3477 84.5168 56.8422 84.5168 55.6305 83.3051 55.6305 81.7996L55.6305 80.7164C55.6305 79.2109 56.8422 77.9992 58.3477 77.9992L58.3477 75.8512C58.3477 69.2602 63.6902 63.9359 70.2629 63.9359 76.8723 63.9176 82.2148 69.2602 82.2148 75.8512L82.2148 75.8512Z" fill="#CC7851"/><path d="M57.2645 80.184 57.2645 82.3504C57.2645 83.2316 57.6867 84.0211 58.3477 84.5168 56.8422 84.5168 55.6305 83.3051 55.6305 81.7996L55.6305 80.7164C55.6305 79.2109 56.8422 77.9992 58.3477 77.9992 57.7051 78.5133 57.2645 79.2844 57.2645 80.184ZM61.6156 80.184 61.6156 75.8512C61.6156 69.8109 66.0953 64.8355 71.9152 64.0461 71.3828 63.9727 70.832 63.9359 70.2812 63.9359 63.6902 63.9359 58.366 69.2785 58.366 75.8512L58.366 80.184C58.366 86.775 63.7086 92.0992 70.2812 92.0992 70.832 92.0992 71.3828 92.0625 71.9152 91.9891 66.0953 91.1996 61.6156 86.2059 61.6156 80.184ZM71.2543 79.5965C70.9973 79.8535 70.6668 80.0004 70.2996 80.0004 69.9324 80.0004 69.602 79.8535 69.3449 79.5965 69.0328 79.2844 68.5188 79.2844 68.1883 79.5965 67.8578 79.9086 67.8762 80.4227 68.1883 80.7531 68.7574 81.3223 69.4918 81.6344 70.2996 81.6344 71.1074 81.6344 71.8418 81.3223 72.4109 80.7531 72.7231 80.441 72.7231 79.927 72.4109 79.5965 72.0805 79.2844 71.5664 79.2844 71.2543 79.5965ZM74.1184 84.5719C73.8062 84.2598 73.2922 84.2598 72.9617 84.5719 71.493 86.0406 69.0879 86.0406 67.6008 84.5719 67.2887 84.2598 66.7746 84.2598 66.4441 84.5719 66.132 84.884 66.132 85.398 66.4441 85.7285 67.4906 86.775 68.8859 87.3074 70.2629 87.3074 71.6398 87.3074 73.0352 86.775 74.0816 85.7285 74.4305 85.398 74.4305 84.884 74.1184 84.5719L74.1184 84.5719Z" fill="#B76444"/><path d="M58.366 75.1719C58.7148 68.893 63.9105 63.9176 70.2629 63.9176 76.6152 63.9176 81.8109 68.893 82.1598 75.1719 79.4793 72.1977 75.1465 70.2699 70.2629 70.2699 65.3977 70.2699 61.0648 72.1977 58.366 75.1719Z" fill="#4A4D4E"/><path d="M62.4969 72.0691C60.8996 72.877 59.5043 73.9234 58.3844 75.1719 58.7332 68.893 63.9289 63.9176 70.2812 63.9176 70.8871 63.9176 71.4746 63.9543 72.0437 64.0461 67.5641 64.707 63.8922 67.8832 62.4969 72.0691L62.4969 72.0691Z" fill="#333333"/><path d="M40.6309 79.1191C40.6309 88.5926 32.9566 96.2852 23.4648 96.2852 13.973 96.2852 6.29883 88.6109 6.29883 79.1191 6.29883 69.6273 13.9914 61.9531 23.4648 61.9531 32.9383 61.9531 40.6309 69.6273 40.6309 79.1191L40.6309 79.1191Z" fill="#4A4D4E"/><path d="M27.0633 95.8996C25.9066 96.1383 24.6949 96.2668 23.4648 96.2668 13.9914 96.2668 6.29883 88.5742 6.29883 79.1008 6.29883 72.2895 10.2645 66.4145 15.9926 63.6422 13.3305 66.9285 11.6414 71.2246 11.6414 75.943 11.6414 85.5816 18.8199 93.1824 27.1184 94.4676 27.7059 94.5594 28.532 95.5875 27.0633 95.8996L27.0633 95.8996Z" fill="#4A4D4E"/><path d="M38.4828 107.227 38.4828 109.981 8.44688 109.981 8.44688 107.227C8.44688 100.049 14.2668 94.2105 21.4637 94.2105L25.466 94.2105C32.6629 94.2289 38.4828 100.049 38.4828 107.227L38.4828 107.227Z" fill="#E60000"/><path d="M14.3035 107.227 14.3035 109.981 8.44688 109.981 8.44688 107.227C8.44688 100.049 14.2668 94.2105 21.4637 94.2105L25.466 94.2105C25.7781 94.2105 26.0902 94.2289 26.384 94.2473 19.6461 94.7246 14.3035 100.361 14.3035 107.227Z" fill="#BD0000"/><path d="M38.0789 80.8266 38.0789 81.9098C38.0789 83.4152 36.8672 84.627 35.3617 84.627 33.8563 84.627 32.6445 83.4152 32.6445 81.9098L32.6445 80.8266C32.6445 79.3211 33.8563 78.1094 35.3617 78.1094 36.8856 78.1277 38.0789 79.3395 38.0789 80.8266Z" fill="#D88867"/><path d="M35.3984 75.9613 35.3984 80.2941C35.3984 85.5816 31.9469 90.0797 27.1734 91.6219L27.1734 94.5043C27.1734 96.5422 25.5211 98.2129 23.4648 98.2129 21.4269 98.2129 19.7562 96.5605 19.7562 94.5043L19.7562 91.6219C16.3231 90.502 13.5875 87.8766 12.3023 84.5168 12.0637 84.5902 11.8066 84.627 11.5312 84.627 10.0258 84.627 8.81406 83.4152 8.81406 81.9098L8.81406 80.8266C8.81406 79.3211 10.0258 78.1094 11.5312 78.1094L11.5312 75.9613C11.5312 69.3703 16.8738 64.0461 23.4465 64.0461 30.0191 64.0461 35.3984 69.3703 35.3984 75.9613Z" fill="#E7A78F"/><path d="M10.4664 80.2941 10.4664 82.4605C10.4664 83.3418 10.8887 84.1313 11.5496 84.627 10.0441 84.627 8.83242 83.4152 8.83242 81.9098L8.83242 80.8266C8.83242 79.3211 10.0441 78.1094 11.5496 78.1094 10.8887 78.6234 10.4664 79.4129 10.4664 80.2941ZM14.7992 80.2941 14.7992 75.9613C14.7992 69.9211 19.2789 64.9457 25.0988 64.1562 24.5664 64.0828 24.0156 64.0461 23.4648 64.0461 16.8738 64.0461 11.5496 69.3887 11.5496 75.9613L11.5496 80.2941C11.5496 86.8852 16.8922 92.2094 23.4648 92.2094 24.0156 92.2094 24.5664 92.1727 25.0988 92.0992 19.2789 91.3098 14.7992 86.316 14.7992 80.2941ZM24.4012 79.725C24.1441 79.982 23.8137 80.1289 23.4465 80.1289 23.0793 80.1289 22.7488 79.982 22.4918 79.725 22.1797 79.4129 21.6656 79.4129 21.3352 79.725 21.023 80.0371 21.023 80.5512 21.3352 80.8816 21.9043 81.4508 22.6387 81.7629 23.4465 81.7629 24.2543 81.7629 24.9887 81.4508 25.5578 80.8816 25.8699 80.5695 25.8699 80.0555 25.5578 79.725 25.2641 79.3945 24.75 79.3945 24.4012 79.725ZM27.3019 84.682C26.9898 84.3699 26.4758 84.3699 26.1453 84.682 24.6766 86.1508 22.2715 86.1508 20.7844 84.682 20.4723 84.3699 19.9582 84.3699 19.6277 84.682 19.3156 84.9941 19.3156 85.5082 19.6277 85.8387 20.6742 86.8852 22.0695 87.4176 23.4465 87.4176 24.8234 87.4176 26.2188 86.8852 27.2652 85.8387 27.6141 85.5266 27.6141 85.0125 27.3019 84.682L27.3019 84.682Z" fill="#D88867"/><path d="M25.7598 69.352 25.2273 72.877C25.1906 73.1707 24.9152 73.4094 24.6215 73.4094L11.825 73.4094C12.5961 67.8648 17.7734 63.6789 23.4648 63.6789 29.1746 63.6789 35.1047 68.1035 35.1047 73.4094L29.4133 73.4094C29.1746 73.4094 28.9727 73.2809 28.8625 73.0605L26.9164 69.1684C26.8063 68.9664 26.6043 68.8195 26.3656 68.8195 26.0535 68.8195 25.8148 69.0398 25.7598 69.352L25.7598 69.352Z" fill="#4A4D4E"/><path d="M65.1406 78.2746C64.241 78.2746 63.5066 77.5402 63.5066 76.6406 63.5066 75.741 64.241 75.0066 65.1406 75.0066 66.0402 75.0066 66.7746 75.741 66.7746 76.6406 66.7746 77.5586 66.0402 78.2746 65.1406 78.2746ZM77.0559 76.659C77.0559 75.7594 76.3215 75.025 75.4219 75.025 74.5223 75.025 73.7879 75.7594 73.7879 76.659 73.7879 77.5586 74.5223 78.293 75.4219 78.293 76.3398 78.2746 77.0559 77.5586 77.0559 76.659ZM18.3242 75.1535C17.4246 75.1535 16.6902 75.8879 16.6902 76.7875 16.6902 77.6871 17.4246 78.4215 18.3242 78.4215 19.2238 78.4215 19.9582 77.6871 19.9582 76.7875 19.9582 75.8879 19.2238 75.1535 18.3242 75.1535ZM30.2394 76.7691C30.2394 77.6687 29.5051 78.4031 28.6055 78.4031 27.7059 78.4031 26.9715 77.6687 26.9715 76.7691 26.9715 75.8695 27.7059 75.1352 28.6055 75.1352 29.5051 75.1535 30.2394 75.8695 30.2394 76.7691Z" fill="#400E0A"/><path d="M36.4816 120.005 36.4816 139.742C36.4816 140.77 35.6371 141.614 34.609 141.614L12.3391 141.614C11.3109 141.614 10.4664 140.77 10.4664 139.742L10.4664 120.005C10.4664 112.827 16.2863 106.989 23.4832 106.989 30.6434 106.989 36.4816 112.809 36.4816 120.005Z" fill="#333333"/><path d="M17.0207 141.614 12.3391 141.614C11.3109 141.614 10.4664 140.77 10.4664 139.742L10.4664 120.005C10.4664 112.827 16.2863 106.989 23.4832 106.989 24.291 106.989 25.0621 107.062 25.8332 107.191 19.7562 108.292 15.1664 113.598 15.1664 119.987L15.1664 139.723C15.148 140.77 15.9742 141.614 17.0207 141.614Z" fill="#4A4D4E"/><path d="M38.4828 152.024 38.4828 155.164C28.7891 153.346 20.1785 148.481 13.6609 141.614 15.8273 139.98 18.5445 139.026 21.4637 139.026L25.466 139.026C32.6629 139.026 38.4828 144.846 38.4828 152.024L38.4828 152.024Z" fill="#4A4D4E"/><path d="M38.4828 153.089C31.7082 150.482 25.668 146.223 20.7844 140.77 21.6656 140.054 22.6387 139.466 23.6852 139.026L25.466 139.026C32.6445 139.026 38.4828 144.846 38.4828 152.043L38.4828 153.089Z" fill="#666666"/><path d="M38.0789 125.642 38.0789 126.725C38.0789 128.23 36.8672 129.442 35.3617 129.442 33.8563 129.442 32.6445 128.23 32.6445 126.725L32.6445 125.642C32.6445 124.136 33.8563 122.925 35.3617 122.925 36.8672 122.925 38.0789 124.136 38.0789 125.642Z" fill="#8B2D15"/><path d="M35.3984 120.758 35.3984 125.091C35.3984 130.379 31.9469 134.877 27.1734 136.419L27.1734 139.301C27.1734 141.339 25.5211 143.01 23.4648 143.01 21.4086 143.01 19.7562 141.357 19.7562 139.301L19.7562 136.419C16.3231 135.299 13.5875 132.673 12.3023 129.314 12.0637 129.387 11.8066 129.424 11.5312 129.424 10.0258 129.424 8.81406 128.212 8.81406 126.707L8.81406 125.623C8.81406 124.118 10.0258 122.906 11.5312 122.906L11.5312 120.74C11.5312 114.149 16.8738 108.825 23.4465 108.825 30.0559 108.843 35.3984 114.167 35.3984 120.758Z" fill="#AA4425"/><path d="M10.4664 125.091 10.4664 127.257C10.4664 128.139 10.8887 128.928 11.5496 129.424 10.0441 129.424 8.83242 128.212 8.83242 126.707L8.83242 125.623C8.83242 124.118 10.0441 122.906 11.5496 122.906 10.8887 123.42 10.4664 124.21 10.4664 125.091ZM14.7992 125.091 14.7992 120.758C14.7992 114.718 19.2789 109.743 25.0988 108.953 24.5664 108.88 24.0156 108.843 23.4648 108.843 16.8738 108.843 11.5496 114.186 11.5496 120.758L11.5496 125.091C11.5496 131.682 16.8922 137.006 23.4648 137.006 24.0156 137.006 24.5664 136.97 25.0988 136.896 19.2789 136.107 14.7992 131.131 14.7992 125.091ZM24.4012 124.522C24.1441 124.779 23.8137 124.926 23.4465 124.926 23.0793 124.926 22.7488 124.779 22.4918 124.522 22.1797 124.21 21.6656 124.21 21.3352 124.522 21.023 124.834 21.023 125.348 21.3352 125.679 21.9043 126.248 22.6387 126.56 23.4465 126.56 24.2543 126.56 24.9887 126.248 25.5578 125.679 25.8699 125.366 25.8699 124.852 25.5578 124.522 25.2641 124.21 24.75 124.21 24.4012 124.522ZM27.3019 129.497C26.9898 129.185 26.4758 129.185 26.1453 129.497 24.6766 130.966 22.2715 130.966 20.7844 129.497 20.4723 129.185 19.9582 129.185 19.6277 129.497 19.3156 129.809 19.3156 130.323 19.6277 130.654 20.6742 131.7 22.0695 132.233 23.4465 132.233 24.8234 132.233 26.2188 131.7 27.2652 130.654 27.6141 130.323 27.6141 129.809 27.3019 129.497L27.3019 129.497Z" fill="#8B2D15"/><path d="M35.0496 118.188C32.1121 118.188 29.5602 116.609 28.1648 114.259 25.8699 116.682 22.6387 118.188 19.0402 118.188 16.5984 118.188 14.3402 117.49 12.4125 116.297 13.2203 111.964 20.8578 108.054 23.4832 107.888 29.193 107.888 35.3984 112.735 35.123 118.188 35.068 118.188 35.0496 118.188 35.0496 118.188Z" fill="#333333"/><path d="M15.35 117.655C14.3035 117.343 13.3121 116.884 12.3941 116.315 12.3941 112.037 18.3609 107.962 23.3363 107.907 19.2422 109.541 16.1578 113.194 15.35 117.655Z" fill="#333333"/><path d="M72.3008 139.026C75.2934 139.026 78.0656 140.036 80.2688 141.743 74.357 148.683 65.4527 153.75 55.2816 155.219L55.2816 152.043C55.2816 144.864 61.1016 139.026 68.2984 139.026L72.3008 139.026 72.3008 139.026Z" fill="#BD0000"/><path d="M61.3219 153.879C59.3758 154.466 57.3563 154.907 55.2816 155.2L55.2816 152.024C55.2816 144.846 61.1016 139.007 68.2984 139.007L70.4465 139.007C65.1406 140.862 61.3219 145.929 61.3219 151.877L61.3219 153.879 61.3219 153.879Z" fill="#BD0000"/><path d="M83.298 107.925 83.298 118.059C83.298 118.573 82.8758 118.996 82.3617 118.996L58.2191 118.996C57.7051 118.996 57.2828 118.573 57.2828 118.059 57.2828 111.946 62.2398 106.989 68.3535 106.989L82.3617 106.989C82.8758 106.989 83.298 107.411 83.298 107.925Z" fill="#666666"/><path d="M84.9137 125.642 84.9137 126.725C84.9137 128.23 83.702 129.442 82.1965 129.442 80.691 129.442 79.4793 128.23 79.4793 126.725L79.4793 125.642C79.4793 124.136 80.691 122.925 82.1965 122.925 83.702 122.925 84.9137 124.136 84.9137 125.642Z" fill="#D78767"/><path d="M82.2148 120.758 82.2148 125.091C82.2148 130.379 78.7633 134.877 73.9898 136.419L73.9898 139.301C73.9898 141.339 72.3375 143.01 70.2812 143.01 68.2434 143.01 66.5727 141.357 66.5727 139.301L66.5727 136.419C63.1395 135.299 60.4039 132.673 59.1188 129.314 58.8801 129.387 58.623 129.424 58.3477 129.424 56.8422 129.424 55.6305 128.212 55.6305 126.707L55.6305 125.623C55.6305 124.118 56.8422 122.906 58.3477 122.906L58.3477 120.74C58.3477 114.149 63.6902 108.825 70.2629 108.825 76.8723 108.843 82.2148 114.167 82.2148 120.758Z" fill="#E7A78F"/><path d="M57.2645 125.091 57.2645 127.257C57.2645 128.139 57.6867 128.928 58.3477 129.424 56.8422 129.424 55.6305 128.212 55.6305 126.707L55.6305 125.623C55.6305 124.118 56.8422 122.906 58.3477 122.906 57.7051 123.42 57.2645 124.21 57.2645 125.091ZM61.6156 125.091 61.6156 120.758C61.6156 114.718 66.0953 109.743 71.9152 108.953 71.3828 108.88 70.832 108.843 70.2812 108.843 63.6902 108.843 58.366 114.186 58.366 120.758L58.366 125.091C58.366 131.682 63.7086 137.006 70.2812 137.006 70.832 137.006 71.3828 136.97 71.9152 136.896 66.0953 136.107 61.6156 131.131 61.6156 125.091Z" fill="#D78767"/><path d="M68.1883 125.66C67.8762 125.348 67.8762 124.834 68.1883 124.504 68.5004 124.191 69.0145 124.191 69.3449 124.504 69.602 124.761 69.9324 124.907 70.2996 124.907 70.6668 124.907 70.9973 124.761 71.2543 124.504 71.5664 124.191 72.0805 124.191 72.4109 124.504 72.7414 124.816 72.7231 125.33 72.4109 125.66 71.8418 126.229 71.1074 126.541 70.2996 126.541 69.4918 126.541 68.7391 126.229 68.1883 125.66ZM74.1184 129.479C73.8062 129.167 73.2922 129.167 72.9617 129.479 71.493 130.948 69.0879 130.948 67.6008 129.479 67.2887 129.167 66.7746 129.167 66.4441 129.479 66.132 129.791 66.132 130.305 66.4441 130.636 67.4906 131.682 68.8859 132.214 70.2629 132.214 71.6398 132.214 73.0352 131.682 74.0816 130.636 74.4305 130.323 74.4305 129.809 74.1184 129.479L74.1184 129.479Z" fill="#D88867"/><path d="M82.0496 118.775C79.7363 118.335 77.6617 117.233 76.0461 115.654 74.3387 116.591 72.3742 117.123 70.2996 117.123 68.2066 117.123 66.2605 116.591 64.5531 115.654 62.9191 117.215 60.8445 118.335 58.5496 118.775 58.5496 113.176 64.4062 107.888 70.2996 107.888 76.193 107.888 82.2148 112.57 82.0496 118.775L82.0496 118.775Z" fill="#666666"/><path d="M69.4 106.989C61.9461 109.981 63.2496 116.774 62.0746 117.509 61.0648 118.151 59.2105 118.83 58.4945 119.014 58.3477 119.051 58.109 119.014 58.0539 118.996 57.6133 118.922 57.2645 118.537 57.2645 118.059 57.2645 111.946 62.2215 106.989 68.3352 106.989L69.4 106.989Z" fill="#4A4D4E"/><path d="M18.3242 123.2C17.4246 123.2 16.6902 122.466 16.6902 121.566 16.6902 120.666 17.4246 119.932 18.3242 119.932 19.2238 119.932 19.9582 120.666 19.9582 121.566 19.9398 122.466 19.2238 123.2 18.3242 123.2ZM30.2394 121.566C30.2394 120.666 29.5051 119.932 28.6055 119.932 27.7059 119.932 26.9715 120.666 26.9715 121.566 26.9715 122.466 27.7059 123.2 28.6055 123.2 29.5051 123.2 30.2394 122.466 30.2394 121.566ZM66.7746 121.566C66.7746 120.666 66.0402 119.932 65.1406 119.932 64.241 119.932 63.5066 120.666 63.5066 121.566 63.5066 122.466 64.241 123.2 65.1406 123.2 66.0402 123.2 66.7746 122.466 66.7746 121.566ZM77.0559 121.566C77.0559 120.666 76.3215 119.932 75.4219 119.932 74.5223 119.932 73.7879 120.666 73.7879 121.566 73.7879 122.466 74.5223 123.2 75.4219 123.2 76.3398 123.2 77.0559 122.466 77.0559 121.566Z" fill="#400E0A"/><path d="M66.2238 75.025C66.6645 75.025 67.0316 75.3922 67.0316 75.8328 67.0316 76.2734 66.6645 76.6406 66.2238 76.6406 65.7832 76.6406 65.416 76.2734 65.416 75.8328 65.416 75.3922 65.7832 75.025 66.2238 75.025ZM75.7156 75.8512C75.7156 76.2918 76.0828 76.659 76.5234 76.659 76.9641 76.659 77.3313 76.2918 77.3313 75.8512 77.3313 75.4105 76.9641 75.0434 76.5234 75.0434 76.0828 75.025 75.7156 75.3922 75.7156 75.8512ZM18.5996 75.9613C18.5996 76.402 18.9668 76.7691 19.4074 76.7691 19.848 76.7691 20.2152 76.402 20.2152 75.9613 20.2152 75.5207 19.848 75.1535 19.4074 75.1535 18.9484 75.1535 18.5996 75.5023 18.5996 75.9613ZM29.707 75.1535C30.1477 75.1535 30.5148 75.5207 30.5148 75.9613 30.5148 76.402 30.1477 76.7691 29.707 76.7691 29.2664 76.7691 28.8992 76.402 28.8992 75.9613 28.8992 75.5207 29.248 75.1535 29.707 75.1535ZM18.5996 120.758C18.5996 121.199 18.9668 121.566 19.4074 121.566 19.848 121.566 20.2152 121.199 20.2152 120.758 20.2152 120.318 19.848 119.95 19.4074 119.95 18.9484 119.95 18.5996 120.318 18.5996 120.758ZM28.8809 120.758C28.8809 121.199 29.248 121.566 29.6887 121.566 30.1293 121.566 30.4965 121.199 30.4965 120.758 30.4965 120.318 30.1293 119.95 29.6887 119.95 29.248 119.95 28.8809 120.318 28.8809 120.758ZM65.416 120.758C65.416 121.199 65.7832 121.566 66.2238 121.566 66.6645 121.566 67.0316 121.199 67.0316 120.758 67.0316 120.318 66.6645 119.95 66.2238 119.95 65.7832 119.95 65.416 120.318 65.416 120.758ZM75.7156 120.758C75.7156 121.199 76.0828 121.566 76.5234 121.566 76.9641 121.566 77.3313 121.199 77.3313 120.758 77.3313 120.318 76.9641 119.95 76.5234 119.95 76.0828 119.95 75.7156 120.318 75.7156 120.758Z" fill="#B76544"/></g></svg>