<svg width="322" height="325" xmlns="http://www.w3.org/2000/svg" xmlns:xlink="http://www.w3.org/1999/xlink" xml:space="preserve" overflow="hidden"><defs><clipPath id="clip0"><rect x="3743" y="1656" width="322" height="325"/></clipPath></defs><g clip-path="url(#clip0)" transform="translate(-3743 -1656)"><path d="M4029.21 1768C4031.01 1768 4032.74 1768.72 4034.01 1769.99 4035.28 1771.27 4036 1773 4036 1774.8L4036 1974.2C4036 1976 4035.28 1977.73 4034.01 1979.01 4032.74 1980.28 4031.01 1981 4029.21 1981L3990.79 1981C3988.99 1981 3987.26 1980.28 3985.99 1979.01 3984.72 1977.73 3984 1976 3984 1974.2L3984 1774.8C3984 1773 3984.72 1771.27 3985.99 1769.99 3987.26 1768.72 3988.99 1768 3990.79 1768Z" fill="#E60000" fill-rule="evenodd"/><path d="M4018 1768 4029.27 1768C4031.05 1768 4032.77 1768.72 4034.03 1769.99 4035.29 1771.27 4036 1773 4036 1774.8L4036 1974.2C4036 1976 4035.29 1977.73 4034.03 1979.01 4032.77 1980.28 4031.05 1981 4029.27 1981L4018 1981C4019.79 1981 4021.5 1980.28 4022.76 1979.01 4024.02 1977.73 4024.73 1976 4024.73 1974.2L4024.73 1774.8C4024.73 1773 4024.02 1771.27 4022.76 1769.99 4021.5 1768.72 4019.79 1768 4018 1768Z" fill="#BD0000" fill-rule="evenodd"/><path d="M3911.21 1817C3913.01 1817 3914.74 1817.72 3916.01 1819 3917.28 1820.27 3918 1822.01 3918 1823.82L3918 1974.18C3918 1975.99 3917.28 1977.73 3916.01 1979 3914.74 1980.28 3913.01 1981 3911.21 1981L3872.8 1981C3870.99 1981 3869.27 1980.28 3867.99 1979 3866.72 1977.73 3866 1975.99 3866 1974.18L3866 1823.82C3866 1822.01 3866.72 1820.27 3867.99 1819 3869.27 1817.72 3870.99 1817 3872.8 1817Z" fill="#E60000" fill-rule="evenodd"/><path d="M3900 1817 3911.27 1817C3913.05 1817 3914.76 1817.72 3916.03 1819 3917.29 1820.27 3918 1822.01 3918 1823.82L3918 1974.18C3918 1975.99 3917.29 1977.73 3916.03 1979 3914.76 1980.28 3913.05 1981 3911.27 1981L3900 1981C3901.79 1981 3903.5 1980.28 3904.76 1979 3906.02 1977.73 3906.73 1975.99 3906.73 1974.18L3906.73 1823.82C3906.73 1822.01 3906.02 1820.27 3904.76 1819 3903.5 1817.72 3901.79 1817 3900 1817Z" fill="#BD0000" fill-rule="evenodd"/><path d="M3794.21 1874C3796.01 1874 3797.74 1874.72 3799.01 1876 3800.28 1877.28 3801 1879.02 3801 1880.84L3801 1974.16C3801 1975.98 3800.28 1977.72 3799.01 1979 3797.74 1980.28 3796.01 1981 3794.21 1981L3755.79 1981C3753.99 1981 3752.26 1980.28 3750.99 1979 3749.72 1977.72 3749 1975.98 3749 1974.16L3749 1880.84C3749 1879.02 3749.72 1877.28 3750.99 1876 3752.26 1874.72 3753.99 1874 3755.79 1874Z" fill="#E60000" fill-rule="evenodd"/><path d="M3783 1874 3794.27 1874C3796.05 1874 3797.77 1874.72 3799.03 1876 3800.29 1877.28 3801 1879.02 3801 1880.84L3801 1974.16C3801 1975.98 3800.29 1977.72 3799.03 1979 3797.77 1980.28 3796.05 1981 3794.27 1981L3783 1981C3784.79 1981 3786.5 1980.28 3787.76 1979 3789.02 1977.72 3789.73 1975.98 3789.73 1974.16L3789.73 1880.84C3789.73 1879.02 3789.02 1877.28 3787.76 1876 3786.5 1874.72 3784.79 1874 3783 1874Z" fill="#BD0000" fill-rule="evenodd"/><path d="M3995.26 1710.14 4009.5 1660 4023.74 1710.14 4054 1687.97 4045.24 1736 3973.76 1736 3965 1687.97Z" fill="#666666" fill-rule="evenodd"/><path d="M3965.67 1691.67 3965 1687.97 3995.26 1710.14 3994.51 1712.79ZM4007.32 1667.69 4009.5 1660 4023.74 1710.14 4020.13 1712.79ZM4048.96 1691.67 4054 1687.97 4045.24 1736 4040.87 1736Z" fill="#4A4D4E" fill-rule="evenodd"/><path d="M4052 1738.5C4052 1743.74 4047.79 1748 4042.59 1748L3976.4 1748C3971.21 1748 3967 1743.74 3967 1738.5 3967 1733.26 3971.21 1729 3976.4 1729L4042.59 1729C4047.79 1729 4052 1733.26 4052 1738.5Z" fill="#666666" fill-rule="evenodd"/><path d="M3969 1733.54C3970.62 1730.83 3973.62 1729 3977.06 1729L4042.68 1729C4047.82 1729 4052 1733.08 4052 1738.12 4052 1741.48 4050.13 1744.42 4047.35 1746 4048.15 1744.66 4048.61 1743.09 4048.61 1741.43 4048.61 1736.4 4044.44 1732.31 4039.29 1732.31L3973.68 1732.31C3971.97 1732.31 3970.38 1732.76 3969 1733.54Z" fill="#333333" fill-rule="evenodd"/><path d="M4020 1666.5C4020 1672.3 4015.52 1677 4010 1677 4004.48 1677 4000 1672.3 4000 1666.5 4000 1660.7 4004.48 1656 4010 1656 4015.52 1656 4020 1660.7 4020 1666.5Z" fill="#4A4D4E" fill-rule="evenodd"/><path d="M4008 1656.2C4008.63 1656.07 4009.28 1656 4009.95 1656 4015.5 1656 4020 1660.7 4020 1666.5 4020 1672.3 4015.5 1677 4009.95 1677 4009.28 1677 4008.63 1676.93 4008 1676.8 4012.62 1675.85 4016.1 1671.6 4016.1 1666.5 4016.1 1661.4 4012.62 1657.15 4008 1656.2Z" fill="#333333" fill-rule="evenodd"/><path d="M3975 1691C3975 1696.52 3970.52 1701 3965 1701 3959.48 1701 3955 1696.52 3955 1691 3955 1685.48 3959.48 1681 3965 1681 3970.52 1681 3975 1685.48 3975 1691Z" fill="#4A4D4E" fill-rule="evenodd"/><path d="M3963 1681.19C3963.63 1681.06 3964.28 1681 3964.95 1681 3970.5 1681 3975 1685.48 3975 1691 3975 1696.52 3970.5 1701 3964.95 1701 3964.28 1701 3963.63 1700.93 3963 1700.81 3967.62 1699.91 3971.1 1695.86 3971.1 1691 3971.1 1686.14 3967.62 1682.09 3963 1681.19Z" fill="#333333" fill-rule="evenodd"/><path d="M4065 1691C4065 1696.52 4060.3 1701 4054.5 1701 4048.7 1701 4044 1696.52 4044 1691 4044 1685.48 4048.7 1681 4054.5 1681 4060.3 1681 4065 1685.48 4065 1691Z" fill="#4A4D4E" fill-rule="evenodd"/><path d="M4052 1681.19C4052.68 1681.06 4053.39 1681 4054.11 1681 4060.12 1681 4065 1685.48 4065 1691 4065 1696.52 4060.12 1701 4054.11 1701 4053.39 1701 4052.68 1700.93 4052 1700.81 4057 1699.91 4060.78 1695.86 4060.78 1691 4060.78 1686.14 4057 1682.09 4052 1681.19Z" fill="#333333" fill-rule="evenodd"/><path d="M3772.56 1785.48C3772.81 1784.6 3773.6 1784 3774.5 1784 3775.4 1784 3776.19 1784.6 3776.44 1785.48L3782.78 1807.59 3804.54 1814.03C3805.41 1814.28 3806 1815.09 3806 1816 3806 1816.91 3805.41 1817.72 3804.54 1817.97L3782.78 1824.41 3776.44 1846.52C3776.19 1847.4 3775.4 1848 3774.5 1848 3773.6 1848 3772.81 1847.4 3772.56 1846.52L3766.22 1824.41 3744.46 1817.97C3743.59 1817.72 3743 1816.91 3743 1816 3743 1815.09 3743.59 1814.28 3744.46 1814.03L3766.22 1807.59Z" fill="#666666" fill-rule="evenodd"/><path d="M3772 1787.86 3772.68 1785.48C3772.93 1784.6 3773.72 1784 3774.61 1784 3775.51 1784 3776.3 1784.6 3776.55 1785.48L3782.86 1807.59 3804.55 1814.03C3805.41 1814.28 3806 1815.09 3806 1816 3806 1816.91 3805.41 1817.72 3804.55 1817.97L3782.86 1824.41 3776.55 1846.52C3776.3 1847.4 3775.51 1848 3774.61 1848 3773.72 1848 3772.93 1847.4 3772.68 1846.52L3772 1844.14 3777.63 1824.41 3799.32 1817.97C3800.18 1817.72 3800.77 1816.91 3800.77 1816 3800.77 1815.09 3800.18 1814.28 3799.32 1814.03L3777.63 1807.59Z" fill="#4A4D4E" fill-rule="evenodd"/><path d="M3893.39 1716.3 3903.07 1741.77C3903.34 1742.54 3904.03 1743.02 3904.85 1743.06L3932.08 1744.4C3933.92 1744.49 3934.69 1746.83 3933.25 1747.98L3912 1765.06C3911.35 1765.56 3911.1 1766.36 3911.31 1767.15L3918.46 1793.45C3918.94 1795.23 3916.96 1796.67 3915.41 1795.67L3892.61 1780.74C3891.92 1780.28 3891.08 1780.28 3890.39 1780.74L3867.58 1795.67C3866.03 1796.67 3864.04 1795.23 3864.54 1793.45L3871.7 1767.15C3871.9 1766.36 3871.63 1765.56 3871.01 1765.06L3849.76 1747.98C3848.31 1746.83 3849.07 1744.49 3850.93 1744.4L3878.16 1743.06C3878.97 1743.02 3879.64 1742.54 3879.94 1741.77L3889.62 1716.3C3890.27 1714.57 3892.74 1714.57 3893.39 1716.3Z" fill="#666666" fill-rule="evenodd"/><path d="M3923.54 1743.98 3932.09 1744.4C3933.92 1744.49 3934.69 1746.83 3933.26 1747.98L3912.17 1765.06C3911.53 1765.56 3911.28 1766.36 3911.48 1767.15L3918.58 1793.45C3919.06 1795.23 3917.09 1796.67 3915.55 1795.67L3909.7 1791.8 3902.93 1766.73C3902.73 1765.94 3902.98 1765.14 3903.62 1764.64L3924.71 1747.56C3926.14 1746.41 3925.39 1744.07 3923.54 1743.98ZM3893.7 1716.3 3903.31 1741.77C3903.58 1742.54 3904.24 1743.02 3905.05 1743.06L3896.52 1742.65C3895.71 1742.6 3895.03 1742.12 3894.76 1741.35L3887.64 1722.47 3889.96 1716.3C3890.61 1714.57 3893.06 1714.57 3893.7 1716.3ZM3892.93 1780.74C3892.25 1780.28 3891.42 1780.28 3890.73 1780.74L3868.09 1795.67C3866.55 1796.67 3864.58 1795.23 3865.08 1793.45L3865.68 1791.2 3886.14 1777.71C3886.81 1777.27 3887.64 1777.27 3888.32 1777.71Z" fill="#4A4D4E" fill-rule="evenodd"/></g></svg>