<svg width="331" height="325" xmlns="http://www.w3.org/2000/svg" xmlns:xlink="http://www.w3.org/1999/xlink" xml:space="preserve" overflow="hidden"><defs><clipPath id="clip0"><rect x="3617" y="104" width="331" height="325"/></clipPath></defs><g clip-path="url(#clip0)" transform="translate(-3617 -104)"><path d="M3736.73 242.209 3735.93 242.209C3735.13 242.209 3734.27 242.142 3733.47 242.076 3726.4 241.147 3721.07 235.704 3719.33 229 3715.87 230.593 3712.07 231.588 3708 231.588 3703.93 231.588 3700.13 230.593 3696.67 229 3694.93 235.704 3689.6 241.147 3682.53 242.076 3681.73 242.209 3680.93 242.209 3680.07 242.209L3679.27 242.209C3668.67 242.209 3660 250.838 3660 261.392L3660 290.001 3756 290.001 3756 261.392C3756 250.838 3747.33 242.209 3736.73 242.209L3736.73 242.209Z" fill="#A0705A" fill-rule="evenodd"/><path d="M3736.73 241.934 3735.93 241.934C3735.13 241.934 3734.27 241.868 3733.47 241.801 3732.33 241.668 3731.27 241.401 3730.27 241L3726.2 245.072C3721.4 249.879 3714.8 252.616 3708 252.616 3701.2 252.616 3694.6 249.879 3689.8 245.072L3685.73 241C3684.73 241.334 3683.67 241.601 3682.53 241.801 3681.73 241.934 3680.93 241.934 3680.07 241.934L3679.27 241.934C3668.67 241.934 3660 250.613 3660 261.228L3660 290.001 3756 290.001 3756 261.228C3756 250.613 3747.33 241.934 3736.73 241.934Z" fill="#E60000" fill-rule="evenodd"/><path d="M3735.63 241.928C3734.84 241.928 3733.97 241.862 3733.18 241.796 3732.05 241.663 3730.99 241.398 3729.99 241L3725.94 245.045C3721.16 249.82 3714.58 252.54 3707.81 252.54 3701.04 252.54 3694.46 249.82 3689.68 245.045L3685.63 241C3684.64 241.331 3683.57 241.597 3682.44 241.796 3681.65 241.928 3680.85 241.928 3679.99 241.928L3679.19 241.928C3668.63 241.928 3660 250.55 3660 261.094L3660 278.802C3661.79 278.868 3663.52 279 3665.31 279 3697.98 279 3726.74 264.941 3744 243.454 3741.68 242.459 3739.09 241.862 3736.43 241.862L3735.63 241.862 3735.63 241.928Z" fill="#990000" fill-rule="evenodd"/><path d="M3676 269 3687 269 3687 290 3676 290 3676 269Z" fill="#BD0000" fill-rule="evenodd"/><path d="M3708 232C3693.08 232 3681 220.067 3681 205.334L3681 194.667C3681 179.933 3693.08 168 3708 168 3722.92 168 3735 179.933 3735 194.667L3735 205.334C3735 220.067 3722.92 232 3708 232Z" fill="#BD8469" fill-rule="evenodd"/><path d="M3729 269 3740 269 3740 290 3729 290 3729 269Z" fill="#BD0000" fill-rule="evenodd"/><path d="M3885.73 242.209 3884.93 242.209C3884.13 242.209 3883.27 242.142 3882.47 242.076 3875.4 241.147 3870.07 235.704 3868.33 229 3864.87 230.593 3861.07 231.588 3857 231.588 3852.93 231.588 3849.13 230.593 3845.67 229 3843.93 235.704 3838.6 241.147 3831.53 242.076 3830.73 242.209 3829.93 242.209 3829.07 242.209L3828.27 242.209C3817.6 242.209 3809 250.838 3809 261.392L3809 290.001 3905 290.001 3905 261.392C3905 250.838 3896.33 242.209 3885.73 242.209L3885.73 242.209Z" fill="#A0705A" fill-rule="evenodd"/><path d="M3885.73 241.934 3884.93 241.934C3884.13 241.934 3883.27 241.868 3882.47 241.801 3881.33 241.668 3880.27 241.401 3879.27 241L3875.2 245.072C3870.4 249.879 3863.8 252.616 3857 252.616 3850.2 252.616 3843.6 249.879 3838.8 245.072L3834.73 241C3833.73 241.334 3832.67 241.601 3831.53 241.801 3830.73 241.934 3829.93 241.934 3829.07 241.934L3828.27 241.934C3817.6 241.934 3809 250.613 3809 261.228L3809 290.001 3905 290.001 3905 261.228C3905 250.613 3896.33 241.934 3885.73 241.934Z" fill="#E60000" fill-rule="evenodd"/><path d="M3885.53 241.928C3884.73 241.928 3883.85 241.862 3883.05 241.796 3881.91 241.663 3880.83 241.398 3879.82 241L3875.72 245.045C3870.89 249.82 3864.23 252.54 3857.38 252.54 3850.53 252.54 3843.87 249.82 3839.04 245.045L3834.94 241C3833.93 241.331 3832.85 241.597 3831.71 241.796 3830.91 241.928 3830.1 241.928 3829.23 241.928L3828.42 241.928C3817.67 241.928 3809 250.55 3809 261.094L3809 278.802C3810.81 278.868 3812.56 279 3814.38 279 3847.44 279 3876.53 264.941 3894 243.454 3891.65 242.459 3889.03 241.862 3886.34 241.862L3885.53 241.862 3885.53 241.928Z" fill="#990000" fill-rule="evenodd"/><path d="M3825 269 3836 269 3836 290 3825 290 3825 269Z" fill="#BD0000" fill-rule="evenodd"/><path d="M3857.5 232C3842.86 232 3831 220.067 3831 205.334L3831 194.667C3831 179.933 3842.86 168 3857.5 168 3872.14 168 3884 179.933 3884 194.667L3884 205.334C3884 220.067 3872.14 232 3857.5 232Z" fill="#BD8469" fill-rule="evenodd"/><path d="M3811.73 226.283 3810.93 226.283C3810.13 226.283 3809.27 226.216 3808.47 226.149 3801.4 225.215 3796.07 219.742 3794.33 213 3790.87 214.602 3787.07 215.603 3783 215.603 3778.93 215.603 3775.13 214.602 3771.67 213 3769.93 219.742 3764.6 225.215 3757.53 226.149 3756.73 226.283 3755.93 226.283 3755.07 226.283L3754.27 226.283C3743.6 226.283 3735 234.96 3735 245.572L3735 269 3831 269 3831 245.572C3831 234.96 3822.33 226.283 3811.73 226.283Z" fill="#A0705A" fill-rule="evenodd"/><path d="M3811.73 225.942 3810.93 225.942C3810.13 225.942 3809.27 225.874 3808.47 225.808 3807.33 225.673 3806.27 225.404 3805.27 225L3801.2 229.104C3796.4 233.948 3789.8 236.707 3783 236.707 3776.2 236.707 3769.6 233.948 3764.8 229.104L3760.73 225C3759.73 225.336 3758.67 225.606 3757.53 225.808 3756.73 225.942 3755.93 225.942 3755.07 225.942L3754.27 225.942C3743.6 225.942 3735 234.688 3735 245.386L3735 269 3831 269 3831 245.386C3831 234.688 3822.33 225.942 3811.73 225.942Z" fill="#E60000" fill-rule="evenodd"/><path d="M3810.63 225.953C3809.84 225.953 3808.97 225.885 3808.18 225.817 3807.05 225.681 3805.99 225.409 3804.99 225L3800.94 229.152C3796.16 234.053 3789.58 236.843 3782.81 236.843 3776.04 236.843 3769.46 234.053 3764.68 229.152L3760.63 225C3759.64 225.34 3758.57 225.613 3757.44 225.817 3756.65 225.953 3755.85 225.953 3754.99 225.953L3754.19 225.953C3743.57 225.953 3735 234.801 3735 245.623L3735 263.796C3736.79 263.864 3738.52 264 3740.31 264 3772.98 264 3801.74 249.571 3819 227.518 3816.68 226.497 3814.09 225.885 3811.43 225.885L3810.63 225.885 3810.63 225.953Z" fill="#990000" fill-rule="evenodd"/><path d="M3804 253 3815 253 3815 269.001 3804 269.001 3804 253Z" fill="#BD0000" fill-rule="evenodd"/><path d="M3751 253 3761 253 3761 269.001 3751 269.001 3751 253Z" fill="#BD0000" fill-rule="evenodd"/><path d="M3782.5 216C3767.86 216 3756 204.066 3756 189.333L3756 178.666C3756 163.933 3767.86 152 3782.5 152 3797.14 152 3809 163.933 3809 178.666L3809 189.333C3809 204.066 3797.14 216 3782.5 216Z" fill="#BD8469" fill-rule="evenodd"/><path d="M3803.89 364.637 3915.99 334.192C3924.88 331.793 3934.71 334.858 3939.66 342.586 3941.8 345.917 3943 349.781 3943 354.044L3943 359.375 3771.87 418.001 3739.78 407.341 3697 407.341 3697 322 3761.17 322 3803.89 364.637Z" fill="#BD8469" fill-rule="evenodd"/><path d="M3623 312 3665 312 3665 429 3623 429 3623 312Z" fill="#BD0000" fill-rule="evenodd"/><path d="M3665 312 3697 312 3697 418.001 3665 418.001 3665 312Z" fill="#E60000" fill-rule="evenodd"/><path d="M3787.6 390.001C3782.4 390.001 3777.14 388.02 3773.14 384.06L3746.5 357.659 3754.02 350.2 3780.67 376.602C3784.47 380.364 3790.66 380.364 3794.46 376.602 3798.26 372.84 3798.26 366.701 3794.46 362.939L3758.75 327.561 3697 327.561 3697 317 3760.95 317C3762.35 317 3763.75 317.528 3764.75 318.518L3802.05 355.48C3809.98 363.335 3809.98 376.206 3802.05 384.06 3798.06 388.02 3792.79 390.001 3787.6 390.001Z" fill="#A0705A" fill-rule="evenodd"/><path d="M3940.23 319.001 3930.09 315.745C3931.09 312.556 3932.02 309.3 3932.89 305.978L3943.24 308.503C3942.3 312.024 3941.3 315.546 3940.23 319.001L3940.23 319.001ZM3945.44 297.939 3934.89 296.078C3935.49 292.757 3935.96 289.435 3936.36 286.046L3946.97 287.242C3946.64 290.83 3946.11 294.418 3945.44 297.939L3945.44 297.939ZM3619.4 296.743C3618.8 293.222 3618.27 289.634 3617.93 285.98L3628.55 284.85C3628.88 288.239 3629.35 291.561 3629.95 294.883L3619.4 296.743ZM3947.84 276.412 3937.16 275.947C3937.3 273.556 3937.3 271.163 3937.3 268.772 3937.3 267.775 3937.3 266.778 3937.3 265.782L3947.97 265.582C3947.97 266.646 3947.97 267.709 3947.97 268.772 3948.04 271.297 3947.97 273.888 3947.84 276.412L3947.84 276.412ZM3617.13 275.15C3617.07 273.024 3617 270.898 3617 268.772 3617 267.31 3617 265.782 3617.07 264.32L3627.75 264.586C3627.68 265.981 3627.68 267.31 3627.68 268.705 3627.68 270.699 3627.75 272.692 3627.81 274.685L3617.13 275.15ZM3936.83 255.616C3936.56 252.228 3936.16 248.84 3935.63 245.518L3946.17 243.923C3946.71 247.511 3947.11 251.099 3947.44 254.686L3936.83 255.616ZM3628.35 254.487 3617.73 253.49C3618.07 249.903 3618.54 246.315 3619.07 242.727L3629.61 244.388C3629.08 247.71 3628.61 251.099 3628.35 254.487ZM3933.76 235.552C3933.02 232.229 3932.16 228.974 3931.22 225.718L3941.5 222.729C3942.5 226.184 3943.44 229.705 3944.17 233.226L3933.76 235.552ZM3631.55 234.422 3621.14 232.097C3621.94 228.575 3622.87 225.054 3623.87 221.599L3634.09 224.656C3633.15 227.845 3632.28 231.1 3631.55 234.422ZM3928.08 216.084C3926.95 212.896 3925.68 209.773 3924.28 206.65L3934.03 202.331C3935.49 205.587 3936.83 208.976 3938.1 212.364L3928.08 216.084ZM3637.36 215.022 3627.35 211.301C3628.61 207.913 3630.01 204.524 3631.48 201.269L3641.23 205.654C3639.83 208.71 3638.56 211.833 3637.36 215.022L3637.36 215.022ZM3919.88 197.548C3918.27 194.558 3916.61 191.568 3914.87 188.711L3924.01 183.197C3925.88 186.253 3927.68 189.442 3929.35 192.631L3919.88 197.548ZM3645.7 196.485 3636.29 191.502C3638.02 188.313 3639.83 185.124 3641.76 182.067L3650.84 187.648C3649.04 190.572 3647.3 193.495 3645.7 196.485L3645.7 196.485ZM3909.26 180.207C3907.33 177.416 3905.26 174.759 3903.12 172.101L3911.47 165.458C3913.74 168.248 3915.94 171.171 3918.01 174.094L3909.26 180.207ZM3656.44 179.211 3647.77 173.031C3649.9 170.108 3652.11 167.184 3654.38 164.394L3662.65 171.105C3660.52 173.762 3658.45 176.486 3656.44 179.211ZM3896.52 164.394C3894.25 161.869 3891.84 159.478 3889.37 157.152L3896.72 149.445C3899.39 151.97 3901.92 154.561 3904.32 157.152L3896.52 164.394ZM3669.39 163.531 3661.58 156.288C3664.12 153.631 3666.66 151.04 3669.26 148.582L3676.53 156.355C3674.13 158.614 3671.73 161.006 3669.39 163.531ZM3881.77 150.442C3879.16 148.249 3876.49 146.19 3873.76 144.196L3880.03 135.626C3882.97 137.752 3885.84 140.011 3888.64 142.336L3881.77 150.442ZM3684.28 149.645 3677.47 141.406C3680.27 139.081 3683.14 136.888 3686.08 134.828L3692.28 143.465C3689.62 145.392 3686.88 147.518 3684.28 149.645ZM3865.28 138.482C3862.41 136.689 3859.47 134.962 3856.47 133.367L3861.54 123.999C3864.75 125.726 3867.88 127.586 3870.95 129.513L3865.28 138.482ZM3700.83 137.818 3695.16 128.783C3698.23 126.856 3701.36 125.062 3704.57 123.334L3709.57 132.702C3706.63 134.364 3703.7 136.024 3700.83 137.818ZM3847.33 128.716C3844.26 127.32 3841.12 125.992 3837.92 124.796L3841.72 114.896C3845.06 116.159 3848.46 117.62 3851.8 119.149L3847.33 128.716ZM3718.78 128.251 3714.38 118.55C3717.65 117.089 3721.05 115.694 3724.45 114.432L3728.19 124.398C3724.99 125.593 3721.85 126.856 3718.78 128.251L3718.78 128.251ZM3828.31 121.474C3825.1 120.477 3821.76 119.614 3818.49 118.816L3820.96 108.452C3824.5 109.315 3828.04 110.245 3831.51 111.309L3828.31 121.474ZM3737.87 121.142 3734.8 110.977C3738.27 109.913 3741.81 108.983 3745.35 108.186L3747.75 118.55C3744.41 119.281 3741.07 120.145 3737.87 121.142ZM3808.48 116.756C3805.15 116.225 3801.81 115.76 3798.41 115.428L3799.47 104.864C3803.14 105.262 3806.75 105.728 3810.29 106.326L3808.48 116.756ZM3757.69 116.624 3755.96 106.126C3759.56 105.528 3763.17 105.063 3766.77 104.731L3767.84 115.295C3764.37 115.627 3761.03 116.092 3757.69 116.624L3757.69 116.624ZM3788.19 114.764C3786.19 114.697 3784.06 114.631 3782.05 114.631 3780.65 114.631 3779.32 114.631 3777.98 114.697L3777.65 104.067C3779.32 104 3780.92 104 3782.52 104 3784.52 104 3786.52 104.067 3788.53 104.133L3788.19 114.764Z" fill="#E60000" fill-rule="evenodd"/><path d="M3879 269 3889 269 3889 290 3879 290 3879 269Z" fill="#BD0000" fill-rule="evenodd"/></g></svg>