<svg width="130" height="95" xmlns="http://www.w3.org/2000/svg" xmlns:xlink="http://www.w3.org/1999/xlink" xml:space="preserve" overflow="hidden"><defs><clipPath id="clip0"><rect x="414" y="518" width="130" height="95"/></clipPath></defs><g clip-path="url(#clip0)" transform="translate(-414 -518)"><path d="M135.941 30.8881 16.3062 30.8881C14.6098 30.8255 13.1838 32.1501 13.1212 33.8465 13.1207 33.86 13.1203 33.8735 13.12 33.887L13.12 46.0135 15.8189 46.3134 136.654 46.3134 139.072 46.0135 139.072 33.887C139.03 32.1966 137.632 30.8566 135.941 30.8881Z" fill="#BD0000" transform="matrix(1 0 0 1.00846 400.843 487.059)"/><path d="M29.1638 33.887C29.2046 32.1898 30.6135 30.8473 32.3107 30.8881 32.3113 30.8881 32.312 30.8881 32.3126 30.8881L16.3062 30.8881C14.6098 30.8255 13.1838 32.1501 13.1212 33.8465 13.1207 33.86 13.1203 33.8735 13.12 33.887L13.12 46.0135 29.1263 46.0135Z" fill="#990000" transform="matrix(1 0 0 1.00846 400.843 487.059)"/><path d="M121.21 111.482C120.718 111.008 120.704 110.225 121.178 109.733 121.188 109.722 121.199 109.712 121.21 109.702L127.451 103.723C127.97 103.208 128.806 103.208 129.325 103.723L139.053 113.094 139.053 46.0135 13.12 46.0135 13.12 101.211C19.0239 108.708 20.7108 115.099 29.1263 119.954L130.15 119.954Z" fill="#CCCCCC" transform="matrix(1 0 0 1.00846 400.843 487.059)"/><path d="M29.1638 46.0135 13.12 46.0135 13.12 120.048 29.1263 120.048Z" fill="#AFAFAF" transform="matrix(1 0 0 1.00846 400.843 487.059)"/><path d="M35.7425 68.9922 35.7425 51.8426C35.7326 51.3251 35.305 50.9137 34.7876 50.9236 34.781 50.9238 34.7744 50.924 34.7679 50.9242L27.5519 50.9242C27.031 50.9135 26.5975 51.3221 26.5773 51.8426L26.5773 68.9922Z" fill="#990000" transform="matrix(1 0 0 1.00846 400.843 487.059)"/><path d="M31.4129 50.9242 27.5519 50.9242C27.031 50.9135 26.5975 51.3221 26.5773 51.8426L26.5773 68.9922 30.4383 68.9922 30.4383 51.8426C30.4482 51.3251 30.8757 50.9137 31.3932 50.9236 31.3998 50.9238 31.4064 50.924 31.4129 50.9242Z" fill="#820000" transform="matrix(1 0 0 1.00846 400.843 487.059)"/><path d="M48.2627 68.9922 48.2627 59.2834C48.2528 58.766 47.8252 58.3546 47.3077 58.3645 47.3012 58.3647 47.2946 58.3649 47.2881 58.3651L40.0721 58.3651C39.5512 58.3544 39.1177 58.763 39.0975 59.2834L39.0975 68.9922Z" fill="#BD0000" transform="matrix(1 0 0 1.00846 400.843 487.059)"/><path d="M43.9144 58.3651 40.0721 58.3651C39.5512 58.3544 39.1177 58.763 39.0975 59.2834L39.0975 68.9922 42.9397 68.9922 42.9397 59.2834C42.9497 58.766 43.3772 58.3546 43.8947 58.3645 43.9012 58.3647 43.9078 58.3649 43.9144 58.3651Z" fill="#990000" transform="matrix(1 0 0 1.00846 400.843 487.059)"/><path d="M60.7829 68.9922 60.7829 56.2284C60.7726 55.7006 60.3364 55.2809 59.8086 55.2912 59.8084 55.2912 59.8084 55.2912 59.8082 55.2912L52.5923 55.2912C52.0645 55.2807 51.6281 55.7002 51.6176 56.228 51.6176 56.2282 51.6176 56.2282 51.6176 56.2284L51.6176 69.0297Z" fill="#E60000" transform="matrix(1 0 0 1.00846 400.843 487.059)"/><path d="M56.8469 55.2537 52.5923 55.2537C52.0645 55.2433 51.6281 55.6627 51.6176 56.1905 51.6176 56.1907 51.6176 56.1907 51.6176 56.1909L51.6176 68.9922 55.8723 68.9922 55.8723 56.2284C55.8618 55.7006 56.2812 55.2642 56.809 55.2537 56.8216 55.2536 56.8343 55.2536 56.8469 55.2537Z" fill="#BD0000" transform="matrix(1 0 0 1.00846 400.843 487.059)"/><path d="M127.451 103.723 120.516 97.1064C118.799 99.4277 116.709 101.448 114.331 103.085L121.266 109.702Z" fill="#990000" transform="matrix(1 0 0 1.00846 400.843 487.059)"/><path d="M141.396 122.971C138.985 125.242 135.222 125.242 132.811 122.971L120.985 111.726C120.379 111.131 120.371 110.158 120.965 109.552 120.972 109.546 120.978 109.539 120.985 109.533L127.264 103.554C127.908 102.937 128.924 102.937 129.569 103.554L141.396 114.8C143.652 116.933 143.752 120.492 141.619 122.748 141.546 122.825 141.472 122.899 141.396 122.971Z" fill="#E60000" transform="matrix(1 0 0 1.00846 400.843 487.059)"/><path d="M139.728 122.971 127.901 111.726C127.295 111.161 127.262 110.212 127.827 109.607 127.851 109.581 127.875 109.556 127.901 109.533L131.874 105.784 129.569 103.591C128.924 102.975 127.908 102.975 127.264 103.591L120.985 109.57C120.379 110.165 120.371 111.138 120.965 111.744 120.972 111.75 120.978 111.757 120.985 111.763L132.811 123.009C134.921 125.017 138.138 125.305 140.571 123.702 140.275 123.512 139.999 123.292 139.746 123.046Z" fill="#990000" transform="matrix(1 0 0 1.00846 400.843 487.059)"/><path d="M112.569 51.6551C112.569 65.733 100.62 77.1453 85.8795 77.1453 71.1391 77.1453 59.1897 65.733 59.1897 51.6551 59.1897 37.5773 71.1391 26.1649 85.8795 26.1649 100.62 26.1649 112.569 37.5773 112.569 51.6551Z" fill="#E60000" transform="matrix(1 0 0 1.00846 414 518.209)"/><path d="M80.3503 82.4683C80.6371 69.6111 90.32 58.9142 103.085 57.3529 101.763 57.1635 100.429 57.0695 99.0931 57.0718 84.3426 57.0718 72.3472 68.4674 72.3472 82.4683 72.3472 96.4691 84.3426 108.033 99.0369 108.033 100.391 108.039 101.744 107.944 103.085 107.752 90.2617 106.174 80.5621 95.3869 80.3503 82.4683Z" fill="#BD0000" transform="matrix(1 0 0 1.00846 400.843 487.059)"/><path d="M105.447 51.6551C105.447 61.9754 96.6863 70.3417 85.8795 70.3417 75.0726 70.3417 66.312 61.9754 66.312 51.6551 66.312 41.3348 75.0727 32.9686 85.8795 32.9686 96.6863 32.9686 105.447 41.3348 105.447 51.6551Z" fill="#EBEBEB" transform="matrix(1 0 0 1.00846 414 518.209)"/><path d="M87.3789 82.4683C87.5875 73.4223 94.1687 65.7889 103.085 64.2503 101.782 64.0014 100.458 63.8758 99.1306 63.8754 88.5676 63.5815 79.7656 71.9052 79.4694 82.4683 79.684 93.0349 88.424 101.427 98.9906 101.212 99.006 101.212 99.0214 101.211 99.0369 101.211 100.364 101.211 101.688 101.085 102.992 100.836 94.0616 99.2401 87.5155 91.5389 87.3789 82.4683Z" fill="#CCCCCC" transform="matrix(1 0 0 1.00846 400.843 487.059)"/><path d="M125.764 67.0242 110.039 82.0185 101.792 74.1465C100.854 73.2658 99.3936 73.2658 98.4559 74.1465L89.5905 82.637C91.2712 82.9588 92.5206 84.3778 92.6269 86.0856L100.124 78.9446 108.371 86.7979C109.309 87.6786 110.769 87.6786 111.707 86.7979L129.1 70.1918Z" fill="#990000" transform="matrix(1 0 0 1.00846 400.843 487.059)"/><path d="M133.074 62.3198 124.19 64.4377C123.813 64.5065 123.563 64.8677 123.632 65.2444 123.66 65.3962 123.737 65.5345 123.852 65.6373L130.506 71.9911C130.818 72.2791 131.304 72.26 131.592 71.9483 131.67 71.864 131.728 71.7633 131.762 71.6537L133.992 63.1819C134.081 62.7882 133.833 62.397 133.44 62.3082 133.319 62.281 133.193 62.2849 133.074 62.3198Z" fill="#990000" transform="matrix(1 0 0 1.00846 400.843 487.059)"/><path d="M79.8068 55.3662C79.8068 57.5814 77.9271 59.3772 75.6084 59.3772 73.2897 59.3772 71.41 57.5814 71.41 55.3662 71.41 53.151 73.2897 51.3553 75.6084 51.3553 77.9271 51.3553 79.8068 53.151 79.8068 55.3662Z" fill="#990000" transform="matrix(1 0 0 1.00846 414 518.209)"/><path d="M65.0562 73.1906 24.1782 73.1906C22.9361 73.1906 21.9291 72.1835 21.9291 70.9415 21.9291 69.6994 22.9361 68.6923 24.1782 68.6923L65.0562 68.6923C66.2983 68.6923 67.3054 69.6994 67.3054 70.9415 67.3054 72.1835 66.2983 73.1906 65.0562 73.1906Z" fill="#666666" transform="matrix(1 0 0 1.00846 400.843 487.059)"/><path d="M29.0326 82.4683 24.1782 82.4683C22.9361 82.4683 21.9291 81.4612 21.9291 80.2191 21.9291 78.9771 22.9361 77.97 24.1782 77.97L29.0326 77.97C30.2747 77.97 31.2817 78.9771 31.2817 80.2191 31.2817 81.4612 30.2747 82.4683 29.0326 82.4683Z" fill="#4A4D4E" transform="matrix(1 0 0 1.00846 400.843 487.059)"/><path d="M65.0562 82.4683 35.7425 82.4683C34.5004 82.4683 33.4934 81.4612 33.4934 80.2191 33.4934 78.9771 34.5004 77.97 35.7425 77.97L65.0562 77.97C66.2983 77.97 67.3054 78.9771 67.3054 80.2191 67.3054 81.4612 66.2983 82.4683 65.0562 82.4683Z" fill="#666666" transform="matrix(1 0 0 1.00846 400.843 487.059)"/><path d="M103.948 7.30969C103.948 8.55185 102.89 9.55882 101.586 9.55882 100.282 9.55882 99.2243 8.55185 99.2243 7.30969 99.2243 6.06753 100.282 5.06055 101.586 5.06055 102.89 5.06055 103.948 6.06753 103.948 7.30969Z" fill="#333333" transform="matrix(1 0 0 1.00846 414 518.209)"/><path d="M110.845 7.30969C110.845 8.55185 109.788 9.55882 108.483 9.55882 107.179 9.55882 106.122 8.55185 106.122 7.30969 106.122 6.06753 107.179 5.06055 108.483 5.06055 109.788 5.06055 110.845 6.06753 110.845 7.30969Z" fill="#333333" transform="matrix(1 0 0 1.00846 414 518.209)"/><path d="M117.761 7.30969C117.761 8.55185 116.704 9.55882 115.399 9.55882 114.095 9.55882 113.038 8.55185 113.038 7.30969 113.038 6.06753 114.095 5.06055 115.399 5.06055 116.704 5.06055 117.761 6.06753 117.761 7.30969Z" fill="#333333" transform="matrix(1 0 0 1.00846 414 518.209)"/><path d="M41.684 89.047C34.0881 89.4796 28.281 95.988 28.7136 103.584 29.1464 111.18 35.6548 116.987 43.2507 116.554 50.2968 116.153 55.9 110.491 56.2284 103.441 56.2492 103.111 55.9982 102.826 55.6676 102.805 55.6485 102.804 55.6292 102.804 55.6099 102.804L42.9397 102.804C42.5981 102.804 42.3212 102.527 42.3212 102.186L42.3212 89.6468C42.3111 89.3053 42.026 89.0369 41.6845 89.047 41.6843 89.047 41.6842 89.047 41.684 89.047Z" fill="#BD0000" transform="matrix(1 0 0 1.00846 400.843 487.059)"/><path d="M48.0753 112.963C40.9352 112.655 35.1941 106.979 34.8054 99.8428 34.6093 95.9402 36.1052 92.1426 38.91 89.4219 31.5261 91.1681 26.9561 98.5696 28.7023 105.954 30.1335 112.004 35.4501 116.34 41.6652 116.524 45.5634 116.712 49.3648 115.273 52.1612 112.55 50.8267 112.887 49.45 113.026 48.0753 112.963Z" fill="#990000" transform="matrix(1 0 0 1.00846 400.843 487.059)"/><path d="M58.8336 99.6367C59.1646 99.6472 59.4416 99.3874 59.4521 99.0562 59.4525 99.0437 59.4525 99.0309 59.4521 99.0182 59.2715 95.183 57.49 91.5998 54.5415 89.1407 52.1837 87.1641 49.2377 86.0238 46.1635 85.8982 45.8329 85.8776 45.5482 86.1287 45.5274 86.4594 45.5266 86.4721 45.5262 86.4851 45.5262 86.498L45.5262 99.0369C45.5262 99.3681 45.7948 99.6367 46.126 99.6367Z" fill="#E60000" transform="matrix(1 0 0 1.00846 400.843 487.059)"/><path d="M50.2682 99.0369 50.2682 86.7041C48.95 86.2243 47.5653 85.9526 46.1635 85.8982 45.8329 85.8776 45.5482 86.1287 45.5274 86.4594 45.5266 86.4721 45.5262 86.4851 45.5262 86.498L45.5262 99.0369C45.5262 99.3681 45.7948 99.6367 46.126 99.6367L50.8867 99.6367C50.5557 99.647 50.2789 99.387 50.2685 99.056 50.2684 99.0497 50.2682 99.0433 50.2682 99.0369Z" fill="#BD0000" transform="matrix(1 0 0 1.00846 400.843 487.059)"/></g></svg>