<svg width="320" height="337" xmlns="http://www.w3.org/2000/svg" xmlns:xlink="http://www.w3.org/1999/xlink" xml:space="preserve" overflow="hidden"><g transform="translate(-2659 -870)"><path d="M2942.68 1131 2700.32 1131C2698.15 1131 2696.19 1132.29 2695.34 1134.29L2667.44 1199.43C2666.26 1202.19 2667.54 1205.38 2670.29 1206.56 2670.96 1206.85 2671.69 1207 2672.43 1207L2970.58 1207C2973.57 1207 2976 1204.57 2976 1201.57 2976 1200.84 2975.85 1200.11 2975.56 1199.43L2947.67 1134.29C2946.81 1132.29 2944.85 1131 2942.68 1131Z" fill="#E60000" fill-rule="evenodd"/><path d="M2935.69 1147 2707.31 1147 2691 1190 2952 1190Z" fill="#4A4D4E" fill-rule="evenodd"/><path d="M2914 957 2941 957 2941 984 2914 984Z" fill="#666666" fill-rule="evenodd"/><path d="M2898 1033 2930 1033 2930 1065 2898 1065Z" fill="#4A4D4E" fill-rule="evenodd"/><path d="M2702 908 2729 908 2729 935 2702 935Z" fill="#666666" fill-rule="evenodd"/><path d="M2659 995 2702 995 2702 1038 2659 1038Z" fill="#E60000" fill-rule="evenodd"/><path d="M2903 897 2947 897 2947 940 2903 940Z" fill="#E60000" fill-rule="evenodd"/><path d="M2740 957 2740 1011 2686 1011 2686 957Z" fill="#BD0000" fill-rule="evenodd"/><path d="M2925 919 2979 919 2979 973 2925 973Z" fill="#BD0000" fill-rule="evenodd"/><path d="M2800 870 2843 870 2843 913 2800 913Z" fill="#E60000" fill-rule="evenodd"/><path d="M2868.66 984.591C2866.48 984.554 2864.58 983.103 2863.97 981.014 2863.21 978.602 2862.24 976.261 2861.07 974.016 2860.02 972.107 2860.33 969.735 2861.85 968.167L2867.04 962.97 2853.03 948.956 2847.83 954.154C2846.27 955.669 2843.89 955.985 2841.98 954.932 2839.74 953.765 2837.4 952.792 2834.99 952.026 2832.9 951.419 2831.45 949.521 2831.41 947.345L2831.41 940 2811.59 940 2811.59 947.345C2811.55 949.521 2810.1 951.419 2808.01 952.026 2805.6 952.792 2803.26 953.765 2801.02 954.932 2799.11 955.985 2796.73 955.669 2795.17 954.154L2789.97 948.956 2775.96 962.97 2781.15 968.167C2782.67 969.735 2782.98 972.107 2781.93 974.016 2780.76 976.261 2779.79 978.602 2779.03 981.014 2778.42 983.104 2776.52 984.554 2774.34 984.591L2767 984.591 2767 1004.41 2774.34 1004.41C2776.52 1004.45 2778.42 1005.9 2779.03 1007.99 2779.79 1010.4 2780.76 1012.74 2781.93 1014.98 2782.98 1016.89 2782.67 1019.27 2781.15 1020.83L2775.96 1026.03 2789.97 1040.04 2795.17 1034.85C2796.73 1033.33 2799.11 1033.02 2801.02 1034.07 2803.26 1035.24 2805.6 1036.21 2808.01 1036.97 2810.1 1037.58 2811.55 1039.48 2811.59 1041.66L2811.59 1049 2831.41 1049 2831.41 1041.66C2831.45 1039.48 2832.9 1037.58 2834.99 1036.97 2837.4 1036.21 2839.74 1035.24 2841.98 1034.07 2843.89 1033.02 2846.27 1033.33 2847.83 1034.85L2853.03 1040.04 2867.04 1026.03 2861.85 1020.83C2860.33 1019.27 2860.02 1016.89 2861.07 1014.98 2862.24 1012.74 2863.21 1010.4 2863.97 1007.99 2864.58 1005.9 2866.48 1004.45 2868.66 1004.41L2876 1004.41 2876 984.591ZM2821.5 1021.75C2806.45 1021.75 2794.25 1009.55 2794.25 994.5 2794.25 979.45 2806.45 967.25 2821.5 967.25 2836.55 967.25 2848.75 979.45 2848.75 994.5 2848.75 1009.55 2836.55 1021.75 2821.5 1021.75Z" fill="#E60000" fill-rule="evenodd"/><path d="M2807 1072 2815 1072 2815 1110 2807 1110Z" fill="#BD0000" fill-rule="evenodd"/><path d="M2807 1121 2815 1121 2815 1132 2807 1132Z" fill="#BD0000" fill-rule="evenodd"/><path d="M2807 1141 2815 1141 2815 1169 2807 1169Z" fill="#4A4D4E" fill-rule="evenodd"/><path d="M2828 1072 2837 1072 2837 1110 2828 1110Z" fill="#BD0000" fill-rule="evenodd"/><path d="M2828 1120 2837 1120 2837 1163 2828 1163Z" fill="#E60000" fill-rule="evenodd"/><path d="M2850 1054 2858 1054 2858 1114 2850 1114Z" fill="#E60000" fill-rule="evenodd"/><path d="M2785 1127 2793 1127 2793 1138 2785 1138Z" fill="#4A4D4E" fill-rule="evenodd"/><path d="M2785 1054 2793 1054 2793 1109 2785 1109Z" fill="#E60000" fill-rule="evenodd"/><path d="M2850 1125 2858 1125 2858 1136 2850 1136Z" fill="#4A4D4E" fill-rule="evenodd"/></g></svg>