<svg width="311" height="325" xmlns="http://www.w3.org/2000/svg" xmlns:xlink="http://www.w3.org/1999/xlink" xml:space="preserve" overflow="hidden"><defs><clipPath id="clip0"><rect x="2532" y="193" width="311" height="325"/></clipPath></defs><g clip-path="url(#clip0)" transform="translate(-2532 -193)"><path d="M2596 271 2589 271C2585.13 271 2582 267.866 2582 264L2582 257C2582 253.134 2585.13 250 2589 250L2596 250C2599.87 250 2603 253.134 2603 257L2603 264C2603 267.866 2599.87 271 2596 271Z" fill="#4A4D4E" fill-rule="evenodd"/><path d="M2596 299 2589 299C2585.13 299 2582 295.866 2582 292L2582 285C2582 281.134 2585.13 278 2589 278L2596 278C2599.87 278 2603 281.134 2603 285L2603 292C2603 295.866 2599.87 299 2596 299Z" fill="#4A4D4E" fill-rule="evenodd"/><path d="M2779.67 339 2772.33 339C2768.28 339 2765 335.869 2765 332.007L2765 312.993C2765 309.131 2768.28 306 2772.33 306L2779.67 306C2783.72 306 2787 309.131 2787 312.993L2787 332.007C2787 335.869 2783.72 339 2779.67 339Z" fill="#4A4D4E" fill-rule="evenodd"/><path d="M2596 454C2596 405.122 2596 277.652 2596 235L2773 235 2773 454C2751.96 454 2617.23 454 2596 454Z" fill="#E60000" fill-rule="evenodd"/><path d="M2804.5 207C2810.3 207 2815 211.704 2815 217.5 2815 223.296 2810.3 228 2804.5 228 2798.7 228 2794 223.296 2794 217.5 2794 211.704 2798.7 207 2804.5 207Z" fill="#E60000" fill-rule="evenodd"/><path d="M2815 447C2822.74 447 2829 453.489 2829 461.5 2829 469.511 2822.74 476 2815 476 2807.26 476 2801 469.511 2801 461.5 2801 453.489 2807.26 447 2815 447Z" fill="#E60000" fill-rule="evenodd"/><path d="M2557.5 426C2563.3 426 2568 430.704 2568 436.5 2568 442.296 2563.3 447 2557.5 447 2551.7 447 2547 442.296 2547 436.5 2547 430.704 2551.7 426 2557.5 426Z" fill="#990000" fill-rule="evenodd"/><path d="M2546.5 341C2554.51 341 2561 347.489 2561 355.5 2561 363.511 2554.51 370 2546.5 370 2538.49 370 2532 363.511 2532 355.5 2532 347.489 2538.49 341 2546.5 341Z" fill="#E60000" fill-rule="evenodd"/><path d="M2773 218.2 2773 235 2596 235 2596 218.2C2596 204.284 2607.41 193 2621.49 193L2747.51 193C2761.59 193 2773 204.284 2773 218.2Z" fill="#990000" fill-rule="evenodd"/><path d="M2840.95 400.051C2842.22 401.319 2843 403.069 2843 405 2843 406.931 2842.22 408.682 2840.95 409.949 2839.68 411.216 2837.93 412 2836 412 2832.14 412 2829 408.864 2829 405 2829 403.068 2829.78 401.318 2831.05 400.051 2832.32 398.784 2834.07 398 2836 398 2837.93 398 2839.68 398.784 2840.95 400.051Z" fill="#990000" fill-rule="evenodd"/><path d="M2829 278C2829 281.864 2825.86 285 2822 285 2818.14 285 2815 281.864 2815 278 2815 274.136 2818.14 271 2822 271 2825.86 271 2829 274.136 2829 278Z" fill="#990000" fill-rule="evenodd"/><path d="M2822 341C2822 344.864 2818.86 348 2815 348 2811.14 348 2808 344.864 2808 341 2808 339.068 2808.78 337.318 2810.05 336.051 2811.32 334.784 2813.07 334 2815 334 2818.86 334 2822 337.136 2822 341Z" fill="#4A4D4E" fill-rule="evenodd"/><path d="M2751 391C2751 394.865 2747.86 398 2744 398 2740.14 398 2737 394.864 2737 391 2737 387.135 2740.14 384 2744 384 2747.86 384 2751 387.136 2751 391Z" fill="#990000" fill-rule="evenodd"/><path d="M2681 353C2684.86 353 2688 356.129 2688 360 2688 363.864 2684.86 367 2681 367 2677.14 367 2674 363.864 2674 360 2674 356.129 2677.14 353 2681 353Z" fill="#FFFFFF" fill-rule="evenodd"/><path d="M2628.95 350.197C2630.22 351.555 2631 353.43 2631 355.5 2631 357.57 2630.22 359.445 2628.95 360.803 2627.68 362.16 2625.93 363 2624 363 2620.14 363 2617 359.64 2617 355.5 2617 353.43 2617.78 351.555 2619.05 350.197 2620.32 348.84 2622.07 348 2624 348 2625.93 348 2627.68 348.84 2628.95 350.197Z" fill="#990000" fill-rule="evenodd"/><path d="M2551.95 266.051C2554.68 268.785 2554.69 273.212 2551.95 275.949 2550.68 277.216 2548.93 278 2547 278 2543.14 278 2540 274.864 2540 271 2540 269.068 2540.78 267.318 2542.05 266.051 2543.32 264.784 2545.07 264 2547 264 2548.93 264 2550.68 264.784 2551.95 266.051Z" fill="#990000" fill-rule="evenodd"/><path d="M2551.95 477.198C2553.22 478.556 2554 480.431 2554 482.5 2554 484.569 2553.22 486.445 2551.95 487.802 2550.68 489.16 2548.93 490 2547 490 2543.14 490 2540 486.64 2540 482.5 2540 480.43 2540.78 478.555 2542.05 477.198 2543.32 475.84 2545.07 475 2547 475 2548.93 475 2550.68 475.84 2551.95 477.198Z" fill="#4A4D4E" fill-rule="evenodd"/><path d="M2695 221 2674 221C2670.13 221 2667 217.866 2667 214 2667 210.134 2670.13 207 2674 207L2695 207C2698.87 207 2702 210.134 2702 214 2702 217.866 2698.87 221 2695 221Z" fill="#FFFFFF" fill-rule="evenodd"/><path d="M2815 412 2801 412C2797.13 412 2794 408.866 2794 405 2794 401.135 2797.13 398 2801 398L2815 398C2818.87 398 2822 401.135 2822 405 2822 408.866 2818.87 412 2815 412Z" fill="#990000" fill-rule="evenodd"/><path d="M2690.96 345C2689.15 345 2687.35 344.32 2685.98 342.961 2684.65 341.646 2682.88 340.922 2681 340.922 2679.12 340.922 2677.35 341.646 2676.02 342.961 2673.27 345.68 2668.81 345.68 2666.06 342.961 2663.31 340.243 2663.31 335.835 2666.06 333.116 2670.05 329.172 2675.36 327 2681 327 2686.64 327 2691.95 329.172 2695.94 333.117 2698.69 335.835 2698.69 340.243 2695.94 342.961 2694.56 344.319 2692.76 345 2690.96 345Z" fill="#FFFFFF" fill-rule="evenodd"/><path d="M2656.05 330C2654.25 330 2652.44 329.323 2651.07 327.968 2648.31 325.259 2648.31 320.868 2651.07 318.161 2667.57 301.946 2694.43 301.946 2710.93 318.161 2713.69 320.868 2713.69 325.259 2710.94 327.968 2708.18 330.676 2703.71 330.678 2700.96 327.97 2689.95 317.158 2672.05 317.158 2661.04 327.97 2659.66 329.324 2657.86 330 2656.05 330Z" fill="#FFFFFF" fill-rule="evenodd"/><path d="M2720.94 316C2719.13 316 2717.33 315.303 2715.95 313.909 2706.61 304.472 2694.2 299.276 2681 299.276 2667.8 299.276 2655.39 304.473 2646.05 313.909 2643.3 316.697 2638.83 316.697 2636.07 313.909 2633.31 311.121 2633.31 306.602 2636.07 303.815 2648.07 291.682 2664.03 285 2681 285 2697.97 285 2713.93 291.682 2725.93 303.815 2728.69 306.602 2728.69 311.122 2725.93 313.91 2724.55 315.303 2722.75 316 2720.94 316Z" fill="#FFFFFF" fill-rule="evenodd"/><path d="M2624 461C2620.13 461 2617 457.865 2617 454L2617 377C2617 373.134 2620.13 370 2624 370 2627.87 370 2631 373.134 2631 377L2631 454C2631 457.865 2627.87 461 2624 461Z" fill="#990000" fill-rule="evenodd"/><path d="M2744 461C2740.13 461 2737 457.865 2737 454L2737 412C2737 408.135 2740.13 405 2744 405 2747.87 405 2751 408.135 2751 412L2751 454C2751 457.865 2747.87 461 2744 461Z" fill="#990000" fill-rule="evenodd"/><path d="M2723 461C2719.13 461 2716 457.865 2716 454L2716 433C2716 429.134 2719.13 426 2723 426 2726.87 426 2730 429.134 2730 433L2730 454C2730 457.865 2726.87 461 2723 461Z" fill="#990000" fill-rule="evenodd"/><path d="M2773 454 2773 492.4C2773 506.537 2761.59 518 2747.51 518L2621.49 518C2607.41 518 2596 506.537 2596 492.4L2596 454Z" fill="#990000" fill-rule="evenodd"/><path d="M2684.5 475C2690.3 475 2695 479.928 2695 486 2695 492.072 2690.3 497 2684.5 497 2678.7 497 2674 492.072 2674 486 2674 479.928 2678.7 475 2684.5 475Z" fill="#FFFFFF" fill-rule="evenodd"/></g></svg>