<svg width="325" height="324" xmlns="http://www.w3.org/2000/svg" xmlns:xlink="http://www.w3.org/1999/xlink" xml:space="preserve" overflow="hidden"><g transform="translate(-1369 -860)"><path d="M1659 911C1659 919.837 1651.61 927 1642.5 927 1633.39 927 1626 919.837 1626 911 1626 902.163 1633.39 895 1642.5 895 1651.61 895 1659 902.163 1659 911Z" fill="#990000" fill-rule="evenodd"/><path d="M1648 911C1648 913.762 1645.54 916 1642.5 916 1639.46 916 1637 913.762 1637 911 1637 908.238 1639.46 906 1642.5 906 1645.54 906 1648 908.238 1648 911Z" fill="#E60000" fill-rule="evenodd"/><path d="M1659 1133C1659 1141.84 1651.61 1149 1642.5 1149 1633.39 1149 1626 1141.84 1626 1133 1626 1124.16 1633.39 1117 1642.5 1117 1651.61 1117 1659 1124.16 1659 1133Z" fill="#990000" fill-rule="evenodd"/><path d="M1648 1133C1648 1135.76 1645.54 1138 1642.5 1138 1639.46 1138 1637 1135.76 1637 1133 1637 1130.24 1639.46 1128 1642.5 1128 1645.54 1128 1648 1130.24 1648 1133Z" fill="#E60000" fill-rule="evenodd"/><path d="M1437 911C1437 919.837 1429.61 927 1420.5 927 1411.39 927 1404 919.837 1404 911 1404 902.163 1411.39 895 1420.5 895 1429.61 895 1437 902.163 1437 911Z" fill="#990000" fill-rule="evenodd"/><path d="M1426 911C1426 913.762 1423.54 916 1420.5 916 1417.46 916 1415 913.762 1415 911 1415 908.238 1417.46 906 1420.5 906 1423.54 906 1426 908.238 1426 911Z" fill="#E60000" fill-rule="evenodd"/><path d="M1437 1133C1437 1141.84 1429.61 1149 1420.5 1149 1411.39 1149 1404 1141.84 1404 1133 1404 1124.16 1411.39 1117 1420.5 1117 1429.61 1117 1437 1124.16 1437 1133Z" fill="#990000" fill-rule="evenodd"/><path d="M1426 1133C1426 1135.76 1423.54 1138 1420.5 1138 1417.46 1138 1415 1135.76 1415 1133 1415 1130.24 1417.46 1128 1420.5 1128 1423.54 1128 1426 1130.24 1426 1133Z" fill="#E60000" fill-rule="evenodd"/><path d="M1531.5 1184C1501.83 1184 1472.76 1175.9 1447.43 1160.65 1444.85 1159.09 1444.04 1155.78 1445.6 1153.22L1605.28 889.902C1582.78 877.415 1557.38 870.8 1531.5 870.8 1496.75 870.8 1462.81 882.815 1435.84 904.618L1429 896.248C1457.86 872.893 1494.31 860 1531.5 860 1561.17 860 1590.24 868.101 1615.57 883.355 1618.15 884.907 1618.96 888.215 1617.4 890.78L1457.72 1154.1C1480.22 1166.58 1505.62 1173.2 1531.5 1173.2 1566.25 1173.2 1600.2 1161.18 1627.16 1139.38L1634 1147.75C1605.14 1171.11 1568.69 1184 1531.5 1184L1531.5 1184Z" fill="#4A4D4E" fill-rule="evenodd"/><path d="M1405.36 1124C1381.93 1095.28 1369 1059.01 1369 1022 1369 992.472 1377.13 963.551 1392.43 938.337 1393.98 935.775 1397.3 934.966 1399.87 936.517L1664.07 1095.48C1676.53 1073.03 1683.17 1047.75 1683.17 1022 1683.17 987.416 1671.11 953.641 1649.24 926.809L1657.64 920C1681.07 948.786 1694 984.989 1694 1022 1694 1051.53 1685.88 1080.45 1670.57 1105.66 1669.02 1108.23 1665.7 1109.03 1663.13 1107.48L1398.99 948.585C1386.47 970.966 1379.83 996.247 1379.83 1022 1379.83 1056.58 1391.89 1090.36 1413.76 1117.19L1405.36 1124Z" fill="#4A4D4E" fill-rule="evenodd"/><path d="M1642.5 933C1630.68 933 1621 923.1 1621 911 1621 898.9 1630.68 889 1642.5 889 1654.33 889 1664 898.9 1664 911 1664 923.1 1654.33 933 1642.5 933ZM1642.5 900C1636.59 900 1631.75 904.949 1631.75 911 1631.75 917.05 1636.59 922 1642.5 922 1648.41 922 1653.25 917.05 1653.25 911 1653.25 904.949 1648.41 900 1642.5 900Z" fill="#4A4D4E" fill-rule="evenodd"/><path d="M1642.5 1155C1630.68 1155 1621 1145.1 1621 1133 1621 1120.9 1630.68 1111 1642.5 1111 1654.33 1111 1664 1120.9 1664 1133 1664 1145.1 1654.33 1155 1642.5 1155ZM1642.5 1122C1636.59 1122 1631.75 1126.95 1631.75 1133 1631.75 1139.05 1636.59 1144 1642.5 1144 1648.41 1144 1653.25 1139.05 1653.25 1133 1653.25 1126.95 1648.41 1122 1642.5 1122Z" fill="#4A4D4E" fill-rule="evenodd"/><path d="M1420.5 933C1408.68 933 1399 923.1 1399 911 1399 898.9 1408.68 889 1420.5 889 1432.33 889 1442 898.9 1442 911 1442 923.1 1432.33 933 1420.5 933ZM1420.5 900C1414.59 900 1409.75 904.949 1409.75 911 1409.75 917.05 1414.59 922 1420.5 922 1426.41 922 1431.25 917.05 1431.25 911 1431.25 904.949 1426.41 900 1420.5 900Z" fill="#4A4D4E" fill-rule="evenodd"/><path d="M1420.5 1155C1408.68 1155 1399 1145.1 1399 1133 1399 1120.9 1408.68 1111 1420.5 1111 1432.33 1111 1442 1120.9 1442 1133 1442 1145.1 1432.33 1155 1420.5 1155ZM1420.5 1122C1414.59 1122 1409.75 1126.95 1409.75 1133 1409.75 1139.05 1414.59 1144 1420.5 1144 1426.41 1144 1431.25 1139.05 1431.25 1133 1431.25 1126.95 1426.41 1122 1420.5 1122Z" fill="#4A4D4E" fill-rule="evenodd"/><path d="M1650 1022C1650 1087.72 1596.72 1141 1531 1141 1465.28 1141 1412 1087.72 1412 1022 1412 956.278 1465.28 903 1531 903 1596.72 903 1650 956.278 1650 1022Z" fill="#E60000" fill-rule="evenodd"/><path d="M1606.94 1097.69C1541.15 1097.69 1487.81 1044.36 1487.81 978.578 1487.81 950.358 1497.63 924.438 1514.07 904 1456.34 912.324 1412 961.93 1412 1021.89 1412 1087.67 1465.34 1141 1531.13 1141 1568.7 1141 1602.2 1123.61 1624 1096.47 1618.45 1097.28 1612.76 1097.69 1606.94 1097.69L1606.94 1097.69Z" fill="#BD0000" fill-rule="evenodd"/><path d="M1548 935.5C1548 941.299 1543.07 946 1537 946 1530.92 946 1526 941.299 1526 935.5 1526 929.701 1530.92 925 1537 925 1543.07 925 1548 929.701 1548 935.5Z" fill="#FFFFFF" fill-rule="evenodd"/><path d="M1569 968C1569 974.075 1564.3 979 1558.5 979 1552.7 979 1548 974.075 1548 968 1548 961.925 1552.7 957 1558.5 957 1564.3 957 1569 961.925 1569 968Z" fill="#FFFFFF" fill-rule="evenodd"/><path d="M1504 941C1504 947.075 1499.3 952 1493.5 952 1487.7 952 1483 947.075 1483 941 1483 934.925 1487.7 930 1493.5 930 1499.3 930 1504 934.925 1504 941Z" fill="#FFFFFF" fill-rule="evenodd"/><path d="M1531 1000.5C1531 1006.3 1526.3 1011 1520.5 1011 1514.7 1011 1510 1006.3 1510 1000.5 1510 994.701 1514.7 990 1520.5 990 1526.3 990 1531 994.701 1531 1000.5Z" fill="#FFFFFF" fill-rule="evenodd"/><path d="M1477 1016.5C1477 1022.3 1472.3 1027 1466.5 1027 1460.7 1027 1456 1022.3 1456 1016.5 1456 1010.7 1460.7 1006 1466.5 1006 1472.3 1006 1477 1010.7 1477 1016.5Z" fill="#FFFFFF" fill-rule="evenodd"/><path d="M1558 1033C1558 1039.07 1553.3 1044 1547.5 1044 1541.7 1044 1537 1039.07 1537 1033 1537 1026.93 1541.7 1022 1547.5 1022 1553.3 1022 1558 1026.93 1558 1033Z" fill="#FFFFFF" fill-rule="evenodd"/><path d="M1515 1038C1515 1044.08 1510.07 1049 1504 1049 1497.92 1049 1493 1044.08 1493 1038 1493 1031.93 1497.92 1027 1504 1027 1510.07 1027 1515 1031.93 1515 1038Z" fill="#FFFFFF" fill-rule="evenodd"/><path d="M1640 1038C1640 1044.08 1635.07 1049 1629 1049 1622.93 1049 1618 1044.08 1618 1038 1618 1031.93 1622.93 1027 1629 1027 1635.07 1027 1640 1031.93 1640 1038Z" fill="#FFFFFF" fill-rule="evenodd"/><path d="M1607 1065C1607 1071.07 1602.07 1076 1596 1076 1589.93 1076 1585 1071.07 1585 1065 1585 1058.92 1589.93 1054 1596 1054 1602.07 1054 1607 1058.92 1607 1065Z" fill="#FFFFFF" fill-rule="evenodd"/><path d="M1542 1098C1542 1104.07 1537.3 1109 1531.5 1109 1525.7 1109 1521 1104.07 1521 1098 1521 1091.92 1525.7 1087 1531.5 1087 1537.3 1087 1542 1091.92 1542 1098Z" fill="#FFFFFF" fill-rule="evenodd"/><path d="M1585 1098C1585 1104.07 1580.3 1109 1574.5 1109 1568.7 1109 1564 1104.07 1564 1098 1564 1091.92 1568.7 1087 1574.5 1087 1580.3 1087 1585 1091.92 1585 1098Z" fill="#FFFFFF" fill-rule="evenodd"/><path d="M1483 940.599C1483 945.7 1486.62 950.006 1491.42 951 1493 944.111 1495.24 937.419 1498 931.06 1496.62 930.397 1495.1 930 1493.53 930 1487.74 930 1483 934.769 1483 940.599Z" fill="#FFFFFF" fill-rule="evenodd"/><path d="M1493 1038.33C1493 1044.2 1498.04 1049 1504.19 1049 1506.36 1049 1508.32 1048.4 1510 1047.4 1505.73 1041.67 1501.96 1035.47 1498.81 1029 1495.38 1030.87 1493 1034.33 1493 1038.33Z" fill="#FFFFFF" fill-rule="evenodd"/><path d="M1574.5 1109C1580.27 1109 1585 1104.11 1585 1098.13 1585 1097.45 1584.93 1096.77 1584.8 1096.09 1578.57 1094.87 1572.47 1093.17 1566.63 1091 1564.98 1092.9 1564 1095.42 1564 1098.13 1564 1104.11 1568.73 1109 1574.5 1109L1574.5 1109Z" fill="#FFFFFF" fill-rule="evenodd"/><path d="M1597.23 970.035 1577.19 995.143 1531 995.143 1531 1006 1579.76 1006C1581.39 1006 1582.94 1005.25 1583.96 1003.96L1604.01 978.857 1642 978.857C1640.58 975.125 1638.95 971.528 1637.12 968L1601.43 968C1599.81 968 1598.25 968.746 1597.23 970.035Z" fill="#990000" fill-rule="evenodd"/><path d="M1573.32 931.552C1572.31 930.54 1570.97 930 1569.49 930L1548 930 1548 940.8 1567.27 940.8 1581.84 955.448C1582.85 956.459 1584.19 957 1585.67 957L1631 957C1628.58 953.219 1625.96 949.643 1623.14 946.2L1587.89 946.2 1573.32 931.552Z" fill="#990000" fill-rule="evenodd"/><path d="M1483 935 1450.13 935C1446.55 938.438 1443.1 942.15 1440 946L1483 946 1483 935Z" fill="#990000" fill-rule="evenodd"/><path d="M1492.23 988.39 1506.93 973.2 1548 973.2 1548 962 1504.63 962C1503.2 962 1501.78 962.561 1500.76 963.61L1486.13 978.8 1420.66 978.8C1419.3 982.44 1418.08 986.22 1417 990L1488.36 990C1489.79 990 1491.21 989.44 1492.23 988.39L1492.23 988.39Z" fill="#990000" fill-rule="evenodd"/><path d="M1456 1011 1412.55 1011C1412.21 1014.64 1412 1018.29 1412 1022L1456 1022 1456 1011Z" fill="#990000" fill-rule="evenodd"/><path d="M1608.22 1002.04 1588.08 1027.14 1558 1027.14 1558 1038 1590.66 1038C1592.3 1038 1593.86 1037.25 1594.88 1035.96L1615.02 1010.86 1650 1010.86C1649.66 1007.19 1649.18 1003.6 1648.5 1000L1612.44 1000C1610.81 1000 1609.24 1000.75 1608.22 1002.04L1608.22 1002.04Z" fill="#990000" fill-rule="evenodd"/><path d="M1640 1044 1648.55 1044C1649.21 1040.36 1649.67 1036.71 1650 1033L1640 1033 1640 1044Z" fill="#BD0000" fill-rule="evenodd"/><path d="M1502.85 1089.87 1517.44 1070.67 1585 1070.67 1585 1060 1514.74 1060C1513.05 1060 1511.43 1060.8 1510.42 1062.13L1495.83 1081.33 1428 1081.33C1430.16 1085 1432.53 1088.6 1435.03 1092L1498.53 1092C1500.22 1092 1501.84 1091.2 1502.85 1089.87Z" fill="#990000" fill-rule="evenodd"/><path d="M1486.84 1068.99 1501 1050.92 1492.49 1044 1479.96 1059.92 1418 1059.92C1419.23 1063.73 1420.66 1067.4 1422.29 1071L1482.62 1071C1484.25 1071.07 1485.82 1070.3 1486.84 1068.99Z" fill="#990000" fill-rule="evenodd"/><path d="M1513.75 1123.41 1527 1109.87 1519.36 1102 1507.66 1113.95 1456 1113.95C1460.87 1118.02 1466.08 1121.75 1471.55 1125L1509.89 1125C1511.31 1125 1512.73 1124.45 1513.75 1123.41L1513.75 1123.41Z" fill="#990000" fill-rule="evenodd"/><path d="M1585 1103 1617.99 1103C1621.17 1099.49 1624.22 1095.85 1627 1092L1585 1092 1585 1103Z" fill="#990000" fill-rule="evenodd"/><path d="M1489 989.857C1488.66 986.124 1488.52 982.319 1488.52 978.513 1488.52 977.651 1488.59 976.862 1488.66 976L1486.28 978.513 1420.67 978.513C1419.31 982.246 1418.02 986.052 1417 990.001L1488.52 990.001C1488.73 990.001 1488.86 989.93 1489 989.857L1489 989.857Z" fill="#990000" fill-rule="evenodd"/><path d="M1503.46 1089.87 1518.17 1070.67 1532 1070.67C1527.91 1067.4 1524.03 1063.8 1520.42 1060L1515.45 1060C1513.75 1060 1512.11 1060.8 1511.09 1062.13L1496.38 1081.33 1428 1081.33C1430.18 1085 1432.56 1088.6 1435.08 1092L1499.1 1092C1500.81 1092 1502.44 1091.2 1503.46 1089.87Z" fill="#990000" fill-rule="evenodd"/><path d="M1606.82 1097.91C1599.39 1097.91 1592.09 1097.27 1585 1096L1585 1103 1618.14 1103C1620.18 1100.96 1622.16 1098.93 1624 1096.76 1618.41 1097.53 1612.68 1097.91 1606.82 1097.91Z" fill="#990000" fill-rule="evenodd"/><path d="M1537 952C1528.2 952 1521 944.575 1521 935.5 1521 926.425 1528.2 919 1537 919 1545.8 919 1553 926.425 1553 935.5 1553 944.575 1545.8 952 1537 952ZM1537 930C1534.07 930 1531.67 932.475 1531.67 935.5 1531.67 938.525 1534.07 941 1537 941 1539.93 941 1542.33 938.525 1542.33 935.5 1542.33 932.475 1539.93 930 1537 930Z" fill="#990000" fill-rule="evenodd"/><path d="M1558.5 984C1549.43 984 1542 976.8 1542 968 1542 959.2 1549.43 952 1558.5 952 1567.57 952 1575 959.2 1575 968 1575 976.8 1567.57 984 1558.5 984ZM1558.5 962.667C1555.47 962.667 1553 965.066 1553 968 1553 970.934 1555.47 973.333 1558.5 973.333 1561.53 973.333 1564 970.934 1564 968 1564 965.066 1561.53 962.667 1558.5 962.667Z" fill="#990000" fill-rule="evenodd"/><path d="M1493.5 957C1484.43 957 1477 949.8 1477 941 1477 932.2 1484.43 925 1493.5 925 1502.57 925 1510 932.2 1510 941 1510 949.8 1502.57 957 1493.5 957ZM1493.5 935.667C1490.47 935.667 1488 938.066 1488 941 1488 943.934 1490.47 946.333 1493.5 946.333 1496.53 946.333 1499 943.934 1499 941 1499 938.066 1496.53 935.667 1493.5 935.667Z" fill="#BD0000" fill-rule="evenodd"/><path d="M1520.5 1017C1511.43 1017 1504 1009.57 1504 1000.5 1504 991.425 1511.43 984 1520.5 984 1529.57 984 1537 991.425 1537 1000.5 1537 1009.57 1529.57 1017 1520.5 1017ZM1520.5 995C1517.47 995 1515 997.475 1515 1000.5 1515 1003.53 1517.47 1006 1520.5 1006 1523.53 1006 1526 1003.53 1526 1000.5 1526 997.475 1523.53 995 1520.5 995Z" fill="#990000" fill-rule="evenodd"/><path d="M1466.5 1033C1457.43 1033 1450 1025.57 1450 1016.5 1450 1007.43 1457.43 1000 1466.5 1000 1475.57 1000 1483 1007.43 1483 1016.5 1483 1025.57 1475.57 1033 1466.5 1033ZM1466.5 1011C1463.47 1011 1461 1013.47 1461 1016.5 1461 1019.53 1463.47 1022 1466.5 1022 1469.53 1022 1472 1019.53 1472 1016.5 1472 1013.47 1469.53 1011 1466.5 1011Z" fill="#990000" fill-rule="evenodd"/><path d="M1547.5 1049C1538.43 1049 1531 1041.8 1531 1033 1531 1024.2 1538.43 1017 1547.5 1017 1556.57 1017 1564 1024.2 1564 1033 1564 1041.8 1556.57 1049 1547.5 1049ZM1547.5 1027.67C1544.47 1027.67 1542 1030.07 1542 1033 1542 1035.93 1544.47 1038.33 1547.5 1038.33 1550.53 1038.33 1553 1035.93 1553 1033 1553 1030.07 1550.53 1027.67 1547.5 1027.67Z" fill="#990000" fill-rule="evenodd"/><path d="M1504.5 1054C1495.43 1054 1488 1046.8 1488 1038 1488 1029.2 1495.43 1022 1504.5 1022 1513.57 1022 1521 1029.2 1521 1038 1521 1046.8 1513.57 1054 1504.5 1054ZM1504.5 1032.67C1501.47 1032.67 1499 1035.07 1499 1038 1499 1040.93 1501.47 1043.33 1504.5 1043.33 1507.53 1043.33 1510 1040.93 1510 1038 1510 1035.07 1507.53 1032.67 1504.5 1032.67Z" fill="#990000" fill-rule="evenodd"/><path d="M1629 1054C1620.2 1054 1613 1046.8 1613 1038 1613 1029.2 1620.2 1022 1629 1022 1637.8 1022 1645 1029.2 1645 1038 1645 1046.8 1637.8 1054 1629 1054ZM1629 1032.67C1626.07 1032.67 1623.67 1035.07 1623.67 1038 1623.67 1040.93 1626.07 1043.33 1629 1043.33 1631.93 1043.33 1634.33 1040.93 1634.33 1038 1634.33 1035.07 1631.93 1032.67 1629 1032.67Z" fill="#990000" fill-rule="evenodd"/><path d="M1596.5 1082C1587.43 1082 1580 1074.57 1580 1065.5 1580 1056.43 1587.43 1049 1596.5 1049 1605.57 1049 1613 1056.43 1613 1065.5 1613 1074.57 1605.57 1082 1596.5 1082ZM1596.5 1060C1593.47 1060 1591 1062.47 1591 1065.5 1591 1068.53 1593.47 1071 1596.5 1071 1599.53 1071 1602 1068.53 1602 1065.5 1602 1062.47 1599.53 1060 1596.5 1060Z" fill="#990000" fill-rule="evenodd"/><path d="M1531.5 1114C1522.43 1114 1515 1106.8 1515 1098 1515 1089.2 1522.43 1082 1531.5 1082 1540.57 1082 1548 1089.2 1548 1098 1548 1106.8 1540.57 1114 1531.5 1114ZM1531.5 1092.67C1528.47 1092.67 1526 1095.07 1526 1098 1526 1100.93 1528.47 1103.33 1531.5 1103.33 1534.53 1103.33 1537 1100.93 1537 1098 1537 1095.07 1534.53 1092.67 1531.5 1092.67Z" fill="#990000" fill-rule="evenodd"/><path d="M1574.5 1114C1565.43 1114 1558 1106.8 1558 1098 1558 1089.2 1565.43 1082 1574.5 1082 1583.57 1082 1591 1089.2 1591 1098 1591 1106.8 1583.57 1114 1574.5 1114ZM1574.5 1092.67C1571.47 1092.67 1569 1095.07 1569 1098 1569 1100.93 1571.47 1103.33 1574.5 1103.33 1577.53 1103.33 1580 1100.93 1580 1098 1580 1095.07 1577.53 1092.67 1574.5 1092.67Z" fill="#990000" fill-rule="evenodd"/><path d="M1477 941.169C1477 948.916 1482.52 955.451 1489.85 957 1490.52 953.43 1491.39 949.859 1492.33 946.423 1489.78 946.019 1487.76 943.864 1487.76 941.169 1487.76 938.204 1490.18 935.779 1493.14 935.779 1494.08 935.779 1494.89 936.048 1495.63 936.52 1496.91 933.152 1498.39 929.85 1500 926.617 1497.92 925.607 1495.63 925 1493.14 925 1484.26 925 1477 932.276 1477 941.169L1477 941.169Z" fill="#990000" fill-rule="evenodd"/><path d="M1488 1038.14C1488 1046.86 1495.28 1054 1504.17 1054 1507.41 1054 1510.44 1053.01 1513 1051.36 1510.78 1048.58 1508.69 1045.67 1506.73 1042.63 1505.93 1043.03 1505.12 1043.36 1504.17 1043.36 1501.21 1043.36 1498.78 1040.98 1498.78 1038.08 1498.78 1036.16 1499.86 1034.57 1501.41 1033.65 1499.73 1030.54 1498.24 1027.3 1496.83 1024 1491.64 1026.71 1488 1032 1488 1038.14L1488 1038.14Z" fill="#990000" fill-rule="evenodd"/><path d="M1574.5 1114C1583.57 1114 1591 1106.8 1591 1098 1591 1097.6 1590.93 1097.27 1590.86 1096.87 1586.74 1096.33 1582.61 1095.53 1578.63 1094.6 1579.45 1095.53 1580 1096.67 1580 1098 1580 1100.93 1577.53 1103.33 1574.5 1103.33 1571.47 1103.33 1569 1100.93 1569 1098 1569 1095.73 1570.51 1093.8 1572.64 1093.07 1568.66 1091.87 1564.74 1090.53 1560.89 1089 1559.1 1091.6 1558 1094.67 1558 1098 1558 1106.8 1565.43 1114 1574.5 1114L1574.5 1114Z" fill="#990000" fill-rule="evenodd"/></g></svg>