<svg width="325" height="324" xmlns="http://www.w3.org/2000/svg" xmlns:xlink="http://www.w3.org/1999/xlink" xml:space="preserve" overflow="hidden"><g transform="translate(-276 -1057)"><path d="M432.641 1111.96C430.736 1114.15 427.427 1114.37 425.249 1112.46 423.072 1110.55 422.852 1107.22 424.756 1105.04L434.557 1093.8C436.462 1091.61 439.771 1091.39 441.949 1093.3 442.14 1093.47 442.316 1093.65 442.477 1093.84L452.243 1105.04C454.148 1107.22 453.928 1110.54 451.75 1112.46 449.573 1114.37 446.264 1114.15 444.359 1111.96L443.756 1111.27 443.756 1135.26C450.413 1135.68 456.88 1136.89 463.065 1138.79 471.088 1141.27 478.608 1144.93 485.421 1149.58 487.814 1151.21 488.439 1154.48 486.818 1156.88 485.196 1159.28 481.942 1159.91 479.549 1158.28 473.61 1154.22 467.029 1151.02 459.985 1148.85 453.227 1146.77 446.014 1145.65 438.501 1145.65 435.598 1145.65 433.245 1143.28 433.245 1140.37L433.245 1111.27ZM518.085 1146.56 518.023 1147.49C517.842 1150.4 520.039 1152.9 522.931 1153.08 525.822 1153.26 528.314 1151.06 528.495 1148.15L529.477 1133.32C529.494 1133.08 529.497 1132.83 529.481 1132.59 529.3 1129.68 526.808 1127.48 523.917 1127.66L509.069 1128.65C506.178 1128.83 503.981 1131.33 504.162 1134.24 504.343 1137.14 506.835 1139.34 509.726 1139.16L510.652 1139.1 490.165 1159.67C488.113 1161.73 488.113 1165.07 490.165 1167.13 500.32 1177.33 507.5 1190.48 510.285 1205.18 510.818 1208.04 513.557 1209.92 516.403 1209.39 519.249 1208.85 521.125 1206.1 520.592 1203.24 517.736 1188.18 510.887 1174.55 501.197 1163.52ZM433.244 1326.73 433.244 1302.74C426.588 1302.32 420.121 1301.11 413.936 1299.21 405.913 1296.73 398.392 1293.07 391.58 1288.42 389.187 1286.79 388.562 1283.52 390.183 1281.12 391.805 1278.72 395.059 1278.09 397.451 1279.72 403.391 1283.78 409.972 1286.98 417.016 1289.15 423.773 1291.23 430.987 1292.35 438.5 1292.35 441.403 1292.35 443.756 1294.72 443.756 1297.63L443.756 1326.73 444.36 1326.04C446.264 1323.85 449.574 1323.63 451.751 1325.54 453.929 1327.46 454.149 1330.78 452.244 1332.96L442.442 1344.2C440.538 1346.39 437.228 1346.61 435.051 1344.7 434.86 1344.53 434.683 1344.35 434.522 1344.16L424.756 1332.96C422.852 1330.78 423.072 1327.46 425.249 1325.54 427.427 1323.63 430.736 1323.85 432.641 1326.04ZM510.652 1298.9 509.726 1298.84C506.835 1298.66 504.343 1300.86 504.162 1303.76 503.981 1306.67 506.178 1309.17 509.069 1309.35L523.847 1310.34C524.085 1310.35 524.328 1310.36 524.574 1310.34 527.466 1310.16 529.663 1307.66 529.481 1304.75L528.495 1289.85C528.314 1286.95 525.822 1284.74 522.931 1284.92 520.039 1285.1 517.842 1287.6 518.023 1290.51L518.085 1291.44 497.598 1270.87C495.546 1268.81 492.218 1268.81 490.166 1270.87 484.86 1276.2 478.972 1280.52 472.727 1283.85 466.222 1287.31 459.318 1289.71 452.264 1291.06 449.417 1291.6 447.542 1294.35 448.075 1297.21 448.608 1300.06 451.347 1301.95 454.193 1301.41 462.289 1299.86 470.192 1297.11 477.613 1293.16 483.331 1290.12 488.759 1286.38 493.766 1281.95ZM545.806 1224.28 521.913 1224.28C521.496 1230.96 520.291 1237.45 518.393 1243.66 515.929 1251.72 512.279 1259.27 507.646 1266.11 506.025 1268.51 502.77 1269.14 500.378 1267.51 497.986 1265.88 497.36 1262.61 498.982 1260.21 503.021 1254.25 506.21 1247.64 508.373 1240.57 510.448 1233.79 511.566 1226.54 511.566 1219 511.566 1216.09 513.919 1213.72 516.822 1213.72L545.806 1213.72 545.117 1213.12C542.94 1211.21 542.72 1207.88 544.625 1205.7 546.529 1203.51 549.839 1203.29 552.016 1205.2L563.211 1215.04C565.389 1216.95 565.609 1220.28 563.704 1222.46 563.537 1222.66 563.358 1222.83 563.171 1222.99L552.016 1232.8C549.838 1234.71 546.529 1234.49 544.624 1232.3 542.719 1230.12 542.939 1226.8 545.117 1224.88ZM358.915 1291.44 358.977 1290.51C359.158 1287.61 356.961 1285.1 354.07 1284.92 351.178 1284.74 348.687 1286.95 348.505 1289.85L347.524 1304.68C347.506 1304.92 347.503 1305.17 347.519 1305.41 347.7 1308.32 350.192 1310.52 353.083 1310.34L367.931 1309.35C370.823 1309.17 373.02 1306.67 372.838 1303.76 372.657 1300.86 370.166 1298.66 367.274 1298.84L366.348 1298.9 386.834 1278.33C388.887 1276.27 388.887 1272.93 386.834 1270.87 376.679 1260.68 369.5 1247.52 366.715 1232.82 366.182 1229.96 363.443 1228.08 360.597 1228.61 357.75 1229.15 355.875 1231.9 356.408 1234.76 359.263 1249.82 366.113 1263.45 375.803 1274.48ZM331.194 1213.72 355.087 1213.72C355.504 1207.04 356.708 1200.55 358.607 1194.34 361.071 1186.28 364.721 1178.73 369.353 1171.89 370.975 1169.49 374.229 1168.86 376.622 1170.49 379.014 1172.12 379.639 1175.39 378.018 1177.79 373.979 1183.75 370.79 1190.36 368.626 1197.43 366.551 1204.21 365.434 1211.46 365.434 1219 365.434 1221.91 363.08 1224.28 360.177 1224.28L331.195 1224.28 331.884 1224.88C334.061 1226.79 334.281 1230.12 332.376 1232.3 330.472 1234.49 327.162 1234.71 324.985 1232.8L313.789 1222.96C311.612 1221.05 311.391 1217.72 313.296 1215.54 313.464 1215.35 313.642 1215.17 313.83 1215.01L324.985 1205.2C327.162 1203.29 330.472 1203.51 332.376 1205.7 334.281 1207.88 334.061 1211.21 331.884 1213.12ZM366.348 1139.1 367.273 1139.16C370.165 1139.34 372.656 1137.14 372.838 1134.24 373.019 1131.33 370.822 1128.83 367.93 1128.65L353.153 1127.66C352.915 1127.65 352.671 1127.64 352.426 1127.66 349.534 1127.84 347.337 1130.34 347.518 1133.25L348.505 1148.15C348.687 1151.06 351.178 1153.26 354.07 1153.08 356.961 1152.9 359.158 1150.4 358.977 1147.49L358.916 1146.56 379.402 1167.13C381.455 1169.19 384.783 1169.19 386.835 1167.13 396.99 1156.94 410.097 1149.73 424.737 1146.93 427.584 1146.4 429.459 1143.65 428.926 1140.79 428.393 1137.93 425.654 1136.05 422.808 1136.58 407.8 1139.45 394.225 1146.33 383.236 1156.06Z" fill="#E60000" fill-rule="evenodd"/><path d="M289.945 1205.1C297.646 1205.1 303.889 1211.32 303.889 1219 303.889 1226.68 297.646 1232.9 289.945 1232.9 282.243 1232.9 276 1226.68 276 1219 276 1211.32 282.243 1205.1 289.945 1205.1ZM333.455 1100.38C341.157 1100.38 347.4 1106.6 347.4 1114.28 347.4 1121.96 341.157 1128.18 333.455 1128.18 325.754 1128.18 319.511 1121.96 319.511 1114.28 319.511 1106.6 325.754 1100.38 333.455 1100.38ZM438.5 1057C446.201 1057 452.445 1063.22 452.445 1070.9 452.445 1078.58 446.201 1084.8 438.5 1084.8 430.799 1084.8 424.555 1078.58 424.555 1070.9 424.555 1063.22 430.799 1057 438.5 1057ZM543.544 1100.38C551.245 1100.38 557.489 1106.6 557.489 1114.28 557.489 1121.96 551.245 1128.18 543.544 1128.18 535.843 1128.18 529.599 1121.96 529.599 1114.28 529.599 1106.6 535.843 1100.38 543.544 1100.38ZM587.055 1205.1C594.756 1205.1 601 1211.32 601 1219 601 1226.68 594.756 1232.9 587.055 1232.9 579.354 1232.9 573.11 1226.68 573.11 1219 573.11 1211.32 579.354 1205.1 587.055 1205.1ZM543.545 1309.82C551.246 1309.82 557.489 1316.04 557.489 1323.72 557.489 1331.4 551.246 1337.62 543.545 1337.62 535.843 1337.62 529.6 1331.4 529.6 1323.72 529.599 1316.04 535.843 1309.82 543.545 1309.82ZM438.5 1353.2C446.201 1353.2 452.445 1359.42 452.445 1367.1 452.445 1374.78 446.201 1381 438.5 1381 430.799 1381 424.555 1374.78 424.555 1367.1 424.555 1359.42 430.799 1353.2 438.5 1353.2ZM333.455 1309.82C341.157 1309.82 347.4 1316.04 347.4 1323.72 347.4 1331.4 341.157 1337.62 333.455 1337.62 325.754 1337.62 319.511 1331.4 319.511 1323.72 319.511 1316.04 325.754 1309.82 333.455 1309.82Z" fill="#666666" fill-rule="evenodd"/><path d="M296.942 1207.05C301.072 1209.47 303.846 1213.93 303.846 1219.05 303.846 1226.72 297.602 1232.95 289.899 1232.95 285.488 1232.95 281.556 1230.91 279 1227.72 281.068 1228.93 283.474 1229.62 286.043 1229.62 293.746 1229.62 299.99 1223.4 299.99 1215.72 299.99 1212.44 298.849 1209.43 296.942 1207.05ZM340.459 1102.36C344.589 1104.78 347.363 1109.25 347.363 1114.36 347.363 1122.04 341.118 1128.26 333.416 1128.26 329.005 1128.26 325.073 1126.22 322.517 1123.03 324.584 1124.24 326.991 1124.93 329.56 1124.93 337.263 1124.93 343.507 1118.71 343.507 1111.03 343.507 1107.76 342.366 1104.74 340.459 1102.36ZM445.519 1059C449.649 1061.41 452.423 1065.88 452.423 1071 452.423 1078.67 446.179 1084.89 438.476 1084.89 434.065 1084.89 430.133 1082.85 427.577 1079.67 429.645 1080.88 432.051 1081.57 434.62 1081.57 442.323 1081.57 448.567 1075.35 448.567 1067.67 448.567 1064.39 447.426 1061.38 445.519 1059ZM550.579 1102.36C554.709 1104.78 557.482 1109.25 557.482 1114.36 557.482 1122.04 551.238 1128.26 543.536 1128.26 539.124 1128.26 535.192 1126.22 532.637 1123.03 534.704 1124.24 537.11 1124.93 539.68 1124.93 547.382 1124.93 553.627 1118.71 553.627 1111.03 553.627 1107.75 552.486 1104.74 550.579 1102.36ZM594.096 1207.05C598.226 1209.47 601 1213.93 601 1219.05 601 1226.72 594.756 1232.95 587.053 1232.95 582.642 1232.95 578.71 1230.91 576.154 1227.72 578.222 1228.93 580.628 1229.62 583.197 1229.62 590.9 1229.62 597.144 1223.4 597.144 1215.72 597.144 1212.44 596.003 1209.43 594.096 1207.05ZM550.579 1311.74C554.708 1314.16 557.482 1318.62 557.482 1323.74 557.482 1331.41 551.238 1337.64 543.536 1337.64 539.124 1337.64 535.192 1335.6 532.637 1332.41 534.704 1333.62 537.11 1334.31 539.68 1334.31 547.382 1334.31 553.627 1328.09 553.627 1320.41 553.627 1317.13 552.486 1314.12 550.579 1311.74ZM445.519 1355.11C449.649 1357.52 452.423 1361.99 452.423 1367.1 452.423 1374.78 446.179 1381 438.476 1381 434.065 1381 430.133 1378.96 427.577 1375.77 429.645 1376.98 432.051 1377.67 434.62 1377.67 442.323 1377.67 448.567 1371.45 448.567 1363.78 448.567 1360.5 447.426 1357.48 445.519 1355.11ZM340.459 1311.74C344.589 1314.16 347.363 1318.62 347.363 1323.74 347.363 1331.41 341.118 1337.64 333.416 1337.64 329.005 1337.64 325.073 1335.6 322.517 1332.41 324.584 1333.62 326.991 1334.31 329.56 1334.31 337.263 1334.31 343.507 1328.09 343.507 1320.41 343.507 1317.13 342.366 1314.12 340.459 1311.74Z" fill="#4A4D4E" fill-rule="evenodd"/><path d="M480.126 1177.28C503.212 1200.37 503.212 1237.8 480.126 1260.89 457.039 1283.97 419.609 1283.97 396.522 1260.89 373.436 1237.8 373.436 1200.37 396.522 1177.28 419.609 1154.2 457.039 1154.2 480.126 1177.28Z" fill="#E60000" fill-rule="evenodd"/><path d="M476.227 1174C488.937 1184.83 497 1200.95 497 1218.96 497 1251.57 470.565 1278 437.957 1278 419.95 1278 403.83 1269.94 393 1257.23 403.306 1266.01 416.668 1271.31 431.27 1271.31 463.879 1271.31 490.313 1244.88 490.313 1212.27 490.313 1197.67 485.01 1184.31 476.227 1174Z" fill="#BD0000" fill-rule="evenodd"/><path d="M467.501 1189.91C483.614 1206.02 483.614 1232.15 467.501 1248.26 451.387 1264.38 425.261 1264.38 409.147 1248.26 393.033 1232.15 393.033 1206.02 409.147 1189.91 425.261 1173.79 451.387 1173.79 467.501 1189.91Z" fill="#FFFFFF" fill-rule="evenodd"/><path d="M438.566 1178C450.585 1178 461.411 1183.03 469 1191.07 462.106 1186.06 453.589 1183.1 444.37 1183.1 421.413 1183.1 402.804 1201.45 402.804 1224.09 402.804 1234.87 407.03 1244.68 413.936 1252 403.665 1244.54 397 1232.53 397 1218.99 397.001 1196.35 415.61 1178 438.566 1178Z" fill="#EBEBEB" fill-rule="evenodd"/><path d="M438.519 1247C424.11 1246.99 412.152 1235.87 411.111 1221.52 409.156 1200.02 433.417 1184.12 452.911 1196.13 476.622 1211.36 465.897 1247 438.519 1247Z" fill="#E60000" fill-rule="evenodd"/><path d="M438.509 1247C423.346 1247.03 411.03 1234.83 411 1219.75 410.999 1219.17 411.017 1218.58 411.053 1218 410.965 1233.08 423.185 1245.37 438.349 1245.46 453.512 1245.55 465.876 1233.4 465.964 1218.32 466.731 1233.38 455.076 1246.2 439.932 1246.97 439.458 1246.99 438.983 1247 438.509 1247Z" fill="#BD0000" fill-rule="evenodd"/><path d="M441.487 1229.33C446.652 1224.37 450.305 1218.05 452.02 1211.1 452.253 1210.29 453.095 1209.83 453.902 1210.06 454.665 1210.28 455.129 1211.05 454.968 1211.83 453.126 1219.36 449.184 1226.21 443.599 1231.58 442.978 1232.17 442.002 1232.13 441.418 1231.51 440.835 1230.89 440.866 1229.92 441.487 1229.33Z" fill="#BD0000" fill-rule="evenodd"/><path d="M438.312 1235.69C433.686 1238.78 428.428 1240.93 422.872 1242 421.866 1241.37 420.907 1240.67 420 1239.92 420.234 1239.65 420.563 1239.47 420.926 1239.41 434.313 1237.2 436.721 1231.07 438.682 1233.6 439.2 1234.24 439.071 1235.15 438.394 1235.64 438.367 1235.66 438.34 1235.68 438.312 1235.69Z" fill="#BD0000" fill-rule="evenodd"/><path d="M455.794 1205.58C455.704 1206.44 454.818 1207.07 453.814 1206.99 452.811 1206.92 452.07 1206.16 452.161 1205.3 452.445 1202.55 452.397 1199.78 452.015 1197.04 451.96 1196.68 452.056 1196.31 452.288 1196 453.512 1196.63 454.689 1197.33 455.813 1198.09 456.069 1200.58 456.063 1203.09 455.794 1205.58Z" fill="#BD0000" fill-rule="evenodd"/><path d="M430.946 1193.88C428.099 1203.56 431.212 1207 427.832 1207 426.89 1207 426.11 1206.36 426.053 1205.53 425.849 1201.73 426.232 1197.93 427.192 1194.22 428.393 1193.73 429.636 1193.32 430.91 1193 431.017 1193.28 431.029 1193.59 430.946 1193.88Z" fill="#BD0000" fill-rule="evenodd"/><path d="M436.404 1231.5C431.676 1225.95 428.441 1219.19 427.028 1211.9 426.867 1211.04 427.408 1210.2 428.236 1210.03 429.065 1209.86 429.867 1210.43 430.029 1211.29 431.326 1218.06 434.324 1224.35 438.714 1229.51 439.201 1230.21 439.051 1231.19 438.38 1231.7 437.768 1232.17 436.921 1232.08 436.404 1231.5Z" fill="#BD0000" fill-rule="evenodd"/><path d="M456 1240.91C455.176 1241.67 454.303 1242.37 453.389 1243 449.09 1241.33 445.097 1238.89 441.586 1235.79 440.936 1235.27 440.807 1234.29 441.298 1233.6 441.306 1233.59 441.313 1233.58 441.32 1233.57 443.194 1231.21 444.773 1236.69 455.322 1240.4 455.59 1240.5 455.826 1240.68 456 1240.91Z" fill="#BD0000" fill-rule="evenodd"/><path d="M450.656 1208.98C444.452 1207.45 437.947 1207.45 431.743 1208.98 430.935 1209.11 430.165 1208.6 430.023 1207.82 429.896 1207.13 430.311 1206.45 431.001 1206.22 437.574 1204.59 444.469 1204.59 451.042 1206.22 451.809 1206.5 452.194 1207.33 451.902 1208.06 451.702 1208.57 451.219 1208.93 450.656 1208.98Z" fill="#BD0000" fill-rule="evenodd"/><path d="M455.934 1210.85C455.122 1210.5 454.773 1209.61 455.155 1208.86 455.517 1208.15 456.408 1207.82 457.202 1208.1 460.006 1209.18 462.672 1210.54 465.151 1212.16 467.427 1219.64 465.379 1214.51 455.934 1210.85Z" fill="#BD0000" fill-rule="evenodd"/><path d="M426.241 1210.95C420.838 1213.34 416.03 1216.92 412.17 1221.44 411.895 1221.77 411.5 1221.97 411.076 1222 410.975 1220.67 410.975 1219.33 411.076 1218 415.051 1213.74 419.838 1210.35 425.147 1208.03 425.995 1207.87 426.813 1208.43 426.973 1209.29 427.094 1209.95 426.802 1210.61 426.241 1210.95Z" fill="#BD0000" fill-rule="evenodd"/><path d="M431 1208.5C431 1210.43 429.657 1212 428 1212 426.343 1212 425 1210.43 425 1208.5 425 1206.57 426.343 1205 428 1205 429.657 1205 431 1206.57 431 1208.5Z" fill="#FFFFFF" fill-rule="evenodd"/><path d="M457 1208.5C457 1210.43 455.657 1212 454 1212 452.343 1212 451 1210.43 451 1208.5 451 1206.57 452.343 1205 454 1205 455.657 1205 457 1206.57 457 1208.5Z" fill="#FFFFFF" fill-rule="evenodd"/><path d="M440.017 1236C438.418 1236.08 437.068 1234.6 437.002 1232.7 436.963 1231.57 437.397 1230.49 438.163 1229.81 439.388 1228.58 441.216 1228.77 442.246 1230.23 442.303 1230.31 442.358 1230.39 442.408 1230.48 443.378 1231.99 443.13 1234.15 441.856 1235.3 441.329 1235.77 440.68 1236.02 440.017 1236Z" fill="#FFFFFF" fill-rule="evenodd"/></g></svg>