<svg width="94" height="94" xmlns="http://www.w3.org/2000/svg" xmlns:xlink="http://www.w3.org/1999/xlink" xml:space="preserve" overflow="hidden"><defs><clipPath id="clip0"><rect x="76" y="253" width="94" height="94"/></clipPath></defs><g clip-path="url(#clip0)" transform="translate(-76 -253)"><path d="M159.957 339.95C160.967 339.95 161.793 339.124 161.793 338.114L161.793 278.409C161.793 274.774 159.205 271.727 155.771 271.029 157.607 269.927 158.801 267.853 158.636 265.521 158.415 262.62 156.065 260.289 153.164 260.087 149.713 259.848 146.849 262.565 146.849 265.962 146.849 268.11 148.005 270.001 149.731 271.029 146.298 271.727 143.709 274.756 143.709 278.409L143.709 338.114C143.709 339.124 144.536 339.95 145.545 339.95L159.957 339.95Z" fill="#666666"/><path d="M141.873 339.95C142.883 339.95 143.709 339.124 143.709 338.114L143.709 296.181C143.709 292.546 141.121 289.498 137.688 288.801 139.523 287.699 140.717 285.625 140.552 283.293 140.331 280.392 137.981 278.061 135.08 277.859 131.629 277.62 128.765 280.355 128.765 283.734 128.765 285.882 129.921 287.773 131.647 288.801 128.214 289.498 125.625 292.528 125.625 296.181L125.625 338.132C125.625 339.142 126.452 339.968 127.461 339.968L141.873 339.968 141.873 339.95 141.873 339.95Z" fill="#666666"/><path d="M159.957 339.95C160.967 339.95 161.793 339.124 161.793 338.114L161.793 296.181C161.793 292.546 159.205 289.498 155.771 288.801 157.607 287.699 158.801 285.625 158.636 283.293 158.415 280.392 156.065 278.061 153.164 277.859 149.713 277.62 146.849 280.355 146.849 283.734 146.849 285.882 148.005 287.773 149.731 288.801 146.298 289.498 143.709 292.528 143.709 296.181L143.709 338.132C143.709 339.142 144.536 339.968 145.545 339.968L159.957 339.968 159.957 339.95 159.957 339.95Z" fill="#4A4D4E"/><path d="M123.789 339.95C124.799 339.95 125.625 339.124 125.625 338.114L125.625 314.339C125.625 310.704 123.037 307.656 119.604 306.958 121.439 305.857 122.633 303.782 122.468 301.45 122.247 298.55 119.897 296.218 116.996 296.016 113.545 295.777 110.681 298.513 110.681 301.891 110.681 304.039 111.837 305.93 113.563 306.958 110.13 307.656 107.541 310.685 107.541 314.339L107.541 338.132C107.541 339.142 108.368 339.968 109.377 339.968L123.789 339.968 123.789 339.95Z" fill="#990000"/><path d="M141.873 339.95C142.883 339.95 143.709 339.124 143.709 338.114L143.709 314.339C143.709 310.704 141.121 307.656 137.688 306.958 139.523 305.857 140.717 303.782 140.552 301.45 140.331 298.55 137.981 296.218 135.08 296.016 131.629 295.777 128.765 298.513 128.765 301.891 128.765 304.039 129.921 305.93 131.647 306.958 128.214 307.656 125.625 310.685 125.625 314.339L125.625 338.132C125.625 339.142 126.452 339.968 127.461 339.968L141.873 339.968 141.873 339.95 141.873 339.95Z" fill="#E60000"/><path d="M159.957 339.95C160.967 339.95 161.793 339.124 161.793 338.114L161.793 314.339C161.793 310.704 159.205 307.656 155.771 306.958 157.607 305.857 158.801 303.782 158.636 301.45 158.415 298.55 156.065 296.218 153.164 296.016 149.713 295.777 146.849 298.513 146.849 301.891 146.849 304.039 148.005 305.93 149.731 306.958 146.298 307.656 143.709 310.685 143.709 314.339L143.709 338.132C143.709 339.142 144.536 339.968 145.545 339.968L159.957 339.968 159.957 339.95 159.957 339.95Z" fill="#990000"/><path d="M105.705 339.95C106.715 339.95 107.541 339.124 107.541 338.114L107.541 332.478C107.541 328.843 104.953 325.795 101.52 325.097 103.355 323.996 104.549 321.921 104.384 319.589 104.163 316.689 101.813 314.357 98.9125 314.155 95.4609 313.916 92.5969 316.634 92.5969 320.03 92.5969 322.178 93.7535 324.069 95.4793 325.097 92.0461 325.795 89.4574 328.824 89.4574 332.478L89.4574 338.114C89.4574 339.124 90.2836 339.95 91.2934 339.95L105.705 339.95Z" fill="#BD0000"/><path d="M123.789 339.95C124.799 339.95 125.625 339.124 125.625 338.114L125.625 332.478C125.625 328.843 123.037 325.795 119.604 325.097 121.439 323.996 122.633 321.921 122.468 319.589 122.247 316.689 119.897 314.357 116.996 314.155 113.545 313.916 110.681 316.634 110.681 320.03 110.681 322.178 111.837 324.069 113.563 325.097 110.13 325.795 107.541 328.824 107.541 332.478L107.541 338.114C107.541 339.124 108.368 339.95 109.377 339.95L123.789 339.95Z" fill="#E60000"/><path d="M141.873 339.95C142.883 339.95 143.709 339.124 143.709 338.114L143.709 332.478C143.709 328.843 141.121 325.795 137.688 325.097 139.523 323.996 140.717 321.921 140.552 319.589 140.331 316.689 137.981 314.357 135.08 314.155 131.629 313.916 128.765 316.634 128.765 320.03 128.765 322.178 129.921 324.069 131.647 325.097 128.214 325.795 125.625 328.824 125.625 332.478L125.625 338.114C125.625 339.124 126.452 339.95 127.461 339.95L141.873 339.95Z" fill="#BD0000"/><path d="M159.957 339.95C160.967 339.95 161.793 339.124 161.793 338.114L161.793 332.478C161.793 328.843 159.205 325.795 155.771 325.097 157.607 323.996 158.801 321.921 158.636 319.589 158.415 316.689 156.065 314.357 153.164 314.155 149.713 313.916 146.849 316.634 146.849 320.03 146.849 322.178 148.005 324.069 149.731 325.097 146.298 325.795 143.709 328.824 143.709 332.478L143.709 338.114C143.709 339.124 144.536 339.95 145.545 339.95L159.957 339.95Z" fill="#E60000"/><path d="M97.5723 282.21C97.3336 282.21 97.0949 282.118 96.9297 281.934L95.002 280.007C94.6348 279.639 94.6348 279.07 95.002 278.703L96.9297 276.775C97.2969 276.408 97.866 276.408 98.2332 276.775L100.161 278.703C100.528 279.07 100.528 279.639 100.161 280.007L98.2332 281.934C98.0496 282.118 97.8109 282.21 97.5723 282.21ZM96.948 279.364 97.5723 279.988 98.1965 279.364 97.5723 278.74 96.948 279.364Z" fill="#990000"/><path d="M82.591 338.793C82.3523 338.793 82.1137 338.702 81.9484 338.518L80.0207 336.59C79.6535 336.223 79.6535 335.654 80.0207 335.287L81.9484 333.359C82.3156 332.992 82.8848 332.992 83.252 333.359L85.1797 335.287C85.5469 335.654 85.5469 336.223 85.1797 336.59L83.252 338.518C83.05 338.702 82.8113 338.793 82.591 338.793ZM81.9484 335.948 82.5727 336.572 83.1969 335.948 82.5727 335.323 81.9484 335.948Z" fill="#666666"/><path d="M100.877 273.507C100.638 273.507 100.4 273.416 100.234 273.232L98.3066 271.304C97.9395 270.937 97.9395 270.368 98.3066 270.001L100.234 268.073C100.602 267.706 101.171 267.706 101.538 268.073L103.466 270.001C103.833 270.368 103.833 270.937 103.466 271.304L101.538 273.232C101.354 273.416 101.116 273.507 100.877 273.507ZM100.253 270.662 100.877 271.286 101.501 270.662 100.877 270.038 100.253 270.662Z" fill="#E60000"/><path d="M86.8688 326.015C86.6852 326.015 86.4832 325.96 86.3363 325.832L85.6937 325.354 85.0512 325.832C84.7207 326.07 84.2984 326.07 83.968 325.832 83.6375 325.593 83.509 325.189 83.6375 324.804L83.8945 324.032 83.252 323.555C82.9215 323.316 82.793 322.913 82.9215 322.527 83.05 322.141 83.3988 321.884 83.8027 321.884L84.6105 321.884 84.8676 321.113C84.9961 320.728 85.3449 320.471 85.7488 320.471 86.1527 320.471 86.5016 320.728 86.6301 321.113L86.8871 321.884 87.6949 321.884C88.0988 321.884 88.4477 322.141 88.5762 322.527 88.7047 322.913 88.5578 323.316 88.2457 323.555L87.6031 324.032 87.8602 324.804C87.9887 325.189 87.8418 325.593 87.5297 325.832 87.2359 325.96 87.0523 326.015 86.8688 326.015Z" fill="#E60000"/><path d="M144.884 260.142C144.701 260.142 144.499 260.087 144.352 259.958L143.709 259.481 143.067 259.958C142.736 260.197 142.314 260.197 141.984 259.958 141.653 259.72 141.525 259.316 141.653 258.93L141.91 258.159 141.268 257.682C140.937 257.443 140.809 257.039 140.937 256.654 141.066 256.268 141.414 256.011 141.818 256.011L142.626 256.011 142.883 255.24C143.012 254.854 143.361 254.597 143.764 254.597 144.168 254.597 144.517 254.854 144.646 255.24L144.903 256.011 145.711 256.011C146.114 256.011 146.463 256.268 146.592 256.654 146.72 257.039 146.573 257.443 146.261 257.682L145.619 258.159 145.876 258.93C146.004 259.316 145.857 259.72 145.545 259.958 145.27 260.087 145.068 260.142 144.884 260.142Z" fill="#4A4D4E"/><path d="M136.274 277.032 137.247 261.207C137.339 259.885 136.237 258.783 134.897 258.857L119.071 259.83C117.162 259.94 116.299 262.253 117.639 263.612L120.76 266.733 84.7207 302.791C84.0414 303.47 84.0414 304.59 84.7207 305.269L90.8344 311.383C91.5137 312.062 92.6336 312.062 93.3129 311.383L129.371 275.325 132.492 278.446C133.832 279.823 136.145 278.942 136.274 277.032L136.274 277.032Z" fill="#E60000"/><path d="M18.682 282.43 11.834 282.43C10.8059 282.43 9.96133 281.586 9.96133 280.557L9.96133 262.014C9.96133 260.986 10.8059 260.142 11.834 260.142L18.682 260.142C19.7102 260.142 20.5547 260.986 20.5547 262.014L20.5547 280.557C20.5547 281.586 19.7285 282.43 18.682 282.43L18.682 282.43Z" fill="#D47600"/><path d="M28.5227 282.43 17.3602 282.43C16.332 282.43 15.4875 281.586 15.4875 280.557L15.4875 262.014C15.4875 260.986 16.332 260.142 17.3602 260.142L28.5227 260.142C29.5508 260.142 30.3953 260.986 30.3953 262.014L30.3953 280.557C30.4137 281.586 29.5691 282.43 28.5227 282.43L28.5227 282.43Z" fill="#FFA10B"/></g></svg>