<svg width="94" height="94" xmlns="http://www.w3.org/2000/svg" xmlns:xlink="http://www.w3.org/1999/xlink" xml:space="preserve" overflow="hidden"><defs><clipPath id="clip0"><rect x="706" y="511" width="94" height="94"/></clipPath></defs><g clip-path="url(#clip0)" transform="translate(-706 -511)"><path d="M708.423 539.732 733.392 539.732 733.392 602.062 708.423 602.062C708.423 602.062 708.423 539.732 708.423 539.732Z" fill="#990000"/><path d="M771.892 539.732 796.145 539.732 796.145 602.062 771.892 602.062 771.892 539.732Z" fill="#BD0000"/><path d="M733.392 513.938 771.892 513.938 771.892 602.062 733.392 602.062 733.392 513.938Z" fill="#E60000"/><path d="M755.809 582.326C757.535 581.28 758.581 579.425 758.6 577.424 758.563 574.175 755.882 571.586 752.651 571.623 749.475 571.659 746.905 574.23 746.85 577.424 746.85 579.425 747.914 581.298 749.64 582.326 746.225 583.575 743.93 586.824 743.912 590.459L743.912 602.062 761.537 602.062 761.537 590.459C761.519 586.824 759.224 583.575 755.809 582.326L755.809 582.326Z" fill="#4A4D4E"/><path d="M739.414 545.626 742.37 545.626 742.37 548.527 739.414 548.527 739.414 545.626Z" fill="#F4F4F4"/><path d="M739.322 551.336 742.278 551.336 742.278 554.236 739.322 554.236 739.322 551.336Z" fill="#F4F4F4"/><path d="M739.322 557.137 742.278 557.137 742.278 560.02 739.322 560.02 739.322 557.137Z" fill="#F4F4F4"/><path d="M739.322 562.92 742.278 562.92 742.278 565.821 739.322 565.821 739.322 562.92Z" fill="#F4F4F4"/><path d="M745.326 545.626 748.282 545.626 748.282 548.527 745.326 548.527 745.326 545.626Z" fill="#F4F4F4"/><path d="M745.234 551.336 748.19 551.336 748.19 554.236 745.234 554.236 745.234 551.336Z" fill="#F4F4F4"/><path d="M745.234 557.137 748.19 557.137 748.19 560.02 745.234 560.02 745.234 557.137Z" fill="#F4F4F4"/><path d="M745.234 562.92 748.19 562.92 748.19 565.821 745.234 565.821 745.234 562.92Z" fill="#F4F4F4"/><path d="M751.256 545.626 754.212 545.626 754.212 548.527 751.256 548.527 751.256 545.626Z" fill="#F4F4F4"/><path d="M751.164 551.336 754.12 551.336 754.12 554.236 751.164 554.236 751.164 551.336Z" fill="#F4F4F4"/><path d="M751.164 557.137 754.12 557.137 754.12 560.02 751.164 560.02 751.164 557.137Z" fill="#F4F4F4"/><path d="M751.164 562.92 754.12 562.92 754.12 565.821 751.164 565.821 751.164 562.92Z" fill="#F4F4F4"/><path d="M757.186 545.626 760.142 545.626 760.142 548.527 757.186 548.527 757.186 545.626Z" fill="#F4F4F4"/><path d="M745.326 539.824 748.282 539.824 748.282 542.725 745.326 542.725 745.326 539.824Z" fill="#F4F4F4"/><path d="M751.256 539.824 754.212 539.824 754.212 542.725 751.256 542.725 751.256 539.824Z" fill="#F4F4F4"/><path d="M757.186 539.824 760.142 539.824 760.142 542.725 757.186 542.725 757.186 539.824Z" fill="#F4F4F4"/><path d="M757.076 551.336 760.032 551.336 760.032 554.236 757.076 554.236 757.076 551.336Z" fill="#F4F4F4"/><path d="M757.076 557.137 760.032 557.137 760.032 560.02 757.076 560.02 757.076 557.137Z" fill="#F4F4F4"/><path d="M757.076 562.92 760.032 562.92 760.032 565.821 757.076 565.821 757.076 562.92Z" fill="#F4F4F4"/><path d="M763.006 545.534 765.962 545.534 765.962 548.435 763.006 548.435 763.006 545.534Z" fill="#F4F4F4"/><path d="M763.006 551.336 765.962 551.336 765.962 554.236 763.006 554.236 763.006 551.336Z" fill="#F4F4F4"/><path d="M763.006 557.137 765.962 557.137 765.962 560.02 763.006 560.02 763.006 557.137Z" fill="#F4F4F4"/><path d="M763.006 562.92 765.962 562.92 765.962 565.821 763.006 565.821 763.006 562.92Z" fill="#F4F4F4"/><path d="M725.791 588.091C726.856 587.283 727.499 586.016 727.499 584.676 727.462 582.234 725.461 580.288 723.037 580.325 720.651 580.362 718.723 582.289 718.686 584.676 718.686 586.016 719.329 587.283 720.394 588.091 717.603 589.156 715.749 591.836 715.749 594.811L715.749 602.062 730.436 602.062 730.436 594.811C730.418 591.836 728.582 589.156 725.791 588.091Z" fill="#EBEBEB"/><path d="M739.102 583.74C740.167 582.932 740.809 581.665 740.809 580.325 740.773 577.883 738.771 575.937 736.348 575.974 733.961 576.011 732.034 577.938 731.997 580.325 731.997 581.665 732.639 582.932 733.704 583.74 730.914 584.805 729.059 587.485 729.059 590.459L729.059 602.062 743.747 602.062 743.747 590.459C743.747 587.485 741.893 584.805 739.102 583.74L739.102 583.74Z" fill="#999999"/><path d="M785.019 588.091C786.084 587.283 786.726 586.016 786.726 584.676 786.689 582.234 784.688 580.288 782.265 580.325 779.878 580.362 777.95 582.289 777.914 584.676 777.914 586.016 778.556 587.283 779.621 588.091 776.83 589.156 774.976 591.836 774.976 594.811L774.976 602.062 789.664 602.062 789.664 594.811C789.645 591.836 787.791 589.156 785.019 588.091Z" fill="#333333"/><path d="M771.69 583.74C772.755 582.932 773.397 581.665 773.397 580.325 773.361 577.883 771.359 575.937 768.936 575.974 766.549 576.011 764.621 577.938 764.585 580.325 764.585 581.665 765.227 582.932 766.292 583.74 763.502 584.805 761.647 587.485 761.647 590.459L761.647 602.062 776.335 602.062 776.335 590.459C776.316 587.485 774.48 584.805 771.69 583.74L771.69 583.74Z" fill="#990000"/><path d="M779.291 549.885 782.246 549.885 782.246 573.073 779.291 573.073 779.291 549.885Z" fill="#EBEBEB"/><path d="M788.177 549.885 791.132 549.885 791.132 573.073 788.177 573.073 788.177 549.885Z" fill="#EBEBEB"/><path d="M714.152 549.885 717.107 549.885 717.107 573.073 714.152 573.073 714.152 549.885Z" fill="#EBEBEB"/><path d="M723.037 549.885 725.993 549.885 725.993 573.073 723.037 573.073 723.037 549.885Z" fill="#EBEBEB"/><path d="M740.883 518.087 764.566 518.087 764.566 532.591 740.883 532.591 740.883 518.087Z" fill="#F4F4F4"/><path d="M830.513 480.725 869.6 480.725 869.6 497.359 830.513 497.359Z" fill="#F4F4F4"/><path d="M830.513 502.298 869.6 502.298 869.6 518.931 830.513 518.931Z" fill="#EBEBEB"/><path d="M830.513 523.888 869.6 523.888 869.6 540.522 830.513 540.522Z" fill="#CCCCCC"/><path d="M830.513 545.497 869.6 545.497 869.6 562.131 830.513 562.131Z" fill="#AFAFAF"/><path d="M830.513 567.07 869.6 567.07 869.6 583.703 830.513 583.703Z" fill="#999999"/><path d="M830.513 588.679 869.6 588.679 869.6 605.312 830.513 605.312Z" fill="#666666"/><path d="M830.513 608.58 869.6 608.58 869.6 625.214 830.513 625.214Z" fill="#4A4D4E"/><path d="M880.836 480.799 919.923 480.799 919.923 497.432 880.836 497.432Z" fill="#E60000"/><path d="M880.836 502.389 919.923 502.389 919.923 519.023 880.836 519.023Z" fill="#BD0000"/><path d="M880.836 523.98 919.923 523.98 919.923 540.614 880.836 540.614Z" fill="#990000"/><path d="M880.836 545.589 919.923 545.589 919.923 562.223 880.836 562.223Z" fill="#D47600"/><path d="M880.836 567.161 919.923 567.161 919.923 583.795 880.836 583.795Z" fill="#FFA10B"/><path d="M830.513 628.5 869.6 628.5 869.6 645.134 830.513 645.134Z" fill="#333333"/></g></svg>