<svg width="95" height="94" xmlns="http://www.w3.org/2000/svg" xmlns:xlink="http://www.w3.org/1999/xlink" xml:space="preserve" overflow="hidden"><defs><clipPath id="clip0"><rect x="710" y="246" width="95" height="94"/></clipPath></defs><g clip-path="url(#clip0)" transform="translate(-710 -246)"><path d="M20.4891 38.1875 38.1141 38.1875 38.1141 49.9375 20.4891 49.9375C20.4891 49.9375 20.4891 38.1875 20.4891 38.1875Z" fill="#BD0000" transform="matrix(1.01064 0 0 1 710 246)"/><path d="M20.4891 38.1875 22.582 38.1875 16.0277 17.1844 13.2188 18.0656 20.4891 41.3453 20.4891 38.1875Z" fill="#E60000" transform="matrix(1.01064 0 0 1 710 246)"/><path d="M26.0336 38.1875 23.4266 15.991 20.5074 16.3398 23.0777 38.2059 26.0336 38.2059 26.0336 38.1875Z" fill="#BD0000" transform="matrix(1.01064 0 0 1 710 246)"/><path d="M27.8328 14.6875 30.7703 14.6875 30.7703 38.1875 27.8328 38.1875 27.8328 14.6875Z" fill="#E60000" transform="matrix(1.01064 0 0 1 710 246)"/><path d="M35.5438 38.1875 38.1141 16.3215 35.1949 15.9727 32.5879 38.1875 35.5438 38.1875Z" fill="#BD0000" transform="matrix(1.01064 0 0 1 710 246)"/><path d="M38.1141 38.1875 38.1141 41.3453 45.3844 18.0656 42.5938 17.1844 36.0395 38.1875 38.1141 38.1875Z" fill="#E60000" transform="matrix(1.01064 0 0 1 710 246)"/><path d="M20.4891 38.1875 20.4891 47 32.2391 47C33.8547 47 35.1766 45.6781 35.1766 44.0625L35.1766 38.1875 20.4891 38.1875Z" fill="#E60000" transform="matrix(1.01064 0 0 1 710 246)"/><path d="M17.5516 49.9375 41.0516 49.9375 41.0516 55.8125 17.5516 55.8125C17.5516 55.8125 17.5516 49.9375 17.5516 49.9375Z" fill="#333333" transform="matrix(1.01064 0 0 1 710 246)"/><path d="M21.9578 55.8125 36.6453 55.8125 36.6453 64.625 21.9578 64.625C21.9578 64.625 21.9578 55.8125 21.9578 55.8125Z" fill="#333333" transform="matrix(1.01064 0 0 1 710 246)"/><path d="M20.4891 42.5938 38.1141 42.5938 38.1141 45.5312 20.4891 45.5312C20.4891 45.5312 20.4891 42.5938 20.4891 42.5938Z" fill="#333333" transform="matrix(1.01064 0 0 1 710 246)"/><path d="M24.8953 64.625 33.7078 64.625 33.7078 91.0625 24.8953 91.0625 24.8953 64.625Z" fill="#333333" transform="matrix(1.01064 0 0 1 710 246)"/><path d="M17.5516 52.875 33.7078 52.875C35.3234 52.875 36.6453 51.5531 36.6453 49.9375L17.5516 49.9375C17.5516 49.9375 17.5516 52.875 17.5516 52.875Z" fill="#4A4D4E" transform="matrix(1.01064 0 0 1 710 246)"/><path d="M21.9578 55.8125 21.9578 60.2188 30.7703 60.2188C32.3859 60.2188 33.7078 58.8969 33.7078 57.2812L33.7078 55.8125 21.9578 55.8125Z" fill="#4A4D4E" transform="matrix(1.01064 0 0 1 710 246)"/><path d="M24.8953 64.625 24.8953 83.7188C27.3371 83.7188 29.3016 81.7543 29.3016 79.3125L29.3016 64.625 24.8953 64.625Z" fill="#4A4D4E" transform="matrix(1.01064 0 0 1 710 246)"/><path d="M58.75 51.4062 67.5625 51.4062 67.5625 91.0625 58.75 91.0625 58.75 51.4062Z" fill="#333333" transform="matrix(1.01064 0 0 1 710 246)"/><path d="M58.75 51.4062 58.75 83.7188C61.1918 83.7188 63.1562 81.7543 63.1562 79.3125L63.1562 51.4062 58.75 51.4062Z" fill="#4A4D4E" transform="matrix(1.01064 0 0 1 710 246)"/><path d="M54.3438 24.9688 71.9688 24.9688 71.9688 36.7188 54.3438 36.7188 54.3438 24.9688Z" fill="#BD0000" transform="matrix(1.01064 0 0 1 710 246)"/><path d="M54.3438 24.9688 56.4367 24.9688 49.8641 3.96563 47.0551 4.84687 54.3438 28.1266 54.3438 24.9688Z" fill="#E60000" transform="matrix(1.01064 0 0 1 710 246)"/><path d="M59.8883 24.9688 57.2629 2.77227 54.3438 3.12109 56.9141 24.9871 59.8883 24.9871 59.8883 24.9688Z" fill="#BD0000" transform="matrix(1.01064 0 0 1 710 246)"/><path d="M61.6875 1.46875 64.625 1.46875 64.625 24.9688 61.6875 24.9688 61.6875 1.46875Z" fill="#E60000" transform="matrix(1.01064 0 0 1 710 246)"/><path d="M69.3801 24.9688 71.9504 3.10273 69.0312 2.75391 66.4242 24.9688 69.3801 24.9688Z" fill="#BD0000" transform="matrix(1.01064 0 0 1 710 246)"/><path d="M71.9688 24.9688 71.9688 28.1266 79.2391 4.84687 76.4301 3.96563 69.8758 24.9688 71.9688 24.9688Z" fill="#E60000" transform="matrix(1.01064 0 0 1 710 246)"/><path d="M54.3438 24.9688 54.3438 33.7812 66.0938 33.7812C67.7094 33.7812 69.0312 32.4594 69.0312 30.8438L69.0312 24.9688 54.3438 24.9688Z" fill="#E60000" transform="matrix(1.01064 0 0 1 710 246)"/><path d="M51.4062 36.7188 74.9062 36.7188 74.9062 42.5938 51.4062 42.5938 51.4062 36.7188Z" fill="#333333" transform="matrix(1.01064 0 0 1 710 246)"/><path d="M55.8125 42.5938 70.5 42.5938 70.5 51.4062 55.8125 51.4062 55.8125 42.5938Z" fill="#333333" transform="matrix(1.01064 0 0 1 710 246)"/><path d="M54.3438 29.375 71.9688 29.375 71.9688 32.3125 54.3438 32.3125 54.3438 29.375Z" fill="#333333" transform="matrix(1.01064 0 0 1 710 246)"/><path d="M51.4062 39.6562 67.5625 39.6562C69.1781 39.6562 70.5 38.3344 70.5 36.7188L51.4062 36.7188 51.4062 39.6562Z" fill="#4A4D4E" transform="matrix(1.01064 0 0 1 710 246)"/><path d="M55.8125 42.5938 55.8125 47 64.625 47C66.2406 47 67.5625 45.6781 67.5625 44.0625L67.5625 42.5938 55.8125 42.5938Z" fill="#4A4D4E" transform="matrix(1.01064 0 0 1 710 246)"/><path d="M1.46875 89.5938 92.5312 89.5938 92.5312 92.5312 1.46875 92.5312 1.46875 89.5938Z" fill="#E60000" transform="matrix(1.01064 0 0 1 710 246)"/><path d="M110.156-8.53711 139.898-8.53711 139.898-1.65234 110.156-1.65234Z" fill="#E60000" transform="matrix(1.01064 0 0 1 710 246)"/><path d="M110.156 1.35859 139.898 1.35859 139.898 8.24336 110.156 8.24336Z" fill="#BD0000" transform="matrix(1.01064 0 0 1 710 246)"/><path d="M110.156 10.6301 139.898 10.6301 139.898 17.5148 110.156 17.5148Z" fill="#990000" transform="matrix(1.01064 0 0 1 710 246)"/><path d="M110.156 20.5258 139.898 20.5258 139.898 27.4105 110.156 27.4105Z" fill="#333333" transform="matrix(1.01064 0 0 1 710 246)"/><path d="M110.156 29.632 139.898 29.632 139.898 36.5168 110.156 36.5168Z" fill="#4A4D4E" transform="matrix(1.01064 0 0 1 710 246)"/><path d="M110.156 39.5277 139.898 39.5277 139.898 46.4125 110.156 46.4125Z" fill="#666666" transform="matrix(1.01064 0 0 1 710 246)"/><path d="M110.156 48.7441 139.898 48.7441 139.898 55.6289 110.156 55.6289Z" fill="#999999" transform="matrix(1.01064 0 0 1 710 246)"/><path d="M110.156 58.6398 139.898 58.6398 139.898 65.5246 110.156 65.5246Z" fill="#AFAFAF" transform="matrix(1.01064 0 0 1 710 246)"/><path d="M139.898 67.8379 139.898 74.7227 110.156 74.7227 110.156 67.8379" fill="#CCCCCC" transform="matrix(1.01064 0 0 1 710 246)"/><path d="M110.156 76.9441 139.898 76.9441 139.898 83.8289 110.156 83.8289Z" fill="#EBEBEB" transform="matrix(1.01064 0 0 1 710 246)"/><path d="M110.156 86.8398 139.898 86.8398 139.898 93.7246 110.156 93.7246Z" fill="#F4F4F4" transform="matrix(1.01064 0 0 1 710 246)"/></g></svg>