<svg width="323" height="325" xmlns="http://www.w3.org/2000/svg" xmlns:xlink="http://www.w3.org/1999/xlink" xml:space="preserve" overflow="hidden"><g transform="translate(-410 -188)"><path d="M472 259 488 259 488 347 472 347Z" fill="#E60000" fill-rule="evenodd"/><path d="M498.779 270 462.221 270C459.644 270 458.114 267.161 459.556 265.056L477.823 238.395C479.097 236.535 481.875 236.534 483.151 238.394L501.443 265.055C502.887 267.159 501.357 270 498.779 270Z" fill="#E60000" fill-rule="evenodd"/><path d="M555 220 580 220 580 344 555 344Z" fill="#E60000" fill-rule="evenodd"/><path d="M655 259 670 259 670 347 655 347Z" fill="#E60000" fill-rule="evenodd"/><path d="M710.445 478 714.995 403.507C715.079 402.149 714 401 712.641 401L615.769 401C614.75 401 613.941 401.86 614.003 402.88L618.592 478Z" fill="#990000" fill-rule="evenodd"/><path d="M681 401 665.235 428 649 401Z" fill="#E60000" fill-rule="evenodd"/><path d="M658.037 373C658.031 373.125 658 373.243 658 373.37 658 378.136 661.806 382 666.5 382 671.195 382 675 378.136 675 373.37 675 373.243 674.969 373.125 674.964 373Z" fill="#FFFFFF" fill-rule="evenodd"/><path d="M676.638 313.44C676.638 313.44 667.834 300.591 651.198 303.402 634.562 306.213 638.173 317.188 630.951 320.266 623.73 323.345 621.092 331.509 621.509 338.201 621.509 338.201 610.399 341.508 611.371 349.09 612.344 356.672 614.028 358.947 611.311 361.49 608.594 364.033 603.734 368.45 607.206 373.001 610.677 377.552 617.482 377.819 618.454 380.362 619.426 382.906 621.925 394.148 628.174 392.944 634.423 391.739 638.356 387.858 641.319 390.936 644.283 394.015 652.78 397.139 655.891 393.034 659.002 388.929 677.209 393.677 677.209 393.677 677.209 393.677 690.244 396.29 695.245 389.865 695.245 389.865 709.272 387.456 710.66 378.89 710.66 378.89 724.775 373.938 723.967 363.23 723.158 352.523 711.771 356.319 712.327 349 712.882 341.681 712.049 337.666 706.633 335.658 701.218 333.651 701.218 331.242 701.495 325.62 701.773 319.999 693.997 307.685 676.638 313.44Z" fill="#333333" fill-rule="evenodd"/><path d="M676.823 379 677 401 652.177 401 652 379Z" fill="#88563D" fill-rule="evenodd"/><path d="M677 401 664.678 422 652 401Z" fill="#88563D" fill-rule="evenodd"/><path d="M677 379 677 391.949C668.148 392.363 659.857 390.253 652 386.033L652 379Z" fill="#704732" fill-rule="evenodd"/><path d="M698 354C698 358.418 694.866 362 691 362 687.134 362 684 358.418 684 354 684 349.582 687.134 346 691 346 694.866 346 698 349.582 698 354Z" fill="#704732" fill-rule="evenodd"/><path d="M693.66 357C693.477 357 693.297 356.937 693.165 356.812 692.925 356.58 692.949 356.226 693.222 356.02 694.162 355.313 694.681 354.419 694.681 353.5 694.681 352.579 694.162 351.684 693.224 350.979 692.951 350.774 692.925 350.421 693.165 350.189 693.408 349.958 693.827 349.936 694.096 350.139 695.325 351.06 696 352.253 696 353.5 696 354.744 695.325 355.937 694.098 356.86 693.972 356.954 693.815 357 693.66 357Z" fill="#88563D" fill-rule="evenodd"/><path d="M645 354C645 358.418 642.09 362 638.5 362 634.91 362 632 358.418 632 354 632 349.582 634.91 346 638.5 346 642.09 346 645 349.582 645 354Z" fill="#704732" fill-rule="evenodd"/><path d="M635.56 357C635.682 357 635.802 356.937 635.89 356.812 636.05 356.58 636.034 356.226 635.852 356.02 635.225 355.313 634.88 354.419 634.88 353.5 634.88 352.579 635.225 351.684 635.85 350.979 636.033 350.774 636.05 350.421 635.89 350.189 635.728 349.958 635.448 349.936 635.27 350.139 634.45 351.06 634 352.253 634 353.5 634 354.744 634.45 355.937 635.268 356.86 635.352 356.954 635.457 357 635.56 357Z" fill="#88563D" fill-rule="evenodd"/><path d="M692 345.382 692 359.618C692 374.753 679.671 387 664.5 387 649.3 387 637 374.753 637 359.618L637 345.382C637 330.247 649.3 318 664.5 318 672.1 318 678.968 321.054 683.95 326.015 688.932 330.976 692 337.814 692 345.382Z" fill="#88563D" fill-rule="evenodd"/><path d="M656 352.512C656 354.444 655.113 356 654.01 356 652.906 356 652 354.444 652 352.512 652 350.579 652.906 349 654.01 349 655.113 349 656 350.579 656 352.512Z" fill="#333333" fill-rule="evenodd"/><path d="M678 352.512C678 354.444 676.892 356 675.512 356 674.133 356 673 354.444 673 352.512 673 350.579 674.133 349 675.512 349 676.892 349 678 350.579 678 352.512Z" fill="#333333" fill-rule="evenodd"/><path d="M655.041 367C655.035 367.139 655 367.27 655 367.411 655 372.707 659.253 377 664.5 377 669.747 377 674 372.707 674 367.411 674 367.27 673.965 367.139 673.959 367Z" fill="#FFFFFF" fill-rule="evenodd"/><path d="M690.727 337.444C678.11 333.861 676.163 325.818 675.909 323.263 675.57 324.262 674.091 329.222 668.926 330.5 663.14 331.889 636.956 346 636.956 346L631 340.416 639.045 323.861 645.988 316.333 668.061 315 675.965 320.389C675.965 320.389 681.808 316.25 682.259 316.25 682.711 316.25 692.336 323.972 693.098 323.972 693.832 323.972 705.123 341.556 690.727 337.444Z" fill="#333333" fill-rule="evenodd"/><path d="M707.156 478 708 440.11 704.845 440 704 478Z" fill="#E60000" fill-rule="evenodd"/><path d="M625 478 624.155 440 621 440.11 621.844 478Z" fill="#F26678" fill-rule="evenodd"/><path d="M733 478 732.645 421.417C732.645 410.141 723.487 401 712.19 401L710.069 401 708 478 733 478Z" fill="#990000" fill-rule="evenodd"/><path d="M622 478 619.931 401 617.811 401C606.513 401 597.355 410.141 597.355 421.417L597 478 622 478Z" fill="#990000" fill-rule="evenodd"/><path d="M430 395 528 395 528 478 430 478Z" fill="#333333" fill-rule="evenodd"/><path d="M492 478 483.083 399 476.917 399 468 478Z" fill="#990000" fill-rule="evenodd"/><path d="M488.473 478 492 478 483.09 399 480 399 488.74 477.559Z" fill="#BD0000" fill-rule="evenodd"/><path d="M493 395 480 408 467 395Z" fill="#990000" fill-rule="evenodd"/><path d="M466.088 395 480 395 465 403Z" fill="#494D4E" fill-rule="evenodd"/><path d="M494 403 482.075 396.186 480 395 492.971 395Z" fill="#494D4E" fill-rule="evenodd"/><path d="M467 376 493 376 493 395 467 395Z" fill="#FDC7B4" fill-rule="evenodd"/><path d="M493 376 493 389.945C483.794 390.392 475.171 388.119 467 383.575L467 376 493 376Z" fill="#EFB5A3" fill-rule="evenodd"/><path d="M511 353.5C511 357.642 508.314 361 505 361 501.686 361 499 357.642 499 353.5 499 349.358 501.686 346 505 346 508.314 346 511 349.358 511 353.5Z" fill="#FDC7B4" fill-rule="evenodd"/><path d="M461 353.5C461 357.642 458.09 361 454.5 361 450.91 361 448 357.642 448 353.5 448 349.358 450.91 346 454.5 346 458.09 346 461 349.358 461 353.5Z" fill="#FDC7B4" fill-rule="evenodd"/><path d="M506 345.191 506 358.809C506 373.285 494.12 385 479.5 385 464.853 385 453 373.285 453 358.809L453 345.191C453 330.715 464.853 319 479.5 319 486.823 319 493.442 321.922 498.243 326.667 503.044 331.412 506 337.953 506 345.191Z" fill="#FDC7B4" fill-rule="evenodd"/><path d="M472 352.01C472 353.667 470.892 355 469.512 355 468.133 355 467 353.667 467 352.01 467 350.353 468.133 349 469.512 349 470.892 349 472 350.353 472 352.01Z" fill="#333333" fill-rule="evenodd"/><path d="M492 352.01C492 353.667 491.113 355 490.01 355 488.906 355 488 353.667 488 352.01 488 350.353 488.906 349 490.01 349 491.113 349 492 350.353 492 352.01Z" fill="#333333" fill-rule="evenodd"/><path d="M470.041 366C470.035 366.139 470 366.27 470 366.411 470 371.707 474.253 376 479.5 376 484.747 376 489 371.707 489 366.411 489 366.27 488.965 366.139 488.959 366Z" fill="#FFFFFF" fill-rule="evenodd"/><path d="M505.773 345.919 505.773 349.97C503.72 350.245 501.897 348.597 501.966 346.536L502.013 344.179C502.013 344.179 499.429 342.737 499.198 339.509 498.968 336.281 499.798 328.659 499.798 328.659 499.798 328.659 472.73 335.761 460.411 328.918 460.411 328.918 460.236 338.662 457.145 342.737L456.984 346.354C456.914 348.368 455.23 349.97 453.177 349.97L453.177 345.255C453.177 345.255 446.142 336.51 447.087 322.135 448.01 307.758 456.845 297 456.845 297 456.845 297 459.613 307.85 462.797 307.69 462.797 307.69 460.79 303.776 461.182 300.181 461.182 300.181 466.119 306.729 469.809 306.34 469.809 306.34 502.82 299.861 505.773 318.655 505.773 318.655 511.195 318.805 512.856 325.214 514.033 329.816 507.664 340.219 505.773 345.919Z" fill="#333333" fill-rule="evenodd"/><path d="M507.44 357C507.318 357 507.198 356.937 507.11 356.812 506.95 356.58 506.966 356.226 507.148 356.02 507.775 355.313 508.12 354.419 508.12 353.5 508.12 352.579 507.775 351.684 507.15 350.979 506.967 350.774 506.95 350.421 507.11 350.189 507.272 349.958 507.552 349.936 507.73 350.139 508.55 351.06 509 352.253 509 353.5 509 354.745 508.55 355.937 507.732 356.86 507.648 356.954 507.543 357 507.44 357Z" fill="#EFB5A3" fill-rule="evenodd"/><path d="M435 478 435 395 430.428 395C419.146 395 410 404.26 410 415.683L410 478Z" fill="#333333" fill-rule="evenodd"/><path d="M435 457 438 457 438 478 435 478Z" fill="#666666" fill-rule="evenodd"/><path d="M550 478 550 415.683C550 404.26 540.854 395 529.572 395L525 395 525 478Z" fill="#333333" fill-rule="evenodd"/><path d="M521 457 525 457 525 478 521 478Z" fill="#F2CF77" fill-rule="evenodd"/><path d="M653 513 646.539 432.81C645.676 420.518 635.762 411 623.822 411L619 411 619 513Z" fill="#E60000" fill-rule="evenodd"/><path d="M631 513 628.9 470 624 470 626.1 513Z" fill="#990000" fill-rule="evenodd"/><path d="M504 513 504 411 499.037 411C486.745 411 476.54 420.518 475.651 432.81L469 513Z" fill="#E60000" fill-rule="evenodd"/><path d="M511.129 513 623 513 623 411 523.04 411C514.35 411 506.956 416.504 504 424.273L511.129 424.273Z" fill="#EBEBEB" fill-rule="evenodd"/><path d="M577 513 566.827 416 559.173 416 549 513Z" fill="#666666" fill-rule="evenodd"/><path d="M577 513 566.835 416 563 416 573.009 513Z" fill="#494D4E" fill-rule="evenodd"/><path d="M578 411 563 427 548 411Z" fill="#333333" fill-rule="evenodd"/><path d="M538.49 513 547 411 503.14 411 499 513Z" fill="#E60000" fill-rule="evenodd"/><path d="M627 513 622.86 411 579 411 587.51 513Z" fill="#E60000" fill-rule="evenodd"/><path d="M528.559 411 521.712 422.516C520.45 424.637 520.878 427.368 522.726 428.991L530.683 435.981 522.496 438.653C519.477 439.639 518.097 443.164 519.632 445.971L540.553 490 547 411 528.559 411Z" fill="#990000" fill-rule="evenodd"/><path d="M597.441 411 604.289 422.516C605.55 424.637 605.122 427.368 603.274 428.991L595.317 435.981 603.504 438.653C606.523 439.639 607.903 443.164 606.369 445.971L585.578 490 579 411 597.441 411Z" fill="#990000" fill-rule="evenodd"/><path d="M547.233 411 563 411 546 428Z" fill="#AFAFAF" fill-rule="evenodd"/><path d="M580 428 564.561 413.52 562 411 578.805 411Z" fill="#AFAFAF" fill-rule="evenodd"/><path d="M499.9 513 502 470 497.1 470 495 513Z" fill="#990000" fill-rule="evenodd"/><path d="M546 387 580 387 580 411 546 411Z" fill="#BD8469" fill-rule="evenodd"/><path d="M580 387 580 404.929C567.961 405.503 556.685 402.582 546 396.739L546 387Z" fill="#A0705A" fill-rule="evenodd"/><path d="M604 358.5C604 363.747 600.194 368 595.5 368 590.806 368 587 363.747 587 358.5 587 353.253 590.806 349 595.5 349 600.194 349 604 353.253 604 358.5Z" fill="#A0705A" fill-rule="evenodd"/><path d="M598.66 362C598.477 362 598.297 361.927 598.165 361.785 597.926 361.52 597.949 361.115 598.222 360.88 599.163 360.072 599.68 359.05 599.68 358 599.68 356.947 599.163 355.924 598.224 355.119 597.951 354.884 597.926 354.482 598.165 354.217 598.408 353.952 598.828 353.927 599.096 354.159 600.325 355.212 601 356.574 601 358 601 359.422 600.325 360.785 599.098 361.84 598.972 361.947 598.815 362 598.66 362Z" fill="#BD8469" fill-rule="evenodd"/><path d="M539 358.5C539 363.747 535.418 368 531 368 526.582 368 523 363.747 523 358.5 523 353.253 526.582 349 531 349 535.418 349 539 353.253 539 358.5Z" fill="#A0705A" fill-rule="evenodd"/><path d="M527.34 362C527.523 362 527.704 361.927 527.835 361.785 528.075 361.52 528.051 361.115 527.778 360.88 526.838 360.072 526.32 359.05 526.32 358 526.32 356.947 526.838 355.924 527.776 355.119 528.049 354.884 528.075 354.482 527.835 354.217 527.593 353.952 527.173 353.927 526.905 354.159 525.675 355.212 525 356.574 525 358 525 359.422 525.675 360.785 526.902 361.84 527.028 361.947 527.185 362 527.34 362Z" fill="#BD8469" fill-rule="evenodd"/><path d="M597 347.731 597 365.269C597 383.913 581.758 399 563 399 544.208 399 529 383.913 529 365.269L529 347.731C529 329.087 544.208 314 563 314 572.396 314 580.887 317.763 587.047 323.874 593.207 329.985 597 338.409 597 347.731Z" fill="#BD8469" fill-rule="evenodd"/><path d="M553 356.013C553 358.222 551.67 360 550.015 360 548.359 360 547 358.222 547 356.013 547 353.805 548.359 352 550.015 352 551.67 352 553 353.805 553 356.013Z" fill="#333333" fill-rule="evenodd"/><path d="M579 356.013C579 358.222 577.67 360 576.015 360 574.36 360 573 358.222 573 356.013 573 353.805 574.36 352 576.015 352 577.67 352 579 353.805 579 356.013Z" fill="#333333" fill-rule="evenodd"/><path d="M551.052 374C551.045 374.167 551 374.324 551 374.493 551 380.848 556.373 386 563 386 569.628 386 575 380.848 575 374.493 575 374.324 574.956 374.167 574.948 374Z" fill="#FFFFFF" fill-rule="evenodd"/><path d="M597.469 353.606 597.002 354.016C597.002 354.016 592.917 354.485 592.917 354.016 592.917 353.549 591.867 346.235 591.867 346.235 591.867 346.235 584.572 336.055 589.824 326.695 589.824 326.695 567.716 338.972 538.711 327.505 538.711 327.505 534.764 330.776 536.026 339.674 536.645 344.036 534.673 350.389 532.805 357L529.654 357 527.086 349.687C527.086 349.687 514.656 326.753 528.662 315.052 528.662 315.052 523.701 296.33 544.594 289.66L548.038 300.718C548.038 300.718 556.266 287.73 572.666 287.028 589.124 286.267 585.564 301.244 585.564 301.244 585.564 301.244 596.011 296.33 600.037 301.83 604.006 307.329 597.469 312.945 597.469 312.945 597.469 312.945 602.722 316.748 604.706 325.583 606.749 334.417 597.469 353.606 597.469 353.606Z" fill="#333333" fill-rule="evenodd"/><path d="M680.779 270 644.221 270C641.644 270 640.114 267.161 641.556 265.056L659.823 238.395C661.097 236.535 663.875 236.534 665.151 238.394L683.443 265.055C684.887 267.159 683.357 270 680.779 270Z" fill="#E60000" fill-rule="evenodd"/><path d="M590.88 231 544.12 231C540.824 231 538.867 227.301 540.711 224.558L564.076 189.819C565.706 187.395 569.259 187.394 570.89 189.816L594.287 224.556C596.134 227.299 594.178 231 590.88 231Z" fill="#E60000" fill-rule="evenodd"/><path d="M615.5 300 622 273 609 273Z" fill="#666666" fill-rule="evenodd"/><path d="M627.277 279 603.723 279C602.344 279 601.526 277.449 602.297 276.299L614.066 258.763C614.748 257.746 616.234 257.746 616.917 258.762L628.702 276.298C629.475 277.448 628.656 279 627.277 279Z" fill="#666666" fill-rule="evenodd"/><path d="M691 251 696 232 686 232Z" fill="#666666" fill-rule="evenodd"/><path d="M699.723 236 682.277 236C681.255 236 680.649 234.892 681.22 234.071L689.938 221.545C690.443 220.819 691.544 220.818 692.05 221.544L700.779 234.07C701.351 234.892 700.745 236 699.723 236Z" fill="#666666" fill-rule="evenodd"/><path d="M519.5 258 525 236 514 236Z" fill="#666666" fill-rule="evenodd"/><path d="M529.532 242 509.468 242C508.294 242 507.596 240.671 508.254 239.685L518.279 224.654C518.859 223.783 520.126 223.782 520.707 224.653L530.746 239.684C531.405 240.67 530.707 242 529.532 242Z" fill="#666666" fill-rule="evenodd"/></g></svg>