<svg width="360" height="325" xmlns="http://www.w3.org/2000/svg" xmlns:xlink="http://www.w3.org/1999/xlink" xml:space="preserve" overflow="hidden"><defs><clipPath id="clip0"><rect x="436" y="169" width="360" height="325"/></clipPath></defs><g clip-path="url(#clip0)" transform="translate(-436 -169)"><path d="M792.237 250.227C786.242 226.664 773.462 206.349 755.28 191.473 737.567 176.982 715.866 169 694.182 169 677.554 169 661.695 173.486 647.042 182.332 635.471 189.318 625.062 198.825 615.97 210.684 595.289 183.676 567.991 169 537.794 169 516.115 169 494.426 176.982 476.716 191.473 458.539 206.349 445.762 226.664 439.766 250.224 433.246 275.846 431.985 316.793 463.002 366.362 491.712 412.242 541.478 454.749 610.919 492.709 612.493 493.571 614.229 494 615.968 494 617.706 494 619.444 493.571 621.019 492.709 690.477 454.749 740.262 412.239 768.982 366.362 800.01 316.793 798.755 275.849 792.237 250.227Z" fill="#E60000" fill-rule="evenodd"/><path d="M792.237 250.227C786.242 226.664 773.462 206.349 755.28 191.473 737.567 176.982 715.866 169 694.181 169 677.554 169 661.695 173.486 647.042 182.332 635.482 189.312 625.086 198.803 616 210.649L616 494C617.728 493.992 619.452 493.565 621.015 492.709 690.477 454.749 740.261 412.239 768.979 366.362 800.01 316.793 798.755 275.849 792.237 250.227Z" fill="#BD0000" fill-rule="evenodd"/><path d="M513.171 335.739 526.281 309.292 561.896 381.14C563.677 384.731 567.315 387 571.293 387 575.275 387 578.911 384.731 580.69 381.14L616.308 309.292 629.418 335.739C631.197 339.33 634.836 341.596 638.815 341.596L718.495 341.596C724.297 341.596 729 336.851 729 331 729 325.149 724.297 320.404 718.495 320.404L645.309 320.404 625.705 280.857C623.926 277.269 620.287 275 616.308 275 612.329 275 608.692 277.269 606.911 280.857L571.296 352.706 535.679 280.857C533.899 277.269 530.263 275 526.281 275 522.303 275 518.663 277.269 516.884 280.857L497.283 320.404 443 320.404C445.011 327.211 447.603 334.282 450.87 341.596L503.777 341.596C507.753 341.596 511.393 339.33 513.171 335.739Z" fill="#CCCCCC" fill-rule="evenodd"/><path d="M718.463 320.68 645.074 320.68 625.417 280.892C623.634 277.283 619.987 275.003 616 275L616 309.514 629.138 336.108C630.925 339.72 634.572 342 638.564 342L718.463 342C724.281 342 729 337.227 729 331.34 728.997 325.453 724.281 320.68 718.463 320.68Z" fill="#EBEBEB" fill-rule="evenodd"/></g></svg>