<svg width="95" height="95" xmlns="http://www.w3.org/2000/svg" xmlns:xlink="http://www.w3.org/1999/xlink" xml:space="preserve" overflow="hidden"><defs><clipPath id="clip0"><rect x="760" y="279" width="95" height="95"/></clipPath></defs><g clip-path="url(#clip0)" transform="translate(-760 -279)"><path d="M815.553 367.32 814.811 364.147 801.062 364.147 800.728 367.32C800.728 371.013 803.715 374 807.407 374L808.873 374C812.565 374 815.553 371.013 815.553 367.32Z" fill="#4A4D4E"/><path d="M826.815 287.461C826.036 287.461 825.405 286.83 825.405 286.051L825.405 280.41C825.405 279.631 826.036 279 826.815 279 827.595 279 828.226 279.631 828.226 280.41L828.226 286.051C828.226 286.83 827.595 287.461 826.815 287.461Z" fill="#4A4D4E"/><path d="M833.551 288.222C832.771 288.222 832.141 287.591 832.141 286.812L832.141 280.41C832.141 279.631 832.771 279 833.551 279 834.33 279 834.961 279.631 834.961 280.41L834.961 286.812C834.979 287.591 834.33 288.222 833.551 288.222Z" fill="#4A4D4E"/><path d="M840.305 287.275C839.525 287.275 838.895 286.645 838.895 285.865L838.895 280.41C838.895 279.631 839.525 279 840.305 279 841.084 279 841.715 279.631 841.715 280.41L841.715 285.865C841.715 286.645 841.084 287.275 840.305 287.275Z" fill="#4A4D4E"/><path d="M847.949 296.219 842.494 296.219C841.715 296.219 841.084 295.588 841.084 294.809 841.084 294.029 841.715 293.398 842.494 293.398L847.949 293.398C848.729 293.398 849.359 294.029 849.359 294.809 849.359 295.588 848.729 296.219 847.949 296.219Z" fill="#4A4D4E"/><path d="M847.949 302.954 842.123 302.954C841.344 302.954 840.713 302.323 840.713 301.544 840.713 300.765 841.344 300.134 842.123 300.134L847.949 300.134C848.729 300.134 849.359 300.765 849.359 301.544 849.359 302.323 848.729 302.954 847.949 302.954Z" fill="#4A4D4E"/><path d="M847.949 289.483 841.938 289.483C841.158 289.483 840.527 288.853 840.527 288.073 840.527 287.294 841.158 286.663 841.938 286.663L847.949 286.663C848.729 286.663 849.359 287.294 849.359 288.073 849.359 288.834 848.729 289.483 847.949 289.483Z" fill="#4A4D4E"/><path d="M808.131 288.036C791.654 288.036 778.258 301.247 777.961 317.668 777.961 317.724 777.961 317.798 777.961 317.854 777.961 317.965 777.961 318.095 777.961 318.206L777.961 318.243 777.961 318.299C777.961 326.815 781.486 334.497 787.164 339.989 791.357 344.034 794.66 348.914 796.738 354.332L799.373 363.146 816.555 363.146 819.542 354.332C821.564 348.988 824.756 344.146 828.912 340.193 834.701 334.701 838.319 326.927 838.319 318.299 838.319 318.28 838.319 318.262 838.319 318.262 838.319 318.243 838.319 318.225 838.319 318.206 838.301 301.544 824.793 288.036 808.131 288.036L808.131 288.036Z" fill="#E60000"/><path d="M811.508 362.774 808.873 353.961C806.795 348.543 803.492 343.682 799.299 339.618 793.621 334.126 790.096 326.444 790.096 317.928 790.096 317.909 790.096 317.891 790.096 317.872 790.096 317.854 790.096 317.854 790.096 317.835 790.096 317.724 790.096 317.594 790.096 317.482 790.096 317.427 790.096 317.353 790.096 317.297 790.337 303.27 800.171 291.58 813.308 288.481 811.619 288.185 809.894 288.036 808.112 288.036 791.636 288.036 778.239 301.247 777.942 317.668 777.942 317.724 777.942 317.798 777.942 317.854 777.942 317.965 777.942 318.095 777.942 318.206L777.942 318.243 777.942 318.299C777.942 326.815 781.468 334.497 787.146 339.989 791.339 344.034 794.642 348.914 796.72 354.332L799.354 363.146 816.536 363.146 816.666 362.793 811.508 362.774 811.508 362.774Z" fill="#BD0000"/><path d="M807.704 367.32 808.038 364.147 801.062 364.147 800.728 367.32C800.728 371.013 803.715 374 807.407 374L808.873 374C809.856 374 810.784 373.777 811.638 373.406 809.318 372.349 807.704 370.029 807.704 367.32Z" fill="#333333"/><path d="M818.206 359.88 798.056 359.88 798.056 364.63C798.056 366.114 799.262 367.32 800.746 367.32L815.516 367.32C817 367.32 818.206 366.114 818.206 364.63L818.206 359.88 818.206 359.88Z" fill="#666666"/><path d="M802.101 359.88C801.321 359.88 800.69 359.249 800.69 358.47L800.69 330.155C800.69 329.376 801.321 328.745 802.101 328.745 802.88 328.745 803.511 329.376 803.511 330.155L803.511 358.47C803.511 359.249 802.88 359.88 802.101 359.88Z" fill="#999999"/><path d="M802.101 359.88C802.88 359.88 803.511 359.249 803.511 358.47L803.511 344.368C802.639 343.199 801.692 342.086 800.69 341.028L800.69 358.47C800.69 359.249 801.321 359.88 802.101 359.88Z" fill="#999999"/><path d="M809.597 358.971C808.817 358.971 808.187 358.34 808.187 357.561L808.187 334.998C808.187 334.627 808.335 334.256 808.595 333.996L811.619 330.972 811.619 319.542C811.619 318.763 812.25 318.132 813.029 318.132 813.809 318.132 814.439 318.763 814.439 319.542L814.439 331.565C814.439 331.937 814.291 332.308 814.031 332.567L811.025 335.592 811.025 357.579C811.025 358.34 810.395 358.971 809.597 358.971L809.597 358.971Z" fill="#999999"/><path d="M815.553 358.247C814.773 358.247 814.143 357.616 814.143 356.837L814.143 344.405C814.143 344.034 814.291 343.663 814.551 343.403L820.878 337.076 820.878 330.452C820.878 329.673 821.509 329.042 822.288 329.042 823.067 329.042 823.698 329.673 823.698 330.452L823.698 337.67C823.698 338.041 823.55 338.412 823.29 338.672L816.963 344.98 816.963 356.818C816.963 357.598 816.332 358.247 815.553 358.247L815.553 358.247Z" fill="#999999"/><path d="M805.051 364.63 805.051 359.88 798.074 359.88 798.074 364.63C798.074 366.114 799.28 367.32 800.765 367.32L807.741 367.32C806.257 367.32 805.051 366.114 805.051 364.63Z" fill="#4A4D4E"/><path d="M819.394 354.313 796.887 354.313C794.994 354.313 793.436 355.854 793.436 357.765 793.436 359.657 794.976 361.216 796.887 361.216L819.394 361.216C821.286 361.216 822.845 359.676 822.845 357.765 822.826 355.854 821.286 354.313 819.394 354.313Z" fill="#999999"/><path d="M800.431 357.765C800.431 355.872 801.971 354.313 803.882 354.313L796.905 354.313C795.013 354.313 793.454 355.854 793.454 357.765 793.454 359.657 794.994 361.216 796.905 361.216L803.882 361.216C801.971 361.197 800.431 359.657 800.431 357.765Z" fill="#666666"/><path d="M814.996 321.806 811.081 321.806C810.395 321.806 809.819 321.249 809.819 320.544L809.819 316.629C809.819 315.942 810.376 315.367 811.081 315.367L814.996 315.367C815.683 315.367 816.258 315.924 816.258 316.629L816.258 320.544C816.258 321.249 815.683 321.806 814.996 321.806Z" fill="#FFFFFF"/><path d="M804.067 333.922 800.152 333.922C799.466 333.922 798.891 333.365 798.891 332.66L798.891 328.745C798.891 328.059 799.447 327.483 800.152 327.483L804.067 327.483C804.754 327.483 805.329 328.04 805.329 328.745L805.329 332.66C805.311 333.347 804.754 333.922 804.067 333.922Z" fill="#990000"/><path d="M795.829 320.655 791.061 320.655C790.374 320.655 789.799 320.099 789.799 319.394L789.799 314.625C789.799 313.938 790.355 313.363 791.061 313.363L795.829 313.363C796.516 313.363 797.091 313.92 797.091 314.625L797.091 319.394C797.072 320.099 796.516 320.655 795.829 320.655Z" fill="#990000"/><path d="M799.911 306.739 797.017 306.739C796.33 306.739 795.755 306.183 795.755 305.478L795.755 302.583C795.755 301.896 796.312 301.321 797.017 301.321L799.911 301.321C800.598 301.321 801.173 301.878 801.173 302.583L801.173 305.478C801.173 306.164 800.598 306.739 799.911 306.739Z" fill="#E60000"/><path d="M769.797 334.423 766.902 334.423C766.216 334.423 765.641 333.866 765.641 333.161L765.641 330.267C765.641 329.58 766.197 329.005 766.902 329.005L769.797 329.005C770.483 329.005 771.059 329.562 771.059 330.267L771.059 333.161C771.04 333.848 770.483 334.423 769.797 334.423Z" fill="#990000"/><path d="M779.408 349.897 774.677 349.897C773.99 349.897 773.415 349.341 773.415 348.636L773.415 343.904C773.415 343.218 773.972 342.643 774.677 342.643L779.408 342.643C780.095 342.643 780.67 343.199 780.67 343.904L780.67 348.636C780.67 349.341 780.113 349.897 779.408 349.897Z" fill="#999999"/><path d="M793.955 296.942 788.444 296.942C787.758 296.942 787.183 296.386 787.183 295.681L787.183 290.188C787.183 289.502 787.739 288.927 788.444 288.927L793.955 288.927C794.642 288.927 795.217 289.483 795.217 290.188L795.217 295.699C795.217 296.386 794.66 296.942 793.955 296.942Z" fill="#666666"/><path d="M838.932 356.15 832.827 356.15C832.141 356.15 831.565 355.594 831.565 354.889L831.565 348.784C831.565 348.098 832.122 347.522 832.827 347.522L838.932 347.522C839.618 347.522 840.193 348.079 840.193 348.784L840.193 354.889C840.175 355.594 839.618 356.15 838.932 356.15Z" fill="#990000"/><path d="M846.372 341.659 842.791 341.659C842.104 341.659 841.529 341.103 841.529 340.397L841.529 336.816C841.529 336.13 842.086 335.555 842.791 335.555L846.372 335.555C847.059 335.555 847.634 336.111 847.634 336.816L847.634 340.397C847.634 341.084 847.059 341.659 846.372 341.659L846.372 341.659Z" fill="#333333"/><path d="M780.169 286.348 776.848 286.348C776.161 286.348 775.586 285.791 775.586 285.086L775.586 281.765C775.586 281.078 776.143 280.503 776.848 280.503L780.169 280.503C780.855 280.503 781.431 281.06 781.431 281.765L781.431 285.086C781.431 285.791 780.874 286.348 780.169 286.348Z" fill="#333333"/><path d="M770.762 297.722 768.183 297.722C767.496 297.722 766.921 297.165 766.921 296.46L766.921 293.881C766.921 293.194 767.478 292.619 768.183 292.619L770.762 292.619C771.448 292.619 772.023 293.176 772.023 293.881L772.023 296.46C772.023 297.165 771.448 297.722 770.762 297.722Z" fill="#BD0000"/><path d="M823.68 332.679 820.6 332.679C820.08 332.679 819.653 332.252 819.653 331.732L819.653 328.652C819.653 328.133 820.08 327.706 820.6 327.706L823.68 327.706C824.199 327.706 824.626 328.133 824.626 328.652L824.626 331.732C824.645 332.252 824.218 332.679 823.68 332.679Z" fill="#EBEBEB"/><path d="M817.649 289.558 817.649 303.01C817.649 307.259 821.101 310.71 825.35 310.71L837.373 310.71C834.831 300.746 827.316 292.768 817.649 289.558L817.649 289.558Z" fill="#BD0000"/><path d="M833.551 310.599C832.771 310.599 832.141 309.968 832.141 309.188L832.141 303.362C832.141 302.583 832.771 301.952 833.551 301.952 834.33 301.952 834.961 302.583 834.961 303.362L834.961 309.188C834.979 309.968 834.33 310.599 833.551 310.599Z" fill="#990000"/><path d="M826.815 310.599C826.036 310.599 825.405 309.968 825.405 309.188L825.405 302.602C825.405 301.822 826.036 301.191 826.815 301.191 827.595 301.191 828.226 301.822 828.226 302.602L828.226 309.188C828.226 309.968 827.595 310.599 826.815 310.599Z" fill="#990000"/><path d="M840.305 310.599C839.525 310.599 838.895 309.968 838.895 309.188L838.895 302.787C838.895 302.008 839.525 301.377 840.305 301.377 841.084 301.377 841.715 302.008 841.715 302.787L841.715 309.188C841.715 309.968 841.084 310.599 840.305 310.599Z" fill="#4A4D4E"/><path d="M824.997 296.219 819.171 296.219C818.392 296.219 817.761 295.588 817.761 294.809 817.761 294.029 818.392 293.398 819.171 293.398L824.997 293.398C825.776 293.398 826.407 294.029 826.407 294.809 826.407 295.588 825.776 296.219 824.997 296.219Z" fill="#990000"/><path d="M825.183 289.483 819.171 289.483C818.392 289.483 817.761 288.853 817.761 288.073 817.761 287.294 818.392 286.663 819.171 286.663L825.183 286.663C825.962 286.663 826.593 287.294 826.593 288.073 826.593 288.834 825.962 289.483 825.183 289.483Z" fill="#4A4D4E"/><path d="M824.626 302.954 819.171 302.954C818.392 302.954 817.761 302.323 817.761 301.544 817.761 300.765 818.392 300.134 819.171 300.134L824.626 300.134C825.405 300.134 826.036 300.765 826.036 301.544 826.036 302.323 825.405 302.954 824.626 302.954Z" fill="#990000"/><path d="M841.771 305.997 825.331 305.997C823.68 305.997 822.344 304.661 822.344 303.01L822.344 286.589C822.344 284.938 823.68 283.602 825.331 283.602L841.771 283.602C843.422 283.602 844.758 284.938 844.758 286.589L844.758 303.028C844.758 304.661 843.422 305.997 841.771 305.997L841.771 305.997Z" fill="#666666"/><path d="M829.32 303.01 829.32 286.589C829.32 284.938 830.656 283.602 832.308 283.602L825.35 283.602C823.698 283.602 822.362 284.938 822.362 286.589L822.362 303.028C822.362 304.68 823.698 306.016 825.35 306.016L832.308 306.016C830.656 305.997 829.32 304.661 829.32 303.01L829.32 303.01Z" fill="#4A4D4E"/><path d="M828.021 299.484 828.021 290.114C828.021 289.632 828.411 289.261 828.875 289.261L838.245 289.261C838.728 289.261 839.099 289.65 839.099 290.114L839.099 299.484C839.099 299.967 838.709 300.338 838.245 300.338L828.875 300.338C828.393 300.338 828.021 299.967 828.021 299.484Z" fill="#FFFFFF"/><path d="M828.875 289.261C828.393 289.261 828.021 289.65 828.021 290.114L828.021 299.484C828.021 299.967 828.411 300.338 828.875 300.338L829.32 300.338 829.32 289.261 828.875 289.261Z" fill="#EBEBEB"/><path d="M878.676 240.555 918.179 240.555 918.179 257.365 878.676 257.365Z" fill="#F4F4F4"/><path d="M878.676 262.375 918.179 262.375 918.179 279.186 878.676 279.186Z" fill="#EBEBEB"/><path d="M878.676 284.195 918.179 284.195 918.179 301.006 878.676 301.006Z" fill="#CCCCCC"/><path d="M878.676 306.034 918.179 306.034 918.179 322.845 878.676 322.845Z" fill="#AFAFAF"/><path d="M878.676 327.836 918.179 327.836 918.179 344.646 878.676 344.646Z" fill="#999999"/><path d="M878.676 349.656 918.179 349.656 918.179 366.467 878.676 366.467Z" fill="#666666"/><path d="M878.676 369.77 918.179 369.77 918.179 386.58 878.676 386.58Z" fill="#4A4D4E"/><path d="M929.534 240.629 969.037 240.629 969.037 257.439 929.534 257.439Z" fill="#E60000"/><path d="M929.534 262.468 969.037 262.468 969.037 279.278 929.534 279.278Z" fill="#BD0000"/><path d="M929.534 284.27 969.037 284.27 969.037 301.08 929.534 301.08Z" fill="#990000"/><path d="M929.534 306.127 969.037 306.127 969.037 322.938 929.534 322.938Z" fill="#D47600"/><path d="M929.534 327.929 969.037 327.929 969.037 344.739 929.534 344.739Z" fill="#FFA10B"/><path d="M878.676 389.901 918.179 389.901 918.179 406.712 878.676 406.712Z" fill="#333333"/></g></svg>