<svg width="95" height="95" xmlns="http://www.w3.org/2000/svg" xmlns:xlink="http://www.w3.org/1999/xlink" xml:space="preserve" overflow="hidden"><defs><clipPath id="clip0"><rect x="86" y="514" width="95" height="95"/></clipPath></defs><g clip-path="url(#clip0)" transform="translate(-86 -514)"><path d="M167.232 560.071 159.217 560.071C158.883 554.041 156.471 548.567 152.686 544.337L161.852 535.171C162.408 534.614 162.408 533.705 161.852 533.148 161.295 532.592 160.386 532.592 159.829 533.148L150.663 542.314C146.433 538.529 140.959 536.117 134.929 535.783L134.929 527.768C134.929 526.97 134.279 526.339 133.5 526.339 132.702 526.339 132.071 526.988 132.071 527.768L132.071 535.783C126.041 536.117 120.567 538.529 116.337 542.314L109.323 535.301C108.767 534.744 107.857 534.744 107.301 535.301 106.744 535.857 106.744 536.767 107.301 537.323L114.314 544.337C110.529 548.567 108.117 554.041 107.783 560.071L94.8877 560.071C94.0898 560.071 93.459 560.721 93.459 561.5 93.459 562.298 94.1084 562.929 94.8877 562.929L107.783 562.929C108.117 568.959 110.529 574.433 114.314 578.663L105.186 587.792C104.629 588.349 104.629 589.258 105.186 589.814 105.464 590.093 105.835 590.241 106.206 590.241 106.577 590.241 106.948 590.093 107.227 589.814L116.355 580.686C120.586 584.471 126.06 586.883 132.09 587.217L132.09 600.112C132.09 600.91 132.739 601.541 133.519 601.541 134.316 601.541 134.947 600.892 134.947 600.112L134.947 587.217C140.978 586.883 146.451 584.471 150.682 580.686L159.365 589.369C159.644 589.647 160.015 589.796 160.386 589.796 160.757 589.796 161.128 589.647 161.406 589.369 161.963 588.812 161.963 587.903 161.406 587.347L152.723 578.663C156.508 574.433 158.92 568.959 159.254 562.929L167.27 562.929C168.067 562.929 168.698 562.279 168.698 561.5 168.698 560.721 168.03 560.071 167.232 560.071L167.232 560.071ZM149.68 577.661C149.68 577.68 149.68 577.68 149.68 577.661 149.68 577.68 149.68 577.68 149.68 577.661 145.523 581.817 139.809 584.378 133.5 584.378 127.191 584.378 121.477 581.817 117.339 577.68 117.339 577.68 117.339 577.68 117.339 577.68 117.339 577.68 117.339 577.68 117.339 577.68 113.238 573.579 110.696 567.938 110.641 561.723 110.659 561.648 110.659 561.574 110.659 561.519 110.659 561.444 110.659 561.37 110.641 561.314 110.752 548.79 120.976 538.641 133.537 538.641 139.846 538.641 145.561 541.201 149.698 545.339 149.698 545.339 149.698 545.339 149.698 545.339 149.698 545.339 149.698 545.339 149.698 545.339 153.836 549.477 156.396 555.21 156.396 561.5 156.396 567.79 153.836 573.523 149.68 577.661Z" fill="#999999"/><path d="M152.092 561.5C152.092 571.768 143.768 580.092 133.5 580.092 123.232 580.092 114.908 571.768 114.908 561.5 114.908 551.232 123.232 542.908 133.5 542.908 143.768 542.908 152.092 551.232 152.092 561.5Z" fill="#E60000"/><path d="M133.5 542.908C132.517 542.908 131.57 542.982 130.624 543.131 139.53 544.504 146.34 552.204 146.34 561.5 146.34 570.796 139.53 578.496 130.624 579.869 131.552 580.018 132.517 580.092 133.5 580.092 143.761 580.092 152.092 571.761 152.092 561.5 152.092 551.239 143.761 542.908 133.5 542.908L133.5 542.908Z" fill="#BD0000"/><path d="M144.985 561.036C144.614 561.036 144.243 560.888 143.965 560.609 138.194 554.839 128.787 554.839 123.017 560.609 122.46 561.166 121.551 561.166 120.994 560.609 120.438 560.053 120.438 559.144 120.994 558.587 127.878 551.703 139.104 551.703 145.987 558.587 146.544 559.144 146.544 560.053 145.987 560.609 145.728 560.906 145.356 561.036 144.985 561.036Z" fill="#FFFFFF"/><path d="M140.644 565.378C140.272 565.378 139.901 565.229 139.623 564.951 136.246 561.574 130.735 561.574 127.358 564.951 126.802 565.508 125.893 565.508 125.336 564.951 124.779 564.395 124.779 563.485 125.336 562.929 129.826 558.438 137.155 558.438 141.664 562.929 142.221 563.485 142.221 564.395 141.664 564.951 141.386 565.248 141.015 565.378 140.644 565.378Z" fill="#FFFFFF"/><path d="M136.45 569.59C136.079 569.59 135.708 569.441 135.43 569.163 134.372 568.105 132.628 568.105 131.57 569.163 131.014 569.72 130.104 569.72 129.548 569.163 128.991 568.606 128.991 567.697 129.548 567.141 131.737 564.951 135.281 564.951 137.452 567.141 138.009 567.697 138.009 568.606 137.452 569.163 137.174 569.441 136.803 569.59 136.45 569.59Z" fill="#FFFFFF"/><path d="M140.384 520.884C140.384 524.686 137.302 527.768 133.5 527.768 129.698 527.768 126.616 524.686 126.616 520.884 126.616 517.082 129.698 514 133.5 514 137.302 514 140.384 517.082 140.384 520.884Z" fill="#666666"/><path d="M138.417 604.083C138.417 606.799 136.216 609 133.5 609 130.784 609 128.583 606.799 128.583 604.083 128.583 601.367 130.784 599.166 133.5 599.166 136.216 599.166 138.417 601.367 138.417 604.083Z" fill="#E60000"/><path d="M168.717 531.219C168.717 533.945 166.507 536.154 163.781 536.154 161.055 536.154 158.846 533.945 158.846 531.219 158.846 528.493 161.055 526.283 163.781 526.283 166.507 526.283 168.717 528.493 168.717 531.219Z" fill="#E60000"/><path d="M108.321 595.381C108.321 600.187 104.425 604.083 99.6191 604.083 94.8131 604.083 90.917 600.187 90.917 595.381 90.917 590.575 94.8131 586.679 99.6191 586.679 104.425 586.679 108.321 590.575 108.321 595.381Z" fill="#666666"/><path d="M105.761 589.239C103.33 586.809 99.8047 586.122 96.7432 587.18 97.9492 587.588 99.0625 588.293 100.027 589.239 103.423 592.635 103.423 598.146 100.027 601.541 99.0625 602.506 97.9492 603.192 96.7432 603.601 99.7861 604.658 103.33 603.972 105.761 601.541 109.156 598.127 109.156 592.635 105.761 589.239Z" fill="#4A4D4E"/><path d="M181 561.5C181 565.302 177.918 568.384 174.116 568.384 170.314 568.384 167.232 565.302 167.232 561.5 167.232 557.698 170.314 554.616 174.116 554.616 177.918 554.616 181 557.698 181 561.5Z" fill="#666666"/><path d="M174.116 554.616C173.096 554.616 172.131 554.839 171.24 555.247 173.615 556.342 175.248 558.717 175.248 561.5 175.248 564.283 173.597 566.677 171.24 567.753 172.112 568.161 173.077 568.384 174.116 568.384 177.92 568.384 181 565.304 181 561.5 181 557.696 177.92 554.616 174.116 554.616Z" fill="#4A4D4E"/><path d="M95.834 561.5C95.834 564.216 93.6326 566.417 90.917 566.417 88.2014 566.417 86 564.216 86 561.5 86 558.784 88.2014 556.583 90.917 556.583 93.6326 556.583 95.834 558.784 95.834 561.5Z" fill="#E60000"/><path d="M172.094 593.21C172.094 597.012 169.012 600.094 165.21 600.094 161.408 600.094 158.326 597.012 158.326 593.21 158.326 589.408 161.408 586.326 165.21 586.326 169.012 586.326 172.094 589.408 172.094 593.21Z" fill="#AFAFAF"/><path d="M111.086 529.382C111.086 534.741 106.741 539.086 101.382 539.086 96.0224 539.086 91.6777 534.741 91.6777 529.382 91.6777 524.022 96.0224 519.678 101.382 519.678 106.741 519.678 111.086 524.022 111.086 529.382Z" fill="#E60000"/><path d="M101.382 519.659C100.38 519.659 99.415 519.808 98.5059 520.086 102.477 521.311 105.353 525.003 105.353 529.363 105.353 533.724 102.477 537.416 98.5059 538.641 99.415 538.919 100.38 539.067 101.382 539.067 106.744 539.067 111.086 534.726 111.086 529.363 111.086 524.001 106.744 519.659 101.382 519.659Z" fill="#BD0000"/><path d="M72.9189 525.801 63.957 525.801C63.3818 525.801 62.918 525.337 62.918 524.762L62.918 517.692C62.918 517.117 63.3818 516.653 63.957 516.653L72.9189 516.653C73.4941 516.653 73.958 517.117 73.958 517.692L73.958 524.762C73.958 525.337 73.4941 525.801 72.9189 525.801Z" fill="#E60000"/><path d="M73.958 536.266 63.957 536.266C63.3818 536.266 62.918 535.802 62.918 535.227L62.918 528.157C62.918 527.582 63.3818 527.118 63.957 527.118L73.958 527.118" fill="#BD0000"/><path d="M72.9189 546.712 63.957 546.712C63.3818 546.712 62.918 546.248 62.918 545.673L62.918 538.604C62.918 538.028 63.3818 537.564 63.957 537.564L72.9189 537.564C73.4941 537.564 73.958 538.028 73.958 538.604L73.958 545.673C73.958 546.248 73.4941 546.712 72.9189 546.712Z" fill="#990000"/><path d="M73.958 557.733 63.957 557.733C63.3818 557.733 62.918 557.27 62.918 556.694L62.918 549.625C62.918 549.05 63.3818 548.586 63.957 548.586L73.958 548.586" fill="#F4F4F4"/><path d="M73.958 568.439 63.957 568.439C63.3818 568.439 62.918 567.976 62.918 567.4L62.918 560.331C62.918 559.756 63.3818 559.292 63.957 559.292L73.958 559.292" fill="#EBEBEB"/><path d="M73.958 579.164 63.957 579.164C63.3818 579.164 62.918 578.7 62.918 578.125L62.918 571.056C62.918 570.48 63.3818 570.017 63.957 570.017L73.958 570.017" fill="#CCCCCC"/><path d="M73.958 589.87 63.957 589.87C63.3818 589.87 62.918 589.406 62.918 588.831L62.918 581.762C62.918 581.187 63.3818 580.723 63.957 580.723L73.958 580.723" fill="#AFAFAF"/><path d="M73.958 601.263 63.957 601.263C63.3818 601.263 62.918 600.799 62.918 600.224L62.918 593.154C62.918 592.579 63.3818 592.115 63.957 592.115L73.958 592.115" fill="#999999"/><path d="M73.958 611.653 63.957 611.653C63.3818 611.653 62.918 611.189 62.918 610.614L62.918 603.545C62.918 602.97 63.3818 602.506 63.957 602.506L73.958 602.506" fill="#666666"/><path d="M60.4688 601.337 50.4678 601.337C49.8926 601.337 49.4287 600.873 49.4287 600.298L49.4287 593.229C49.4287 592.653 49.8926 592.189 50.4678 592.189L60.4688 592.189" fill="#4A4D4E"/><path d="M60.4688 611.728 50.4678 611.728C49.8926 611.728 49.4287 611.264 49.4287 610.688L49.4287 603.619C49.4287 603.044 49.8926 602.58 50.4678 602.58L60.4688 602.58" fill="#333333"/><text font-family="Arial,Arial_MSFontService,sans-serif" font-weight="400" font-size="12" transform="matrix(0.185547 0 0 0.185547 66.0099 576)">204</text><text font-family="Arial,Arial_MSFontService,sans-serif" font-weight="400" font-size="12" transform="matrix(0.185547 0 0 0.185547 66.2415 586)">175</text><text font-family="Arial,Arial_MSFontService,sans-serif" font-weight="400" font-size="12" transform="matrix(0.185547 0 0 0.185547 66.3573 597)">153</text><text font-family="Arial,Arial_MSFontService,sans-serif" font-weight="400" font-size="12" transform="matrix(0.185547 0 0 0.185547 66.5888 608)">102</text><text font-family="Arial,Arial_MSFontService,sans-serif" font-weight="400" font-size="12" transform="matrix(0.185547 0 0 0.185547 66.3573 555)">244</text><text font-family="Arial,Arial_MSFontService,sans-serif" font-weight="400" font-size="12" transform="matrix(0.185547 0 0 0.185547 66.5888 565)">235</text><text fill="#FFFFFF" font-family="Arial,Arial_MSFontService,sans-serif" font-weight="400" font-size="12" transform="matrix(0.185547 0 0 0.185547 52.6999 598)">74</text><text fill="#FFFFFF" font-family="Arial,Arial_MSFontService,sans-serif" font-weight="400" font-size="12" transform="matrix(0.185547 0 0 0.185547 52.9317 608)">51</text></g></svg>