<svg width="95" height="94" xmlns="http://www.w3.org/2000/svg" xmlns:xlink="http://www.w3.org/1999/xlink" xml:space="preserve" overflow="hidden"><defs><clipPath id="clip0"><rect x="416" y="303" width="95" height="94"/></clipPath></defs><g clip-path="url(#clip0)" transform="translate(-416 -303)"><path d="M4.40625 74.9062 70.5 74.9062 70.5 79.3125 4.40625 79.3125 4.40625 74.9062Z" fill="#666666" transform="matrix(1.01064 0 0 1 416 303)"/><path d="M70.5 76.375 85.1875 76.375 85.1875 83.7188 70.5 83.7188 70.5 76.375Z" fill="#4A4D4E" transform="matrix(1.01064 0 0 1 416 303)"/><path d="M83.7188 24.2344C81.3688 24.2344 79.4594 22.582 79.4594 20.5625 79.4594 18.543 81.3688 16.8906 83.7188 16.8906 86.0687 16.8906 87.9781 18.543 87.9781 20.5625 87.9781 22.582 86.0687 24.2344 83.7188 24.2344ZM83.7188 18.3594C82.1766 18.3594 80.9281 19.3508 80.9281 20.5625 80.9281 21.7742 82.1766 22.7656 83.7188 22.7656 85.2609 22.7656 86.5094 21.7742 86.5094 20.5625 86.5094 19.3508 85.2609 18.3594 83.7188 18.3594Z" fill="#999999" transform="matrix(1.01064 0 0 1 416 303)"/><path d="M4.40625 41.125 67.5625 41.125 67.5625 74.9062 4.40625 74.9062 4.40625 41.125Z" fill="#E60000" transform="matrix(1.01064 0 0 1 416 303)"/><path d="M77.1094 76.375C81.277 76.375 84.7652 79.5512 85.1508 83.7188L89.5938 83.7188 89.5938 67.5625 85.1875 55.8125 73.4375 55.8125 73.4375 76.375 77.1094 76.375Z" fill="#666666" transform="matrix(1.01064 0 0 1 416 303)"/><path d="M4.40625 79.3125 44.0625 79.3125 44.0625 83.7188 4.40625 83.7188 4.40625 79.3125Z" fill="#4A4D4E" transform="matrix(1.01064 0 0 1 416 303)"/><path d="M86.6562 79.3125 91.0625 79.3125 91.0625 83.7188 86.6562 83.7188 86.6562 79.3125Z" fill="#4A4D4E" transform="matrix(1.01064 0 0 1 416 303)"/><path d="M76.375 49.9375 70.5 49.9375 70.5 76.375 73.4375 76.375 73.4375 52.7281 76.375 52.7281 76.375 49.9375Z" fill="#4A4D4E" transform="matrix(1.01064 0 0 1 416 303)"/><path d="M70.5 58.0156 73.4375 58.0156 73.4375 59.4844 70.5 59.4844 70.5 58.0156Z" fill="#CCCCCC" transform="matrix(1.01064 0 0 1 416 303)"/><path d="M77.8438 58.75 83.7188 58.75 83.7188 67.5625 77.8438 67.5625 77.8438 58.75Z" fill="#AFAFAF" transform="matrix(1.01064 0 0 1 416 303)"/><path d="M86.2891 58.75 89.5938 67.5625 83.7188 67.5625 83.7188 58.75 86.2891 58.75Z" fill="#CCCCCC" transform="matrix(1.01064 0 0 1 416 303)"/><path d="M81.5156 71.2344 78.5781 71.2344C78.1742 71.2344 77.8438 70.9039 77.8438 70.5 77.8438 70.0961 78.1742 69.7656 78.5781 69.7656L81.5156 69.7656C81.9195 69.7656 82.25 70.0961 82.25 70.5 82.25 70.9039 81.9195 71.2344 81.5156 71.2344Z" fill="#CCCCCC" transform="matrix(1.01064 0 0 1 416 303)"/><path d="M47 79.3125 66.0938 79.3125 66.0938 83.7188 47 83.7188 47 79.3125Z" fill="#4A4D4E" transform="matrix(1.01064 0 0 1 416 303)"/><path d="M59.4844 79.3125 60.9531 79.3125 60.9531 83.7188 59.4844 83.7188 59.4844 79.3125Z" fill="#333333" transform="matrix(1.01064 0 0 1 416 303)"/><path d="M62.4219 79.3125 63.8906 79.3125 63.8906 83.7188 62.4219 83.7188 62.4219 79.3125Z" fill="#333333" transform="matrix(1.01064 0 0 1 416 303)"/><path d="M8.8125 74.9062 11.75 74.9062 11.75 79.3125 8.8125 79.3125 8.8125 74.9062Z" fill="#4A4D4E" transform="matrix(1.01064 0 0 1 416 303)"/><path d="M48.4688 74.9062 51.4062 74.9062 51.4062 79.3125 48.4688 79.3125 48.4688 74.9062Z" fill="#4A4D4E" transform="matrix(1.01064 0 0 1 416 303)"/><path d="M35.25 74.9062 38.1875 74.9062 38.1875 79.3125 35.25 79.3125 35.25 74.9062Z" fill="#4A4D4E" transform="matrix(1.01064 0 0 1 416 303)"/><path d="M61.6875 74.9062 64.625 74.9062 64.625 79.3125 61.6875 79.3125 61.6875 74.9062Z" fill="#4A4D4E" transform="matrix(1.01064 0 0 1 416 303)"/><path d="M22.0312 74.9062 24.9688 74.9062 24.9688 79.3125 22.0312 79.3125 22.0312 74.9062Z" fill="#4A4D4E" transform="matrix(1.01064 0 0 1 416 303)"/><path d="M4.40625 41.125 67.5625 41.125 67.5625 44.0625 4.40625 44.0625 4.40625 41.125Z" fill="#BD0000" transform="matrix(1.01064 0 0 1 416 303)"/><path d="M47.7298 36.7294C47.7298 37.1351 47.401 37.464 46.9953 37.464 46.5895 37.464 46.2607 37.1351 46.2607 36.7294 46.2607 36.3237 46.5895 35.9948 46.9953 35.9948 47.401 35.9948 47.7298 36.3237 47.7298 36.7294Z" fill="#E60000" transform="matrix(0.161857 -0.986814 0.997312 0.160154 419.252 380.22)"/><path d="M44.907 35.3785C44.5031 35.3785 44.1727 35.048 44.1727 34.6441 44.1727 34.4422 44.2461 34.2586 44.393 34.1301 45.825 32.698 48.1566 32.698 49.5887 34.1301 49.8824 34.4238 49.8824 34.8828 49.5887 35.1766 49.2949 35.4703 48.8359 35.4703 48.5422 35.1766 47.6793 34.3137 46.284 34.3137 45.4211 35.1766 45.4211 35.1766 45.4211 35.1766 45.4211 35.1766 45.2926 35.3051 45.109 35.3785 44.907 35.3785L44.907 35.3785Z" fill="#E60000" transform="matrix(1.01064 0 0 1 416 303)"/><path d="M51.1492 33.3039C50.9473 33.3039 50.7637 33.2305 50.6352 33.0836 48.634 31.0824 45.366 31.0824 43.3648 33.0836 43.3648 33.0836 43.3648 33.0836 43.3648 33.0836 43.0711 33.3773 42.6121 33.3773 42.3184 33.0836 42.0246 32.7898 42.0246 32.3309 42.3184 32.0371 44.907 29.4484 49.093 29.4484 51.6633 32.0371 51.957 32.3309 51.957 32.7898 51.6633 33.0836 51.5164 33.2305 51.3328 33.3039 51.1492 33.3039L51.1492 33.3039Z" fill="#E60000" transform="matrix(1.01064 0 0 1 416 303)"/><path d="M40.7578 31.2293C40.3539 31.2293 40.0234 30.8988 40.0234 30.4949 40.0234 30.293 40.0969 30.1094 40.2437 29.9809 43.9707 26.2539 50.0109 26.2539 53.7379 29.9809 54.0316 30.2563 54.0316 30.7336 53.7562 31.0273 53.4809 31.3211 53.0035 31.3211 52.7098 31.0457 52.7098 31.0457 52.6914 31.0273 52.6914 31.0273 49.5336 27.8695 44.4297 27.8695 41.2719 31.0273 41.2719 31.0273 41.2719 31.0273 41.2719 31.0273 41.1434 31.1375 40.9598 31.2293 40.7578 31.2293L40.7578 31.2293Z" fill="#E60000" transform="matrix(1.01064 0 0 1 416 303)"/><path d="M10.2812 23.5C8.26172 23.5 6.60938 22.068 6.60938 20.3238 6.60938 18.5797 8.26172 17.1477 10.2812 17.1477 12.3008 17.1477 13.9531 18.5797 13.9531 20.3238 13.9531 22.068 12.3008 23.5 10.2812 23.5ZM10.2812 18.598C9.06953 18.598 8.07812 19.3691 8.07812 20.3055 8.07812 21.2418 9.06953 22.0129 10.2812 22.0129 11.493 22.0129 12.4844 21.2418 12.4844 20.3055 12.4844 19.3691 11.493 18.598 10.2812 18.598Z" fill="#999999" transform="matrix(1.01064 0 0 1 416 303)"/><path d="M79.3125 8.8125C79.3125 11.2543 83.7188 20.5625 83.7188 20.5625 83.7188 20.5625 88.125 11.2543 88.125 8.8125 88.125 6.3707 86.1605 4.40625 83.7188 4.40625 81.277 4.40625 79.3125 6.3707 79.3125 8.8125Z" fill="#E60000" transform="matrix(1.01064 0 0 1 416 303)"/><path d="M83.7188 11.0156C82.507 11.0156 81.5156 10.0242 81.5156 8.8125 81.5156 7.60078 82.507 6.60938 83.7188 6.60938 84.9305 6.60938 85.9219 7.60078 85.9219 8.8125 85.9219 10.0242 84.9305 11.0156 83.7188 11.0156ZM83.7188 8.07812C83.3148 8.07812 82.9844 8.40859 82.9844 8.8125 82.9844 9.21641 83.3148 9.54688 83.7188 9.54688 84.1227 9.54688 84.4531 9.21641 84.4531 8.8125 84.4531 8.40859 84.1227 8.07812 83.7188 8.07812Z" fill="#BD0000" transform="matrix(1.01064 0 0 1 416 303)"/><path d="M20.1586 36.5168C17.8637 36.5168 15.6238 35.7641 13.7879 34.3871L13.3656 34.075C10.9605 32.2758 9.54688 29.4484 9.54688 26.4375 9.54688 26.0336 9.87734 25.7031 10.2812 25.7031 10.6852 25.7031 11.0156 26.0336 11.0156 26.4375 11.0156 28.9711 12.209 31.3762 14.2469 32.9L14.6691 33.2121C18.7082 36.2414 24.418 35.4152 27.4473 31.3945 27.5941 31.2109 27.7227 31.009 27.8512 30.8254L28.7875 29.3566C34.6809 20.0852 46.8164 17.0926 56.3449 22.5453L70.4266 30.5867C74.0617 32.6613 78.6883 31.3945 80.7629 27.7594 80.8363 27.6309 80.8914 27.5207 80.9648 27.3922L81.6074 26.107C81.791 25.7398 82.2133 25.593 82.5805 25.7582 82.9477 25.9418 83.0945 26.3641 82.9293 26.7313 82.9293 26.7313 82.9293 26.7496 82.9109 26.7496L82.2684 28.0348C80.0285 32.4961 74.5941 34.3137 70.1328 32.0738 69.9859 32.0004 69.8391 31.927 69.6922 31.8352L55.6105 23.7938C46.7613 18.7266 35.4887 21.5172 30.0176 30.1277L29.0812 31.5965C27.1535 34.6625 23.7754 36.5168 20.1586 36.5168L20.1586 36.5168Z" fill="#BD0000" transform="matrix(1.01064 0 0 1 416 303)"/><path d="M63.1562 31.5781C61.1367 31.5781 59.4844 30.2563 59.4844 28.6406 59.4844 27.025 61.1367 25.7031 63.1562 25.7031 65.1758 25.7031 66.8281 27.025 66.8281 28.6406 66.8281 30.2563 65.1758 31.5781 63.1562 31.5781ZM63.1562 27.1719C61.9629 27.1719 60.9531 27.8512 60.9531 28.6406 60.9531 29.4301 61.9629 30.1094 63.1562 30.1094 64.3496 30.1094 65.3594 29.4301 65.3594 28.6406 65.3594 27.8512 64.3496 27.1719 63.1562 27.1719Z" fill="#999999" transform="matrix(1.01064 0 0 1 416 303)"/><path d="M60.2188 20.6727C60.2188 22.3617 63.2664 28.8059 63.2664 28.8059 63.2664 28.8059 66.3141 22.3617 66.3141 20.6727 66.2957 18.9836 64.9188 17.625 63.248 17.6434 61.5773 17.6617 60.2371 19.002 60.2188 20.6727Z" fill="#E60000" transform="matrix(1.01064 0 0 1 416 303)"/><path d="M64.3496 20.5625C64.3496 21.0999 63.914 21.5355 63.3766 21.5355 62.8392 21.5355 62.4035 21.0999 62.4035 20.5625 62.4035 20.0251 62.8392 19.5895 63.3766 19.5895 63.914 19.5895 64.3496 20.0251 64.3496 20.5625Z" fill="#BD0000" transform="matrix(1.01064 0 0 1 416 303)"/><path d="M26.5844 35.25C24.2344 35.25 22.325 33.5977 22.325 31.5781 22.325 29.5586 24.2344 27.9062 26.5844 27.9062 28.9344 27.9062 30.8438 29.5586 30.8438 31.5781 30.8438 33.5977 28.9344 35.25 26.5844 35.25ZM26.5844 29.375C25.0422 29.375 23.7938 30.3664 23.7938 31.5781 23.7938 32.7898 25.0422 33.7812 26.5844 33.7812 28.1266 33.7812 29.375 32.7898 29.375 31.5781 29.375 30.3664 28.1266 29.375 26.5844 29.375Z" fill="#999999" transform="matrix(1.01064 0 0 1 416 303)"/><path d="M22.0312 20.5625C22.0312 23.0043 26.4375 32.3125 26.4375 32.3125 26.4375 32.3125 30.8438 23.0043 30.8438 20.5625 30.8438 18.1207 28.8793 16.1562 26.4375 16.1562 23.9957 16.1562 22.0312 18.1207 22.0312 20.5625Z" fill="#E60000" transform="matrix(1.01064 0 0 1 416 303)"/><path d="M27.9062 20.5625C27.9062 21.3737 27.2487 22.0312 26.4375 22.0312 25.6263 22.0312 24.9688 21.3737 24.9688 20.5625 24.9688 19.7513 25.6263 19.0938 26.4375 19.0938 27.2487 19.0938 27.9062 19.7513 27.9062 20.5625Z" fill="#BD0000" transform="matrix(1.01064 0 0 1 416 303)"/><path d="M7.34375 13.2188C7.34375 14.8344 10.2812 21.0582 10.2812 21.0582 10.2812 21.0582 13.2188 14.8344 13.2188 13.2188 13.2188 11.6031 11.8969 10.2812 10.2812 10.2812 8.66563 10.2812 7.34375 11.6031 7.34375 13.2188Z" fill="#E60000" transform="matrix(1.01064 0 0 1 416 303)"/><path d="M11.2543 13.2188C11.2543 13.7561 10.8186 14.1918 10.2812 14.1918 9.74385 14.1918 9.3082 13.7561 9.3082 13.2188 9.3082 12.6814 9.74385 12.2457 10.2812 12.2457 10.8186 12.2457 11.2543 12.6814 11.2543 13.2188Z" fill="#BD0000" transform="matrix(1.01064 0 0 1 416 303)"/><path d="M22.0312 84.4531C22.0312 87.2922 19.7297 89.5938 16.8906 89.5938 14.0515 89.5938 11.75 87.2922 11.75 84.4531 11.75 81.614 14.0515 79.3125 16.8906 79.3125 19.7297 79.3125 22.0312 81.614 22.0312 84.4531Z" fill="#333333" transform="matrix(1.01064 0 0 1 416 303)"/><path d="M35.25 84.4531C35.25 87.2922 32.9485 89.5938 30.1094 89.5938 27.2703 89.5938 24.9688 87.2922 24.9688 84.4531 24.9688 81.614 27.2703 79.3125 30.1094 79.3125 32.9485 79.3125 35.25 81.614 35.25 84.4531Z" fill="#333333" transform="matrix(1.01064 0 0 1 416 303)"/><path d="M82.25 84.4531C82.25 87.2922 79.9485 89.5938 77.1094 89.5938 74.2703 89.5938 71.9688 87.2922 71.9688 84.4531 71.9688 81.614 74.2703 79.3125 77.1094 79.3125 79.9485 79.3125 82.25 81.614 82.25 84.4531Z" fill="#333333" transform="matrix(1.01064 0 0 1 416 303)"/><path d="M78.5781 84.4531C78.5781 85.2643 77.9205 85.9219 77.1094 85.9219 76.2982 85.9219 75.6406 85.2643 75.6406 84.4531 75.6406 83.642 76.2982 82.9844 77.1094 82.9844 77.9205 82.9844 78.5781 83.642 78.5781 84.4531Z" fill="#EBEBEB" transform="matrix(1.01064 0 0 1 416 303)"/><path d="M31.5781 84.4531C31.5781 85.2643 30.9205 85.9219 30.1094 85.9219 29.2982 85.9219 28.6406 85.2643 28.6406 84.4531 28.6406 83.642 29.2982 82.9844 30.1094 82.9844 30.9205 82.9844 31.5781 83.642 31.5781 84.4531Z" fill="#EBEBEB" transform="matrix(1.01064 0 0 1 416 303)"/><path d="M18.3594 84.4531C18.3594 85.2643 17.7018 85.9219 16.8906 85.9219 16.0795 85.9219 15.4219 85.2643 15.4219 84.4531 15.4219 83.642 16.0795 82.9844 16.8906 82.9844 17.7018 82.9844 18.3594 83.642 18.3594 84.4531Z" fill="#EBEBEB" transform="matrix(1.01064 0 0 1 416 303)"/><path d="M112.47 0.605859 123.393 0.605859 123.393 9.65703 112.47 9.65703Z" fill="#E60000" transform="matrix(1.01064 0 0 1 416 303)"/><path d="M123.393 20.0117 112.47 20.0117 112.47 10.9605 123.393 10.9605" fill="#BD0000" transform="matrix(1.01064 0 0 1 416 303)"/><path d="M112.47 21.2969 123.393 21.2969 123.393 30.348 112.47 30.348Z" fill="#990000" transform="matrix(1.01064 0 0 1 416 303)"/><path d="M123.393 41.2535 112.47 41.2535 112.47 32.2023 123.393 32.2023" fill="#F4F4F4" transform="matrix(1.01064 0 0 1 416 303)"/><path d="M123.393 51.8469 112.47 51.8469 112.47 42.7957 123.393 42.7957" fill="#EBEBEB" transform="matrix(1.01064 0 0 1 416 303)"/><path d="M123.393 62.4586 112.47 62.4586 112.47 53.4074 123.393 53.4074" fill="#CCCCCC" transform="matrix(1.01064 0 0 1 416 303)"/><path d="M123.393 73.0519 112.47 73.0519 112.47 64.0008 123.393 64.0008" fill="#AFAFAF" transform="matrix(1.01064 0 0 1 416 303)"/><path d="M123.393 84.3246 112.47 84.3246 112.47 75.2734 123.393 75.2734" fill="#999999" transform="matrix(1.01064 0 0 1 416 303)"/><path d="M123.393 94.6059 112.47 94.6059 112.47 85.5547 123.393 85.5547" fill="#666666" transform="matrix(1.01064 0 0 1 416 303)"/><path d="M110.046 84.398 99.1223 84.398 99.1223 75.3469 110.046 75.3469" fill="#4A4D4E" transform="matrix(1.01064 0 0 1 416 303)"/><path d="M110.046 94.6793 99.1223 94.6793 99.1223 85.6281 110.046 85.6281" fill="#333333" transform="matrix(1.01064 0 0 1 416 303)"/><text font-family="Arial,Arial_MSFontService,sans-serif" font-weight="400" font-size="12" transform="matrix(0.185547 0 0 0.183594 532.758 362)">204</text><text font-family="Arial,Arial_MSFontService,sans-serif" font-weight="400" font-size="12" transform="matrix(0.185547 0 0 0.183594 532.99 372)">175</text><text font-family="Arial,Arial_MSFontService,sans-serif" font-weight="400" font-size="12" transform="matrix(0.185547 0 0 0.183594 533.105 384)">153</text><text font-family="Arial,Arial_MSFontService,sans-serif" font-weight="400" font-size="12" transform="matrix(0.185547 0 0 0.183594 533.337 394)">102</text><text font-family="Arial,Arial_MSFontService,sans-serif" font-weight="400" font-size="12" transform="matrix(0.185547 0 0 0.183594 533.105 341)">244</text><text font-family="Arial,Arial_MSFontService,sans-serif" font-weight="400" font-size="12" transform="matrix(0.185547 0 0 0.183594 533.337 351)">235</text><text fill="#FFFFFF" font-family="Arial,Arial_MSFontService,sans-serif" font-weight="400" font-size="12" transform="matrix(0.185547 0 0 0.183594 519.448 384)">74</text><text fill="#FFFFFF" font-family="Arial,Arial_MSFontService,sans-serif" font-weight="400" font-size="12" transform="matrix(0.185547 0 0 0.183594 519.68 394)">51</text></g></svg>