<svg width="94" height="94" xmlns="http://www.w3.org/2000/svg" xmlns:xlink="http://www.w3.org/1999/xlink" xml:space="preserve" overflow="hidden"><defs><clipPath id="clip0"><rect x="1120" y="37" width="94" height="94"/></clipPath></defs><g clip-path="url(#clip0)" transform="translate(-1120 -37)"><path d="M1209.15 49.9434 1209.15 113.228C1209.15 114.844 1207.78 116.166 1206.07 116.166L1123.08 116.166C1121.38 116.166 1120 114.862 1120 113.228L1120 49.9434C1120 48.3277 1121.4 46.9875 1123.08 46.9875L1206.07 46.9875C1207.78 46.9875 1209.15 48.3277 1209.15 49.9434L1209.15 49.9434Z" fill="#4A4D4E"/><path d="M1204.54 53.7621 1204.54 103.498C1204.54 105.334 1202.98 106.802 1201.09 106.802L1128.7 106.802C1126.79 106.802 1125.25 105.334 1125.25 103.498L1125.25 53.7621C1125.25 51.9445 1126.79 50.4574 1128.7 50.4574L1201.09 50.4574C1202.98 50.4574 1204.54 51.9445 1204.54 53.7621Z" fill="#EBEBEB"/><path d="M1196.1 94.9238 1204.53 96.1539 1204.53 92.7941 1193.46 91.2152 1195.97 81.8152 1204.54 78.4922 1204.54 67.7887 1150.97 88.5715 1137.39 77.7945 1158.26 50.4574 1151.82 50.4574 1133.4 74.6367 1125.25 68.2109 1125.25 81.0809 1149.12 99.9727 1160.57 95.5113 1163.93 106.802 1169.2 106.802 1165.44 93.6387 1189.99 84.1285" fill="#AFAFAF"/><path d="M1179.41 101.496 1172.97 102.488 1171.55 96.6496 1178.18 94.116 1179.41 101.496Z" fill="#666666"/><path d="M1133.22 66.2648 1129.11 63.309 1136.34 54.166 1140.43 57.1219 1133.22 66.2648Z" fill="#4A4D4E"/><path d="M1175.78 57.4156 1180.53 57.4156 1180.53 62.9785 1175.78 62.9785 1175.78 57.4156Z" fill="#4A4D4E"/><path d="M1198.61 64.3555 1192.13 66.2648 1188.61 56.9016 1198.21 56.1121 1198.61 64.3555Z" fill="#666666"/><path d="M1154.92 81.0441 1151.8 73.0945 1163.53 68.3578 1166.14 76.4543 1154.92 81.0441Z" fill="#666666"/><path d="M1160.45 110.199 1167.55 110.199 1167.55 112.127 1160.45 112.127 1160.45 110.199Z" fill="#FFFFFF"/><path d="M1213.98 120.241 1186.57 120.241 1172.95 110.548C1172.95 110.548 1170.69 108.675 1171.55 107.078 1173.33 103.81 1177.12 105.444 1177.12 105.444L1186.63 110.217 1186.31 88.5715C1186.3 87.0293 1187.53 85.7625 1189.07 85.7258L1189.1 85.7258 1190.57 85.7258C1192.12 85.7074 1193.36 86.9559 1193.38 88.498L1193.38 88.5164 1193.44 99.5687 1208.82 99.7707C1211.69 99.8074 1213.96 102.121 1213.96 104.985L1213.98 120.241Z" fill="#D19C74"/><path d="M1192.5 99.6238 1194.43 99.6238 1194.43 105.407 1192.5 105.407 1192.5 99.6238Z" fill="#AA7755"/><path d="M1199.57 99.6238 1201.5 99.6238 1201.5 105.407 1199.57 105.407 1199.57 99.6238Z" fill="#AA7755"/><path d="M1206.31 99.6238 1208.24 99.6238 1208.24 105.407 1206.31 105.407 1206.31 99.6238Z" fill="#AA7755"/><path d="M1186.19 120.241 1214 120.241 1214 127.971 1186.19 127.971 1186.19 120.241Z" fill="#E60000"/><path d="M1175.1 48.7867C1174.86 52.6238 1169.07 60.4266 1167.31 62.7215 1167.09 62.9969 1166.69 63.0336 1166.43 62.8133 1166.39 62.7766 1166.36 62.7398 1166.32 62.7031 1164.52 60.2246 1158.46 51.5773 1158.72 47.7219 1159.01 43.2055 1162.92 39.7723 1167.44 40.066 1171.94 40.3414 1175.37 44.2703 1175.1 48.7867L1175.1 48.7867Z" fill="#BD0000"/><path d="M1169.5 48.0156C1169.5 49.4757 1168.31 50.6594 1166.85 50.6594 1165.39 50.6594 1164.21 49.4757 1164.21 48.0156 1164.21 46.5555 1165.39 45.3719 1166.85 45.3719 1168.31 45.3719 1169.5 46.5555 1169.5 48.0156Z" fill="#FFFFFF"/><path d="M1148.64 88.3695C1148.38 92.1883 1142.62 99.991 1140.84 102.286 1140.64 102.561 1140.29 102.616 1140.01 102.414 1139.96 102.378 1139.9 102.323 1139.86 102.268 1138.07 99.8074 1131.99 91.1602 1132.25 87.3047 1132.45 82.7699 1136.27 79.2449 1140.8 79.4285 1145.34 79.6305 1148.86 83.4492 1148.68 87.984 1148.66 88.1125 1148.66 88.2594 1148.64 88.3695L1148.64 88.3695Z" fill="#E60000"/><path d="M1143.02 87.5801C1143.02 89.0402 1141.84 90.2238 1140.38 90.2238 1138.92 90.2238 1137.74 89.0402 1137.74 87.5801 1137.74 86.12 1138.92 84.9363 1140.38 84.9363 1141.84 84.9363 1143.02 86.12 1143.02 87.5801Z" fill="#FFFFFF"/><path d="M1187.56 74.4164C1187.31 78.2535 1181.54 86.0379 1179.78 88.3328 1179.56 88.6082 1179.15 88.6633 1178.9 88.443 1178.86 88.4062 1178.82 88.3695 1178.79 88.3328 1176.99 85.8543 1170.91 77.207 1171.17 73.3516 1171.57 68.8352 1175.56 65.4754 1180.09 65.8793 1184.42 66.2648 1187.75 70.0102 1187.56 74.4164L1187.56 74.4164Z" fill="#990000"/><path d="M1182 74.2512C1182 75.7113 1180.82 76.8949 1179.36 76.8949 1177.9 76.8949 1176.71 75.7113 1176.71 74.2512 1176.71 72.7911 1177.9 71.6074 1179.36 71.6074 1180.82 71.6074 1182 72.7911 1182 74.2512Z" fill="#FFFFFF"/><path d="M1079.81 30.7762 1090.74 30.7762 1090.74 39.8273 1079.81 39.8273Z" fill="#E60000"/><path d="M1090.74 50.182 1079.81 50.182 1079.81 41.1309 1090.74 41.1309" fill="#BD0000"/><path d="M1079.81 51.4672 1090.74 51.4672 1090.74 60.5184 1079.81 60.5184Z" fill="#990000"/><path d="M1090.74 71.4238 1079.81 71.4238 1079.81 62.3727 1090.74 62.3727" fill="#F4F4F4"/><path d="M1090.74 82.0172 1079.81 82.0172 1079.81 72.966 1090.74 72.966" fill="#EBEBEB"/><path d="M1090.74 92.6289 1079.81 92.6289 1079.81 83.5777 1090.74 83.5777" fill="#CCCCCC"/><path d="M1090.74 103.222 1079.81 103.222 1079.81 94.1711 1090.74 94.1711" fill="#AFAFAF"/><path d="M1090.74 114.495 1079.81 114.495 1079.81 105.444 1090.74 105.444" fill="#999999"/><path d="M1090.74 124.776 1079.81 124.776 1079.81 115.725 1090.74 115.725" fill="#666666"/><path d="M1077.39 114.568 1066.46 114.568 1066.46 105.517 1077.39 105.517" fill="#4A4D4E"/><path d="M1077.39 124.85 1066.46 124.85 1066.46 115.798 1077.39 115.798" fill="#333333"/><text font-family="Arial,Arial_MSFontService,sans-serif" font-weight="400" font-size="12" transform="matrix(0.183594 0 0 0.183594 1082.87 89)">204</text><text font-family="Arial,Arial_MSFontService,sans-serif" font-weight="400" font-size="12" transform="matrix(0.183594 0 0 0.183594 1083.1 100)">175</text><text font-family="Arial,Arial_MSFontService,sans-serif" font-weight="400" font-size="12" transform="matrix(0.183594 0 0 0.183594 1083.21 111)">153</text><text font-family="Arial,Arial_MSFontService,sans-serif" font-weight="400" font-size="12" transform="matrix(0.183594 0 0 0.183594 1083.44 121)">102</text><text font-family="Arial,Arial_MSFontService,sans-serif" font-weight="400" font-size="12" transform="matrix(0.183594 0 0 0.183594 1083.21 68)">244</text><text font-family="Arial,Arial_MSFontService,sans-serif" font-weight="400" font-size="12" transform="matrix(0.183594 0 0 0.183594 1083.44 79)">235</text><text fill="#FFFFFF" font-family="Arial,Arial_MSFontService,sans-serif" font-weight="400" font-size="12" transform="matrix(0.183594 0 0 0.183594 1069.7 111)">74</text><text fill="#FFFFFF" font-family="Arial,Arial_MSFontService,sans-serif" font-weight="400" font-size="12" transform="matrix(0.183594 0 0 0.183594 1069.93 121)">51</text></g></svg>