<svg width="95" height="94" xmlns="http://www.w3.org/2000/svg" xmlns:xlink="http://www.w3.org/1999/xlink" xml:space="preserve" overflow="hidden"><defs><clipPath id="clip0"><rect x="67" y="29" width="95" height="94"/></clipPath></defs><g clip-path="url(#clip0)" transform="translate(-67 -29)"><path d="M47 80.873C42.4285 80.873 37.9901 79.978 33.8134 78.2109 29.7789 76.5035 26.1575 74.0617 23.0456 70.9544 19.9337 67.8425 17.4919 64.2211 15.7891 60.1866 14.022 56.0099 13.127 51.5761 13.127 47 13.127 42.4239 14.022 37.9901 15.7891 33.8134 17.4965 29.7789 19.9383 26.1575 23.0456 23.0456 26.1575 19.9337 29.7789 17.4919 33.8134 15.7891 37.9901 14.022 42.4239 13.127 47 13.127 51.5761 13.127 56.0099 14.022 60.1866 15.7891 64.2211 17.4965 67.8425 19.9383 70.9544 23.0456 74.0663 26.1575 76.5081 29.7789 78.2109 33.8134 79.978 37.9901 80.873 42.4239 80.873 47 80.873 51.5761 79.978 56.0099 78.2109 60.1866 76.5035 64.2211 74.0617 67.8425 70.9544 70.9544 67.8425 74.0663 64.2211 76.5081 60.1866 78.2109 56.0099 79.9734 51.5715 80.873 47 80.873ZM47 14.8252C29.2557 14.8252 14.8252 29.2603 14.8252 47 14.8252 64.7397 29.2603 79.1748 47 79.1748 64.7397 79.1748 79.1748 64.7397 79.1748 47 79.1748 29.2603 64.7443 14.8252 47 14.8252Z" fill="#E60000" transform="matrix(1.01064 0 0 1 67 29)"/><path d="M82.25 22.6463C82.25 28.6641 77.3716 33.5426 71.3537 33.5426 65.3359 33.5426 60.4574 28.6641 60.4574 22.6463 60.4574 16.6284 65.3359 11.75 71.3537 11.75 77.3716 11.75 82.25 16.6284 82.25 22.6463Z" fill="#E60000" transform="matrix(1.01064 0 0 1 67 29)"/><path d="M68.2143 26.823 68.2143 18.4695 76.5724 22.6463 68.2143 26.823Z" fill="#990000" transform="matrix(1.01064 0 0 1 67 29)"/><path d="M82.0572 71.3537C82.0572 77.3716 77.1788 82.25 71.1609 82.25 65.1431 82.25 60.2646 77.3716 60.2646 71.3537 60.2646 65.3359 65.1431 60.4574 71.1609 60.4574 77.1788 60.4574 82.0572 65.3359 82.0572 71.3537Z" fill="#E60000" transform="matrix(1.01064 0 0 1 67 29)"/><path d="M33.5426 71.3537C33.5426 77.3716 28.6641 82.25 22.6463 82.25 16.6284 82.25 11.75 77.3716 11.75 71.3537 11.75 65.3359 16.6284 60.4574 22.6463 60.4574 28.6641 60.4574 33.5426 65.3359 33.5426 71.3537Z" fill="#E60000" transform="matrix(1.01064 0 0 1 67 29)"/><path d="M22.8482 73.7909 19.3691 77.091 19.3691 73.7909 17.0513 73.7909 17.0513 66.1947 27.1214 66.1947 27.1214 73.7909 22.8482 73.7909Z" fill="#990000" transform="matrix(1.01064 0 0 1 67 29)"/><path d="M33.5426 22.6463C33.5426 28.6641 28.6641 33.5426 22.6463 33.5426 16.6284 33.5426 11.75 28.6641 11.75 22.6463 11.75 16.6284 16.6284 11.75 22.6463 11.75 28.6641 11.75 33.5426 16.6284 33.5426 22.6463Z" fill="#E60000" transform="matrix(1.01064 0 0 1 67 29)"/><path d="M28.1174 27.1443 17.1752 27.1443C17.0146 27.1443 16.886 27.0158 16.886 26.8552L16.886 18.4374C16.886 18.2768 17.0146 18.1482 17.1752 18.1482L28.1128 18.1482C28.2734 18.1482 28.402 18.2768 28.402 18.4374L28.402 26.8552C28.402 27.0158 28.2734 27.1443 28.1174 27.1443Z" fill="#4A4D4E" transform="matrix(1.01064 0 0 1 67 29)"/><path d="M28.3056 27.0709C28.2551 27.1168 28.1862 27.1443 28.1128 27.1443L17.1752 27.1443C17.1018 27.1443 17.0329 27.1168 16.9824 27.0709L22.6463 22.123 28.3056 27.0709Z" fill="#333333" transform="matrix(1.01064 0 0 1 67 29)"/><path d="M28.3147 18.2309 23.6606 22.9033 23.5229 23.0227C23.0181 23.4587 22.2745 23.4587 21.7696 23.0227L21.6319 22.9033 16.9824 18.2263C17.0329 18.1758 17.1018 18.1482 17.1798 18.1482L28.1174 18.1482C28.1908 18.1482 28.2597 18.1804 28.3147 18.2309L28.3147 18.2309Z" fill="#AFAFAF" transform="matrix(1.01064 0 0 1 67 29)"/><path d="M52.5124 35.2959C54.3254 34.4605 56.4688 35.2546 57.2996 37.0676 58.135 38.8806 57.3409 41.024 55.5279 41.8548L52.5124 35.2959Z" fill="#990000" transform="matrix(1.01064 0 0 1 67 29)"/><path d="M39.0091 49.7769 45.4027 63.6795C45.825 64.6021 45.4211 65.6898 44.5031 66.1121 43.5806 66.5344 42.4928 66.1305 42.0705 65.2125L35.6769 51.3099 39.0091 49.7769Z" fill="#E60000" transform="matrix(1.01064 0 0 1 67 29)"/><path d="M31.3899 46.9725 30.3756 47.436C29.3153 47.9226 28.8518 49.1802 29.3383 50.2404 29.8248 51.3007 31.0824 51.7643 32.1427 51.2777L33.157 50.8142 31.3899 46.9725Z" fill="#E60000" transform="matrix(1.01064 0 0 1 67 29)"/><path d="M42.0889 48.7992 34.9838 52.0672C34.3366 52.3655 33.5655 52.081 33.2672 51.4338L30.931 46.3528C30.6326 45.7057 30.9172 44.9346 31.5644 44.6362L38.6694 41.3683 42.0889 48.7992Z" fill="#BD0000" transform="matrix(1.01064 0 0 1 67 29)"/><path d="M55.9181 49.3362 41.6895 48.9828 38.2747 41.5519 47.2662 30.5179 55.9181 49.3362Z" fill="#E60000" transform="matrix(1.01064 0 0 1 67 29)"/><path d="M61.5177 35.8926C61.2285 35.8926 60.9485 35.7273 60.82 35.4474 60.641 35.0618 60.8108 34.6074 61.1964 34.4284L63.4408 33.3957C63.8264 33.2167 64.2808 33.3865 64.4598 33.7721 64.6388 34.1576 64.4689 34.612 64.0834 34.791L61.839 35.8237C61.738 35.8696 61.6278 35.8926 61.5177 35.8926Z" fill="#E60000" transform="matrix(1.01064 0 0 1 67 29)"/><path d="M63.6657 43.0436C63.5785 43.0436 63.4867 43.0298 63.3995 42.9977L61.0816 42.1439C60.6823 41.9971 60.4804 41.5564 60.6272 41.1571 60.7741 40.7578 61.2147 40.5559 61.6141 40.7027L63.9319 41.5564C64.3312 41.7033 64.5332 42.1439 64.3863 42.5433 64.2716 42.8508 63.9778 43.0436 63.6657 43.0436Z" fill="#E60000" transform="matrix(1.01064 0 0 1 67 29)"/><path d="M56.8406 31.5689C56.7534 31.5689 56.6616 31.5552 56.5744 31.523 56.1751 31.3762 55.9731 30.9355 56.12 30.5362L56.9737 28.2184C57.1206 27.819 57.5612 27.6171 57.9605 27.764 58.3599 27.9108 58.5618 28.3515 58.4149 28.7508L57.5612 31.0687C57.4465 31.3762 57.1527 31.5689 56.8406 31.5689Z" fill="#E60000" transform="matrix(1.01064 0 0 1 67 29)"/><path d="M57.6668 50.066C56.8269 50.4516 55.8309 50.0844 55.4453 49.2444L46.7889 30.4261C46.4033 29.5861 46.7705 28.5901 47.6105 28.2046 48.4504 27.819 49.4464 28.1862 49.8319 29.0262L58.4884 47.8445C58.8785 48.6845 58.5067 49.6805 57.6668 50.066Z" fill="#BD0000" transform="matrix(1.01064 0 0 1 67 29)"/><path d="M74.3601 77.4811 67.9664 77.4811C67.7461 77.4811 67.5671 77.3021 67.5671 77.0818L67.5671 65.621C67.5671 65.4007 67.7461 65.2217 67.9664 65.2217L74.3601 65.2217C74.5804 65.2217 74.7594 65.4007 74.7594 65.621L74.7594 77.0818C74.7548 77.3067 74.5804 77.4811 74.3601 77.4811Z" fill="#333333" transform="matrix(1.01064 0 0 1 67 29)"/><path d="M73.7955 76.4071 68.5264 76.4071C68.3428 76.4071 68.1959 76.2603 68.1959 76.0767L68.1959 66.6308C68.1959 66.4472 68.3428 66.3003 68.5264 66.3003L73.7955 66.3003C73.9791 66.3003 74.126 66.4472 74.126 66.6308L74.126 76.0767C74.126 76.2557 73.9791 76.4071 73.7955 76.4071Z" fill="#EBEBEB" transform="matrix(1.01064 0 0 1 67 29)"/><path d="M74.7548 65.621 74.7548 66.9016 67.5625 66.9016 67.5625 65.621C67.5625 65.4007 67.7415 65.2217 67.9618 65.2217L74.3555 65.2217C74.5804 65.2263 74.7548 65.4053 74.7548 65.621Z" fill="#333333" transform="matrix(1.01064 0 0 1 67 29)"/><path d="M74.7548 75.8059 74.7548 77.0864C74.7548 77.3067 74.5758 77.4857 74.3555 77.4857L67.9618 77.4857C67.7415 77.4857 67.5625 77.3067 67.5625 77.0864L67.5625 75.8059 74.7548 75.8059Z" fill="#333333" transform="matrix(1.01064 0 0 1 67 29)"/><path d="M71.4547 76.7651 70.8672 76.7651C70.7983 76.7651 70.7433 76.7101 70.7433 76.6412 70.7433 76.5724 70.7983 76.5173 70.8672 76.5173L71.4593 76.5173C71.5281 76.5173 71.5832 76.5724 71.5832 76.6412 71.5786 76.7101 71.5235 76.7651 71.4547 76.7651L71.4547 76.7651Z" fill="#FFFFFF" transform="matrix(1.01064 0 0 1 67 29)"/><path d="M71.7438 66.1855 70.578 66.1855C70.5092 66.1855 70.4541 66.1305 70.4541 66.0616 70.4541 65.9928 70.5092 65.9377 70.578 65.9377L71.7438 65.9377C71.8127 65.9377 71.8678 65.9928 71.8678 66.0616 71.8678 66.1305 71.8127 66.1855 71.7438 66.1855Z" fill="#FFFFFF" transform="matrix(1.01064 0 0 1 67 29)"/><path d="M-16.5785 39.4635-16.6428 36.2919C-15.5229 36.2781-14.0587 36.044-12.8011 35.9385-12.8057 35.8283-12.7919 35.7228-12.7598 35.6172-12.7368 35.5208-12.6955 35.4244-12.645 35.3418-12.4568 35.0526-11.9474 34.9379-11.7592 35.2775L-10.8137 37.9901-11.3369 40.0188C-11.3553 40.1015-11.3966 40.1795-11.4425 40.2529-11.4425 40.2529-11.6077 40.5283-11.7684 40.767L-15.9864 40.767C-16.349 40.4273-16.5647 39.9592-16.5785 39.4635L-16.5785 39.4635Z" fill="#CC8C60" transform="matrix(1.01064 0 0 1 67 29)"/><path d="M-11.4471 42.0108C-11.4425 42.1302-11.5664 42.2266-11.7225 42.2312L-12.2732 42.2312-16.1104 42.2633C-16.2664 42.2633-16.3949 42.1669-16.3949 42.0522L-16.4133 40.9506C-16.4133 40.8312-16.2894 40.7349-16.1333 40.7349L-12.2732 40.7027-11.7454 40.6981C-11.5848 40.6981-11.4608 40.7945-11.4563 40.9093L-11.4471 42.0108Z" fill="#EBEBEB" transform="matrix(1.01064 0 0 1 67 29)"/><path d="M-11.4471 42.0108C-11.4425 42.1302-11.5664 42.2266-11.7225 42.2312L-12.2732 42.2312-12.2732 40.7027-11.7454 40.6981C-11.5848 40.6981-11.4608 40.7945-11.4563 40.9093L-11.4471 42.0108Z" fill="#AFAFAF" transform="matrix(1.01064 0 0 1 67 29)"/><path d="M-10.9697 44.8106-16.0048 44.8106C-14.3065 44.8106-12.8194 43.8789-11.9979 42.222L-11.011 42.2174-10.9697 44.8106Z" fill="#BD0000" transform="matrix(1.01064 0 0 1 67 29)"/><path d="M-11.9979 42.222C-12.8194 43.8789-14.3065 44.8106-16.0048 44.8106L-16.7851 44.8106-16.8264 42.2587-11.9979 42.222Z" fill="#E60000" transform="matrix(1.01064 0 0 1 67 29)"/><path d="M-18.2354 37.04-17.1201 39.5782-10.5796 36.7004C-10.2583 36.5627-10.116 36.1863-10.2537 35.8696-10.2537 35.8696-10.2537 35.8696-10.2537 35.865L-13.0811 29.4301-15.7156 30.5913C-15.7707 30.6143-15.8304 30.5913-15.8533 30.5362-15.8579 30.5179-15.8625 30.4995-15.8579 30.4766-15.8258 30.2012-15.7891 29.6779-15.9772 29.3475-16.3215 28.7324-17.0972 28.5121-17.7122 28.8563-18.3272 29.2006-18.5476 29.9763-18.2033 30.5913-18.0381 30.8851-17.7627 31.1008-17.4414 31.1972-17.4001 31.2063-17.3726 31.2477-17.3817 31.289-17.3863 31.3165-17.4047 31.3349-17.4276 31.3486L-20.1907 32.5604-18.979 35.3188C-18.9652 35.3602-18.9193 35.3785-18.8826 35.3647-18.8597 35.3556-18.8367 35.3326-18.8321 35.3097-18.6348 34.6304-17.9325 34.2402-17.2532 34.4376-16.5739 34.635-16.1838 35.3372-16.3812 36.0165-16.4729 36.3424-16.6933 36.6132-16.987 36.7784-17.3221 36.962-17.8453 36.9299-18.1207 36.8932-18.1804 36.8886-18.2309 36.9345-18.2354 36.9941-18.2446 37.0033-18.24 37.0217-18.2354 37.04L-18.2354 37.04Z" fill="#BD0000" transform="matrix(1.01064 0 0 1 67 29)"/><path d="M-18.0978 37.3521-17.1201 39.5782-10.5796 36.7004C-10.2583 36.5627-10.116 36.1863-10.2537 35.8696-10.2537 35.8696-10.2537 35.8696-10.2537 35.865L-10.3639 35.6126C-10.6438 35.7595-10.933 35.8972-11.2268 36.0257-13.3886 36.9758-15.734 37.4302-18.0978 37.3521Z" fill="#990000" transform="matrix(1.01064 0 0 1 67 29)"/><path d="M-13.4482 38.7291C-13.3794 38.5822-13.3014 38.4216-13.205 38.2518-12.9296 37.7744-12.4568 37.5816-12.4568 37.5816-12.4568 37.5816-12.6634 36.3378-12.7276 35.9247-12.7735 35.6355-12.7185 35.3372-12.5716 35.0802-12.3742 34.7681-11.851 34.6396-11.6628 34.9976L-10.754 37.8387-11.3277 39.9913" fill="#CC8C60" transform="matrix(1.01064 0 0 1 67 29)"/><path d="M-20.7369 33.102-20.6727 36.2735C-21.7926 36.2827-23.2567 36.5214-24.5144 36.627-24.5144 36.7371-24.5281 36.8427-24.5557 36.9482-24.5786 37.0446-24.6199 37.1364-24.6704 37.2236-24.8586 37.5128-25.3681 37.6275-25.5562 37.2879L-26.4972 34.5753-25.9739 32.5466C-25.9556 32.464-25.9143 32.3813-25.8684 32.3125-25.8684 32.3125-25.7031 32.0417-25.5425 31.803L-21.3244 31.803C-20.9618 32.1381-20.7461 32.6063-20.7369 33.102Z" fill="#EFCDB1" transform="matrix(1.01064 0 0 1 67 29)"/><path d="M-20.9021 31.6148-20.9205 30.5087C-20.9205 30.3894-21.049 30.2976-21.2051 30.2976L-25.593 30.3297C-25.749 30.3297-25.8729 30.4261-25.8729 30.5454L-25.8546 31.647C-25.8546 31.7663-25.7261 31.8627-25.57 31.8581L-21.1821 31.826C-21.0261 31.8352-20.9021 31.7342-20.9021 31.6148L-20.9021 31.6148Z" fill="#CCCCCC" transform="matrix(1.01064 0 0 1 67 29)"/><path d="M-25.0376 31.8581-25.6572 31.8581C-25.772 31.8581-25.8684 31.7617-25.8684 31.647L-25.8684 31.6424-25.8684 30.5959C-25.8684 30.4582-25.7536 30.3435-25.6159 30.3435L-25.0422 30.3435-25.0422 31.8581Z" fill="#AFAFAF" transform="matrix(1.01064 0 0 1 67 29)"/><path d="M-26.3411 27.3509-21.3061 27.3509C-23.0043 27.3509-24.4914 28.6865-25.313 30.3435L-26.3044 30.348-26.3411 27.3509Z" fill="#333333" transform="matrix(1.01064 0 0 1 67 29)"/><path d="M-25.313 30.3435C-24.4914 28.6819-23.0043 27.3509-21.3061 27.3509L-20.5258 27.3509-20.4891 30.3067-25.313 30.3435Z" fill="#4A4D4E" transform="matrix(1.01064 0 0 1 67 29)"/><path d="M-16.4179 35.2684C-16.2389 35.8421-16.4867 36.4617-17.0054 36.7601-17.3404 36.9437-17.8637 36.9207-18.1391 36.884-18.1987 36.8794-18.2492 36.9161-18.2538 36.9758-18.2584 36.9941-18.2538 37.0125-18.2492 37.0309L-17.2486 39.2661C-17.1477 39.491-17.2486 39.7572-17.4735 39.8582L-19.8098 40.9047C-19.8465 40.923-19.8924 40.9093-19.9153 40.8726-19.9245 40.8496-19.9245 40.8221-19.9153 40.8037-19.6032 40.1703-19.8694 39.4084-20.5028 39.0963-21.1362 38.7842-21.8981 39.0504-22.2103 39.6838-22.3571 39.9821-22.3801 40.331-22.2745 40.6477-22.1552 41.0103-21.7421 41.3315-21.5126 41.4968-21.4667 41.5335-21.4529 41.6023-21.4942 41.6482-21.5034 41.662-21.5172 41.6712-21.531 41.6804L-24.1609 42.8554-27.0755 36.3378C-27.2178 36.0165-27.0755 35.6401-26.7542 35.4979L-20.5854 32.7394C-20.3973 32.6521-20.1724 32.7348-20.0852 32.9275-20.0852 32.9275-20.0852 32.9321-20.0806 32.9321-19.796 33.5701-19.2452 34.8002-19.0111 35.3234-18.9974 35.3647-18.9515 35.3831-18.9102 35.3693-18.8872 35.3602-18.8643 35.3372-18.8643 35.3097-18.6761 34.6304-17.9692 34.2311-17.2899 34.4238-16.8769 34.5386-16.5464 34.8599-16.4179 35.2684L-16.4179 35.2684Z" fill="#E60000" transform="matrix(1.01064 0 0 1 67 29)"/><path d="M-17.0054 36.7601C-17.3404 36.9437-17.8637 36.9207-18.1391 36.884-18.1987 36.8794-18.2492 36.9161-18.2538 36.9758-18.2584 36.9941-18.2538 37.0125-18.2492 37.0309L-17.2486 39.2661C-17.1477 39.491-17.2486 39.7572-17.4735 39.8582L-19.8144 40.9093C-19.8511 40.9276-19.897 40.9139-19.9199 40.8726-19.9291 40.8496-19.9291 40.8221-19.9153 40.8037-19.6032 40.1703-19.8694 39.4084-20.5028 39.0963-21.1362 38.7842-21.8981 39.0504-22.2103 39.6838-22.3571 39.9821-22.3801 40.331-22.2745 40.6477-22.1552 41.0103-21.7421 41.3361-21.5126 41.4968-21.4667 41.5335-21.4529 41.6023-21.4942 41.6482-21.5034 41.662-21.5172 41.6712-21.531 41.6804L-24.1609 42.8554-24.8448 41.3224C-22.6187 39.6884-21.1362 36.7646-21.1362 33.4324-21.1362 33.281-21.1408 33.1341-21.1454 32.9826L-20.59 32.7348C-20.4019 32.6476-20.177 32.7302-20.0897 32.9229-20.0897 32.9229-20.0897 32.9275-20.0852 32.9275-19.8006 33.5655-19.2498 34.7956-19.0157 35.3188-19.002 35.3602-18.9561 35.3785-18.9147 35.3647-18.8918 35.3556-18.8688 35.3326-18.8688 35.3051-18.6807 34.6258-17.9738 34.2265-17.2945 34.4192-16.8769 34.534-16.5464 34.8553-16.4225 35.2684-16.2435 35.8421-16.4867 36.4617-17.0054 36.7601L-17.0054 36.7601Z" fill="#BD0000" transform="matrix(1.01064 0 0 1 67 29)"/><path d="M-23.8626 33.8363C-23.9314 33.9832-24.0095 34.1438-24.1104 34.3137-24.3813 34.791-24.8586 34.9838-24.8586 34.9838-24.8586 34.9838-24.6521 36.2276-24.5878 36.6407-24.5419 36.9299-24.597 37.2282-24.7438 37.4853-24.9412 37.7928-25.4645 37.9259-25.6526 37.5679L-26.5614 34.7222-25.9877 32.5741" fill="#EFCDB1" transform="matrix(1.01064 0 0 1 67 29)"/><path d="M-23.1512 43.4062-22.7932 43.218-22.325 44.1222-22.683 44.3104-23.1512 43.4062Z" fill="#E60000" transform="matrix(1.01064 0 0 1 67 29)"/><path d="M-26.0749 44.1405-25.6067 43.2363-25.2487 43.4245-25.7169 44.3287-26.0749 44.1405Z" fill="#E60000" transform="matrix(1.01064 0 0 1 67 29)"/><path d="M-24.418 44.8152-24.395 43.7963-23.9911 43.8055-24.0141 44.8244-24.418 44.8152Z" fill="#E60000" transform="matrix(1.01064 0 0 1 67 29)"/><path d="M-14.5911 28.099-14.2331 27.9108-13.7649 28.815-14.1229 29.0032-14.5911 28.099Z" fill="#E60000" transform="matrix(1.01064 0 0 1 67 29)"/><path d="M-11.6628 28.8288-11.1946 27.9246-10.8366 28.1128-11.3048 29.017-11.6628 28.8288Z" fill="#E60000" transform="matrix(1.01064 0 0 1 67 29)"/><path d="M-12.9571 28.4065-12.9342 27.3876-12.5303 27.3968-12.5532 28.4157-12.9571 28.4065Z" fill="#E60000" transform="matrix(1.01064 0 0 1 67 29)"/></g></svg>