<svg width="94" height="94" xmlns="http://www.w3.org/2000/svg" xmlns:xlink="http://www.w3.org/1999/xlink" xml:space="preserve" overflow="hidden"><defs><clipPath id="clip0"><rect x="787" y="50" width="94" height="94"/></clipPath></defs><g clip-path="url(#clip0)" transform="translate(-787 -50)"><path d="M879.403 99.0195C879.403 123.862 859.264 144 834.422 144 809.58 144 789.442 123.862 789.442 99.0195 789.442 74.1775 809.58 54.0391 834.422 54.0391 859.264 54.0391 879.403 74.1775 879.403 99.0195Z" fill="#CCCCCC"/><path d="M816.412 122.336 817.679 122.336 801.192 105.849C800.659 105.317 799.778 105.317 799.246 105.849 798.713 106.382 798.713 107.263 799.246 107.795L814.87 123.419C815.09 122.795 815.696 122.336 816.412 122.336Z" fill="#666666"/><path d="M868.846 105.849C868.314 105.317 867.432 105.317 866.9 105.849L850.413 122.336 851.68 122.336C852.396 122.336 853.002 122.795 853.222 123.419L868.846 107.795C869.379 107.263 869.379 106.382 868.846 105.849Z" fill="#666666"/><path d="M846.484 122.336 875.455 81.4313C868.607 65.3301 852.653 54.0391 834.037 54.0391 815.439 54.0391 799.484 65.3301 792.636 81.4313L821.607 122.336 846.484 122.336Z" fill="#F4F4F4"/><path d="M827.28 73.041 827.28 69.9566 826.142 69.9566C825.481 69.9566 824.949 70.4891 824.949 71.15L824.949 73.3164C824.949 73.9773 825.481 74.5098 826.142 74.5098L827.427 74.5098C827.336 74.0141 827.28 73.5367 827.28 73.041Z" fill="#B79480"/><path d="M841.95 69.9383 840.811 69.9383 840.811 73.0227C840.811 73.5184 840.756 74.0141 840.646 74.473L841.931 74.473C842.592 74.473 843.125 73.9406 843.125 73.2797L843.125 71.1133C843.143 70.4707 842.611 69.9383 841.95 69.9383Z" fill="#B79480"/><path d="M842.666 91.3086 841.509 91.3086 841.509 82.5695C841.509 81.5598 840.683 80.7336 839.673 80.7336L836.864 80.7336 836.864 79.2465C836.001 79.6504 835.047 79.8707 834.055 79.8707 833.064 79.8707 832.091 79.6504 831.246 79.2465L831.246 80.7336 828.437 80.7336C827.427 80.7336 826.601 81.5598 826.601 82.5695L826.601 90.7578C826.601 91.0699 826.84 91.3086 827.152 91.3086L828.309 91.3086 828.309 93.9891 826.197 93.9891C825.904 93.9891 825.646 94.2461 825.646 94.5398L825.646 96.1187C825.646 96.4125 825.904 96.6695 826.197 96.6695L827.372 96.6695 827.372 99.35 827.152 99.35C826.84 99.35 826.601 99.5887 826.601 99.9008L826.601 100.433C826.601 100.947 827.005 101.351 827.519 101.351L840.591 101.351C841.105 101.351 841.509 100.947 841.509 100.433L841.509 99.35 841.729 99.35C842.023 99.35 842.28 99.093 842.28 98.7992L842.28 97.2203C842.28 96.9266 842.023 96.6695 841.729 96.6695L840.554 96.6695 840.554 93.9891 842.666 93.9891C842.959 93.9891 843.216 93.732 843.216 93.4383L843.216 91.8594C843.216 91.5473 842.978 91.3086 842.666 91.3086Z" fill="#445EA0"/><path d="M856.912 98.1934 855.297 96.5777 856.472 95.4027C856.619 95.2559 856.619 95.0172 856.472 94.852L855.848 94.2277C855.701 94.0809 855.462 94.0809 855.297 94.2277L854.122 95.4027 853.736 95.0172 851.405 97.3488 854.581 100.525C854.728 100.672 854.966 100.672 855.132 100.525L856.912 98.7441C857.059 98.5789 857.059 98.3402 856.912 98.1934Z" fill="#B79480"/><path d="M853.902 94.3562 841.27 81.725C841.197 81.6516 841.105 81.5965 840.995 81.5781 841.197 81.8535 841.307 82.184 841.307 82.5512L841.307 88.1691 850.707 97.5508C850.927 97.7711 851.276 97.7711 851.478 97.5508L853.902 95.1273C854.104 94.9254 854.104 94.5766 853.902 94.3562Z" fill="#999999"/><path d="M814.337 95.0172 813.952 95.4027 812.777 94.2277C812.63 94.0809 812.391 94.0809 812.244 94.2277L811.62 94.852C811.473 94.9988 811.473 95.2375 811.62 95.4027L812.795 96.5777 811.179 98.1934C811.032 98.3402 811.032 98.5789 811.179 98.7441L812.96 100.525C813.107 100.672 813.346 100.672 813.511 100.525L816.687 97.3488 814.337 95.0172Z" fill="#B79480"/><path d="M826.821 81.725 818.523 90.0234 816.228 90.0234C815.934 90.0234 815.677 90.2805 815.677 90.5742L815.677 92.8691 814.19 94.3562C813.97 94.5766 813.97 94.9254 814.19 95.1273L816.614 97.5508C816.834 97.7711 817.183 97.7711 817.385 97.5508L826.766 88.1691 826.766 82.5512C826.766 82.184 826.895 81.8535 827.078 81.5781 826.987 81.6148 826.895 81.6516 826.821 81.725Z" fill="#AFAFAF"/><path d="M839.655 80.7152 836.846 80.7152 836.846 79.2281C835.983 79.632 835.028 79.8523 834.037 79.8523 833.045 79.8523 832.072 79.632 831.228 79.2281L831.228 80.7152 828.419 80.7152C827.409 80.7152 826.583 81.5414 826.583 82.5512L826.583 90.7578C826.583 91.0699 826.821 91.3086 827.134 91.3086L841.509 91.3086 841.509 82.5695C841.509 81.5414 840.683 80.7152 839.655 80.7152Z" fill="#AFAFAF"/><path d="M828.455 90.7578 828.455 82.5695C828.455 81.5598 829.282 80.7336 830.291 80.7336L828.419 80.7336C827.409 80.7336 826.583 81.5598 826.583 82.5695L826.583 90.7578C826.583 91.0699 826.821 91.3086 827.134 91.3086L829.006 91.3086C828.694 91.3086 828.455 91.0516 828.455 90.7578Z" fill="#999999"/><path d="M841.931 60.6484 839.361 60.6484C839.067 60.6484 838.81 60.8871 838.81 61.1992L838.81 61.9887C837.562 60.9973 835.891 60.4648 834.037 60.4648 830.2 60.4648 827.078 62.7598 827.078 66.6152L827.078 70.1586C827.078 66.3031 830.2 64.6324 834.037 64.6324 837.874 64.6324 840.995 66.2848 840.995 70.1586L840.995 66.6152C840.995 65.7707 840.848 64.9996 840.573 64.3203L841.931 64.3203C842.225 64.3203 842.482 64.0816 842.482 63.7695L842.482 61.1992C842.482 60.8871 842.243 60.6484 841.931 60.6484Z" fill="#4A4D4E"/><path d="M835.028 60.5199C834.716 60.4832 834.386 60.4648 834.037 60.4648 830.2 60.4648 827.078 62.7598 827.078 66.6152L827.078 70.1586C827.078 68.2492 827.831 66.8723 829.061 65.991 829.373 62.8332 831.852 60.8504 835.028 60.5199Z" fill="#333333"/><path d="M827.905 120.316 832.513 120.316C832.586 120.316 832.66 120.335 832.733 120.335L832.733 101.039 827.703 101.039 827.703 120.335C827.758 120.335 827.831 120.316 827.905 120.316Z" fill="#E60000"/><path d="M835.579 120.316 840.187 120.316C840.261 120.316 840.334 120.335 840.407 120.335L840.407 101.039 835.377 101.039 835.377 120.335C835.432 120.335 835.505 120.316 835.579 120.316Z" fill="#E60000"/><path d="M840.995 73.041C840.995 76.8965 837.874 80.0359 834.037 80.0359L834.037 80.0359C830.2 80.0359 827.078 76.8965 827.078 73.041L827.078 69.9199C827.078 66.0645 830.2 64.3938 834.037 64.3938L834.037 64.3938C837.874 64.3938 840.995 66.0461 840.995 69.9199L840.995 73.041Z" fill="#B79480"/><path d="M829.043 73.041 829.043 69.9199C829.043 66.3949 831.632 64.7059 835.01 64.4305 834.698 64.4121 834.367 64.3938 834.037 64.3938 830.2 64.3938 827.078 66.0461 827.078 69.9199L827.078 73.041C827.078 76.8965 830.2 80.0359 834.037 80.0359 834.367 80.0359 834.698 80.0176 835.01 79.9625 831.65 79.4852 829.043 76.566 829.043 73.041Z" fill="#B28772"/><path d="M832.513 120.133 827.905 120.133C827.391 120.133 826.987 120.555 826.987 121.051L826.987 122.336 833.431 122.336 833.431 121.051C833.431 120.537 833.009 120.133 832.513 120.133Z" fill="#994334"/><path d="M829.759 120.133 827.886 120.133C827.372 120.133 826.968 120.555 826.968 121.051L826.968 122.336 828.841 122.336 828.841 121.051C828.841 120.537 829.263 120.133 829.759 120.133Z" fill="#772C22"/><path d="M840.187 120.133 835.579 120.133C835.065 120.133 834.661 120.555 834.661 121.051L834.661 122.336 841.105 122.336 841.105 121.051C841.105 120.537 840.701 120.133 840.187 120.133Z" fill="#994334"/><path d="M837.47 120.133 835.579 120.133C835.065 120.133 834.661 120.555 834.661 121.051L834.661 122.336 836.552 122.336 836.552 121.051C836.552 120.537 836.974 120.133 837.47 120.133Z" fill="#772C22"/><path d="M831.228 80.7152 828.419 80.7152C827.409 80.7152 826.583 81.5414 826.583 82.5512L826.583 85.3602 831.228 80.7152Z" fill="#666666"/><path d="M836.864 80.7152 839.673 80.7152C840.683 80.7152 841.509 81.5414 841.509 82.5512L841.509 85.3602 836.864 80.7152Z" fill="#666666"/><path d="M853.516 128.945 853.516 123.988C853.516 122.979 852.69 122.152 851.68 122.152L816.412 122.152C815.402 122.152 814.576 122.979 814.576 123.988L814.576 128.945 853.516 128.945Z" fill="#666666"/><path d="M820.23 122.152 816.412 122.152C815.402 122.152 814.576 122.979 814.576 123.988L814.576 128.945 818.395 128.945 818.395 123.988C818.395 122.979 819.221 122.152 820.23 122.152Z" fill="#4A4D4E"/><path d="M856.343 128.395 811.73 128.395C810.72 128.395 809.894 129.221 809.894 130.23L809.894 137.005C816.871 141.43 825.132 144 834 144 842.904 144 851.203 141.411 858.179 136.95L858.179 130.23C858.179 129.221 857.353 128.395 856.343 128.395Z" fill="#4A4D4E"/><path d="M829.52 136.84C829.52 137.651 828.863 138.309 828.052 138.309 827.24 138.309 826.583 137.651 826.583 136.84 826.583 136.029 827.24 135.371 828.052 135.371 828.863 135.371 829.52 136.029 829.52 136.84Z" fill="#FFFFFF"/><path d="M835.505 136.84C835.505 137.651 834.848 138.309 834.037 138.309 833.226 138.309 832.568 137.651 832.568 136.84 832.568 136.029 833.226 135.371 834.037 135.371 834.848 135.371 835.505 136.029 835.505 136.84Z" fill="#FFFFFF"/><path d="M841.509 136.84C841.509 137.651 840.851 138.309 840.04 138.309 839.229 138.309 838.571 137.651 838.571 136.84 838.571 136.029 839.229 135.371 840.04 135.371 840.851 135.371 841.509 136.029 841.509 136.84Z" fill="#FFFFFF"/><path d="M848.173 111.504C848.173 111.798 847.916 112.055 847.623 112.055L845.052 112.055C844.759 112.055 844.502 111.798 844.502 111.504L844.502 108.934C844.502 108.64 844.759 108.383 845.052 108.383L847.623 108.383C847.916 108.383 848.173 108.64 848.173 108.934L848.173 111.504Z" fill="#BD0000"/><path d="M849.918 113.248C849.918 113.542 849.661 113.799 849.367 113.799L846.797 113.799C846.503 113.799 846.246 113.542 846.246 113.248L846.246 110.678C846.246 110.384 846.503 110.127 846.797 110.127L849.367 110.127C849.661 110.127 849.918 110.384 849.918 110.678L849.918 113.248Z" fill="#BD0000"/><path d="M842.849 116.828C842.849 117.122 842.592 117.379 842.298 117.379L839.728 117.379C839.434 117.379 839.177 117.122 839.177 116.828L839.177 114.258C839.177 113.964 839.434 113.707 839.728 113.707L842.298 113.707C842.592 113.707 842.849 113.964 842.849 114.258L842.849 116.828Z" fill="#BD0000"/><path d="M846.338 105.996C846.338 106.29 846.08 106.547 845.787 106.547L843.216 106.547C842.923 106.547 842.666 106.29 842.666 105.996L842.666 103.426C842.666 103.132 842.923 102.875 843.216 102.875L845.787 102.875C846.08 102.875 846.338 103.132 846.338 103.426L846.338 105.996Z" fill="#E60000"/><path d="M849.459 66.5234C849.459 66.8355 849.202 67.0742 848.908 67.0742L846.338 67.0742C846.044 67.0742 845.787 66.8355 845.787 66.5234L845.787 63.9531C845.787 63.641 846.044 63.4023 846.338 63.4023L848.908 63.4023C849.202 63.4023 849.459 63.641 849.459 63.9531L849.459 66.5234Z" fill="#4A4D4E"/><path d="M849.826 57.7109C849.826 58.023 849.569 58.2617 849.275 58.2617L846.705 58.2617C846.411 58.2617 846.154 58.023 846.154 57.7109L846.154 55.1406C846.154 54.8469 846.411 54.5898 846.705 54.5898L849.275 54.5898C849.569 54.5898 849.826 54.8469 849.826 55.1406L849.826 57.7109Z" fill="#333333"/><path d="M855.517 53.1211C855.517 53.4148 855.26 53.6719 854.966 53.6719L852.396 53.6719C852.102 53.6719 851.845 53.4148 851.845 53.1211L851.845 50.5508C851.845 50.257 852.102 50 852.396 50L854.966 50C855.26 50 855.517 50.257 855.517 50.5508L855.517 53.1211Z" fill="#4A4D4E"/><path d="M822.103 105.629C822.103 105.923 821.846 106.18 821.552 106.18L818.982 106.18C818.688 106.18 818.431 105.923 818.431 105.629L818.431 103.059C818.431 102.765 818.688 102.508 818.982 102.508L821.552 102.508C821.846 102.508 822.103 102.765 822.103 103.059L822.103 105.629Z" fill="#E60000"/><path d="M824.857 99.7539C824.857 100.048 824.6 100.305 824.306 100.305L821.736 100.305C821.442 100.305 821.185 100.048 821.185 99.7539L821.185 97.1836C821.185 96.8898 821.442 96.6328 821.736 96.6328L824.306 96.6328C824.6 96.6328 824.857 96.8898 824.857 97.1836L824.857 99.7539Z" fill="#E60000"/><path d="M817.88 86.3516C817.88 86.6453 817.623 86.9023 817.33 86.9023L814.759 86.9023C814.466 86.9023 814.209 86.6453 814.209 86.3516L814.209 83.7812C814.209 83.4875 814.466 83.2305 814.759 83.2305L817.33 83.2305C817.623 83.2305 817.88 83.4875 817.88 83.7812L817.88 86.3516Z" fill="#BD0000"/><path d="M824.123 82.3125C824.123 82.6062 823.866 82.8633 823.572 82.8633L821.002 82.8633C820.708 82.8633 820.451 82.6062 820.451 82.3125L820.451 79.7422C820.451 79.4484 820.708 79.1914 821.002 79.1914L823.572 79.1914C823.866 79.1914 824.123 79.4484 824.123 79.7422L824.123 82.3125Z" fill="#E60000"/><path d="M825.224 117.93C825.224 118.223 824.967 118.48 824.673 118.48L822.103 118.48C821.809 118.48 821.552 118.223 821.552 117.93L821.552 115.359C821.552 115.066 821.809 114.809 822.103 114.809L824.673 114.809C824.967 114.809 825.224 115.066 825.224 115.359L825.224 117.93Z" fill="#E60000"/><path d="M829.447 113.34C829.447 113.634 829.19 113.891 828.896 113.891L826.326 113.891C826.032 113.891 825.775 113.634 825.775 113.34L825.775 110.77C825.775 110.476 826.032 110.219 826.326 110.219L828.896 110.219C829.19 110.219 829.447 110.476 829.447 110.77L829.447 113.34Z" fill="#BD0000"/><path d="M827.152 128.395 828.97 131.534C829.116 131.791 829.502 132.011 829.796 132.011L838.296 132.011C838.59 132.011 838.975 131.791 839.122 131.534L840.94 128.395 827.152 128.395Z" fill="#FFFFFF"/><path d="M832.696 131.534 830.879 128.395 827.152 128.395 828.97 131.534C829.116 131.791 829.502 132.011 829.796 132.011L833.523 132.011C833.211 132.011 832.843 131.791 832.696 131.534Z" fill="#CCCCCC"/><path d="M872.738 104.527C872.591 104.527 872.463 104.436 872.408 104.307 871.655 102.471 871.086 101.92 869.268 101.168 869.14 101.113 869.048 100.984 869.048 100.837 869.048 100.69 869.14 100.562 869.268 100.507 871.104 99.7539 871.655 99.1848 872.408 97.3672 872.463 97.2387 872.591 97.1469 872.738 97.1469 872.885 97.1469 873.014 97.2387 873.069 97.3672 873.821 99.2031 874.391 99.7539 876.208 100.507 876.337 100.562 876.429 100.69 876.429 100.837 876.429 100.984 876.337 101.113 876.208 101.168 874.372 101.92 873.821 102.489 873.069 104.307 873.032 104.436 872.904 104.527 872.738 104.527Z" fill="#999999"/><path d="M795.629 105.519C795.482 105.519 795.354 105.427 795.298 105.298 794.546 103.463 793.977 102.912 792.159 102.159 792.03 102.104 791.939 101.975 791.939 101.829 791.939 101.682 792.03 101.553 792.159 101.498 793.995 100.745 794.546 100.176 795.298 98.3586 795.354 98.2301 795.482 98.1383 795.629 98.1383 795.776 98.1383 795.904 98.2301 795.959 98.3586 796.712 100.195 797.281 100.745 799.099 101.498 799.227 101.553 799.319 101.682 799.319 101.829 799.319 101.975 799.227 102.104 799.099 102.159 797.263 102.912 796.712 103.481 795.959 105.298 795.923 105.427 795.794 105.519 795.629 105.519Z" fill="#999999"/><path d="M808.003 77.9797C807.856 77.9797 807.728 77.8879 807.673 77.7594 806.92 75.9234 806.351 75.3727 804.533 74.6199 804.405 74.5648 804.313 74.4363 804.313 74.2895 804.313 74.1426 804.405 74.0141 804.533 73.959 806.369 73.2063 806.92 72.6371 807.673 70.8195 807.728 70.691 807.856 70.5992 808.003 70.5992 808.15 70.5992 808.279 70.691 808.334 70.8195 809.086 72.6555 809.655 73.2063 811.473 73.959 811.602 74.0141 811.693 74.1426 811.693 74.2895 811.693 74.4363 811.602 74.5648 811.473 74.6199 809.637 75.3727 809.086 75.9418 808.334 77.7594 808.297 77.8879 808.168 77.9797 808.003 77.9797Z" fill="#E60000"/><path d="M812.152 65.1281C811.969 65.1281 811.804 65.018 811.73 64.8527 810.794 62.5762 810.096 61.8785 807.801 60.9238 807.636 60.8504 807.526 60.6852 807.526 60.5016 807.526 60.318 807.636 60.1527 807.801 60.0793 810.078 59.143 810.775 58.4453 811.73 56.1504 811.804 55.9852 811.969 55.875 812.152 55.875 812.336 55.875 812.501 55.9852 812.575 56.1504 813.511 58.427 814.209 59.1246 816.504 60.0793 816.669 60.1527 816.779 60.318 816.779 60.5016 816.779 60.6852 816.669 60.8504 816.504 60.9238 814.227 61.8602 813.529 62.5578 812.575 64.8527 812.52 65.018 812.354 65.1281 812.152 65.1281Z" fill="#999999"/><path d="M859.777 91.125C859.63 91.125 859.501 91.0332 859.446 90.9047 858.693 89.0688 858.124 88.518 856.307 87.7652 856.178 87.7102 856.086 87.5816 856.086 87.4348 856.086 87.2879 856.178 87.1594 856.307 87.1043 858.143 86.3516 858.693 85.7824 859.446 83.9648 859.501 83.8363 859.63 83.7445 859.777 83.7445 859.923 83.7445 860.052 83.8363 860.107 83.9648 860.86 85.8008 861.429 86.3516 863.246 87.1043 863.375 87.1594 863.467 87.2879 863.467 87.4348 863.467 87.5816 863.375 87.7102 863.246 87.7652 861.411 88.518 860.86 89.0871 860.107 90.9047 860.07 91.0332 859.942 91.125 859.777 91.125Z" fill="#999999"/><path d="M858.602 78.457C858.418 78.457 858.234 78.3469 858.161 78.1633 857.188 75.7949 856.453 75.0605 854.085 74.0875 853.902 74.0141 853.791 73.8488 853.791 73.6469 853.791 73.4449 853.902 73.2797 854.085 73.2063 856.453 72.2332 857.188 71.4988 858.161 69.1305 858.234 68.9469 858.4 68.8367 858.602 68.8367 858.804 68.8367 858.969 68.9469 859.042 69.1305 860.015 71.4988 860.75 72.2332 863.118 73.2063 863.302 73.2797 863.412 73.4449 863.412 73.6469 863.412 73.8488 863.302 74.0141 863.118 74.0875 860.75 75.0605 860.015 75.7949 859.042 78.1633 858.969 78.3469 858.804 78.457 858.602 78.457Z" fill="#E60000"/><path d="M841.564 54.5898C841.564 54.8836 841.307 55.1406 841.013 55.1406L838.443 55.1406C838.149 55.1406 837.892 54.8836 837.892 54.5898L837.892 52.0195C837.892 51.7258 838.149 51.4688 838.443 51.4688L841.013 51.4688C841.307 51.4688 841.564 51.7258 841.564 52.0195L841.564 54.5898Z" fill="#4A4D4E"/><path d="M831.283 59.1797C831.283 59.4918 831.026 59.7305 830.732 59.7305L828.162 59.7305C827.868 59.7305 827.611 59.4918 827.611 59.1797L827.611 56.6094C827.611 56.2973 827.868 56.0586 828.162 56.0586L830.732 56.0586C831.026 56.0586 831.283 56.2973 831.283 56.6094L831.283 59.1797Z" fill="#333333"/><path d="M842.666 91.3086 828.29 91.3086 828.29 93.9891 842.666 93.9891C842.959 93.9891 843.216 93.732 843.216 93.4383L843.216 91.8594C843.216 91.5473 842.978 91.3086 842.666 91.3086Z" fill="#999999"/><path d="M828.29 91.3086 830.145 91.3086 830.145 93.9891 828.29 93.9891Z" fill="#666666"/><path d="M841.729 96.6695 827.354 96.6695 827.354 99.35 841.729 99.35C842.023 99.35 842.28 99.093 842.28 98.7992L842.28 97.2203C842.28 96.9082 842.041 96.6695 841.729 96.6695Z" fill="#999999"/><path d="M827.372 96.6695 829.245 96.6695 829.245 99.35 827.372 99.35Z" fill="#666666"/><path d="M826.197 96.6695 840.573 96.6695 840.573 93.9891 826.197 93.9891C825.904 93.9891 825.646 94.2461 825.646 94.5398L825.646 96.1187C825.646 96.4125 825.885 96.6695 826.197 96.6695Z" fill="#AFAFAF"/><path d="M827.537 96.1187 827.537 94.5398C827.537 94.2461 827.795 93.9891 828.088 93.9891L826.197 93.9891C825.904 93.9891 825.646 94.2461 825.646 94.5398L825.646 96.1187C825.646 96.4125 825.904 96.6695 826.197 96.6695L828.088 96.6695C827.776 96.6695 827.537 96.4125 827.537 96.1187Z" fill="#999999"/><path d="M827.134 99.35C826.821 99.35 826.583 99.5887 826.583 99.9008L826.583 100.433C826.583 100.947 826.987 101.351 827.501 101.351L840.573 101.351C841.087 101.351 841.491 100.947 841.491 100.433L841.491 99.35 827.134 99.35Z" fill="#AFAFAF"/><path d="M828.455 100.433 828.455 99.9008C828.455 99.5887 828.694 99.35 829.006 99.35L827.134 99.35C826.821 99.35 826.583 99.5887 826.583 99.9008L826.583 100.433C826.583 100.947 826.987 101.351 827.501 101.351L829.373 101.351C828.859 101.351 828.455 100.929 828.455 100.433Z" fill="#999999"/><path d="M815.457 128.395 811.73 128.395C810.72 128.395 809.894 129.221 809.894 130.23L809.894 137.005C811.106 137.776 812.336 138.474 813.621 139.135L813.621 130.23C813.621 129.221 814.447 128.395 815.457 128.395Z" fill="#333333"/><path d="M667.113 131.405C665.902 131.405 664.929 130.414 664.929 129.221L664.929 64.8895C664.929 63.6777 665.92 62.7047 667.113 62.7047L756.725 62.7047C757.937 62.7047 758.91 63.6961 758.91 64.8895L758.91 129.202C758.91 130.414 757.919 131.387 756.725 131.387L667.113 131.405 667.113 131.405Z" fill="#E60000"/><path d="M743.25 88.7383 751.75 88.7383 751.75 105.354 743.25 105.354Z" fill="#FFFFFF"/><path d="M746.94 81.7617C743.874 81.7617 741.377 79.2648 741.377 76.1988 741.377 73.1328 743.874 70.6359 746.94 70.6359 750.006 70.6359 752.503 73.1328 752.503 76.1988 752.503 79.2648 750.006 81.7617 746.94 81.7617Z" fill="#F4F4F4"/><path d="M728.709 58.3352 727.607 58.3352 727.607 48.3109C727.607 47.65 726.983 47.1727 726.341 47.3195L719.107 49.0453 719.015 49.082C717.785 49.5594 716.463 49.8164 715.141 49.8164L705.264 49.8164C702.712 49.8164 700.38 50.6793 698.71 52.2215 697.002 53.782 696.066 55.9484 696.048 58.3352L694.946 58.3352C692.357 58.3352 690.264 60.4281 690.264 63.0168L690.264 80.3297 733.391 80.3297 733.391 63.0168C733.391 60.4281 731.298 58.3352 728.709 58.3352Z" fill="#4A4D4E"/><path d="M708.587 57.2887 709.689 57.2887C709.707 54.7918 710.662 52.5152 712.351 50.8812 712.773 50.4773 713.232 50.1102 713.728 49.798L705.282 49.798C702.73 49.798 700.399 50.6609 698.728 52.2031 697.021 53.7637 696.084 55.9301 696.066 58.3168L694.964 58.3168C692.376 58.3168 690.283 60.4098 690.283 62.9984L690.283 80.3113 703.924 80.3113 703.924 62.1906C703.887 59.4918 705.998 57.2887 708.587 57.2887Z" fill="#333333"/><path d="M693.679 87.3062C691.091 87.3062 688.979 85.1949 688.979 82.6062 688.979 80.0176 691.091 77.9062 693.679 77.9062L696.231 77.9062 696.231 87.3062 693.679 87.3062 693.679 87.3062Z" fill="#B79480"/><path d="M727.405 87.3062 727.405 77.9062 729.957 77.9062C732.546 77.9062 734.657 80.0176 734.657 82.6062 734.657 85.1949 732.546 87.3062 729.957 87.3062L727.405 87.3062 727.405 87.3062Z" fill="#B79480"/><path d="M705.025 102.453 718.813 102.453 718.813 113.193 705.025 113.193Z" fill="#B79480"/><path d="M705.025 102.453 711.818 102.453 711.818 113.193 705.025 113.193Z" fill="#B28772"/><path d="M692.853 137.996C691.807 137.996 690.962 137.152 690.962 136.105L690.962 124.117C690.962 120.059 693.845 116.461 697.792 115.561L697.957 115.525 703.226 115.525 703.226 111.963C703.226 111.229 703.832 110.623 704.566 110.623L719.254 110.623C719.988 110.623 720.594 111.229 720.594 111.963L720.594 115.359 723.917 115.359C728.764 115.359 732.675 119.288 732.675 124.117L732.675 136.105C732.675 137.152 731.83 137.996 730.784 137.996L692.853 137.996 692.853 137.996Z" fill="#AFAFAF"/><path d="M701.537 136.124 701.537 124.135C701.537 120.078 704.42 116.479 708.367 115.58L708.532 115.543 713.801 115.543 713.801 111.981C713.801 111.247 714.407 110.641 715.141 110.641L704.566 110.641C703.832 110.641 703.226 111.247 703.226 111.981L703.226 115.543 697.957 115.543 697.792 115.58C693.826 116.461 690.962 120.059 690.962 124.135L690.962 136.124C690.962 137.17 691.807 138.015 692.853 138.015L703.428 138.015C702.382 137.996 701.537 137.152 701.537 136.124Z" fill="#666666"/><path d="M692.853 137.996C691.807 137.996 690.962 137.152 690.962 136.105L690.962 131.204 732.675 131.204 732.675 136.105C732.675 137.152 731.83 137.996 730.784 137.996L692.853 137.996 692.853 137.996Z" fill="#4A4D4E"/><path d="M701.537 136.124 701.537 131.222 690.962 131.222 690.962 136.124C690.962 137.17 691.807 138.015 692.853 138.015L703.428 138.015C702.382 137.996 701.537 137.152 701.537 136.124Z" fill="#333333"/><path d="M713.985 126.045 713.985 121.088C713.985 120.739 714.279 120.445 714.627 120.445L719.952 120.445C720.3 120.445 720.594 120.739 720.594 121.088L720.594 126.045C720.594 126.393 720.3 126.687 719.952 126.687L714.627 126.687C714.279 126.687 713.985 126.393 713.985 126.045Z" fill="#F4F4F4"/><path d="M706.347 126.485C704.53 126.485 703.043 124.998 703.043 123.18 703.043 121.363 704.53 119.876 706.347 119.876 708.165 119.876 709.652 121.363 709.652 123.18 709.652 125.016 708.165 126.485 706.347 126.485Z" fill="#4A4D4E"/><path d="M727.405 77.9246 729.866 77.9246 729.866 87.3246 727.405 87.3246Z" fill="#AD806D"/><path d="M693.789 77.9246 696.25 77.9246 696.25 87.3246 693.789 87.3246Z" fill="#AD806D"/><path d="M711.672 105.721C702.987 105.629 696.048 98.432 696.048 89.748L696.048 72.5637C696.048 72.123 696.415 71.7559 696.855 71.7559L707.082 71.7559C710.441 71.7559 713.618 70.3055 715.802 67.7535L716.371 67.0926C716.702 66.707 717.308 66.7254 717.62 67.1293L719.438 69.4977 726.818 69.516C727.259 69.516 727.607 69.8832 727.607 70.3238L727.607 89.95C727.589 98.6891 720.429 105.794 711.672 105.721Z" fill="#B79480"/><path d="M726.8 69.516 719.419 69.4977 717.602 67.1293C717.289 66.7254 716.684 66.707 716.353 67.0926L715.784 67.7535C713.618 70.2871 710.441 71.7559 707.063 71.7559L696.855 71.7559C696.415 71.7559 696.048 72.123 696.048 72.5637L696.048 76.9699C696.048 76.5293 696.415 76.1621 696.855 76.1621L707.082 76.1621C710.441 76.1621 713.618 74.7117 715.802 72.1598L716.371 71.4988C716.702 71.1133 717.308 71.1316 717.62 71.5355L719.438 73.9039 726.818 73.9223C727.259 73.9223 727.607 74.2895 727.607 74.7301L727.607 70.3238C727.589 69.8648 727.24 69.516 726.8 69.516Z" fill="#B28772"/><path d="M702.749 89.748 702.749 72.5637C702.749 72.123 703.116 71.7559 703.557 71.7559L696.855 71.7559C696.415 71.7559 696.048 72.123 696.048 72.5637L696.048 89.748C696.048 98.432 702.987 105.629 711.672 105.721 712.883 105.739 714.04 105.611 715.178 105.354 708.036 103.793 702.749 97.3305 702.749 89.748Z" fill="#B28772"/><path d="M711.745 98.7441C709.138 98.7074 706.99 96.6879 706.659 94.0992L706.623 93.8055C706.531 93.1262 707.063 92.5203 707.761 92.5203L715.894 92.5203C716.592 92.5203 717.106 93.1262 717.032 93.8055L716.977 94.2277C716.629 96.8164 714.389 98.7809 711.745 98.7441Z" fill="#6D1326"/><path d="M709.487 93.9523 709.45 93.6586C709.395 93.1812 709.634 92.7406 710.019 92.5203L707.761 92.5203C707.063 92.5203 706.549 93.1262 706.623 93.8055L706.659 94.0992C706.99 96.6879 709.138 98.7074 711.745 98.7441 712.351 98.7441 712.938 98.6523 713.489 98.4688 711.396 97.973 709.762 96.1738 709.487 93.9523Z" fill="#630F23"/><path d="M718.703 80.2379C717.565 80.2379 716.629 79.3016 716.629 78.1633 716.629 77.025 717.565 76.0887 718.703 76.0887L721.696 76.0887C722.834 76.0887 723.77 77.025 723.77 78.1633 723.77 79.3016 722.834 80.2379 721.696 80.2379L718.703 80.2379Z" fill="#754727"/><path d="M702.308 80.2379C701.17 80.2379 700.234 79.3016 700.234 78.1633 700.234 77.025 701.17 76.0887 702.308 76.0887L705.301 76.0887C706.439 76.0887 707.375 77.025 707.375 78.1633 707.375 79.3016 706.439 80.2379 705.301 80.2379L702.308 80.2379Z" fill="#754727"/><path d="M723.44 78.5121 720.447 78.5121C719.309 78.5121 718.373 77.5758 718.373 76.4375 718.373 76.3273 718.391 76.2172 718.391 76.1254 717.4 76.2723 716.629 77.1352 716.629 78.1816 716.629 79.3199 717.565 80.2562 718.703 80.2562L721.696 80.2562C722.724 80.2562 723.587 79.4852 723.752 78.4938 723.66 78.4938 723.55 78.5121 723.44 78.5121Z" fill="#683D1F"/><path d="M707.045 78.5121 704.052 78.5121C702.914 78.5121 701.978 77.5758 701.978 76.4375 701.978 76.3273 701.996 76.2172 701.996 76.1254 701.005 76.2723 700.234 77.1352 700.234 78.1816 700.234 79.3199 701.17 80.2562 702.308 80.2562L705.301 80.2562C706.329 80.2562 707.192 79.4852 707.357 78.4938 707.265 78.4938 707.155 78.5121 707.045 78.5121Z" fill="#683D1F"/><path d="M705.595 84.8645C705.595 85.8074 704.83 86.5719 703.887 86.5719 702.944 86.5719 702.18 85.8074 702.18 84.8645 702.18 83.9215 702.944 83.157 703.887 83.157 704.83 83.157 705.595 83.9215 705.595 84.8645Z" fill="#494949"/><path d="M721.934 84.9563C721.934 85.8992 721.17 86.6637 720.227 86.6637 719.284 86.6637 718.52 85.8992 718.52 84.9563 718.52 84.0133 719.284 83.2488 720.227 83.2488 721.17 83.2488 721.934 84.0133 721.934 84.9563Z" fill="#494949"/><path d="M739.468 113.468 751.732 113.468 751.732 125.732 739.468 125.732Z" fill="#990000"/><path d="M671.905 101.204 684.922 101.204 684.922 125.751 671.905 125.751Z" fill="#BD0000"/><path d="M671.905 68.7266 678.514 68.7266 678.514 95.1457 671.905 95.1457Z" fill="#990000"/><path d="M733.372 62.6863C733.207 60.2445 731.169 58.3168 728.691 58.3168L727.589 58.3168 727.589 48.3109C727.589 47.65 726.965 47.1727 726.322 47.3195L719.089 49.0453 718.997 49.082C717.767 49.5594 716.445 49.8164 715.123 49.8164L705.246 49.8164C702.694 49.8164 700.362 50.6793 698.691 52.2215 696.984 53.782 696.048 55.9484 696.029 58.3352L694.928 58.3352C692.449 58.3352 690.411 60.2629 690.246 62.7047L733.372 62.6863 733.372 62.6863Z" fill="#4A4D4E"/><path d="M694.634 58.3352C694.579 58.3352 694.524 58.3352 694.487 58.3535 694.45 58.3535 694.432 58.3535 694.395 58.3719 694.359 58.3719 694.304 58.3902 694.267 58.3902 694.23 58.3902 694.193 58.4086 694.175 58.4086 694.138 58.4086 694.083 58.427 694.047 58.427 694.01 58.427 693.973 58.4453 693.936 58.4453 693.9 58.4453 693.863 58.4637 693.826 58.482 693.789 58.482 693.753 58.5004 693.716 58.5187 693.679 58.5371 693.643 58.5371 693.606 58.5555 693.569 58.5738 693.532 58.5738 693.496 58.5922 693.459 58.6105 693.422 58.6105 693.386 58.6289 693.349 58.6473 693.312 58.6473 693.275 58.6656 693.239 58.684 693.202 58.684 693.184 58.7023 693.147 58.7207 693.11 58.7391 693.073 58.7574 693.037 58.7758 693.018 58.7941 692.982 58.7941 692.945 58.8125 692.908 58.8309 692.871 58.8492 692.835 58.8676 692.816 58.8859 692.78 58.8859 692.743 58.9043 692.706 58.9227 692.67 58.941 692.633 58.9594 692.614 58.9777 692.596 58.9961 692.559 59.0145 692.523 59.0328 692.486 59.0695 692.468 59.0879 692.431 59.1063 692.412 59.1246 692.376 59.143 692.339 59.1797 692.302 59.198 692.284 59.2164 692.266 59.2348 692.229 59.2531 692.192 59.2715 692.155 59.3082 692.119 59.3449 692.1 59.3633 692.082 59.3816 692.064 59.4 692.027 59.4367 691.99 59.4551 691.953 59.4918 691.935 59.5102 691.917 59.5285 691.898 59.5285 691.862 59.5652 691.825 59.602 691.788 59.6387 691.77 59.657 691.752 59.657 691.752 59.6754 691.715 59.7121 691.678 59.7488 691.641 59.7855 691.623 59.8039 691.623 59.8039 691.605 59.8223 691.568 59.859 691.531 59.9141 691.476 59.9508 691.476 59.9508 691.458 59.9691 691.458 59.9691 691.421 60.0242 691.366 60.0609 691.329 60.116 691.329 60.116 691.329 60.116 691.329 60.116 690.742 60.8504 690.375 61.75 690.301 62.7414 690.301 62.7414 690.301 62.7414 690.301 62.7414L703.924 62.7414 703.924 62.2457C703.924 59.5285 706.017 57.3438 708.605 57.3438L709.707 57.3438C709.725 54.8469 710.68 52.5703 712.369 50.9363 712.791 50.5324 713.25 50.1652 713.746 49.8531L705.301 49.8531C702.749 49.8531 700.417 50.716 698.746 52.2582 697.039 53.8187 696.103 55.9852 696.084 58.3719L694.983 58.3719C694.909 58.3719 694.818 58.3719 694.744 58.3719 694.689 58.3352 694.652 58.3352 694.634 58.3352Z" fill="#333333"/><path d="M834.11 76.8598C832.953 76.8414 832.017 75.9602 831.87 74.8219L831.852 74.6934C831.815 74.3996 832.054 74.1242 832.348 74.1242L835.928 74.1242C836.24 74.1242 836.46 74.3996 836.423 74.6934L836.405 74.877C836.258 76.0152 835.267 76.8781 834.11 76.8598Z" fill="#6D1326"/><path d="M833.1 74.7484 833.082 74.6199C833.064 74.3996 833.155 74.216 833.339 74.1242L832.348 74.1242C832.036 74.1242 831.815 74.3996 831.852 74.6934L831.87 74.8219C832.017 75.9602 832.972 76.8598 834.11 76.8598 834.386 76.8598 834.643 76.823 834.881 76.7312 833.945 76.5109 833.229 75.7215 833.1 74.7484Z" fill="#630F23"/><path d="M832.421 70.8379C832.421 71.2942 832.051 71.6641 831.595 71.6641 831.139 71.6641 830.769 71.2942 830.769 70.8379 830.769 70.3816 831.139 70.0117 831.595 70.0117 832.051 70.0117 832.421 70.3816 832.421 70.8379Z" fill="#494949"/><path d="M837.8 70.8746C837.8 71.3309 837.43 71.7008 836.974 71.7008 836.518 71.7008 836.148 71.3309 836.148 70.8746 836.148 70.4183 836.518 70.0484 836.974 70.0484 837.43 70.0484 837.8 70.4183 837.8 70.8746Z" fill="#494949"/></g></svg>