<svg width="94" height="94" xmlns="http://www.w3.org/2000/svg" xmlns:xlink="http://www.w3.org/1999/xlink" xml:space="preserve" overflow="hidden"><defs><clipPath id="clip0"><rect x="71" y="34" width="94" height="94"/></clipPath></defs><g clip-path="url(#clip0)" transform="translate(-71 -34)"><path d="M128.887 52.4695 133.202 50.8906C133.716 50.707 134.028 50.1746 133.918 49.6422L133.128 45.1258C133.091 44.9055 133.146 44.6852 133.293 44.5016 133.44 44.318 133.661 44.2262 133.881 44.2262 133.973 44.2262 134.064 44.2445 134.138 44.2812L138.452 45.8418C138.581 45.8785 138.709 45.9152 138.838 45.9152 139.242 45.9152 139.609 45.6949 139.811 45.3461L142.106 41.3805C142.143 41.307 142.216 41.2336 142.271 41.1785L142.271 39.673C142.271 36.5336 139.737 34 136.598 34L93.6922 34C90.5527 34 88.0191 36.5336 88.0191 39.673L88.0191 52.9285 128.446 52.9285C128.52 52.7082 128.667 52.543 128.887 52.4695L128.887 52.4695Z" fill="#666666"/><path d="M127.877 83.5152C127.859 85.2594 126.427 86.673 124.664 86.673L107.039 86.673C105.277 86.673 103.863 85.2594 103.845 83.5152L88.0191 83.5152 88.0191 122.327C88.0191 125.466 90.5527 128 93.6922 128L136.616 128C139.756 128 142.289 125.466 142.289 122.327L142.289 83.5152 127.877 83.5152Z" fill="#666666"/><path d="M91.7461 52.9285 91.7461 41.2703C91.7461 39.3242 93.325 37.7453 95.2711 37.7453L97.9148 37.7453C98.7227 35.5605 100.816 34 103.257 34L93.6922 34C90.5527 34 88.0191 36.5336 88.0191 39.673L88.0191 52.9285 91.7461 52.9285Z" fill="#4A4D4E"/><path d="M97.9332 124.273 95.2895 124.273C93.3434 124.273 91.7645 122.694 91.7645 120.748L91.7645 83.5152 88.0191 83.5152 88.0191 122.327C88.0191 125.466 90.5527 128 93.6922 128L103.257 128C100.816 128 98.7227 126.439 97.9332 124.273L97.9332 124.273Z" fill="#4A4D4E"/><path d="M127.877 83.5152C127.859 85.2594 126.427 86.673 124.664 86.673L107.039 86.673C105.277 86.673 103.863 85.2594 103.845 83.5152L93.123 83.5152 93.123 120.73C93.123 121.923 94.0961 122.878 95.2711 122.878L135.001 122.878C136.194 122.878 137.149 121.905 137.149 120.73L137.149 83.5152 127.877 83.5152Z" fill="#FFFFFF"/><path d="M128.887 52.4695 133.202 50.8906C133.716 50.707 134.028 50.1746 133.918 49.6422L133.128 45.1258C133.091 44.9055 133.146 44.6852 133.293 44.5016 133.44 44.318 133.661 44.2262 133.881 44.2262 133.973 44.2262 134.064 44.2445 134.138 44.2812L137.167 45.3828 137.167 41.2703C137.167 40.077 136.194 39.1223 135.019 39.1223L125.399 39.1223C124.463 39.1223 123.636 39.7281 123.343 40.6094L122.663 42.684C122.406 43.4551 121.69 43.9875 120.864 43.9875L109.426 43.9875C108.6 43.9875 107.884 43.4551 107.627 42.684L106.966 40.6094C106.672 39.7281 105.846 39.1223 104.91 39.1223L95.2895 39.1223C94.0961 39.1223 93.1414 40.0953 93.1414 41.2703L93.1414 52.9285 128.446 52.9285C128.52 52.7082 128.667 52.543 128.887 52.4695L128.887 52.4695Z" fill="#FFFFFF"/><path d="M121.323 122.896 121.323 117.884C121.323 117.37 120.901 116.929 120.368 116.929L109.904 116.929C109.389 116.929 108.949 117.352 108.949 117.884L108.949 122.896 121.323 122.896Z" fill="#666666"/><path d="M114.548 116.929 109.922 116.929C109.408 116.929 108.967 117.352 108.967 117.884L108.967 122.896 113.594 122.896 113.594 117.884C113.594 117.352 114.016 116.929 114.548 116.929Z" fill="#4A4D4E"/><path d="M99.4938 52.9285 99.4938 41.2703C99.4938 40.077 100.467 39.1223 101.642 39.1223L95.2895 39.1223C94.0961 39.1223 93.1414 40.0953 93.1414 41.2703L93.1414 52.9285 99.4938 52.9285Z" fill="#EBEBEB"/><path d="M99.4938 120.73 99.4938 83.5152 93.1414 83.5152 93.1414 120.73C93.1414 121.923 94.1145 122.878 95.2895 122.878L101.642 122.878C100.448 122.896 99.4938 121.923 99.4938 120.73Z" fill="#FFFFFF"/><path d="M135.79 83.5152 135.79 120.73C135.79 121.152 135.441 121.501 135.019 121.501L95.2895 121.501C94.8672 121.501 94.5184 121.152 94.5184 120.73L94.5184 83.5152 91.7645 83.5152 91.7645 120.73C91.7645 122.676 93.3434 124.255 95.2895 124.255L135.019 124.255C136.965 124.255 138.544 122.676 138.544 120.73L138.544 83.5152 135.79 83.5152Z" fill="#999999"/><path d="M135.79 41.2703 135.79 44.8688 138.452 45.8234C138.489 45.8418 138.507 45.8418 138.544 45.8418L138.544 41.252C138.544 39.3059 136.965 37.727 135.019 37.727L125.399 37.727C123.857 37.727 122.516 38.7 122.039 40.1688L121.36 42.2434C121.286 42.4637 121.103 42.5922 120.864 42.5922L109.426 42.5922C109.206 42.5922 109.004 42.4453 108.93 42.2434L108.27 40.1688C107.792 38.7 106.452 37.727 104.91 37.727L95.2895 37.727C93.3434 37.727 91.7645 39.3059 91.7645 41.252L91.7645 52.9102 94.5184 52.9102 94.5184 41.2703C94.5184 40.848 94.8672 40.4992 95.2895 40.4992L104.91 40.4992C105.24 40.4992 105.552 40.7195 105.644 41.0316L106.323 43.1063C106.764 44.4648 108.012 45.3645 109.426 45.3645L120.864 45.3645C122.278 45.3645 123.526 44.4648 123.967 43.1063L124.646 41.0316C124.756 40.7012 125.05 40.4992 125.38 40.4992L135.001 40.4992C135.441 40.4809 135.79 40.8297 135.79 41.2703Z" fill="#999999"/><path d="M103.606 118.875 100.21 118.875C99.457 118.875 98.8328 118.251 98.8328 117.498 98.8328 116.746 99.457 116.121 100.21 116.121L103.606 116.121C104.359 116.121 104.983 116.746 104.983 117.498 104.983 118.251 104.377 118.875 103.606 118.875Z" fill="#EBEBEB"/><path d="M130.099 118.875 126.702 118.875C125.95 118.875 125.325 118.251 125.325 117.498 125.325 116.746 125.95 116.121 126.702 116.121L130.099 116.121C130.852 116.121 131.476 116.746 131.476 117.498 131.476 118.251 130.852 118.875 130.099 118.875Z" fill="#EBEBEB"/><path d="M117.413 40.5727 112.878 40.5727C112.125 40.5727 111.501 39.9484 111.501 39.1957 111.501 38.443 112.125 37.8187 112.878 37.8187L117.413 37.8187C118.165 37.8187 118.789 38.443 118.789 39.1957 118.789 39.9484 118.184 40.5727 117.413 40.5727L117.413 40.5727Z" fill="#FFFFFF"/><path d="M105.552 106.538 99.5305 106.538C99.0164 106.538 98.5758 106.116 98.5758 105.583L98.5758 99.5613C98.5758 99.0473 98.998 98.6066 99.5305 98.6066L105.552 98.6066C106.066 98.6066 106.507 99.0289 106.507 99.5613L106.507 105.583C106.507 106.116 106.085 106.538 105.552 106.538Z" fill="#666666"/><path d="M101.77 105.583 101.77 99.5613C101.77 99.0473 102.193 98.6066 102.725 98.6066L99.5488 98.6066C99.0348 98.6066 98.5941 99.0289 98.5941 99.5613L98.5941 105.583C98.5941 106.097 99.0164 106.538 99.5488 106.538L102.725 106.538C102.193 106.538 101.77 106.116 101.77 105.583Z" fill="#4A4D4E"/><path d="M118.165 106.538 112.143 106.538C111.629 106.538 111.189 106.116 111.189 105.583L111.189 99.5613C111.189 99.0473 111.611 98.6066 112.143 98.6066L118.165 98.6066C118.679 98.6066 119.12 99.0289 119.12 99.5613L119.12 105.583C119.102 106.116 118.679 106.538 118.165 106.538Z" fill="#E60000"/><path d="M114.365 105.583 114.365 99.5613C114.365 99.0473 114.787 98.6066 115.32 98.6066L112.143 98.6066C111.629 98.6066 111.189 99.0289 111.189 99.5613L111.189 105.583C111.189 106.097 111.611 106.538 112.143 106.538L115.32 106.538C114.787 106.538 114.365 106.116 114.365 105.583Z" fill="#BD0000"/><path d="M130.76 106.538 124.738 106.538C124.224 106.538 123.783 106.116 123.783 105.583L123.783 99.5613C123.783 99.0473 124.205 98.6066 124.738 98.6066L130.76 98.6066C131.274 98.6066 131.714 99.0289 131.714 99.5613L131.714 105.583C131.696 106.116 131.274 106.538 130.76 106.538Z" fill="#EBEBEB"/><path d="M126.959 105.583 126.959 99.5613C126.959 99.0473 127.382 98.6066 127.914 98.6066L124.738 98.6066C124.224 98.6066 123.783 99.0289 123.783 99.5613L123.783 105.583C123.783 106.097 124.205 106.538 124.738 106.538L127.914 106.538C127.4 106.538 126.959 106.116 126.959 105.583Z" fill="#CCCCCC"/><path d="M104.212 84.9656 99.5488 84.9656C99.0348 84.9656 98.5941 85.3879 98.5941 85.9203L98.5941 91.9422C98.5941 92.4563 99.0164 92.8969 99.5488 92.8969L105.571 92.8969C106.085 92.8969 106.525 92.4746 106.525 91.9422L106.525 86.6363C105.516 86.4527 104.671 85.8285 104.212 84.9656Z" fill="#CCCCCC"/><path d="M101.77 91.9238 101.77 85.902C101.77 85.3879 102.193 84.9473 102.725 84.9473L99.5488 84.9473C99.0348 84.9473 98.5941 85.3695 98.5941 85.902L98.5941 91.9238C98.5941 92.4379 99.0164 92.8785 99.5488 92.8785L102.725 92.8785C102.193 92.8785 101.77 92.4563 101.77 91.9238Z" fill="#AFAFAF"/><path d="M111.189 86.673 111.189 91.9238C111.189 92.4379 111.611 92.8785 112.143 92.8785L118.165 92.8785C118.679 92.8785 119.12 92.4563 119.12 91.9238L119.12 86.673 111.189 86.673Z" fill="#999999"/><path d="M114.365 91.9238 114.365 86.673 111.189 86.673 111.189 91.9238C111.189 92.4379 111.611 92.8785 112.143 92.8785L115.32 92.8785C114.787 92.8785 114.365 92.4563 114.365 91.9238Z" fill="#999999"/><path d="M130.76 84.9656 127.51 84.9656C126.978 85.9754 125.913 86.673 124.683 86.673L123.802 86.673 123.802 91.9238C123.802 92.4379 124.224 92.8785 124.756 92.8785L130.778 92.8785C131.292 92.8785 131.733 92.4563 131.733 91.9238L131.733 85.902C131.696 85.3879 131.274 84.9656 130.76 84.9656L130.76 84.9656Z" fill="#E60000"/><path d="M126.959 91.9238 126.959 85.902C126.959 85.8102 126.978 85.7367 126.996 85.6449 126.409 86.2691 125.582 86.6547 124.664 86.6547L123.783 86.6547 123.783 91.9055C123.783 92.4195 124.205 92.8602 124.738 92.8602L127.914 92.8602C127.4 92.8785 126.959 92.4563 126.959 91.9238L126.959 91.9238Z" fill="#990000"/><path d="M150.166 63.2648C149.615 63.2648 149.156 63.6504 149.064 64.2012L148.256 68.7176C148.183 69.1398 147.816 69.3418 147.504 69.3418 147.32 69.3418 147.155 69.2867 147.026 69.1582L143.501 66.2207C143.299 66.0555 143.042 65.9637 142.785 65.9637 142.528 65.9637 142.271 66.0555 142.069 66.2207L138.544 69.1582C138.397 69.2684 138.232 69.3418 138.067 69.3418 137.755 69.3418 137.388 69.1215 137.314 68.7176L136.506 64.2012C136.414 63.6688 135.937 63.2648 135.405 63.2648L130.815 63.2648C130.539 63.2648 130.301 63.118 130.154 62.8793 130.025 62.6406 130.007 62.3652 130.154 62.1266L132.449 58.1609C132.724 57.6836 132.614 57.0777 132.192 56.7289L128.685 53.773C128.483 53.5895 128.373 53.3324 128.428 53.057 128.446 52.9469 128.502 52.8367 128.557 52.7449L80.5469 52.7449C79.5004 52.7449 78.6559 53.5895 78.6559 54.6359L78.6559 81.8078C78.6559 82.8543 79.5004 83.6988 80.5469 83.6988L103.845 83.6988C103.845 83.6254 103.827 83.552 103.827 83.4785 103.827 81.716 105.259 80.2656 107.039 80.2656L124.664 80.2656C126.427 80.2656 127.877 81.6977 127.877 83.4785 127.877 83.552 127.877 83.6254 127.859 83.6988L149.743 83.6988C150.79 83.6988 151.634 82.8543 151.634 81.8078L151.634 63.2648 150.166 63.2648Z" fill="#E60000"/><path d="M84.9164 81.8078 84.9164 54.6359C84.9164 53.5895 85.7609 52.7449 86.8074 52.7449L80.5469 52.7449C79.5004 52.7449 78.6559 53.5895 78.6559 54.6359L78.6559 81.8078C78.6559 82.8543 79.5004 83.6988 80.5469 83.6988L86.8074 83.6988C85.7609 83.6988 84.9164 82.8543 84.9164 81.8078Z" fill="#BD0000"/><path d="M143.593 41.2703 145.888 45.2359C146.108 45.6398 146.604 45.8051 147.026 45.6582L151.341 44.0977C152.02 43.859 152.718 44.4281 152.589 45.1441L151.8 49.6605C151.726 50.1195 151.983 50.5602 152.405 50.707L156.72 52.2859C157.399 52.543 157.564 53.4242 156.995 53.9016L153.489 56.8574C153.14 57.1512 153.048 57.6469 153.287 58.0508L155.582 62.0164C155.949 62.6406 155.49 63.4301 154.755 63.4301L150.166 63.4301C149.707 63.4301 149.321 63.7605 149.229 64.2012L148.421 68.7176C148.293 69.4336 147.448 69.7457 146.879 69.2684L143.354 66.3309C143.005 66.0371 142.491 66.0371 142.143 66.3309L138.618 69.2684C138.067 69.7273 137.204 69.4152 137.075 68.7176L136.268 64.2012C136.194 63.7422 135.79 63.4301 135.331 63.4301L130.741 63.4301C130.007 63.4301 129.566 62.6406 129.915 62.0164L132.21 58.0508C132.43 57.6469 132.357 57.1512 132.008 56.8574L128.502 53.9016C127.951 53.4426 128.098 52.543 128.777 52.2859L133.091 50.707C133.514 50.5418 133.771 50.1012 133.697 49.6605L132.908 45.1441C132.779 44.4281 133.477 43.8406 134.156 44.0977L138.471 45.6582C138.893 45.8051 139.389 45.6398 139.609 45.2359L141.904 41.2703C142.326 40.6461 143.226 40.6461 143.593 41.2703L143.593 41.2703Z" fill="#BD0000"/><path d="M136.727 50.7438C136.727 48.8527 137.057 47.0352 137.645 45.3461L134.211 44.0977C133.532 43.859 132.834 44.4281 132.963 45.1441L133.752 49.6605C133.826 50.1195 133.569 50.5602 133.146 50.707L128.832 52.2859C128.153 52.543 127.988 53.4242 128.557 53.9016L132.063 56.8574C132.412 57.1512 132.504 57.6469 132.265 58.0508L129.97 62.0164C129.603 62.6406 130.062 63.4301 130.796 63.4301L135.386 63.4301C135.845 63.4301 136.231 63.7605 136.323 64.2012L137.13 68.7176C137.259 69.4336 138.104 69.7457 138.673 69.2684L142.198 66.3309C142.546 66.0371 143.061 66.0371 143.409 66.3309L146.934 69.2684C147.485 69.7273 148.348 69.4152 148.477 68.7176L148.88 66.441C141.867 64.6418 136.727 58.2895 136.727 50.7438L136.727 50.7438Z" fill="#990000"/><path d="M95.7852 59.5379 97.6027 63.2281C97.7496 63.5035 98.0066 63.7055 98.3187 63.7422L102.395 64.3297C103.166 64.4398 103.478 65.3945 102.927 65.9453L99.9711 68.8277C99.7508 69.048 99.6406 69.3602 99.6957 69.6723L100.393 73.7297C100.522 74.5008 99.7141 75.0883 99.0164 74.7211L95.3812 72.8117C95.1059 72.6648 94.7754 72.6648 94.5 72.8117L90.8648 74.7211C90.1672 75.0883 89.3594 74.5008 89.4879 73.7297L90.1855 69.6723C90.2406 69.3602 90.1305 69.048 89.9102 68.8277L86.9543 65.9453C86.3852 65.3945 86.6973 64.4398 87.4867 64.3297L91.5625 63.7422C91.8746 63.7055 92.1316 63.5035 92.2785 63.2281L94.0961 59.5379C94.4266 58.8219 95.4363 58.8219 95.7852 59.5379L95.7852 59.5379Z" fill="#BD0000"/><path d="M94.2613 71.7652 94.959 67.7078C95.0141 67.3957 94.9039 67.0836 94.6836 66.8633L91.7277 63.9809C91.6543 63.9074 91.5809 63.8156 91.5441 63.7238L87.4684 64.3113C86.6973 64.4215 86.3852 65.3762 86.9359 65.927L89.8918 68.8094C90.1121 69.0297 90.2223 69.3418 90.1672 69.6539L89.4695 73.7113C89.341 74.4824 90.1488 75.0699 90.8465 74.7027L94.4816 72.7934C94.5367 72.7566 94.6102 72.7383 94.6652 72.7199 94.3715 72.5363 94.1879 72.1691 94.2613 71.7652L94.2613 71.7652Z" fill="#990000"/><path d="M124.664 86.8566 107.039 86.8566C105.167 86.8566 103.643 85.3328 103.643 83.4602 103.643 81.5875 105.167 80.0637 107.039 80.0637L124.664 80.0637C126.537 80.0637 128.061 81.5875 128.061 83.4602 128.061 85.3328 126.537 86.8566 124.664 86.8566Z" fill="#666666"/><path d="M110.05 83.4785C110.05 81.6059 111.574 80.082 113.447 80.082L107.039 80.082C105.167 80.082 103.643 81.6059 103.643 83.4785 103.643 85.3512 105.167 86.875 107.039 86.875L113.447 86.875C111.574 86.8566 110.05 85.3512 110.05 83.4785Z" fill="#4A4D4E"/><path d="M120.993 62.4754 110.142 62.4754C109.389 62.4754 108.765 61.8512 108.765 61.0984 108.765 60.3457 109.389 59.7215 110.142 59.7215L120.993 59.7215C121.745 59.7215 122.37 60.3457 122.37 61.0984 122.37 61.8512 121.764 62.4754 120.993 62.4754Z" fill="#FFFFFF"/><path d="M128.006 69.2684 110.161 69.2684C109.408 69.2684 108.784 68.6441 108.784 67.8914 108.784 67.1387 109.408 66.5145 110.161 66.5145L128.006 66.5145C128.759 66.5145 129.383 67.1387 129.383 67.8914 129.383 68.6441 128.759 69.2684 128.006 69.2684Z" fill="#FFFFFF"/><path d="M131.384 74.2254 110.142 74.2254C109.389 74.2254 108.765 73.6012 108.765 72.8484 108.765 72.0957 109.389 71.4715 110.142 71.4715L131.384 71.4715C132.137 71.4715 132.761 72.0957 132.761 72.8484 132.761 73.6012 132.155 74.2254 131.384 74.2254Z" fill="#FFFFFF"/><path d="M100.302 43.8406C100.302 44.6011 99.6851 45.2176 98.9246 45.2176 98.1641 45.2176 97.5477 44.6011 97.5477 43.8406 97.5477 43.0802 98.1641 42.4637 98.9246 42.4637 99.6851 42.4637 100.302 43.0802 100.302 43.8406Z" fill="#999999"/><path d="M104.836 43.8406C104.836 44.6011 104.22 45.2176 103.459 45.2176 102.699 45.2176 102.082 44.6011 102.082 43.8406 102.082 43.0802 102.699 42.4637 103.459 42.4637 104.22 42.4637 104.836 43.0802 104.836 43.8406Z" fill="#999999"/><path d="M24.1836 86.8566C23.1555 86.8566 22.3109 86.0121 22.3109 84.984L22.3109 66.441C22.3109 65.4129 23.1555 64.5684 24.1836 64.5684L31.0316 64.5684C32.0598 64.5684 32.9043 65.4129 32.9043 66.441L32.9043 84.984C32.9043 86.0121 32.0781 86.8566 31.0316 86.8566" fill="#D47600"/><path d="M29.7098 86.8566C28.6816 86.8566 27.8371 86.0121 27.8371 84.984L27.8371 66.441C27.8371 65.4129 28.6816 64.5684 29.7098 64.5684L40.8723 64.5684C41.9004 64.5684 42.7449 65.4129 42.7449 66.441L42.7449 84.984C42.7633 86.0121 41.9188 86.8566 40.8723 86.8566" fill="#FFA10B"/></g></svg>