<svg width="94" height="94" xmlns="http://www.w3.org/2000/svg" xmlns:xlink="http://www.w3.org/1999/xlink" xml:space="preserve" overflow="hidden"><defs><clipPath id="clip0"><rect x="768" y="531" width="94" height="94"/></clipPath></defs><g clip-path="url(#clip0)" transform="translate(-768 -531)"><path d="M837.325 539.647C837.325 538.38 836.297 537.371 835.048 537.371L803.158 537.371C801.891 537.371 800.882 538.399 800.882 539.647L800.882 598.948C800.882 600.215 801.91 601.225 803.158 601.225L835.03 601.225C836.297 601.225 837.307 600.196 837.307 598.948L837.307 539.647C837.307 539.647 837.325 539.647 837.325 539.647Z" fill="#FFFFFF"/><path d="M835.03 537.352 831.248 537.352 831.248 592.871C831.248 594.138 830.22 595.148 828.971 595.148L800.882 595.148 800.882 598.93C800.882 600.196 801.91 601.206 803.158 601.206L835.03 601.206C836.297 601.206 837.307 600.178 837.307 598.93L837.307 539.629C837.325 538.38 836.297 537.352 835.03 537.352L835.03 537.352Z" fill="#EBEBEB"/><path d="M828.476 537.352 809.731 537.352 812.889 542.199C813.403 542.97 814.266 543.448 815.202 543.448L823.023 543.448C823.959 543.448 824.822 542.97 825.336 542.199L828.476 537.352Z" fill="#4A4D4E"/><path d="M824.639 537.352 821.481 542.199C820.967 542.97 820.104 543.448 819.168 543.448L823.005 543.448C823.941 543.448 824.804 542.97 825.318 542.199L828.476 537.352 824.639 537.352Z" fill="#333333"/><path d="M835.03 602.602 803.158 602.602C801.139 602.602 799.505 600.968 799.505 598.948L799.505 539.647C799.505 537.628 801.139 535.994 803.158 535.994L835.03 535.994C837.05 535.994 838.684 537.628 838.684 539.647L838.684 598.948C838.702 600.949 837.05 602.602 835.03 602.602L835.03 602.602ZM803.158 538.729C802.662 538.729 802.259 539.133 802.259 539.629L802.259 598.93C802.259 599.425 802.662 599.829 803.158 599.829L835.03 599.829C835.526 599.829 835.93 599.425 835.93 598.93L835.93 539.629C835.93 539.133 835.526 538.729 835.03 538.729L803.158 538.729 803.158 538.729Z" fill="#4A4D4E"/><path d="M818.709 567.462C819.461 567.443 820.049 566.782 820.049 566.03L820.049 565.791C821.407 565.295 822.454 564.102 822.711 562.615 823.023 560.761 822.013 559.09 820.214 558.447 819.333 558.135 818.36 557.75 817.827 557.346 817.791 557.309 817.717 557.144 817.772 556.905 817.791 556.795 817.901 556.391 818.268 556.281 819.149 556.005 819.718 556.446 819.773 556.501L819.755 556.483 820.067 556.611C821.407 557.18 822.582 555.547 821.628 554.463 821.316 554.17 820.765 553.821 820.067 553.619L820.067 553.545C820.067 552.793 819.48 552.132 818.727 552.113 817.956 552.095 817.313 552.719 817.313 553.49L817.313 553.692C816.157 554.114 815.312 555.124 815.073 556.373 814.835 557.603 815.257 558.796 816.138 559.494 816.983 560.155 818.158 560.614 819.314 561.018 820.012 561.256 820.086 561.77 820.012 562.138 819.939 562.56 819.59 563.257 818.69 563.276 817.791 563.276 817.552 563.257 816.909 562.835 816.285 562.431 815.422 562.541 814.982 563.166 814.523 563.808 814.706 564.689 815.349 565.112 816.083 565.589 816.671 565.828 817.313 565.938L817.313 566.085C817.295 566.874 817.938 567.498 818.709 567.462L818.709 567.462Z" fill="#E60000"/><path d="M861.247 598.93 855.134 575.797C854.675 574.071 853.83 572.474 852.673 571.115 851.939 570.252 851.315 569.279 850.856 568.251L841.18 546.624C840.685 545.541 839.748 544.788 838.684 544.494L838.684 562.707C839.804 565.754 840.721 568.306 841.107 569.334 841.217 569.665 841.291 569.995 841.291 570.344L841.272 581.25C841.272 583.838 839.143 585.968 836.536 585.968 835.104 585.95 833.763 585.289 832.882 584.169 831.321 582.168 828.99 579.193 828.99 579.193 827.686 577.504 825.575 576.458 823.445 576.458 821.866 576.439 820.287 576.935 818.947 577.982 817.993 578.716 817.827 580.093 818.58 581.048L828.311 593.477C828.861 594.175 829.137 595.037 829.137 595.937 829.155 599.719 831.78 603.005 835.489 603.813L839.712 604.75C840.134 604.841 840.428 605.209 840.428 605.649L840.428 618.189C840.428 619.198 841.236 620.006 842.245 620.006L860.182 619.97C861.192 619.97 862 619.162 862 618.152L862 606.751C862 604.419 861.816 602.088 861.431 599.793 861.394 599.517 861.321 599.223 861.247 598.93L861.247 598.93Z" fill="#D89C73"/><path d="M861.247 598.93 855.134 575.797C854.675 574.089 853.867 572.492 852.71 571.152 851.957 570.289 851.333 569.298 850.874 568.251L841.18 546.624C840.685 545.541 839.748 544.788 838.684 544.494L838.684 550.846 846.541 568.435C847 569.481 847.625 570.454 848.377 571.317 849.552 572.676 850.397 574.291 850.856 576.036L857.006 599.334C857.08 599.627 857.153 599.903 857.19 600.196 857.575 602.51 857.759 604.86 857.759 607.21L857.759 618.684C857.759 619.198 857.539 619.657 857.208 620.006L860.182 620.006C861.192 620.006 862 619.198 862 618.189L862 606.787C862 604.456 861.816 602.124 861.431 599.829 861.394 599.517 861.321 599.223 861.247 598.93L861.247 598.93Z" fill="#BC7E50"/><path d="M793.152 568.049C792.785 568.049 792.436 567.902 792.161 567.627 791.114 566.525 790.527 565.075 790.527 563.57 790.527 562.064 791.114 560.614 792.161 559.512 792.693 558.961 793.556 558.943 794.107 559.475 794.658 560.008 794.676 560.871 794.144 561.422 793.593 562.009 793.281 562.78 793.281 563.588 793.281 564.396 793.593 565.167 794.144 565.754 794.676 566.305 794.658 567.168 794.107 567.7 793.85 567.921 793.501 568.049 793.152 568.049Z" fill="#BD0000"/><path d="M788.122 571.978C787.736 571.978 787.351 571.813 787.075 571.501 785.203 569.298 784.156 566.47 784.156 563.57 784.156 560.669 785.184 557.841 787.075 555.638 787.571 555.051 788.434 554.996 789.021 555.473 789.609 555.969 789.664 556.832 789.187 557.419 787.736 559.127 786.929 561.311 786.929 563.57 786.929 565.828 787.736 568.013 789.187 569.72 789.682 570.307 789.609 571.17 789.021 571.666 788.764 571.868 788.434 571.978 788.122 571.978Z" fill="#E60000"/><path d="M813.127 610.074 772.351 610.074 772.351 594.12C772.351 592.596 773.581 591.366 775.105 591.366L810.373 591.366C811.897 591.366 813.127 592.596 813.127 594.12L813.127 610.074Z" fill="#E60000"/><path d="M810.373 591.366 807.711 591.366 807.711 610.074 813.127 610.074 813.127 594.12C813.127 592.596 811.879 591.366 810.373 591.366Z" fill="#BD0000"/><path d="M806.702 608.862 806.702 576.935C806.702 576.586 806.298 576.403 806.022 576.623L804.168 578.147C804.021 578.275 803.801 578.275 803.636 578.147L801.359 576.274C801.212 576.146 800.992 576.146 800.827 576.274L798.55 578.147C798.403 578.275 798.183 578.275 798.018 578.147L795.741 576.274C795.594 576.146 795.374 576.146 795.209 576.274L792.932 578.147C792.785 578.275 792.565 578.275 792.4 578.147L790.123 576.274C789.976 576.146 789.756 576.146 789.591 576.274L787.332 578.147C787.186 578.275 786.965 578.275 786.8 578.147L784.542 576.274C784.395 576.146 784.175 576.146 784.009 576.274L781.751 578.147C781.604 578.275 781.384 578.275 781.219 578.147L779.364 576.623C779.089 576.403 778.685 576.586 778.685 576.935L778.685 608.862 806.702 608.862Z" fill="#EBEBEB"/><path d="M789.425 595.515 785.239 595.515C784.487 595.515 783.862 594.891 783.862 594.138 783.862 593.385 784.487 592.761 785.239 592.761L789.407 592.761C790.16 592.761 790.784 593.385 790.784 594.138 790.802 594.909 790.178 595.515 789.425 595.515Z" fill="#999999"/><path d="M792.822 601.775 785.239 601.775C784.487 601.775 783.862 601.151 783.862 600.398 783.862 599.646 784.487 599.021 785.239 599.021L792.822 599.021C793.575 599.021 794.199 599.646 794.199 600.398 794.199 601.151 793.593 601.775 792.822 601.775Z" fill="#999999"/><path d="M792.822 589.218 785.239 589.218C784.487 589.218 783.862 588.593 783.862 587.841 783.862 587.088 784.487 586.464 785.239 586.464L792.822 586.464C793.575 586.464 794.199 587.088 794.199 587.841 794.199 588.593 793.593 589.218 792.822 589.218Z" fill="#999999"/><path d="M806.022 576.623 804.168 578.147C804.021 578.275 803.801 578.275 803.636 578.147L801.965 576.77 801.965 608.862 806.702 608.862 806.702 576.935C806.702 576.586 806.298 576.403 806.022 576.623L806.022 576.623Z" fill="#CCCCCC"/><path d="M817.46 618.336 817.46 610.496C817.46 609.064 816.285 607.889 814.853 607.889L813.127 607.889 810.575 607.963 807.711 607.889 770.625 607.889C769.175 607.889 768 609.064 768 610.496L768 618.336C768 618.85 768.404 619.254 768.918 619.254L816.542 619.254C817.056 619.254 817.46 618.85 817.46 618.336L817.46 618.336Z" fill="#E60000"/><path d="M810.337 610.496 810.337 619.254 816.542 619.254C817.056 619.254 817.46 618.85 817.46 618.336L817.46 610.496C817.46 609.064 816.285 607.889 814.853 607.889L807.73 607.889C809.18 607.889 810.337 609.064 810.337 610.496Z" fill="#BD0000"/><path d="M885.5 482.862 924.587 482.862 924.587 499.495 885.5 499.495Z" fill="#F4F4F4"/><path d="M885.5 504.416 924.587 504.416 924.587 521.049 885.5 521.049Z" fill="#EBEBEB"/><path d="M885.5 526.025 924.587 526.025 924.587 542.658 885.5 542.658Z" fill="#CCCCCC"/><path d="M885.5 547.615 924.587 547.615 924.587 564.249 885.5 564.249Z" fill="#AFAFAF"/><path d="M885.5 569.206 924.587 569.206 924.587 585.839 885.5 585.839Z" fill="#999999"/><path d="M885.5 590.797 924.587 590.797 924.587 607.43 885.5 607.43Z" fill="#666666"/><path d="M885.5 610.716 924.587 610.716 924.587 627.35 885.5 627.35Z" fill="#4A4D4E"/><path d="M948.675 482.917 987.762 482.917 987.762 499.55 948.675 499.55Z" fill="#E60000"/><path d="M948.675 504.526 987.762 504.526 987.762 521.159 948.675 521.159Z" fill="#BD0000"/><path d="M948.675 526.116 987.762 526.116 987.762 542.75 948.675 542.75Z" fill="#990000"/><path d="M948.675 547.707 987.762 547.707 987.762 564.341 948.675 564.341Z" fill="#D47600"/><path d="M948.675 569.298 987.762 569.298 987.762 585.931 948.675 585.931Z" fill="#FFA10B"/><path d="M885.5 630.636 924.587 630.636 924.587 647.27 885.5 647.27Z" fill="#333333"/></g></svg>