<svg width="94" height="95" xmlns="http://www.w3.org/2000/svg" xmlns:xlink="http://www.w3.org/1999/xlink" xml:space="preserve" overflow="hidden"><defs><clipPath id="clip0"><rect x="71" y="488" width="94" height="95"/></clipPath></defs><g clip-path="url(#clip0)" transform="translate(-71 -488)"><path d="M80.4324 43.273C78.8902 43.273 77.5133 42.1898 77.2012 40.6293 74.282 26.3457 61.559 15.991 46.9633 15.991 35.048 15.991 24.0875 22.9492 19.0203 33.7445 18.2492 35.3969 16.2664 36.1129 14.6324 35.3234 12.9801 34.5523 12.2641 32.5695 13.0535 30.9355 19.1855 17.827 32.4961 9.38164 46.9633 9.38164 64.6801 9.38164 80.1203 21.9762 83.682 39.3074 84.0492 41.0883 82.8926 42.8324 81.1117 43.1996 80.873 43.2547 80.6527 43.273 80.4324 43.273Z" fill="#BD0000" transform="matrix(1 0 0 1.01064 71 488)"/><path d="M15.991 35.5438C15.3117 35.5438 14.6508 35.3418 14.1 34.9379 13.384 34.4422 12.8883 33.6711 12.7414 32.8082L10.3363 19.1672C10.0242 17.368 11.2176 15.6605 13.0168 15.3301 14.816 14.9996 16.5234 16.2297 16.8355 18.0105L18.6715 28.402 29.0629 26.566C30.8621 26.2539 32.5695 27.4473 32.9 29.2465 33.2121 31.0457 32.0187 32.7531 30.2195 33.0836L16.5785 35.4887C16.3766 35.5254 16.1746 35.5438 15.991 35.5438Z" fill="#BD0000" transform="matrix(1 0 0 1.01064 71 488)"/><path d="M12.8332 33.2121C12.8699 33.3406 12.9066 33.4875 12.9617 33.616 12.9617 33.616 12.9617 33.5977 12.9617 33.5977 12.925 33.4691 12.8883 33.3406 12.8332 33.2121Z" fill="#FFAC8C" transform="matrix(1 0 0 1.01064 71 488)"/><path d="M83.6637 39.3074C80.1203 21.9762 64.6801 9.38164 46.9449 9.38164 35.507 9.38164 24.8035 14.6691 17.7719 23.3531L18.1391 25.4645C25.1707 17.0559 35.709 11.952 46.9449 11.952 64.423 11.952 79.6797 24.1977 83.4984 41.1617 83.7371 40.5926 83.7922 39.95 83.6637 39.3074Z" fill="#E60000" transform="matrix(1 0 0 1.01064 71 488)"/><path d="M12.7047 32.643 12.7414 32.8082C12.7414 32.8266 12.7414 32.8266 12.7414 32.8449L12.7047 32.643Z" fill="#FFAC8C" transform="matrix(1 0 0 1.01064 71 488)"/><path d="M13.4941 17.9004C14.9812 17.6434 16.4133 18.3594 17.1109 19.5527L16.8355 18.0105C16.5234 16.2297 14.816 15.018 13.0168 15.3484 11.2176 15.6789 10.0242 17.3863 10.3363 19.1855L10.6668 21.0215C10.7402 19.4977 11.8785 18.1758 13.4941 17.9004Z" fill="#E60000" transform="matrix(1 0 0 1.01064 71 488)"/><path d="M47.0551 84.4715C29.3383 84.4715 13.898 71.8953 10.3363 54.5457 9.96914 52.7648 11.1258 51.0207 12.9066 50.6535 14.6875 50.2863 16.4316 51.443 16.7988 53.2238 19.718 67.5074 32.441 77.8621 47.0367 77.8621 58.952 77.8621 69.9125 70.9039 74.9797 60.1086 75.7508 58.4562 77.7336 57.7402 79.3676 58.5297 81.0199 59.3008 81.7359 61.2836 80.9465 62.9176 74.8328 76.0078 61.5223 84.4715 47.0551 84.4715Z" fill="#666666" transform="matrix(1 0 0 1.01064 71 488)"/><path d="M75.8609 68.3887C68.8293 76.7973 58.291 81.9012 47.0551 81.9012 29.577 81.9012 14.3203 69.6555 10.5016 52.6914 10.2812 53.2605 10.2078 53.9031 10.3363 54.5457 13.8797 71.877 29.3199 84.4715 47.0551 84.4715 58.493 84.4715 69.1965 79.184 76.2281 70.5L75.8609 68.3887Z" fill="#4A4D4E" transform="matrix(1 0 0 1.01064 71 488)"/><path d="M81.1668 60.6227C81.1301 60.4941 81.0934 60.3656 81.0383 60.2371 81.0383 60.2371 81.0383 60.2555 81.0383 60.2555 81.0934 60.384 81.1301 60.4941 81.1668 60.6227Z" fill="#E0734A" transform="matrix(1 0 0 1.01064 71 488)"/><path d="M80.4324 78.5598C78.8535 78.5598 77.4582 77.4398 77.1828 75.8242L75.3469 65.4328 64.9555 67.2687C63.1562 67.5809 61.4488 66.3875 61.1184 64.5883 60.8063 62.7891 61.9996 61.0816 63.7988 60.7512L77.4398 58.3461C79.2391 58.034 80.9465 59.2273 81.277 61.0266L83.682 74.6676C83.9941 76.4668 82.8008 78.1742 81.0016 78.5047 80.7996 78.5414 80.616 78.5598 80.4324 78.5598Z" fill="#666666" transform="matrix(1 0 0 1.01064 71 488)"/><path d="M83.682 74.6859 83.5168 73.7863C83.0945 74.8695 82.0664 75.7324 80.7445 75.9344 80.5242 75.9711 80.3223 75.9894 80.1203 75.9894 78.725 75.9894 77.4766 75.2551 76.8707 74.1352L77.1645 75.8426C77.4398 77.4398 78.8352 78.5781 80.4141 78.5781 80.5977 78.5781 80.7996 78.5598 80.9832 78.523 82.8008 78.1926 83.9941 76.4852 83.682 74.6859Z" fill="#4A4D4E" transform="matrix(1 0 0 1.01064 71 488)"/><path d="M35.6355 94 12.925 94C10.7586 94 8.99609 92.2375 8.99609 90.0711L8.99609 49.4969C8.99609 47.3305 10.7586 45.568 12.925 45.568L35.6355 45.568C37.802 45.568 39.5645 47.3305 39.5645 49.4969L39.5645 90.0711C39.5645 92.2375 37.802 94 35.6355 94Z" fill="#E60000" transform="matrix(1 0 0 1.01064 71 488)"/><path d="M35.6355 45.568 12.925 45.568C10.7586 45.568 8.99609 47.3305 8.99609 49.4969L8.99609 50.8187C8.99609 48.6523 10.7586 46.8898 12.925 46.8898L35.6355 46.8898C37.802 46.8898 39.5645 48.6523 39.5645 50.8187L39.5645 49.4969C39.5645 47.3305 37.802 45.568 35.6355 45.568Z" fill="#BD0000" transform="matrix(1 0 0 1.01064 71 488)"/><path d="M12.925 94 35.6355 94C37.802 94 39.5645 92.2375 39.5645 90.0711L39.5645 88.7492C39.5645 90.9156 37.802 92.6781 35.6355 92.6781L12.925 92.6781C10.7586 92.6781 8.99609 90.9156 8.99609 88.7492L8.99609 90.0711C8.99609 92.2375 10.7586 94 12.925 94Z" fill="#BD0000" transform="matrix(1 0 0 1.01064 71 488)"/><path d="M12.925 92.109C11.8051 92.109 10.8871 91.191 10.8871 90.0711L10.8871 51.957C10.8871 50.8371 11.8051 49.9191 12.925 49.9191L35.6355 49.9191C36.7555 49.9191 37.6734 50.8371 37.6734 51.957L37.6734 90.0711C37.6734 91.191 36.7555 92.109 35.6355 92.109L12.925 92.109Z" fill="#EBEBEB" transform="matrix(1 0 0 1.01064 71 488)"/><path d="M28.1816 48.5789 17.5332 48.5789C17.0559 48.5789 16.6887 48.1934 16.6887 47.7344 16.6887 47.2754 17.0742 46.8898 17.5332 46.8898L28.1816 46.8898C28.659 46.8898 29.0262 47.2754 29.0262 47.7344 29.0262 48.1934 28.659 48.5789 28.1816 48.5789Z" fill="#EBEBEB" transform="matrix(1 0 0 1.01064 71 488)"/><path d="M31.8719 47.716C31.8719 48.1934 31.4863 48.5605 31.0273 48.5605 30.55 48.5605 30.1828 48.175 30.1828 47.716 30.1828 47.257 30.5684 46.8715 31.0273 46.8715 31.4863 46.8715 31.8719 47.257 31.8719 47.716Z" fill="#EBEBEB" transform="matrix(1 0 0 1.01064 71 488)"/><path d="M81.1852 48.432 58.493 48.432C56.3266 48.432 54.5641 46.6695 54.5641 44.5031L54.5641 3.92891C54.5641 1.7625 56.3266 1.30451e-15 58.493 1.30451e-15L81.1852 1.30451e-15C83.3516 1.30451e-15 85.1141 1.7625 85.1141 3.92891L85.1141 44.5031C85.1324 46.6695 83.3699 48.432 81.1852 48.432Z" fill="#BD0000" transform="matrix(1 0 0 1.01064 71 488)"/><path d="M81.1852 0 58.493 0C56.3266 0 54.5641 1.7625 54.5641 3.92891L54.5641 5.25078C54.5641 3.08437 56.3266 1.32187 58.493 1.32187L81.1852 1.32187C83.3516 1.32187 85.1141 3.08437 85.1141 5.25078L85.1141 3.92891C85.1324 1.7625 83.3699 0 81.1852 0Z" fill="#990000" transform="matrix(1 0 0 1.01064 71 488)"/><path d="M58.493 48.432 81.1852 48.432C83.3516 48.432 85.1141 46.6695 85.1141 44.5031L85.1141 43.1812C85.1141 45.3477 83.3516 47.1102 81.1852 47.1102L58.493 47.1102C56.3266 47.1102 54.5641 45.3477 54.5641 43.1812L54.5641 44.5031C54.5641 46.6695 56.3266 48.432 58.493 48.432Z" fill="#990000" transform="matrix(1 0 0 1.01064 71 488)"/><path d="M58.493 46.541C57.373 46.541 56.4551 45.623 56.4551 44.5031L56.4551 6.38906C56.4551 5.26914 57.373 4.35117 58.493 4.35117L81.1852 4.35117C82.3051 4.35117 83.223 5.26914 83.223 6.38906L83.223 44.5031C83.223 45.623 82.3051 46.541 81.1852 46.541L58.493 46.541Z" fill="#EBEBEB" transform="matrix(1 0 0 1.01064 71 488)"/><path d="M73.7496 3.01094 63.1012 3.01094C62.6238 3.01094 62.2566 2.62539 62.2566 2.16641 62.2566 1.70742 62.6422 1.32187 63.1012 1.32187L73.7496 1.32187C74.227 1.32187 74.5941 1.70742 74.5941 2.16641 74.5941 2.62539 74.2086 3.01094 73.7496 3.01094Z" fill="#AFAFAF" transform="matrix(1 0 0 1.01064 71 488)"/><path d="M77.4398 2.16641C77.4398 2.64375 77.0543 3.01094 76.5953 3.01094 76.118 3.01094 75.7508 2.62539 75.7508 2.16641 75.7508 1.68906 76.1363 1.32187 76.5953 1.32187 77.0543 1.30352 77.4398 1.68906 77.4398 2.16641Z" fill="#AFAFAF" transform="matrix(1 0 0 1.01064 71 488)"/><path d="M34.4422 70.8305C34.4422 76.4484 29.8891 81.0016 24.2711 81.0016 18.6531 81.0016 14.1 76.4484 14.1 70.8305 14.1 65.2125 18.6531 60.6594 24.2711 60.6594 29.8891 60.6594 34.4422 65.2125 34.4422 70.8305Z" fill="#BD0000" transform="matrix(1 0 0 1.01064 71 488)"/><path d="M31.3211 70.8305C31.3211 74.7227 28.1633 77.8621 24.2895 77.8621 20.3973 77.8621 17.2578 74.7043 17.2578 70.8305 17.2578 66.9383 20.4156 63.7988 24.2895 63.7988 28.1633 63.7988 31.3211 66.9383 31.3211 70.8305Z" fill="#990000" transform="matrix(1 0 0 1.01064 71 488)"/><path d="M23.757 75.4938C23.0961 75.402 22.4902 75.1449 21.9762 74.7227 21.6641 74.484 21.4254 74.1719 21.2234 73.8047 20.9848 73.3641 21.1684 72.7949 21.6457 72.6113 22.0129 72.4645 22.4535 72.593 22.6738 72.9418 22.7473 73.0519 22.8207 73.1621 22.9125 73.2539 23.1512 73.5293 23.4449 73.7313 23.7754 73.8414L23.7754 71.3078 23.6652 71.2527C23.3348 71.1242 23.0227 70.9773 22.7473 70.8121 22.4535 70.6469 22.2148 70.4449 21.9945 70.2246 21.7742 70.0043 21.609 69.7473 21.4805 69.4719 21.352 69.1965 21.2785 68.8844 21.2785 68.5355 21.2785 68.2234 21.3336 67.9113 21.4438 67.6359 21.5539 67.3605 21.7191 67.1035 21.9395 66.8832 22.1598 66.6629 22.4168 66.4793 22.7289 66.3324 23.041 66.1855 23.3898 66.0938 23.7754 66.0387L23.7754 65.4879C23.7754 65.1574 24.0324 64.9004 24.3629 64.9004 24.6934 64.9004 24.9504 65.1574 24.9504 65.4879L24.9504 66.0754C25.2992 66.1305 25.6113 66.2223 25.8684 66.3508 26.1254 66.4793 26.3641 66.6445 26.5477 66.8098 26.6211 66.8832 26.6945 66.9566 26.768 67.0301 27.0984 67.4523 26.9332 68.0766 26.4375 68.2969 26.107 68.4437 25.7031 68.352 25.4645 68.0766 25.3359 67.9297 25.1707 67.8012 24.9504 67.691L24.9504 70.0777C25.3359 70.243 25.6848 70.4082 25.9969 70.5734 26.309 70.7387 26.566 70.9406 26.8047 71.1426 27.0434 71.3445 27.1902 71.6016 27.3188 71.877 27.4289 72.1523 27.484 72.4645 27.484 72.8133 27.484 73.2172 27.4105 73.566 27.282 73.8781 27.1352 74.1902 26.9516 74.4473 26.7313 74.6859 26.4926 74.9062 26.2355 75.0898 25.9234 75.2184 25.6113 75.3469 25.2992 75.4387 24.9688 75.4938L24.9688 76.0812C24.9688 76.4117 24.7117 76.6688 24.3813 76.6688 24.0508 76.6688 23.7938 76.4117 23.7938 76.0812L23.757 75.4938 23.757 75.4938ZM22.8941 68.5355C22.8941 68.7559 22.9676 68.9395 23.0961 69.0863 23.243 69.2332 23.4633 69.3984 23.7754 69.5637L23.7754 67.6176C23.5 67.691 23.298 67.8012 23.1328 67.9664 22.9676 68.1133 22.8941 68.2969 22.8941 68.5355ZM25.7582 72.8133C25.7582 72.5746 25.7031 72.391 25.5746 72.2441 25.4461 72.0973 25.2441 71.9504 24.9504 71.7852L24.9504 73.8231C25.1891 73.7496 25.391 73.6211 25.5379 73.4375 25.6848 73.2723 25.7582 73.0703 25.7582 72.8133Z" fill="#FFFFFF" transform="matrix(1 0 0 1.01064 71 488)"/><path d="M79.9734 25.2625C79.9734 30.8805 75.4203 35.4336 69.8023 35.4336 64.1844 35.4336 59.6312 30.8805 59.6312 25.2625 59.6312 19.6445 64.1844 15.0914 69.8023 15.0914 75.4203 15.0914 79.9734 19.6445 79.9734 25.2625Z" fill="#E60000" transform="matrix(1 0 0 1.01064 71 488)"/><path d="M76.834 25.2625C76.834 29.1547 73.6762 32.2941 69.8023 32.2941 65.9102 32.2941 62.7707 29.1363 62.7707 25.2625 62.7707 21.3703 65.9285 18.2309 69.8023 18.2309 73.6945 18.2309 76.834 21.3703 76.834 25.2625Z" fill="#BD0000" transform="matrix(1 0 0 1.01064 71 488)"/><path d="M69.2883 29.9258C68.6273 29.834 68.0215 29.577 67.5074 29.1547 67.1953 28.916 66.9566 28.6039 66.7547 28.2367 66.516 27.7961 66.6996 27.227 67.1769 27.0434 67.5441 26.8965 67.9848 27.025 68.2051 27.3738 68.2785 27.484 68.352 27.5941 68.4437 27.6859 68.6824 27.9613 68.9762 28.1633 69.3066 28.2734L69.3066 25.7398 69.1965 25.6848C68.866 25.5562 68.5539 25.4094 68.2785 25.2441 67.9848 25.0789 67.7461 24.877 67.5258 24.6566 67.3055 24.4363 67.1402 24.1793 67.0117 23.9039 66.8832 23.6285 66.8098 23.3164 66.8098 22.9676 66.8098 22.6555 66.8648 22.3434 66.975 22.068 67.0852 21.7926 67.2504 21.5355 67.4707 21.3152 67.691 21.0949 67.9481 20.9113 68.2602 20.7645 68.5723 20.6176 68.9211 20.5258 69.3066 20.4707L69.3066 19.9199C69.3066 19.5895 69.5637 19.3324 69.8941 19.3324 70.2246 19.3324 70.4816 19.5895 70.4816 19.9199L70.4816 20.5074C70.8305 20.5625 71.1426 20.6543 71.3996 20.7828 71.6566 20.9113 71.8953 21.0766 72.0789 21.2418 72.1523 21.3152 72.2258 21.3887 72.2992 21.4621 72.6297 21.8844 72.4645 22.5086 71.9688 22.7289 71.6383 22.8758 71.2344 22.784 70.9957 22.5086 70.8672 22.3617 70.702 22.2332 70.4816 22.123L70.4816 24.5098C70.8672 24.675 71.216 24.8402 71.5281 25.0055 71.8402 25.1707 72.0973 25.3727 72.3359 25.5746 72.5746 25.7766 72.7215 26.0336 72.85 26.2906 72.9602 26.566 73.0152 26.8781 73.0152 27.227 73.0152 27.6309 72.9418 27.9797 72.8133 28.2918 72.6664 28.6039 72.4828 28.8609 72.2625 29.0996 72.0238 29.3199 71.7668 29.5035 71.4547 29.632 71.1426 29.7605 70.8305 29.8523 70.5 29.9074L70.5 30.4949C70.5 30.8254 70.243 31.0824 69.9125 31.0824 69.582 31.0824 69.325 30.8254 69.325 30.4949L69.2883 29.9258 69.2883 29.9258ZM68.407 22.9676C68.407 23.1879 68.4805 23.3715 68.609 23.5184 68.7559 23.6652 68.9762 23.8305 69.2883 23.9957L69.2883 22.0496C69.0312 22.123 68.8109 22.2332 68.6457 22.3984 68.4805 22.5453 68.407 22.7473 68.407 22.9676ZM71.2895 27.2453C71.2895 27.0066 71.2344 26.823 71.1059 26.6762 70.9773 26.5293 70.7754 26.3824 70.4816 26.2172L70.4816 28.2551C70.7203 28.1816 70.9223 28.0531 71.0691 27.8695 71.216 27.7043 71.2895 27.5023 71.2895 27.2453Z" fill="#FFFFFF" transform="matrix(1 0 0 1.01064 71 488)"/><path d="M-93.4676-38.9402-54.3805-38.9402-54.3805-22.3066-93.4676-22.3066Z" fill="#F4F4F4" transform="matrix(1 0 0 1.01064 71 488)"/><path d="M-93.4676-17.3496-54.3805-17.3496-54.3805-0.716016-93.4676-0.716016Z" fill="#EBEBEB" transform="matrix(1 0 0 1.01064 71 488)"/><path d="M-93.4676 4.24102-54.3805 4.24102-54.3805 20.8746-93.4676 20.8746Z" fill="#CCCCCC" transform="matrix(1 0 0 1.01064 71 488)"/><path d="M-93.4676 25.85-54.3805 25.85-54.3805 42.4836-93.4676 42.4836Z" fill="#AFAFAF" transform="matrix(1 0 0 1.01064 71 488)"/><path d="M-93.4676 47.4223-54.3805 47.4223-54.3805 64.0559-93.4676 64.0559Z" fill="#999999" transform="matrix(1 0 0 1.01064 71 488)"/><path d="M-93.4676 69.0129-54.3805 69.0129-54.3805 85.6465-93.4676 85.6465Z" fill="#666666" transform="matrix(1 0 0 1.01064 71 488)"/><path d="M-93.4676 88.9145-54.3805 88.9145-54.3805 105.548-93.4676 105.548Z" fill="#4A4D4E" transform="matrix(1 0 0 1.01064 71 488)"/><path d="M-43.1445-38.8668-4.05742-38.8668-4.05742-22.2332-43.1445-22.2332Z" fill="#E60000" transform="matrix(1 0 0 1.01064 71 488)"/><path d="M-43.1445-17.2578-4.05742-17.2578-4.05742-0.624219-43.1445-0.624219Z" fill="#BD0000" transform="matrix(1 0 0 1.01064 71 488)"/><path d="M-43.1445 4.31445-4.05742 4.31445-4.05742 20.948-43.1445 20.948Z" fill="#990000" transform="matrix(1 0 0 1.01064 71 488)"/><path d="M-43.1445 25.9418-4.05742 25.9418-4.05742 42.5754-43.1445 42.5754Z" fill="#D47600" transform="matrix(1 0 0 1.01064 71 488)"/><path d="M-43.1445 47.5141-4.05742 47.5141-4.05742 64.1477-43.1445 64.1477Z" fill="#FFA10B" transform="matrix(1 0 0 1.01064 71 488)"/><path d="M-93.4676 108.834-54.3805 108.834-54.3805 125.468-93.4676 125.468Z" fill="#333333" transform="matrix(1 0 0 1.01064 71 488)"/><path d="M-44.0809 69.8023-4.99375 69.8023-4.99375 86.4359-44.0809 86.4359Z" fill="#39B54A" transform="matrix(1 0 0 1.01064 71 488)"/><path d="M-44.0809 91.3746-4.99375 91.3746-4.99375 108.008-44.0809 108.008Z" fill="#108846" transform="matrix(1 0 0 1.01064 71 488)"/></g></svg>