<svg width="94" height="95" xmlns="http://www.w3.org/2000/svg" xmlns:xlink="http://www.w3.org/1999/xlink" xml:space="preserve" overflow="hidden"><defs><clipPath id="clip0"><rect x="1120" y="510" width="94" height="95"/></clipPath></defs><g clip-path="url(#clip0)" transform="translate(-1120 -510)"><path d="M47.6059 35.5438C45.2559 31.468 52.618 22.8023 64.0559 16.2113 75.4938 9.62031 86.6746 7.56406 89.0246 11.6398 90.3281 13.898 91.6316 16.1562 92.9352 18.4145 95.2852 22.4902 87.923 31.1375 76.4852 37.7469 65.0473 44.3379 53.8664 46.3941 51.5164 42.3184 50.2129 40.0602 48.9094 37.802 47.6059 35.5438L47.6059 35.5438Z" fill="#990000" fill-rule="evenodd" transform="matrix(1 0 0 1.01064 1120 510)"/><path d="M64.0559 16.193C75.4938 9.60195 86.6746 7.5457 89.0246 11.6215 91.3746 15.6973 84.0125 24.3445 72.5746 30.9539 61.1367 37.5633 49.9559 39.6012 47.6059 35.5254 45.2375 31.4496 52.618 22.8023 64.0559 16.193Z" fill="#BD0000" fill-rule="evenodd" transform="matrix(1 0 0 1.01064 1120 510)"/><path d="M66.0387 19.6445C75.1449 14.3938 83.5352 11.8969 84.7836 14.0633 86.032 16.2297 79.6797 22.2516 70.5734 27.5023 61.4672 32.7531 53.077 35.25 51.8285 33.0836 50.5801 30.9172 56.9324 24.8953 66.0387 19.6445Z" fill="#E60000" fill-rule="evenodd" transform="matrix(1 0 0 1.01064 1120 510)"/><path d="M88.1617 23.0777 90.2363 26.6945C90.732 26.0887 91.1727 25.4828 91.5582 24.8953L89.9059 22.0496 88.1617 23.0777ZM86.3809 30.6785C85.8852 31.1191 85.3527 31.5781 84.8019 32.0371L82.8191 28.5855 84.5816 27.5758 86.3809 30.6785ZM80.4875 35.2316C79.9367 35.6172 79.3676 35.9844 78.7801 36.3516L76.8891 33.0652 78.6516 32.0555 80.4875 35.2316ZM74.1535 39.032C73.5477 39.3625 72.9234 39.6562 72.3359 39.9684L70.5 36.7922 72.2809 35.7641 74.1535 39.032ZM67.3789 42.0797C66.718 42.3367 66.057 42.557 65.4145 42.7773L63.6152 39.6746 65.3961 38.6465 67.3789 42.0797ZM60.0352 44.1359C59.2641 44.2645 58.5113 44.3563 57.8137 44.393L56.1797 41.5473 57.9605 40.5191 60.0352 44.1359Z" fill="#E60000" transform="matrix(1 0 0 1.01064 1120 510)"/><path d="M45.8617 53.2422C48.2117 49.1664 40.8496 40.5008 29.4117 33.9098 17.9738 27.3004 6.79297 25.2625 4.44297 29.3383 3.13945 31.5781 1.83594 33.8547 0.532422 36.1129-1.81758 40.1887 5.54453 48.8359 16.9824 55.4453 28.4203 62.0547 39.6012 64.0926 41.9512 60.0168 43.2547 57.7586 44.5582 55.5004 45.8617 53.2422L45.8617 53.2422Z" fill="#990000" fill-rule="evenodd" transform="matrix(1 0 0 1.01064 1120 510)"/><path d="M29.4117 33.9098C17.9738 27.3004 6.79297 25.2625 4.44297 29.3383 2.09297 33.4141 9.45508 42.0797 20.893 48.6707 32.3309 55.2801 43.5117 57.318 45.8617 53.2422 48.2117 49.1664 40.8496 40.5008 29.4117 33.9098Z" fill="#BD0000" fill-rule="evenodd" transform="matrix(1 0 0 1.01064 1120 510)"/><path d="M27.4289 37.343C18.3227 32.0922 9.93242 29.5953 8.68398 31.7617 7.43555 33.9281 13.7879 39.95 22.8941 45.2008 32.0004 50.4516 40.3906 52.9484 41.6391 50.782 42.8875 48.6156 36.5168 42.6121 27.4289 37.343Z" fill="#E60000" fill-rule="evenodd" transform="matrix(1 0 0 1.01064 1120 510)"/><path d="M5.30586 40.7762 3.23125 44.393C2.73555 43.7871 2.29492 43.1812 1.90937 42.6121L3.54336 39.7664 5.30586 40.7762ZM7.08672 48.377C7.58242 48.8176 8.11484 49.2766 8.66563 49.7355L10.6484 46.284 8.88594 45.2559 7.08672 48.377ZM12.9801 52.9484C13.5309 53.3156 14.1 53.7012 14.6875 54.0684L16.5785 50.782 14.7977 49.7723 12.9801 52.9484ZM19.3141 56.7305C19.9199 57.0426 20.5441 57.3547 21.15 57.6484L22.9859 54.4723 21.2051 53.4441 19.3141 56.7305ZM26.0887 59.7965C26.7496 60.0535 27.4105 60.2738 28.0531 60.4941L29.8523 57.3914 28.0715 56.3816 26.0887 59.7965ZM33.4324 61.8344C34.2035 61.9629 34.9562 62.0363 35.6539 62.0914L37.2879 59.2457 35.5254 58.2176 33.4324 61.8344Z" fill="#E60000" transform="matrix(1 0 0 1.01064 1120 510)"/><path d="M44.2094 75.6039C41.8594 71.5281 49.2215 62.8809 60.6594 56.2715 72.0973 49.6805 83.2781 47.6242 85.6281 51.7 86.9316 53.9582 88.2352 56.2164 89.5387 58.4746 91.8887 62.5504 84.5266 71.216 73.0887 77.807 61.6508 84.398 50.4699 86.4543 48.1199 82.3785 46.8164 80.1203 45.5129 77.8621 44.2094 75.6039L44.2094 75.6039Z" fill="#990000" fill-rule="evenodd" transform="matrix(1 0 0 1.01064 1120 510)"/><path d="M60.6594 56.2531C72.0973 49.6621 83.2781 47.6059 85.6281 51.6816 87.9781 55.7574 80.616 64.423 69.1781 71.0141 57.7402 77.6051 46.5594 79.6613 44.2094 75.5855 41.8594 71.5281 49.2215 62.8625 60.6594 56.2531L60.6594 56.2531Z" fill="#BD0000" fill-rule="evenodd" transform="matrix(1 0 0 1.01064 1120 510)"/><path d="M62.6422 59.7047C71.7484 54.4539 80.1387 51.957 81.3871 54.1234 82.6356 56.2898 76.2832 62.3117 67.1769 67.5625 58.0707 72.8133 49.6805 75.3102 48.432 73.1437 47.1836 70.9773 53.5543 64.9555 62.6422 59.7047Z" fill="#E60000" fill-rule="evenodd" transform="matrix(1 0 0 1.01064 1120 510)"/><path d="M84.7652 63.1379 86.8582 66.7547C87.3539 66.1488 87.7945 65.543 88.1801 64.9555L86.5461 62.1098 84.7652 63.1379ZM82.9844 70.7387C82.4703 71.1977 81.9562 71.6383 81.4055 72.0973L79.4227 68.6641 81.2035 67.6543 82.9844 70.7387ZM77.091 75.3102C76.5219 75.6957 75.9527 76.0629 75.3836 76.4301L73.4926 73.1437 75.2734 72.1156 77.091 75.3102ZM70.757 79.0922C70.1512 79.4043 69.527 79.7164 68.9395 80.0102L67.1035 76.834 68.866 75.8059 70.757 79.0922ZM63.9824 82.1582C63.3215 82.3969 62.6605 82.6356 62.018 82.8559L60.2188 79.7348 61.9813 78.725 63.9824 82.1582ZM56.6387 84.1961C55.8676 84.3246 55.1148 84.398 54.4172 84.4531L52.7832 81.6074 54.5457 80.5793 56.6387 84.1961Z" fill="#E60000" transform="matrix(1 0 0 1.01064 1120 510)"/><path d="M39.6195 19.0938 39.6195 22.123 42.6488 22.123 42.6488 24.7668 39.6195 24.7668 39.6195 27.8145 36.9758 27.8145 36.9758 24.7668 33.9281 24.7668 33.9281 22.123 36.9758 22.123 36.9758 19.0938 39.6195 19.0938Z" fill="#4A4D4E" transform="matrix(1 0 0 1.01064 1120 510)"/><path d="M30.2195 67.8379 30.2195 70.8672 33.2672 70.8672 33.2672 73.5109 30.2195 73.5109 30.2195 76.5586 27.5758 76.5586 27.5758 73.5109 24.5465 73.5109 24.5465 70.8672 27.5758 70.8672 27.5758 67.8379 30.2195 67.8379Z" fill="#4A4D4E" transform="matrix(1 0 0 1.01064 1120 510)"/><path d="M90.8605 38.0223 90.8605 41.0516 93.9082 41.0516 93.9082 43.6953 90.8605 43.6953 90.8605 46.743 88.2168 46.743 88.2168 43.6953 85.1875 43.6953 85.1875 41.0516 88.2168 41.0516 88.2168 38.0223 90.8605 38.0223Z" fill="#4A4D4E" transform="matrix(1 0 0 1.01064 1120 510)"/><path d="M157.064 18.4512 156.807 5.76484C161.287 5.70977 167.144 4.77344 172.174 4.35117 172.156 3.91055 172.211 3.48828 172.339 3.06602 172.431 2.68047 172.596 2.29492 172.798 1.96445 173.551 0.807813 175.589 0.348828 176.342 1.70742L180.105 12.5578 178.012 20.6727C177.939 21.0031 177.774 21.3152 177.59 21.609 177.59 21.609 176.929 22.7105 176.287 23.6652L159.414 23.6652C157.964 22.3066 157.12 20.434 157.064 18.4512L157.064 18.4512Z" fill="#D19F79" transform="matrix(1 0 0 1.01064 1120 510)"/><path d="M177.59 28.6406C177.609 29.118 177.113 29.5035 176.489 29.5219L174.286 29.5219 158.937 29.6504C158.313 29.6504 157.799 29.2648 157.799 28.8059L157.725 24.3996C157.725 23.9223 158.221 23.5367 158.845 23.5367L174.286 23.4082 176.397 23.3898C177.039 23.3898 177.535 23.7754 177.554 24.2344L177.59 28.6406Z" fill="#CCCCCC" transform="matrix(1 0 0 1.01064 1120 510)"/><path d="M177.59 28.6406C177.609 29.118 177.113 29.5035 176.489 29.5219L174.286 29.5219 174.286 23.4082 176.397 23.3898C177.039 23.3898 177.535 23.7754 177.554 24.2344L177.59 28.6406Z" fill="#AFAFAF" transform="matrix(1 0 0 1.01064 1120 510)"/><path d="M179.481 39.8398 159.341 39.8398C166.134 39.8398 172.082 36.1129 175.369 29.4852L179.316 29.4668 179.481 39.8398Z" fill="#BD0000" transform="matrix(1 0 0 1.01064 1120 510)"/><path d="M175.369 29.4852C172.082 36.1129 166.134 39.8398 159.341 39.8398L156.22 39.8398 156.055 29.632 175.369 29.4852Z" fill="#E60000" transform="matrix(1 0 0 1.01064 1120 510)"/><path d="M150.437 8.75742 154.898 18.9102 181.06 7.39883C182.345 6.84805 182.914 5.34258 182.364 4.07578 182.364 4.07578 182.364 4.07578 182.364 4.05742L171.054-21.6824 160.516-17.0375C160.296-16.9457 160.057-17.0375 159.965-17.2578 159.947-17.3313 159.929-17.4047 159.947-17.4965 160.075-18.598 160.222-20.691 159.47-22.0129 158.093-24.473 154.99-25.3543 152.53-23.9773 150.07-22.6004 149.188-19.4977 150.565-17.0375 151.226-15.8625 152.328-14.9996 153.613-14.6141 153.778-14.5773 153.888-14.4121 153.852-14.2469 153.833-14.1367 153.76-14.0633 153.668-14.0082L142.616-9.16133 147.426 1.87266C147.481 2.03789 147.664 2.11133 147.811 2.05625 147.903 2.01953 147.995 1.92773 148.013 1.83594 148.803-0.88125 151.612-2.4418 154.329-1.65234 157.046-0.862891 158.607 1.94609 157.817 4.66328 157.45 5.9668 156.569 7.05 155.394 7.71094 154.054 8.44531 151.961 8.3168 150.859 8.16992 150.62 8.15156 150.418 8.33516 150.4 8.57383 150.4 8.62891 150.4 8.68398 150.437 8.75742L150.437 8.75742Z" fill="#BD0000" transform="matrix(1 0 0 1.01064 1120 510)"/><path d="M150.988 10.0059 154.898 18.9102 181.06 7.39883C182.345 6.84805 182.914 5.34258 182.364 4.07578 182.364 4.07578 182.364 4.07578 182.364 4.05742L181.923 3.04766C180.803 3.63516 179.646 4.18594 178.471 4.7 169.824 8.51875 160.424 10.318 150.988 10.0059Z" fill="#990000" transform="matrix(1 0 0 1.01064 1120 510)"/><path d="M169.586 15.532C169.861 14.9445 170.173 14.302 170.559 13.6227 171.66 11.7133 173.551 10.9422 173.551 10.9422 173.551 10.9422 172.725 5.9668 172.468 4.31445 172.284 3.15781 172.505 1.96445 173.092 0.936328 173.882-0.312109 175.975-0.826172 176.727 0.605859L180.363 11.9703 178.068 20.5809" fill="#D19F79" transform="matrix(1 0 0 1.01064 1120 510)"/><path d="M140.431-6.97656 140.688 5.70977C136.208 5.74648 130.352 6.70117 125.321 7.12344 125.321 7.56406 125.266 7.98633 125.156 8.40859 125.064 8.79414 124.899 9.16133 124.697 9.51016 123.944 10.6668 121.906 11.1258 121.154 9.76719L117.371-1.0832 119.464-9.19805C119.538-9.52852 119.703-9.85898 119.887-10.1344 119.887-10.1344 120.548-11.2176 121.19-12.1723L138.062-12.1723C139.531-10.8504 140.394-8.97773 140.431-6.97656Z" fill="#EFCDB1" transform="matrix(1 0 0 1.01064 1120 510)"/><path d="M139.77-12.925 139.696-17.3496C139.696-17.827 139.182-18.1941 138.558-18.1941L121.007-18.0656C120.382-18.0656 119.887-17.6801 119.887-17.2027L119.96-12.7965C119.96-12.3191 120.474-11.9336 121.098-11.952L138.65-12.0805C139.274-12.0621 139.77-12.4477 139.77-12.925L139.77-12.925Z" fill="#CCCCCC" transform="matrix(1 0 0 1.01064 1120 510)"/><path d="M123.21-11.9703 120.731-11.9703C120.272-11.9703 119.887-12.3559 119.887-12.8148L119.887-12.8332 119.887-17.0191C119.887-17.5699 120.346-18.0289 120.896-18.0289L123.191-18.0289 123.191-11.9703Z" fill="#AFAFAF" transform="matrix(1 0 0 1.01064 1120 510)"/><path d="M117.996-29.9992 138.136-29.9992C131.343-29.9992 125.395-24.6566 122.108-18.0289L118.143-17.9922 117.996-29.9992Z" fill="#333333" transform="matrix(1 0 0 1.01064 1120 510)"/><path d="M122.127-18.0105C125.413-24.6566 131.361-29.9809 138.154-29.9809L141.275-29.9809 141.422-18.1574 122.127-18.0105Z" fill="#4A4D4E" transform="matrix(1 0 0 1.01064 1120 510)"/><path d="M157.689 1.68906C158.405 3.98398 157.413 6.4625 155.339 7.65586 153.998 8.39023 151.905 8.29844 150.804 8.15156 150.565 8.1332 150.363 8.28008 150.345 8.51875 150.327 8.59219 150.345 8.66563 150.363 8.73906L154.366 17.6801C154.77 18.5797 154.366 19.6445 153.466 20.0484L144.121 24.2344C143.974 24.3078 143.791 24.2527 143.699 24.1059 143.662 24.0141 143.662 23.9039 143.699 23.8305 144.947 21.2969 143.882 18.2492 141.349 17.0008 138.815 15.7523 135.768 16.8172 134.519 19.3508 133.932 20.5441 133.84 21.9395 134.262 23.2063 134.739 24.6566 136.392 25.9418 137.31 26.6027 137.493 26.7496 137.548 27.025 137.383 27.2086 137.346 27.2637 137.291 27.3004 137.236 27.3371L126.716 32.0371 115.058 5.9668C114.489 4.68164 115.058 3.17617 116.343 2.60703L141.018-8.42695C141.771-8.77578 142.671-8.44531 143.02-7.67422 143.02-7.67422 143.02-7.65586 143.038-7.65586 144.176-5.10391 146.379-0.183594 147.316 1.90937 147.371 2.07461 147.554 2.14805 147.72 2.09297 147.811 2.05625 147.903 1.96445 147.903 1.8543 148.656-0.862891 151.483-2.46016 154.2-1.68906 155.853-1.24844 157.175 0.0367188 157.689 1.68906L157.689 1.68906Z" fill="#E60000" transform="matrix(1 0 0 1.01064 1120 510)"/><path d="M155.339 7.65586C153.998 8.39023 151.905 8.29844 150.804 8.15156 150.565 8.1332 150.363 8.28008 150.345 8.51875 150.327 8.59219 150.345 8.66563 150.363 8.73906L154.366 17.6801C154.77 18.5797 154.366 19.6445 153.466 20.0484L144.103 24.2527C143.956 24.3262 143.772 24.2711 143.68 24.1059 143.644 24.0141 143.644 23.9039 143.699 23.8305 144.947 21.2969 143.882 18.2492 141.349 17.0008 138.815 15.7523 135.768 16.8172 134.519 19.3508 133.932 20.5441 133.84 21.9395 134.262 23.2063 134.739 24.6566 136.392 25.9602 137.31 26.6027 137.493 26.7496 137.548 27.025 137.383 27.2086 137.346 27.2637 137.291 27.3004 137.236 27.3371L126.716 32.0371 123.999 25.8867C132.904 19.3508 138.834 7.65586 138.834-5.67305 138.834-6.27891 138.815-6.86641 138.797-7.47227L141.018-8.46367C141.771-8.8125 142.671-8.48203 143.02-7.71094 143.02-7.71094 143.02-7.69258 143.038-7.69258 144.176-5.14062 146.379-0.220313 147.316 1.87266 147.371 2.03789 147.554 2.11133 147.72 2.05625 147.811 2.01953 147.903 1.92773 147.903 1.81758 148.656-0.899609 151.483-2.49688 154.2-1.72578 155.871-1.2668 157.193 0.0183594 157.689 1.6707 158.405 3.98398 157.432 6.44414 155.339 7.65586L155.339 7.65586Z" fill="#BD0000" transform="matrix(1 0 0 1.01064 1120 510)"/><path d="M127.91-4.05742C127.634-3.46992 127.322-2.82734 126.918-2.14805 125.835-0.238672 123.926 0.532422 123.926 0.532422 123.926 0.532422 124.77 5.50781 125.027 7.16016 125.211 8.3168 124.991 9.51016 124.403 10.5383 123.614 11.7684 121.521 12.3008 120.768 10.8688L117.133-0.495703 119.428-9.08789" fill="#EFCDB1" transform="matrix(1 0 0 1.01064 1120 510)"/><path d="M130.755 34.2219 132.188 33.4691 134.06 37.0859 132.628 37.8387 130.755 34.2219Z" fill="#E60000" transform="matrix(1 0 0 1.01064 1120 510)"/><path d="M119.079 37.1594 120.952 33.5426 122.384 34.2953 120.511 37.9121 119.079 37.1594Z" fill="#E60000" transform="matrix(1 0 0 1.01064 1120 510)"/><path d="M125.688 39.8766 125.78 35.8008 127.396 35.8375 127.304 39.9133 125.688 39.8766Z" fill="#E60000" transform="matrix(1 0 0 1.01064 1120 510)"/><path d="M165.014-26.9883 166.446-27.741 168.319-24.1242 166.887-23.3715 165.014-26.9883Z" fill="#E60000" transform="matrix(1 0 0 1.01064 1120 510)"/><path d="M176.709-24.0691 178.582-27.6859 180.014-26.9332 178.141-23.3164 176.709-24.0691Z" fill="#E60000" transform="matrix(1 0 0 1.01064 1120 510)"/><path d="M171.55-25.7766 171.642-29.8523 173.257-29.8156 173.166-25.7398 171.55-25.7766Z" fill="#E60000" transform="matrix(1 0 0 1.01064 1120 510)"/></g></svg>