<svg width="95" height="95" xmlns="http://www.w3.org/2000/svg" xmlns:xlink="http://www.w3.org/1999/xlink" xml:space="preserve" overflow="hidden"><defs><clipPath id="clip0"><rect x="1117" y="54" width="95" height="95"/></clipPath></defs><g clip-path="url(#clip0)" transform="translate(-1117 -54)"><path d="M1180.29 86.7676C1178.69 86.7676 1177.38 85.4688 1177.38 83.8545L1177.38 74.1133C1177.36 74.1133 1177.34 74.1133 1177.32 74.1133L1146.13 74.1133C1143.68 74.1133 1141.7 76.0986 1141.7 78.5479L1141.7 143.174C1141.7 145.623 1143.68 147.608 1146.13 147.608L1177.34 147.608C1179.79 147.608 1181.77 145.623 1181.77 143.174L1181.77 86.7676 1180.29 86.7676Z" fill="#EBEBEB"/><path d="M1151.9 74.1133 1153.37 78.1025C1153.53 78.5664 1153.98 78.8818 1154.48 78.8818L1168.99 78.8818C1169.49 78.8818 1169.94 78.5664 1170.1 78.1025L1171.57 74.1133 1151.9 74.1133Z" fill="#BD0000"/><path d="M1159.66 78.1025 1158.19 74.1133 1151.9 74.1133 1153.37 78.1025C1153.53 78.5664 1153.98 78.8818 1154.48 78.8818L1160.77 78.8818C1160.29 78.8633 1159.84 78.5664 1159.66 78.1025Z" fill="#990000"/><path d="M1147.47 84.2627C1149.17 84.2627 1150.57 85.6543 1150.57 87.3613L1150.57 89.124C1150.75 88.9385 1150.96 88.7529 1151.14 88.5674L1151.14 78.5293C1151.14 76.0801 1153.13 74.0947 1155.58 74.0947L1146.13 74.0947C1143.68 74.0947 1141.7 76.0801 1141.7 78.5293L1141.7 84.2441 1147.47 84.2627Z" fill="#CCCCCC"/><path d="M1151.14 143.174 1151.14 112.132C1150.88 111.909 1150.64 111.668 1150.4 111.427 1149.99 112.67 1148.84 113.579 1147.47 113.579L1141.7 113.579 1141.7 143.192C1141.7 145.642 1143.68 147.627 1146.13 147.627L1155.58 147.627C1153.13 147.608 1151.14 145.623 1151.14 143.174Z" fill="#CCCCCC"/><path d="M1180.38 86.7676 1183.17 86.7676 1183.17 106.51 1180.38 106.51 1180.38 86.7676Z" fill="#E60000"/><path d="M1180.38 143.174C1180.38 144.844 1179.01 146.217 1177.34 146.217L1146.13 146.217C1144.46 146.217 1143.09 144.844 1143.09 143.174L1143.09 78.5479C1143.09 76.8779 1144.46 75.5049 1146.13 75.5049L1177.34 75.5049C1177.36 75.5049 1177.38 75.5049 1177.4 75.5049L1177.4 72.7217C1177.38 72.7217 1177.36 72.7217 1177.34 72.7217L1146.13 72.7217C1142.92 72.7217 1140.3 75.3379 1140.3 78.5479L1140.3 143.174C1140.3 146.384 1142.92 149 1146.13 149L1177.34 149C1180.55 149 1183.17 146.384 1183.17 143.174L1183.17 135.437 1180.38 135.437 1180.38 143.174Z" fill="#E60000"/><path d="M1170.07 120.611 1151.85 120.611C1149.67 120.611 1147.91 122.374 1147.91 124.545 1147.91 126.716 1149.67 128.479 1151.85 128.479L1170.07 128.479 1170.07 120.611Z" fill="#E60000"/><path d="M1155.78 124.545C1155.78 122.374 1157.54 120.611 1159.71 120.611L1151.85 120.611C1149.67 120.611 1147.91 122.374 1147.91 124.545 1147.91 126.716 1149.67 128.479 1151.85 128.479L1159.71 128.479C1157.54 128.497 1155.78 126.734 1155.78 124.545L1155.78 124.545Z" fill="#BD0000"/><path d="M1163.13 138.517C1163.13 139.285 1162.5 139.908 1161.74 139.908 1160.97 139.908 1160.34 139.285 1160.34 138.517 1160.34 137.748 1160.97 137.125 1161.74 137.125 1162.5 137.125 1163.13 137.748 1163.13 138.517Z" fill="#E60000"/><path d="M1168.12 138.517C1168.12 139.285 1167.5 139.908 1166.73 139.908 1165.96 139.908 1165.33 139.285 1165.33 138.517 1165.33 137.748 1165.96 137.125 1166.73 137.125 1167.5 137.125 1168.12 137.748 1168.12 138.517Z" fill="#E60000"/><path d="M1158.12 138.517C1158.12 139.285 1157.49 139.908 1156.73 139.908 1155.96 139.908 1155.33 139.285 1155.33 138.517 1155.33 137.748 1155.96 137.125 1156.73 137.125 1157.49 137.125 1158.12 137.748 1158.12 138.517Z" fill="#E60000"/><path d="M1173.22 61.9043C1172.85 61.9043 1172.48 61.7559 1172.2 61.459 1169.4 58.4531 1165.69 56.7832 1161.74 56.7832 1157.78 56.7832 1154.07 58.4531 1151.27 61.459 1150.75 62.0156 1149.86 62.0527 1149.3 61.5332 1148.75 61.0137 1148.71 60.123 1149.23 59.5664 1152.55 55.9854 1157 54 1161.74 54 1166.47 54 1170.92 55.9854 1174.24 59.5664 1174.76 60.123 1174.72 61.0137 1174.17 61.5332 1173.89 61.7744 1173.55 61.9043 1173.22 61.9043Z" fill="#990000"/><path d="M1169.71 65.6709C1169.34 65.6709 1168.97 65.5225 1168.69 65.2256 1166.84 63.2217 1164.35 62.1084 1161.74 62.1084 1159.12 62.1084 1156.63 63.2217 1154.78 65.2256 1154.26 65.7822 1153.37 65.8193 1152.81 65.2998 1152.25 64.7803 1152.22 63.8896 1152.74 63.333 1155.13 60.7539 1158.32 59.3252 1161.74 59.3252 1165.15 59.3252 1168.34 60.7539 1170.73 63.333 1171.25 63.8896 1171.22 64.7803 1170.66 65.2998 1170.4 65.5596 1170.05 65.6709 1169.71 65.6709L1169.71 65.6709Z" fill="#BD0000"/><path d="M1166.21 69.4561C1165.84 69.4561 1165.46 69.3076 1165.19 69.0107 1164.26 68.0088 1163.03 67.4521 1161.72 67.4521 1160.4 67.4521 1159.19 68.0088 1158.25 69.0107 1157.73 69.5674 1156.84 69.6045 1156.28 69.085 1155.72 68.5654 1155.69 67.6748 1156.21 67.1182 1157.67 65.541 1159.62 64.6689 1161.72 64.6689 1163.81 64.6689 1165.76 65.541 1167.23 67.1182 1167.75 67.6748 1167.71 68.5654 1167.15 69.085 1166.89 69.3262 1166.56 69.4561 1166.21 69.4561Z" fill="#E60000"/><path d="M1196.08 106.324 1176.21 106.324C1174.93 109.404 1172.7 112.002 1169.88 113.728L1169.88 132.523C1169.88 134.23 1171.27 135.622 1172.98 135.622L1196.08 135.622C1197.79 135.622 1199.18 134.23 1199.18 132.523L1199.18 109.423C1199.18 107.716 1197.79 106.324 1196.08 106.324L1196.08 106.324Z" fill="#999999"/><path d="M1177.67 132.523 1177.67 109.423C1177.67 107.716 1179.07 106.324 1180.77 106.324L1176.21 106.324C1174.93 109.404 1172.7 112.002 1169.88 113.728L1169.88 132.523C1169.88 134.23 1171.27 135.622 1172.98 135.622L1180.77 135.622C1179.07 135.622 1177.67 134.23 1177.67 132.523L1177.67 132.523Z" fill="#666666"/><path d="M1191.53 116.177 1177.51 116.177C1176.75 116.177 1176.12 115.546 1176.12 114.785 1176.12 114.024 1176.75 113.394 1177.51 113.394L1191.53 113.394C1192.29 113.394 1192.93 114.024 1192.93 114.785 1192.93 115.546 1192.31 116.177 1191.53 116.177L1191.53 116.177Z" fill="#EBEBEB"/><path d="M1191.53 122.355 1177.51 122.355C1176.75 122.355 1176.12 121.725 1176.12 120.964 1176.12 120.203 1176.75 119.572 1177.51 119.572L1191.53 119.572C1192.29 119.572 1192.93 120.203 1192.93 120.964 1192.93 121.725 1192.31 122.355 1191.53 122.355L1191.53 122.355Z" fill="#EBEBEB"/><path d="M1186.95 128.553 1177.51 128.553C1176.75 128.553 1176.12 127.922 1176.12 127.161 1176.12 126.4 1176.75 125.77 1177.51 125.77L1186.95 125.77C1187.71 125.77 1188.34 126.4 1188.34 127.161 1188.34 127.922 1187.71 128.553 1186.95 128.553Z" fill="#EBEBEB"/><path d="M1207.73 72.0723 1207.73 69.0107C1207.73 67.3037 1206.34 65.9121 1204.63 65.9121L1180.29 65.9121C1178.58 65.9121 1177.19 67.3037 1177.19 69.0107L1177.19 72.0908 1207.73 72.0908Z" fill="#4A4D4E"/><path d="M1177.21 77.4902 1177.21 83.873C1177.21 85.5801 1178.6 86.9717 1180.31 86.9717L1204.65 86.9717C1206.36 86.9717 1207.75 85.5801 1207.75 83.873L1207.75 77.4902 1177.21 77.4902Z" fill="#4A4D4E"/><path d="M1185.1 72.0723 1185.1 69.0107C1185.1 67.3037 1186.49 65.9121 1188.19 65.9121L1180.31 65.9121C1178.6 65.9121 1177.21 67.3037 1177.21 69.0107L1177.21 72.0908 1185.1 72.0908Z" fill="#333333"/><path d="M1185.1 83.8545 1185.1 77.4717 1177.21 77.4717 1177.21 83.8545C1177.21 85.5615 1178.6 86.9531 1180.31 86.9531L1188.19 86.9531C1186.49 86.9531 1185.1 85.5615 1185.1 83.8545Z" fill="#333333"/><path d="M1177.21 71.8867 1207.73 71.8867 1207.73 77.6572 1177.21 77.6572 1177.21 71.8867Z" fill="#CCCCCC"/><path d="M1177.21 71.8867 1185.1 71.8867 1185.1 77.6572 1177.21 77.6572 1177.21 71.8867Z" fill="#AFAFAF"/><path d="M1176.17 100.35C1176.17 108.332 1169.7 114.804 1161.72 114.804 1153.73 114.804 1147.26 108.332 1147.26 100.35 1147.26 92.3668 1153.73 85.8955 1161.72 85.8955 1169.7 85.8955 1176.17 92.3668 1176.17 100.35Z" fill="#FFFFFF"/><path d="M1168.25 99.3291C1168.25 95.7295 1165.33 92.7979 1161.74 92.7979 1158.14 92.7979 1155.22 95.7109 1155.22 99.3105 1155.22 101.63 1156.43 103.671 1158.27 104.821 1155.43 105.99 1153.31 108.551 1152.77 111.649 1155.24 113.616 1158.36 114.785 1161.75 114.785 1165.15 114.785 1168.27 113.616 1170.73 111.649 1170.18 108.551 1168.06 105.99 1165.24 104.821 1167.04 103.689 1168.25 101.648 1168.25 99.3291L1168.25 99.3291Z" fill="#BD0000"/><path d="M1152.74 111.668C1153.83 112.54 1155.06 113.264 1156.37 113.783 1157.02 110.647 1158.99 107.994 1161.68 106.454 1162.22 106.139 1162.31 105.396 1161.85 104.97 1160.27 103.522 1159.29 101.463 1159.29 99.1621 1159.29 96.583 1160.53 94.2822 1162.46 92.8535 1162.22 92.8164 1161.96 92.8164 1161.72 92.8164 1158.12 92.8164 1155.19 95.7295 1155.19 99.3477 1155.19 101.667 1156.39 103.708 1158.23 104.858 1155.41 106.009 1153.29 108.569 1152.74 111.668L1152.74 111.668Z" fill="#990000"/><path d="M1161.74 116.195C1153 116.195 1145.89 109.089 1145.89 100.35 1145.89 91.6104 1153 84.5039 1161.74 84.5039 1170.47 84.5039 1177.58 91.6104 1177.58 100.35 1177.58 109.089 1170.47 116.195 1161.74 116.195L1161.74 116.195ZM1161.74 87.2871C1154.54 87.2871 1148.67 93.1504 1148.67 100.35 1148.67 107.549 1154.54 113.412 1161.74 113.412 1168.93 113.412 1174.8 107.549 1174.8 100.35 1174.8 93.1504 1168.93 87.2871 1161.74 87.2871L1161.74 87.2871Z" fill="#E60000"/><path d="M1016.82 79.5127 1035.67 79.5127 1035.67 90.46 1016.82 90.46Z" fill="#E60000"/><path d="M1036.44 79.5127 1055.29 79.5127 1055.29 90.46 1036.44 90.46Z" fill="#BD0000"/><path d="M1056.18 79.5127 1075.03 79.5127 1075.03 90.46 1056.18 90.46Z" fill="#990000"/><path d="M1075.51 79.5127 1094.36 79.5127 1094.36 90.46 1075.51 90.46Z" fill="#FFFFFF"/><path d="M1016.84 91.7773 1035.69 91.7773 1035.69 102.725 1016.84 102.725Z" fill="#666666"/><path d="M1036.45 91.7773 1055.31 91.7773 1055.31 102.725 1036.45 102.725Z" fill="#4A4D4E"/><path d="M1056.2 91.7773 1075.05 91.7773 1075.05 102.725 1056.2 102.725Z" fill="#333333"/><path d="M1075.51 91.7773 1094.36 91.7773 1094.36 102.725 1075.51 102.725Z" fill="#EBEBEB"/><path d="M1075.51 104.376 1094.36 104.376 1094.36 115.323 1075.51 115.323Z" fill="#CCCCCC"/><path d="M1075.51 116.659 1094.36 116.659 1094.36 127.606 1075.51 127.606Z" fill="#AFAFAF"/><path d="M1075.51 128.868 1094.36 128.868 1094.36 139.815 1075.51 139.815Z" fill="#999999"/></g></svg>