<svg width="324" height="325" xmlns="http://www.w3.org/2000/svg" xmlns:xlink="http://www.w3.org/1999/xlink" xml:space="preserve" overflow="hidden"><defs><clipPath id="clip0"><rect x="1449" y="151" width="324" height="325"/></clipPath></defs><g clip-path="url(#clip0)" transform="translate(-1449 -151)"><path d="M1563.78 256.585 1563.78 287.995C1563.78 290.2 1561.95 292 1559.71 292L1538.29 292C1536.05 292 1534.22 290.2 1534.22 287.995L1534.22 256.585 1523.3 256.585C1521.97 256.585 1520.84 255.858 1520.3 254.663 1519.75 253.469 1519.97 252.151 1520.86 251.179L1546.55 223.072C1547.2 222.364 1548.03 222 1549 222 1549.97 222 1550.8 222.365 1551.45 223.072L1577.15 251.179C1578.03 252.151 1578.25 253.469 1577.71 254.663 1577.16 255.858 1576.03 256.585 1574.7 256.585L1563.78 256.585Z" fill="#377934" fill-rule="evenodd"/><path d="M1549.75 292 1538.25 292C1536.02 292 1534.19 290.206 1534.19 288.006L1534.19 256.687 1523.29 256.687C1521.97 256.687 1520.83 255.963 1520.29 254.771 1519.75 253.58 1519.97 252.266 1520.85 251.297L1544 226 1567.15 251.297C1568.03 252.266 1568.25 253.58 1567.71 254.771 1567.17 255.962 1566.03 256.687 1564.71 256.687L1553.81 256.687 1553.81 288.006C1553.81 290.205 1551.98 292 1549.75 292Z" fill="#00B050" fill-rule="evenodd"/><path d="M1625.78 219.71 1625.78 287.98C1625.78 290.194 1623.95 292 1621.71 292L1600.29 292C1598.05 292 1596.22 290.194 1596.22 287.98L1596.22 219.71 1585.3 219.71C1583.97 219.71 1582.84 218.981 1582.29 217.782 1581.75 216.584 1581.97 215.261 1582.85 214.286L1608.55 186.077C1609.2 185.366 1610.03 185 1611 185 1611.97 185 1612.8 185.367 1613.45 186.077L1639.14 214.286C1640.03 215.261 1640.25 216.584 1639.71 217.782 1639.16 218.981 1638.03 219.71 1636.7 219.71L1625.78 219.71Z" fill="#377934" fill-rule="evenodd"/><path d="M1611.75 292 1600.25 292C1598.02 292 1596.19 290.197 1596.19 287.987L1596.19 219.834 1585.29 219.834C1583.97 219.834 1582.83 219.106 1582.29 217.909 1581.75 216.713 1581.97 215.393 1582.85 214.419L1606 189 1629.15 214.419C1630.03 215.392 1630.25 216.713 1629.71 217.909 1629.17 219.106 1628.03 219.834 1626.71 219.834L1615.81 219.834 1615.81 287.987C1615.81 290.197 1613.98 292 1611.75 292Z" fill="#00B050" fill-rule="evenodd"/><path d="M1687.78 185.764 1687.78 287.974C1687.78 290.191 1685.95 292 1683.71 292L1662.29 292C1660.05 292 1658.22 290.191 1658.22 287.974L1658.22 185.764 1647.3 185.764C1645.97 185.764 1644.84 185.034 1644.3 183.833 1643.75 182.633 1643.97 181.308 1644.85 180.331L1670.55 152.078C1671.2 151.366 1672.03 151 1673 151 1673.97 151 1674.8 151.367 1675.45 152.078L1701.14 180.331C1702.03 181.308 1702.25 182.633 1701.7 183.833 1701.16 185.034 1700.03 185.764 1698.7 185.764L1687.78 185.764Z" fill="#377934" fill-rule="evenodd"/><path d="M1673.75 292 1662.25 292C1660.02 292 1658.19 290.194 1658.19 287.979L1658.19 185.897 1647.29 185.897C1645.97 185.897 1644.83 185.168 1644.29 183.968 1643.76 182.769 1643.97 181.447 1644.85 180.471L1668 155 1691.15 180.471C1692.03 181.447 1692.25 182.769 1691.71 183.968 1691.17 185.168 1690.03 185.897 1688.71 185.897L1677.81 185.897 1677.81 287.979C1677.81 290.193 1675.98 292 1673.75 292Z" fill="#00B050" fill-rule="evenodd"/><path d="M1692.78 317 1756 317 1756 326.253 1692.78 326.253ZM1533.27 326.253 1466 326.253 1466 317 1533.27 317 1533.27 326.253ZM1558.5 373.387 1511.75 419.96 1505.19 413.419 1551.93 366.846ZM1615.64 388.754 1615.64 459 1606.36 459 1606.36 388.754ZM1670.5 367.283 1716.81 413.419 1710.25 419.96 1663.94 373.824Z" fill="#CCCCCC" fill-rule="evenodd"/><path d="M1628.27 274.475C1650.5 283.947 1660.84 309.646 1651.37 331.875 1641.9 354.105 1616.2 364.447 1593.97 354.975 1571.74 345.504 1561.4 319.805 1570.87 297.576 1580.34 275.346 1606.04 265.004 1628.27 274.475Z" fill="#BD0000" fill-rule="evenodd"/><path d="M1606.5 358C1584.3 355.714 1567 337.112 1567 314.5 1567 291.888 1584.31 273.286 1606.5 271 1628.69 273.286 1646 291.889 1646 314.5 1646 337.111 1628.69 355.714 1606.5 358Z" fill="#E60000" fill-rule="evenodd"/><path d="M1627.63 299.038C1628.84 301.269 1628 304.051 1625.75 305.251 1623.51 306.451 1620.71 305.615 1619.5 303.383 1619.33 303.058 1619.09 302.754 1618.79 302.474 1617.38 301.126 1614.96 300.334 1612.33 300.109 1609.58 299.872 1606.79 300.285 1604.8 301.349 1603.62 301.985 1602.42 303.117 1602.52 304.582 1602.59 305.566 1603.33 306.425 1604.09 307.009 1605.73 308.273 1608.91 309.022 1611.9 309.725 1615.02 310.46 1617.86 311.172 1620.78 312.611 1623.7 314.055 1626.26 316.024 1627.74 318.983 1628.89 321.288 1629.24 323.865 1628.84 326.36 1628.45 328.801 1627.33 331.154 1625.56 333.07 1624.47 334.243 1623.15 335.251 1621.61 336.012 1619.84 336.888 1617.79 337.491 1615.62 337.823L1615.62 341.403C1615.62 343.942 1613.55 346 1611 346 1608.45 346 1606.38 343.942 1606.38 341.403L1606.38 337.65C1601.34 336.692 1596.11 334.145 1593.56 329.511 1592.35 327.289 1593.17 324.508 1595.4 323.297 1597.64 322.087 1600.44 322.907 1601.65 325.129 1602.59 326.824 1604.99 327.994 1607.79 328.578 1611.22 329.294 1614.96 329.043 1617.49 327.787 1618.64 327.219 1619.53 326.208 1619.74 324.923 1620.08 322.782 1618.39 321.672 1616.7 320.836 1614.53 319.765 1612.15 319.219 1609.81 318.668 1605.87 317.742 1601.69 316.758 1598.45 314.264 1598.01 313.92 1597.6 313.57 1597.23 313.217 1594.78 310.88 1593.51 308.065 1593.31 305.193 1593.11 302.311 1594.01 299.456 1595.89 297.039 1597.13 295.451 1598.65 294.224 1600.43 293.268 1602.2 292.32 1604.24 291.651 1606.38 291.262L1606.38 287.597C1606.38 285.058 1608.45 283 1611 283 1613.55 283 1615.62 285.058 1615.62 287.597L1615.62 291.292C1619.28 291.985 1622.72 293.507 1625.19 295.866 1626.16 296.797 1626.99 297.855 1627.63 299.038Z" fill="#FFFFFF" fill-rule="evenodd"/><path d="M1767.5 310.118C1773.92 316.539 1773.92 326.95 1767.5 333.372 1761.08 339.793 1750.67 339.793 1744.25 333.372 1737.83 326.95 1737.83 316.539 1744.25 310.118 1750.67 303.697 1761.08 303.697 1767.5 310.118Z" fill="#377934" fill-rule="evenodd"/><path d="M1725.17 405.686C1731.61 411.935 1731.61 422.066 1725.17 428.314 1718.72 434.562 1708.28 434.562 1701.83 428.314 1695.39 422.066 1695.39 411.935 1701.83 405.686 1708.28 399.438 1718.72 399.438 1725.17 405.686Z" fill="#377934" fill-rule="evenodd"/><path d="M1613.62 443.321C1622.57 444.81 1628.63 453.278 1627.14 462.233 1625.65 471.188 1617.18 477.241 1608.22 475.751 1599.27 474.262 1593.22 465.794 1594.71 456.839 1596.2 447.884 1604.66 441.831 1613.62 443.321Z" fill="#377934" fill-rule="evenodd"/><path d="M1520.17 428.314C1513.72 434.562 1503.28 434.562 1496.83 428.314 1490.39 422.065 1490.39 411.934 1496.83 405.687 1503.28 399.438 1513.72 399.438 1520.17 405.687 1526.61 411.935 1526.61 422.065 1520.17 428.314Z" fill="#377934" fill-rule="evenodd"/><path d="M1482 316.94C1484.63 325.632 1479.72 334.813 1471.03 337.447 1462.34 340.081 1453.16 335.17 1450.52 326.478 1447.89 317.786 1452.8 308.604 1461.49 305.97 1470.18 303.337 1479.36 308.248 1482 316.94Z" fill="#377934" fill-rule="evenodd"/><path d="M1750.5 337C1743.81 334.801 1739 328.692 1739 321.5 1739 314.308 1743.81 308.199 1750.5 306 1757.19 308.199 1762 314.308 1762 321.5 1762 328.693 1757.19 334.801 1750.5 337Z" fill="#00B050" fill-rule="evenodd"/><path d="M1708 433C1705.72 432.193 1703.58 430.844 1701.76 428.952 1695.41 422.351 1695.41 411.649 1701.76 405.048 1703.58 403.156 1705.72 401.807 1708 401 1710.28 401.807 1712.42 403.156 1714.24 405.048 1720.59 411.649 1720.59 422.351 1714.24 428.952 1712.42 430.844 1710.28 432.192 1708 433Z" fill="#00B050" fill-rule="evenodd"/><path d="M1606 475C1599.6 472.801 1595 466.692 1595 459.5 1595 452.308 1599.6 446.199 1606 444 1612.4 446.199 1617 452.308 1617 459.5 1617 466.693 1612.4 472.802 1606 475Z" fill="#00B050" fill-rule="evenodd"/><path d="M1503 433C1500.72 432.193 1498.58 430.844 1496.76 428.952 1490.41 422.351 1490.41 411.649 1496.76 405.048 1498.58 403.157 1500.72 401.808 1503 401 1505.28 401.807 1507.42 403.156 1509.24 405.048 1515.59 411.649 1515.59 422.351 1509.24 428.952 1507.42 430.844 1505.28 432.192 1503 433Z" fill="#00B050" fill-rule="evenodd"/><path d="M1461 337C1454.6 334.801 1450 328.692 1450 321.5 1450 314.308 1454.6 308.199 1461 306 1467.4 308.199 1472 314.308 1472 321.5 1472 328.693 1467.4 334.801 1461 337Z" fill="#00B050" fill-rule="evenodd"/><path d="M1696 315 1696 329.153 1681.05 332.1 1672.62 352.441 1681.11 365.097 1661.1 385.112 1648.44 376.624 1628.1 385.051 1625.15 400 1596.85 400 1593.9 385.05 1573.56 376.624 1560.9 385.111 1540.89 365.097 1549.38 352.44 1540.95 332.1 1526 329.152 1526 315 1567.41 315C1567.41 339.074 1586.93 358.59 1611 358.59 1635.07 358.59 1654.59 339.074 1654.59 315L1696 315Z" fill="#4A4D4E" fill-rule="evenodd"/><path d="M1687 315 1687 329.153 1672.04 332.1 1663.6 352.44 1672.1 365.097 1655.74 381.445 1648.54 376.623C1648.54 376.623 1641.13 371.662 1641.13 371.662L1619.96 380.429 1616.09 400 1596.91 400 1593.96 385.05 1573.6 376.623 1573.6 376.623C1573.6 376.623 1566.02 373.488 1566.02 373.488L1556.01 380.195 1540.9 365.097 1549.4 352.44 1540.96 332.1 1526 329.152 1526 315 1567.44 315C1567.44 339.075 1586.98 358.59 1611.07 358.59 1635.16 358.59 1654.7 339.075 1654.7 315L1687 315Z" fill="#666666" fill-rule="evenodd"/><path d="M1567.74 315C1567.74 337.447 1585 355.873 1607 357.826 1605.72 357.939 1604.43 358 1603.13 358 1579.31 358 1560 338.749 1560 315Z" fill="#4A4D4E" fill-rule="evenodd"/></g></svg>