<svg width="325" height="324" xmlns="http://www.w3.org/2000/svg" xmlns:xlink="http://www.w3.org/1999/xlink" xml:space="preserve" overflow="hidden"><defs><clipPath id="clip0"><rect x="2676" y="1804" width="325" height="324"/></clipPath></defs><g clip-path="url(#clip0)" transform="translate(-2676 -1804)"><path d="M3001 1966C3001 2055.47 2928.25 2128 2838.5 2128 2748.75 2128 2676 2055.47 2676 1966 2676 1876.53 2748.75 1804 2838.5 1804 2928.25 1804 3001 1876.53 3001 1966Z" fill="#333333" fill-rule="evenodd"/><path d="M2833 2128C2823.79 2127.71 2814.77 2126.69 2806 2125L2806 2049.34C2806 2047.92 2806.58 2046.56 2807.61 2045.56 2808.65 2044.56 2810.05 2044 2811.51 2044L2827.49 2044C2828.95 2044 2830.35 2044.56 2831.38 2045.56 2832.42 2046.56 2833 2047.92 2833 2049.34Z" fill="#CCCCCC" fill-rule="evenodd"/><path d="M2788 2120C2778.6 2117.01 2769.57 2113.22 2761 2108.72L2761 2023.35C2761 2021.93 2761.58 2020.57 2762.61 2019.57 2763.65 2018.56 2765.05 2018 2766.51 2018L2782.49 2018C2783.95 2018 2785.35 2018.56 2786.39 2019.57 2787.42 2020.57 2788 2021.93 2788 2023.35Z" fill="#FFFFFF" fill-rule="evenodd"/><path d="M2742 2097C2732.48 2089.93 2723.76 2081.82 2716 2072.84L2716 1997.38C2716 1995.95 2716.56 1994.58 2717.56 1993.58 2718.55 1992.57 2719.9 1992 2721.31 1992L2736.69 1992C2738.1 1992 2739.45 1992.57 2740.44 1993.58 2741.44 1994.58 2742 1995.95 2742 1997.38Z" fill="#CCCCCC" fill-rule="evenodd"/><path d="M2926.76 1915.2C2917.81 1899.79 2904.91 1886.94 2889.46 1878.02 2874.46 1869.36 2857.06 1864.41 2838.5 1864.41 2819.95 1864.41 2802.54 1869.36 2787.55 1878.01 2772.09 1886.94 2759.2 1899.79 2750.24 1915.2 2741.56 1930.15 2736.59 1947.5 2736.59 1966L2676 1966C2676 1936.5 2683.93 1908.83 2697.77 1885 2712.04 1860.42 2732.6 1839.93 2757.26 1825.7 2781.16 1811.9 2808.91 1804 2838.5 1804 2868.09 1804 2895.85 1811.9 2919.75 1825.7 2944.4 1839.93 2964.96 1860.43 2979.23 1885 2993.07 1908.83 3001 1936.5 3001 1966L2940.41 1966C2940.41 1947.5 2935.44 1930.15 2926.76 1915.2Z" fill="#F2F2F2" fill-rule="evenodd"/><path d="M2926 1915.21C2926 1915.21 2979.01 1885 2979.01 1885 2992.99 1908.83 3001 1936.5 3001 1966L2939.79 1966C2939.79 1947.5 2934.77 1930.15 2926 1915.21Z" fill="#E60000" fill-rule="evenodd"/><path d="M2889 1877.61C2889 1877.61 2919.37 1825 2919.37 1825 2944.08 1839.31 2964.69 1859.92 2979 1884.62 2979 1884.62 2926.39 1915 2926.39 1915 2917.42 1899.5 2904.49 1886.58 2889 1877.61Z" fill="#BD0000" fill-rule="evenodd"/><path d="M2888.8 1878C2873.85 1869.35 2856.5 1864.39 2838 1864.39L2838 1804C2867.5 1804 2895.17 1811.9 2919 1825.7 2919 1825.7 2888.8 1878 2888.8 1878Z" fill="#CCCCCC" fill-rule="evenodd"/><path d="M2757 1825.69C2780.83 1811.9 2808.5 1804 2838 1804L2838 1864.4C2819.5 1864.4 2802.15 1869.35 2787.2 1878 2787.2 1878 2757 1825.69 2757 1825.69Z" fill="#EBEBEB" fill-rule="evenodd"/><path d="M2750.02 1915 2698 1884.63C2712.15 1859.92 2732.53 1839.31 2756.97 1825L2787 1877.61C2771.67 1886.58 2758.89 1899.5 2750.02 1915Z" fill="#FFFFFF" fill-rule="evenodd"/><path d="M2964.72 2014.06C2962.14 2024.98 2954.36 2043.73 2930.98 2064.42 2894.58 2096.63 2867.01 2097.99 2867.01 2097.99 2864.41 2098.15 2862.16 2096.15 2862.01 2093.53 2861.85 2090.91 2863.85 2088.66 2866.46 2088.51 2866.46 2088.51 2891.41 2086.76 2924.71 2057.29 2946.77 2037.77 2953.52 2020.46 2955.59 2011.35L2943.65 2017.64C2941.34 2018.86 2938.48 2017.97 2937.26 2015.65 2936.04 2013.33 2936.94 2010.45 2939.25 2009.23L2961.41 1997.55C2963.73 1996.33 2966.59 1997.22 2967.81 1999.54L2979.46 2021.78C2980.67 2024.1 2979.78 2026.97 2977.47 2028.19 2975.15 2029.41 2972.29 2028.52 2971.07 2026.2Z" fill="#E60000" fill-rule="evenodd"/><path d="M2676.07 1971C2676.02 1969.34 2676 1967.67 2676 1966 2676 1964.33 2676.02 1962.66 2676.07 1961L3000.93 1961C3000.98 1962.66 3001 1964.33 3001 1966 3001 1967.67 3000.98 1969.34 3000.93 1971Z" fill="#E4E8EB" fill-rule="evenodd"/><path d="M2863.96 1904.59C2865.15 1902.27 2868.03 1901.33 2870.38 1902.51 2872.73 1903.68 2873.68 1906.52 2872.49 1908.85L2842.04 1968.41C2840.85 1970.73 2837.97 1971.67 2835.62 1970.49 2833.27 1969.32 2832.32 1966.48 2833.51 1964.15Z" fill="#FFFFFF" fill-rule="evenodd"/><path d="M2851 1966C2851 1973.18 2845.18 1979 2838 1979 2830.82 1979 2825 1973.18 2825 1966 2825 1958.82 2830.82 1953 2838 1953 2845.18 1953 2851 1958.82 2851 1966Z" fill="#666666" fill-rule="evenodd"/></g></svg>