<svg width="94" height="95" xmlns="http://www.w3.org/2000/svg" xmlns:xlink="http://www.w3.org/1999/xlink" xml:space="preserve" overflow="hidden"><defs><clipPath id="clip0"><rect x="1089" y="511" width="94" height="95"/></clipPath></defs><g clip-path="url(#clip0)" transform="translate(-1089 -511)"><path d="M8.09648 0 43.7504 0C48.2301 0 51.8469 3.63516 51.8469 8.09648L51.8469 85.8852C51.8469 90.3648 48.2117 93.9816 43.7504 93.9816L8.09648 93.9816C3.63516 94 0 90.3648 0 85.9035L0 8.09648C0 3.63516 3.63516 0 8.09648 0Z" fill="#4A4D4E" fill-rule="evenodd" transform="matrix(1 0 0 1.01064 1089 511)"/><path d="M9.73047 12.9617 42.1531 12.9617C43.9523 12.9617 45.4027 14.4121 45.4027 16.2113L45.4027 38.9035C45.4027 40.7027 43.9523 42.1531 42.1531 42.1531L9.73047 42.1531C7.93125 42.1531 6.48086 40.7027 6.48086 38.9035L6.48086 16.2113C6.48086 14.4121 7.93125 12.9617 9.73047 12.9617Z" fill="#E60000" fill-rule="evenodd" transform="matrix(1 0 0 1.01064 1089 511)"/><path d="M38.9035 8.09648 12.9617 8.09648C12.0621 8.09648 11.3461 7.36211 11.3461 6.48086 11.3461 5.59961 12.0805 4.86523 12.9617 4.86523L38.8852 4.86523C39.7848 4.86523 40.5008 5.59961 40.5008 6.48086 40.5008 7.36211 39.7848 8.09648 38.9035 8.09648Z" fill="#EBEBEB" fill-rule="evenodd" transform="matrix(1 0 0 1.01064 1089 511)"/><path d="M9.73047 53.4809 12.9801 53.4809C13.8797 53.4809 14.5957 54.2152 14.5957 55.0965L14.5957 58.3461C14.5957 59.2457 13.8613 59.9617 12.9801 59.9617L9.73047 59.9617C8.83086 59.9617 8.11484 59.2273 8.11484 58.3461L8.11484 55.0965C8.09648 54.2152 8.83086 53.4809 9.73047 53.4809Z" fill="#CCCCCC" fill-rule="evenodd" transform="matrix(1 0 0 1.01064 1089 511)"/><path d="M9.73047 66.4426 12.9801 66.4426C13.8797 66.4426 14.5957 67.1769 14.5957 68.0582L14.5957 71.3078C14.5957 72.2074 13.8613 72.9234 12.9801 72.9234L9.73047 72.9234C8.83086 72.9234 8.11484 72.1891 8.11484 71.3078L8.11484 68.0582C8.09648 67.1769 8.83086 66.4426 9.73047 66.4426Z" fill="#CCCCCC" fill-rule="evenodd" transform="matrix(1 0 0 1.01064 1089 511)"/><path d="M24.3078 66.4426 27.5574 66.4426C28.457 66.4426 29.173 67.1769 29.173 68.0582L29.173 71.3078C29.173 72.2074 28.4387 72.9234 27.5574 72.9234L24.3078 72.9234C23.4082 72.9234 22.6922 72.1891 22.6922 71.3078L22.6922 68.0582C22.6922 67.1769 23.4082 66.4426 24.3078 66.4426Z" fill="#CCCCCC" fill-rule="evenodd" transform="matrix(1 0 0 1.01064 1089 511)"/><path d="M38.9035 66.4426 42.1531 66.4426C43.0527 66.4426 43.7687 67.1769 43.7687 68.0582L43.7687 71.3078C43.7687 72.2074 43.0344 72.9234 42.1531 72.9234L38.9035 72.9234C38.0039 72.9234 37.2879 72.1891 37.2879 71.3078L37.2879 68.0582C37.2695 67.1769 38.0039 66.4426 38.9035 66.4426Z" fill="#CCCCCC" fill-rule="evenodd" transform="matrix(1 0 0 1.01064 1089 511)"/><path d="M9.73047 79.4227 12.9801 79.4227C13.8797 79.4227 14.5957 80.157 14.5957 81.0383L14.5957 84.2695C14.5957 85.1691 13.8613 85.8852 12.9801 85.8852L9.73047 85.8852C8.83086 85.8852 8.11484 85.1508 8.11484 84.2695L8.11484 81.0199C8.09648 80.1387 8.83086 79.4227 9.73047 79.4227Z" fill="#CCCCCC" fill-rule="evenodd" transform="matrix(1 0 0 1.01064 1089 511)"/><path d="M24.3078 79.4227 27.5574 79.4227C28.457 79.4227 29.173 80.157 29.173 81.0383L29.173 84.2695C29.173 85.1691 28.4387 85.8852 27.5574 85.8852L24.3078 85.8852C23.4082 85.8852 22.6922 85.1508 22.6922 84.2695L22.6922 81.0199C22.6922 80.1387 23.4082 79.4227 24.3078 79.4227Z" fill="#CCCCCC" fill-rule="evenodd" transform="matrix(1 0 0 1.01064 1089 511)"/><path d="M38.9035 79.4227 42.1531 79.4227C43.0527 79.4227 43.7687 80.157 43.7687 81.0383L43.7687 84.2695C43.7687 85.1691 43.0344 85.8852 42.1531 85.8852L38.9035 85.8852C38.0039 85.8852 37.2879 85.1508 37.2879 84.2695L37.2879 81.0199C37.2695 80.1387 38.0039 79.4227 38.9035 79.4227Z" fill="#CCCCCC" fill-rule="evenodd" transform="matrix(1 0 0 1.01064 1089 511)"/><path d="M38.9035 53.4809 42.1531 53.4809C43.0527 53.4809 43.7687 54.2152 43.7687 55.0965L43.7687 58.3461C43.7687 59.2457 43.0344 59.9617 42.1531 59.9617L38.9035 59.9617C38.0039 59.9617 37.2879 59.2273 37.2879 58.3461L37.2879 55.0965C37.2695 54.2152 38.0039 53.4809 38.9035 53.4809Z" fill="#CCCCCC" fill-rule="evenodd" transform="matrix(1 0 0 1.01064 1089 511)"/><path d="M24.3078 50.2496 27.5574 50.2496C29.3566 50.2496 30.807 51.7 30.807 53.4992L30.807 56.7305C30.807 58.5297 29.3566 59.9801 27.5574 59.9801L24.3078 59.9801C22.5086 59.9801 21.0582 58.5297 21.0582 56.7305L21.0582 53.4809C21.0766 51.7 22.527 50.2496 24.3078 50.2496Z" fill="#EBEBEB" fill-rule="evenodd" transform="matrix(1 0 0 1.01064 1089 511)"/><path d="M21.0766 37.2695C20.6543 37.2695 20.232 37.1043 19.9383 36.7922L16.6887 33.5426C16.0828 32.9 16.0828 31.8902 16.707 31.266 17.3313 30.6418 18.341 30.6234 18.9836 31.2477L20.9297 33.2305 32.7531 18.4328C33.3039 17.7352 34.332 17.625 35.0297 18.1758 35.7273 18.7266 35.8375 19.7547 35.2867 20.4523L22.325 36.6637C22.0312 37.0309 21.609 37.2512 21.15 37.2695L21.0766 37.2695Z" fill="#990000" fill-rule="evenodd" transform="matrix(1 0 0 1.01064 1089 511)"/><path d="M58.3461 89.1348 58.3461 43.7504C58.3461 41.0699 60.5309 38.8852 63.2113 38.8852L89.1348 38.8852C91.8152 38.8852 94 41.0699 94 43.7504L94 89.1348C94 91.8152 91.8152 94 89.1348 94L63.2113 94C60.5125 94 58.3461 91.8152 58.3461 89.1348Z" fill="#E60000" fill-rule="evenodd" transform="matrix(1 0 0 1.01064 1089 511)"/><path d="M64.827 84.2695 64.827 79.4043C64.827 78.5047 65.5613 77.7887 66.4426 77.7887L71.3078 77.7887C72.2074 77.7887 72.9234 78.523 72.9234 79.4043L72.9234 84.2695C72.9234 85.1691 72.1891 85.8852 71.3078 85.8852L66.4426 85.8852C65.5613 85.9035 64.827 85.1691 64.827 84.2695Z" fill="#BD0000" fill-rule="evenodd" transform="matrix(1 0 0 1.01064 1089 511)"/><path d="M79.4227 87.5191C78.523 87.5191 77.807 86.7848 77.807 85.9035L77.807 81.0383C77.807 80.1387 78.5414 79.4227 79.4227 79.4227 80.3039 79.4227 81.0383 80.157 81.0383 81.0383L81.0383 85.9035C81.0383 86.7848 80.3039 87.5191 79.4227 87.5191Z" fill="#CCCCCC" fill-rule="evenodd" transform="matrix(1 0 0 1.01064 1089 511)"/><path d="M85.9035 87.5191C85.0039 87.5191 84.2879 86.7848 84.2879 85.9035L84.2879 63.2113C84.2879 62.3117 85.0223 61.5957 85.9035 61.5957 86.7848 61.5957 87.5191 62.3301 87.5191 63.2113L87.5191 85.9035C87.5191 86.7848 86.7848 87.5191 85.9035 87.5191Z" fill="#EBEBEB" fill-rule="evenodd" transform="matrix(1 0 0 1.01064 1089 511)"/><path d="M79.4227 76.173C78.523 76.173 77.807 75.4387 77.807 74.5574L77.807 69.6922C77.807 68.7926 78.5414 68.0766 79.4227 68.0766 80.3039 68.0766 81.0383 68.8109 81.0383 69.6922L81.0383 74.5574C81.0383 75.4387 80.3039 76.173 79.4227 76.173Z" fill="#CCCCCC" fill-rule="evenodd" transform="matrix(1 0 0 1.01064 1089 511)"/><path d="M79.4227 64.827C78.523 64.827 77.807 64.0926 77.807 63.2113L77.807 58.3461C77.807 57.4465 78.5414 56.7305 79.4227 56.7305 80.3039 56.7305 81.0383 57.4648 81.0383 58.3461L81.0383 63.2113C81.0383 64.1109 80.3039 64.827 79.4227 64.827Z" fill="#CCCCCC" fill-rule="evenodd" transform="matrix(1 0 0 1.01064 1089 511)"/><path d="M79.4227 53.4809C78.523 53.4809 77.807 52.7465 77.807 51.8652L77.807 47C77.807 46.1004 78.5414 45.3844 79.4227 45.3844 80.3039 45.3844 81.0383 46.1187 81.0383 47L81.0383 51.8652C81.0383 52.7648 80.3039 53.4809 79.4227 53.4809Z" fill="#CCCCCC" fill-rule="evenodd" transform="matrix(1 0 0 1.01064 1089 511)"/><path d="M64.827 63.2113C63.9273 63.2113 63.2113 62.477 63.2113 61.5957L63.2113 58.3461C63.2113 57.4465 63.9457 56.7305 64.827 56.7305 65.7082 56.7305 66.4426 57.4648 66.4426 58.3461L66.4426 61.5957C66.4426 62.477 65.7266 63.2113 64.827 63.2113Z" fill="#990000" fill-rule="evenodd" transform="matrix(1 0 0 1.01064 1089 511)"/><path d="M64.827 53.4809C63.9273 53.4809 63.2113 52.7465 63.2113 51.8652L63.2113 45.3844C63.2113 44.4848 63.9457 43.7687 64.827 43.7687 65.7082 43.7687 66.4426 44.5031 66.4426 45.3844L66.4426 51.8652C66.4426 52.7648 65.7266 53.4809 64.827 53.4809Z" fill="#990000" fill-rule="evenodd" transform="matrix(1 0 0 1.01064 1089 511)"/><path d="M85.9035 30.7887C85.2977 30.7887 84.7469 30.4582 84.4715 29.9258 82.3785 26.4375 78.6148 24.3078 74.5574 24.3078 70.5 24.3078 66.7363 26.4375 64.6434 29.9258 64.3863 30.4582 63.8539 30.7887 63.2664 30.8254 62.6789 30.8621 62.1281 30.5684 61.816 30.0543 61.5039 29.5402 61.4855 28.9344 61.7793 28.4203 64.423 23.8672 69.2883 21.0766 74.5574 21.0766 79.8266 21.0766 84.6918 23.8672 87.3355 28.4203 87.5926 28.916 87.5742 29.5219 87.2805 30.0176 86.9867 30.4949 86.4727 30.7887 85.9035 30.7887Z" fill="#BD0000" fill-rule="evenodd" transform="matrix(1 0 0 1.01064 1089 511)"/><path d="M90.7504 25.9234C90.1813 25.9234 89.6488 25.6297 89.3551 25.134 86.693 20.691 80.873 17.8086 74.5391 17.8086 68.2051 17.8086 62.3852 20.6727 59.723 25.134 59.2457 25.8867 58.2727 26.1254 57.5199 25.6664 56.7672 25.2074 56.5102 24.2344 56.9508 23.4633 60.2371 17.9738 66.9934 14.5773 74.5391 14.5773 82.0848 14.5773 88.8594 17.9922 92.1457 23.4816 92.4395 23.9773 92.4578 24.6016 92.1641 25.1156 91.8887 25.6113 91.3379 25.9234 90.7504 25.9234L90.7504 25.9234Z" fill="#E60000" fill-rule="evenodd" transform="matrix(1 0 0 1.01064 1089 511)"/><path d="M80.2305 34.0383C79.6246 34.0383 79.0738 33.7078 78.7984 33.1754 77.8988 31.7066 76.2832 30.807 74.5574 30.807 72.8316 30.807 71.216 31.7066 70.3164 33.1754 69.8941 33.9465 68.9211 34.2402 68.15 33.818 67.3789 33.4141 67.0668 32.4594 67.4523 31.6699 68.9211 29.1363 71.6199 27.5574 74.5574 27.5574 77.4949 27.5574 80.1937 29.118 81.6625 31.6699 81.9195 32.1656 81.9012 32.7715 81.6074 33.2672 81.3137 33.7445 80.7996 34.0383 80.2305 34.0383Z" fill="#990000" fill-rule="evenodd" transform="matrix(1 0 0 1.01064 1089 511)"/><path d="M-34.8828 25.391-41.2352 26.1988C-41.2352 26.1988-36.3883 12.6863-33.1203 9.41836-33.1203 9.41836-28.0164 4.62656-24.9137 6.16875-24.1426 6.5543-23.4082 7.06836-22.7656 7.7293-19.5344 10.9605-19.5344 16.193-22.7656 19.4242-26.0336 22.7105-30.293 24.8035-34.8828 25.391Z" fill="#FFA10B" transform="matrix(1 0 0 1.01064 1089 511)"/><path d="M-34.4789 7.27031C-37.7469 10.5383-39.8398 14.7977-40.4273 19.3875L-41.2352 25.7398C-39.95 25.5746-38.9586 24.5832-38.775 23.298-38.6648 22.4902-38.518 21.6457-38.2426 20.6176-37.8754 19.259-36.1863 18.8-35.1949 19.7914L-34.2035 20.7828C-33.4324 21.5539-32.1656 21.5539-31.3762 20.7828-30.5867 20.0117-30.6051 18.7449-31.3762 17.9555L-34.075 15.2566C-34.7543 14.5773-34.8094 13.4758-34.2035 12.7414L-34.1852 12.723C-33.4875 11.8785-32.2023 11.8051-31.4312 12.5945L-30.5133 13.5125C-29.7422 14.2836-28.4754 14.2836-27.6859 13.5125-26.9148 12.7414-26.9148 11.4746-27.6859 10.6852-28.3836 9.9875-27.8879 8.77578-26.8965 8.77578-26.8598 8.77578-26.823 8.77578-26.8047 8.77578-24.6934 8.8125-24.1609 5.85664-26.1805 5.23242-28.9527 4.38789-32.1289 4.92031-34.4789 7.27031L-34.4789 7.27031Z" fill="#D47600" transform="matrix(1 0 0 1.01064 1089 511)"/><path d="M-92.9902-40.0602-53.9031-40.0602-53.9031-23.4266-92.9902-23.4266Z" fill="#F4F4F4" transform="matrix(1 0 0 1.01064 1089 511)"/><path d="M-92.9902-18.4695-53.9031-18.4695-53.9031-1.83594-92.9902-1.83594Z" fill="#EBEBEB" transform="matrix(1 0 0 1.01064 1089 511)"/><path d="M-92.9902 3.12109-53.9031 3.12109-53.9031 19.7547-92.9902 19.7547Z" fill="#CCCCCC" transform="matrix(1 0 0 1.01064 1089 511)"/><path d="M-92.9902 24.7484-53.9031 24.7484-53.9031 41.382-92.9902 41.382Z" fill="#AFAFAF" transform="matrix(1 0 0 1.01064 1089 511)"/><path d="M-92.9902 46.3023-53.9031 46.3023-53.9031 62.9359-92.9902 62.9359Z" fill="#999999" transform="matrix(1 0 0 1.01064 1089 511)"/><path d="M-92.9902 67.893-53.9031 67.893-53.9031 84.5266-92.9902 84.5266Z" fill="#666666" transform="matrix(1 0 0 1.01064 1089 511)"/><path d="M-92.9902 87.7945-53.9031 87.7945-53.9031 104.428-92.9902 104.428Z" fill="#4A4D4E" transform="matrix(1 0 0 1.01064 1089 511)"/><path d="M-3.58008-23.3531-42.6672-23.3531-42.6672-39.9867-3.58008-39.9867" fill="#E60000" transform="matrix(1 0 0 1.01064 1089 511)"/><path d="M-3.58008-1.74414-42.6672-1.74414-42.6672-18.3777-3.58008-18.3777" fill="#BD0000" transform="matrix(1 0 0 1.01064 1089 511)"/><path d="M-3.58008 19.8281-42.6672 19.8281-42.6672 3.19453-3.58008 3.19453" fill="#990000" transform="matrix(1 0 0 1.01064 1089 511)"/><path d="M-3.58008 41.4555-42.6672 41.4555-42.6672 24.8219-3.58008 24.8219" fill="#D47600" transform="matrix(1 0 0 1.01064 1089 511)"/><path d="M-3.58008 63.0461-42.6672 63.0461-42.6672 46.4125-3.58008 46.4125" fill="#FFA10B" transform="matrix(1 0 0 1.01064 1089 511)"/><path d="M-92.9902 107.733-53.9031 107.733-53.9031 124.366-92.9902 124.366Z" fill="#333333" transform="matrix(1 0 0 1.01064 1089 511)"/><path d="M-43.6035 68.6824-4.51641 68.6824-4.51641 85.316-43.6035 85.316Z" fill="#39B54A" transform="matrix(1 0 0 1.01064 1089 511)"/><path d="M-43.6035 90.2547-4.51641 90.2547-4.51641 106.888-43.6035 106.888Z" fill="#108846" transform="matrix(1 0 0 1.01064 1089 511)"/></g></svg>