<svg width="325" height="325" xmlns="http://www.w3.org/2000/svg" xmlns:xlink="http://www.w3.org/1999/xlink" xml:space="preserve" overflow="hidden"><defs><clipPath id="clip0"><rect x="350" y="1741" width="325" height="325"/></clipPath></defs><g clip-path="url(#clip0)" transform="translate(-350 -1741)"><path d="M446 1933C449.865 1933 453 1936.3 453 1940.37L453 2043.63C453 2047.7 449.865 2051 446 2051 442.135 2051 439 2047.7 439 2043.63L439 1940.37C439 1936.3 442.135 1933 446 1933Z" fill="#BD0000" fill-rule="evenodd"/><path d="M408.556 1741 615.444 1741C631.767 1741 645 1754.21 645 1770.5L645 1888.5C645 1904.79 631.767 1918 615.444 1918L408.556 1918C392.231 1918 379 1904.79 379 1888.5L379 1770.5C379 1754.21 392.231 1741 408.556 1741Z" fill="#E60000" fill-rule="evenodd"/><path d="M394 1775.22 394 1795.78C394 1806.4 402.633 1815 413.281 1815L417.762 1815C421.569 1815 425.29 1813.88 428.458 1811.77L459.413 1791.21C464.777 1787.64 468 1781.64 468 1775.22 468 1764.6 459.367 1756 448.719 1756L413.281 1756C402.633 1756 394 1764.6 394 1775.22Z" fill="#EBEBEB" fill-rule="evenodd"/><path d="M424.163 1977 380.071 1977C372.82 1977 366.632 1971.76 365.44 1964.6L350.204 1905.27C348.857 1897.19 354.317 1889.55 362.396 1888.2 363.203 1888.07 364.019 1888 364.837 1888L408.929 1888C416.18 1888 422.368 1893.24 423.56 1900.4L438.796 1959.73C440.143 1967.81 434.683 1975.45 426.604 1976.8 425.796 1976.93 424.981 1977 424.163 1977Z" fill="#666666" fill-rule="evenodd"/><path d="M358.449 1901C354.334 1901 351 1904.33 351 1908.43 351 1909.05 351.077 1909.66 351.228 1910.25L362.349 1953.44C363.385 1957.41 367.45 1959.79 371.429 1958.76 375.399 1957.73 377.785 1953.69 376.764 1949.73L365.654 1906.58C364.81 1903.3 361.847 1901 358.449 1901Z" fill="#494D4E" fill-rule="evenodd"/><path d="M475.625 1977 372.375 1977C368.303 1977 365 1973.64 365 1969.5 365 1965.36 368.303 1962 372.375 1962L475.625 1962C479.697 1962 483 1965.36 483 1969.5 483 1973.64 479.697 1977 475.625 1977Z" fill="#494D4E" fill-rule="evenodd"/><path d="M416.625 1977 372.375 1977C368.303 1977 365 1973.64 365 1969.5 365 1965.36 368.303 1962 372.375 1962L416.625 1962C420.697 1962 424 1965.36 424 1969.5 424 1973.64 420.697 1977 416.625 1977Z" fill="#494D4E" fill-rule="evenodd"/><path d="M394 1977 394 1991.8 453.333 1991.8C461.526 1991.8 468.167 1998.43 468.167 2006.6L468.167 2021.4C468.167 2029.57 461.526 2036.2 453.333 2036.2L394 2036.2 394 2051 453.333 2051C469.717 2051 483 2037.75 483 2021.4L483 2006.6C483 1990.25 469.717 1977 453.333 1977Z" fill="#333333" fill-rule="evenodd"/><path d="M379.75 1977 379.75 1991.8 394.5 1991.8C402.647 1991.8 409.25 1998.43 409.25 2006.6L409.25 2021.4C409.25 2029.57 402.647 2036.2 394.5 2036.2L365 2036.2 365 2051 394.5 2051C410.792 2051 424 2037.75 424 2021.4L424 2006.6C424 1990.25 410.792 1977 394.5 1977L379.75 1977Z" fill="#333333" fill-rule="evenodd"/><path d="M371.75 2051 357.25 2051C353.247 2051 350 2047.64 350 2043.5 350 2039.36 353.247 2036 357.25 2036L371.75 2036C375.754 2036 379 2039.36 379 2043.5 379 2047.64 375.754 2051 371.75 2051Z" fill="#333333" fill-rule="evenodd"/><path d="M600.837 1977 644.929 1977C652.18 1977 658.368 1971.76 659.56 1964.6L674.796 1905.27C676.143 1897.19 670.683 1889.55 662.604 1888.2 661.797 1888.07 660.981 1888 660.163 1888L616.071 1888C608.82 1888 602.632 1893.24 601.441 1900.4L586.204 1959.73C584.857 1967.81 590.317 1975.45 598.396 1976.8 599.204 1976.93 600.019 1977 600.837 1977Z" fill="#666666" fill-rule="evenodd"/><path d="M665.837 1901C662.57 1901 659.721 1903.3 658.909 1906.58L648.226 1949.73C647.243 1953.7 649.552 1957.75 653.38 1958.76 657.2 1959.78 661.093 1957.4 662.087 1953.45L672.779 1910.25C673.75 1906.28 671.429 1902.23 667.593 1901.23 667.018 1901.08 666.43 1901 665.837 1901Z" fill="#494D4E" fill-rule="evenodd"/><path d="M549.375 1962 652.625 1962C656.697 1962 660 1965.36 660 1969.5 660 1973.64 656.697 1977 652.625 1977L549.375 1977C545.303 1977 542 1973.64 542 1969.5 542 1965.36 545.303 1962 549.375 1962Z" fill="#494D4E" fill-rule="evenodd"/><path d="M608.375 1962 652.625 1962C656.697 1962 660 1965.36 660 1969.5 660 1973.64 656.697 1977 652.625 1977L608.375 1977C604.303 1977 601 1973.64 601 1969.5 601 1965.36 604.303 1962 608.375 1962Z" fill="#494D4E" fill-rule="evenodd"/><path d="M630 1977 630 1991.8 571.333 1991.8C563.232 1991.8 556.667 1998.43 556.667 2006.6L556.667 2021.4C556.667 2029.57 563.232 2036.2 571.333 2036.2L600.667 2036.2 600.667 2051 571.333 2051C555.134 2051 542 2037.75 542 2021.4L542 2006.6C542 1990.25 555.134 1977 571.333 1977Z" fill="#666666" fill-rule="evenodd"/><path d="M593.375 2036 637.625 2036C641.697 2036 645 2039.36 645 2043.5 645 2047.64 641.697 2051 637.625 2051L593.375 2051C589.303 2051 586 2047.64 586 2043.5 586 2039.36 589.303 2036 593.375 2036Z" fill="#333333" fill-rule="evenodd"/><path d="M645.25 1977 645.25 1991.8 630.5 1991.8C622.353 1991.8 615.75 1998.43 615.75 2006.6L615.75 2021.4C615.75 2029.57 622.353 2036.2 630.5 2036.2L660 2036.2 660 2051 630.5 2051C614.208 2051 601 2037.75 601 2021.4L601 2006.6C601 1990.25 614.208 1977 630.5 1977Z" fill="#333333" fill-rule="evenodd"/><path d="M652.5 2036 667.5 2036C671.641 2036 675 2039.36 675 2043.5 675 2047.64 671.641 2051 667.5 2051L652.5 2051C648.359 2051 645 2047.64 645 2043.5 645 2039.36 648.359 2036 652.5 2036Z" fill="#333333" fill-rule="evenodd"/><path d="M372 1933C375.865 1933 379 1936.3 379 1940.37L379 2043.63C379 2047.7 375.865 2051 372 2051 368.135 2051 365 2047.7 365 2043.63L365 1940.37C365 1936.3 368.135 1933 372 1933Z" fill="#BD0000" fill-rule="evenodd"/><path d="M357.386 1933 667.614 1933C671.692 1933 675 1936.36 675 1940.5 675 1944.64 671.692 1948 667.614 1948L357.386 1948C353.308 1948 350 1944.64 350 1940.5 350 1936.36 353.308 1933 357.386 1933Z" fill="#E60000" fill-rule="evenodd"/><path d="M564.375 1933 667.625 1933C671.697 1933 675 1936.36 675 1940.5 675 1944.64 671.697 1948 667.625 1948L564.375 1948C560.303 1948 557 1944.64 557 1940.5 557 1936.36 560.303 1933 564.375 1933Z" fill="#BD0000" fill-rule="evenodd"/><path d="M475.357 1977 563.643 1977C567.705 1977 571 1980.36 571 1984.5 571 1988.64 567.705 1992 563.643 1992L475.357 1992C471.295 1992 468 1988.64 468 1984.5 468 1980.36 471.295 1977 475.357 1977Z" fill="#494D4E" fill-rule="evenodd"/><path d="M482.8 1903 527.2 1903C535.375 1903 542 1909.64 542 1917.83L542 1977.17C542 1985.36 535.375 1992 527.2 1992L482.8 1992C474.625 1992 468 1985.36 468 1977.17L468 1917.83C468 1909.64 474.625 1903 482.8 1903Z" fill="#666666" fill-rule="evenodd"/><path d="M526.75 1992 526.75 2006.8 541.5 2006.8C549.647 2006.8 556.25 2013.43 556.25 2021.6L556.25 2036.4C556.25 2044.57 549.647 2051.2 541.5 2051.2L512 2051.2 512 2066 541.5 2066C557.792 2066 571 2052.75 571 2036.4L571 2021.6C571 2005.25 557.792 1992 541.5 1992L526.75 1992Z" fill="#333333" fill-rule="evenodd"/><path d="M519.75 2066 505.25 2066C501.247 2066 498 2062.64 498 2058.5 498 2054.36 501.247 2051 505.25 2051L519.75 2051C523.753 2051 527 2054.36 527 2058.5 527 2062.64 523.753 2066 519.75 2066Z" fill="#EEEFE1" fill-rule="evenodd"/><path d="M534.5 2007 519.5 2007C515.359 2007 512 2003.64 512 1999.5 512 1995.36 515.359 1992 519.5 1992L534.5 1992C538.641 1992 542 1995.36 542 1999.5 542 2003.64 538.641 2007 534.5 2007Z" fill="#EEEFE1" fill-rule="evenodd"/><path d="M482.75 1992 482.75 2006.8 497.5 2006.8C505.647 2006.8 512.25 2013.43 512.25 2021.6L512.25 2036.4C512.25 2044.57 505.647 2051.2 497.5 2051.2L468 2051.2 468 2066 497.5 2066C513.792 2066 527 2052.75 527 2036.4L527 2021.6C527 2005.25 513.792 1992 497.5 1992L482.75 1992Z" fill="#494D4E" fill-rule="evenodd"/><path d="M475.5 2066 460.5 2066C456.359 2066 453 2062.64 453 2058.5 453 2054.36 456.359 2051 460.5 2051L475.5 2051C479.641 2051 483 2054.36 483 2058.5 483 2062.64 479.641 2066 475.5 2066Z" fill="#EEEFE1" fill-rule="evenodd"/><path d="M549.583 2007 475.417 2007C471.321 2007 468 2003.64 468 1999.5 468 1995.36 471.321 1992 475.417 1992L549.583 1992C553.678 1992 557 1995.36 557 1999.5 557 2003.64 553.678 2007 549.583 2007Z" fill="#333333" fill-rule="evenodd"/><path d="M541.615 2066 460.385 2066C456.307 2066 453 2062.64 453 2058.5 453 2054.36 456.307 2051 460.385 2051L541.615 2051C545.693 2051 549 2054.36 549 2058.5 549 2062.64 545.693 2066 541.615 2066Z" fill="#333333" fill-rule="evenodd"/><path d="M578.5 1933C582.641 1933 586 1936.3 586 1940.37L586 2043.63C586 2047.7 582.641 2051 578.5 2051 574.359 2051 571 2047.7 571 2043.63L571 1940.37C571 1936.3 574.359 1933 578.5 1933Z" fill="#BD0000" fill-rule="evenodd"/><path d="M652.5 1933C656.641 1933 660 1936.3 660 1940.37L660 2043.63C660 2047.7 656.641 2051 652.5 2051 648.359 2051 645 2047.7 645 2043.63L645 1940.37C645 1936.3 648.359 1933 652.5 1933Z" fill="#BD0000" fill-rule="evenodd"/><path d="M512 1829C512 1861.59 485.585 1888 453 1888 420.415 1888 394 1861.59 394 1829 394 1796.41 420.415 1770 453 1770 485.585 1770 512 1796.41 512 1829Z" fill="#990000" fill-rule="evenodd"/><path d="M512 1829 453 1829 453 1888C485.585 1888 512 1861.59 512 1829Z" fill="#494D4E" fill-rule="evenodd"/><path d="M453 1829 512 1829C512.019 1813.62 505.801 1798.86 494.719 1788Z" fill="#333333" fill-rule="evenodd"/><path d="M542 1770C550.285 1770 557 1776.72 557 1785 557 1793.28 550.285 1800 542 1800 533.715 1800 527 1793.28 527 1785 527 1776.72 533.715 1770 542 1770Z" fill="#990000" fill-rule="evenodd"/><path d="M542 1815C550.285 1815 557 1821.49 557 1829.5 557 1837.51 550.285 1844 542 1844 533.715 1844 527 1837.51 527 1829.5 527 1821.49 533.715 1815 542 1815Z" fill="#494D4E" fill-rule="evenodd"/><path d="M542 1859C550.285 1859 557 1865.49 557 1873.5 557 1881.51 550.285 1888 542 1888 533.715 1888 527 1881.51 527 1873.5 527 1865.49 533.715 1859 542 1859Z" fill="#333333" fill-rule="evenodd"/><path d="M578.375 1770 622.625 1770C626.697 1770 630 1773.36 630 1777.5 630 1781.64 626.697 1785 622.625 1785L578.375 1785C574.303 1785 571 1781.64 571 1777.5 571 1773.36 574.303 1770 578.375 1770Z" fill="#EBEBEB" fill-rule="evenodd"/><path d="M578.375 1815 622.625 1815C626.697 1815 630 1818.14 630 1822 630 1825.87 626.697 1829 622.625 1829L578.375 1829C574.303 1829 571 1825.87 571 1822 571 1818.14 574.303 1815 578.375 1815Z" fill="#EBEBEB" fill-rule="evenodd"/><path d="M578.375 1859 622.625 1859C626.697 1859 630 1862.36 630 1866.5 630 1870.64 626.697 1874 622.625 1874L578.375 1874C574.303 1874 571 1870.64 571 1866.5 571 1862.36 574.303 1859 578.375 1859Z" fill="#EBEBEB" fill-rule="evenodd"/><path d="M557 1792.5C557 1796.64 553.641 1800 549.5 1800 545.359 1800 542 1796.64 542 1792.5 542 1788.36 545.359 1785 549.5 1785 553.641 1785 557 1788.36 557 1792.5Z" fill="#E60000" fill-rule="evenodd"/><path d="M557 1836.5C557 1840.64 553.641 1844 549.5 1844 545.359 1844 542 1840.64 542 1836.5 542 1832.36 545.359 1829 549.5 1829 553.641 1829 557 1832.36 557 1836.5Z" fill="#333333" fill-rule="evenodd"/><path d="M557 1881C557 1884.86 553.641 1888 549.5 1888 545.359 1888 542 1884.86 542 1881 542 1877.14 545.359 1874 549.5 1874 553.641 1874 557 1877.14 557 1881Z" fill="#666666" fill-rule="evenodd"/><path d="M453.579 1785C428.959 1785 409 1804.95 409 1829.55L409 1829.99 409.002 1830.05 409.002 1830.2 409.005 1830.27 409.005 1830.35 409.007 1830.41 409.007 1830.48 409.009 1830.5 409.009 1830.56 409.011 1830.62 409.011 1830.64 409.013 1830.69 409.013 1830.71 409.015 1830.77 409.015 1830.83 409.017 1830.85 409.017 1830.92 409.02 1830.98 409.02 1831 409.022 1831.06 409.022 1831.06 409.024 1831.13 409.026 1831.14 409.029 1831.2 409.029 1831.21 409.031 1831.27 409.031 1831.29 409.033 1831.34 409.035 1831.35 409.037 1831.41 409.037 1831.42 409.039 1831.48 409.039 1831.5 409.042 1831.55 409.044 1831.56 409.046 1831.62 409.046 1831.64 409.048 1831.69 409.048 1831.71 409.053 1831.77 409.053 1831.78 409.055 1831.83 409.057 1831.85 409.059 1831.92 409.059 1831.92 409.063 1831.98 409.063 1831.99 409.068 1832.06 409.068 1832.06 409.07 1832.12 409.072 1832.14 409.075 1832.19 409.075 1832.2 409.079 1832.27 409.081 1832.28 409.083 1832.33 409.083 1832.35 409.088 1832.41 409.092 1832.48 409.092 1832.49 409.097 1832.55 409.097 1832.55 409.101 1832.62 409.103 1832.63 409.105 1832.69 409.107 1832.7 409.112 1832.77 409.112 1832.77 409.116 1832.83 409.116 1832.84 409.127 1832.97 409.127 1832.99 409.131 1833.04 409.131 1833.05 409.138 1833.12 409.138 1833.13 409.143 1833.18 409.145 1833.2 409.149 1833.26 409.151 1833.27 409.155 1833.32 409.155 1833.34 409.167 1833.47 409.169 1833.48 409.173 1833.54 409.173 1833.54 409.18 1833.61 409.18 1833.62 409.186 1833.68 409.186 1833.69 409.193 1833.75 409.193 1833.76 409.199 1833.82 409.201 1833.83 409.213 1833.96 409.215 1833.97 409.219 1834.03 409.222 1834.04 409.228 1834.1 409.228 1834.11 409.234 1834.17 409.234 1834.18 409.247 1834.31 409.25 1834.32C409.254 1834.36 409.259 1834.41 409.263 1834.45L409.265 1834.46 409.271 1834.52 409.271 1834.53 409.278 1834.59 409.28 1834.6 409.287 1834.66 409.289 1834.67 409.302 1834.8 409.305 1834.81 409.32 1834.94 409.322 1834.95 409.329 1835.01 409.329 1835.02 409.338 1835.08 409.338 1835.09 409.346 1835.15 409.346 1835.16 409.363 1835.29 409.366 1835.3 409.384 1835.43 409.384 1835.44 409.392 1835.5 409.392 1835.5 409.412 1835.64 409.412 1835.64 409.43 1835.77 409.432 1835.78 409.452 1835.92 409.452 1835.92 409.46 1835.99C409.467 1836.03 409.473 1836.08 409.479 1836.12L409.479 1836.13 409.5 1836.26 409.502 1836.27 409.522 1836.4 409.522 1836.41 409.532 1836.47 409.554 1836.61 409.554 1836.61 409.576 1836.74 409.576 1836.75C409.583 1836.8 409.592 1836.84 409.598 1836.89L409.598 1836.89C409.618 1837 409.638 1837.11 409.657 1837.23L409.657 1837.23C409.668 1837.3 409.681 1837.37 409.692 1837.43 409.701 1837.48 409.71 1837.52 409.716 1837.57L409.718 1837.57C409.727 1837.62 409.734 1837.66 409.743 1837.71L409.743 1837.71C409.764 1837.82 409.784 1837.94 409.806 1838.05L409.808 1838.05C409.839 1838.21 409.87 1838.37 409.902 1838.53L409.902 1838.53C412.562 1851.4 420.764 1862.45 432.326 1868.72L432.328 1868.72C432.365 1868.74 432.404 1868.77 432.444 1868.79L432.448 1868.79C432.486 1868.81 432.525 1868.83 432.562 1868.85L432.566 1868.85C432.606 1868.87 432.643 1868.89 432.682 1868.91L432.685 1868.92 432.74 1868.94 432.744 1868.95C432.783 1868.97 432.82 1868.99 432.86 1869.01L432.865 1869.01 432.981 1869.07 432.985 1869.07 433.037 1869.1 433.042 1869.1 433.099 1869.13 433.105 1869.14 433.156 1869.16 433.165 1869.17 433.182 1869.18C436.829 1871.05 441.311 1869.62 443.19 1865.97 445.067 1862.33 443.633 1857.85 439.986 1855.97 425.387 1848.47 419.639 1830.56 427.15 1815.97 432.242 1806.07 442.441 1799.85 453.575 1799.85 457.679 1799.84 461.004 1796.52 461 1792.42 461.002 1788.32 457.679 1785 453.579 1785Z" fill="#E60000" fill-rule="evenodd"/><path d="M503.572 1833C500.079 1833 497.063 1835.42 496.326 1838.81 492.317 1857.4 476.703 1871.33 457.628 1873.33 453.554 1873.77 450.605 1877.39 451.043 1881.43 451.447 1885.16 454.623 1887.99 458.412 1888 458.67 1888 458.926 1887.99 459.182 1887.96 474.109 1886.37 487.873 1879.23 497.686 1867.97L497.689 1867.96C497.768 1867.88 497.844 1867.79 497.921 1867.7L497.923 1867.7C497.999 1867.61 498.076 1867.52 498.152 1867.43L498.152 1867.43C498.2 1867.37 498.249 1867.32 498.295 1867.26L498.38 1867.16 498.382 1867.16C498.458 1867.07 498.533 1866.98 498.607 1866.89L498.612 1866.88C498.763 1866.7 498.912 1866.52 499.058 1866.34L499.06 1866.34 499.115 1866.27C499.189 1866.18 499.264 1866.09 499.336 1866L499.338 1865.99 499.419 1865.89 499.421 1865.89 499.502 1865.79 499.508 1865.78 499.557 1865.72 499.561 1865.72 499.64 1865.61 499.642 1865.61 499.723 1865.51 499.727 1865.5 499.78 1865.43 499.856 1865.34 499.863 1865.33 499.911 1865.27 499.915 1865.26 499.94 1865.23 499.948 1865.22 499.99 1865.17 499.998 1865.15C500.022 1865.12 500.046 1865.09 500.073 1865.06L500.082 1865.04 500.123 1864.99 500.132 1864.98 500.156 1864.95 500.162 1864.94 500.204 1864.88 500.215 1864.87 500.263 1864.81 500.287 1864.78 500.296 1864.76 500.338 1864.71 500.346 1864.7 500.368 1864.67 500.384 1864.65 500.416 1864.6 500.432 1864.59 500.466 1864.54 500.478 1864.52 500.499 1864.49 500.512 1864.48 500.548 1864.43 500.56 1864.41 500.58 1864.38 500.598 1864.36 500.628 1864.32 500.642 1864.3 500.676 1864.26 500.69 1864.24 500.712 1864.21 500.725 1864.19 500.758 1864.15 500.773 1864.12 500.79 1864.1 500.838 1864.04 500.856 1864.01 500.88 1863.98 500.902 1863.95 500.922 1863.92 500.968 1863.86 500.983 1863.84 501.002 1863.81 501.031 1863.77 501.066 1863.73 501.09 1863.69 501.112 1863.66 501.129 1863.64 501.149 1863.61 501.175 1863.57 501.193 1863.55 501.21 1863.53 501.239 1863.49 501.256 1863.46 501.274 1863.44 501.298 1863.4 501.32 1863.37 501.337 1863.35 501.359 1863.32 501.383 1863.28 501.4 1863.26 501.416 1863.24 501.446 1863.19 501.462 1863.17 501.482 1863.15 501.506 1863.11 501.525 1863.08 501.543 1863.06 501.562 1863.03 501.588 1862.99 501.606 1862.97 501.621 1862.95 501.65 1862.91 501.667 1862.88 501.685 1862.85 501.709 1862.82 501.731 1862.79 501.746 1862.77 501.774 1862.73 501.79 1862.7 501.81 1862.67 501.825 1862.65 501.853 1862.61 501.868 1862.59 501.892 1862.56 501.908 1862.53 501.934 1862.49 501.947 1862.48 501.978 1862.43 501.989 1862.41 502.015 1862.38 502.024 1862.36 502.057 1862.31 502.068 1862.3 502.1 1862.25 502.136 1862.2 502.146 1862.18 502.179 1862.13 502.186 1862.12 502.216 1862.08 502.223 1862.07 502.256 1862.02 502.267 1862 502.295 1861.96 502.306 1861.94 502.334 1861.9 502.343 1861.89 502.376 1861.84 502.415 1861.78 502.42 1861.77 502.455 1861.72 502.464 1861.71 502.496 1861.66 502.531 1861.61 502.542 1861.59 502.573 1861.54 502.582 1861.53 502.61 1861.49 502.617 1861.48 502.65 1861.43 502.658 1861.41 502.691 1861.36 502.695 1861.35 502.728 1861.3 502.735 1861.3 502.768 1861.24 502.774 1861.23 502.809 1861.18 502.809 1861.18 502.853 1861.11 502.886 1861.06 502.921 1861.01 502.929 1860.99 502.962 1860.94 502.969 1860.93 503.002 1860.88 503.004 1860.88 503.036 1860.83 503.045 1860.81 503.078 1860.76 503.082 1860.75 503.113 1860.7 503.12 1860.7 503.152 1860.64 503.159 1860.63 503.227 1860.52 503.236 1860.51 503.268 1860.46 503.273 1860.45 503.303 1860.4 503.31 1860.39 503.343 1860.34 503.347 1860.33 503.417 1860.22 503.424 1860.21 503.456 1860.16 503.461 1860.15 503.494 1860.09 503.496 1860.09 503.531 1860.04 503.538 1860.03C503.559 1859.99 503.583 1859.95 503.608 1859.91L503.61 1859.91 503.644 1859.85 503.647 1859.85 503.681 1859.79 503.681 1859.79 503.719 1859.73 503.721 1859.72 503.791 1859.61 503.796 1859.6 503.828 1859.55 503.833 1859.54 503.866 1859.48 503.868 1859.48 503.903 1859.42 503.905 1859.42C503.929 1859.38 503.951 1859.34 503.975 1859.3L503.977 1859.3 504.012 1859.24 504.014 1859.23 504.049 1859.18 504.049 1859.18 504.084 1859.12 504.086 1859.11C504.11 1859.07 504.134 1859.03 504.156 1858.99L504.159 1858.99 504.194 1858.93 504.194 1858.93 504.265 1858.81 504.265 1858.8C507.328 1853.54 509.546 1847.84 510.834 1841.9 511.693 1837.93 509.139 1834.01 505.129 1833.16 504.618 1833.05 504.095 1833 503.572 1833Z" fill="#333333" fill-rule="evenodd"/><path d="M494.553 1791C490.379 1791 486.996 1794.36 487 1798.5 487.002 1800.1 487.522 1801.66 488.485 1802.95 493.003 1809 495.913 1816.07 496.95 1823.52 497.46 1827.23 500.654 1830 504.43 1830 504.777 1830 505.12 1829.98 505.464 1829.93 509.598 1829.37 512.493 1825.6 511.93 1821.5L511.93 1821.49 511.923 1821.44 511.921 1821.42 511.916 1821.39 511.912 1821.36 511.908 1821.33 511.905 1821.31 511.901 1821.27 511.894 1821.23 511.885 1821.18 511.883 1821.15 511.878 1821.12 511.876 1821.1 511.858 1820.99 511.856 1820.97 511.852 1820.94 511.849 1820.91 511.845 1820.88 511.84 1820.87 511.829 1820.79 511.825 1820.75 511.822 1820.73 511.816 1820.7 511.813 1820.69 511.796 1820.57 511.793 1820.55 511.787 1820.51 511.787 1820.5 511.78 1820.46 511.778 1820.46 511.758 1820.33 511.758 1820.32 511.751 1820.28 511.749 1820.27C511.74 1820.21 511.731 1820.15 511.72 1820.09L511.72 1820.09C510.499 1812.56 507.826 1805.33 503.852 1798.8L503.852 1798.8C503.814 1798.73 503.775 1798.67 503.736 1798.61L503.732 1798.6C503.707 1798.56 503.685 1798.53 503.663 1798.49L503.643 1798.45 503.636 1798.44C503.607 1798.4 503.578 1798.35 503.549 1798.3L503.54 1798.29 503.522 1798.26 503.516 1798.25 503.495 1798.22 503.493 1798.21 503.453 1798.15 503.446 1798.14 503.429 1798.11 503.402 1798.07 503.393 1798.05C503.373 1798.02 503.355 1797.99 503.335 1797.96L503.324 1797.94 503.308 1797.92 503.297 1797.9 503.279 1797.88 503.271 1797.86 503.244 1797.82 503.228 1797.79 503.215 1797.77 503.202 1797.75 503.17 1797.7 503.159 1797.69 503.133 1797.64 503.126 1797.63 503.103 1797.6 503.094 1797.58 503.074 1797.55 503.065 1797.54 503.043 1797.5 503.037 1797.49 503.01 1797.45 503.001 1797.44 502.979 1797.4 502.972 1797.39 502.947 1797.35 502.943 1797.35 502.883 1797.26 502.878 1797.25 502.854 1797.21 502.847 1797.2 502.82 1797.16 502.818 1797.15 502.758 1797.06 502.751 1797.05 502.727 1797.01 502.722 1797.01C502.691 1796.96 502.66 1796.91 502.629 1796.86L502.627 1796.86C501.989 1795.9 501.325 1794.95 500.634 1794.03 499.208 1792.12 496.952 1791 494.553 1791Z" fill="#494D4E" fill-rule="evenodd"/></g></svg>