<svg width="95" height="95" xmlns="http://www.w3.org/2000/svg" xmlns:xlink="http://www.w3.org/1999/xlink" xml:space="preserve" overflow="hidden"><defs><clipPath id="clip0"><rect x="109" y="245" width="95" height="95"/></clipPath></defs><g clip-path="url(#clip0)" transform="translate(-109 -245)"><path d="M134.333 257.667C134.333 264.653 128.653 270.333 121.667 270.333 114.68 270.333 109 264.653 109 257.667 109 250.68 114.68 245 121.667 245 128.653 245 134.333 250.68 134.333 257.667Z" fill="#E60000"/><path d="M202.456 325.71C202.456 332.697 196.776 338.377 189.79 338.377 182.803 338.377 177.123 332.697 177.123 325.71 177.123 318.724 182.803 313.044 189.79 313.044 196.796 313.044 202.456 318.724 202.456 325.71Z" fill="#F4F4F4"/><path d="M124.912 260.536C125.882 259.468 126.377 257.983 126.041 256.36 125.645 254.52 124.101 253.035 122.241 252.719 119.252 252.204 116.659 254.5 116.659 257.39 116.659 258.597 117.134 259.705 117.886 260.556 116.343 260.556 115.076 261.823 115.076 263.367L115.076 268.473C116.996 269.66 119.252 270.333 121.667 270.333 123.864 270.333 125.942 269.779 127.743 268.79L127.743 263.347C127.743 261.803 126.476 260.536 124.912 260.536Z" fill="#990000"/><path d="M204 257.667C204 264.653 198.32 270.333 191.333 270.333 184.347 270.333 178.667 264.653 178.667 257.667 178.667 250.68 184.347 245 191.333 245 198.32 245 204 250.68 204 257.667Z" fill="#666666"/><path d="M134.333 327.333C134.333 334.32 128.653 340 121.667 340 114.68 340 109 334.32 109 327.333 109 320.347 114.68 314.667 121.667 314.667 128.653 314.667 134.333 320.347 134.333 327.333Z" fill="#4A4D4E"/><path d="M180.25 296.458 180.25 288.542 175.084 286.84C174.728 285.632 174.233 284.484 173.659 283.396L175.856 278.784C174.312 276.607 172.413 274.707 170.235 273.164L165.624 275.36C164.535 274.786 163.387 274.292 162.18 273.935L160.458 268.75 152.542 268.75 150.84 273.916 147.396 275.341 142.784 273.144C140.607 274.688 138.707 276.587 137.164 278.765L139.36 283.376 137.935 286.82 132.75 288.542 132.75 296.458 137.916 298.16 139.341 301.604 137.144 306.216C138.688 308.393 140.587 310.293 142.765 311.836L147.376 309.64 150.82 311.065 152.542 316.25 160.458 316.25 162.16 311.084C163.368 310.728 164.516 310.233 165.604 309.659L170.216 311.856C172.393 310.312 174.293 308.413 175.836 306.235L173.64 301.624C174.214 300.535 174.708 299.388 175.065 298.18L180.25 296.458Z" fill="#E60000"/><path d="M169.167 292.5C169.167 299.486 163.486 305.167 156.5 305.167 149.514 305.167 143.833 299.486 143.833 292.5 143.833 285.514 149.514 279.833 156.5 279.833 163.486 279.833 169.167 285.514 169.167 292.5Z" fill="#BD0000"/><path d="M154.917 284.583 158.083 284.583 158.083 294.083 154.917 294.083 154.917 284.583Z" fill="#FFFFFF"/><path d="M154.917 297.25 158.083 297.25 158.083 300.417 154.917 300.417 154.917 297.25Z" fill="#FFFFFF"/><path d="M191.333 256.083C190.462 256.083 189.75 255.371 189.75 254.5 189.75 253.629 190.462 252.917 191.333 252.917L194.5 252.917 194.5 249.75 191.333 249.75C188.721 249.75 186.583 251.887 186.583 254.5 186.583 257.112 188.721 259.25 191.333 259.25 192.204 259.25 192.917 259.962 192.917 260.833 192.917 261.704 192.204 262.417 191.333 262.417L188.167 262.417 188.167 265.583 191.333 265.583C193.946 265.583 196.083 263.446 196.083 260.833 196.083 258.221 193.946 256.083 191.333 256.083Z" fill="#FFFFFF"/><path d="M115.333 328.917 118.5 328.917 118.5 333.667 115.333 333.667 115.333 328.917Z" fill="#FFFFFF"/><path d="M120.083 324.167 123.25 324.167 123.25 333.667 120.083 333.667 120.083 324.167Z" fill="#FFFFFF"/><path d="M124.833 321 128 321 128 333.667 124.833 333.667 124.833 321Z" fill="#FFFFFF"/><path d="M189.75 311.5C181.893 311.5 175.5 317.893 175.5 325.75 175.5 333.607 181.893 340 189.75 340 197.607 340 204 333.607 204 325.75 204 317.893 197.607 311.5 189.75 311.5ZM200.715 327.333C200.022 332.182 196.182 336.002 191.333 336.715L191.333 333.667 188.167 333.667 188.167 336.715C183.318 336.022 179.498 332.182 178.785 327.333L181.833 327.333 181.833 324.167 178.785 324.167C179.478 319.318 183.318 315.498 188.167 314.785L188.167 317.833 191.333 317.833 191.333 314.785C196.182 315.478 200.002 319.318 200.715 324.167L197.667 324.167 197.667 327.333 200.715 327.333Z" fill="#BD0000"/><path d="M194.955 318.289 190.542 322.702C190.284 322.623 190.007 322.583 189.73 322.583 189.453 322.583 189.176 322.623 188.919 322.702L186.089 319.872 183.852 322.108 186.682 324.939C186.603 325.196 186.564 325.473 186.564 325.75 186.564 327.492 187.989 328.917 189.73 328.917 191.472 328.917 192.897 327.492 192.897 325.75 192.897 325.473 192.857 325.196 192.778 324.939L197.192 320.525 194.955 318.289Z" fill="#E60000"/><path d="M186.247 290.917 185 290.917 185 294.083 186.247 294.083C191.67 294.083 196.083 298.497 196.083 303.92L196.083 304.494 194.045 302.455 191.808 304.692 196.558 309.442C196.875 309.758 197.271 309.897 197.686 309.897 198.102 309.897 198.498 309.739 198.815 309.442L203.565 304.692 201.328 302.455 199.25 304.514 199.25 303.94C199.25 296.755 193.411 290.917 186.247 290.917Z" fill="#999999"/><path d="M158.083 322.247 158.083 321 154.917 321 154.917 322.247C154.917 327.67 150.503 332.083 145.08 332.083L144.506 332.083 146.545 330.045 144.308 327.808 139.558 332.558C138.945 333.172 138.945 334.181 139.558 334.795L144.308 339.545 146.545 337.308 144.486 335.25 145.06 335.25C152.245 335.25 158.083 329.411 158.083 322.247Z" fill="#666666"/><path d="M126.753 294.083 128 294.083 128 290.917 126.753 290.917C121.33 290.917 116.917 286.503 116.917 281.08L116.917 280.506 118.955 282.545 121.192 280.308 116.442 275.558C115.828 274.945 114.819 274.945 114.205 275.558L109.455 280.308 111.692 282.545 113.75 280.486 113.75 281.06C113.75 288.245 119.589 294.083 126.753 294.083Z" fill="#999999"/><path d="M154.917 264 158.083 264 158.083 262.753C158.083 257.33 162.497 252.917 167.92 252.917L168.494 252.917 166.455 254.955 168.692 257.192 173.442 252.442C174.055 251.828 174.055 250.819 173.442 250.205L168.692 245.455 166.455 247.692 168.514 249.75 167.94 249.75C160.755 249.75 154.917 255.589 154.917 262.753L154.917 264Z" fill="#666666"/><path d="M58.3135 299.269 64.1125 293.47 72.326 301.683 66.5271 307.482 58.3135 299.269Z" fill="#ECDAEC"/><path d="M72.3458 301.703 64.1323 293.49 61.1042 296.518 63.8354 302.811 69.3177 304.731 72.3458 304.731 72.3458 301.703Z" fill="#999999"/><path d="M61.0844 296.518 58.3333 299.269 66.5469 307.482 69.2979 307.482 69.2979 304.731 61.0844 296.518Z" fill="#666666"/><path d="M-13.451 325.433 54.0385 325.433C55.7406 325.433 57.1062 324.266 57.1062 320.584L57.1062 248.661 38.126 226-13.451 226C-15.1531 226-16.5188 227.366-16.5188 229.068L-16.5188 320.604C-16.499 324.266-15.1333 325.433-13.451 325.433Z" fill="#EBEBEB"/><path d="M38.126 241.932C38.126 243.634 39.4917 245 41.1937 245" fill="#E2CBE2"/><path d="M46.2406 257.251 12.0208 257.251C11.1698 257.251 10.4969 256.558 10.4969 255.727 10.4969 254.896 11.1896 254.203 12.0208 254.203L46.2406 254.203C47.0917 254.203 47.7646 254.896 47.7646 255.727 47.7646 256.558 47.0917 257.251 46.2406 257.251Z" fill="#999999"/><path d="M31.6937 264.712 12.0406 264.712C11.1896 264.712 10.5167 264.02 10.5167 263.189 10.5167 262.357 11.2094 261.665 12.0406 261.665L31.6937 261.665C32.5448 261.665 33.2177 262.357 33.2177 263.189 33.2177 264.02 32.5448 264.712 31.6937 264.712Z" fill="#999999"/><path d="M24.3708 278.725 12.0208 278.725C11.1698 278.725 10.4969 278.032 10.4969 277.201 10.4969 276.37 11.1896 275.677 12.0208 275.677L24.3708 275.677C25.2219 275.677 25.8948 276.37 25.8948 277.201 25.8948 278.032 25.2219 278.725 24.3708 278.725Z" fill="#999999"/><path d="M24.4896 286.206 12.0406 286.206C11.1896 286.206 10.5167 285.514 10.5167 284.682 10.5167 283.851 11.2094 283.158 12.0406 283.158L24.4896 283.158C25.3406 283.158 26.0135 283.851 26.0135 284.682 26.0135 285.514 25.3406 286.206 24.4896 286.206Z" fill="#999999"/><path d="M31.2583 300.654 12.0406 300.654C11.1896 300.654 10.5167 299.961 10.5167 299.13 10.5167 298.299 11.2094 297.606 12.0406 297.606L31.2583 297.606C32.1094 297.606 32.7823 298.299 32.7823 299.13 32.7823 299.961 32.1094 300.654 31.2583 300.654L31.2583 300.654Z" fill="#999999"/><path d="M46.0031 308.116 12.0406 308.116C11.1896 308.116 10.5167 307.423 10.5167 306.592 10.5167 305.76 11.2094 305.068 12.0406 305.068L46.0031 305.068C46.8542 305.068 47.5271 305.76 47.5271 306.592 47.5271 307.423 46.8344 308.116 46.0031 308.116Z" fill="#999999"/><path d="M28.0125 297.586C37.9479 307.522 54.0385 307.522 63.974 297.586 68.4667 293.094 71.3562 286.444 71.3562 279.299 70.9406 273.421 68.4667 267.661 63.974 263.149 54.0385 253.214 37.9479 253.214 28.0125 263.149 23.5198 267.642 21.0458 273.401 20.6302 279.299 20.6302 286.186 23.5198 293.094 28.0125 297.586L28.0125 297.586Z" fill="#E60000"/><path d="M27.676 279.319C27.676 284.682 29.8531 289.452 32.9802 292.579 40.1646 299.764 51.8219 299.764 59.026 292.579 62.1531 289.452 64.3302 284.286 64.3302 279.319 63.9146 275.242 62.1531 271.264 59.026 268.136 51.8417 260.952 40.1844 260.952 32.9802 268.136 29.8531 271.264 28.0917 275.222 27.676 279.319Z" fill="#990000"/><path d="M37.4729 279.556C37.5917 279.715 37.8688 281.812 37.8688 281.812L42.1042 285.929C42.7375 286.543 43.549 286.84 44.3406 286.84 45.1719 286.84 46.0229 286.523 46.6365 285.87L54.6521 277.656C54.6521 277.656 54.8896 275.598 54.9885 275.459 54.8698 275.301 54.751 275.143 54.5927 275.004 53.326 273.757 51.2875 273.797 50.0406 275.064L44.2615 280.981 42.3417 279.121C41.075 277.874 39.0365 277.914 37.7896 279.18 37.6906 279.279 37.5719 279.418 37.4729 279.556L37.4729 279.556Z" fill="#FFFFFF"/><path d="M84.3 316.685C85.2896 314.568 84.9135 311.975 83.1521 310.233L74.2063 301.288C73.8104 300.892 73.1573 300.892 72.7615 301.288L68.1698 305.879 67.4969 308.551 75.8688 317.22C77.6104 318.961 81.7667 319.337 84.3 316.685L84.3 316.685Z" fill="#666666"/><path d="M77.8281 315.538 68.1698 305.879 66.1312 307.918C65.7354 308.314 65.7354 308.967 66.1312 309.362L75.0771 318.308C77.3135 320.545 80.9156 320.545 83.1521 318.308 83.6469 317.814 84.0229 317.279 84.3 316.685 82.1823 317.675 79.5698 317.299 77.8281 315.538L77.8281 315.538Z" fill="#4A4D4E"/><path d="M-4.12917 262.793 2.5802 262.793C3.62916 262.793 4.48021 261.308 4.48021 259.111L4.48021 256.103C4.48021 255.054 3.62916 254.203 2.5802 254.203L-4.12917 254.203C-5.17813 254.203-6.02917 255.054-6.02917 256.103L-6.02917 259.131C-6.02917 261.407-5.17813 262.793-4.12917 262.793Z" fill="#E60000"/><path d="M38.126 241.932 38.126 245.594C38.126 247.296 39.4917 248.661 41.1937 248.661L57.126 248.661 57.126 244.98 38.126 241.932Z" fill="#FFFFFF"/><path d="M41.1937 244.98 57.126 244.98 38.126 226 38.126 241.932C38.126 243.615 39.5115 244.98 41.1937 244.98Z" fill="#CCCCCC"/><path d="M54.6719 275.855 46.6562 284.069C46.0229 284.722 45.1917 285.039 44.3604 285.039 43.549 285.039 42.7375 284.742 42.124 284.128L37.8885 280.011C37.7302 279.873 37.6115 279.715 37.4927 279.536 36.6021 280.803 36.7406 282.565 37.8885 283.673L42.124 287.79C42.7573 288.403 43.5687 288.7 44.3604 288.7 45.1917 288.7 46.0427 288.383 46.6562 287.73L54.6719 279.517C55.7604 278.389 55.8792 276.667 55.0083 275.42 54.9094 275.598 54.7906 275.736 54.6719 275.855L54.6719 275.855Z" fill="#EBEBEB"/><path d="M2.56042 261.011-4.14896 261.011C-5.19792 261.011-6.04896 260.16-6.04896 259.111L-6.04896 262.793C-6.04896 263.842-5.19792 264.693-4.14896 264.693L2.56042 264.693C3.60938 264.693 4.46041 263.842 4.46041 262.793L4.46041 259.131C4.46041 260.16 3.60938 261.011 2.56042 261.011Z" fill="#BD0000"/><path d="M-4.12917 284.286 2.5802 284.286C3.62916 284.286 4.48021 282.802 4.48021 280.605L4.48021 277.577C4.48021 276.528 3.62916 275.677 2.5802 275.677L-4.12917 275.677C-5.17813 275.677-6.02917 276.528-6.02917 277.577L-6.02917 280.605C-6.02917 282.881-5.17813 284.286-4.12917 284.286Z" fill="#E60000"/><path d="M2.56042 282.505-4.14896 282.505C-5.19792 282.505-6.04896 281.654-6.04896 280.605L-6.04896 284.286C-6.04896 285.335-5.19792 286.186-4.14896 286.186L2.56042 286.186C3.60938 286.186 4.46041 285.335 4.46041 284.286L4.46041 280.605C4.46041 281.654 3.60938 282.505 2.56042 282.505Z" fill="#BD0000"/><path d="M-4.12917 306.196 2.5802 306.196C3.62916 306.196 4.48021 304.711 4.48021 302.515L4.48021 299.486C4.48021 298.438 3.62916 297.586 2.5802 297.586L-4.12917 297.586C-5.17813 297.586-6.02917 298.438-6.02917 299.486L-6.02917 302.515C-6.02917 304.81-5.17813 306.196-4.12917 306.196Z" fill="#E60000"/><path d="M2.56042 304.415-4.14896 304.415C-5.19792 304.415-6.04896 303.564-6.04896 302.515L-6.04896 306.196C-6.04896 307.245-5.19792 308.096-4.14896 308.096L2.56042 308.096C3.60938 308.096 4.46041 307.245 4.46041 306.196L4.46041 302.515C4.46041 303.583 3.60938 304.415 2.56042 304.415Z" fill="#BD0000"/><path d="M54.0583 323.652-13.4313 323.652C-15.1333 323.652-16.499 322.286-16.499 320.584L-16.499 324.266C-16.499 325.968-15.1333 327.333-13.4313 327.333L54.0583 327.333C55.7604 327.333 57.126 325.968 57.126 324.266L57.126 320.584C57.126 322.286 55.7406 323.652 54.0583 323.652Z" fill="#CCCCCC"/><path d="M63.974 295.449C54.0385 305.384 37.9479 305.384 28.0125 295.449 23.5198 290.956 21.0458 285.197 20.6302 279.299 20.1156 286.404 22.5698 293.688 28.0125 299.13 37.9479 309.066 54.0385 309.066 63.974 299.13 69.4167 293.688 71.8708 286.424 71.3562 279.299 70.9406 285.197 68.4865 290.956 63.974 295.449Z" fill="#BD0000"/><path d="M59.026 290.501C51.8417 297.685 40.1844 297.685 32.9802 290.501 29.8531 287.374 28.0917 283.396 27.676 279.319 27.1417 284.623 28.9031 290.105 32.9802 294.182 40.1646 301.367 51.8219 301.367 59.026 294.182 63.0833 290.125 64.8646 284.623 64.3302 279.319 63.9146 283.396 62.1531 287.374 59.026 290.501L59.026 290.501Z" fill="#BD0000"/><path d="M134.333 257.667C134.333 264.653 128.653 270.333 121.667 270.333 114.68 270.333 109 264.653 109 257.667 109 250.68 114.68 245 121.667 245 128.653 245 134.333 250.68 134.333 257.667Z" fill="#E60000"/><path d="M202.456 325.71C202.456 332.697 196.776 338.377 189.79 338.377 182.803 338.377 177.123 332.697 177.123 325.71 177.123 318.724 182.803 313.044 189.79 313.044 196.796 313.044 202.456 318.724 202.456 325.71Z" fill="#F4F4F4"/><path d="M124.912 260.536C125.882 259.468 126.377 257.983 126.041 256.36 125.645 254.52 124.101 253.035 122.241 252.719 119.252 252.204 116.659 254.5 116.659 257.39 116.659 258.597 117.134 259.705 117.886 260.556 116.343 260.556 115.076 261.823 115.076 263.367L115.076 268.473C116.996 269.66 119.252 270.333 121.667 270.333 123.864 270.333 125.942 269.779 127.743 268.79L127.743 263.347C127.743 261.803 126.476 260.536 124.912 260.536Z" fill="#990000"/><path d="M204 257.667C204 264.653 198.32 270.333 191.333 270.333 184.347 270.333 178.667 264.653 178.667 257.667 178.667 250.68 184.347 245 191.333 245 198.32 245 204 250.68 204 257.667Z" fill="#666666"/><path d="M134.333 327.333C134.333 334.32 128.653 340 121.667 340 114.68 340 109 334.32 109 327.333 109 320.347 114.68 314.667 121.667 314.667 128.653 314.667 134.333 320.347 134.333 327.333Z" fill="#4A4D4E"/><path d="M180.25 296.458 180.25 288.542 175.084 286.84C174.728 285.632 174.233 284.484 173.659 283.396L175.856 278.784C174.312 276.607 172.413 274.707 170.235 273.164L165.624 275.36C164.535 274.786 163.387 274.292 162.18 273.935L160.458 268.75 152.542 268.75 150.84 273.916 147.396 275.341 142.784 273.144C140.607 274.688 138.707 276.587 137.164 278.765L139.36 283.376 137.935 286.82 132.75 288.542 132.75 296.458 137.916 298.16 139.341 301.604 137.144 306.216C138.688 308.393 140.587 310.293 142.765 311.836L147.376 309.64 150.82 311.065 152.542 316.25 160.458 316.25 162.16 311.084C163.368 310.728 164.516 310.233 165.604 309.659L170.216 311.856C172.393 310.312 174.293 308.413 175.836 306.235L173.64 301.624C174.214 300.535 174.708 299.388 175.065 298.18L180.25 296.458Z" fill="#E60000"/><path d="M169.167 292.5C169.167 299.486 163.486 305.167 156.5 305.167 149.514 305.167 143.833 299.486 143.833 292.5 143.833 285.514 149.514 279.833 156.5 279.833 163.486 279.833 169.167 285.514 169.167 292.5Z" fill="#BD0000"/><path d="M154.917 284.583 158.083 284.583 158.083 294.083 154.917 294.083 154.917 284.583Z" fill="#FFFFFF"/><path d="M154.917 297.25 158.083 297.25 158.083 300.417 154.917 300.417 154.917 297.25Z" fill="#FFFFFF"/><path d="M191.333 256.083C190.462 256.083 189.75 255.371 189.75 254.5 189.75 253.629 190.462 252.917 191.333 252.917L194.5 252.917 194.5 249.75 191.333 249.75C188.721 249.75 186.583 251.887 186.583 254.5 186.583 257.112 188.721 259.25 191.333 259.25 192.204 259.25 192.917 259.962 192.917 260.833 192.917 261.704 192.204 262.417 191.333 262.417L188.167 262.417 188.167 265.583 191.333 265.583C193.946 265.583 196.083 263.446 196.083 260.833 196.083 258.221 193.946 256.083 191.333 256.083Z" fill="#FFFFFF"/><path d="M115.333 328.917 118.5 328.917 118.5 333.667 115.333 333.667 115.333 328.917Z" fill="#FFFFFF"/><path d="M120.083 324.167 123.25 324.167 123.25 333.667 120.083 333.667 120.083 324.167Z" fill="#FFFFFF"/><path d="M124.833 321 128 321 128 333.667 124.833 333.667 124.833 321Z" fill="#FFFFFF"/><path d="M189.75 311.5C181.893 311.5 175.5 317.893 175.5 325.75 175.5 333.607 181.893 340 189.75 340 197.607 340 204 333.607 204 325.75 204 317.893 197.607 311.5 189.75 311.5ZM200.715 327.333C200.022 332.182 196.182 336.002 191.333 336.715L191.333 333.667 188.167 333.667 188.167 336.715C183.318 336.022 179.498 332.182 178.785 327.333L181.833 327.333 181.833 324.167 178.785 324.167C179.478 319.318 183.318 315.498 188.167 314.785L188.167 317.833 191.333 317.833 191.333 314.785C196.182 315.478 200.002 319.318 200.715 324.167L197.667 324.167 197.667 327.333 200.715 327.333Z" fill="#BD0000"/><path d="M194.955 318.289 190.542 322.702C190.284 322.623 190.007 322.583 189.73 322.583 189.453 322.583 189.176 322.623 188.919 322.702L186.089 319.872 183.852 322.108 186.682 324.939C186.603 325.196 186.564 325.473 186.564 325.75 186.564 327.492 187.989 328.917 189.73 328.917 191.472 328.917 192.897 327.492 192.897 325.75 192.897 325.473 192.857 325.196 192.778 324.939L197.192 320.525 194.955 318.289Z" fill="#E60000"/><path d="M186.247 290.917 185 290.917 185 294.083 186.247 294.083C191.67 294.083 196.083 298.497 196.083 303.92L196.083 304.494 194.045 302.455 191.808 304.692 196.558 309.442C196.875 309.758 197.271 309.897 197.686 309.897 198.102 309.897 198.498 309.739 198.815 309.442L203.565 304.692 201.328 302.455 199.25 304.514 199.25 303.94C199.25 296.755 193.411 290.917 186.247 290.917Z" fill="#999999"/><path d="M158.083 322.247 158.083 321 154.917 321 154.917 322.247C154.917 327.67 150.503 332.083 145.08 332.083L144.506 332.083 146.545 330.045 144.308 327.808 139.558 332.558C138.945 333.172 138.945 334.181 139.558 334.795L144.308 339.545 146.545 337.308 144.486 335.25 145.06 335.25C152.245 335.25 158.083 329.411 158.083 322.247Z" fill="#666666"/><path d="M126.753 294.083 128 294.083 128 290.917 126.753 290.917C121.33 290.917 116.917 286.503 116.917 281.08L116.917 280.506 118.955 282.545 121.192 280.308 116.442 275.558C115.828 274.945 114.819 274.945 114.205 275.558L109.455 280.308 111.692 282.545 113.75 280.486 113.75 281.06C113.75 288.245 119.589 294.083 126.753 294.083Z" fill="#999999"/><path d="M154.917 264 158.083 264 158.083 262.753C158.083 257.33 162.497 252.917 167.92 252.917L168.494 252.917 166.455 254.955 168.692 257.192 173.442 252.442C174.055 251.828 174.055 250.819 173.442 250.205L168.692 245.455 166.455 247.692 168.514 249.75 167.94 249.75C160.755 249.75 154.917 255.589 154.917 262.753L154.917 264Z" fill="#666666"/></g></svg>