<svg width="94" height="95" xmlns="http://www.w3.org/2000/svg" xmlns:xlink="http://www.w3.org/1999/xlink" xml:space="preserve" overflow="hidden"><defs><clipPath id="clip0"><rect x="1107" y="494" width="94" height="95"/></clipPath></defs><g clip-path="url(#clip0)" transform="translate(-1107 -494)"><path d="M4.97539 91.6316 2.38672 89.043 34.7359 56.6937 40.2437 58.3461 56.7121 42.0613 64.7352 43.8789 86.3992 20.3789 92.1641 20.3789 92.1641 24.0508 88.0148 24.0508 65.9836 47.918 57.8504 46.082 41.2719 62.477 35.7641 60.8246 4.97539 91.6316Z" fill="#E60000" transform="matrix(1 0 0 1.01064 1107 494)"/><path d="M4.71836 91.8336 2.60703 88.8227 33.9281 66.8648 38.6648 71.2527 59.3008 50.4516 67.3973 48.7992 87.3906 29.7422 92.1641 29.7422 92.1641 33.4141 88.8594 33.4141 69.1781 52.1773 61.1184 53.8297 38.7934 76.3566 33.616 71.5648 4.71836 91.8336Z" fill="#BD0000" transform="matrix(1 0 0 1.01064 1107 494)"/><path d="M88.4922 88.4922 88.4922 84.4531 84.8203 84.4531 84.8203 88.4922 76.375 88.4922 76.375 84.4531 72.7031 84.4531 72.7031 88.4922 64.2578 88.4922 64.2578 84.4531 60.5859 84.4531 60.5859 88.4922 52.1406 88.4922 52.1406 84.4531 48.4688 84.4531 48.4688 88.4922 40.0234 88.4922 40.0234 84.4531 36.3516 84.4531 36.3516 88.4922 27.9062 88.4922 27.9062 84.4531 24.2344 84.4531 24.2344 88.4922 5.50781 88.4922 5.50781 69.7656 9.54688 69.7656 9.54688 66.0938 5.50781 66.0938 5.50781 57.6484 9.54688 57.6484 9.54688 53.9766 5.50781 53.9766 5.50781 45.5312 9.54688 45.5312 9.54688 41.8594 5.50781 41.8594 5.50781 33.4141 9.54688 33.4141 9.54688 29.7422 5.50781 29.7422 5.50781 21.2969 9.54688 21.2969 9.54688 17.625 5.50781 17.625 5.50781 9.17969 9.54688 9.17969 9.54688 5.50781 5.50781 5.50781 5.50781 1.83594 1.83594 1.83594 1.83594 92.1641 92.1641 92.1641 92.1641 88.4922 88.4922 88.4922Z" fill="#4A4D4E" transform="matrix(1 0 0 1.01064 1107 494)"/><path d="M107.586-46.6695 146.673-46.6695 146.673-30.0359 107.586-30.0359Z" fill="#F4F4F4" transform="matrix(1 0 0 1.01064 1107 494)"/><path d="M107.586-25.0973 146.673-25.0973 146.673-8.46367 107.586-8.46367Z" fill="#EBEBEB" transform="matrix(1 0 0 1.01064 1107 494)"/><path d="M107.586-3.50664 146.673-3.50664 146.673 13.127 107.586 13.127Z" fill="#CCCCCC" transform="matrix(1 0 0 1.01064 1107 494)"/><path d="M107.586 18.084 146.673 18.084 146.673 34.7176 107.586 34.7176Z" fill="#AFAFAF" transform="matrix(1 0 0 1.01064 1107 494)"/><path d="M107.586 39.6746 146.673 39.6746 146.673 56.3082 107.586 56.3082Z" fill="#999999" transform="matrix(1 0 0 1.01064 1107 494)"/><path d="M107.586 61.2652 146.673 61.2652 146.673 77.8988 107.586 77.8988Z" fill="#666666" transform="matrix(1 0 0 1.01064 1107 494)"/><path d="M107.586 81.1852 146.673 81.1852 146.673 97.8187 107.586 97.8187Z" fill="#4A4D4E" transform="matrix(1 0 0 1.01064 1107 494)"/><path d="M170.761-46.5961 209.848-46.5961 209.848-29.9625 170.761-29.9625Z" fill="#E60000" transform="matrix(1 0 0 1.01064 1107 494)"/><path d="M170.761-25.0055 209.848-25.0055 209.848-8.37187 170.761-8.37187Z" fill="#BD0000" transform="matrix(1 0 0 1.01064 1107 494)"/><path d="M170.761-3.41484 209.848-3.41484 209.848 13.2188 170.761 13.2188Z" fill="#990000" transform="matrix(1 0 0 1.01064 1107 494)"/><path d="M170.761 18.1758 209.848 18.1758 209.848 34.8094 170.761 34.8094Z" fill="#D47600" transform="matrix(1 0 0 1.01064 1107 494)"/><path d="M170.761 39.7664 209.848 39.7664 209.848 56.4 170.761 56.4Z" fill="#FFA10B" transform="matrix(1 0 0 1.01064 1107 494)"/><path d="M107.586 101.105 146.673 101.105 146.673 117.739 107.586 117.739Z" fill="#333333" transform="matrix(1 0 0 1.01064 1107 494)"/></g></svg>