<svg width="94" height="94" xmlns="http://www.w3.org/2000/svg" xmlns:xlink="http://www.w3.org/1999/xlink" xml:space="preserve" overflow="hidden"><defs><clipPath id="clip0"><rect x="441" y="50" width="94" height="94"/></clipPath></defs><g clip-path="url(#clip0)" transform="translate(-441 -50)"><path d="M515.906 63.2188 515.906 60.2812 499.75 60.2812C498.942 60.2812 498.281 60.9422 498.281 61.75L498.281 111.688 486.531 111.688 486.531 114.625 498.281 114.625 498.281 132.25C498.281 133.058 498.942 133.719 499.75 133.719L515.906 133.719 515.906 130.781 504.156 130.781 504.156 110.219 515.906 110.219 515.906 107.281 504.156 107.281 504.156 85.25 515.906 85.25 515.906 82.3125 504.156 82.3125 504.156 63.2188 515.906 63.2188Z" fill="#666666"/><path d="M485.356 139.594 455.981 139.594C449.592 139.594 444.855 133.682 446.232 127.44 446.398 126.724 446.471 126.008 446.471 125.273L448.638 104.344C448.638 92.1715 458.496 82.3125 470.669 82.3125 482.841 82.3125 492.7 92.1715 492.7 104.344L494.866 125.273C494.866 126.008 494.94 126.724 495.105 127.44 496.482 133.682 491.745 139.594 485.356 139.594L485.356 139.594Z" fill="#E60000"/><path d="M451.575 61.493 451.575 63.2188C451.575 73.757 460.13 82.3125 470.669 82.3125 481.207 82.3125 489.763 73.757 489.763 63.2188L489.763 61.493C489.763 58.8676 486.605 57.5641 484.75 59.4184L481.721 62.4477C480.509 63.6594 478.527 63.5859 477.407 62.2824L472.89 57.0133C471.715 55.6547 469.604 55.6547 468.429 57.0133L463.913 62.2824C462.793 63.5859 460.81 63.6594 459.598 62.4477L456.587 59.4184C454.733 57.5641 451.575 58.8859 451.575 61.493Z" fill="#E60000"/><path d="M495.105 127.44C494.94 126.724 494.866 126.008 494.866 125.273L492.7 104.344C492.7 95.6047 487.596 88.0773 480.216 84.5156 484.108 88.4812 486.531 93.934 486.531 99.9375L488.698 120.867C488.698 121.602 488.771 122.318 488.936 123.034 490.332 129.276 485.577 135.188 479.188 135.188L449.812 135.188C449.023 135.188 448.27 135.096 447.536 134.93 449.28 137.703 452.364 139.594 455.981 139.594L485.356 139.594C491.745 139.594 496.482 133.682 495.105 127.44L495.105 127.44Z" fill="#BD0000"/><path d="M486.531 113.156C486.531 122.079 479.298 129.312 470.375 129.312 461.452 129.312 454.219 122.079 454.219 113.156 454.219 104.233 461.452 97 470.375 97 479.298 97 486.531 104.233 486.531 113.156Z" fill="#990000"/><path d="M488 58.8125C488 69.3508 479.445 77.9062 468.906 77.9062 461.728 77.9062 455.486 73.9406 452.236 68.1023 454.402 76.2723 461.82 82.3125 470.669 82.3125 481.207 82.3125 489.763 73.757 489.763 63.2188L489.763 61.493C489.763 60.2078 488.991 59.2531 488 58.8125Z" fill="#BD0000"/><path d="M472.266 82.4961 473.129 81.6332C476.085 78.6773 477.719 74.7484 477.719 70.5625L474.781 70.5625C474.781 73.959 473.459 77.1535 471.054 79.5586L469.641 80.9723 466.887 78.2184C464.61 75.9418 463.674 72.582 464.463 69.4609L461.618 68.7449C460.589 72.8758 461.82 77.3004 464.812 80.293L466.74 82.2207C460.553 84.4789 450.198 86.8473 446.636 81.5047L444.195 83.1387C449.849 91.6207 465.4 85.9844 469.824 84.1484 471.366 86.3699 475.277 91.2902 480.289 92.557L481.005 89.7113C476.984 88.7016 473.606 84.4238 472.266 82.4961L472.266 82.4961Z" fill="#990000"/><path d="M471.844 101.48 471.844 97 468.906 97 468.906 101.48C465.602 101.847 463.031 104.619 463.031 108.016 463.031 111.651 466.005 114.625 469.641 114.625L471.109 114.625C473.129 114.625 474.781 116.277 474.781 118.297 474.781 120.316 473.129 121.969 471.109 121.969L469.641 121.969C467.621 121.969 465.969 120.316 465.969 118.297L465.969 117.562 463.031 117.562 463.031 118.297C463.031 121.693 465.602 124.466 468.906 124.833L468.906 129.312 471.844 129.312 471.844 124.833C475.148 124.466 477.719 121.693 477.719 118.297 477.719 114.662 474.745 111.688 471.109 111.688L469.641 111.688C467.621 111.688 465.969 110.035 465.969 108.016 465.969 105.996 467.621 104.344 469.641 104.344L471.109 104.344C473.129 104.344 474.781 105.996 474.781 108.016L474.781 108.75 477.719 108.75 477.719 108.016C477.719 104.619 475.148 101.847 471.844 101.48Z" fill="#FFFFFF"/><path d="M532.062 61.75C532.062 66.617 528.117 70.5625 523.25 70.5625 518.383 70.5625 514.438 66.617 514.438 61.75 514.438 56.883 518.383 52.9375 523.25 52.9375 528.117 52.9375 532.062 56.883 532.062 61.75Z" fill="#E60000"/><path d="M530.594 123.438 515.906 123.438C515.098 123.438 514.438 124.098 514.438 124.906L514.438 139.594C514.438 140.402 515.098 141.062 515.906 141.062L530.594 141.062C531.402 141.062 532.062 140.402 532.062 139.594L532.062 124.906C532.062 124.098 531.402 123.438 530.594 123.438Z" fill="#666666"/><path d="M531.64 79.7973 527.234 75.391C526.959 75.1156 526.591 74.9688 526.188 74.9688L520.312 74.9688C519.927 74.9688 519.541 75.1156 519.266 75.391L514.86 79.7973C514.584 80.0727 514.438 80.4398 514.438 80.8438L514.438 86.7188C514.438 87.1043 514.584 87.4898 514.86 87.7652L519.266 92.1715C519.541 92.4469 519.909 92.5938 520.312 92.5938L526.188 92.5938C526.573 92.5938 526.959 92.4469 527.234 92.1715L531.64 87.7652C531.916 87.4898 532.062 87.1227 532.062 86.7188L532.062 80.8438C532.062 80.4582 531.916 80.0727 531.64 79.7973Z" fill="#AFAFAF"/><path d="M531.732 107.814 524.388 99.0012C523.838 98.3402 522.699 98.3402 522.13 99.0012L514.786 107.814C514.327 108.364 514.327 109.154 514.786 109.686L522.13 118.499C522.405 118.829 522.828 119.031 523.25 119.031 523.672 119.031 524.095 118.829 524.388 118.499L531.732 109.686C532.173 109.154 532.173 108.346 531.732 107.814L531.732 107.814Z" fill="#E60000"/><path d="M514.438 124.906 514.438 139.594C514.438 140.402 515.098 141.062 515.906 141.062L530.594 141.062C531.402 141.062 514.438 124.098 514.438 124.906Z" fill="#4A4D4E"/><path d="M522.112 99.0012 514.768 107.814C514.309 108.364 514.309 109.154 514.768 109.686L522.112 118.499C522.405 118.829 522.644 98.377 522.112 99.0012Z" fill="#990000"/><path d="M520.312 74.9688C519.927 74.9688 519.541 75.1156 519.266 75.391L514.86 79.7973C514.584 80.0727 514.438 80.4398 514.438 80.8438L514.438 86.7188C514.438 87.1043 514.584 87.4898 514.86 87.7652L519.266 92.1715C519.541 92.4469 519.909 92.5938 520.312 92.5938L526.188 92.5938C526.573 92.5938 520.312 74.9688 520.312 74.9688Z" fill="#999999"/><path d="M523.25 52.9375C518.385 52.9375 514.438 56.8848 514.438 61.75 514.438 66.6152 518.385 70.5625 523.25 70.5625 528.115 70.5625 528.115 52.9375 523.25 52.9375Z" fill="#BD0000"/><path d="M347.459 16.2922 386.546 16.2922 386.546 32.9258 347.459 32.9258Z" fill="#F4F4F4"/><path d="M347.459 37.8828 386.546 37.8828 386.546 54.5164 347.459 54.5164Z" fill="#EBEBEB"/><path d="M347.459 59.4734 386.546 59.4734 386.546 76.107 347.459 76.107Z" fill="#CCCCCC"/><path d="M347.459 81.0824 386.546 81.0824 386.546 97.716 347.459 97.716Z" fill="#AFAFAF"/><path d="M347.459 102.655 386.546 102.655 386.546 119.288 347.459 119.288Z" fill="#999999"/><path d="M347.459 124.227 386.546 124.227 386.546 140.861 347.459 140.861Z" fill="#666666"/><path d="M347.459 144.165 386.546 144.165 386.546 160.799 347.459 160.799Z" fill="#4A4D4E"/><path d="M397.782 16.3656 436.869 16.3656 436.869 32.9992 397.782 32.9992Z" fill="#E60000"/><path d="M397.782 37.9746 436.869 37.9746 436.869 54.6082 397.782 54.6082Z" fill="#BD0000"/><path d="M397.782 59.5469 436.869 59.5469 436.869 76.1805 397.782 76.1805Z" fill="#990000"/><path d="M397.782 81.1742 436.869 81.1742 436.869 97.8078 397.782 97.8078Z" fill="#D47600"/><path d="M397.782 102.746 436.869 102.746 436.869 119.38 397.782 119.38Z" fill="#FFA10B"/><path d="M347.459 164.067 386.546 164.067 386.546 180.7 347.459 180.7Z" fill="#333333"/></g></svg>