<svg width="97" height="94" xmlns="http://www.w3.org/2000/svg" xmlns:xlink="http://www.w3.org/1999/xlink" xml:space="preserve" overflow="hidden"><defs><clipPath id="clip0"><rect x="709" y="261" width="97" height="94"/></clipPath></defs><g clip-path="url(#clip0)" transform="translate(-709 -261)"><path d="M11.6768 7.93233C11.6768 4.21355 14.6914 1.19888 18.4102 1.19888 22.129 1.19888 25.1437 4.21355 25.1437 7.93233 25.1289 8.59193 25.0296 9.24688 24.8481 9.8812L46.5319 20.6547C46.6852 20.6547 46.833 20.808 46.9808 20.9558L57.3109 31.5815 65.4075 12.591C63.6546 11.3496 62.5991 9.34646 62.5663 7.19877 62.6725 3.47848 65.7743 0.548568 69.4946 0.654633 73.0656 0.756451 75.9369 3.62756 76.0387 7.19877 76.0387 11.3921 72.1464 14.6877 68.1063 13.768L59.5718 33.9793 75.5898 50.5939C75.8848 50.8603 76.0485 51.2422 76.0387 51.6395L76.0387 65.6922 81.5678 69.6008C84.352 67.0947 88.6406 67.3197 91.1468 70.1039 93.6529 72.8876 93.4279 77.1762 90.6437 79.6829 87.86 82.1891 83.5714 81.9641 81.0647 79.1798 79.955 77.947 79.3353 76.3507 79.3233 74.692 79.3074 73.7591 79.5138 72.8356 79.9255 71.9986L73.9365 67.6574C73.5478 67.3859 73.3278 66.9321 73.3562 66.4586L73.3562 52.2253 58.685 36.9573 54.634 46.4006C56.0009 47.6706 56.763 49.4619 56.7306 51.3275 56.8369 55.0478 53.9068 58.1496 50.1865 58.2558 46.4663 58.362 43.3644 55.4321 43.2583 51.7116 43.2546 51.5836 43.2546 51.4555 43.2583 51.3275 43.224 50.3934 43.4294 49.4662 43.855 48.6341L33.3935 41.9116C31.7512 43.4061 29.9501 43.7072 28.0068 43.5539L19.7952 67.0498C19.5203 67.8282 18.6664 68.2361 17.8882 67.9607 17.876 67.9569 17.8639 67.952 17.8518 67.9476 17.0812 67.6438 16.6856 66.7876 16.9541 66.0042L25.1656 42.5028C23.2812 41.2256 22.1597 39.0913 22.1766 36.815 22.1766 33.0962 25.1912 30.0815 28.91 30.0815 32.6288 30.0815 35.6435 33.0962 35.6435 36.815 35.6539 37.6841 35.5016 38.5474 35.1946 39.3605L45.2017 46.2528C46.3978 45.1905 47.9431 44.6058 49.5428 44.6104 50.2029 44.6241 50.8583 44.7254 51.4917 44.9115L55.8383 34.576 44.7528 23.2003 23.3481 12.4213C22.0805 13.7916 20.2875 14.5547 18.4212 14.518 14.8411 14.6543 11.8282 11.8626 11.6918 8.28247 11.6876 8.17128 11.6863 8.05999 11.6877 7.94875Z" fill="#E41E26" transform="matrix(1.00276 0 0 1 709.02 261)"/><path d="M96.6934 92.5164C96.7399 93.2982 96.1443 93.9693 95.3626 94.0159 95.3078 94.0192 95.2531 94.0197 95.1989 94.0164L1.4945 94.0164C0.712656 94.0602 0.0434148 93.4619-0.000298851 92.6801-0.00334337 92.6254-0.00324359 92.5706 1.04277e-08 92.5164L0 1.4945C-0.0467534 0.715864 0.546553 0.0467534 1.32519 1.04415e-08 1.38157-0.00338568 1.43811-0.00338568 1.4945 1.04415e-08 2.32077-5.49252e-06 2.99145 0.668226 2.99447 1.4945L2.99447 5.83565 7.03454 5.83565C7.81638 5.79191 8.48562 6.39031 8.52931 7.17216 8.53237 7.22657 8.53226 7.28121 8.52903 7.33562 8.52602 8.15979 7.8587 8.82711 7.03454 8.83012L2.99447 8.83012 2.99447 20.6547 7.03454 20.6547C7.81638 20.611 8.48562 21.2094 8.52931 21.9912 8.53237 22.0456 8.53226 22.1003 8.52903 22.1547 8.52602 22.9788 7.8587 23.6462 7.03454 23.6492L2.99447 23.6492 2.99447 35.4738 7.03454 35.4738C7.86143 35.5238 8.4912 36.2347 8.44117 37.0616 8.3954 37.8186 7.79164 38.4224 7.03454 38.4682L2.99447 38.4682 2.99447 50.2928 7.03454 50.2928C7.8587 50.2958 8.52602 50.9632 8.52903 51.7873 8.57562 52.569 7.97968 53.2404 7.198 53.287 7.14358 53.2902 7.089 53.2904 7.03454 53.2873L2.99447 53.2873 2.99447 64.9586 7.03454 64.9586C7.86143 65.0084 8.4912 65.7195 8.44117 66.5462 8.3954 67.3033 7.79164 67.9071 7.03454 67.9531L2.99447 67.9531 2.99447 79.7776 7.03454 79.7776C7.86083 79.7809 8.52903 80.4515 8.52903 81.2776 8.57578 82.0561 7.98247 82.7256 7.20386 82.7721 7.14747 82.7754 7.09092 82.7754 7.03454 82.7721L2.99447 82.7721 2.99447 91.1533 14.8191 91.1533 14.8191 87.1133C14.8191 86.2877 15.4882 85.6188 16.3136 85.6188 17.117 85.6719 17.7577 86.3102 17.8135 87.1133L17.8135 91.1533 29.6381 91.1533 29.6381 87.1133C29.6913 86.3107 30.3302 85.6719 31.1326 85.6188 31.9589 85.6188 32.6296 86.2872 32.6326 87.1133L32.6326 91.1533 44.4572 91.1533 44.4572 87.1133C44.4572 86.2877 45.1263 85.6188 45.9517 85.6188 46.777 85.6188 47.4462 86.2877 47.4462 87.1133L47.4462 91.1533 59.2707 91.1533 59.2707 87.1133C59.3206 86.2866 60.0317 85.6565 60.8583 85.7064 61.6154 85.7523 62.2192 86.3562 62.2652 87.1133L62.2652 91.1533 74.0898 91.1533 74.0898 87.1133C74.0931 86.2872 74.7637 85.6188 75.5898 85.6188 76.3912 85.6741 77.029 86.3118 77.0843 87.1133L77.0843 91.1533 88.761 91.1533 88.761 87.1133C88.8109 86.2866 89.522 85.6565 90.3486 85.7064 91.1057 85.7523 91.7095 86.3562 91.7555 87.1133L91.7555 91.1533 95.1989 91.1533C95.9105 91.0466 96.574 91.5365 96.6808 92.2482 96.6945 92.3369 96.6983 92.4267 96.6934 92.5164Z" fill="#333333" transform="matrix(1.00276 0 0 1 709.02 261)"/><path d="M25.2641 8.1513C25.2641 11.9033 22.2225 14.945 18.4704 14.945 14.7184 14.945 11.6768 11.9033 11.6768 8.1513 11.6768 4.39927 14.7184 1.35764 18.4704 1.35764 22.2225 1.35764 25.2641 4.39927 25.2641 8.1513Z" fill="#BC2025" transform="matrix(1.00276 0 0 1 709.02 261)"/><path d="M76.0058 7.24256C76.0058 10.9946 72.9642 14.0362 69.2122 14.0362 65.4601 14.0362 62.4185 10.9946 62.4185 7.24256 62.4185 3.49052 65.4601 0.448896 69.2122 0.448896 72.9642 0.448896 76.0058 3.49052 76.0058 7.24256Z" fill="#BC2025" transform="matrix(1.00276 0 0 1 709.02 261)"/><path d="M35.7201 36.7931C35.7201 40.5451 32.6785 43.5867 28.9264 43.5867 25.1744 43.5867 22.1328 40.5451 22.1328 36.7931 22.1328 33.041 25.1744 29.9994 28.9264 29.9994 32.6785 29.9994 35.7201 33.041 35.7201 36.7931Z" fill="#BC2025" transform="matrix(1.00276 0 0 1 709.02 261)"/><path d="M56.6978 51.3767C56.6978 55.1288 53.6562 58.1704 49.9041 58.1704 46.1521 58.1704 43.1105 55.1288 43.1105 51.3767 43.1105 47.6247 46.1521 44.5831 49.9041 44.5831 53.6562 44.5831 56.6978 47.6247 56.6978 51.3767Z" fill="#BC2025" transform="matrix(1.00276 0 0 1 709.02 261)"/><path d="M92.8011 74.6318C92.8011 78.3838 89.7595 81.4254 86.0075 81.4254 82.2554 81.4254 79.2138 78.3838 79.2138 74.6318 79.2138 70.8797 82.2554 67.8381 86.0075 67.8381 89.7595 67.8381 92.8011 70.8797 92.8011 74.6318Z" fill="#BC2025" transform="matrix(1.00276 0 0 1 709.02 261)"/></g></svg>