<svg width="324" height="325" xmlns="http://www.w3.org/2000/svg" xmlns:xlink="http://www.w3.org/1999/xlink" xml:space="preserve" overflow="hidden"><defs><clipPath id="clip0"><rect x="1320" y="936" width="324" height="325"/></clipPath></defs><g clip-path="url(#clip0)" transform="translate(-1320 -936)"><path d="M1321.42 1259.45C1319.48 1257.42 1319.53 1254.21 1321.55 1252.26L1610.41 972.427C1612.43 970.477 1615.64 970.533 1617.58 972.552 1619.52 974.575 1619.47 977.793 1617.45 979.742L1328.59 1259.57C1326.58 1261.52 1323.36 1261.47 1321.42 1259.45Z" fill="#333333" fill-rule="evenodd"/><path d="M1639 1261C1636.24 1261 1634 1258.68 1634 1255.82L1634 1233.18C1634 1230.32 1636.24 1228 1639 1228 1641.76 1228 1644 1230.32 1644 1233.18L1644 1255.82C1644 1258.68 1641.76 1261 1639 1261Z" fill="#BD0000" fill-rule="evenodd"/><path d="M1594 1233.18 1594 1255.82C1594 1258.72 1591.73 1261 1589 1261 1586.27 1261 1584 1258.72 1584 1255.82L1584 1233.18C1584 1230.35 1586.27 1228 1589 1228 1591.73 1228 1594 1230.35 1594 1233.18Z" fill="#BD0000" fill-rule="evenodd"/><path d="M1542 1233.18 1542 1255.82C1542 1258.72 1539.73 1261 1537 1261 1534.2 1261 1532 1258.72 1532 1255.82L1532 1233.18C1532 1230.35 1534.2 1228 1537 1228 1539.73 1228 1542 1230.35 1542 1233.18Z" fill="#BD0000" fill-rule="evenodd"/><path d="M1490 1233.18 1490 1255.82C1490 1258.72 1487.8 1261 1485 1261 1482.27 1261 1480 1258.72 1480 1255.82L1480 1233.18C1480 1230.35 1482.27 1228 1485 1228 1487.8 1228 1490 1230.35 1490 1233.18Z" fill="#BD0000" fill-rule="evenodd"/><path d="M1439 1233.18 1439 1255.82C1439 1258.72 1436.58 1261 1433.5 1261 1430.49 1261 1428 1258.72 1428 1255.82L1428 1233.18C1428 1230.35 1430.49 1228 1433.5 1228 1436.58 1228 1439 1230.35 1439 1233.18Z" fill="#BD0000" fill-rule="evenodd"/><path d="M1387 1233.18 1387 1255.82C1387 1258.72 1384.51 1261 1381.5 1261 1378.42 1261 1376 1258.72 1376 1255.82L1376 1233.18C1376 1230.35 1378.42 1228 1381.5 1228 1384.51 1228 1387 1230.35 1387 1233.18Z" fill="#BD0000" fill-rule="evenodd"/><path d="M1352 1198C1352 1200.73 1349.79 1203 1346.98 1203L1325.02 1203C1322.28 1203 1320 1200.73 1320 1198 1320 1195.2 1322.28 1193 1325.02 1193L1346.98 1193C1349.79 1193 1352 1195.2 1352 1198Z" fill="#BD0000" fill-rule="evenodd"/><path d="M1352 1146C1352 1148.73 1349.79 1151 1346.98 1151L1325.02 1151C1322.28 1151 1320 1148.73 1320 1146 1320 1143.2 1322.28 1141 1325.02 1141L1346.98 1141C1349.79 1141 1352 1143.2 1352 1146Z" fill="#BD0000" fill-rule="evenodd"/><path d="M1352 1094.5C1352 1097.58 1349.79 1100 1346.98 1100L1325.02 1100C1322.28 1100 1320 1097.58 1320 1094.5 1320 1091.49 1322.28 1089 1325.02 1089L1346.98 1089C1349.79 1089 1352 1091.49 1352 1094.5Z" fill="#BD0000" fill-rule="evenodd"/><path d="M1352 1042.5C1352 1045.51 1349.79 1048 1346.98 1048L1325.02 1048C1322.28 1048 1320 1045.51 1320 1042.5 1320 1039.49 1322.28 1037 1325.02 1037L1346.98 1037C1349.79 1037 1352 1039.49 1352 1042.5Z" fill="#BD0000" fill-rule="evenodd"/><path d="M1352 991C1352 993.733 1349.79 996 1346.98 996L1325.02 996C1322.28 996 1320 993.733 1320 991 1320 988.2 1322.28 986 1325.02 986L1346.98 986C1349.79 986 1352 988.2 1352 991Z" fill="#BD0000" fill-rule="evenodd"/><path d="M1325.1 986 1337 986 1337 996 1325.1 996C1322.31 996 1320 993.733 1320 991 1320 988.2 1322.31 986 1325.1 986Z" fill="#990000" fill-rule="evenodd"/><path d="M1325.1 1037 1337 1037 1337 1048 1325.1 1048C1322.31 1048 1320 1045.51 1320 1042.5 1320 1039.49 1322.31 1037 1325.1 1037Z" fill="#990000" fill-rule="evenodd"/><path d="M1325.1 1089 1337 1089 1337 1100 1325.1 1100C1322.31 1100 1320 1097.58 1320 1094.5 1320 1091.49 1322.31 1089 1325.1 1089Z" fill="#990000" fill-rule="evenodd"/><path d="M1325.1 1141 1337 1141 1337 1151 1325.1 1151C1322.31 1151 1320 1148.73 1320 1146 1320 1143.2 1322.31 1141 1325.1 1141Z" fill="#990000" fill-rule="evenodd"/><path d="M1325.1 1193 1337 1193 1337 1203 1325.1 1203C1322.31 1203 1320 1200.73 1320 1198 1320 1195.2 1322.31 1193 1325.1 1193Z" fill="#990000" fill-rule="evenodd"/><path d="M1376 1244 1387 1244 1387 1255.67C1387 1258.65 1384.51 1261 1381.5 1261 1378.42 1261 1376 1258.65 1376 1255.67Z" fill="#990000" fill-rule="evenodd"/><path d="M1428 1244 1439 1244 1439 1255.67C1439 1258.65 1436.58 1261 1433.5 1261 1430.49 1261 1428 1258.65 1428 1255.67Z" fill="#990000" fill-rule="evenodd"/><path d="M1480 1244 1490 1244 1490 1255.67C1490 1258.65 1487.8 1261 1485 1261 1482.27 1261 1480 1258.65 1480 1255.67Z" fill="#990000" fill-rule="evenodd"/><path d="M1532 1244 1542 1244 1542 1255.67C1542 1258.65 1539.73 1261 1537 1261 1534.2 1261 1532 1258.65 1532 1255.67Z" fill="#990000" fill-rule="evenodd"/><path d="M1594 1244 1594 1255.67C1594 1258.65 1591.73 1261 1589 1261 1586.27 1261 1584 1258.65 1584 1255.67L1584 1244Z" fill="#990000" fill-rule="evenodd"/><path d="M1638.88 1261 1325.12 1261C1322.29 1261 1320 1258.7 1320 1255.87L1320 941.132C1320 938.299 1322.29 936 1325.12 936L1347.48 936C1350.31 936 1352.6 938.299 1352.6 941.132 1352.6 943.965 1350.31 946.263 1347.48 946.263L1330.23 946.263 1330.23 1250.74 1638.88 1250.74C1641.71 1250.74 1644 1253.04 1644 1255.87 1644 1258.7 1641.71 1261 1638.88 1261Z" fill="#E60000" fill-rule="evenodd"/><path d="M1417 1186.5C1417 1197.82 1407.6 1207 1396 1207 1384.4 1207 1375 1197.82 1375 1186.5 1375 1175.18 1384.4 1166 1396 1166 1407.6 1166 1417 1175.18 1417 1186.5Z" fill="#E60000" fill-rule="evenodd"/><path d="M1490 1116C1490 1127.6 1480.82 1137 1469.5 1137 1458.18 1137 1449 1127.6 1449 1116 1449 1104.4 1458.18 1095 1469.5 1095 1480.82 1095 1490 1104.4 1490 1116Z" fill="#666666" fill-rule="evenodd"/><path d="M1564 1046C1564 1057.6 1554.6 1067 1543 1067 1531.4 1067 1522 1057.6 1522 1046 1522 1034.4 1531.4 1025 1543 1025 1554.6 1025 1564 1034.4 1564 1046Z" fill="#666666" fill-rule="evenodd"/><path d="M1637 976C1637 987.598 1627.82 997 1616.5 997 1605.18 997 1596 987.598 1596 976 1596 964.402 1605.18 955 1616.5 955 1627.82 955 1637 964.402 1637 976Z" fill="#E60000" fill-rule="evenodd"/><path d="M1413 1198.12C1401.42 1214.68 1375 1206.57 1375 1186.25 1375 1177.51 1380.38 1170.05 1388.08 1167 1376.51 1183.6 1393.63 1205.83 1413 1198.12Z" fill="#BD0000" fill-rule="evenodd"/><path d="M1487 1128.13C1483.25 1133.48 1476.97 1137 1469.88 1137 1458.35 1137 1449 1127.73 1449 1116.29 1449 1107.56 1454.39 1100.11 1462.1 1097 1450.46 1113.5 1467.46 1135.89 1487 1128.13Z" fill="#4A4D4E" fill-rule="evenodd"/><path d="M1560 1058.07C1556.19 1063.48 1549.92 1067 1542.84 1067 1531.33 1067 1522 1057.73 1522 1046.22 1522 1037.49 1527.45 1030.05 1535.14 1027 1523.28 1043.84 1540.8 1065.7 1560 1058.07Z" fill="#4A4D4E" fill-rule="evenodd"/><path d="M1495 1024C1495 1039.46 1482.46 1052 1467 1052 1451.54 1052 1439 1039.46 1439 1024 1439 1008.54 1451.54 996 1467 996 1482.46 996 1495 1008.54 1495 1024Z" fill="#E60000" fill-rule="evenodd"/><path d="M1490 1039.94C1484.88 1047.25 1476.47 1052 1466.97 1052 1451.52 1052 1439 1039.48 1439 1023.95 1439 1012.16 1446.31 1002.11 1456.64 998 1440.72 1020.74 1464.23 1050.24 1490 1039.94Z" fill="#BD0000" fill-rule="evenodd"/><path d="M1617 1125C1617 1140.46 1604.46 1153 1589 1153 1573.54 1153 1561 1140.46 1561 1125 1561 1109.54 1573.54 1097 1589 1097 1604.46 1097 1617 1109.54 1617 1125Z" fill="#666666" fill-rule="evenodd"/><path d="M1612 1140.94C1606.88 1148.25 1598.47 1153 1588.97 1153 1573.52 1153 1561 1140.48 1561 1124.95 1561 1113.16 1568.31 1103.11 1578.64 1099 1562.72 1121.74 1586.23 1151.24 1612 1140.94Z" fill="#4A4D4E" fill-rule="evenodd"/><path d="M1533 1190C1533 1203.81 1521.81 1215 1508 1215 1494.19 1215 1483 1203.81 1483 1190 1483 1176.19 1494.19 1165 1508 1165 1521.81 1165 1533 1176.19 1533 1190Z" fill="#E60000" fill-rule="evenodd"/><path d="M1529 1204.06C1524.38 1210.69 1516.8 1215 1508.23 1215 1494.29 1215 1483 1203.64 1483 1189.55 1483 1178.85 1489.6 1169.73 1498.91 1166 1484.55 1186.63 1505.75 1213.41 1529 1204.06Z" fill="#BD0000" fill-rule="evenodd"/><path d="M1428 1107C1428 1122.46 1415.46 1135 1400 1135 1384.54 1135 1372 1122.46 1372 1107 1372 1091.54 1384.54 1079 1400 1079 1415.46 1079 1428 1091.54 1428 1107Z" fill="#666666" fill-rule="evenodd"/><path d="M1423 1122.94C1417.88 1130.25 1409.47 1135 1399.97 1135 1384.52 1135 1372 1122.48 1372 1106.95 1372 1095.16 1379.31 1085.11 1389.64 1081 1373.72 1103.74 1397.23 1133.24 1423 1122.94Z" fill="#4A4D4E" fill-rule="evenodd"/><path d="M1634 988.119C1622.42 1004.68 1596 996.568 1596 976.254 1596 967.508 1601.45 960.051 1609.14 957 1597.48 973.583 1614.59 995.85 1634 988.119Z" fill="#BD0000" fill-rule="evenodd"/><path d="M1387.96 966 1366.04 966C1363.26 966 1361 963.666 1361 960.787L1361 941.213C1361 938.334 1363.26 936 1366.04 936L1387.96 936C1390.74 936 1393 938.334 1393 941.213L1393 960.787C1393 963.666 1390.74 966 1387.96 966Z" fill="#E60000" fill-rule="evenodd"/><path d="M1429.8 966 1407.2 966C1404.33 966 1402 963.666 1402 960.787L1402 941.213C1402 938.334 1404.33 936 1407.2 936L1429.8 936C1432.67 936 1435 938.334 1435 941.213L1435 960.787C1435 963.666 1432.67 966 1429.8 966Z" fill="#666666" fill-rule="evenodd"/><path d="M1377 966 1365.96 966C1363.22 966 1361 963.744 1361 960.957L1361 942.044C1361 939.257 1363.22 937 1365.96 937L1377 937C1374.26 937 1372.04 939.257 1372.04 942.044L1372.04 960.957C1372.04 963.744 1374.26 966 1377 966Z" fill="#BD0000" fill-rule="evenodd"/><path d="M1419 966 1407.23 966C1405.55 966 1404.09 965.27 1403.11 964.076 1402.42 963.213 1402 962.151 1402 960.957L1402 942.044C1402 940.849 1402.42 939.788 1403.11 938.925 1404.09 937.73 1405.55 937 1407.23 937L1419 937C1416.07 937 1413.7 939.257 1413.7 942.044L1413.7 960.957C1413.7 963.744 1416.07 966 1419 966Z" fill="#4A4D4E" fill-rule="evenodd"/></g></svg>