<svg width="135" height="135" xmlns="http://www.w3.org/2000/svg" xmlns:xlink="http://www.w3.org/1999/xlink" xml:space="preserve" overflow="hidden"><defs><clipPath id="clip0"><rect x="1074" y="258" width="135" height="135"/></clipPath></defs><g clip-path="url(#clip0)" transform="translate(-1074 -258)"><path d="M1164.1 360.568 1174.12 375.229 1116.11 375.229 1125.97 360.779C1138.1 366.026 1151.99 365.947 1164.1 360.568Z" fill="#666666"/><path d="M1188.54 299.054C1186.22 293.543 1182.82 288.375 1178.33 283.893 1159.8 265.356 1129.74 265.356 1111.2 283.893 1103.98 291.117 1099.58 300.082 1097.97 309.442L1098.1 309.442C1097.2 314.558 1097.12 319.91 1097.99 325.263L1097.94 325.263C1099.13 332.355 1101.92 339.211 1106.12 345.091L1106.14 345.064C1109.15 349.283 1112.94 353.08 1117.35 356.218L1117.27 356.297C1130.64 365.868 1147.7 367.608 1162.36 361.808 1180.1 354.768 1192.31 337.497 1192.31 317.669 1192.34 311.235 1191.04 304.907 1188.54 299.054L1188.54 299.054Z" fill="#E60000"/><path d="M1170.45 291.803C1156.27 277.617 1133.3 277.617 1119.11 291.803 1112.05 298.869 1108.51 308.098 1108.49 317.353L1108.51 317.379 1108.49 317.405C1108.46 326.713 1112.02 336.047 1119.11 343.166 1133.3 357.352 1156.27 357.352 1170.45 343.166 1184.64 328.954 1184.64 305.962 1170.45 291.803L1170.45 291.803Z" fill="#990000"/><path d="M1162.54 299.687C1152.73 289.878 1136.81 289.878 1127 299.687 1122.12 304.564 1119.67 310.945 1119.64 317.353 1119.62 323.812 1122.07 330.299 1127 335.229 1136.81 345.038 1152.73 345.038 1162.54 335.229 1172.38 325.421 1172.38 309.495 1162.54 299.687L1162.54 299.687Z" fill="#E60000"/><path d="M1193.58 267.36C1197.21 267.36 1200.17 270.313 1200.17 273.952 1200.17 277.591 1197.21 280.544 1193.58 280.544 1189.94 280.544 1186.98 277.591 1186.98 273.952 1186.98 270.313 1189.94 267.36 1193.58 267.36Z" fill="#CCCCCC"/><path d="M1092.06 351.735C1094.99 351.735 1097.33 354.108 1097.33 357.009 1097.33 359.909 1094.99 362.282 1092.06 362.282 1089.13 362.282 1086.79 359.909 1086.79 357.009 1086.79 354.108 1089.13 351.735 1092.06 351.735Z" fill="#CCCCCC"/><path d="M1130.82 317.353C1130.85 313.819 1132.19 310.286 1134.91 307.57 1140.37 302.112 1149.2 302.112 1154.66 307.57 1160.12 313.028 1160.12 321.861 1154.66 327.319 1149.2 332.777 1140.37 332.777 1134.91 327.319 1132.17 324.577 1130.79 320.965 1130.82 317.353Z" fill="#990000"/><path d="M1189.62 351.735C1191.07 351.735 1192.26 352.922 1192.26 354.372 1192.26 355.822 1191.07 357.009 1189.62 357.009 1188.17 357.009 1186.98 355.822 1186.98 354.372 1186.98 352.922 1188.14 351.735 1189.62 351.735Z" fill="#CCCCCC"/><path d="M1186.98 378.103C1188.43 378.103 1189.62 379.289 1189.62 380.739 1189.62 382.189 1188.43 383.376 1186.98 383.376 1185.53 383.376 1184.35 382.189 1184.35 380.739 1184.35 379.289 1185.51 378.103 1186.98 378.103Z" fill="#CCCCCC"/><path d="M1102.61 372.829C1104.06 372.829 1105.25 374.016 1105.25 375.466 1105.25 376.916 1104.06 378.103 1102.61 378.103 1101.16 378.103 1099.97 376.916 1099.97 375.466 1099.97 374.016 1101.13 372.829 1102.61 372.829Z" fill="#CCCCCC"/><path d="M1099.97 269.997C1101.42 269.997 1102.61 271.184 1102.61 272.634 1102.61 274.084 1101.42 275.271 1099.97 275.271 1098.52 275.271 1097.33 274.084 1097.33 272.634 1097.33 271.184 1098.5 269.997 1099.97 269.997Z" fill="#CCCCCC"/><path d="M1086.79 288.454C1088.24 288.454 1089.42 289.641 1089.42 291.091 1089.42 292.541 1088.24 293.728 1086.79 293.728 1085.34 293.728 1084.15 292.541 1084.15 291.091 1084.15 289.641 1085.31 288.454 1086.79 288.454Z" fill="#CCCCCC"/><path d="M1144.8 319.989 1108.51 319.989C1107.06 319.989 1105.88 318.803 1105.88 317.353 1105.88 315.902 1107.06 314.716 1108.51 314.716L1144.8 314.716C1146.25 314.716 1147.43 315.902 1147.43 317.353 1147.43 318.803 1146.25 319.989 1144.8 319.989Z" fill="#FFFFFF"/><path d="M1139 319.989 1102.71 319.989C1101.26 319.989 1100.08 318.803 1100.08 317.353 1100.08 315.902 1101.26 314.716 1102.71 314.716L1139 314.716C1140.45 314.716 1141.63 315.902 1141.63 317.353 1141.63 318.803 1140.45 319.989 1139 319.989Z" fill="#FFFFFF"/><path d="M1101.29 309.442 1097.99 309.442 1085.47 309.442 1093.38 317.353 1085.47 325.263 1097.97 325.263 1101.29 325.263 1108.49 317.379C1108.49 317.379 1108.49 317.379 1108.49 317.353 1108.49 317.326 1108.49 317.353 1108.49 317.326L1101.29 309.442Z" fill="#07CC66"/><path d="M1108.49 317.379 1101.29 325.263 1097.97 325.263 1085.47 325.263 1093.38 317.353 1096.02 317.353 1108.49 317.379C1108.49 317.353 1108.49 317.353 1108.49 317.379Z" fill="#4A4D4E"/><path d="M1108.49 317.353C1108.49 317.353 1108.49 317.353 1108.49 317.353L1096.02 317.379 1093.38 317.379 1085.47 309.469 1097.99 309.469 1101.29 309.469 1108.49 317.353Z" fill="#666666"/><path d="M940.187 204.422 996.322 204.422 996.322 228.311 940.187 228.311Z" fill="#F4F4F4"/><path d="M940.187 235.43 996.322 235.43 996.322 259.318 940.187 259.318Z" fill="#EBEBEB"/><path d="M940.187 266.438 996.322 266.438 996.322 290.326 940.187 290.326Z" fill="#CCCCCC"/><path d="M940.187 297.472 996.322 297.472 996.322 321.36 940.187 321.36Z" fill="#AFAFAF"/><path d="M940.187 328.453 996.322 328.453 996.322 352.342 940.187 352.342Z" fill="#999999"/><path d="M940.187 359.435 996.322 359.435 996.322 383.323 940.187 383.323Z" fill="#666666"/><path d="M940.187 388.043 996.322 388.043 996.322 411.932 940.187 411.932Z" fill="#4A4D4E"/><path d="M1012.46 204.527 1068.59 204.527 1068.59 228.416 1012.46 228.416Z" fill="#E60000"/><path d="M1012.46 235.562 1068.59 235.562 1068.59 259.45 1012.46 259.45Z" fill="#BD0000"/><path d="M1012.46 266.543 1068.59 266.543 1068.59 290.432 1012.46 290.432Z" fill="#990000"/><path d="M1012.46 297.604 1068.59 297.604 1068.59 321.492 1012.46 321.492Z" fill="#D47600"/><path d="M1012.46 328.585 1068.59 328.585 1068.59 352.474 1012.46 352.474Z" fill="#FFA10B"/><path d="M940.187 416.651 996.322 416.651 996.322 440.54 940.187 440.54Z" fill="#333333"/></g></svg>