<svg width="94" height="95" xmlns="http://www.w3.org/2000/svg" xmlns:xlink="http://www.w3.org/1999/xlink" xml:space="preserve" overflow="hidden"><defs><clipPath id="clip0"><rect x="71" y="464" width="94" height="95"/></clipPath></defs><g clip-path="url(#clip0)" transform="translate(-71 -464)"><path d="M35.709 18.4695 47.973 18.4695 47.973 34.277 34.2402 34.277 34.2402 19.9383C34.2402 19.1305 34.9012 18.4695 35.709 18.4695L35.709 18.4695Z" fill="#990000" fill-rule="evenodd" transform="matrix(1 0 0 1.01064 71 464)"/><path d="M59.4109 10.4281 47.4039 10.4281C46.5961 10.4281 45.9352 11.0891 45.9352 11.8969L45.9352 34.277 59.4109 34.277 59.4109 10.4281Z" fill="#BD0000" fill-rule="evenodd" transform="matrix(1 0 0 1.01064 71 464)"/><path d="M59.0805 2.9375 67.8195 2.9375C68.6273 2.9375 69.2883 3.59844 69.2883 4.40625L69.2883 34.277 57.6117 34.277 57.6117 4.40625C57.6117 3.59844 58.2727 2.9375 59.0805 2.9375Z" fill="#E60000" fill-rule="evenodd" transform="matrix(1 0 0 1.01064 71 464)"/><path d="M43.3281 86.1789C43.3281 88.8777 41.1434 91.0625 38.4445 91.0625 35.7457 91.0625 33.5609 88.8777 33.5609 86.1789 33.5609 83.4801 35.7457 81.2953 38.4445 81.2953 41.1434 81.2953 43.3281 83.4801 43.3281 86.1789ZM75.3836 86.1789C75.3836 88.8777 73.1988 91.0625 70.5 91.0625 67.8012 91.0625 65.6164 88.8777 65.6164 86.1789 65.6164 83.4801 67.8012 81.2953 70.5 81.2953 73.1988 81.2953 75.3836 83.4801 75.3836 86.1789Z" fill="#666666" fill-rule="evenodd" transform="matrix(1 0 0 1.01064 71 464)"/><path d="M77.7887 62.6605 83.8289 35.1949C83.8289 32.5879 81.7176 30.4766 79.1105 30.4766 79.1105 30.4766 37.2879 30.4766 20.3973 30.4766 21.7008 42.0797 23.9039 61.559 24.5648 67.3789L73.0703 67.3789C75.6773 67.3973 77.7887 65.2676 77.7887 62.6605Z" fill="#EBEBEB" fill-rule="evenodd" transform="matrix(1 0 0 1.01064 71 464)"/><path d="M79.2391 56.0695 79.5145 54.7844 79.5145 53.4992 66.9383 53.4992 67.434 49.0746 68.0031 44.0258 81.8828 44.0258 82.1582 42.7406 82.1582 41.4555 68.2969 41.4555 69.527 30.6234C69.527 30.5684 69.527 30.5316 69.527 30.4766L66.9566 30.4766 65.7266 41.4555 40.5008 41.4555 39.2707 30.4766 36.7004 30.4766C36.7004 30.5316 36.7004 30.5684 36.7004 30.6234L37.9305 41.4555 21.7742 41.4555 21.7742 42.7406 21.9211 44.0258 38.2242 44.0258 38.7934 49.0746 39.2891 53.4992 23.1328 53.4992 23.1328 54.7844 23.2797 56.0695 39.5828 56.0695 40.8496 67.3789 43.4199 67.3789C43.4199 67.3238 43.4199 67.2871 43.4199 67.232L42.1531 56.0512 64.0742 56.0512 62.8074 67.232C62.8074 67.2871 62.8074 67.3238 62.8074 67.3789L65.3777 67.3789 66.6445 56.0695 79.2391 56.0695ZM65.4328 44.0258 64.9004 48.7992 64.368 53.4992 41.8594 53.4992 41.327 48.7992 40.7945 44.0258 65.4328 44.0258Z" fill="#666666" fill-rule="evenodd" transform="matrix(1 0 0 1.01064 71 464)"/><path d="M83.7371 72.85C85.7566 72.85 87.409 74.5023 87.409 76.5219 87.409 78.5414 85.7566 80.1937 83.7371 80.1937L33.0469 80.1937C29.9992 80.1937 27.1719 79.0371 25.0238 77.1094 22.8758 75.2 21.4254 72.5195 21.0766 69.4719L15.734 21.9395C15.6055 20.7461 15.0363 19.6996 14.1918 18.9652 13.3656 18.2309 12.2641 17.7902 11.0523 17.7902L10.2629 17.7902C8.24336 17.7902 6.59102 16.1379 6.59102 14.1184 6.59102 12.0988 8.24336 10.4465 10.2629 10.4465L11.0523 10.4465C14.1 10.4465 16.9273 11.6031 19.0754 13.5309 21.2234 15.4402 22.6738 18.1207 23.0227 21.1684L28.3836 68.7008C28.5121 69.8941 29.0812 70.9406 29.9258 71.675 30.752 72.4094 31.8535 72.85 33.0652 72.85L83.7371 72.85Z" fill="#E60000" fill-rule="evenodd" transform="matrix(1 0 0 1.01064 71 464)"/><path d="M-115.021-47.918-75.9344-47.918-75.9344-31.2844-115.021-31.2844Z" fill="#F4F4F4" transform="matrix(1 0 0 1.01064 71 464)"/><path d="M-115.021-26.3273-75.9344-26.3273-75.9344-9.69375-115.021-9.69375Z" fill="#EBEBEB" transform="matrix(1 0 0 1.01064 71 464)"/><path d="M-115.021-4.73672-75.9344-4.73672-75.9344 11.8969-115.021 11.8969Z" fill="#CCCCCC" transform="matrix(1 0 0 1.01064 71 464)"/><path d="M-115.021 16.8723-75.9344 16.8723-75.9344 33.5059-115.021 33.5059Z" fill="#AFAFAF" transform="matrix(1 0 0 1.01064 71 464)"/><path d="M-115.021 38.4445-75.9344 38.4445-75.9344 55.0781-115.021 55.0781Z" fill="#999999" transform="matrix(1 0 0 1.01064 71 464)"/><path d="M-115.021 60.0352-75.9344 60.0352-75.9344 76.6688-115.021 76.6688Z" fill="#666666" transform="matrix(1 0 0 1.01064 71 464)"/><path d="M-115.021 79.9367-75.9344 79.9367-75.9344 96.5703-115.021 96.5703Z" fill="#4A4D4E" transform="matrix(1 0 0 1.01064 71 464)"/><path d="M-64.6984-47.8445-25.6113-47.8445-25.6113-31.2109-64.6984-31.2109Z" fill="#E60000" transform="matrix(1 0 0 1.01064 71 464)"/><path d="M-64.6984-26.2355-25.6113-26.2355-25.6113-9.60195-64.6984-9.60195Z" fill="#BD0000" transform="matrix(1 0 0 1.01064 71 464)"/><path d="M-64.6984-4.66328-25.6113-4.66328-25.6113 11.9703-64.6984 11.9703Z" fill="#990000" transform="matrix(1 0 0 1.01064 71 464)"/><path d="M-64.6984 16.9641-25.6113 16.9641-25.6113 33.5977-64.6984 33.5977Z" fill="#D47600" transform="matrix(1 0 0 1.01064 71 464)"/><path d="M-64.6984 38.5363-25.6113 38.5363-25.6113 55.1699-64.6984 55.1699Z" fill="#FFA10B" transform="matrix(1 0 0 1.01064 71 464)"/><path d="M-115.021 99.8566-75.9344 99.8566-75.9344 116.49-115.021 116.49Z" fill="#333333" transform="matrix(1 0 0 1.01064 71 464)"/><path d="M-65.6348 60.8246-26.5477 60.8246-26.5477 77.4582-65.6348 77.4582Z" fill="#39B54A" transform="matrix(1 0 0 1.01064 71 464)"/><path d="M-65.6348 82.3969-26.5477 82.3969-26.5477 99.0305-65.6348 99.0305Z" fill="#108846" transform="matrix(1 0 0 1.01064 71 464)"/></g></svg>