<svg width="94" height="94" xmlns="http://www.w3.org/2000/svg" xmlns:xlink="http://www.w3.org/1999/xlink" xml:space="preserve" overflow="hidden"><g transform="translate(-1089 -23)"><path d="M1132.66 40.166C1132.31 40.166 1131.96 40.0375 1131.69 39.7621 1131.15 39.2297 1131.15 38.3484 1131.69 37.816 1132.84 36.6594 1134.37 36.0352 1136 36.0352 1137.63 36.0352 1139.16 36.6777 1140.31 37.816 1140.85 38.3484 1140.85 39.2297 1140.31 39.7621 1139.78 40.2945 1138.9 40.2945 1138.37 39.7621 1137.74 39.1379 1136.9 38.7891 1136 38.7891 1135.1 38.7891 1134.27 39.1379 1133.63 39.7621 1133.36 40.0375 1133.01 40.166 1132.66 40.166Z" fill="#BD0000"/><path d="M1143.07 36.2922C1142.72 36.2922 1142.37 36.1637 1142.1 35.8883 1138.74 32.5285 1133.26 32.5285 1129.9 35.8883 1129.37 36.4207 1128.49 36.4207 1127.96 35.8883 1127.43 35.3559 1127.43 34.4746 1127.96 33.9422 1132.4 29.4992 1139.62 29.4992 1144.04 33.9422 1144.57 34.4746 1144.57 35.3559 1144.04 35.8883 1143.78 36.1453 1143.42 36.2922 1143.07 36.2922Z" fill="#E60000"/><path d="M1146.98 32.1613C1146.63 32.1613 1146.28 32.0328 1146.01 31.7574 1140.5 26.2496 1131.52 26.2496 1126.01 31.7574 1125.48 32.2898 1124.6 32.2898 1124.07 31.7574 1123.53 31.225 1123.53 30.3438 1124.07 29.8113 1130.66 23.2203 1141.36 23.2203 1147.95 29.8113 1148.48 30.3438 1148.48 31.225 1147.95 31.7574 1147.68 32.0328 1147.33 32.1613 1146.98 32.1613Z" fill="#E60000"/><path d="M1123.39 44.7742 1148.59 44.7742 1148.59 115.586 1123.39 115.586 1123.39 44.7742Z" fill="#BD0000"/><path d="M1141.27 44.7742 1148.61 44.7742 1148.61 115.586 1141.27 115.586 1141.27 44.7742Z" fill="#990000"/><path d="M1098.18 62.4727 1123.39 62.4727 1123.39 115.641 1098.18 115.641 1098.18 62.4727Z" fill="#4A4D4E"/><path d="M1148.61 72.1664 1173.82 72.1664 1173.82 115.66 1148.61 115.66 1148.61 72.1664Z" fill="#999999"/><path d="M1166.48 72.1664 1173.82 72.1664 1173.82 115.66 1166.48 115.66 1166.48 72.1664Z" fill="#666666"/><path d="M1148.61 64.841 1169.47 64.841 1169.47 72.1664 1148.61 72.1664 1148.61 64.841Z" fill="#E60000"/><path d="M1102.35 55.1473 1123.41 55.1473 1123.41 62.4727 1102.35 62.4727 1102.35 55.1473Z" fill="#E60000"/><path d="M1131.69 51.5305C1130.93 51.5305 1130.31 52.1547 1130.31 52.9074L1130.31 70.5141C1130.31 71.2668 1130.93 71.891 1131.69 71.891 1132.44 71.891 1133.06 71.2668 1133.06 70.5141L1133.06 52.9074C1133.06 52.1363 1132.44 51.5305 1131.69 51.5305L1131.69 51.5305Z" fill="#FFFFFF"/><path d="M1140.31 51.5305C1139.56 51.5305 1138.94 52.1547 1138.94 52.9074L1138.94 107.453C1138.94 108.206 1139.56 108.83 1140.31 108.83 1141.07 108.83 1141.69 108.206 1141.69 107.453L1141.69 52.9074C1141.69 52.1363 1141.07 51.5305 1140.31 51.5305Z" fill="#FFFFFF"/><path d="M1114.98 78.1699 1131.69 78.1699 1131.69 115.586 1114.98 115.586 1114.98 78.1699Z" fill="#999999"/><path d="M1106.62 69.5961C1105.87 69.5961 1105.25 70.2203 1105.25 70.973L1105.25 75.2141C1105.25 75.9668 1105.87 76.591 1106.62 76.591 1107.38 76.591 1108 75.9668 1108 75.2141L1108 70.973C1108 70.2203 1107.38 69.5961 1106.62 69.5961L1106.62 69.5961Z" fill="#FFFFFF"/><path d="M1106.62 80.575C1105.87 80.575 1105.25 81.1992 1105.25 81.952L1105.25 86.193C1105.25 86.9457 1105.87 87.5699 1106.62 87.5699 1107.38 87.5699 1108 86.9457 1108 86.193L1108 81.952C1108 81.1992 1107.38 80.575 1106.62 80.575Z" fill="#FFFFFF"/><path d="M1106.62 91.5539C1105.87 91.5539 1105.25 92.1781 1105.25 92.9309L1105.25 97.1719C1105.25 97.9246 1105.87 98.5488 1106.62 98.5488 1107.38 98.5488 1108 97.9246 1108 97.1719L1108 92.9309C1108 92.1781 1107.38 91.5539 1106.62 91.5539Z" fill="#FFFFFF"/><path d="M1106.62 102.533C1105.87 102.533 1105.25 103.157 1105.25 103.91L1105.25 108.151C1105.25 108.904 1105.87 109.528 1106.62 109.528 1107.38 109.528 1108 108.904 1108 108.151L1108 103.91C1108 103.157 1107.38 102.533 1106.62 102.533Z" fill="#FFFFFF"/><path d="M1155.83 81.2727 1165.74 81.2727C1166.49 81.2727 1167.12 80.6484 1167.12 79.8957 1167.12 79.143 1166.49 78.5188 1165.74 78.5188L1155.83 78.5188C1155.08 78.5188 1154.45 79.143 1154.45 79.8957 1154.45 80.6484 1155.08 81.2727 1155.83 81.2727Z" fill="#FFFFFF"/><path d="M1165.74 85.4035 1155.83 85.4035C1155.08 85.4035 1154.45 86.0277 1154.45 86.7805 1154.45 87.5332 1155.08 88.1574 1155.83 88.1574L1165.74 88.1574C1166.49 88.1574 1167.12 87.5332 1167.12 86.7805 1167.12 86.0277 1166.49 85.4035 1165.74 85.4035Z" fill="#FFFFFF"/><path d="M1165.74 92.2883 1155.83 92.2883C1155.08 92.2883 1154.45 92.9125 1154.45 93.6652 1154.45 94.418 1155.08 95.0422 1155.83 95.0422L1165.74 95.0422C1166.49 95.0422 1167.12 94.418 1167.12 93.6652 1167.12 92.9125 1166.49 92.2883 1165.74 92.2883Z" fill="#FFFFFF"/><path d="M1165.74 99.1914 1155.83 99.1914C1155.08 99.1914 1154.45 99.8156 1154.45 100.568 1154.45 101.321 1155.08 101.945 1155.83 101.945L1165.74 101.945C1166.49 101.945 1167.12 101.321 1167.12 100.568 1167.12 99.8156 1166.49 99.1914 1165.74 99.1914Z" fill="#FFFFFF"/><path d="M1165.74 106.076 1155.83 106.076C1155.08 106.076 1154.45 106.7 1154.45 107.453 1154.45 108.206 1155.08 108.83 1155.83 108.83L1165.74 108.83C1166.49 108.83 1167.12 108.206 1167.12 107.453 1167.12 106.7 1166.49 106.076 1165.74 106.076Z" fill="#FFFFFF"/><path d="M1121.04 88.084 1125.43 88.084C1126.18 88.084 1126.8 87.4598 1126.8 86.707 1126.8 85.9543 1126.18 85.3301 1125.43 85.3301L1121.04 85.3301C1120.28 85.3301 1119.66 85.9543 1119.66 86.707 1119.66 87.4598 1120.28 88.084 1121.04 88.084Z" fill="#FFFFFF"/><path d="M1121.11 95.0605 1125.5 95.0605C1126.25 95.0605 1126.88 94.4363 1126.88 93.6836 1126.88 92.9309 1126.25 92.3066 1125.5 92.3066L1121.11 92.3066C1120.36 92.3066 1119.73 92.9309 1119.73 93.6836 1119.73 94.4363 1120.34 95.0605 1121.11 95.0605Z" fill="#FFFFFF"/><path d="M1121.17 102.037 1125.55 102.037C1126.31 102.037 1126.93 101.413 1126.93 100.66 1126.93 99.9074 1126.31 99.2832 1125.55 99.2832L1121.17 99.2832C1120.41 99.2832 1119.79 99.9074 1119.79 100.66 1119.79 101.413 1120.41 102.037 1121.17 102.037Z" fill="#FFFFFF"/><path d="M1125.63 106.278 1121.24 106.278C1120.49 106.278 1119.86 106.902 1119.86 107.655 1119.86 108.408 1120.49 109.032 1121.24 109.032L1125.63 109.032C1126.38 109.032 1127 108.408 1127 107.655 1127 106.902 1126.38 106.278 1125.63 106.278Z" fill="#FFFFFF"/><path d="M1181.62 114.209 1090.38 114.209C1089.62 114.209 1089 114.834 1089 115.586 1089 116.339 1089.62 116.963 1090.38 116.963L1181.62 116.963C1182.38 116.963 1183 116.339 1183 115.586 1183 114.834 1182.38 114.209 1181.62 114.209Z" fill="#333333"/></g></svg>