<svg width="95" height="94" xmlns="http://www.w3.org/2000/svg" xmlns:xlink="http://www.w3.org/1999/xlink" xml:space="preserve" overflow="hidden"><defs><clipPath id="clip0"><rect x="788" y="29" width="95" height="94"/></clipPath></defs><g clip-path="url(#clip0)" transform="translate(-788 -29)"><path d="M40.5172 40.5172C40.5172 50.3629 32.5353 58.3448 22.6897 58.3448 12.844 58.3448 4.86207 50.3629 4.86207 40.5172 4.86207 30.6716 12.844 22.6897 22.6897 22.6897 32.5353 22.6897 40.5172 30.6716 40.5172 40.5172Z" fill="#BD0000" transform="matrix(1.01064 0 0 1 788 29)"/><path d="M37.2759 40.5172C37.2759 48.5802 30.7526 55.1034 22.6897 55.1034 14.6267 55.1034 8.10345 48.5802 8.10345 40.5172 8.10345 32.4543 14.6267 25.931 22.6897 25.931 30.7526 25.931 37.2759 32.4543 37.2759 40.5172Z" fill="#E60000" transform="matrix(1.01064 0 0 1 788 29)"/><path d="M94 17.8276C94 27.6733 86.0181 35.6552 76.1724 35.6552 66.3267 35.6552 58.3448 27.6733 58.3448 17.8276 58.3448 7.9819 66.3267 0 76.1724 0 86.0181 0 94 7.9819 94 17.8276Z" fill="#BD0000" transform="matrix(1.01064 0 0 1 788 29)"/><path d="M90.7586 17.8276C90.7586 25.8905 84.2353 32.4138 76.1724 32.4138 68.1095 32.4138 61.5862 25.8905 61.5862 17.8276 61.5862 9.76466 68.1095 3.24138 76.1724 3.24138 84.2353 3.24138 90.7586 9.76466 90.7586 17.8276Z" fill="#E60000" transform="matrix(1.01064 0 0 1 788 29)"/><path d="M72.931 76.1724C72.931 86.0181 64.9491 94 55.1034 94 45.2578 94 37.2759 86.0181 37.2759 76.1724 37.2759 66.3267 45.2578 58.3448 55.1034 58.3448 64.9491 58.3448 72.931 66.3267 72.931 76.1724Z" fill="#BD0000" transform="matrix(1.01064 0 0 1 788 29)"/><path d="M69.6897 76.1724C69.6897 84.2353 63.1664 90.7586 55.1034 90.7586 47.0405 90.7586 40.5172 84.2353 40.5172 76.1724 40.5172 68.1095 47.0405 61.5862 55.1034 61.5862 63.1664 61.5862 69.6897 68.1095 69.6897 76.1724Z" fill="#E60000" transform="matrix(1.01064 0 0 1 788 29)"/><path d="M87.5172 61.5862C85.2483 61.5862 83.2427 60.4112 82.0879 58.6284 81.4194 57.6155 81.0345 56.4 81.0345 55.1034 81.0345 51.5177 83.9315 48.6207 87.5172 48.6207 91.103 48.6207 94 51.5177 94 55.1034 94 58.6892 91.103 61.5862 87.5172 61.5862Z" fill="#BD0000" transform="matrix(1.01064 0 0 1 788 29)"/><path d="M87.4767 31.6237C84.3974 34.1358 80.4672 35.6552 76.1724 35.6552 74.025 35.6552 71.9991 35.2905 70.1151 34.6017L70.1151 34.5815C68.1905 33.8927 66.428 32.8797 64.8681 31.6237 65.2733 26.6401 69.4668 22.6897 74.5517 22.6897L77.7931 22.6897C82.878 22.6897 87.0715 26.6198 87.4767 31.6237Z" fill="#EBEBEB" transform="matrix(1.01064 0 0 1 788 29)"/><path d="M82.6552 16.2069C82.6552 19.7927 79.7582 22.6897 76.1724 22.6897 72.5866 22.6897 69.6897 19.7927 69.6897 16.2069 69.6897 12.6211 72.5866 9.72414 76.1724 9.72414 79.7582 9.72414 82.6552 12.6211 82.6552 16.2069Z" fill="#EBEBEB" transform="matrix(1.01064 0 0 1 788 29)"/><path d="M55.1034 94C50.7884 94 46.8379 92.4806 43.7586 89.928 44.1841 84.9444 48.3776 81.0345 53.4422 81.0345L56.6836 81.0345C61.7685 81.0345 65.9621 84.9647 66.3672 89.9685L66.3875 89.9888C63.3284 92.5009 59.3983 94 55.1034 94Z" fill="#EBEBEB" transform="matrix(1.01064 0 0 1 788 29)"/><path d="M61.5457 74.5517C61.5457 78.1375 58.6487 81.0345 55.0629 81.0345 51.4772 81.0345 48.5802 78.1375 48.5802 74.5517 48.5802 70.9659 51.4772 68.069 55.0629 68.069 58.6487 68.069 61.5457 70.9659 61.5457 74.5517Z" fill="#EBEBEB" transform="matrix(1.01064 0 0 1 788 29)"/><path d="M45.3793 0C48.9651 0 51.8621 2.89698 51.8621 6.48276 51.8621 7.27284 51.7203 8.02241 51.4569 8.71121 50.5453 11.1828 48.175 12.9655 45.3793 12.9655 41.7935 12.9655 38.8966 10.0685 38.8966 6.48276 38.8966 2.89698 41.7935 0 45.3793 0Z" fill="#BD0000" transform="matrix(1.01064 0 0 1 788 29)"/><path d="M22.6897 58.3448C19.5496 58.3448 16.5918 57.5345 14.0392 56.1164 13.0871 55.5897 12.1957 54.9819 11.3448 54.2931 11.7703 49.3095 15.9638 45.3996 21.0284 45.3996L24.2698 45.3996C29.3547 45.3996 33.5483 49.3297 33.9534 54.3336L33.9737 54.3539C30.9147 56.8457 26.9845 58.3448 22.6897 58.3448Z" fill="#EBEBEB" transform="matrix(1.01064 0 0 1 788 29)"/><path d="M29.1319 38.8966C29.1319 42.4823 26.2349 45.3793 22.6491 45.3793 19.0634 45.3793 16.1664 42.4823 16.1664 38.8966 16.1664 35.3108 19.0634 32.4138 22.6491 32.4138 26.2349 32.4138 29.1319 35.3108 29.1319 38.8966Z" fill="#EBEBEB" transform="matrix(1.01064 0 0 1 788 29)"/><path d="M21.069 90.7586C17.4832 90.7586 14.5862 87.8616 14.5862 84.2759 14.5862 80.6901 17.4832 77.7931 21.069 77.7931 24.128 77.7931 26.7009 79.9203 27.3694 82.7767 27.4909 83.2629 27.5517 83.7694 27.5517 84.2759 27.5517 87.8616 24.6547 90.7586 21.069 90.7586Z" fill="#BD0000" transform="matrix(1.01064 0 0 1 788 29)"/><path d="M6.48276 63.2069C7.61724 63.2069 8.71121 63.4905 9.62284 64.0375 11.6284 65.1315 12.9655 67.2586 12.9655 69.6897 12.9655 73.2754 10.0685 76.1724 6.48276 76.1724 2.89698 76.1724 0 73.2754 0 69.6897 0 66.1039 2.89698 63.2069 6.48276 63.2069Z" fill="#BD0000" transform="matrix(1.01064 0 0 1 788 29)"/><path d="M6.48276 0C10.0685 0 12.9655 2.89698 12.9655 6.48276 12.9655 9.0556 11.4664 11.3043 9.27845 12.3172 8.42759 12.7427 7.47543 12.9655 6.48276 12.9655 2.89698 12.9655 0 10.0685 0 6.48276 0 2.89698 2.89698 0 6.48276 0Z" fill="#BD0000" transform="matrix(1.01064 0 0 1 788 29)"/><path d="M7.79957 13.006 10.7371 11.6284 16.4905 23.7026 13.5733 25.1004 7.79957 13.006Z" fill="#E60000" transform="matrix(1.01064 0 0 1 788 29)"/><path d="M8.20474 63.2474 12.6211 55.3263 15.4573 56.9065 11.0409 64.8276 8.20474 63.2474Z" fill="#E60000" transform="matrix(1.01064 0 0 1 788 29)"/><path d="M50.8897 10.2306 52.0039 7.19181 59.9858 10.1496 58.8716 13.1884 50.8897 10.2306Z" fill="#E60000" transform="matrix(1.01064 0 0 1 788 29)"/><path d="M59.6414 58.8513 68.5754 34.0547 71.6142 35.1487 62.6802 59.9453 59.6414 58.8513Z" fill="#E60000" transform="matrix(1.01064 0 0 1 788 29)"/><path d="M69.1629 65.1112 81.2168 57.2914 82.9793 60.006 70.9254 67.8259 69.1629 65.1112Z" fill="#E60000" transform="matrix(1.01064 0 0 1 788 29)"/><path d="M33.4875 54.7996 35.878 52.6116 44.3056 61.8901 41.9151 64.078 33.4875 54.7996Z" fill="#E60000" transform="matrix(1.01064 0 0 1 788 29)"/><path d="M27.0047 81.1965 37.3974 78.725 38.147 81.8853 27.7543 84.3569 27.0047 81.1965Z" fill="#E60000" transform="matrix(1.01064 0 0 1 788 29)"/><path d="M38.4711 32.0491 59.1349 23.2974 60.3909 26.2754 39.7474 35.0474 38.4711 32.0491Z" fill="#E60000" transform="matrix(1.01064 0 0 1 788 29)"/><path d="M168.896 28.3621C170.091 29.5573 172.056 29.5573 173.252 28.3621L173.312 28.3013C173.373 28.9901 173.677 29.6586 174.204 30.1853L174.285 30.2664C175.48 31.4616 177.445 31.4616 178.641 30.2664L186.622 22.2845C186.298 23.9862 186.136 26.3565 187.149 27.9366 187.716 28.8078 188.547 29.3142 189.641 29.4763L190.026 29.5371 190.391 29.4763C191.241 29.3142 193.267 28.4634 193.956 24.1078 194.321 21.7172 195.192 20.4815 196.022 19.2862 197.562 17.0375 198.534 15.1737 197.886 10.0685L201.512 6.44224 189.094-5.97629 184.272-1.19526C179.876-1.88405 173.009 5.20647 172.705 5.51034L167.559 10.656C166.364 11.8513 166.364 13.8164 167.559 15.0116L167.64 15.0927C168.167 15.6194 168.835 15.9233 169.524 15.9841L166.931 18.5772C165.736 19.7724 165.736 21.7375 166.931 22.9328L167.012 23.0138C167.539 23.5405 168.187 23.8241 168.876 23.9052L168.835 23.9457C167.64 25.1409 167.64 27.106 168.835 28.3013L168.896 28.3621Z" fill="#FBCB99" transform="matrix(1.01064 0 0 1 788 29)"/><path d="M167.66 15.0724C167.741 15.1534 167.843 15.2345 167.924 15.3155 167.62 14.2823 167.883 13.1073 168.714 12.297L173.859 7.15129C174.143 6.84741 181.031-0.263362 185.427 0.44569L190.228-4.37586 201.269 6.66509 201.533 6.40172 189.114-6.01681 184.272-1.19526C179.876-1.88405 173.009 5.20647 172.705 5.51034L167.559 10.656C166.364 11.8513 166.364 13.8164 167.559 15.0116L167.66 15.0724Z" fill="#E9B585" transform="matrix(1.01064 0 0 1 788 29)"/><path d="M188.405 11.9931C188.405 8.08319 184.88 8.02241 184.88 8.02241L170.213 8.02241 167.579 10.656C167.417 10.8181 167.275 11.0004 167.154 11.1828L185.265 11.1828 185.265 23.6418 186.622 22.2845C186.298 23.9862 186.136 26.3565 187.149 27.9366 187.473 28.4431 187.899 28.828 188.405 29.0914L188.405 11.9931 188.405 11.9931 188.405 11.9931Z" fill="#E9B585" transform="matrix(1.01064 0 0 1 788 29)"/><path d="M152 41.7328C150.805 40.5375 148.84 40.5375 147.645 41.7328L147.584 41.7935C147.523 41.1047 147.219 40.4362 146.693 39.9095L146.612 39.8284C145.416 38.6332 143.451 38.6332 142.256 39.8284L134.274 47.8103C134.598 46.1086 134.76 43.7384 133.747 42.1582 133.18 41.2871 132.35 40.7806 131.256 40.6185L130.871 40.5578 130.506 40.6185C129.655 40.7806 127.629 41.6315 126.941 45.9871 126.576 48.3776 125.705 49.6134 124.874 50.8086 123.334 53.0573 122.362 54.9211 123.01 60.0263L119.384 63.6526 131.803 76.0711 136.624 71.2496C141.02 71.9586 147.888 64.8478 148.192 64.544L153.338 59.3983C154.533 58.203 154.533 56.2379 153.338 55.0427L153.256 54.9616C152.73 54.4349 152.061 54.131 151.372 54.0703L153.966 51.4772C155.161 50.2819 155.161 48.3168 153.966 47.1216L153.884 47.0405C153.358 46.5138 152.709 46.2302 152.021 46.1491L152.061 46.1086C153.256 44.9134 153.256 42.9483 152.061 41.753L152 41.7328Z" fill="#FBCB99" transform="matrix(1.01064 0 0 1 788 29)"/><path d="M153.783 47.1013C153.824 47.1013 153.864 47.1216 153.905 47.1216L153.884 47.1013C153.864 47.081 153.844 47.0608 153.824 47.0608 153.824 47.0608 153.824 47.0608 153.824 47.0608L153.783 47.1013Z" fill="#E9B585" transform="matrix(1.01064 0 0 1 788 29)"/><path d="M153.277 55.0427 153.236 55.0022C153.216 54.9819 153.196 54.9616 153.175 54.9414L153.115 55.0022C153.155 55.0224 153.216 55.0427 153.277 55.0427Z" fill="#E9B585" transform="matrix(1.01064 0 0 1 788 29)"/><path d="M121.126 64.6047 124.753 60.9784C124.084 55.853 125.056 53.9892 126.616 51.7608 127.447 50.5655 128.298 49.3297 128.683 46.9392 129.372 42.5634 131.397 41.7125 132.248 41.5707L132.613 41.5099 132.998 41.5707C133.079 41.591 133.16 41.6112 133.241 41.6112 132.714 41.1047 132.046 40.7806 131.235 40.659L130.85 40.5983 130.486 40.659C129.635 40.8211 127.609 41.672 126.92 46.0276 126.556 48.4181 125.684 49.6539 124.854 50.8491 123.314 53.0978 122.342 54.9616 122.99 60.0668L119.364 63.6931 131.782 76.1116 132.208 75.6862 121.126 64.6047Z" fill="#E9B585" transform="matrix(1.01064 0 0 1 788 29)"/><path d="M151.393 41.7935 151.453 41.7328C151.534 41.6517 151.636 41.5707 151.737 41.4897 151.595 41.3681 151.433 41.2668 151.271 41.1858 151.332 41.3681 151.372 41.591 151.393 41.7935Z" fill="#E9B585" transform="matrix(1.01064 0 0 1 788 29)"/><path d="M153.986 26.3767C155.181 25.1815 155.181 23.2164 153.986 22.0211L153.925 21.9603C154.614 21.8996 155.282 21.5957 155.809 21.069L155.89 20.9879C157.085 19.7927 157.085 17.8276 155.89 16.6323L147.908 8.65043C149.61 8.97457 151.98 9.13664 153.56 8.12371 154.431 7.55647 154.938 6.72586 155.1 5.6319L155.161 5.24698 155.1 4.88233C154.938 4.03147 154.087 2.0056 149.731 1.31681 147.321 0.931897 146.065 0.0607759 144.869-0.769828 142.621-2.30948 140.757-3.2819 135.652-2.63362L132.025-6.25991 119.607 6.15862 124.428 10.9802C123.74 15.3763 130.83 22.244 131.134 22.5478L136.28 27.6935C137.475 28.8888 139.44 28.8888 140.635 27.6935L140.716 27.6125C141.243 27.0858 141.547 26.4172 141.608 25.7284L144.201 28.3216C145.396 29.5168 147.361 29.5168 148.556 28.3216L148.637 28.2405C149.164 27.7138 149.448 27.0655 149.529 26.3767L149.569 26.4172C150.765 27.6125 152.73 27.6125 153.925 26.4172L153.986 26.3767Z" fill="#CE915B" transform="matrix(1.01064 0 0 1 788 29)"/><path d="M138.245 27.0047 133.099 21.8591C132.795 21.5754 125.684 14.6875 126.394 10.2914L121.572 5.46983 132.653-5.61164 132.025-6.23966 119.607 6.17888 124.428 11.0004C123.74 15.3966 130.83 22.2642 131.134 22.5681L136.28 27.7138C137.414 28.8483 139.197 28.909 140.412 27.9164 139.622 27.8961 138.832 27.5922 138.245 27.0047Z" fill="#BA7D50" transform="matrix(1.01064 0 0 1 788 29)"/><path d="M166.911 43.7181C165.716 44.9134 165.716 46.8784 166.911 48.0737L166.972 48.1345C166.283 48.1953 165.614 48.4991 165.088 49.0259L165.006 49.1069C163.811 50.3022 163.811 52.2672 165.006 53.4625L172.988 61.4444C171.287 61.1203 168.916 60.9582 167.336 61.9711 166.465 62.5384 165.959 63.369 165.797 64.4629L165.736 64.8478 165.797 65.2125C165.959 66.0634 166.809 68.0892 171.185 68.778 173.576 69.1427 174.812 70.0138 176.007 70.8444 178.256 72.384 180.119 73.3565 185.225 72.7082L188.851 76.3345 201.269 63.9159 196.448 59.0944C197.137 54.6983 190.046 47.8306 189.742 47.5267L184.597 42.381C183.401 41.1858 181.436 41.1858 180.241 42.381L180.16 42.4621C179.633 42.9888 179.329 43.6573 179.269 44.3461L176.675 41.753C175.48 40.5578 173.515 40.5578 172.32 41.753L172.239 41.834C171.712 42.3608 171.428 43.0091 171.347 43.6978L171.307 43.6573C170.112 42.4621 168.147 42.4621 166.951 43.6573L166.911 43.7181Z" fill="#CE915B" transform="matrix(1.01064 0 0 1 788 29)"/><path d="M185.265 43.0293 185.265 59.1552 170.699 59.1552 173.009 61.4647C171.307 61.1405 168.937 60.9784 167.356 61.9914 167.215 62.0927 167.073 62.194 166.951 62.2953L184.981 62.2953C185.549 62.2547 188.405 61.8698 188.425 58.3448L188.425 46.1897 185.265 43.0293Z" fill="#BA7D50" transform="matrix(1.01064 0 0 1 788 29)"/><path d="M172.239 42.0772 172.279 42.1177C172.3 41.9961 172.32 41.8746 172.34 41.753L172.279 41.8138C172.239 41.8543 172.178 41.9151 172.137 41.9759 172.158 42.0164 172.198 42.0366 172.239 42.0772Z" fill="#E9B585" transform="matrix(1.01064 0 0 1 788 29)"/><path d="M189.783 74.7746 186.156 71.1483C181.031 71.8168 179.167 70.8444 176.939 69.2845 175.744 68.4539 174.508 67.603 172.117 67.2181 167.741 66.5293 166.891 64.5034 166.728 63.6526L166.668 63.2879 166.728 62.903C166.749 62.741 166.789 62.5789 166.83 62.4168 166.283 62.9435 165.959 63.6323 165.837 64.4832L165.776 64.8681 165.837 65.2328C165.999 66.0836 166.85 68.1095 171.226 68.7983 173.616 69.1629 174.852 70.034 176.047 70.8647 178.296 72.4043 180.16 73.3767 185.265 72.7284L188.891 76.3547 201.31 63.9362 200.966 63.5918 189.783 74.7746Z" fill="#BA7D50" transform="matrix(1.01064 0 0 1 788 29)"/><path d="M178.094 30.2664 178.012 30.1853C177.486 29.6586 177.182 28.9901 177.121 28.3013L177.06 28.3621C176.088 29.3345 174.609 29.5168 173.434 28.909 173.576 29.375 173.839 29.8207 174.204 30.1853L174.285 30.2664C175.399 31.3806 177.162 31.4616 178.377 30.5095 178.276 30.4284 178.175 30.3474 178.094 30.2664Z" fill="#E9B585" transform="matrix(1.01064 0 0 1 788 29)"/><path d="M182.631 62.2953C183.199 62.2547 186.055 61.8698 186.075 58.3448L186.075 35.1487 175.845 35.1487 175.845 38.3293C177.547 39.4638 178.539 41.3073 178.539 43.3737 178.539 46.7164 175.825 49.431 172.482 49.431 169.139 49.431 166.425 46.7164 166.425 43.3737 166.425 41.3276 167.417 39.4638 169.119 38.3293L169.119 35.1487 160.043 35.1487 158.929 35.1487 158.929 45.3591 157.977 45.3591C156.842 43.6573 154.999 42.6647 152.932 42.6647 149.59 42.6647 146.875 45.3793 146.875 48.722 146.875 52.0647 149.59 54.7793 152.932 54.7793 154.978 54.7793 156.842 53.7866 157.977 52.0849L158.929 52.0849 158.929 62.2953 182.631 62.2953 182.631 62.2953Z" fill="#666666" transform="matrix(1.01064 0 0 1 788 29)"/><path d="M167.215 15.5384C165.169 15.5384 163.082 16.531 161.947 18.2328L161.218 18.2328 161.218 8.02241 137.434 8.02241C136.867 8.06293 134.517 8.42759 134.092 11.122L134.092 35.169 145.416 35.169 145.416 31.4616 144.586 30.7931C143.431 29.8612 142.722 28.4228 142.722 26.944 142.722 24.2293 144.93 22.0009 147.665 22.0009 150.38 22.0009 152.608 24.2091 152.608 26.944 152.608 28.4228 151.919 29.8612 150.744 30.7931L149.914 31.4616 149.914 35.169 161.238 35.169 161.238 24.9586 161.968 24.9586C163.102 26.6603 165.169 27.653 167.235 27.653 170.578 27.653 173.292 24.9384 173.292 21.5957 173.272 18.253 170.557 15.5384 167.215 15.5384Z" fill="#E60000" transform="matrix(1.01064 0 0 1 788 29)"/><path d="M182.53 8.02241 160.043 8.02241 160.043 18.2328 162.109 18.2328C163.244 16.531 165.088 15.5384 167.154 15.5384 170.497 15.5384 173.211 18.253 173.211 21.5957 173.211 24.9384 170.497 27.653 167.154 27.653 165.108 27.653 163.244 26.6603 162.109 24.9586L160.043 24.9586 160.043 35.169 169.139 35.169 169.139 38.3496C167.438 39.4841 166.445 41.3276 166.445 43.394 166.445 46.7366 169.159 49.4513 172.502 49.4513 175.845 49.4513 178.559 46.7366 178.559 43.394 178.559 41.3478 177.567 39.4841 175.865 38.3496L175.865 35.169 186.075 35.169 186.075 11.9931C186.055 8.06293 182.53 8.02241 182.53 8.02241Z" fill="#BD0000" transform="matrix(1.01064 0 0 1 788 29)"/><path d="M152.932 42.6647C154.978 42.6647 156.842 43.6573 157.977 45.3591L160.043 45.3591 160.043 35.1487 150.947 35.1487 150.947 33.0823C152.649 31.9478 153.641 30.1043 153.641 28.0379 153.641 24.6953 150.927 21.9806 147.584 21.9806 144.241 21.9806 141.527 24.6953 141.527 28.0379 141.527 30.0638 142.56 31.9478 144.221 33.0823L144.221 35.1487 134.011 35.1487 134.011 58.1422C134.011 58.203 134.011 58.2638 134.011 58.3246 134.011 61.8496 136.887 62.2547 137.455 62.2953L160.043 62.2953 160.043 52.0849 157.977 52.0849C156.842 53.7866 154.999 54.7793 152.932 54.7793 149.59 54.7793 146.875 52.0647 146.875 48.722 146.875 45.3793 149.59 42.6647 152.932 42.6647Z" fill="#4A4D4E" transform="matrix(1.01064 0 0 1 788 29)"/><path d="M137.171 59.1552 137.171 35.1487 134.011 35.1487 134.011 58.1422C134.011 58.203 134.011 58.2638 134.011 58.3448 134.011 61.8698 136.887 62.275 137.455 62.3155L160.043 62.3155 160.043 59.1552 137.171 59.1552Z" fill="#333333" transform="matrix(1.01064 0 0 1 788 29)"/><path d="M182.53 8.02241 160.185 8.02241 160.185 11.1828 182.915 11.1828 182.915 35.169 186.055 35.169 186.055 11.9931C186.055 8.06293 182.53 8.02241 182.53 8.02241Z" fill="#990000" transform="matrix(1.01064 0 0 1 788 29)"/><path d="M186.055 58.3448 186.055 35.1487 182.915 35.1487 182.915 59.1552 160.063 59.1552 160.063 62.3155 182.611 62.3155C183.178 62.2547 186.055 61.8698 186.055 58.3448Z" fill="#4A4D4E" transform="matrix(1.01064 0 0 1 788 29)"/><path d="M137.434 8.02241C136.827 8.08319 134.031 8.48836 134.031 11.9931 134.031 12.0539 134.031 12.1147 134.031 12.1754L134.031 35.169 137.191 35.169 137.191 11.1625 160.043 11.1625 160.043 8.02241 137.434 8.02241 137.434 8.02241Z" fill="#BD0000" transform="matrix(1.01064 0 0 1 788 29)"/><path d="M123.132-16.369 122.99-16.2272C122.97-16.1866 122.95-16.1866 122.95-16.1866L122.95-16.1866 111.422-4.65948 109.457-2.6944 109.457-2.6944C109.457-2.6944 109.437-2.67414 109.417-2.65388L109.275-2.51207C108.971-2.16767 108.485-1.4181 109.234-0.546983L111.747 2.02586 115.028 5.30776 117.581 7.86034C118.432 8.60991 119.202 8.12371 119.546 7.81983L119.688 7.67802C119.708 7.6375 119.728 7.6375 119.728 7.6375L119.728 7.6375 121.694 5.67241 133.241-5.875 133.241-5.875C133.241-5.875 133.261-5.89526 133.281-5.91552L133.423-6.05733C133.727-6.40172 134.213-7.15129 133.464-8.02241L130.911-10.575 127.629-13.8569 125.097-16.4095C124.246-17.159 123.476-16.6728 123.132-16.369Z" fill="#E60000" transform="matrix(1.01064 0 0 1 788 29)"/><path d="M197.765-16.369 197.906-16.2272C197.927-16.1866 197.947-16.1866 197.947-16.1866L197.947-16.1866 209.474-4.65948 211.439-2.6944 211.439-2.6944C211.439-2.6944 211.459-2.67414 211.48-2.65388L211.622-2.51207C211.925-2.16767 212.412-1.4181 211.662-0.546983L209.15 2.02586 205.868 5.30776 203.316 7.86034C202.465 8.60991 201.695 8.12371 201.35 7.81983L201.209 7.67802C201.188 7.6375 201.168 7.6375 201.168 7.6375L201.168 7.6375 199.203 5.67241 187.656-5.875 187.656-5.875C187.656-5.875 187.635-5.89526 187.615-5.91552L187.473-6.05733C187.169-6.40172 186.683-7.15129 187.433-8.02241L189.985-10.575 193.267-13.8569 195.8-16.4095C196.65-17.159 197.42-16.6728 197.765-16.369Z" fill="#BD0000" transform="matrix(1.01064 0 0 1 788 29)"/><path d="M120.194 5.30776 116.912 2.02586 114.36-0.526724C113.61-1.37759 114.097-2.14741 114.4-2.49181L114.542-2.63362C114.583-2.65388 114.583-2.67414 114.583-2.67414L114.583-2.67414 116.548-4.63922 126.718-14.7888 125.097-16.4095C124.246-17.159 123.476-16.6728 123.132-16.369L122.99-16.2272C122.97-16.1866 122.95-16.1866 122.95-16.1866L122.95-16.1866 111.422-4.65948 109.457-2.6944 109.457-2.6944C109.457-2.6944 109.437-2.67414 109.417-2.65388L109.275-2.51207C108.971-2.16767 108.485-1.4181 109.234-0.546983L111.747 2.02586 115.028 5.30776 117.581 7.86034C118.432 8.60991 119.202 8.12371 119.546 7.81983L119.688 7.67802C119.708 7.6375 119.728 7.6375 119.728 7.6375L119.728 7.6375 121.106 6.25991 120.194 5.30776Z" fill="#BD0000" transform="matrix(1.01064 0 0 1 788 29)"/><path d="M204.349 5.65215 192.801-5.875 192.801-5.875C192.801-5.875 192.781-5.89526 192.761-5.91552L192.619-6.05733C192.315-6.40172 191.829-7.15129 192.578-8.02241L195.131-10.575 198.413-13.8569 199.345-14.7888 197.967-16.1664 197.967-16.1664C197.967-16.1664 197.947-16.1866 197.927-16.2069L197.785-16.3487C197.441-16.6526 196.691-17.1388 195.82-16.3892L193.267-13.8366 189.985-10.5547 187.433-8.00216C186.683-7.15129 187.169-6.38147 187.473-6.03707L187.615-5.89526C187.656-5.875 187.656-5.85474 187.656-5.85474L187.656-5.85474 199.183 5.67241 201.148 7.6375 201.148 7.6375C201.148 7.6375 201.168 7.65776 201.188 7.67802L201.33 7.81983C201.675 8.12371 202.424 8.60991 203.295 7.86034L204.916 6.23966 204.349 5.65215Z" fill="#990000" transform="matrix(1.01064 0 0 1 788 29)"/><path d="M123.132 86.4638 122.99 86.322C122.97 86.3017 122.95 86.2815 122.95 86.2815L122.95 86.2815 111.422 74.7543 109.457 72.7892 109.457 72.7892C109.457 72.7892 109.437 72.769 109.417 72.7487L109.275 72.6069C108.971 72.2625 108.485 71.5129 109.234 70.6418L111.787 68.0892 115.069 64.8073 117.622 62.2547C118.472 61.5052 119.242 61.9914 119.587 62.2953L119.728 62.4371C119.749 62.4776 119.769 62.4776 119.769 62.4776L119.769 62.4776 121.734 64.4427 133.261 75.9698 133.261 75.9698C133.261 75.9698 133.281 75.9901 133.302 76.0103L133.444 76.1522C133.747 76.4966 134.234 77.2461 133.484 78.1172L130.931 80.6698 127.65 83.9517 125.097 86.5043C124.246 87.2539 123.476 86.7677 123.132 86.4638Z" fill="#4A4D4E" transform="matrix(1.01064 0 0 1 788 29)"/><path d="M116.568 74.734 114.603 72.769 114.603 72.769C114.603 72.769 114.583 72.7487 114.562 72.7284L114.421 72.5866C114.117 72.2422 113.631 71.4927 114.38 70.6216L116.933 68.069 120.215 64.7871 121.147 63.8552 119.769 62.4776 119.769 62.4776C119.769 62.4776 119.749 62.4573 119.728 62.4371L119.587 62.2953C119.242 61.9914 118.493 61.5052 117.622 62.2547L115.069 64.8073 111.747 68.069 109.194 70.6216C108.444 71.4724 108.931 72.2422 109.234 72.5866L109.376 72.7284C109.417 72.7487 109.417 72.769 109.417 72.769L109.417 72.769 111.382 74.734 122.909 86.2612 122.909 86.2612C122.909 86.2612 122.929 86.2815 122.95 86.3017L123.091 86.4435C123.436 86.7474 124.185 87.2336 125.056 86.484L126.677 84.8634 116.568 74.734Z" fill="#333333" transform="matrix(1.01064 0 0 1 788 29)"/><path d="M197.765 86.4638 197.906 86.322C197.927 86.3017 197.947 86.2815 197.947 86.2815L197.947 86.2815 209.474 74.7543 211.439 72.7892 211.439 72.7892C211.439 72.7892 211.459 72.769 211.48 72.7487L211.622 72.6069C211.925 72.2625 212.412 71.5129 211.662 70.6418L209.109 68.0892 205.828 64.8073 203.275 62.2547C202.424 61.5052 201.654 61.9914 201.31 62.2953L201.168 62.4371C201.148 62.4776 201.128 62.4776 201.128 62.4776L201.128 62.4776 199.162 64.4427 187.656 75.9698 187.656 75.9698C187.656 75.9698 187.635 75.9901 187.615 76.0103L187.473 76.1522C187.169 76.4966 186.683 77.2461 187.433 78.1172L189.985 80.6698 193.267 83.9517 195.82 86.5043C196.65 87.2539 197.42 86.7677 197.765 86.4638Z" fill="#666666" transform="matrix(1.01064 0 0 1 788 29)"/><path d="M198.393 83.972 195.111 80.6901 192.558 78.1375C191.809 77.2866 192.295 76.5168 192.599 76.1724L192.741 76.0306C192.781 76.0103 192.781 75.9901 192.781 75.9901L192.781 75.9901 204.308 64.4629 204.896 63.8754 203.275 62.2547C202.424 61.5052 201.654 61.9914 201.31 62.2953L201.168 62.4371C201.148 62.4776 201.128 62.4776 201.128 62.4776L201.128 62.4776 199.162 64.4427 187.656 75.9698 187.656 75.9698C187.656 75.9698 187.635 75.9901 187.615 76.0103L187.473 76.1522C187.169 76.4966 186.683 77.2461 187.433 78.1172L189.985 80.6698 193.267 83.9517 195.82 86.5043C196.671 87.2539 197.441 86.7677 197.785 86.4638L197.927 86.322C197.947 86.3017 197.967 86.2815 197.967 86.2815L197.967 86.2815 199.345 84.9039 198.393 83.972Z" fill="#4A4D4E" transform="matrix(1.01064 0 0 1 788 29)"/></g></svg>