<svg width="97" height="95" xmlns="http://www.w3.org/2000/svg" xmlns:xlink="http://www.w3.org/1999/xlink" xml:space="preserve" overflow="hidden"><defs><clipPath id="clip0"><rect x="382" y="519" width="97" height="95"/></clipPath></defs><g clip-path="url(#clip0)" transform="translate(-382 -519)"><path d="M50.0049 74.2002C47.6299 72.79 46.1455 70.1924 46.1455 67.3906L46.1455 52.6953C46.1455 51.2852 44.9951 50.1348 43.585 50.1348 42.1748 50.1348 41.0244 51.2852 41.0244 52.6953L41.0244 67.3906C41.0244 70.2109 41.9521 72.9199 43.585 75.1279 44.6055 76.501 45.8857 77.6885 47.3887 78.5791 47.7969 78.8203 48.2422 78.9316 48.6875 78.9316 49.5596 78.9316 50.4131 78.4863 50.8955 77.6699 51.6191 76.4824 51.2109 74.9238 50.0049 74.2002L50.0049 74.2002Z" fill="#4A4D4E" transform="matrix(1.02105 0 0 1 382 519)"/><path d="M43.0283 19.9463C41.915 18.4619 40.4863 17.2188 38.7793 16.3096 37.5361 15.6416 35.9961 16.124 35.3281 17.3672 34.6602 18.6104 35.1426 20.1504 36.3857 20.8184 38.9092 22.1543 40.4678 24.7705 40.4678 27.6279L40.4678 42.4902C40.4678 43.9004 41.6182 45.0508 43.0283 45.0508 44.4385 45.0508 45.5889 43.9004 45.5889 42.4902L45.5889 27.6279C45.5889 24.7891 44.6611 22.1172 43.0283 19.9463L43.0283 19.9463Z" fill="#4A4D4E" transform="matrix(1.02105 0 0 1 382 519)"/><path d="M82.0674 50.1348 76.9648 50.1348 76.9648 36.5156 82.0674 33.9922 82.0674 50.1348Z" fill="#BD0000" transform="matrix(1.02105 0 0 1 382 519)"/><path d="M94.7031 32.7676C95.1299 33.5654 95.0928 34.5117 94.6475 35.291 94.1836 36.0518 93.3486 36.5342 92.458 36.5342L76.9648 36.5342 76.9648 23.75C76.9648 22.3398 78.1152 21.1895 79.5254 21.1895L92.458 21.1895C93.3486 21.1895 94.1836 21.6533 94.6475 22.4326 95.1113 23.1934 95.1299 24.1582 94.7031 24.9561L92.625 28.8525 94.7031 32.7676Z" fill="#E60000" transform="matrix(1.02105 0 0 1 382 519)"/><path d="M76.9463 50.9883C76.9463 52.3984 75.7959 53.5488 74.3857 53.5488L70.7119 53.5488C68.4668 53.5488 66.6299 55.3857 66.6299 57.6309L66.6299 67.5391C66.6299 72.3076 64.0137 76.6494 59.7832 78.876 59.4121 79.0801 59.0039 79.1729 58.5957 79.1729 57.6865 79.1729 56.7959 78.6719 56.332 77.7998 55.6826 76.5566 56.1465 75.0166 57.4082 74.3486 59.9502 73.0127 61.5273 70.3965 61.5273 67.5205L61.5273 57.5938C61.5273 52.5283 65.6465 48.4092 70.7119 48.4092L74.4043 48.4092C75.8145 48.4277 76.9463 49.5781 76.9463 50.9883L76.9463 50.9883Z" fill="#4A4D4E" transform="matrix(1.02105 0 0 1 382 519)"/><path d="M16.4395 45.0322 12.7656 45.0322C11.3555 45.0322 10.2051 43.8818 10.2051 42.4717 10.2051 41.0615 11.3555 39.9111 12.7656 39.9111L16.4395 39.9111C18.6846 39.9111 20.5215 38.0742 20.5215 35.8291L20.5215 27.7578C20.5215 23.1006 23.0078 18.7773 27.0342 16.4766 28.2588 15.7715 29.8174 16.1982 30.5225 17.4229 31.2275 18.6475 30.8008 20.2061 29.5762 20.9111 27.1455 22.3027 25.624 24.9375 25.624 27.7578L25.624 35.8291C25.624 40.9131 21.5049 45.0322 16.4395 45.0322L16.4395 45.0322Z" fill="#4A4D4E" transform="matrix(1.02105 0 0 1 382 519)"/><path d="M87.1699 50.9883C87.1699 55.2205 83.739 58.6514 79.5068 58.6514 75.2746 58.6514 71.8438 55.2205 71.8438 50.9883 71.8438 46.7561 75.2746 43.3252 79.5068 43.3252 83.739 43.3252 87.1699 46.7561 87.1699 50.9883Z" fill="#BD0000" transform="matrix(1.02105 0 0 1 382 519)"/><path d="M15.3262 42.4717C15.3262 46.7039 11.8953 50.1348 7.66309 50.1348 3.43088 50.1348-1.41561e-07 46.7039-1.41561e-07 42.4717-1.41561e-07 38.2395 3.43088 34.8086 7.66309 34.8086 11.8953 34.8086 15.3262 38.2395 15.3262 42.4717Z" fill="#E60000" transform="matrix(1.02105 0 0 1 382 519)"/><path d="M40.8574 17.2744C40.8574 21.5066 37.4265 24.9375 33.1943 24.9375 28.9621 24.9375 25.5312 21.5066 25.5312 17.2744 25.5312 13.0422 28.9621 9.61133 33.1943 9.61133 37.4265 9.61133 40.8574 13.0422 40.8574 17.2744Z" fill="#E60000" transform="matrix(1.02105 0 0 1 382 519)"/><path d="M61.2936 77.7351C61.2936 81.9678 57.8623 85.3991 53.6296 85.3991 49.3969 85.3991 45.9656 81.9678 45.9656 77.7351 45.9656 73.5024 49.3969 70.0711 53.6296 70.0711 57.8623 70.0711 61.2936 73.5024 61.2936 77.7351Z" fill="#E60000" transform="matrix(0.0723725 -0.997378 1.01838 0.0708803 353.72 644.705)"/><path d="M43.585 39.9297 46.9434 47.0176 43.585 55.2373C39.3545 55.2373 35.9219 51.8047 35.9219 47.5742 35.9219 43.3438 39.3545 39.9297 43.585 39.9297Z" fill="#E60000" transform="matrix(1.02105 0 0 1 382 519)"/><path d="M51.2481 47.5928C51.2481 51.8232 47.8154 55.2559 43.585 55.2559L43.585 39.9297C47.8154 39.9297 51.2481 43.3623 51.2481 47.5928Z" fill="#BD0000" transform="matrix(1.02105 0 0 1 382 519)"/><path d="M-44.0674 62.6221-44.3271 49.8008C-39.7998 49.7451-33.8809 48.7988-28.7969 48.3721-28.8154 47.9268-28.7598 47.5-28.6299 47.0732-28.5371 46.6836-28.3701 46.2939-28.166 45.96-27.4053 44.791-25.3457 44.3271-24.585 45.7002L-20.7627 56.666-22.8779 64.8672C-22.9521 65.2012-23.1191 65.5166-23.3047 65.8135-23.3047 65.8135-23.9727 66.9268-24.6221 67.8916L-41.6738 67.8916C-43.1582 66.5186-44.0117 64.626-44.0674 62.6221L-44.0674 62.6221Z" fill="#D19F79" transform="matrix(1.02105 0 0 1 382 519)"/><path d="M-23.3232 72.9199C-23.3047 73.4023-23.8057 73.792-24.4365 73.8105L-26.6631 73.8105-42.1748 73.9404C-42.8057 73.9404-43.3252 73.5508-43.3252 73.0869L-43.3994 68.6338C-43.3994 68.1514-42.8984 67.7617-42.2676 67.7617L-26.6631 67.6318-24.5293 67.6133C-23.8799 67.6133-23.3789 68.0029-23.3604 68.4668L-23.3232 72.9199Z" fill="#EBEBEB" transform="matrix(1.02105 0 0 1 382 519)"/><path d="M-23.3232 72.9199C-23.3047 73.4023-23.8057 73.792-24.4365 73.8105L-26.6631 73.8105-26.6631 67.6318-24.5293 67.6133C-23.8799 67.6133-23.3789 68.0029-23.3604 68.4668L-23.3232 72.9199Z" fill="#AFAFAF" transform="matrix(1.02105 0 0 1 382 519)"/><path d="M-21.4121 84.2383-41.7666 84.2383C-34.9014 84.2383-28.8896 80.4717-25.5684 73.7734L-21.5791 73.7549-21.4121 84.2383Z" fill="#BD0000" transform="matrix(1.02105 0 0 1 382 519)"/><path d="M-25.5684 73.7734C-28.8896 80.4717-34.9014 84.2383-41.7666 84.2383L-44.9209 84.2383-45.0879 73.9219-25.5684 73.7734Z" fill="#E60000" transform="matrix(1.02105 0 0 1 382 519)"/><path d="M-50.7656 52.8252-46.2568 63.0859-19.8164 51.4521C-18.5176 50.8955-17.9424 49.374-18.499 48.0938-18.499 48.0938-18.499 48.0938-18.499 48.0752L-29.9287 22.0615-40.5791 26.7559C-40.8018 26.8486-41.043 26.7559-41.1357 26.5332-41.1543 26.459-41.1729 26.3848-41.1543 26.292-41.0244 25.1787-40.876 23.0635-41.6367 21.7275-43.0283 19.2412-46.1641 18.3506-48.6504 19.7422-51.1367 21.1338-52.0273 24.2695-50.6357 26.7559-49.9678 27.9434-48.8545 28.8154-47.5557 29.2051-47.3887 29.2422-47.2773 29.4092-47.3145 29.5762-47.333 29.6875-47.4072 29.7617-47.5 29.8174L-58.6699 34.7158-53.7715 45.8672C-53.7158 46.0342-53.5303 46.1084-53.3818 46.0527-53.2891 46.0156-53.1963 45.9229-53.1777 45.8301-52.3799 43.084-49.541 41.5068-46.7949 42.3047-44.0488 43.1025-42.4717 45.9414-43.2695 48.6875-43.6406 50.0049-44.5312 51.0996-45.7188 51.7676-47.0732 52.5098-49.1885 52.3799-50.3018 52.2314-50.543 52.2129-50.7471 52.3984-50.7656 52.6397-50.8027 52.6953-50.8027 52.751-50.7656 52.8252L-50.7656 52.8252Z" fill="#BD0000" transform="matrix(1.02105 0 0 1 382 519)"/><path d="M-50.209 54.0869-46.2568 63.0859-19.8164 51.4521C-18.5176 50.8955-17.9424 49.374-18.499 48.0938-18.499 48.0938-18.499 48.0938-18.499 48.0752L-18.9443 47.0547C-20.0762 47.6484-21.2451 48.2051-22.4326 48.7246-31.1719 52.584-40.6719 54.4023-50.209 54.0869Z" fill="#990000" transform="matrix(1.02105 0 0 1 382 519)"/><path d="M-31.4131 59.6719C-31.1348 59.0781-30.8193 58.4287-30.4297 57.7422-29.3164 55.8125-27.4053 55.0332-27.4053 55.0332-27.4053 55.0332-28.2402 50.0049-28.5 48.335-28.6855 47.166-28.4629 45.96-27.8691 44.9209-27.0713 43.6592-24.9561 43.1396-24.1953 44.5869L-20.5215 56.0723-22.8408 64.7744" fill="#D19F79" transform="matrix(1.02105 0 0 1 382 519)"/><path d="M-60.8779 36.9238-60.6182 49.7451C-65.1455 49.7822-71.0645 50.7471-76.1484 51.1738-76.1484 51.6191-76.2041 52.0459-76.3154 52.4727-76.4082 52.8623-76.5752 53.2334-76.7793 53.5859-77.54 54.7549-79.5996 55.2188-80.3604 53.8457L-84.1641 42.8799-82.0488 34.6787C-81.9746 34.3447-81.8076 34.0107-81.6221 33.7324-81.6221 33.7324-80.9541 32.6377-80.3047 31.6729L-63.2529 31.6729C-61.7871 33.0088-60.915 34.9014-60.8779 36.9238Z" fill="#EFCDB1" transform="matrix(1.02105 0 0 1 382 519)"/><path d="M-61.5459 30.9121-61.6201 26.4404C-61.6201 25.958-62.1396 25.5869-62.7705 25.5869L-80.5088 25.7168C-81.1396 25.7168-81.6406 26.1064-81.6406 26.5889L-81.5664 31.042C-81.5664 31.5244-81.0469 31.9141-80.416 31.8955L-62.6777 31.7656C-62.0469 31.7842-61.5459 31.3945-61.5459 30.9121L-61.5459 30.9121Z" fill="#CCCCCC" transform="matrix(1.02105 0 0 1 382 519)"/><path d="M-78.2822 31.877-80.7871 31.877C-81.251 31.877-81.6406 31.4873-81.6406 31.0234L-81.6406 31.0049-81.6406 26.7744C-81.6406 26.2178-81.1768 25.7539-80.6201 25.7539L-78.3008 25.7539-78.3008 31.877Z" fill="#AFAFAF" transform="matrix(1.02105 0 0 1 382 519)"/><path d="M-83.5518 13.6562-63.1973 13.6562C-70.0625 13.6562-76.0742 19.0557-79.3955 25.7539L-83.4033 25.7725-83.5518 13.6562Z" fill="#333333" transform="matrix(1.02105 0 0 1 382 519)"/><path d="M-79.377 25.7725C-76.0557 19.0557-70.0439 13.6748-63.1787 13.6748L-60.0244 13.6748-59.876 25.624-79.377 25.7725Z" fill="#4A4D4E" transform="matrix(1.02105 0 0 1 382 519)"/><path d="M-43.4365 45.6816C-42.7129 48.001-43.7148 50.5059-45.8115 51.7119-47.166 52.4541-49.2812 52.3613-50.3945 52.2129-50.6357 52.1943-50.8398 52.3428-50.8584 52.584-50.877 52.6582-50.8584 52.7324-50.8398 52.8066L-46.7949 61.8428C-46.3867 62.752-46.7949 63.8281-47.7041 64.2363L-57.1484 68.4668C-57.2969 68.541-57.4824 68.4854-57.5752 68.3369-57.6123 68.2441-57.6123 68.1328-57.5752 68.0586-56.3135 65.498-57.3896 62.418-59.9502 61.1562-62.5107 59.8945-65.5908 60.9707-66.8525 63.5312-67.4463 64.7373-67.5391 66.1475-67.1123 67.4277-66.6299 68.8936-64.96 70.1924-64.0322 70.8604-63.8467 71.0088-63.791 71.2871-63.958 71.4727-63.9951 71.5283-64.0508 71.5654-64.1064 71.6025L-74.7383 76.3525-86.5205 50.0049C-87.0957 48.7061-86.5205 47.1846-85.2217 46.6094L-60.2842 35.458C-59.5234 35.1055-58.6143 35.4395-58.2617 36.2188-58.2617 36.2188-58.2617 36.2373-58.2432 36.2373-57.0928 38.8164-54.8662 43.7891-53.9199 45.9043-53.8643 46.0713-53.6787 46.1455-53.5117 46.0898-53.4189 46.0527-53.3262 45.96-53.3262 45.8486-52.5654 43.1025-49.708 41.4883-46.9619 42.2676-45.292 42.7129-43.9561 44.0117-43.4365 45.6816L-43.4365 45.6816Z" fill="#E60000" transform="matrix(1.02105 0 0 1 382 519)"/><path d="M-45.8115 51.7119C-47.166 52.4541-49.2812 52.3613-50.3945 52.2129-50.6357 52.1943-50.8398 52.3428-50.8584 52.584-50.877 52.6582-50.8584 52.7324-50.8398 52.8066L-46.7949 61.8428C-46.3867 62.752-46.7949 63.8281-47.7041 64.2363L-57.167 68.4854C-57.3154 68.5596-57.501 68.5039-57.5938 68.3369-57.6309 68.2441-57.6309 68.1328-57.5752 68.0586-56.3135 65.498-57.3896 62.418-59.9502 61.1562-62.5107 59.8945-65.5908 60.9707-66.8525 63.5312-67.4463 64.7373-67.5391 66.1475-67.1123 67.4277-66.6299 68.8936-64.96 70.2109-64.0322 70.8604-63.8467 71.0088-63.791 71.2871-63.958 71.4727-63.9951 71.5283-64.0508 71.5654-64.1064 71.6025L-74.7383 76.3525-77.5029 70.1553C-68.5039 63.5498-62.5107 51.7305-62.5107 38.2598-62.5107 37.6475-62.5293 37.0537-62.5479 36.4414L-60.3027 35.4395C-59.542 35.0869-58.6328 35.4209-58.2803 36.2002-58.2803 36.2002-58.2803 36.2188-58.2617 36.2188-57.1113 38.7979-54.8848 43.7705-53.9385 45.8857-53.8828 46.0527-53.6973 46.127-53.5303 46.0713-53.4375 46.0342-53.3447 45.9414-53.3447 45.8301-52.584 43.084-49.7266 41.4697-46.9805 42.249-45.292 42.7129-43.9561 44.0117-43.4551 45.6816-42.7129 48.001-43.6963 50.4873-45.8115 51.7119L-45.8115 51.7119Z" fill="#BD0000" transform="matrix(1.02105 0 0 1 382 519)"/><path d="M-73.5322 39.874C-73.8105 40.4678-74.126 41.1172-74.5342 41.8037-75.6289 43.7334-77.5586 44.5127-77.5586 44.5127-77.5586 44.5127-76.7236 49.541-76.4639 51.2109-76.2783 52.3799-76.501 53.5859-77.0947 54.625-77.8926 55.8682-80.0078 56.4062-80.7686 54.959L-84.4424 43.4551-82.123 34.7715" fill="#EFCDB1" transform="matrix(1.02105 0 0 1 382 519)"/><path d="M-70.6562 78.5605-69.209 77.7998-67.3164 81.4551-68.7637 82.2158-70.6562 78.5605Z" fill="#E60000" transform="matrix(1.02105 0 0 1 382 519)"/><path d="M-82.457 81.5293-80.5645 77.874-79.1172 78.6348-81.0098 82.29-82.457 81.5293Z" fill="#E60000" transform="matrix(1.02105 0 0 1 382 519)"/><path d="M-75.7773 84.2754-75.6846 80.1562-74.0518 80.1934-74.1445 84.3125-75.7773 84.2754Z" fill="#E60000" transform="matrix(1.02105 0 0 1 382 519)"/><path d="M-36.0332 16.6992-34.5859 15.9385-32.6934 19.5938-34.1406 20.3545-36.0332 16.6992Z" fill="#E60000" transform="matrix(1.02105 0 0 1 382 519)"/><path d="M-24.2139 19.6494-22.3213 15.9941-20.874 16.7549-22.7666 20.4102-24.2139 19.6494Z" fill="#E60000" transform="matrix(1.02105 0 0 1 382 519)"/><path d="M-29.4277 17.9238-29.335 13.8047-27.7021 13.8418-27.7949 17.9609-29.4277 17.9238Z" fill="#E60000" transform="matrix(1.02105 0 0 1 382 519)"/></g></svg>