<svg width="95" height="94" xmlns="http://www.w3.org/2000/svg" xmlns:xlink="http://www.w3.org/1999/xlink" xml:space="preserve" overflow="hidden"><g transform="translate(-466 -493)"><path d="M51.4062 54.6742 51.4062 45.5312 77.8438 45.5312 77.8438 63.4867C77.3113 63.2848 76.7422 63.1746 76.173 63.1562 72.9234 63.1562 70.298 65.7816 70.298 69.0312 70.298 72.2809 72.9234 74.9062 76.173 74.9062 76.7422 74.8879 77.3113 74.7777 77.8438 74.5758L77.8438 82.25 70.1695 82.25C70.3715 81.7176 70.4816 81.1484 70.5 80.5793 70.5 77.3297 67.8746 74.7043 64.625 74.7043 61.3754 74.7043 58.75 77.3297 58.75 80.5793 58.7684 81.1484 58.8785 81.7176 59.0805 82.25L51.4062 82.25 38.8301 69.3984 51.4062 54.6742Z" fill="#E60000" transform="matrix(1.01064 0 0 1 466 493)"/><path d="M49.7355 74.9062C50.3047 74.8879 50.8738 74.7777 51.4062 74.5758L51.4062 82.25 43.732 82.25C43.934 82.7824 44.0441 83.3516 44.0625 83.9207 44.0625 87.1703 41.4371 89.7957 38.1875 89.7957 34.9379 89.7957 32.3125 87.1703 32.3125 83.9207 32.3309 83.3516 32.441 82.7824 32.643 82.25L24.9688 82.25 24.9688 74.5758C24.4363 74.7777 23.8672 74.8879 23.298 74.9062 20.0484 74.9062 17.423 72.2809 17.423 69.0312 17.423 65.7816 20.0484 63.1562 23.298 63.1562 23.8672 63.1746 24.4363 63.2848 24.9688 63.4867L24.9688 54.3438 32.643 54.3438C32.441 54.8762 32.3309 55.4453 32.3125 56.0145 32.3125 59.2641 34.9379 61.8895 38.1875 61.8895 41.4371 61.8895 44.0625 59.2641 44.0625 56.0145 44.0441 55.4453 43.934 54.8762 43.732 54.3438L51.4062 54.3438 51.4062 63.4867C50.8738 63.2848 50.3047 63.1746 49.7355 63.1562 46.4859 63.1562 43.8605 65.7816 43.8605 69.0312 43.8605 72.2809 46.4859 74.9062 49.7355 74.9062Z" fill="#990000" transform="matrix(1.01064 0 0 1 466 493)"/><path d="M79.5145 45.5312C78.9453 45.5129 78.3762 45.4027 77.8438 45.2008L77.8438 54.3438 70.1695 54.3438C70.3715 53.8113 70.4816 53.2422 70.5 52.673 70.5 49.4234 67.8746 46.798 64.625 46.798 61.3754 46.798 58.75 49.4234 58.75 52.673 58.7684 53.2422 58.8785 53.8113 59.0805 54.3438L51.4062 54.3438 51.4062 45.2008C50.8738 45.4027 50.3047 45.5129 49.7355 45.5312 46.4859 45.5312 43.8605 42.9059 43.8605 39.6562 43.8605 36.4066 46.4859 33.7812 49.7355 33.7812 50.3047 33.7996 50.8738 33.9098 51.4062 34.1117L51.4062 24.9688 59.0805 24.9688C58.8785 25.5012 58.7684 26.0703 58.75 26.6395 58.75 29.8891 61.3754 32.5145 64.625 32.5145 67.8746 32.5145 70.5 29.8891 70.5 26.6395 70.4816 26.0703 70.3715 25.5012 70.1695 24.9688L77.8438 24.9688 77.8438 34.1117C78.3762 33.9098 78.9453 33.7996 79.5145 33.7812 82.7641 33.7812 85.3895 36.4066 85.3895 39.6562 85.3895 42.9059 82.7641 45.5312 79.5145 45.5312Z" fill="#BD0000" transform="matrix(1.01064 0 0 1 466 493)"/><path d="M48.4688 4.40625 52.875 8.8125 41.125 20.5625 30.8438 10.2812 10.2812 30.8438 14.6875 35.25 30.8438 19.0938 41.125 29.375 57.2812 13.2188 61.6875 17.625 61.6875 4.40625 48.4688 4.40625Z" fill="#E60000" transform="matrix(1.01064 0 0 1 466 493)"/><path d="M38.1875 39.6562C38.1875 44.5233 34.242 48.4688 29.375 48.4688 24.508 48.4688 20.5625 44.5233 20.5625 39.6562 20.5625 34.7892 24.508 30.8438 29.375 30.8438 34.242 30.8438 38.1875 34.7892 38.1875 39.6562Z" fill="#666666" transform="matrix(1.01064 0 0 1 466 493)"/><path d="M33.7812 38.1875 30.8438 38.1875 30.8438 35.25 27.9062 35.25 27.9062 38.1875 24.9688 38.1875 24.9688 41.125 27.9062 41.125 27.9062 44.0625 30.8438 44.0625 30.8438 41.125 33.7812 41.125 33.7812 38.1875Z" fill="#4A4D4E" transform="matrix(1.01064 0 0 1 466 493)"/><path d="M66.0938 17.625 69.0312 17.625 69.0312 20.5625 66.0938 20.5625 66.0938 17.625Z" fill="#4A4D4E" transform="matrix(1.01064 0 0 1 466 493)"/><path d="M66.0938 11.75 69.0312 11.75 69.0312 14.6875 66.0938 14.6875 66.0938 11.75Z" fill="#4A4D4E" transform="matrix(1.01064 0 0 1 466 493)"/></g></svg>