<svg width="94" height="94" xmlns="http://www.w3.org/2000/svg" xmlns:xlink="http://www.w3.org/1999/xlink" xml:space="preserve" overflow="hidden"><defs><clipPath id="clip0"><rect x="95" y="524" width="94" height="94"/></clipPath></defs><g clip-path="url(#clip0)" transform="translate(-95 -524)"><path d="M97.9375 581.281 102.344 591.562 97.9375 597.438 102.344 603.312 97.9375 613.594 128.781 597.438 97.9375 581.281Z" fill="#E60000"/><path d="M102.344 603.312 128.781 597.438 102.344 591.562 97.9375 597.438 102.344 603.312Z" fill="#BD0000"/><path d="M186.062 550.438C186.062 562.605 176.199 572.469 164.031 572.469 151.864 572.469 142 562.605 142 550.438 142 538.27 151.864 528.406 164.031 528.406 176.199 528.406 186.062 538.27 186.062 550.438Z" fill="#990000"/><path d="M181.124 536.539C182.501 539.422 183.29 542.616 183.29 546.031 183.29 558.203 173.431 568.062 161.259 568.062 154.356 568.062 148.205 564.886 144.166 559.929 147.71 567.328 155.255 572.469 164.031 572.469 176.204 572.469 186.062 562.61 186.062 550.438 186.062 545.168 184.208 540.34 181.124 536.539Z" fill="#BD0000"/><path d="M178.719 550.438C178.719 558.549 172.143 565.125 164.031 565.125 155.92 565.125 149.344 558.549 149.344 550.438 149.344 542.326 155.92 535.75 164.031 535.75 172.143 535.75 178.719 542.326 178.719 550.438Z" fill="#BD0000"/><path d="M171.375 550.438C171.375 554.493 168.087 557.781 164.031 557.781 159.975 557.781 156.688 554.493 156.688 550.438 156.688 546.382 159.975 543.094 164.031 543.094 168.087 543.094 171.375 546.382 171.375 550.438Z" fill="#E60000"/><path d="M173.578 598.906 131.719 598.906 131.719 595.969 173.578 595.969C178.039 595.969 181.656 592.352 181.656 587.891 181.656 583.429 178.039 579.812 173.578 579.812L125.109 579.812C116.609 579.812 109.688 572.891 109.688 564.391 109.688 555.89 116.609 548.969 125.109 548.969L164.031 548.969 164.031 551.906 125.109 551.906C118.225 551.906 112.625 557.506 112.625 564.391 112.625 571.275 118.225 576.875 125.109 576.875L173.578 576.875C179.655 576.875 184.594 581.814 184.594 587.891 184.594 593.968 179.655 598.906 173.578 598.906Z" fill="#666666"/><path d="M131.296 555.89 129.222 553.816 132.582 550.456 129.222 547.096 131.296 545.021 136.749 550.474 131.296 555.89Z" fill="#E60000"/><path d="M160.671 555.89 158.597 553.816 161.957 550.456 158.597 547.096 160.671 545.021 166.124 550.474 160.671 555.89Z" fill="#FFFFFF"/><path d="M145.36 583.797 139.925 578.344 145.378 572.891 147.453 574.966 144.075 578.344 147.434 581.703 145.36 583.797Z" fill="#E60000"/><path d="M156.265 602.89 154.191 600.816 157.55 597.456 154.191 594.096 156.265 592.021 161.718 597.474 156.265 602.89Z" fill="#E60000"/><path d="M97.9375 597.438 128.781 597.438 102.344 603.312 97.9375 597.438Z" fill="#E60000"/><path d="M38.4348 611.372C35.7359 611.868 32.9453 612.125 30.0996 612.125 4.78204 612.125-15.707 591.709-15.8906 566.447-16.0559 541.129 4.48828 520.346 29.7875 520.181 29.8977 520.181 30.0262 520.181 30.1363 520.181 31.55 520.181 32.6883 521.338 32.6883 522.752L32.6883 522.807C32.6883 545.389 50.9926 563.675 73.5563 563.675 74.9148 563.675 76.0164 564.776 76.0164 566.135L76.0164 566.153C76.0164 578.491 71.1695 589.672 63.2566 597.933 63.1465 598.062 62.9996 598.135 62.8344 598.172 55.0684 599.861 42.2168 608.894 39.5363 610.858 39.2242 611.115 38.857 611.299 38.4348 611.372L38.4348 611.372Z" fill="#4A4D4E"/><path d="M76.0531 566.153 30.0812 566.153C28.5574 566.153 27.3273 564.923 27.3273 563.399L27.3273 522.953C27.3273 521.43 28.5574 520.2 30.0629 520.2L30.0996 520.2C55.4723 520.181 76.0531 540.762 76.0531 566.153Z" fill="#EBEBEB"/><path d="M27.2355 563.307C28.8145 563.307 30.0996 564.593 30.0996 566.172L30.0996 612.125C4.69024 612.125-15.8906 591.544-15.8906 566.153-15.8906 566.135-15.8906 566.135-15.8906 566.116-15.8906 564.556-14.6055 563.307-13.0449 563.307L27.2355 563.307 27.2355 563.307Z" fill="#E60000"/><path d="M30.0996 520.181 30.0996 566.153-15.8906 566.153C-15.8906 540.762 4.69024 520.181 30.0996 520.181Z" fill="#BD0000"/><path d="M38.3613 566.153 38.3613 563.289C38.3613 556.111 44.1813 550.272 51.3781 550.272L55.3805 550.272C62.559 550.272 68.3973 556.092 68.3973 563.289L68.3973 566.153 38.3613 566.153Z" fill="#E60000"/><path d="M44.9707 563.216 44.9707 566.153 38.3613 566.153 38.3613 563.289C38.3613 556.111 44.1813 550.272 51.3781 550.272L54.9398 550.272C49.2117 551.668 44.9707 556.937 44.9707 563.216L44.9707 563.216Z" fill="#BD0000"/><path d="M67.975 536.888 67.975 537.971C67.975 539.477 66.7633 540.689 65.2578 540.689 63.7523 540.689 62.5406 539.477 62.5406 537.971L62.5406 536.888C62.5406 535.383 63.7523 534.171 65.2578 534.171 66.7633 534.189 67.975 535.401 67.975 536.888Z" fill="#B76444"/><path d="M65.2945 532.023 65.2945 536.356C65.2945 541.643 61.843 546.141 57.0695 547.684L57.0695 550.566C57.0695 552.604 55.4172 554.275 53.3609 554.275 51.323 554.275 49.6523 552.622 49.6523 550.566L49.6523 547.684C46.2191 546.564 43.4836 543.938 42.1984 540.578 41.9598 540.652 41.7027 540.689 41.4273 540.689 39.9219 540.689 38.7102 539.477 38.7102 537.971L38.7102 536.888C38.7102 535.383 39.9219 534.171 41.4273 534.171L41.4273 532.023C41.4273 525.432 46.7699 520.108 53.3426 520.108 59.952 520.089 65.2945 525.432 65.2945 532.023L65.2945 532.023Z" fill="#CC7851"/><path d="M40.3625 536.356 40.3625 538.522C40.3625 539.404 40.7848 540.193 41.4457 540.689 39.9402 540.689 38.7285 539.477 38.7285 537.971L38.7285 536.888C38.7285 535.383 39.9402 534.171 41.4457 534.171 40.7848 534.685 40.3625 535.456 40.3625 536.356ZM44.6953 536.356 44.6953 532.023C44.6953 525.983 49.175 521.007 54.9949 520.218 54.4625 520.145 53.9117 520.108 53.3609 520.108 46.7699 520.108 41.4457 525.45 41.4457 532.023L41.4457 536.356C41.4457 542.947 46.7883 548.271 53.3609 548.271 53.9117 548.271 54.4625 548.234 54.9949 548.161 49.1566 547.371 44.6953 542.378 44.6953 536.356ZM54.3156 535.768C54.0586 536.025 53.7281 536.172 53.3609 536.172 52.9937 536.172 52.6633 536.025 52.4062 535.768 52.0941 535.456 51.5801 535.456 51.2496 535.768 50.9191 536.08 50.9375 536.595 51.2496 536.925 51.8188 537.494 52.5531 537.806 53.3609 537.806 54.1688 537.806 54.9031 537.494 55.4723 536.925 55.7844 536.613 55.7844 536.099 55.4723 535.768 55.1418 535.456 54.6461 535.456 54.3156 535.768ZM57.198 540.744C56.8859 540.432 56.3719 540.432 56.0414 540.744 54.5727 542.213 52.1676 542.213 50.6805 540.744 50.3684 540.432 49.8543 540.432 49.5238 540.744 49.2117 541.056 49.2117 541.57 49.5238 541.9 50.5703 542.947 51.9656 543.479 53.3426 543.479 54.7195 543.479 56.1148 542.947 57.1613 541.9 57.4918 541.57 57.4918 541.056 57.198 540.744L57.198 540.744Z" fill="#B76444"/><path d="M41.4641 531.344C41.8129 525.065 47.0086 520.089 53.3609 520.089 59.7133 520.089 64.909 525.065 65.2578 531.344 62.5773 528.37 58.2445 526.442 53.3609 526.442 48.4773 526.442 44.1445 528.37 41.4641 531.344Z" fill="#4A4D4E"/><path d="M45.5766 528.241C43.9793 529.049 42.584 530.095 41.4641 531.344 41.8129 525.065 47.0086 520.089 53.3609 520.089 53.9668 520.089 54.5543 520.126 55.1234 520.218 50.6254 520.879 46.9719 524.055 45.5766 528.241L45.5766 528.241Z" fill="#333333"/><path d="M23.6922 535.291C23.6922 544.764 16.018 552.457 6.52618 552.457-2.96562 552.457-10.6398 544.783-10.6398 535.291-10.6398 525.799-2.94727 518.125 6.52618 518.125 15.9996 518.125 23.6922 525.799 23.6922 535.291L23.6922 535.291Z" fill="#4A4D4E"/><path d="M10.143 552.071C8.98633 552.31 7.7746 552.439 6.54453 552.439-2.92891 552.439-10.6215 544.746-10.6215 535.273-10.6215 528.461-6.65586 522.586-0.927734 519.814-3.58984 523.1-5.27891 527.396-5.27891 532.115-5.27891 541.754 1.8996 549.354 10.1981 550.639 10.7672 550.731 11.6301 551.759 10.143 552.071L10.143 552.071Z" fill="#4A4D4E"/><path d="M21.5625 563.399 21.5625 566.153-8.47343 566.153-8.47343 563.399C-8.47343 556.221-2.65352 550.382 4.54336 550.382L8.54571 550.382C15.7242 550.401 21.5625 556.221 21.5625 563.399L21.5625 563.399Z" fill="#E60000"/><path d="M-2.63515 563.399-2.63515 566.153-8.4918 566.153-8.4918 563.399C-8.4918 556.221-2.67188 550.382 4.525 550.382L8.52734 550.382C8.83945 550.382 9.15156 550.401 9.44531 550.419 2.72578 550.896-2.63515 556.533-2.63515 563.399Z" fill="#BD0000"/><path d="M21.1769 536.998 21.1769 538.082C21.1769 539.587 19.9652 540.799 18.4598 540.799 16.9543 540.799 15.7426 539.587 15.7426 538.082L15.7426 536.998C15.7426 535.493 16.9543 534.281 18.4598 534.281 19.9469 534.3 21.1769 535.511 21.1769 536.998Z" fill="#D88867"/><path d="M18.4598 532.133 18.4598 536.466C18.4598 541.754 15.0082 546.252 10.2348 547.794L10.2348 550.676C10.2348 552.714 8.58242 554.385 6.52618 554.385 4.48828 554.385 2.81757 552.732 2.81757 550.676L2.81757 547.794C-0.615623 546.674-3.35117 544.048-4.63633 540.689-4.875 540.762-5.13203 540.799-5.40742 540.799-6.91289 540.799-8.12461 539.587-8.12461 538.082L-8.12461 536.998C-8.12461 535.493-6.91289 534.281-5.40742 534.281L-5.40742 532.133C-5.40742 525.542-0.0648422 520.218 6.50781 520.218 13.0805 520.218 18.4598 525.542 18.4598 532.133Z" fill="#E7A78F"/><path d="M-6.47227 536.466-6.47227 538.632C-6.47227 539.514-6.05 540.303-5.38906 540.799-6.89453 540.799-8.10625 539.587-8.10625 538.082L-8.10625 536.998C-8.10625 535.493-6.89453 534.281-5.38906 534.281-6.03164 534.795-6.47227 535.585-6.47227 536.466ZM-2.12109 536.466-2.12109 532.133C-2.12109 526.093 2.35859 521.118 8.17852 520.328 7.6461 520.255 7.09531 520.218 6.54453 520.218-0.0464859 520.218-5.3707 525.561-5.3707 532.133L-5.3707 536.466C-5.3707 543.057-0.0281219 548.381 6.54453 548.381 7.09531 548.381 7.6461 548.345 8.17852 548.271 2.35859 547.482-2.12109 542.488-2.12109 536.466ZM7.49921 535.897C7.24219 536.154 6.91172 536.301 6.54453 536.301 6.17735 536.301 5.84687 536.154 5.58984 535.897 5.27773 535.585 4.76367 535.585 4.4332 535.897 4.12109 536.209 4.12109 536.723 4.4332 537.054 5.00234 537.623 5.73672 537.935 6.54453 537.935 7.35235 537.935 8.08672 537.623 8.65586 537.054 8.96796 536.741 8.96796 536.227 8.65586 535.897 8.34375 535.566 7.81133 535.566 7.49921 535.897ZM10.3816 540.854C10.0695 540.542 9.55547 540.542 9.225 540.854 7.75625 542.323 5.35117 542.323 3.86407 540.854 3.55195 540.542 3.0379 540.542 2.70742 540.854 2.39532 541.166 2.39532 541.68 2.70742 542.011 3.75391 543.057 5.14922 543.589 6.52618 543.589 7.90313 543.589 9.29844 543.057 10.3449 542.011 10.6937 541.698 10.6937 541.184 10.3816 540.854L10.3816 540.854Z" fill="#D88867"/><path d="M8.8211 525.524 8.28867 529.049C8.25195 529.343 7.97656 529.581 7.68281 529.581L-5.11367 529.581C-4.34258 524.037 0.834763 519.851 6.52618 519.851 12.2359 519.851 18.166 524.275 18.166 529.581L12.4746 529.581C12.2359 529.581 12.034 529.453 11.9238 529.232L9.99609 525.34C9.88593 525.138 9.68398 524.991 9.44531 524.991 9.15156 524.991 8.89453 525.212 8.8211 525.524L8.8211 525.524Z" fill="#4A4D4E"/><path d="M48.2203 534.446C47.3207 534.446 46.5863 533.712 46.5863 532.812 46.5863 531.913 47.3207 531.179 48.2203 531.179 49.1199 531.179 49.8543 531.913 49.8543 532.812 49.8543 533.73 49.1199 534.446 48.2203 534.446ZM60.1355 532.831C60.1355 531.931 59.4012 531.197 58.5016 531.197 57.602 531.197 56.8676 531.931 56.8676 532.831 56.8676 533.73 57.602 534.465 58.5016 534.465 59.4195 534.446 60.1355 533.73 60.1355 532.831ZM1.38555 531.325C0.485939 531.325-0.248436 532.06-0.248436 532.959-0.248436 533.859 0.485939 534.593 1.38555 534.593 2.28516 534.593 3.01953 533.859 3.01953 532.959 3.01953 532.06 2.28516 531.325 1.38555 531.325ZM13.3191 532.941C13.3191 533.841 12.5848 534.575 11.6852 534.575 10.7855 534.575 10.0512 533.841 10.0512 532.941 10.0512 532.041 10.7855 531.307 11.6852 531.307 12.5848 531.325 13.3191 532.041 13.3191 532.941Z" fill="#400E0A"/><path d="M19.5613 576.177 19.5613 595.914C19.5613 596.942 18.7168 597.786 17.6887 597.786L-4.58125 597.786C-5.60938 597.786-6.4539 596.942-6.4539 595.914L-6.4539 576.177C-6.4539 568.999-0.633987 563.161 6.56289 563.161 13.7414 563.161 19.5613 568.98 19.5613 576.177Z" fill="#333333"/><path d="M0.0820312 597.786-4.59961 597.786C-5.62773 597.786-6.47227 596.942-6.47227 595.914L-6.47227 576.177C-6.47227 568.999-0.652344 563.161 6.54453 563.161 7.35235 563.161 8.12344 563.234 8.89453 563.362 2.81757 564.464-1.77226 569.77-1.77226 576.159L-1.77226 595.895C-1.79063 596.942-0.927734 597.786 0.0820312 597.786Z" fill="#4A4D4E"/><path d="M21.5625 608.196 21.5625 611.336C11.8688 609.518 3.2582 604.653-3.25938 597.786-1.09297 596.152 1.62421 595.198 4.54336 595.198L8.54571 595.198C15.7242 595.198 21.5625 601.018 21.5625 608.196L21.5625 608.196Z" fill="#4A4D4E"/><path d="M21.5625 609.261C14.7879 606.654 8.74766 602.395 3.86407 596.942 4.74531 596.226 5.71836 595.638 6.76484 595.198L8.54571 595.198C15.7242 595.198 21.5625 601.018 21.5625 608.214L21.5625 609.261Z" fill="#666666"/><path d="M21.1769 581.814 21.1769 582.897C21.1769 584.402 19.9652 585.614 18.4598 585.614 16.9543 585.614 15.7426 584.402 15.7426 582.897L15.7426 581.814C15.7426 580.308 16.9543 579.096 18.4598 579.096 19.9469 579.096 21.1769 580.308 21.1769 581.814Z" fill="#8B2D15"/><path d="M18.4598 576.93 18.4598 581.263C18.4598 586.55 15.0082 591.048 10.2348 592.591L10.2348 595.473C10.2348 597.511 8.58242 599.182 6.52618 599.182 4.46992 599.182 2.81757 597.529 2.81757 595.473L2.81757 592.591C-0.615623 591.471-3.35117 588.845-4.63633 585.486-4.875 585.559-5.13203 585.596-5.40742 585.596-6.91289 585.596-8.12461 584.384-8.12461 582.879L-8.12461 581.795C-8.12461 580.29-6.91289 579.078-5.40742 579.078L-5.40742 576.912C-5.40742 570.321-0.0648422 564.996 6.50781 564.996 13.1356 565.015 18.4598 570.339 18.4598 576.93Z" fill="#AA4425"/><path d="M-6.47227 581.263-6.47227 583.429C-6.47227 584.311-6.05 585.1-5.38906 585.596-6.89453 585.596-8.10625 584.384-8.10625 582.879L-8.10625 581.795C-8.10625 580.29-6.89453 579.078-5.38906 579.078-6.03164 579.592-6.47227 580.382-6.47227 581.263ZM-2.12109 581.263-2.12109 576.93C-2.12109 570.89 2.35859 565.914 8.17852 565.125 7.6461 565.052 7.09531 565.015 6.54453 565.015-0.0464859 565.015-5.3707 570.357-5.3707 576.93L-5.3707 581.263C-5.3707 587.854-0.0281219 593.178 6.54453 593.178 7.09531 593.178 7.6461 593.141 8.17852 593.068 2.35859 592.279-2.12109 587.303-2.12109 581.263ZM7.49921 580.694C7.24219 580.951 6.91172 581.098 6.54453 581.098 6.17735 581.098 5.84687 580.951 5.58984 580.694 5.27773 580.382 4.76367 580.382 4.4332 580.694 4.12109 581.006 4.12109 581.52 4.4332 581.85 5.00234 582.42 5.73672 582.732 6.54453 582.732 7.35235 582.732 8.08672 582.42 8.65586 581.85 8.96796 581.538 8.96796 581.024 8.65586 580.694 8.34375 580.382 7.81133 580.382 7.49921 580.694ZM10.3816 585.669C10.0695 585.357 9.55547 585.357 9.225 585.669 7.75625 587.138 5.35117 587.138 3.86407 585.669 3.55195 585.357 3.0379 585.357 2.70742 585.669 2.39532 585.981 2.39532 586.495 2.70742 586.826 3.75391 587.872 5.14922 588.405 6.52618 588.405 7.90313 588.405 9.29844 587.872 10.3449 586.826 10.6937 586.495 10.6937 585.981 10.3816 585.669L10.3816 585.669Z" fill="#8B2D15"/><path d="M18.1109 574.36C15.1734 574.36 12.6215 572.781 11.2262 570.431 8.93125 572.854 5.7 574.36 2.10156 574.36-0.340233 574.36-2.59843 573.662-4.52617 572.469-3.71836 568.136 3.91914 564.225 6.54453 564.06 12.2543 564.06 18.4598 568.907 18.1844 574.36 18.166 574.36 18.1477 574.36 18.1109 574.36Z" fill="#333333"/><path d="M-1.57031 573.827C-2.6168 573.515-3.6082 573.056-4.52617 572.487-4.52617 568.209 1.44062 564.134 6.41602 564.078 2.30352 565.713-0.744141 569.366-1.57031 573.827Z" fill="#333333"/><path d="M55.3805 595.198C58.373 595.198 61.1453 596.207 63.3484 597.915 57.4367 604.855 48.5324 609.922 38.3613 611.391L38.3613 608.214C38.3613 601.036 44.1813 595.198 51.3781 595.198L55.3805 595.198 55.3805 595.198Z" fill="#BD0000"/><path d="M44.4016 610.05C42.4555 610.638 40.4359 611.078 38.3613 611.372L38.3613 608.196C38.3613 601.018 44.1813 595.179 51.3781 595.179L53.5262 595.179C48.2203 597.034 44.4016 602.101 44.4016 608.049L44.4016 610.05 44.4016 610.05Z" fill="#BD0000"/><path d="M66.3777 564.097 66.3777 574.231C66.3777 574.745 65.9555 575.168 65.4414 575.168L41.2988 575.168C40.7848 575.168 40.3625 574.745 40.3625 574.231 40.3625 568.118 45.3195 563.161 51.4332 563.161L65.4414 563.161C65.9371 563.161 66.3777 563.583 66.3777 564.097Z" fill="#666666"/><path d="M67.975 581.814 67.975 582.897C67.975 584.402 66.7633 585.614 65.2578 585.614 63.7523 585.614 62.5406 584.402 62.5406 582.897L62.5406 581.814C62.5406 580.308 63.7523 579.096 65.2578 579.096 66.7633 579.096 67.975 580.308 67.975 581.814Z" fill="#D78767"/><path d="M65.2945 576.93 65.2945 581.263C65.2945 586.55 61.843 591.048 57.0695 592.591L57.0695 595.473C57.0695 597.511 55.4172 599.182 53.3609 599.182 51.323 599.182 49.6523 597.529 49.6523 595.473L49.6523 592.591C46.2191 591.471 43.4836 588.845 42.1984 585.486 41.9598 585.559 41.7027 585.596 41.4273 585.596 39.9219 585.596 38.7102 584.384 38.7102 582.879L38.7102 581.795C38.7102 580.29 39.9219 579.078 41.4273 579.078L41.4273 576.912C41.4273 570.321 46.7699 564.996 53.3426 564.996 59.952 565.015 65.2945 570.339 65.2945 576.93Z" fill="#E7A78F"/><path d="M40.3625 581.263 40.3625 583.429C40.3625 584.311 40.7848 585.1 41.4457 585.596 39.9402 585.596 38.7285 584.384 38.7285 582.879L38.7285 581.795C38.7285 580.29 39.9402 579.078 41.4457 579.078 40.7848 579.592 40.3625 580.382 40.3625 581.263ZM44.6953 581.263 44.6953 576.93C44.6953 570.89 49.175 565.914 54.9949 565.125 54.4625 565.052 53.9117 565.015 53.3609 565.015 46.7699 565.015 41.4457 570.357 41.4457 576.93L41.4457 581.263C41.4457 587.854 46.7883 593.178 53.3609 593.178 53.9117 593.178 54.4625 593.141 54.9949 593.068 49.1566 592.279 44.6953 587.303 44.6953 581.263Z" fill="#D78767"/><path d="M51.2496 581.832C50.9375 581.52 50.9375 581.006 51.2496 580.675 51.5617 580.363 52.0758 580.363 52.4062 580.675 52.6633 580.932 52.9937 581.079 53.3609 581.079 53.7281 581.079 54.0586 580.932 54.3156 580.675 54.6277 580.363 55.1418 580.363 55.4723 580.675 55.8027 580.987 55.7844 581.502 55.4723 581.832 54.9031 582.401 54.1688 582.713 53.3609 582.713 52.5531 582.713 51.8004 582.401 51.2496 581.832ZM57.198 585.651C56.8859 585.339 56.3719 585.339 56.0414 585.651 54.5727 587.12 52.1676 587.12 50.6805 585.651 50.3684 585.339 49.8543 585.339 49.5238 585.651 49.2117 585.963 49.2117 586.477 49.5238 586.807 50.5703 587.854 51.9656 588.386 53.3426 588.386 54.7195 588.386 56.1148 587.854 57.1613 586.807 57.4918 586.495 57.4918 585.981 57.198 585.651L57.198 585.651Z" fill="#D88867"/><path d="M65.1109 574.947C62.7977 574.507 60.723 573.405 59.1074 571.826 57.4 572.763 55.4355 573.295 53.3609 573.295 51.268 573.295 49.3219 572.763 47.6145 571.826 45.9805 573.387 43.9059 574.507 41.6109 574.947 41.6109 569.348 47.4676 564.06 53.3609 564.06 59.2543 564.06 65.2945 568.742 65.1109 574.947L65.1109 574.947Z" fill="#666666"/><path d="M52.4613 563.161C45.0074 566.153 46.3109 572.946 45.1359 573.68 44.1262 574.323 42.2719 575.002 41.5559 575.186 41.409 575.223 41.1703 575.186 41.1152 575.168 40.6746 575.094 40.3258 574.709 40.3258 574.231 40.3258 568.118 45.2828 563.161 51.3965 563.161L52.4613 563.161Z" fill="#4A4D4E"/><path d="M1.38555 579.372C0.485939 579.372-0.248436 578.638-0.248436 577.738-0.248436 576.838 0.485939 576.104 1.38555 576.104 2.28516 576.104 3.01953 576.838 3.01953 577.738 3.01953 578.638 2.28516 579.372 1.38555 579.372ZM13.3191 577.738C13.3191 576.838 12.5848 576.104 11.6852 576.104 10.7855 576.104 10.0512 576.838 10.0512 577.738 10.0512 578.638 10.7855 579.372 11.6852 579.372 12.5848 579.372 13.3191 578.638 13.3191 577.738ZM49.8543 577.738C49.8543 576.838 49.1199 576.104 48.2203 576.104 47.3207 576.104 46.5863 576.838 46.5863 577.738 46.5863 578.638 47.3207 579.372 48.2203 579.372 49.1199 579.372 49.8543 578.638 49.8543 577.738ZM60.1355 577.738C60.1355 576.838 59.4012 576.104 58.5016 576.104 57.602 576.104 56.8676 576.838 56.8676 577.738 56.8676 578.638 57.602 579.372 58.5016 579.372 59.4195 579.372 60.1355 578.638 60.1355 577.738Z" fill="#400E0A"/><path d="M49.3035 531.197C49.7441 531.197 50.1113 531.564 50.1113 532.005 50.1113 532.445 49.7441 532.812 49.3035 532.812 48.8629 532.812 48.4957 532.445 48.4957 532.005 48.4957 531.564 48.8629 531.197 49.3035 531.197ZM58.777 532.023C58.777 532.464 59.1441 532.831 59.5848 532.831 60.0254 532.831 60.3926 532.464 60.3926 532.023 60.3926 531.582 60.0254 531.215 59.5848 531.215 59.1441 531.197 58.777 531.564 58.777 532.023ZM1.66094 532.133C1.66094 532.574 2.02813 532.941 2.46875 532.941 2.90937 532.941 3.27656 532.574 3.27656 532.133 3.27656 531.693 2.90937 531.325 2.46875 531.325 2.00977 531.325 1.66094 531.674 1.66094 532.133ZM12.7684 531.325C13.209 531.325 13.5762 531.693 13.5762 532.133 13.5762 532.574 13.209 532.941 12.7684 532.941 12.3277 532.941 11.9605 532.574 11.9605 532.133 11.9605 531.693 12.3094 531.325 12.7684 531.325ZM1.66094 576.93C1.66094 577.371 2.02813 577.738 2.46875 577.738 2.90937 577.738 3.27656 577.371 3.27656 576.93 3.27656 576.489 2.90937 576.122 2.46875 576.122 2.00977 576.122 1.66094 576.489 1.66094 576.93ZM11.9422 576.93C11.9422 577.371 12.3094 577.738 12.75 577.738 13.1906 577.738 13.5578 577.371 13.5578 576.93 13.5578 576.489 13.1906 576.122 12.75 576.122 12.3094 576.122 11.9422 576.489 11.9422 576.93ZM48.4957 576.93C48.4957 577.371 48.8629 577.738 49.3035 577.738 49.7441 577.738 50.1113 577.371 50.1113 576.93 50.1113 576.489 49.7441 576.122 49.3035 576.122 48.8629 576.122 48.4957 576.489 48.4957 576.93ZM58.777 576.93C58.777 577.371 59.1441 577.738 59.5848 577.738 60.0254 577.738 60.3926 577.371 60.3926 576.93 60.3926 576.489 60.0254 576.122 59.5848 576.122 59.1441 576.122 58.777 576.489 58.777 576.93Z" fill="#B76544"/></g></svg>