<svg width="94" height="94" xmlns="http://www.w3.org/2000/svg" xmlns:xlink="http://www.w3.org/1999/xlink" xml:space="preserve" overflow="hidden"><defs><clipPath id="clip0"><rect x="71" y="34" width="94" height="94"/></clipPath></defs><g clip-path="url(#clip0)" transform="translate(-71 -34)"><path d="M73.7906 122.97C80.9141 115.589 102.486 91.7035 108.031 85.5531 108.435 85.1125 108.398 84.4332 107.957 84.0293 107.811 83.8824 107.609 83.809 107.407 83.7723L91.8012 81.202C91.1586 81.0918 90.6996 80.541 90.718 79.8984 90.7363 79.2559 91.2137 78.7418 91.8379 78.65L108.637 76.5203C109.224 76.4469 109.646 75.9145 109.573 75.327 109.555 75.1617 109.5 74.9965 109.408 74.868L93.1781 50.8539C92.8477 50.3582 92.9762 49.6973 93.4719 49.3668 93.6555 49.2383 93.8574 49.1832 94.0777 49.1832 94.3531 49.1832 94.6102 49.2934 94.8121 49.477L114.971 68.4422C115.411 68.8461 116.091 68.8277 116.495 68.4055 116.66 68.2219 116.77 67.9832 116.788 67.7445L118.055 48.4488C118.11 47.5309 118.845 46.8148 119.762 46.7781 120.662 46.7414 121.47 47.3656 121.617 48.2652L124.701 66.0555C124.811 66.643 125.362 67.0285 125.95 66.9367 126.152 66.9 126.317 66.8082 126.482 66.6797L160.392 36.9375C160.759 36.607 161.273 36.5152 161.732 36.6988 162.411 36.9559 162.76 37.727 162.503 38.4062 162.448 38.5715 162.356 38.7 162.246 38.8285L132.945 70.4801C132.541 70.9207 132.577 71.6 133 72.0039 133.202 72.1875 133.477 72.2977 133.752 72.2793L149.303 71.7836C150.037 71.7652 150.661 72.2609 150.827 72.977 150.992 73.7664 150.514 74.5375 149.743 74.7395L134.175 78.8152C133.605 78.9621 133.257 79.5496 133.404 80.1187 133.459 80.3391 133.587 80.541 133.771 80.6879L153.268 95.9996C153.893 96.4953 154.003 97.4133 153.507 98.0375 153.47 98.0742 153.434 98.1293 153.397 98.166 152.938 98.625 152.222 98.7352 151.653 98.4047L131.604 86.9852C131.09 86.6914 130.429 86.875 130.136 87.3891 129.989 87.6461 129.952 87.9582 130.044 88.2336L133.495 99.5062C133.716 100.222 133.33 100.993 132.614 101.25 132.008 101.471 131.329 101.25 130.962 100.718L124.646 91.5566C124.316 91.0609 123.636 90.9508 123.159 91.2812 122.902 91.4648 122.737 91.7402 122.7 92.0523L120.662 110.944C120.589 111.623 120.093 112.174 119.45 112.321 118.588 112.523 117.743 111.991 117.541 111.128 117.523 111.054 117.504 110.981 117.504 110.907L115.687 90.9691C115.632 90.3816 115.118 89.941 114.512 89.9961 114.273 90.0145 114.053 90.1062 113.887 90.2715L75.8652 125.081C75.3512 125.558 74.5617 125.595 73.9926 125.173L73.9559 125.154C73.3133 124.677 73.1848 123.759 73.6805 123.116 73.7172 123.061 73.7539 123.025 73.7906 122.97L73.7906 122.97Z" fill="#E60000"/><path d="M153.654 57.0777C153.048 57.0777 152.552 56.582 152.552 55.9762 152.552 55.6824 152.681 55.3887 152.901 55.1867L153.819 54.3055C154.26 53.8832 154.957 53.9016 155.38 54.3422 155.802 54.7828 155.784 55.4805 155.343 55.9027L154.425 56.784C154.205 56.9676 153.929 57.0777 153.654 57.0777L153.654 57.0777Z" fill="#BD0000"/><path d="M145.759 64.5867C145.154 64.5867 144.658 64.091 144.658 63.4852 144.658 63.1914 144.786 62.8977 145.007 62.6957L151.065 56.9309C151.487 56.5086 152.185 56.5086 152.626 56.9309 153.048 57.3531 153.048 58.0508 152.626 58.4914 152.607 58.5098 152.607 58.5098 152.589 58.5281L146.53 64.293C146.31 64.4766 146.035 64.5867 145.759 64.5867L145.759 64.5867Z" fill="#BD0000"/><path d="M129.254 59.5012C128.648 59.5012 128.153 59.0055 128.153 58.3996 128.153 58.1242 128.263 57.8488 128.446 57.6469L137.736 47.8246C138.159 47.384 138.856 47.3656 139.297 47.7879 139.737 48.2102 139.756 48.9078 139.334 49.3484L139.334 49.3484 130.062 59.1523C129.842 59.3727 129.566 59.5012 129.254 59.5012L129.254 59.5012Z" fill="#BD0000"/><path d="M96.9785 115.314C96.3727 115.314 95.877 114.818 95.877 114.212 95.877 113.937 95.9871 113.661 96.1707 113.459L111.391 97.3582C111.813 96.9176 112.511 96.8992 112.951 97.3215 113.392 97.7438 113.41 98.4414 112.988 98.882L97.768 114.983C97.566 115.204 97.2723 115.314 96.9785 115.314Z" fill="#BD0000"/><path d="M82.75 107.97C82.1441 107.97 81.6484 107.474 81.6484 106.868 81.6484 106.593 81.7586 106.318 81.9422 106.116L93.123 94.2738C93.5453 93.8332 94.243 93.8148 94.6836 94.2371 95.1242 94.6594 95.1426 95.357 94.7203 95.7977L83.5395 107.621C83.3375 107.841 83.0437 107.97 82.75 107.97L82.75 107.97Z" fill="#BD0000"/><path d="M78.7109 112.229C78.1051 112.229 77.6094 111.734 77.6094 111.128 77.6094 110.852 77.7195 110.577 77.9031 110.375L79.225 108.98C79.6473 108.539 80.3449 108.539 80.7855 108.961 81.2078 109.384 81.2262 110.045 80.8223 110.485L79.5004 111.88C79.2984 112.101 79.023 112.229 78.7109 112.229Z" fill="#BD0000"/><path d="M138.03 59.8133 123.728 73.234C123.545 73.4176 123.232 73.3992 123.049 73.2156 122.994 73.1422 122.939 73.0688 122.92 72.977L121.103 63.375C121.048 63.118 120.809 62.9527 120.552 62.9895 120.35 63.0262 120.185 63.1914 120.166 63.3934L118.845 74.2254C118.808 74.4824 118.569 74.666 118.312 74.6477 118.239 74.6293 118.147 74.6109 118.092 74.5559L110.179 68.8277C109.959 68.6809 109.665 68.7176 109.518 68.9379 109.408 69.1031 109.389 69.3234 109.518 69.4887L115.191 77.8422C115.338 78.0625 115.283 78.3562 115.062 78.5031 115.007 78.5398 114.952 78.5582 114.897 78.5766L109.904 79.7332C109.646 79.7883 109.481 80.0453 109.536 80.3023 109.573 80.4859 109.738 80.6328 109.922 80.6695L114.512 81.4957C114.769 81.5508 114.952 81.7895 114.897 82.0465 114.879 82.1383 114.842 82.2301 114.769 82.2852L99.6773 98.3863C99.4938 98.5883 99.5121 98.882 99.7141 99.0656 99.8977 99.2125 100.155 99.2309 100.338 99.084L117.211 84.3598C117.413 84.1945 117.706 84.2129 117.89 84.3965 117.963 84.4699 118 84.5617 118 84.6719L118.826 94.2555C118.845 94.5125 119.083 94.7145 119.34 94.6961 119.561 94.6777 119.726 94.5125 119.762 94.3105L121.341 85.7C121.396 85.443 121.635 85.2594 121.892 85.3145 121.984 85.3328 122.076 85.3695 122.149 85.443L126.372 89.6289C126.555 89.8125 126.868 89.8125 127.051 89.6289 127.18 89.5004 127.216 89.3168 127.161 89.1516L125.252 82.8176C125.179 82.5605 125.325 82.3035 125.564 82.2301 125.656 82.1934 125.766 82.2117 125.858 82.2301L131.751 84.1762C132.008 84.268 132.265 84.1211 132.357 83.8824 132.412 83.6988 132.357 83.4969 132.21 83.3684L127.455 79.4027C127.253 79.2375 127.235 78.9254 127.4 78.7234 127.455 78.6684 127.51 78.6133 127.584 78.5949L132.155 76.759C132.394 76.6672 132.522 76.3918 132.43 76.1348 132.357 75.9695 132.192 75.841 132.008 75.841L126.978 75.584C126.721 75.5656 126.519 75.3453 126.519 75.0883 126.519 74.9781 126.555 74.8863 126.629 74.8129L138.691 60.4926C138.875 60.309 138.856 59.9969 138.673 59.8133 138.507 59.6297 138.214 59.6297 138.03 59.8133L138.03 59.8133 138.03 59.8133Z" fill="#990000"/><path d="M129.291 43.4184C128.722 43.3266 128.006 42.7574 128.098 42.1883 128.189 41.6191 128.098 40.7012 129.236 40.6094 129.805 40.5543 131.054 41.1234 130.796 42.2617 130.741 42.9777 130.117 43.4918 129.401 43.4367 129.364 43.4367 129.328 43.4367 129.291 43.4184Z" fill="#E60000"/><path d="M86.8258 68.7176C86.2566 68.6258 85.5406 68.0566 85.6324 67.4875 85.7242 66.9184 85.6324 66.0004 86.7707 65.9086 87.3398 65.8535 88.5883 66.4227 88.3313 67.5609 88.2762 68.2769 87.652 68.791 86.9359 68.7359 86.9176 68.7359 86.8625 68.7176 86.8258 68.7176Z" fill="#E60000"/><path d="M111.978 116.874C111.262 116.764 110.399 116.066 110.491 115.35 110.583 114.634 110.491 113.514 111.905 113.386 112.621 113.331 114.163 114.01 113.832 115.424 113.759 116.305 112.988 116.948 112.125 116.874 112.088 116.893 112.033 116.874 111.978 116.874Z" fill="#E60000"/><path d="M83.9434 50.7988 84.6227 52.0473C84.6777 52.1391 84.7512 52.2309 84.8613 52.2859L86.1098 52.9652C86.4035 53.1305 86.4953 53.4793 86.3484 53.773 86.2934 53.8648 86.2199 53.9566 86.1098 54.0117L84.8613 54.691C84.7695 54.7461 84.6777 54.8195 84.6227 54.9297L83.9434 56.1781C83.7781 56.4719 83.4293 56.5637 83.1355 56.4168 83.0437 56.3617 82.952 56.2883 82.8969 56.1781L82.2176 54.9297C82.1625 54.8379 82.0891 54.7461 81.9789 54.691L80.7305 54.0117C80.4367 53.8465 80.3449 53.4977 80.4918 53.2039 80.5469 53.1121 80.6203 53.0203 80.7305 52.9652L81.9789 52.2859C82.0707 52.2309 82.1625 52.1574 82.2176 52.0473L82.8969 50.7988C83.0437 50.5051 83.4109 50.3949 83.6863 50.5602 83.7965 50.6152 83.8883 50.707 83.9434 50.7988Z" fill="#BD0000"/><path d="M147.43 104.298 148.091 105.491C148.146 105.583 148.22 105.657 148.311 105.712L149.505 106.373C149.78 106.52 149.872 106.868 149.725 107.144 149.67 107.236 149.596 107.309 149.505 107.364L148.311 108.025C148.22 108.08 148.146 108.154 148.091 108.245L147.43 109.439C147.283 109.714 146.934 109.806 146.659 109.659 146.567 109.604 146.494 109.53 146.439 109.439L145.778 108.245C145.723 108.154 145.649 108.08 145.557 108.025L144.364 107.364C144.089 107.217 143.997 106.868 144.144 106.593 144.199 106.501 144.272 106.428 144.364 106.373L145.557 105.712C145.649 105.657 145.723 105.583 145.778 105.491L146.439 104.298C146.586 104.023 146.934 103.931 147.21 104.078 147.302 104.114 147.375 104.188 147.43 104.298L147.43 104.298Z" fill="#BD0000"/><path d="M137.057 112.138 138.104 114.047C138.195 114.194 138.305 114.322 138.471 114.414L140.38 115.461C140.821 115.699 140.986 116.25 140.747 116.691 140.655 116.838 140.545 116.966 140.38 117.058L138.471 118.104C138.324 118.196 138.195 118.306 138.104 118.471L137.057 120.381C136.818 120.821 136.268 120.987 135.827 120.748 135.68 120.656 135.552 120.546 135.46 120.381L134.413 118.471C134.321 118.325 134.211 118.196 134.046 118.104L132.137 117.058C131.696 116.819 131.531 116.268 131.77 115.828 131.861 115.681 131.971 115.552 132.137 115.461L134.046 114.414C134.193 114.322 134.321 114.212 134.413 114.047L135.46 112.138C135.698 111.697 136.249 111.532 136.69 111.77 136.855 111.862 136.984 111.972 137.057 112.138Z" fill="#BD0000"/><path d="M29.5262 44.0977 40.45 44.0977 40.45 53.1488 29.5262 53.1488Z" fill="#E60000"/><path d="M40.45 63.5035 29.5262 63.5035 29.5262 54.4523 40.45 54.4523" fill="#BD0000"/><path d="M29.5262 64.7887 40.45 64.7887 40.45 73.8398 29.5262 73.8398Z" fill="#990000"/><path d="M40.45 84.7453 29.5262 84.7453 29.5262 75.6941 40.45 75.6941" fill="#F4F4F4"/><path d="M40.45 95.3387 29.5262 95.3387 29.5262 86.2875 40.45 86.2875" fill="#EBEBEB"/><path d="M40.45 105.95 29.5262 105.95 29.5262 96.8992 40.45 96.8992" fill="#CCCCCC"/><path d="M40.45 116.544 29.5262 116.544 29.5262 107.493 40.45 107.493" fill="#AFAFAF"/><path d="M40.45 127.816 29.5262 127.816 29.5262 118.784 40.45 118.784" fill="#999999"/><path d="M40.45 138.098 29.5262 138.098 29.5262 129.046 40.45 129.046" fill="#666666"/><path d="M27.1027 127.89 16.1789 127.89 16.1789 118.839 27.1027 118.839" fill="#4A4D4E"/><path d="M27.1027 138.171 16.1789 138.171 16.1789 129.12 27.1027 129.12" fill="#333333"/><text font-family="Arial,Arial_MSFontService,sans-serif" font-weight="400" font-size="12" transform="matrix(0.183594 0 0 0.183594 32.5856 103)">204</text><text font-family="Arial,Arial_MSFontService,sans-serif" font-weight="400" font-size="12" transform="matrix(0.183594 0 0 0.183594 32.8147 113)">175</text><text font-family="Arial,Arial_MSFontService,sans-serif" font-weight="400" font-size="12" transform="matrix(0.183594 0 0 0.183594 32.9293 124)">153</text><text font-family="Arial,Arial_MSFontService,sans-serif" font-weight="400" font-size="12" transform="matrix(0.183594 0 0 0.183594 33.1584 134)">102</text><text font-family="Arial,Arial_MSFontService,sans-serif" font-weight="400" font-size="12" transform="matrix(0.183594 0 0 0.183594 32.9293 82)">244</text><text font-family="Arial,Arial_MSFontService,sans-serif" font-weight="400" font-size="12" transform="matrix(0.183594 0 0 0.183594 33.1584 92)">235</text><text fill="#FFFFFF" font-family="Arial,Arial_MSFontService,sans-serif" font-weight="400" font-size="12" transform="matrix(0.183594 0 0 0.183594 19.4157 124)">74</text><text fill="#FFFFFF" font-family="Arial,Arial_MSFontService,sans-serif" font-weight="400" font-size="12" transform="matrix(0.183594 0 0 0.183594 19.645 134)">51</text></g></svg>