<svg width="312" height="325" xmlns="http://www.w3.org/2000/svg" xmlns:xlink="http://www.w3.org/1999/xlink" xml:space="preserve" overflow="hidden"><defs><clipPath id="clip0"><rect x="1401" y="187" width="312" height="325"/></clipPath></defs><g clip-path="url(#clip0)" transform="translate(-1401 -187)"><path d="M1713 232.567 1713 495.236C1713 504.47 1705.75 512.001 1696.86 512.001L1417.14 512.001C1408.25 512.001 1401 504.47 1401 495.236L1401 232.567 1406.36 227 1707.58 227 1713 232.567Z" fill="#F2F2F2" fill-rule="evenodd"/><path d="M1713 203.867 1713 232 1401 232 1401 203.867C1401 194.577 1408.25 187 1417.14 187L1696.8 187C1705.75 187 1713 194.577 1713 203.867Z" fill="#E60000" fill-rule="evenodd"/><path d="M1692 372.35 1692 478.767C1692 484.942 1687.13 489.934 1681.18 490L1432.82 490C1426.87 490 1422.06 484.942 1422 478.767L1422 461.951C1422 428.318 1438.2 400.268 1465.22 400.268 1492.24 400.268 1492.24 422.668 1524.63 422.668 1557.03 422.668 1562.41 377.802 1589.43 377.802 1605.63 377.802 1605.63 394.618 1627.2 394.618 1650.55 394.618 1653.72 368.08 1678.65 361.314 1684.47 359.869 1690.29 363.548 1691.68 369.59 1691.94 370.576 1692 371.495 1692 372.35L1692 372.35Z" fill="#BD0000" fill-rule="evenodd"/><path d="M1692 372.332 1692 411.419C1671.95 411.419 1664.8 419.026 1660.19 428.011 1651.77 444.406 1632.17 450.571 1616.36 441.849 1614.71 440.93 1613.13 439.881 1611.61 438.701 1603.77 432.143 1594.03 428.404 1583.97 428.208 1556.97 428.208 1556.97 467.36 1524.59 467.36 1492.2 467.36 1492.2 444.997 1465.2 444.997 1438.19 444.997 1422 473 1422 473L1422 461.786C1422 428.208 1438.19 400.203 1465.2 400.203 1492.2 400.203 1492.2 422.567 1524.59 422.567 1556.97 422.567 1562.34 377.774 1589.35 377.774 1605.54 377.774 1605.54 394.563 1627.11 394.563 1650.45 394.563 1653.61 368.068 1678.53 361.313 1684.35 359.87 1690.17 363.543 1691.56 369.576 1691.94 370.56 1692 371.478 1692 372.332L1692 372.332Z" fill="#E60000" fill-rule="evenodd"/><path d="M1427.67 215 1422.33 215C1419.38 215 1417 212.541 1417 209.5 1417 206.459 1419.38 204 1422.33 204L1427.67 204C1430.62 204 1433 206.459 1433 209.5 1433 212.541 1430.62 215 1427.67 215Z" fill="#990000" fill-rule="evenodd"/><path d="M1454.67 215 1449.33 215C1446.38 215 1444 212.541 1444 209.5 1444 206.459 1446.38 204 1449.33 204L1454.67 204C1457.62 204 1460 206.459 1460 209.5 1460 212.541 1457.62 215 1454.67 215Z" fill="#990000" fill-rule="evenodd"/><path d="M1481.67 215 1476.33 215C1473.38 215 1471 212.541 1471 209.5 1471 206.459 1473.38 204 1476.33 204L1481.67 204C1484.62 204 1487 206.459 1487 209.5 1487 212.541 1484.62 215 1481.67 215Z" fill="#990000" fill-rule="evenodd"/><path d="M1691.64 215 1659.36 215C1656.4 215 1654 212.541 1654 209.5 1654 206.459 1656.4 204 1659.36 204L1691.64 204C1694.6 204 1697 206.459 1697 209.5 1697 212.541 1694.6 215 1691.64 215Z" fill="#BD0000" fill-rule="evenodd"/><path d="M1573.64 327 1541.36 327C1538.4 327 1536 324.541 1536 321.5 1536 318.459 1538.4 316 1541.36 316L1573.64 316C1576.6 316 1579 318.459 1579 321.5 1579 324.541 1576.6 327 1573.64 327Z" fill="#666666" fill-rule="evenodd"/><path d="M1567.68 350 1546.32 350C1543.38 350 1541 347.541 1541 344.5 1541 341.459 1543.38 339 1546.32 339L1567.68 339C1570.62 339 1573 341.459 1573 344.5 1573 347.541 1570.62 350 1567.68 350Z" fill="#666666" fill-rule="evenodd"/><path d="M1486.64 327 1454.36 327C1451.4 327 1449 324.541 1449 321.5 1449 318.459 1451.4 316 1454.36 316L1486.64 316C1489.6 316 1492 318.459 1492 321.5 1492 324.541 1489.6 327 1486.64 327Z" fill="#666666" fill-rule="evenodd"/><path d="M1481.68 350 1460.32 350C1457.38 350 1455 347.541 1455 344.5 1455 341.459 1457.38 339 1460.32 339L1481.68 339C1484.62 339 1487 341.459 1487 344.5 1487.06 347.541 1484.62 350 1481.68 350Z" fill="#666666" fill-rule="evenodd"/><path d="M1659.64 327 1627.36 327C1624.4 327 1622 324.541 1622 321.5 1622 318.459 1624.4 316 1627.36 316L1659.64 316C1662.6 316 1665 318.459 1665 321.5 1665 324.541 1662.6 327 1659.64 327Z" fill="#666666" fill-rule="evenodd"/><path d="M1653.68 350 1632.32 350C1629.38 350 1627 347.541 1627 344.5 1627 341.459 1629.38 339 1632.32 339L1653.68 339C1656.62 339 1659 341.459 1659 344.5 1659 347.541 1656.62 350 1653.68 350Z" fill="#666666" fill-rule="evenodd"/><path d="M1498 277 1487.19 277C1487.19 267.754 1479.92 260.213 1471 260.213L1471 249C1485.92 249 1498 261.525 1498 277Z" fill="#990000" fill-rule="evenodd"/><path d="M1670 277 1659.19 277C1659.19 267.754 1651.92 260.213 1643 260.213L1643 249C1657.92 249 1670 261.525 1670 277Z" fill="#990000" fill-rule="evenodd"/><path d="M1567.81 289.718C1574.45 283.458 1575.02 272.851 1569.01 265.867 1565.98 262.309 1561.62 260.266 1557 260.266L1557 249C1571.92 249 1584 261.584 1584 277.133 1584 283.195 1582.1 289.124 1578.63 294L1567.81 289.718Z" fill="#990000" fill-rule="evenodd"/><path d="M1471.03 305.001C1456.09 305.001 1444 292.476 1444 277 1444 261.525 1456.09 249 1471.03 249 1474.01 249 1476.41 251.492 1476.41 254.574 1476.41 257.655 1474.01 260.147 1471.03 260.147 1462.11 260.147 1454.83 267.689 1454.83 276.935 1454.83 286.181 1462.11 293.722 1471.03 293.722 1479.96 293.722 1487.24 286.181 1487.24 276.935 1487.24 273.852 1489.64 271.361 1492.62 271.361 1495.6 271.361 1498 273.852 1498 276.935 1498 292.476 1485.91 305.001 1471.03 305.001Z" fill="#E60000" fill-rule="evenodd"/><path d="M1643.01 305.001C1628.08 305.001 1616 292.476 1616 277 1616 261.525 1628.08 249 1643.01 249 1645.98 249 1648.39 251.492 1648.39 254.574 1648.39 257.655 1645.98 260.147 1643.01 260.147 1634.09 260.147 1626.82 267.689 1626.82 276.935 1626.82 286.181 1634.09 293.722 1643.01 293.722 1651.93 293.722 1659.21 286.181 1659.21 276.935 1659.21 275.492 1659.02 274.115 1658.7 272.738 1657.94 269.722 1659.71 266.705 1662.56 265.919 1665.41 265.131 1668.38 266.968 1669.14 269.919 1672.87 284.869 1664.14 300.148 1649.72 304.017 1647.57 304.739 1645.29 305.001 1643.01 305.001Z" fill="#E60000" fill-rule="evenodd"/><path d="M1556.89 305.001C1542.03 305.001 1530 292.476 1530 277 1530 261.525 1542.03 249 1556.89 249 1559.85 249 1562.24 251.492 1562.24 254.574 1562.24 257.655 1559.85 260.147 1556.89 260.147 1548.01 260.147 1540.77 267.689 1540.77 276.935 1540.77 286.181 1548.01 293.722 1556.89 293.722 1562.62 293.722 1567.97 290.509 1570.87 285.328 1572.26 282.574 1575.47 281.525 1578.11 282.968 1580.76 284.41 1581.76 287.755 1580.38 290.509 1580.32 290.639 1580.25 290.771 1580.13 290.902 1575.34 299.69 1566.46 305.001 1556.89 305.001L1556.89 305.001Z" fill="#E60000" fill-rule="evenodd"/></g></svg>