<svg width="186" height="325" xmlns="http://www.w3.org/2000/svg" xmlns:xlink="http://www.w3.org/1999/xlink" xml:space="preserve" overflow="hidden"><defs><clipPath id="clip0"><rect x="2377" y="953" width="186" height="325"/></clipPath></defs><g clip-path="url(#clip0)" transform="translate(-2377 -953)"><path d="M2513 1126.12 2504.27 1091.25 2473.01 1079 2441.73 1091.25 2433 1126.12 2441.73 1160 2504.27 1160Z" fill="#EDF2FB" fill-rule="evenodd"/><path d="M2537.68 1250C2549.41 1250 2559 1238.45 2559 1224.32 2559 1144.44 2559 1064.56 2559 984.679 2559 970.553 2549.41 959 2537.68 959L2409.32 959C2397.59 959 2388 970.554 2388 984.679L2388 1224.32C2388 1238.45 2397.59 1250 2409.32 1250Z" fill="#E60000" fill-rule="evenodd"/><text fill="#FFFFFF" font-family="Vodafone Rg,Vodafone Rg_MSFontService,sans-serif" font-weight="400" font-size="28" transform="matrix(1 0 0 1 2394.22 1011)">1 Balance</text><text fill="#FFFFFF" font-family="Vodafone Rg,Vodafone Rg_MSFontService,sans-serif" font-weight="400" font-size="28" transform="matrix(1 0 0 1 2394.22 1044)">2 Buy</text><text fill="#FFFFFF" font-family="Vodafone Rg,Vodafone Rg_MSFontService,sans-serif" font-weight="400" font-size="28" transform="matrix(1 0 0 1 2394.22 1077)">3 VodaBucks</text><text fill="#FFFFFF" font-family="Vodafone Rg,Vodafone Rg_MSFontService,sans-serif" font-weight="400" font-size="28" transform="matrix(1 0 0 1 2394.22 1110)">4 Just4You</text><text fill="#FFFFFF" font-family="Vodafone Rg,Vodafone Rg_MSFontService,sans-serif" font-weight="400" font-size="28" transform="matrix(1 0 0 1 2394.22 1143)">5 Advance</text><path d="M2483.85 987 2463.15 987C2460.86 987 2459 984.761 2459 982 2459 979.239 2460.86 977 2463.15 977L2483.85 977C2486.14 977 2488 979.239 2488 982 2488 984.761 2486.14 987 2483.85 987Z" fill="#990000" fill-rule="evenodd"/><path d="M2547.15 1224.32C2547.15 1238.45 2537.64 1250 2526 1250L2537.85 1250C2541.17 1250 2544.33 1249.04 2547.15 1247.36 2554.15 1243.16 2559 1234.39 2559 1224.32 2559 1144.44 2559 1064.56 2559 984.679 2559 970.553 2549.48 959 2537.85 959L2526 959C2537.64 959 2547.15 970.554 2547.15 984.679Z" fill="#BD0000" fill-rule="evenodd"/><path d="M2537.54 953 2409.46 953C2395.42 953 2384 966.851 2384 983.874L2384 1247.13C2384 1264.15 2395.42 1278 2409.46 1278L2537.54 1278C2551.58 1278 2563 1264.15 2563 1247.13L2563 983.874C2563 966.851 2551.58 953 2537.54 953ZM2392.38 983.874C2392.38 972.464 2400.04 963.183 2409.46 963.183L2537.54 963.183C2546.96 963.183 2554.62 972.464 2554.62 983.874L2554.62 1224.47C2554.62 1235.88 2546.96 1245.16 2537.54 1245.16L2409.46 1245.16C2400.04 1245.16 2392.38 1235.88 2392.38 1224.47Z" fill="#333333" fill-rule="evenodd"/></g></svg>