<svg width="95" height="95" xmlns="http://www.w3.org/2000/svg" xmlns:xlink="http://www.w3.org/1999/xlink" xml:space="preserve" overflow="hidden"><g transform="translate(-707 -35)"><path d="M790.457 60.7638 766.042 36.3646C764.161 34.5792 761.211 34.5792 759.329 36.3646L734.93 60.7638C734.309 61.3795 734.305 62.3822 734.921 63.003 735.216 63.3011 735.619 63.4695 736.038 63.4713L789.333 63.4713C790.213 63.4632 790.92 62.7436 790.912 61.8636 790.908 61.4522 790.745 61.0579 790.457 60.7638Z" fill="#990000"/><path d="M755.181 40.513 734.93 60.7638C734.309 61.3795 734.305 62.3822 734.921 63.003 735.216 63.3011 735.619 63.4695 736.038 63.4713L777.997 63.4713Z" fill="#820000"/><path d="M745.649 63.4713 763.573 63.4713 778.361 48.683 769.399 39.7213Z" fill="#EBEBEB"/><path d="M761.878 47.2421 745.649 63.4713 763.573 63.4713 770.808 56.2355Z" fill="#CCCCCC"/><path d="M771.014 60.7638 746.583 36.3646C744.702 34.5792 741.752 34.5792 739.87 36.3646L715.487 60.7638C714.866 61.3795 714.862 62.3822 715.477 63.003 715.773 63.3011 716.175 63.4695 716.595 63.4713L769.89 63.4713C770.77 63.4632 771.477 62.7436 771.469 61.8636 771.465 61.4522 771.302 61.0579 771.014 60.7638Z" fill="#999999"/><path d="M763.066 60.7282 748.816 47.5073C748.164 46.9271 747.165 46.9837 746.583 47.634 744.729 49.4862 741.724 49.4862 739.87 47.634 739.253 47.0201 738.255 47.0201 737.637 47.634L724.417 60.7638C723.801 61.3928 723.812 62.4014 724.441 63.0169 724.735 63.3047 725.129 63.4675 725.541 63.4713L761.957 63.4713C762.832 63.4707 763.54 62.7612 763.54 61.8868 763.539 61.4472 763.356 61.0274 763.034 60.7282Z" fill="#AFAFAF"/><path d="M790.917 60.3066C795.289 60.3066 798.833 63.851 798.833 68.2233L798.833 122.057C798.833 126.429 795.289 129.973 790.917 129.973L714.917 129.973C710.544 129.973 707 126.429 707 122.057L707 68.2233C707 63.851 710.544 60.3066 714.917 60.3066Z" fill="#E60000"/><path d="M790.917 60.3046 784.583 60.3046C788.956 60.3046 792.5 63.8491 792.5 68.2213L792.5 122.055C792.5 126.427 788.956 129.971 784.583 129.971L790.917 129.971C795.289 129.971 798.833 126.427 798.833 122.055L798.833 68.2213C798.833 63.8491 795.289 60.3046 790.917 60.3046Z" fill="#BD0000"/><path d="M797.25 82.4713 778.25 82.4713C771.254 82.4713 765.583 88.1424 765.583 95.138 765.583 102.134 771.254 107.805 778.25 107.805L797.25 107.805C799.873 107.805 802 105.678 802 103.055L802 87.2213C802 84.5979 799.873 82.4713 797.25 82.4713Z" fill="#4A4D4E"/><path d="M797.25 82.4713 790.917 82.4713C793.54 82.4713 795.667 84.5979 795.667 87.2213L795.667 103.055C795.667 105.678 793.54 107.805 790.917 107.805L797.25 107.805C799.873 107.805 802 105.678 802 103.055L802 87.2213C802 84.5979 799.873 82.4713 797.25 82.4713Z" fill="#333333"/><path d="M784.583 95.14C784.583 98.6378 781.748 101.473 778.25 101.473 774.752 101.473 771.917 98.6378 771.917 95.14 771.917 91.6421 774.752 88.8066 778.25 88.8066 781.748 88.8066 784.583 91.6421 784.583 95.14Z" fill="#E7EAEF"/><path d="M778.25 88.8046C777.715 88.813 777.183 88.8874 776.667 89.0263 780.042 89.9436 782.035 93.4234 781.117 96.7989 780.528 98.9669 778.835 100.66 776.667 101.25 780.042 102.166 783.522 100.172 784.438 96.7967 785.354 93.421 783.361 89.9417 779.985 89.0253 779.42 88.8719 778.836 88.7975 778.25 88.8046Z" fill="#CCCCCC"/></g></svg>