<?xml version="1.0" encoding="UTF-8"?>
<!--
  Icon: wifi-signal-4-bold
  Set: Ultimate free icons
  Author: Streamline (https://github.com/webalys-hq/streamline-vectors)
  License: CC BY 4.0 (https://creativecommons.org/licenses/by/4.0/)
  Source: https://iconify.design
-->
<svg xmlns="http://www.w3.org/2000/svg"
     xmlns:xlink="http://www.w3.org/1999/xlink"
     viewBox="0 0 24 24"
     width="24"
     height="24">
  <title>Wireless Signal Tower Icon</title>
  <metadata>
    <rdf:RDF xmlns:rdf="http://www.w3.org/1999/02/22-rdf-syntax-ns#"
             xmlns:dc="http://purl.org/dc/elements/1.1/"
             xmlns:cc="http://creativecommons.org/ns#">
      <cc:Work rdf:about="">
        <dc:title>Wireless Signal Tower Icon</dc:title>
        <dc:description>A minimalist icon of a wireless signal tower with radiating waves, representing connectivity, communication, and network signals. Ideal for use in technology, telecommunications, and internet-related designs.</dc:description>
        <dc:creator>
          <cc:Agent>
            <dc:title>Streamline</dc:title>
          </cc:Agent>
        </dc:creator>
        <dc:source>https://github.com/webalys-hq/streamline-vectors</dc:source>
        <dc:rights>
          <cc:Agent>
            <dc:title>Streamline</dc:title>
          </cc:Agent>
        </dc:rights>
        <cc:license rdf:resource="https://creativecommons.org/licenses/by/4.0/"/>
        <dc:format>image/svg+xml</dc:format>
        <dc:type rdf:resource="http://purl.org/dc/dcmitype/StillImage"/>
        <dc:subject>
          <rdf:Bag>
            <rdf:li>wireless-icon</rdf:li>
            <rdf:li>signal-tower</rdf:li>
            <rdf:li>network-icon</rdf:li>
            <rdf:li>communication-icon</rdf:li>
            <rdf:li>connectivity-icon</rdf:li>
            <rdf:li>radio-waves</rdf:li>
            <rdf:li>Wi-Fi-symbol</rdf:li>
            <rdf:li>internet-icon</rdf:li>
            <rdf:li>technology-icon</rdf:li>
            <rdf:li>broadcasting-icon</rdf:li>
            <rdf:li>telecom-icon</rdf:li>
            <rdf:li>wireless-communication</rdf:li>
            <rdf:li>signal-strength</rdf:li>
            <rdf:li>data-transmission</rdf:li>
            <rdf:li>mobile-network</rdf:li>
          </rdf:Bag>
        </dc:subject>
      </cc:Work>
      <cc:License rdf:about="https://creativecommons.org/licenses/by/4.0/">
        <dc:title>CC BY 4.0 (CC-BY-4.0)</dc:title>
      </cc:License>
    </rdf:RDF>
  </metadata>
  <path fill="currentColor" d="M13 11.93a3 3 0 1 0-2.08 0L7.06 22.66A1 1 0 0 0 8 24h8a1 1 0 0 0 .94-1.34ZM20.34.29a1 1 0 0 0-1.42 0a1 1 0 0 0 0 1.41a10.5 10.5 0 0 1 0 14.85A1 1 0 0 0 20.34 18a12.52 12.52 0 0 0 0-17.71M5.08 1.7a1 1 0 0 0 0-1.41a1 1 0 0 0-1.42 0a12.52 12.52 0 0 0 0 17.71a1 1 0 0 0 1.42-1.42a10.5 10.5 0 0 1 0-14.88"/><path fill="currentColor" d="M17.05 3.83a1 1 0 1 0-1.41 1.41a5.5 5.5 0 0 1 0 7.78a1 1 0 1 0 1.41 1.41a7.48 7.48 0 0 0 0-10.6m-8.69 10.6a1 1 0 0 0 0-1.41a5.5 5.5 0 0 1 0-7.78A1 1 0 0 0 7 3.83a7.48 7.48 0 0 0 0 10.6a1 1 0 0 0 1.36 0"/>
</svg>