<svg width="99" height="94" xmlns="http://www.w3.org/2000/svg" xmlns:xlink="http://www.w3.org/1999/xlink" xml:space="preserve" overflow="hidden"><defs><clipPath id="clip0"><rect x="91" y="56" width="99" height="94"/></clipPath></defs><g clip-path="url(#clip0)" transform="translate(-91 -56)"><path d="M104.167 14.0184 17.0685 14.0184C13.9121 14.0184 11.3533 16.5771 11.3533 19.7335L11.3533 93.1681C11.3618 96.321 13.9156 98.8748 17.0685 98.8833L28.6683 98.8833 28.6683 104.845 22.6142 104.845C21.7378 104.845 21.0275 105.555 21.0275 106.432 21.0275 107.308 21.7378 108.018 22.6142 108.018L98.5906 108.018C99.467 108.018 100.177 107.308 100.177 106.432 100.177 105.555 99.467 104.845 98.5906 104.845L92.5674 104.845 92.5674 98.8833 104.167 98.8833C107.32 98.8748 109.874 96.321 109.882 93.1681L109.882 19.7335C109.874 16.5806 107.32 14.0268 104.167 14.0184ZM42.0859 104.907 42.0859 98.8833 45.4903 98.8833 45.4903 104.845ZM58.9079 104.907 58.9079 98.8833 62.3278 98.8833 62.3278 104.845ZM79.1498 104.907 75.7453 104.907 75.7453 98.8833 79.1498 98.8833Z" fill="#CCCCCC" transform="matrix(1.00382 0 0 1 79.6581 41.9816)"/><path d="M104.167 14.0184 17.0685 14.0184C13.9121 14.0184 11.3533 16.5771 11.3533 19.7335L11.3533 31.7493 39.4979 31.7493C40.0326 31.759 40.534 31.4908 40.8227 31.0406L43.5185 26.9584 109.882 26.9584 109.882 19.7335C109.874 16.5806 107.32 14.0268 104.167 14.0184Z" fill="#AFAFAF" transform="matrix(1.00382 0 0 1 79.6581 41.9816)"/><path d="M21.5667 24.4782C22.4175 24.4782 23.1072 23.7885 23.1072 22.9377 23.1072 22.0869 22.4175 21.3972 21.5667 21.3972 20.7159 21.3972 20.0262 22.0869 20.0262 22.9377L20.0262 22.9377C20.0262 23.7885 20.7159 24.4782 21.5667 24.4782Z" fill="#E60000" fill-rule="evenodd" transform="matrix(1.00382 0 0 1 79.6581 41.9816)"/><path d="M26.8505 24.4782C27.7013 24.4782 28.391 23.7885 28.391 22.9377 28.391 22.0869 27.7013 21.3972 26.8505 21.3972 25.9997 21.3972 25.3101 22.0869 25.3101 22.9377L25.3101 22.9377C25.3101 23.7885 25.9997 24.4782 26.8505 24.4782Z" fill="#E60000" fill-rule="evenodd" transform="matrix(1.00382 0 0 1 79.6581 41.9816)"/><path d="M32.119 24.4782C32.9698 24.4782 33.6595 23.7885 33.6595 22.9377 33.6595 22.0869 32.9698 21.3972 32.119 21.3972 31.2682 21.3972 30.5785 22.0869 30.5785 22.9377 30.5785 23.7885 31.2682 24.4782 32.119 24.4782Z" fill="#E60000" fill-rule="evenodd" transform="matrix(1.00382 0 0 1 79.6581 41.9816)"/><path d="M15.4048 93.1681 15.4048 31.7493 11.3533 31.7493 11.3533 93.1681C11.3618 96.321 13.9156 98.8748 17.0685 98.8833L21.0429 98.8833C17.9167 98.8413 15.4045 96.2947 15.4048 93.1681Z" fill="#AFAFAF" transform="matrix(1.00382 0 0 1 79.6581 41.9816)"/><path d="M11.3533 19.7335 11.3533 31.7493 15.4048 31.7493 15.4048 19.7335C15.4045 16.607 17.9167 14.0605 21.0429 14.0184L17.0685 14.0184C13.9121 14.0184 11.3533 16.5771 11.3533 19.7335Z" fill="#999999" transform="matrix(1.00382 0 0 1 79.6581 41.9816)"/><path d="M98.5906 108.018 22.6142 108.018C21.7378 108.018 21.0275 107.308 21.0275 106.432 21.0275 105.555 21.7378 104.845 22.6142 104.845L98.5906 104.845C99.467 104.845 100.177 105.555 100.177 106.432 100.177 107.308 99.467 108.018 98.5906 108.018Z" fill="#666666" transform="matrix(1.00382 0 0 1 79.6581 41.9816)"/><path d="M34.06 43.8266 30.2858 43.8266C29.4094 43.8266 28.6991 43.1163 28.6991 42.2399 28.6991 41.3635 29.4094 40.6532 30.2858 40.6532L34.06 40.6532C34.9364 40.6532 35.6467 41.3635 35.6467 42.2399 35.6467 43.1163 34.9364 43.8266 34.06 43.8266Z" fill="#990000" transform="matrix(1.00382 0 0 1 79.6581 41.9816)"/><path d="M51.3133 43.8266 38.9895 43.8266C38.1131 43.8266 37.4028 43.1163 37.4028 42.2399 37.4028 41.3635 38.1131 40.6532 38.9895 40.6532L51.3133 40.6532C52.1897 40.6532 52.9 41.3635 52.9 42.2399 52.9 43.1163 52.1897 43.8266 51.3133 43.8266Z" fill="#990000" transform="matrix(1.00382 0 0 1 79.6581 41.9816)"/><path d="M51.3133 49.4956 30.255 49.4956C29.3786 49.4956 28.6683 48.7853 28.6683 47.9089 28.6683 47.0325 29.3786 46.3222 30.255 46.3222L51.3133 46.3222C52.1897 46.3222 52.9 47.0325 52.9 47.9089 52.9 48.7853 52.1897 49.4956 51.3133 49.4956Z" fill="#990000" transform="matrix(1.00382 0 0 1 79.6581 41.9816)"/><path d="M42.5172 55.1491 30.1934 55.1491C29.317 55.1491 28.6067 54.4388 28.6067 53.5624 28.6067 52.6861 29.317 51.9757 30.1934 51.9757L42.5172 51.9757C43.3936 51.9757 44.1039 52.6861 44.1039 53.5624 44.1039 54.4388 43.3936 55.1491 42.5172 55.1491Z" fill="#990000" transform="matrix(1.00382 0 0 1 79.6581 41.9816)"/><path d="M90.9807 40.6532 83.6788 40.6532C82.8024 40.6532 82.0921 41.3635 82.0921 42.2399 82.0921 43.1163 82.8024 43.8266 83.6788 43.8266L87.1449 43.8266 67.0108 63.9761 58.8617 56.9977C58.2708 56.4498 57.3576 56.4498 56.7666 56.9977L29.2691 81.1216C28.6098 81.7002 28.5441 82.7037 29.1227 83.363 29.7014 84.0223 30.7048 84.088 31.3641 83.5093L57.8912 60.2481 66.1019 67.3343C66.7238 67.9108 67.6946 67.8764 68.274 67.2573L89.3478 46.0757 89.3478 49.5418C89.3478 50.4223 90.0616 51.1362 90.9422 51.1362 91.8227 51.1362 92.5365 50.4223 92.5365 49.5418L92.5365 42.2399C92.5365 41.3891 91.8469 40.6994 90.9961 40.6994Z" fill="#E60000" transform="matrix(1.00382 0 0 1 79.6581 41.9816)"/><path d="M40.4992 86.8214 30.255 86.8214C29.4042 86.8214 28.7145 87.511 28.7145 88.3619L28.7145 104.845 42.1321 104.845 42.1321 88.4081C42.1592 87.5577 41.4917 86.8465 40.6414 86.8194 40.5941 86.8178 40.5465 86.8185 40.4992 86.8214Z" fill="#E60000" transform="matrix(1.00382 0 0 1 79.6581 41.9816)"/><path d="M57.3212 80.1049 47.077 80.1049C46.2262 80.1049 45.5365 80.7946 45.5365 81.6454L45.5365 104.753 58.9541 104.753 58.9541 81.6454C58.9557 80.7946 58.2672 80.1037 57.4164 80.1021 57.3847 80.1021 57.3529 80.103 57.3212 80.1049Z" fill="#990000" transform="matrix(1.00382 0 0 1 79.6581 41.9816)"/><path d="M74.1586 72.2176 63.9145 72.2176C63.0636 72.2176 62.374 72.9073 62.374 73.7581L62.374 104.845 75.7915 104.845 75.7915 73.8043C75.8187 72.954 75.1512 72.2427 74.3008 72.2156 74.2535 72.2141 74.2059 72.2147 74.1586 72.2176Z" fill="#BD0000" transform="matrix(1.00382 0 0 1 79.6581 41.9816)"/><path d="M90.9807 59.9092 80.7365 59.9092C79.8857 59.9092 79.196 60.5989 79.196 61.4497L79.196 104.845 92.6136 104.845 92.6136 61.4959C92.6407 60.6456 91.9732 59.9343 91.1229 59.9072 91.0756 59.9057 91.028 59.9063 90.9807 59.9092Z" fill="#E60000" transform="matrix(1.00382 0 0 1 79.6581 41.9816)"/><path d="M49.8653 80.1049 47.077 80.1049C46.2262 80.1049 45.5365 80.7946 45.5365 81.6454L45.5365 104.753 48.3248 104.753 48.3248 81.6454C48.3248 80.7946 49.0145 80.1049 49.8653 80.1049Z" fill="#820000" transform="matrix(1.00382 0 0 1 79.6581 41.9816)"/><path d="M33.0433 86.8214 30.255 86.8214C29.4042 86.8214 28.7145 87.511 28.7145 88.3619L28.7145 104.845 31.5028 104.845 31.5028 88.4081C31.4772 87.5577 32.1459 86.8476 32.9963 86.8221 33.012 86.8215 33.0276 86.8214 33.0433 86.8214Z" fill="#BD0000" transform="matrix(1.00382 0 0 1 79.6581 41.9816)"/><path d="M83.5093 59.9092 80.7365 59.9092C79.8857 59.9092 79.196 60.5989 79.196 61.4497L79.196 104.845 81.9689 104.845 81.9689 61.4959C81.9433 60.6456 82.612 59.9354 83.4625 59.9098 83.4781 59.9094 83.4936 59.9092 83.5093 59.9092Z" fill="#BD0000" transform="matrix(1.00382 0 0 1 79.6581 41.9816)"/><path d="M66.6873 72.2176 63.9145 72.2176C63.0636 72.2176 62.374 72.9073 62.374 73.7581L62.374 104.845 65.1468 104.845 65.1468 73.8043C65.1213 72.954 65.79 72.2438 66.6405 72.2184 66.656 72.2178 66.6718 72.2176 66.6873 72.2176Z" fill="#990000" transform="matrix(1.00382 0 0 1 79.6581 41.9816)"/></g></svg>